<svg width="40" height="40" viewBox="0 0 40 40" fill="none" xmlns="http://www.w3.org/2000/svg">
<g clip-path="url(#clip0_10330_2764)">
<path d="M33.0506 35.6886L32.9191 35.238C32.8555 35.0203 32.6435 34.8869 32.4254 34.9146L32.2866 33.8735L31.9991 31.7171C31.9991 31.717 31.9991 31.7169 31.9991 31.7168L31.9657 31.4663C31.8147 30.3333 31.1127 29.3492 29.9567 28.7713L28.6021 28.094C28.3827 27.9843 28.2152 28.1254 28.0541 28.3046L25.0812 27.2108C24.518 27.0231 24.1381 26.496 24.1381 25.9023V23.678L27.1089 22.4402C28.6507 21.7976 29.6551 20.2909 29.6551 18.6204V12.4135C29.6551 10.509 28.1112 7.58594 26.2068 7.58594H13.793C11.8886 7.58594 10.3448 10.509 10.3448 12.4135V18.6204C10.3448 20.2909 11.3492 21.7975 12.8911 22.4401L15.862 23.6779V25.9021C15.862 26.4958 15.4821 27.0229 14.9189 27.2107L11.9461 28.3045C11.7849 28.1252 11.6174 27.984 11.398 28.0938L10.0434 28.7711C8.88735 29.3491 8.18545 30.3333 8.03441 31.4661L8.00105 31.7166C8.00105 31.7167 8.00105 31.7168 8.00105 31.7169L7.71355 33.8733L7.57476 34.9145C7.35666 34.8867 7.14467 35.0202 7.08105 35.2378L6.9495 35.6884C6.87907 35.9297 7.0176 36.1823 7.2589 36.2527L7.39122 36.2914L7.20916 37.6572C7.04347 38.8977 8.00829 39.9997 9.25959 39.9997H30.7403C31.9916 39.9997 32.9565 38.8977 32.7911 37.6573L32.609 36.2915L32.7413 36.2528C32.9825 36.1826 33.121 35.9299 33.0506 35.6886Z" fill="#F6B47B"/>
<path d="M15.8619 23.5342V25.9022C15.8619 26.393 15.6018 26.8377 15.1936 27.0833C20.6896 28.0329 23.8309 23.9107 24.1164 23.5342H15.8619Z" fill="#E2A071"/>
<path d="M27.1087 22.4401L22.6523 24.2969C21.8118 24.6471 20.9103 24.8274 19.9998 24.8274C19.0893 24.8274 18.1877 24.6471 17.3472 24.2969L12.8911 22.4402C11.3491 21.7976 10.3447 20.2909 10.3447 18.6204V12.4135C10.3447 10.5091 11.8886 7.58594 13.793 7.58594H26.2068C28.1112 7.58594 29.6551 10.5091 29.6551 12.4135V18.6204C29.6551 20.2909 28.6507 21.7976 27.1087 22.4401Z" fill="#FDC88E"/>
<path d="M15.1723 16.5514C14.793 16.5514 14.4827 16.241 14.4827 15.8617V15.1721C14.4827 14.7928 14.793 14.4824 15.1723 14.4824C15.5516 14.4824 15.862 14.7928 15.862 15.1721V15.8617C15.862 16.241 15.5516 16.5514 15.1723 16.5514Z" fill="#623F33"/>
<path d="M24.8276 16.5514C24.4483 16.5514 24.1379 16.241 24.1379 15.8617V15.1721C24.1379 14.7928 24.4483 14.4824 24.8276 14.4824C25.2069 14.4824 25.5173 14.7928 25.5173 15.1721V15.8617C25.5173 16.241 25.2069 16.5514 24.8276 16.5514Z" fill="#623F33"/>
<path d="M19.9999 21.3985C18.7738 21.3985 17.6269 21.0968 16.8533 20.5705C16.5385 20.3564 16.4566 19.9273 16.6712 19.6125C16.885 19.298 17.3144 19.2161 17.6292 19.4303C18.1714 19.799 19.0576 20.0193 19.9999 20.0193C20.9421 20.0193 21.8284 19.799 22.3706 19.4303C22.6861 19.2155 23.1145 19.2977 23.3286 19.6125C23.5431 19.9273 23.4613 20.3564 23.1464 20.5705C22.373 21.0968 21.226 21.3985 19.9999 21.3985Z" fill="#E2A071"/>
<path d="M10.3447 13.202V18.621C10.3447 20.2914 11.3491 21.7982 12.8911 22.4407L17.3471 24.2974C17.5652 24.3882 17.7878 24.4665 18.0133 24.5344C16.0439 23.0938 14.7331 21.8344 13.965 21.0109C13.4062 20.4118 13.1033 19.6212 13.1033 18.8019V14.9475C15.0775 14.2584 20.1848 11.9951 20.2557 8.27626C20.2624 7.92479 20.257 7.61143 20.2415 7.33203C16.9958 11.7687 12.4991 12.9321 10.3447 13.202Z" fill="#F6B47B"/>
<path d="M31.9396 22.939C31.9396 21.4777 30.7349 20.8602 30.7349 19.6158C30.7349 18.3714 32.3002 18.0366 32.3002 16.1711C32.3002 14.9241 31.7445 13.9559 31.3759 13.0636C33.4776 3.95457 25.5938 0 23.4482 0C21.2069 0 20 0.689655 20 0.689655C20 0.689655 18.7931 0 16.5517 0C14.4062 0 6.52238 3.95457 8.62402 13.0635C8.2554 13.9558 7.69971 14.924 7.69971 16.171C7.69971 18.0366 9.26505 18.3713 9.26505 19.6157C9.26505 20.8601 8.06031 21.4777 8.06031 22.9389C8.06031 24.4002 9.22066 25.1078 9.59764 26.2072C9.77005 26.71 9.56893 28.2184 9.56893 28.2184C9.56893 28.2184 10.7974 26.1915 10.1508 24.3295C9.50428 22.4675 10.2543 22.2672 10.8405 21.4541C11.7241 20.2284 11.6043 18.8534 10.8826 17.517C10.4166 16.6539 10.5393 15.8202 11.1925 15.2397C11.88 14.6289 12.0412 13.5747 12.0421 13.5679C15.3071 12.6121 20 10.6972 20 7.58621C20 10.6972 24.6928 12.6121 27.9577 13.5679C27.9588 13.5746 28.12 14.6289 28.8074 15.2397C29.4606 15.8202 29.5832 16.6539 29.1172 17.517C28.3956 18.8534 28.2757 20.2285 29.1594 21.4541C29.7456 22.2672 30.4956 22.4675 29.849 24.3295C29.2025 26.1914 30.4309 28.2184 30.4309 28.2184C30.4309 28.2184 30.2298 26.7099 30.4022 26.2072C30.7793 25.1078 31.9396 24.4002 31.9396 22.939Z" fill="#6E4439"/>
<path d="M31.9656 31.4666C31.8145 30.3336 31.1125 29.3495 29.9566 28.7716L28.6019 28.0942C28.3515 27.9691 28.1687 28.1706 27.9859 28.3826C24.3104 32.6439 20.0001 34.4832 20.0001 34.4832H20H20C20 34.4832 15.6897 32.6439 12.0142 28.3826C11.8313 28.1706 11.6485 27.9691 11.3981 28.0942L10.0435 28.7716C8.88745 29.3496 8.18556 30.3337 8.03452 31.4666L7.47314 35.6766C9.29487 36.3039 12.4137 37.2415 12.4137 37.2415V40.0001H27.5861V37.2415C27.5861 37.2415 30.7049 36.3039 32.5268 35.6766L31.9656 31.4666Z" fill="#57B9DD"/>
<path d="M12.3966 37.0303C12.3544 36.2102 12.0806 35.4178 11.5861 34.7583L8.34841 30.4414C8.19212 30.7633 8.08229 31.1059 8.03419 31.4661L7.48755 35.5662L12.3966 37.0303Z" fill="#43A0C5"/>
<path d="M6.94926 35.6893C6.87883 35.9306 7.01736 36.1832 7.25857 36.2536L12.4137 37.7574V37.2418C12.4137 36.916 12.3625 36.5969 12.2878 36.2838L7.64503 34.9295C7.40383 34.8591 7.15124 34.9976 7.08089 35.2388L6.94926 35.6893Z" fill="#258CAC"/>
<path d="M27.6033 37.0303C27.6454 36.2102 27.9192 35.4178 28.4138 34.7583L31.6515 30.4414C31.8078 30.7633 31.9176 31.1059 31.9657 31.4661L32.5123 35.5662L27.6033 37.0303Z" fill="#43A0C5"/>
<path d="M33.0507 35.6893C33.1211 35.9306 32.9826 36.1832 32.7414 36.2536L27.5862 37.7574V37.2418C27.5862 36.916 27.6374 36.5969 27.7121 36.2838L32.3549 34.9295C32.5961 34.8591 32.8487 34.9976 32.919 35.2388L33.0507 35.6893Z" fill="#258CAC"/>
<path d="M16.5517 0C14.4062 0 6.52247 3.95457 8.62402 13.0635C8.2554 13.9558 7.69971 14.924 7.69971 16.171C7.69971 18.0366 9.26505 18.3713 9.26505 19.6157C9.26505 20.8601 8.06031 21.4777 8.06031 22.9389C8.06031 24.4002 9.22065 25.1078 9.59764 26.2072C9.77005 26.71 9.56893 28.2184 9.56893 28.2184C9.56893 28.2184 10.7974 26.1915 10.1508 24.3295C9.50427 22.4675 10.2543 22.2672 10.8405 21.4541C11.7241 20.2284 11.6043 18.8534 10.8826 17.517C10.4166 16.6539 10.5393 15.8202 11.1925 15.2397C11.88 14.6289 12.0412 13.5747 12.0421 13.5679L12.0414 13.5678C12.0417 13.5678 12.0419 13.5677 12.0421 13.5677C10.0938 4.60069 17.8613 0.69681 20 0.69V0.689655C20 0.689655 18.7931 0 16.5517 0Z" fill="#5E342E"/>
</g>
<defs>
<clipPath id="clip0_10330_2764">
<rect width="40" height="40" rx="20" fill="white"/>
</clipPath>
</defs>
</svg>
