<svg width="40" height="40" viewBox="0 0 40 40" fill="none" xmlns="http://www.w3.org/2000/svg">
<g clip-path="url(#clip0_10330_2637)">
<path d="M36.5517 13.7931C36.5517 13.7931 33.7068 14.1379 32.4137 9.65517C30.6296 3.47 26.6654 0 19.9999 0C13.3345 0 9.37029 3.47 7.58615 9.65517C6.29305 14.1379 3.44822 13.7931 3.44822 13.7931C3.44822 13.7931 1.8965 17.2414 5.51719 19.3103H4.13788C4.13788 19.3103 4.97632 23.4977 9.19848 24.0669C9.73512 25.2794 11.4138 26.8966 16.5517 26.8966H19.9999H23.4482C28.5861 26.8966 30.2648 25.2793 30.8014 24.0669C35.0236 23.4977 35.862 19.3103 35.862 19.3103H34.4827C38.1034 17.2414 36.5517 13.7931 36.5517 13.7931Z" fill="#9D6E48"/>
<path d="M26.8965 13.7931C18.362 9.48276 18.8793 1.89655 19.9999 0C13.3346 0 9.37029 3.47 7.58615 9.65517C6.29305 14.1379 3.44822 13.7931 3.44822 13.7931C3.44822 13.7931 1.8965 17.2414 5.51719 19.3103H4.13788C4.13788 19.3103 4.97632 23.4977 9.19848 24.0669C9.73512 25.2794 11.4138 26.8966 16.5517 26.8966L26.8965 13.7931Z" fill="#8D5F3D"/>
<path d="M32.7909 37.658L31.9988 31.7176C31.8297 30.4494 30.9723 29.379 29.7715 28.9372L25.0808 27.2113C24.5176 27.0236 24.1377 26.4965 24.1377 25.9028V23.6785L27.1085 22.4406C28.6506 21.7981 29.655 20.2915 29.655 18.621V17.9313C30.7976 17.9313 31.7239 17.005 31.7239 15.8624C31.7239 14.7197 30.7976 13.7934 29.655 13.7934V12.4141C29.655 10.5096 28.1111 8.96582 26.2067 8.96582H13.7929C11.8884 8.96582 10.3446 10.5097 10.3446 12.4141V13.7934C9.20195 13.7934 8.27566 14.7197 8.27566 15.8624C8.27566 17.005 9.20195 17.9313 10.3446 17.9313V18.621C10.3446 20.2915 11.349 21.7981 12.891 22.4406L15.8619 23.6785V25.9027C15.8619 26.4964 15.4819 27.0235 14.9188 27.2113L10.2281 28.9371C9.02729 29.3789 8.16988 30.4493 8.00074 31.7175L7.20867 37.6579C7.04333 38.8982 8.00816 40.0003 9.25945 40.0003H19.9998H30.7401C31.9914 40.0003 32.9563 38.8982 32.7909 37.658Z" fill="#F6B47B"/>
<path d="M15.8621 23.7071V25.9026C15.8621 26.3934 15.602 26.8381 15.1938 27.0837C20.6898 28.0333 23.8312 24.0837 24.1166 23.707H15.8621V23.7071Z" fill="#E2A071"/>
<path d="M29.6552 13.7934V12.4141C29.6552 10.5096 28.1113 8.96582 26.2069 8.96582H13.7931C11.8886 8.96582 10.3448 10.5097 10.3448 12.4141V13.7934C9.20217 13.7934 8.27588 14.7197 8.27588 15.8624C8.27588 17.005 9.20217 17.9313 10.3448 17.9313V18.621C10.3448 20.2915 11.3492 21.7981 12.8912 22.4406L17.3473 24.2974C18.1879 24.6476 19.0894 24.8279 19.9999 24.8279C20.9104 24.8279 21.8119 24.6476 22.6524 24.2974L27.1088 22.4406C28.6508 21.7981 29.6552 20.2915 29.6552 18.621V17.9313C30.7979 17.9313 31.7242 17.005 31.7242 15.8624C31.7242 14.7197 30.7979 13.7934 29.6552 13.7934Z" fill="#FDC88E"/>
<path d="M15.1723 16.5514C14.793 16.5514 14.4827 16.241 14.4827 15.8617V15.1721C14.4827 14.7928 14.793 14.4824 15.1723 14.4824C15.5516 14.4824 15.862 14.7928 15.862 15.1721V15.8617C15.862 16.241 15.5516 16.5514 15.1723 16.5514Z" fill="#623F33"/>
<path d="M19.9999 21.3985C18.7738 21.3985 17.6269 21.0968 16.8533 20.5705C16.5385 20.3564 16.4566 19.9273 16.6712 19.6125C16.885 19.298 17.3144 19.2161 17.6292 19.4303C18.1714 19.799 19.0576 20.0193 19.9999 20.0193C20.9421 20.0193 21.8284 19.799 22.3706 19.4303C22.6861 19.2155 23.1145 19.2977 23.3286 19.6125C23.5431 19.9273 23.4613 20.3564 23.1464 20.5705C22.373 21.0968 21.226 21.3985 19.9999 21.3985Z" fill="#E2A071"/>
<path d="M27.9168 28.1602L25.4351 32.1307C25.057 32.7356 24.394 33.1031 23.6807 33.1031H16.3189C15.6056 33.1031 14.9426 32.7356 14.5645 32.1307L12.0829 28.1602C11.8836 27.8413 11.4657 27.7409 11.1432 27.9343L8.8779 29.2935C8.54712 29.492 8.44342 29.9233 8.6479 30.2504L11.7239 35.1721H28.2757L31.3517 30.2504C31.5562 29.9232 31.4525 29.492 31.1217 29.2935L28.8563 27.9342C28.534 27.7409 28.116 27.8414 27.9168 28.1602Z" fill="#F23F44"/>
<path d="M28.2758 35.1729H11.7241V40.0004H28.2758V35.1729Z" fill="#FF4F4F"/>
<path d="M13.9652 21.0109C13.4064 20.4118 13.1036 19.6212 13.1036 18.8019V11.4862C15.4995 13.1653 18.8139 14.4784 25.0001 14.8279L24.3967 12.7589C24.3967 12.7589 20.1071 10.3474 18.0173 8.96582H13.7931C13.5567 8.96582 13.3264 8.99065 13.1035 9.03599V9.0353C13.0504 9.04608 12.9979 9.05832 12.9457 9.07151C12.9409 9.07272 12.9359 9.07358 12.9311 9.07479C12.9298 9.07513 12.9288 9.07608 12.9275 9.07642C11.4423 9.46056 10.3448 10.8088 10.3448 12.4141V13.7934C9.20217 13.7934 8.27588 14.7197 8.27588 15.8624C8.27588 17.005 9.20217 17.9313 10.3448 17.9313V18.621C10.3448 20.2915 11.3492 21.7981 12.8912 22.4406L17.3473 24.2974C17.5654 24.3882 17.7879 24.4665 18.0134 24.5344C16.0441 23.0937 14.7332 21.8344 13.9652 21.0109Z" fill="#F6B47B"/>
<path d="M24.8276 16.5514C24.4483 16.5514 24.1379 16.241 24.1379 15.8617V15.1721C24.1379 14.7928 24.4483 14.4824 24.8276 14.4824C25.2069 14.4824 25.5173 14.7928 25.5173 15.1721V15.8617C25.5173 16.241 25.2069 16.5514 24.8276 16.5514Z" fill="#623F33"/>
<path d="M26.8965 13.7935L26.2068 12.4142C26.2068 12.4142 28.389 13.7909 29.7413 13.7909V8.62109H13.4614C16.0673 11.116 19.3162 13.7935 26.8965 13.7935Z" fill="#9D6E48"/>
<path d="M26.8966 13.7935C23.9989 12.3301 22.1456 10.4889 21.0042 8.62109H13.4614C16.0674 11.116 19.3162 13.7935 26.8966 13.7935Z" fill="#8D5F3D"/>
</g>
<defs>
<clipPath id="clip0_10330_2637">
<rect width="40" height="40" rx="20" fill="white"/>
</clipPath>
</defs>
</svg>
