<svg width="40" height="40" viewBox="0 0 40 40" fill="none" xmlns="http://www.w3.org/2000/svg">
<g clip-path="url(#clip0_10330_2577)">
<path d="M33.5024 37.6743L32.6295 30.6905C32.4977 29.6364 31.7723 28.7516 30.7646 28.4156L27.3985 27.2936C26.9362 27.1394 26.4292 27.2376 26.0727 27.5413L25.0811 27.2108C24.518 27.023 24.138 26.496 24.138 25.9023V23.678L27.1088 22.4401C28.6508 21.7978 29.6552 20.2912 29.6552 18.6207V17.931C30.7979 17.931 31.7241 17.0047 31.7241 15.862C31.7241 15.3466 31.5353 14.8756 31.2235 14.5133C31.8089 12.3825 33.4543 5.64214 31.7241 2.75862L32.4138 0C32.4138 0 25.1724 0.172413 21.3793 1.37931L22.7586 0C22.7586 0 13.0604 0 11.0351 3.44767L11.0345 3.44827C11.0345 3.44827 7.58627 3.41956 7.58627 7.58619C7.58627 9.11119 8.43687 12.9191 8.80204 14.484C8.47506 14.8499 8.27592 15.3326 8.27592 15.862C8.27592 17.0047 9.20221 17.931 10.3449 17.931V18.6207C10.3449 20.2911 11.3493 21.7977 12.8913 22.4403L15.8621 23.6781V25.9024C15.8621 26.4961 15.4822 27.0231 14.919 27.2109L13.9275 27.5414C13.571 27.2377 13.0639 27.1395 12.6017 27.2936L9.23557 28.4157C8.22773 28.7517 7.50239 29.6365 7.37066 30.6906L6.49773 37.6744C6.34334 38.9092 7.30618 39.9999 8.55066 39.9999H8.57006H31.43H31.4494C32.6939 39.9999 33.6568 38.9092 33.5024 37.6743Z" fill="#FFD7A3"/>
<path d="M24.1379 23.6777L15.862 23.6778V25.902C15.862 26.3985 15.5874 26.8357 15.1709 27.0795C20.9549 28.0919 24.1379 23.6777 24.1379 23.6777Z" fill="#FDC88E"/>
<path d="M8.96573 15.1724C8.96573 15.1724 7.58643 9.52808 7.58643 7.58619C7.58643 3.41956 11.0347 3.44827 11.0347 3.44827L11.0353 3.44766C13.0606 0 22.7588 0 22.7588 0L21.3795 1.37931C25.1726 0.172413 32.414 0 32.414 0L31.7243 2.75861C33.7933 6.20688 31.0346 15.1724 31.0346 15.1724H8.96573Z" fill="#734A3E"/>
<path d="M22.7588 0C22.7588 0 13.0606 0 11.0353 3.44766L11.0347 3.44827C11.0347 3.44827 7.58643 3.41956 7.58643 7.58619C7.58643 9.52808 8.96573 15.1724 8.96573 15.1724C8.96573 15.1724 23.3048 8.76438 32.414 0C32.414 0 25.1726 0.172413 21.3795 1.37931L22.7588 0Z" fill="#623F33"/>
<path d="M29.6551 13.7934V12.4141C29.6551 10.5097 28.1113 8.96582 26.2069 8.96582H13.7931C11.8887 8.96582 10.3448 10.5097 10.3448 12.4141V13.7934C9.20217 13.7934 8.27588 14.7197 8.27588 15.8624C8.27588 17.005 9.20217 17.9313 10.3448 17.9313V18.621C10.3448 20.2914 11.3492 21.798 12.8912 22.4406L17.3473 24.2973C18.1878 24.6476 19.0894 24.8279 19.9999 24.8279C20.9104 24.8279 21.8119 24.6475 22.6524 24.2973L27.1088 22.4405C28.6507 21.7981 29.6551 20.2915 29.6551 18.621V17.9313C30.7978 17.9313 31.7241 17.005 31.7241 15.8624C31.7241 14.7197 30.7978 13.7934 29.6551 13.7934Z" fill="#FFE1B2"/>
<path d="M15.1726 16.5514C14.7933 16.5514 14.4829 16.241 14.4829 15.8617V15.1721C14.4829 14.7928 14.7933 14.4824 15.1726 14.4824C15.5519 14.4824 15.8622 14.7928 15.8622 15.1721V15.8617C15.8622 16.241 15.5519 16.5514 15.1726 16.5514Z" fill="#623F33"/>
<path d="M24.8276 16.5514C24.4483 16.5514 24.1379 16.241 24.1379 15.8617V15.1721C24.1379 14.7928 24.4483 14.4824 24.8276 14.4824C25.2069 14.4824 25.5172 14.7928 25.5172 15.1721V15.8617C25.5172 16.241 25.2069 16.5514 24.8276 16.5514Z" fill="#623F33"/>
<path d="M20.0001 21.3985C18.774 21.3985 17.6271 21.0968 16.8536 20.5705C16.5388 20.3564 16.4569 19.9273 16.6714 19.6125C16.8852 19.298 17.3146 19.2161 17.6294 19.4303C18.1716 19.799 19.0579 20.0193 20.0001 20.0193C20.9424 20.0193 21.8287 19.799 22.3708 19.4303C22.6863 19.2155 23.1147 19.2977 23.3288 19.6125C23.5433 19.9273 23.4615 20.3564 23.1467 20.5705C22.3732 21.0968 21.2262 21.3985 20.0001 21.3985Z" fill="#E4B07B"/>
<path d="M33.5024 37.6746L32.6295 30.6909C32.4978 29.6367 31.7723 28.7519 30.7646 28.416L27.3985 27.2939C26.8123 27.0985 26.1528 27.3072 25.8217 27.8289C24.5991 29.7551 22.4504 31.0347 20 31.0347C17.5497 31.0347 15.401 29.755 14.1785 27.8289C13.8474 27.3072 13.1879 27.0985 12.6017 27.2939L9.23557 28.416C8.22773 28.7519 7.50239 29.6367 7.37066 30.6909L6.49773 37.6746C6.34334 38.9095 7.30627 40.0002 8.55075 40.0002H31.4495C32.6939 40.0002 33.6568 38.9095 33.5024 37.6746Z" fill="#00BEA4"/>
<path d="M7.94558 29.3252C7.63937 29.7129 7.43437 30.1812 7.37066 30.691L6.49773 37.6747C6.34334 38.9097 7.30627 40.0003 8.55075 40.0003H12.4138V35.5118C12.4138 34.8483 12.1747 34.2071 11.7403 33.7055L7.94558 29.3252Z" fill="#00AB9A"/>
<path d="M32.0545 29.3252C32.3607 29.7129 32.5657 30.1812 32.6294 30.691L33.5023 37.6747C33.6567 38.9097 32.6938 40.0003 31.4493 40.0003H27.5862V35.5118C27.5862 34.8483 27.8253 34.2071 28.2597 33.7055L32.0545 29.3252Z" fill="#00AB9A"/>
<path d="M13.9652 21.0109C13.4064 20.4117 13.1035 19.6211 13.1035 18.8018V10.9863C15.2986 10.8218 22.2194 10.2232 26.207 8.96582H13.7931C13.5557 8.96582 13.3258 8.99349 13.1035 9.04177V9.0353C11.5296 9.35487 10.3448 10.7459 10.3448 12.4141V13.7934C9.20217 13.7934 8.27588 14.7197 8.27588 15.8624C8.27588 17.005 9.20217 17.9313 10.3448 17.9313V18.621C10.3448 20.2915 11.3492 21.7981 12.8912 22.4406L17.3472 24.2973C17.5653 24.3882 17.7879 24.4665 18.0134 24.5343C16.0441 23.0936 14.7332 21.8342 13.9652 21.0109Z" fill="#FFD7A3"/>
</g>
<defs>
<clipPath id="clip0_10330_2577">
<rect width="40" height="40" rx="20" fill="white"/>
</clipPath>
</defs>
</svg>
