<svg width="40" height="40" viewBox="0 0 40 40" fill="none" xmlns="http://www.w3.org/2000/svg">
<g clip-path="url(#clip0_10330_2702)">
<path d="M33.7813 36.4549L33.7188 35.8915C33.694 35.6686 33.4932 35.5079 33.2704 35.5327L33.2353 35.5366L32.6295 30.6905C32.4977 29.6364 31.7724 28.7516 30.7645 28.4156L27.3984 27.2936C26.9362 27.1394 26.4291 27.2375 26.0727 27.5413L25.0811 27.2108C24.5178 27.023 24.138 26.496 24.138 25.9023V23.678L27.1088 22.4401C28.6508 21.7978 29.6552 20.2912 29.6552 18.6207V17.931C30.7979 17.931 31.7242 17.0047 31.7242 15.862C31.7242 15.517 31.6393 15.1919 31.4898 14.9058C31.6401 14.5653 31.7242 14.1891 31.7242 13.7931C31.7242 13.5138 31.6703 13.2496 31.5932 12.9956C32.0993 12.4955 32.4139 11.8021 32.4139 11.0345C32.4139 10.7551 32.36 10.491 32.2828 10.237C32.789 9.73688 33.1035 9.04352 33.1035 8.27584C33.1035 6.94904 32.1662 5.84257 30.918 5.57852C30.9864 5.33826 31.0345 5.08973 31.0345 4.82758C31.0345 3.30404 29.7995 2.06896 28.2759 2.06896C27.7038 2.06896 27.1724 2.24327 26.7317 2.54155C26.3552 1.46595 25.3421 0.689654 24.138 0.689654C23.4578 0.689654 22.8431 0.945257 22.3621 1.35345C21.8809 0.546292 21.0081 0 20.0002 0C18.9922 0 18.1195 0.546292 17.6382 1.35345C17.1572 0.945257 16.5425 0.689654 15.8623 0.689654C14.6581 0.689654 13.645 1.46595 13.2685 2.54155C12.8278 2.24327 12.2964 2.06896 11.7243 2.06896C10.2008 2.06896 8.96571 3.30404 8.96571 4.82758C8.96571 5.08973 9.01399 5.33826 9.08226 5.57852C7.83399 5.84257 6.89667 6.94904 6.89667 8.27584C6.89667 9.04352 7.21123 9.73688 7.71735 10.237C7.6402 10.491 7.58632 10.7551 7.58632 11.0345C7.58632 11.8021 7.90089 12.4955 8.40701 12.9956C8.32985 13.2496 8.27597 13.5138 8.27597 13.7931C8.27597 14.1891 8.36003 14.5653 8.51037 14.9058C8.36097 15.1919 8.27597 15.517 8.27597 15.862C8.27597 17.0047 9.20226 17.931 10.3449 17.931V18.6207C10.3449 20.2911 11.3493 21.7977 12.8913 22.4403L15.8622 23.6781V25.9024C15.8622 26.4961 15.4823 27.0231 14.9191 27.2109L13.9275 27.5414C13.571 27.2376 13.064 27.1395 12.6017 27.2936L9.23563 28.4157C8.22778 28.7517 7.50244 29.6365 7.37063 30.6906L6.76486 35.5367L6.72977 35.5328C6.50693 35.508 6.30615 35.6686 6.28141 35.8916L6.21882 36.455C6.19408 36.6779 6.35468 36.8786 6.57753 36.9034L7.58632 37.0154V38.6206C7.58632 39.3823 8.20391 39.9999 8.96563 39.9999H12.4139H27.5863H31.0345C31.7964 39.9999 32.4139 39.3823 32.4139 38.6206V37.0154L33.4226 36.9033C33.6455 36.8785 33.8062 36.6778 33.7813 36.4549Z" fill="#C38762"/>
<path d="M32.283 10.237C32.7891 9.73687 33.1036 9.04351 33.1036 8.27584C33.1036 6.94904 32.1662 5.84257 30.9181 5.57852C30.9864 5.33826 31.0346 5.08973 31.0346 4.82758C31.0346 3.30404 29.7995 2.06896 28.276 2.06896C27.7038 2.06896 27.1725 2.24327 26.7318 2.54155C26.3553 1.46595 25.3422 0.689654 24.1381 0.689654C23.4578 0.689654 22.8432 0.945256 22.3621 1.35345C21.881 0.546292 21.0082 0 20.0002 0C18.9923 0 18.1195 0.546292 17.6383 1.35345C17.1572 0.945256 16.5426 0.689654 15.8623 0.689654C14.6582 0.689654 13.6451 1.46595 13.2686 2.54155C12.8278 2.24327 12.2965 2.06896 11.7244 2.06896C10.2009 2.06896 8.96578 3.30404 8.96578 4.82758C8.96578 5.08973 9.01405 5.33826 9.08233 5.57852C7.83405 5.84257 6.89673 6.94904 6.89673 8.27584C6.89673 9.04351 7.2113 9.73687 7.71742 10.237C7.64026 10.491 7.58638 10.7551 7.58638 11.0345C7.58638 11.8021 7.90095 12.4955 8.40707 12.9956C8.32991 13.2496 8.27604 13.5138 8.27604 13.7931C8.27604 15.3166 9.51112 16.5517 11.0346 16.5517C11.0349 16.5517 11.0352 16.5517 11.0355 16.5517H28.9649C28.9651 16.5517 28.9654 16.5517 28.9657 16.5517C30.4893 16.5517 31.7243 15.3166 31.7243 13.7931C31.7243 13.5138 31.6705 13.2496 31.5933 12.9956C32.0994 12.4955 32.414 11.8021 32.414 11.0345C32.4139 10.7551 32.3601 10.491 32.283 10.237Z" fill="#623F33"/>
<path d="M27.5864 40.0004V36.5521H33.3622L32.6295 30.691C32.4977 29.6368 31.7724 28.752 30.7645 28.4161L27.3984 27.294C26.8122 27.0986 26.1527 27.3073 25.8216 27.829C24.5992 29.7552 22.4505 31.0348 20.0002 31.0348C17.55 31.0348 15.4012 29.7551 14.1787 27.8289C13.8476 27.3072 13.1881 27.0985 12.6019 27.2939L9.23579 28.416C8.22794 28.7519 7.5026 29.6367 7.37079 30.6909L6.71484 35.9385L12.4141 36.552V40.0003H27.5864V40.0004H27.5864Z" fill="#FFD739"/>
<path d="M24.1381 23.678L15.8623 21.8389V25.9022C15.8623 26.3987 15.5876 26.836 15.1711 27.0798C20.9551 28.0922 24.1381 23.678 24.1381 23.678Z" fill="#A46D4D"/>
<path d="M29.6551 13.7928V11.7239C29.6551 9.81947 28.1113 7.58594 26.2069 7.58594H13.7931C11.8886 7.58594 10.3448 9.81947 10.3448 11.7239V13.7928C9.20217 13.7928 8.27588 14.7192 8.27588 15.8618C8.27588 17.0045 9.20217 17.9307 10.3448 17.9307V18.6204C10.3448 20.2908 11.3492 21.7975 12.8912 22.44L17.3473 24.2968C18.1879 24.647 19.0895 24.8273 20 24.8273C20.9105 24.8273 21.812 24.6469 22.6525 24.2968L27.1089 22.44C28.6508 21.7975 29.6551 20.2909 29.6551 18.6204V17.9307C30.7978 17.9307 31.7241 17.0045 31.7241 15.8618C31.7241 14.7191 30.7978 13.7928 29.6551 13.7928Z" fill="#D29771"/>
<path d="M15.1726 16.5514C14.7933 16.5514 14.4829 16.241 14.4829 15.8617V15.1721C14.4829 14.7928 14.7933 14.4824 15.1726 14.4824C15.5519 14.4824 15.8622 14.7928 15.8622 15.1721V15.8617C15.8622 16.241 15.5518 16.5514 15.1726 16.5514Z" fill="#623F33"/>
<path d="M24.8276 16.5514C24.4483 16.5514 24.1379 16.241 24.1379 15.8617V15.1721C24.1379 14.7928 24.4483 14.4824 24.8276 14.4824C25.2069 14.4824 25.5172 14.7928 25.5172 15.1721V15.8617C25.5172 16.241 25.2069 16.5514 24.8276 16.5514Z" fill="#623F33"/>
<path d="M20.0001 21.3985C18.774 21.3985 17.6271 21.0968 16.8535 20.5705C16.5387 20.3564 16.4569 19.9273 16.6714 19.6125C16.8852 19.298 17.3146 19.2161 17.6294 19.4303C18.1716 19.799 19.0578 20.0193 20.0001 20.0193C20.9423 20.0193 21.8286 19.799 22.3708 19.4303C22.6863 19.2155 23.1146 19.2977 23.3288 19.6125C23.5433 19.9273 23.4615 20.3564 23.1466 20.5705C22.3732 21.0968 21.2262 21.3985 20.0001 21.3985Z" fill="#A46D4D"/>
<path d="M12.4139 37.0728V35.5119C12.4139 34.8484 12.1748 34.2072 11.7404 33.7056L7.94565 29.3252C7.63944 29.7129 7.43444 30.1812 7.37073 30.691L6.65039 36.4536C7.7472 36.5195 10.6648 36.8613 12.4139 37.0728Z" fill="#FFC33D"/>
<path d="M12.414 36.1643L6.72986 35.5328C6.50693 35.508 6.30624 35.6687 6.28141 35.8915L6.21882 36.4549C6.19408 36.6778 6.35468 36.8786 6.57753 36.9033L12.414 37.5518V36.1643Z" fill="#FFB440"/>
<path d="M27.5862 37.0728V35.5119C27.5862 34.8484 27.8253 34.2072 28.2597 33.7056L32.0544 29.3252C32.3607 29.7129 32.5657 30.1812 32.6294 30.691L33.3497 36.4536C32.2529 36.5195 29.3352 36.8613 27.5862 37.0728Z" fill="#FFC33D"/>
<path d="M27.5862 36.1643L33.2703 35.5328C33.4932 35.508 33.6939 35.6687 33.7188 35.8915L33.7813 36.4549C33.8061 36.6778 33.6455 36.8786 33.4226 36.9033L27.5862 37.5518V36.1643Z" fill="#FFB440"/>
<path d="M10.3448 7.67285V13.7935C9.20217 13.7935 8.27588 14.7198 8.27588 15.8625C8.27588 17.0052 9.20217 17.9315 10.3448 17.9315V18.6211C10.3448 20.2916 11.3492 21.7983 12.8912 22.4408L17.3472 24.2975C17.5653 24.3883 17.7879 24.4666 18.0134 24.5345C16.0441 23.0939 14.7332 21.8345 13.9651 21.011C13.4063 20.4119 13.1035 19.6213 13.1035 18.802V11.0153C13.8375 10.9335 14.4928 10.5944 14.9813 10.0918C15.3575 10.2539 15.7713 10.3453 16.2069 10.3453C17.1549 10.3453 17.993 9.91112 18.5622 9.2413C18.982 9.49931 19.4712 9.65561 20 9.65561C20.7082 9.65561 21.3473 9.38095 21.8358 8.94233C22.3713 9.3813 23.0468 9.65561 23.7931 9.65561C25.1107 9.65561 26.2283 8.8319 26.6763 7.67285H10.3448Z" fill="#C38762"/>
<path d="M29.6551 8.27602C29.6103 8.27602 29.5685 8.28636 29.5244 8.28921C29.6044 8.06886 29.6551 7.8343 29.6551 7.58637C29.6551 6.4437 28.7289 5.5174 27.5862 5.5174C27.3352 5.5174 27.0977 5.56887 26.8752 5.65068C26.7645 4.03732 25.4346 2.75879 23.7931 2.75879C22.3799 2.75879 21.2008 3.70922 20.8258 5.00146C20.5725 4.89085 20.294 4.82775 20 4.82775C19.2259 4.82775 18.5593 5.25784 18.2045 5.88723C17.7703 5.24801 17.0379 4.82775 16.207 4.82775C15.2194 4.82775 14.3731 5.4224 13.9993 6.27171C13.6198 5.81464 13.0543 5.5174 12.4139 5.5174C11.6452 5.5174 10.9749 5.93689 10.6182 6.55913C10.5708 6.55438 10.5228 6.55188 10.4742 6.55188C9.68855 6.55188 9.05174 7.18869 9.05174 7.9743C9.05174 8.20602 9.10829 8.42412 9.20665 8.61748C8.64605 8.98757 8.27588 9.62291 8.27588 10.345C8.27588 11.4877 9.20217 12.4139 10.3448 12.4139C11.4875 12.4139 12.4138 11.4877 12.4138 10.345C12.4138 10.097 12.363 9.86248 12.283 9.64214C12.3272 9.64498 12.3691 9.65533 12.4138 9.65533C13.1879 9.65533 13.8546 9.22524 14.2093 8.59585C14.6435 9.23507 15.376 9.65533 16.2069 9.65533C17.1945 9.65533 18.0408 9.06067 18.4146 8.21136C18.794 8.66843 19.3594 8.96567 20 8.96567C20.6865 8.96567 21.2902 8.62757 21.6666 8.11283C22.2227 8.63817 22.9678 8.96567 23.7931 8.96567C24.4971 8.96567 25.139 8.72223 25.6598 8.32714C25.9583 9.10266 26.7054 9.65533 27.5862 9.65533C27.631 9.65533 27.6728 9.64498 27.717 9.64214C27.637 9.86248 27.5862 10.097 27.5862 10.345C27.5862 11.4877 28.5125 12.4139 29.6551 12.4139C30.7978 12.4139 31.7241 11.4877 31.7241 10.345C31.7241 9.20231 30.7978 8.27602 29.6551 8.27602Z" fill="#623F33"/>
</g>
<defs>
<clipPath id="clip0_10330_2702">
<rect width="40" height="40" rx="20" fill="white"/>
</clipPath>
</defs>
</svg>
