<svg width="25" height="24" viewBox="0 0 25 24" fill="none" xmlns="http://www.w3.org/2000/svg">
<g clip-path="url(#clip0_11095_5563)">
<path d="M22.6226 7.09859L13.7733 16.3142C13.498 16.6009 13.1202 16.7666 12.7228 16.7749L8.99952 16.853L9.07795 13.1145C9.0861 12.7262 9.24457 12.3562 9.52001 12.0823L18.5706 3.08347C19.1568 2.50054 20.1042 2.5019 20.6888 3.0865L22.6013 4.99898C23.1787 5.57639 23.1882 6.5096 22.6226 7.09859Z" fill="#00BAC9"/>
<path opacity="0.3" d="M13.775 2C14.3273 2 14.775 2.44772 14.775 3C14.775 3.55228 14.3273 4 13.775 4H6.875C5.77043 4 4.875 4.89543 4.875 6V18C4.875 19.1046 5.77043 20 6.875 20H18.875C19.9796 20 20.875 19.1046 20.875 18V13C20.875 12.4477 21.3227 12 21.875 12C22.4273 12 22.875 12.4477 22.875 13V18C22.875 20.2091 21.0841 22 18.875 22H6.875C4.66586 22 2.875 20.2091 2.875 18V6C2.875 3.79086 4.66586 2 6.875 2H13.775Z" fill="#00BAC9"/>
</g>
<defs>
<clipPath id="clip0_11095_5563">
<rect width="24" height="24" fill="white" transform="translate(0.875)"/>
</clipPath>
</defs>
</svg>
