<svg width="25" height="24" viewBox="0 0 25 24" fill="none" xmlns="http://www.w3.org/2000/svg">
<g clip-path="url(#clip0_11095_5570)">
<path opacity="0.3" fill-rule="evenodd" clip-rule="evenodd" d="M8.125 3V3.5C8.125 4.32843 8.79657 5 9.625 5H14.625C15.4534 5 16.125 4.32843 16.125 3.5V3H18.125C19.2296 3 20.125 3.89543 20.125 5V21C20.125 22.1046 19.2296 23 18.125 23H6.125C5.02043 23 4.125 22.1046 4.125 21V5C4.125 3.89543 5.02043 3 6.125 3H8.125Z" fill="#00BAC9"/>
<path fill-rule="evenodd" clip-rule="evenodd" d="M11.125 2C11.125 1.44772 11.5727 1 12.125 1C12.6773 1 13.125 1.44772 13.125 2H14.625C14.9011 2 15.125 2.22386 15.125 2.5V3.5C15.125 3.77614 14.9011 4 14.625 4H9.625C9.34886 4 9.125 3.77614 9.125 3.5V2.5C9.125 2.22386 9.34886 2 9.625 2H11.125Z" fill="#00BAC9"/>
<path opacity="0.3" d="M16.125 9H11.125C10.5727 9 10.125 9.44772 10.125 10C10.125 10.5523 10.5727 11 11.125 11H16.125C16.6773 11 17.125 10.5523 17.125 10C17.125 9.44772 16.6773 9 16.125 9Z" fill="#00BAC9"/>
<path opacity="0.3" d="M9.125 10C9.125 9.44772 8.67728 9 8.125 9C7.57272 9 7.125 9.44772 7.125 10C7.125 10.5523 7.57272 11 8.125 11C8.67728 11 9.125 10.5523 9.125 10Z" fill="#00BAC9"/>
<path opacity="0.3" d="M9.125 14C9.125 13.4477 8.67728 13 8.125 13C7.57272 13 7.125 13.4477 7.125 14C7.125 14.5523 7.57272 15 8.125 15C8.67728 15 9.125 14.5523 9.125 14Z" fill="#00BAC9"/>
<path opacity="0.3" d="M16.125 13H11.125C10.5727 13 10.125 13.4477 10.125 14C10.125 14.5523 10.5727 15 11.125 15H16.125C16.6773 15 17.125 14.5523 17.125 14C17.125 13.4477 16.6773 13 16.125 13Z" fill="#00BAC9"/>
<path opacity="0.3" d="M9.125 18C9.125 17.4477 8.67728 17 8.125 17C7.57272 17 7.125 17.4477 7.125 18C7.125 18.5523 7.57272 19 8.125 19C8.67728 19 9.125 18.5523 9.125 18Z" fill="#00BAC9"/>
<path opacity="0.3" d="M16.125 17H11.125C10.5727 17 10.125 17.4477 10.125 18C10.125 18.5523 10.5727 19 11.125 19H16.125C16.6773 19 17.125 18.5523 17.125 18C17.125 17.4477 16.6773 17 16.125 17Z" fill="#00BAC9"/>
</g>
<defs>
<clipPath id="clip0_11095_5570">
<rect width="24" height="24" fill="white" transform="translate(0.125)"/>
</clipPath>
</defs>
</svg>
