<svg width="14" height="15" viewBox="0 0 14 15" fill="none" xmlns="http://www.w3.org/2000/svg">
<g clip-path="url(#clip0_10994_4985)">
<path fill-rule="evenodd" clip-rule="evenodd" d="M2.625 2.25H11.375C11.8582 2.25 12.25 2.64175 12.25 3.125V11.875C12.25 12.3582 11.8582 12.75 11.375 12.75H2.625C2.14175 12.75 1.75 12.3582 1.75 11.875V3.125C1.75 2.64175 2.14175 2.25 2.625 2.25ZM4.66667 3.41667C4.3445 3.41667 4.08333 3.67783 4.08333 4C4.08333 4.32217 4.3445 4.58333 4.66667 4.58333H9.33333C9.6555 4.58333 9.91667 4.32217 9.91667 4C9.91667 3.67783 9.6555 3.41667 9.33333 3.41667H4.66667Z" fill="#3F3F46"/>
</g>
<defs>
<clipPath id="clip0_10994_4985">
<rect width="14" height="14" fill="white" transform="translate(0 0.5)"/>
</clipPath>
</defs>
</svg>
