<svg width="20" height="20" viewBox="0 0 20 20" fill="none" xmlns="http://www.w3.org/2000/svg">
<path d="M10 15.7829C9.83452 15.7839 9.67247 15.7355 9.53453 15.644C9.3966 15.5525 9.28904 15.422 9.22557 15.2691C9.1621 15.1163 9.14559 14.9479 9.17815 14.7857C9.2107 14.6234 9.29085 14.4745 9.40838 14.3579L13.7667 9.99956L9.40838 5.64123C9.25317 5.48509 9.16605 5.27388 9.16605 5.05373C9.16605 4.83357 9.25317 4.62236 9.40838 4.46623C9.48585 4.38812 9.57801 4.32612 9.67956 4.28382C9.78111 4.24151 9.89004 4.21973 10 4.21973C10.1101 4.21973 10.219 4.24151 10.3205 4.28382C10.4221 4.32612 10.5142 4.38812 10.5917 4.46623L15.5334 9.40789C15.6121 9.48507 15.6748 9.57711 15.7177 9.67867C15.7606 9.78023 15.7829 9.8893 15.7834 9.99956C15.7829 10.1098 15.7606 10.2189 15.7177 10.3204C15.6748 10.422 15.6121 10.514 15.5334 10.5912L10.5917 15.5329C10.5145 15.6116 10.4225 15.6743 10.3209 15.7172C10.2194 15.7601 10.1103 15.7824 10 15.7829Z" fill="black"/>
<path opacity="0.3" d="M14.95 10.8327H5.05001C4.82899 10.8327 4.61703 10.7449 4.46075 10.5886C4.30447 10.4323 4.21667 10.2204 4.21667 9.99935C4.21667 9.77833 4.30447 9.56637 4.46075 9.41009C4.61703 9.25381 4.82899 9.16602 5.05001 9.16602H14.95C15.171 9.16602 15.383 9.25381 15.5393 9.41009C15.6955 9.56637 15.7833 9.77833 15.7833 9.99935C15.7833 10.2204 15.6955 10.4323 15.5393 10.5886C15.383 10.7449 15.171 10.8327 14.95 10.8327Z" fill="black"/>
</svg>
