<svg width="28" height="28" viewBox="0 0 28 28" fill="none" xmlns="http://www.w3.org/2000/svg">
<g clip-path="url(#clip0_11095_5764)">
<path opacity="0.3" d="M19.0366 18.8399C18.6148 19.0757 18.0817 18.925 17.8458 18.5033C17.61 18.0815 17.7607 17.5483 18.1825 17.3125C19.3738 16.6463 20.1268 15.3897 20.1268 14.0003C20.1268 12.6211 19.3849 11.3725 18.2075 10.7023C17.7875 10.4632 17.6408 9.92895 17.8799 9.50897C18.119 9.08899 18.6532 8.94233 19.0732 9.18139C20.7919 10.1597 21.8768 11.9857 21.8768 14.0003C21.8768 16.03 20.7756 17.8674 19.0366 18.8399ZM19.5887 23.2044C19.1532 23.4139 18.6304 23.2307 18.4209 22.7952C18.2114 22.3597 18.3946 21.8369 18.8301 21.6274C21.7382 20.2284 23.6268 17.2848 23.6268 14.0003C23.6268 10.7473 21.7744 7.82704 18.9089 6.41166C18.4756 6.19765 18.2979 5.67292 18.5119 5.23964C18.7259 4.80637 19.2506 4.62862 19.6839 4.84263C23.1409 6.55017 25.3768 10.075 25.3768 14.0003C25.3768 17.9636 23.0973 21.5166 19.5887 23.2044Z" fill="#27272A"/>
<path fill-rule="evenodd" clip-rule="evenodd" d="M8.16927 18.6662L4.21167 17.8746C3.12101 17.6565 2.33594 16.6989 2.33594 15.5866V12.4124C2.33594 11.3001 3.12101 10.3425 4.21167 10.1244L8.16927 9.33283L12.011 5.49112C12.4666 5.03551 13.2053 5.03551 13.6609 5.49112C13.8797 5.70992 14.0026 6.00666 14.0026 6.31608V21.6829C14.0026 22.3272 13.4803 22.8496 12.8359 22.8496C12.5265 22.8496 12.2298 22.7267 12.011 22.5079L8.16927 18.6662Z" fill="#27272A"/>
</g>
<defs>
<clipPath id="clip0_11095_5764">
<rect width="28" height="28" fill="white"/>
</clipPath>
</defs>
</svg>
