<svg width="24" height="25" viewBox="0 0 24 25" fill="none" xmlns="http://www.w3.org/2000/svg">
<path opacity="0.5" d="M18 11.5H7C6.44772 11.5 6 11.9477 6 12.5C6 13.0523 6.44772 13.5 7 13.5H18C18.5523 13.5 19 13.0523 19 12.5C19 11.9477 18.5523 11.5 18 11.5Z" fill="white"/>
<path d="M8.56569 11.9344L12.75 7.75011C13.1642 7.3359 13.1642 6.66432 12.75 6.25011C12.3358 5.8359 11.6642 5.8359 11.25 6.25011L5.70711 11.793C5.31658 12.1835 5.31658 12.8167 5.70711 13.2072L11.25 18.7501C11.6642 19.1643 12.3358 19.1643 12.75 18.7501C13.1642 18.3359 13.1642 17.6643 12.75 17.2501L8.56569 13.0658C8.25327 12.7534 8.25327 12.2468 8.56569 11.9344Z" fill="white"/>
</svg>
