<svg width="20" height="20" viewBox="0 0 20 20" fill="none" xmlns="http://www.w3.org/2000/svg">
<path opacity="0.3" d="M17.5 18.334H2.49996C1.99996 18.334 1.66663 18.0007 1.66663 17.5007V4.16732C1.66663 3.66732 1.99996 3.33398 2.49996 3.33398H17.5C18 3.33398 18.3333 3.66732 18.3333 4.16732V17.5007C18.3333 18.0007 18 18.334 17.5 18.334Z" fill="#00BAC9"/>
<path d="M4.99996 5.00033C4.49996 5.00033 4.16663 4.66699 4.16663 4.16699V2.50033C4.16663 2.00033 4.49996 1.66699 4.99996 1.66699C5.49996 1.66699 5.83329 2.00033 5.83329 2.50033V4.16699C5.83329 4.66699 5.49996 5.00033 4.99996 5.00033ZM9.16663 4.16699V2.50033C9.16663 2.00033 8.83329 1.66699 8.33329 1.66699C7.83329 1.66699 7.49996 2.00033 7.49996 2.50033V4.16699C7.49996 4.66699 7.83329 5.00033 8.33329 5.00033C8.83329 5.00033 9.16663 4.66699 9.16663 4.16699ZM12.5 4.16699V2.50033C12.5 2.00033 12.1666 1.66699 11.6666 1.66699C11.1666 1.66699 10.8333 2.00033 10.8333 2.50033V4.16699C10.8333 4.66699 11.1666 5.00033 11.6666 5.00033C12.1666 5.00033 12.5 4.66699 12.5 4.16699ZM15.8333 4.16699V2.50033C15.8333 2.00033 15.5 1.66699 15 1.66699C14.5 1.66699 14.1666 2.00033 14.1666 2.50033V4.16699C14.1666 4.66699 14.5 5.00033 15 5.00033C15.5 5.00033 15.8333 4.66699 15.8333 4.16699Z" fill="#00BAC9"/>
<path d="M7.33337 10.9166C7.6667 10.9166 7.9167 10.8333 8.08337 10.6666C8.25003 10.5 8.4167 10.25 8.4167 9.91663C8.4167 9.66663 8.33337 9.41663 8.1667 9.24997C8.00003 9.0833 7.75003 8.99997 7.50003 8.99997C7.33337 8.99997 7.16669 8.99997 7.00002 9.0833C6.83336 9.16663 6.75003 9.24997 6.6667 9.3333C6.58337 9.41663 6.50003 9.49997 6.4167 9.66663C6.33337 9.8333 6.25003 9.91663 6.25003 10.0833C6.25003 10.1666 6.1667 10.1666 6.08337 10.25C6.00003 10.3333 5.91669 10.3333 5.75002 10.3333C5.58336 10.3333 5.50003 10.25 5.4167 10.1666C5.33337 10.0833 5.25003 9.91663 5.25003 9.74997C5.25003 9.5833 5.33337 9.41663 5.4167 9.24997C5.50003 9.0833 5.6667 8.91663 5.83337 8.74997C6.00003 8.5833 6.25002 8.41663 6.58336 8.3333C6.91669 8.24999 7.16671 8.16666 7.58337 8.16666C7.91671 8.16666 8.16671 8.24999 8.4167 8.3333C8.6667 8.41663 8.9167 8.5833 9.08337 8.66663C9.25003 8.74997 9.4167 8.99997 9.50003 9.24997C9.58337 9.49997 9.6667 9.66663 9.6667 9.91663C9.6667 10.25 9.58337 10.5 9.4167 10.75C9.25003 11 9.08337 11.25 8.83337 11.4166C9.08337 11.5833 9.33337 11.75 9.50003 11.9166C9.6667 12.0833 9.83337 12.25 9.9167 12.5C10 12.75 10.0834 12.9166 10.0834 13.1666C10.0834 13.5 10 13.75 9.9167 14C9.83337 14.25 9.58337 14.5 9.4167 14.75C9.25003 15 8.9167 15.1666 8.58337 15.25C8.25003 15.3333 7.9167 15.4166 7.50003 15.4166C7.08337 15.4166 6.75003 15.3333 6.4167 15.1666C6.08337 15 5.83337 14.8333 5.6667 14.6666C5.50003 14.5 5.33337 14.25 5.25003 14C5.1667 13.75 5.08337 13.5833 5.08337 13.4166C5.08337 13.25 5.1667 13.0833 5.25003 13C5.33337 12.9166 5.50003 12.8333 5.6667 12.8333C5.75003 12.8333 5.83337 12.8333 5.91671 12.9166C6.00004 13 6.08337 13 6.08337 13.0833C6.25003 13.5 6.4167 13.8333 6.6667 14.0833C6.9167 14.3333 7.1667 14.4166 7.50003 14.4166C7.6667 14.4166 7.9167 14.3333 8.08337 14.25C8.25003 14.1666 8.4167 14 8.58337 13.8333C8.75003 13.6666 8.75003 13.4166 8.75003 13.1666C8.75003 12.75 8.6667 12.5 8.4167 12.25C8.16671 12 7.91671 11.9166 7.58337 11.9166C7.50004 11.9166 7.4167 11.9166 7.25003 11.9166C7.08337 11.9166 7.00002 11.9166 7.00002 11.9166C6.83336 11.9166 6.66669 11.8333 6.58336 11.75C6.50002 11.6666 6.4167 11.5 6.4167 11.4166C6.4167 11.25 6.50002 11.1666 6.58336 11C6.66669 10.8333 6.83337 10.8333 7.08337 10.8333H7.33337V10.9166ZM12.75 14.5833V10.1666C11.9167 10.8333 11.3334 11.0833 11.0834 11.0833C10.9167 11.0833 10.8334 11 10.75 10.9166C10.6667 10.8333 10.5834 10.6666 10.5834 10.5C10.5834 10.3333 10.6667 10.25 10.75 10.1666C10.8334 10.0833 11 9.99997 11.3334 9.8333C11.75 9.66663 12.0834 9.41663 12.25 9.24997C12.4167 9.0833 12.6667 8.8333 12.9167 8.5833C13.1667 8.3333 13.25 8.16666 13.25 8.08332C13.25 7.99999 13.4167 8 13.5834 8C13.75 8 13.9167 8.08332 14 8.16666C14.0834 8.24999 14.1667 8.49997 14.1667 8.74997V14.3333C14.1667 15 13.9167 15.3333 13.5 15.3333C13.3334 15.3333 13.1667 15.25 13 15.1666C12.8334 15.0833 12.75 14.8333 12.75 14.5833Z" fill="#00BAC9"/>
</svg>
