<svg width="34" height="34" viewBox="0 0 34 34" fill="none" xmlns="http://www.w3.org/2000/svg">
<path opacity="0.3" d="M3.96701 15.3853V23.432C3.95953 24.4451 4.15262 25.4496 4.53514 26.3877C4.91766 27.3259 5.48206 28.179 6.1958 28.898C6.90955 29.617 7.75853 30.1877 8.69382 30.5771C9.62911 30.9665 10.6322 31.167 11.6453 31.167H22.3553C23.3637 31.167 24.3621 30.9684 25.2937 30.5825C26.2253 30.1966 27.0717 29.631 27.7847 28.918C28.4977 28.205 29.0633 27.3586 29.4492 26.427C29.8351 25.4954 30.0337 24.497 30.0337 23.4886V15.3853C30.0337 15.0772 29.9113 14.7817 29.6934 14.5639C29.4756 14.346 29.1801 14.2236 28.872 14.2236H5.12867C4.82058 14.2236 4.5251 14.346 4.30725 14.5639C4.0894 14.7817 3.96701 15.0772 3.96701 15.3853Z" fill="white"/>
<path d="M29.5373 10.696C29.6039 10.8722 29.6267 11.0619 29.6037 11.2488C29.5807 11.4357 29.5125 11.6142 29.4052 11.769C29.2979 11.9237 29.1545 12.0501 28.9875 12.1371C28.8205 12.2241 28.6348 12.2692 28.4465 12.2685H5.7798C5.55252 12.2633 5.32983 12.2035 5.13053 12.0941C4.93124 11.9847 4.7612 11.829 4.63477 11.64C4.50834 11.4511 4.42925 11.2345 4.40416 11.0086C4.37907 10.7826 4.40873 10.5539 4.49064 10.3419C4.91591 9.31745 5.55768 8.39713 6.37195 7.644C7.18622 6.89086 8.15372 6.32272 9.20813 5.97852V3.75436C9.21909 3.5063 9.3254 3.27206 9.50489 3.10049C9.68437 2.92892 9.92317 2.83328 10.1715 2.83352C10.4307 2.83352 10.6793 2.93651 10.8627 3.11983C11.046 3.30314 11.149 3.55177 11.149 3.81102V5.66686C11.3048 5.66686 11.4465 5.66686 11.6023 5.66686H16.2348V3.75436C16.2348 3.49511 16.3378 3.24648 16.5211 3.06316C16.7044 2.87984 16.9531 2.77686 17.2123 2.77686C17.4716 2.77686 17.7202 2.87984 17.9035 3.06316C18.0868 3.24648 18.1898 3.49511 18.1898 3.75436V5.56769H22.2981C22.454 5.56769 22.5956 5.56769 22.7515 5.56769V3.75436C22.7624 3.5063 22.8687 3.27206 23.0482 3.10049C23.2277 2.92892 23.4665 2.83328 23.7148 2.83352C23.9741 2.83352 24.2227 2.93651 24.406 3.11983C24.5893 3.30314 24.6923 3.55177 24.6923 3.81102V5.97852C25.8064 6.34288 26.8223 6.95746 27.6621 7.77518C28.5019 8.5929 29.1434 9.59204 29.5373 10.696Z" fill="white"/>
<path d="M12.3677 20.7687C13.0406 20.7687 13.5861 20.2296 13.5861 19.5645C13.5861 18.8995 13.0406 18.3604 12.3677 18.3604C11.6949 18.3604 11.1494 18.8995 11.1494 19.5645C11.1494 20.2296 11.6949 20.7687 12.3677 20.7687Z" fill="white"/>
<path d="M16.9156 20.7687C17.5885 20.7687 18.1339 20.2296 18.1339 19.5645C18.1339 18.8995 17.5885 18.3604 16.9156 18.3604C16.2427 18.3604 15.6973 18.8995 15.6973 19.5645C15.6973 20.2296 16.2427 20.7687 16.9156 20.7687Z" fill="white"/>
<path d="M12.3531 25.3019C13.026 25.3019 13.5714 24.7628 13.5714 24.0977C13.5714 23.4327 13.026 22.8936 12.3531 22.8936C11.6802 22.8936 11.1348 23.4327 11.1348 24.0977C11.1348 24.7628 11.6802 25.3019 12.3531 25.3019Z" fill="white"/>
</svg>
