<svg width="236" height="160" viewBox="0 0 236 160" fill="none" xmlns="http://www.w3.org/2000/svg">
<path d="M205.234 27.7997C204.419 27.7997 203.654 27.6054 202.967 27.2736C202.653 27.1219 202.365 26.9184 202.119 26.6709C201.192 25.738 200.61 24.4653 200.61 23.0455C200.61 20.1809 202.933 17.8585 205.797 17.8585C207.216 17.8585 208.487 18.4403 209.42 19.3659C209.67 19.6131 209.874 19.9024 210.027 20.2186C210.357 20.9052 210.55 21.6688 210.55 22.4823C210.55 25.4189 208.17 27.7997 205.234 27.7997ZM177.502 27.7997C176.687 27.7997 175.923 27.6054 175.235 27.2736C174.921 27.1219 174.634 26.9184 174.388 26.6709C173.461 25.738 172.878 24.4653 172.878 23.0455C172.878 20.1809 175.201 17.8585 178.066 17.8585C179.484 17.8585 180.756 18.4403 181.689 19.3659C181.938 19.6131 182.143 19.9024 182.295 20.2186C182.625 20.9052 182.819 21.6688 182.819 22.4823C182.819 25.4189 180.439 27.7997 177.502 27.7997ZM149.77 27.7997C148.956 27.7997 148.191 27.6054 147.504 27.2736C147.19 27.1219 146.902 26.9184 146.656 26.6709C145.729 25.738 145.147 24.4653 145.147 23.0455C145.147 20.1809 147.469 17.8585 150.334 17.8585C151.751 17.8585 153.023 18.44 153.956 19.3652C154.206 19.6128 154.411 19.9027 154.564 20.2197C154.894 20.906 155.087 21.6692 155.087 22.4823C155.087 25.4189 152.707 27.7997 149.77 27.7997ZM122.039 27.7997C121.225 27.7997 120.461 27.6057 119.774 27.2744C119.458 27.1223 119.169 26.918 118.923 26.6693C117.997 25.7365 117.415 24.4645 117.415 23.0455C117.415 20.1809 119.738 17.8585 122.602 17.8585C124.022 17.8585 125.293 18.4408 126.227 19.3673C126.475 19.6137 126.679 19.9017 126.831 20.2167C127.162 20.9038 127.356 21.668 127.356 22.4823C127.356 25.4189 124.975 27.7997 122.039 27.7997ZM94.3073 27.7997C93.4929 27.7997 92.7282 27.6055 92.0409 27.274C91.7261 27.1221 91.4381 26.9182 91.1919 26.6701C90.2658 25.7373 89.6835 24.4649 89.6835 23.0455C89.6835 20.1809 92.006 17.8585 94.8705 17.8585C96.2894 17.8585 97.5617 18.4409 98.495 19.3674C98.7431 19.6137 98.9472 19.9017 99.099 20.2167C99.4302 20.9038 99.6235 21.668 99.6235 22.4823C99.6235 25.4189 97.2433 27.7997 94.3073 27.7997ZM66.5758 27.7997C65.7606 27.7997 64.9959 27.6054 64.3085 27.2736C63.9943 27.1219 63.7068 26.9184 63.4609 26.6709C62.534 25.738 61.9513 24.4653 61.9513 23.0455C61.9513 20.1809 64.2744 17.8585 67.139 17.8585C68.5584 17.8585 69.8303 18.4408 70.7635 19.3673C71.0116 19.6137 71.2156 19.9017 71.3674 20.2167C71.6986 20.9038 71.8919 21.668 71.8919 22.4823C71.8919 25.4189 69.5117 27.7997 66.5758 27.7997ZM38.8436 27.7997C38.0289 27.7997 37.2643 27.6054 36.5769 27.2736C36.2627 27.1219 35.9753 26.9184 35.7293 26.6709C34.8024 25.738 34.2198 24.4653 34.2198 23.0455C34.2198 20.1809 36.5422 17.8585 39.4074 17.8585C40.8256 17.8585 42.0973 18.4403 43.0305 19.3659C43.2796 19.6131 43.4843 19.9024 43.6366 20.2186C43.9672 20.9052 44.161 21.6688 44.161 22.4823C44.161 25.4189 41.7802 27.7997 38.8436 27.7997ZM17.6114 5.70349C13.7357 5.70349 10.5938 8.84543 10.5938 12.7212V179.925C10.5938 183.801 13.7357 186.943 17.6114 186.943H228.535C232.411 186.943 235.553 183.801 235.553 179.925V12.7212C235.553 8.84544 232.411 5.70349 228.535 5.70349H17.6114Z" fill="#1BC5BD"/>
<path d="M205.233 27.7993C204.418 27.7993 203.653 27.605 202.966 27.2732C202.652 27.1215 202.364 26.918 202.118 26.6705C201.191 25.7376 200.609 24.4649 200.609 23.0451C200.609 20.1806 202.932 17.8581 205.796 17.8581C207.215 17.8581 208.486 18.4399 209.419 19.3656C209.669 19.6127 209.873 19.902 210.026 20.2182C210.356 20.9049 210.549 21.6684 210.549 22.4819C210.549 25.4185 208.169 27.7993 205.233 27.7993ZM177.501 27.7993C176.686 27.7993 175.922 27.605 175.234 27.2732C174.92 27.1215 174.633 26.918 174.387 26.6705C173.46 25.7376 172.877 24.4649 172.877 23.0451C172.877 20.1806 175.2 17.8581 178.065 17.8581C179.483 17.8581 180.755 18.4399 181.688 19.3656C181.937 19.6127 182.142 19.902 182.294 20.2182C182.624 20.9049 182.818 21.6684 182.818 22.4819C182.818 25.4185 180.438 27.7993 177.501 27.7993ZM149.769 27.7993C148.955 27.7993 148.19 27.605 147.503 27.2732C147.189 27.1215 146.901 26.918 146.655 26.6705C145.728 25.7376 145.146 24.4649 145.146 23.0451C145.146 20.1806 147.468 17.8581 150.333 17.8581C151.75 17.8581 153.022 18.4396 153.955 19.3649C154.205 19.6125 154.41 19.9023 154.563 20.2193C154.893 20.9056 155.086 21.6688 155.086 22.4819C155.086 25.4185 152.706 27.7993 149.769 27.7993ZM122.038 27.7993C121.224 27.7993 120.46 27.6053 119.773 27.274C119.457 27.1219 119.168 26.9176 118.922 26.6689C117.996 25.7361 117.414 24.4641 117.414 23.0451C117.414 20.1806 119.737 17.8581 122.601 17.8581C124.021 17.8581 125.292 18.4405 126.226 19.367C126.474 19.6133 126.678 19.9014 126.83 20.2163C127.161 20.9034 127.355 21.6676 127.355 22.4819C127.355 25.4185 124.974 27.7993 122.038 27.7993ZM94.3063 27.7993C93.4919 27.7993 92.7272 27.6052 92.0399 27.2736C91.7251 27.1217 91.4371 26.9178 91.1909 26.6698C90.2648 25.7369 89.6825 24.4645 89.6825 23.0451C89.6825 20.1806 92.005 17.8581 94.8695 17.8581C96.2884 17.8581 97.5608 18.4405 98.494 19.367C98.7421 19.6133 98.9462 19.9014 99.098 20.2163C99.4292 20.9034 99.6225 21.6676 99.6225 22.4819C99.6225 25.4185 97.2423 27.7993 94.3063 27.7993ZM66.5748 27.7993C65.7596 27.7993 64.9949 27.605 64.3075 27.2732C63.9933 27.1215 63.7058 26.918 63.4599 26.6705C62.533 25.7376 61.9503 24.4649 61.9503 23.0451C61.9503 20.1806 64.2734 17.8581 67.138 17.8581C68.5574 17.8581 69.8293 18.4405 70.7625 19.367C71.0106 19.6133 71.2146 19.9014 71.3664 20.2163C71.6976 20.9034 71.8909 21.6676 71.8909 22.4819C71.8909 25.4185 69.5107 27.7993 66.5748 27.7993ZM38.8426 27.7993C38.0279 27.7993 37.2633 27.605 36.5759 27.2732C36.2617 27.1215 35.9743 26.918 35.7283 26.6705C34.8014 25.7376 34.2188 24.4649 34.2188 23.0451C34.2188 20.1806 36.5412 17.8581 39.4064 17.8581C40.8246 17.8581 42.0963 18.4399 43.0295 19.3656C43.2786 19.6127 43.4833 19.902 43.6356 20.2182C43.9662 20.9048 44.16 21.6684 44.16 22.4819C44.16 25.4185 41.7792 27.7993 38.8426 27.7993ZM24.5431 12.6345C20.6673 12.6345 17.5254 15.7764 17.5254 19.6522V172.992C17.5254 176.867 20.6673 180.009 24.5431 180.009H221.602C225.478 180.009 228.62 176.867 228.62 172.992V19.6522C228.62 15.7764 225.478 12.6345 221.602 12.6345H24.5431Z" fill="#D0F1EF"/>
<path d="M205.233 27.7998C204.231 27.7998 203.305 27.506 202.505 27.0242C201.356 26.0735 200.609 24.6539 200.609 23.0456C200.609 20.181 202.932 17.8586 205.796 17.8586C207.404 17.8586 208.824 18.6062 209.775 19.755C210.256 20.5548 210.549 21.4807 210.549 22.483C210.549 25.4189 208.169 27.7998 205.233 27.7998ZM177.501 27.7998C176.499 27.7998 175.573 27.506 174.774 27.0242C173.625 26.0735 172.877 24.6539 172.877 23.0456C172.877 20.181 175.2 17.8586 178.065 17.8586C179.673 17.8586 181.092 18.6062 182.043 19.755C182.525 20.5548 182.818 21.4807 182.818 22.483C182.818 25.4189 180.438 27.7998 177.501 27.7998ZM149.769 27.7998C148.768 27.7998 147.842 27.506 147.042 27.0242C145.893 26.0735 145.146 24.6539 145.146 23.0456C145.146 20.181 147.468 17.8586 150.333 17.8586C151.94 17.8586 153.36 18.6062 154.312 19.755C154.793 20.5548 155.086 21.4807 155.086 22.483C155.086 25.4189 152.706 27.7998 149.769 27.7998ZM122.038 27.7998C121.036 27.7998 120.11 27.506 119.31 27.0242C118.162 26.0735 117.414 24.6539 117.414 23.0456C117.414 20.181 119.737 17.8586 122.601 17.8586C124.209 17.8586 125.628 18.6062 126.58 19.755C127.062 20.5548 127.355 21.4807 127.355 22.483C127.355 25.4189 124.974 27.7998 122.038 27.7998ZM94.3063 27.7998C93.3047 27.7998 92.3782 27.506 91.5784 27.0242C90.4302 26.0735 89.6825 24.6539 89.6825 23.0456C89.6825 20.181 92.005 17.8586 94.8695 17.8586C96.4772 17.8586 97.8968 18.6062 98.8481 19.755C99.33 20.5548 99.6225 21.4807 99.6225 22.483C99.6225 25.4189 97.2423 27.7998 94.3063 27.7998ZM66.5748 27.7998C65.5725 27.7998 64.6466 27.506 63.8468 27.0242C62.698 26.0735 61.9503 24.6539 61.9503 23.0456C61.9503 20.181 64.2734 17.8586 67.138 17.8586C68.7463 17.8586 70.1652 18.6062 71.1166 19.755C71.5978 20.5548 71.8909 21.4807 71.8909 22.483C71.8909 25.4189 69.5107 27.7998 66.5748 27.7998ZM38.8426 27.7998C37.8409 27.7998 36.9151 27.506 36.1152 27.0242C34.9664 26.0735 34.2188 24.6539 34.2188 23.0456C34.2188 20.181 36.5412 17.8586 39.4064 17.8586C41.0141 17.8586 42.4337 18.6062 43.385 19.755C43.8663 20.5548 44.16 21.4807 44.16 22.483C44.16 25.4189 41.7792 27.7998 38.8426 27.7998ZM24.5431 12.6349C20.6673 12.6349 17.5254 15.7768 17.5254 19.6526V36.5562H228.62V19.6526C228.62 15.7768 225.478 12.6349 221.602 12.6349H24.5431Z" fill="#007E85"/>
<path d="M182.665 23.7C182.612 23.9267 182.542 24.1453 182.461 24.3589C182.544 24.1459 182.611 23.9267 182.665 23.7Z" fill="#777C7E"/>
<path d="M182.649 21.2092C182.679 21.3278 182.705 21.4482 182.728 21.5693C182.706 21.447 182.679 21.329 182.649 21.2092Z" fill="#777C7E"/>
<path d="M172.879 23.0454C172.879 20.1809 175.201 17.8584 178.066 17.8584C179.674 17.8584 181.093 18.6061 182.044 19.7543C181.115 18.2093 179.437 17.1654 177.502 17.1654C174.566 17.1654 172.186 19.5456 172.186 22.4828C172.186 24.3886 173.206 26.0323 174.715 26.9688C173.601 26.018 172.879 24.6239 172.879 23.0454Z" fill="#777C7E"/>
<path d="M176.398 27.6655C176.313 27.6463 176.226 27.6326 176.143 27.6096C176.226 27.6332 176.313 27.6463 176.398 27.6655Z" fill="#777C7E"/>
<path d="M181.707 25.7016C181.657 25.7658 181.604 25.8269 181.553 25.8887C181.605 25.8269 181.657 25.7658 181.707 25.7016Z" fill="#777C7E"/>
<path d="M178.393 27.7098C178.103 27.7588 177.808 27.7998 177.503 27.7998C177.809 27.7998 178.104 27.7619 178.393 27.7098Z" fill="#777C7E"/>
<path d="M177.502 27.7998C177.263 27.7998 177.03 27.7805 176.801 27.7483C177.03 27.7812 177.263 27.7998 177.502 27.7998Z" fill="#777C7E"/>
<path d="M182.818 22.483C182.818 22.8059 182.778 23.1189 182.724 23.4263C182.779 23.1189 182.818 22.8065 182.818 22.483Z" fill="#777C7E"/>
<path d="M182.317 24.7077C182.226 24.9039 182.122 25.0933 182.009 25.2759C182.124 25.0939 182.225 24.9033 182.317 24.7077Z" fill="#777C7E"/>
<path d="M182.045 19.7572C182.236 20.0745 182.386 20.4161 182.511 20.77C182.39 20.413 182.236 20.0752 182.045 19.7572Z" fill="#777C7E"/>
<path d="M174.956 27.1229L175.056 27.1709L174.921 27.1011L174.956 27.1229Z" fill="#777C7E"/>
<path d="M180.049 27.1224L180.051 27.1216L180.046 27.124L180.049 27.1224Z" fill="#777C7E"/>
<path d="M179.112 27.5242C178.994 27.5621 178.878 27.6056 178.756 27.6348C178.877 27.6043 178.995 27.564 179.112 27.5242Z" fill="#777C7E"/>
<path d="M177.502 23.7432C175.588 23.7432 174.036 22.1913 174.036 20.2769V3.46582C174.036 1.55135 175.588 -0.000490189 177.502 -0.000490189C179.417 -0.000490189 180.969 1.55135 180.969 3.46582V20.2769C180.969 22.1913 179.417 23.7432 177.502 23.7432Z" fill="#005358"/>
<path d="M204.129 27.6655C204.045 27.6463 203.958 27.6326 203.874 27.6096C203.957 27.6332 204.045 27.6463 204.129 27.6655Z" fill="#777C7E"/>
<path d="M209.777 19.7572C209.968 20.0745 210.119 20.4161 210.244 20.77C210.122 20.413 209.969 20.0752 209.777 19.7572Z" fill="#777C7E"/>
<path d="M207.781 27.1224L207.782 27.1216L207.777 27.124L207.781 27.1224Z" fill="#777C7E"/>
<path d="M205.233 27.7998C204.994 27.7998 204.76 27.7805 204.531 27.7483C204.76 27.7812 204.994 27.7998 205.233 27.7998Z" fill="#777C7E"/>
<path d="M210.381 21.2092C210.411 21.3278 210.437 21.4482 210.46 21.5693C210.438 21.447 210.41 21.329 210.381 21.2092Z" fill="#777C7E"/>
<path d="M210.049 24.7077C209.958 24.9039 209.854 25.0933 209.74 25.2759C209.855 25.0939 209.956 24.9033 210.049 24.7077Z" fill="#777C7E"/>
<path d="M200.609 23.0454C200.609 20.1809 202.932 17.8584 205.797 17.8584C207.404 17.8584 208.824 18.6061 209.775 19.7543C208.845 18.2093 207.168 17.1654 205.233 17.1654C202.296 17.1654 199.916 19.5456 199.916 22.4828C199.916 24.3886 200.938 26.0323 202.445 26.9688C201.332 26.018 200.609 24.6239 200.609 23.0454Z" fill="#777C7E"/>
<path d="M209.438 25.7016C209.389 25.7658 209.336 25.8269 209.284 25.8887C209.337 25.8269 209.389 25.7658 209.438 25.7016Z" fill="#777C7E"/>
<path d="M210.398 23.7C210.345 23.9267 210.275 24.1453 210.193 24.3589C210.276 24.1459 210.344 23.9267 210.398 23.7Z" fill="#777C7E"/>
<path d="M210.549 22.483C210.549 22.8059 210.51 23.1189 210.455 23.4263C210.511 23.1189 210.549 22.8065 210.549 22.483Z" fill="#777C7E"/>
<path d="M206.123 27.7098C205.833 27.7588 205.538 27.7998 205.233 27.7998C205.539 27.7998 205.834 27.7619 206.123 27.7098Z" fill="#777C7E"/>
<path d="M202.689 27.1229L202.789 27.1709L202.653 27.1011L202.689 27.1229Z" fill="#777C7E"/>
<path d="M206.844 27.5242C206.726 27.5621 206.61 27.6056 206.487 27.6348C206.609 27.6043 206.726 27.564 206.844 27.5242Z" fill="#777C7E"/>
<path d="M205.234 23.7432C203.319 23.7432 201.768 22.1913 201.768 20.2769V3.46582C201.768 1.55135 203.319 -0.000490189 205.234 -0.000490189C207.148 -0.000490189 208.7 1.55135 208.7 3.46582V20.2769C208.7 22.1913 207.148 23.7432 205.234 23.7432Z" fill="#005358"/>
<path d="M127.176 23.7C127.122 23.9267 127.051 24.1453 126.971 24.3589C127.053 24.1459 127.122 23.9267 127.176 23.7Z" fill="#777C7E"/>
<path d="M127.158 21.2092C127.189 21.3278 127.215 21.4482 127.236 21.5693C127.215 21.447 127.187 21.329 127.158 21.2092Z" fill="#777C7E"/>
<path d="M117.388 23.0454C117.388 20.1809 119.71 17.8584 122.575 17.8584C124.183 17.8584 125.602 18.6061 126.554 19.7543C125.623 18.2093 123.946 17.1654 122.012 17.1654C119.076 17.1654 116.695 19.5456 116.695 22.4828C116.695 24.3886 117.716 26.0323 119.224 26.9688C118.111 26.018 117.388 24.6239 117.388 23.0454Z" fill="#777C7E"/>
<path d="M120.908 27.6655C120.823 27.6463 120.736 27.6326 120.653 27.6096C120.736 27.6332 120.823 27.6463 120.908 27.6655Z" fill="#777C7E"/>
<path d="M126.217 25.7016C126.167 25.7658 126.115 25.8269 126.062 25.8887C126.115 25.8269 126.167 25.7658 126.217 25.7016Z" fill="#777C7E"/>
<path d="M122.902 27.7098C122.611 27.7588 122.316 27.7998 122.012 27.7998C122.317 27.7998 122.612 27.7619 122.902 27.7098Z" fill="#777C7E"/>
<path d="M122.011 27.7998C121.772 27.7998 121.539 27.7805 121.31 27.7483C121.538 27.7812 121.772 27.7998 122.011 27.7998Z" fill="#777C7E"/>
<path d="M127.33 22.483C127.33 22.8059 127.29 23.1189 127.234 23.4263C127.291 23.1189 127.33 22.8065 127.33 22.483Z" fill="#777C7E"/>
<path d="M126.827 24.7077C126.736 24.9039 126.632 25.0933 126.519 25.2759C126.633 25.0939 126.735 24.9033 126.827 24.7077Z" fill="#777C7E"/>
<path d="M126.556 19.7572C126.746 20.0745 126.897 20.4161 127.022 20.77C126.9 20.413 126.747 20.0752 126.556 19.7572Z" fill="#777C7E"/>
<path d="M119.465 27.1229L119.565 27.1709L119.431 27.1011L119.465 27.1229Z" fill="#777C7E"/>
<path d="M124.557 27.1224L124.56 27.1216L124.555 27.124L124.557 27.1224Z" fill="#777C7E"/>
<path d="M123.622 27.5242C123.503 27.5621 123.387 27.6056 123.266 27.6348C123.387 27.6043 123.503 27.564 123.622 27.5242Z" fill="#777C7E"/>
<path d="M122.012 23.7432C120.097 23.7432 118.546 22.1913 118.546 20.2769V3.46582C118.546 1.55135 120.097 -0.000490189 122.012 -0.000490189C123.927 -0.000490189 125.478 1.55135 125.478 3.46582V20.2769C125.478 22.1913 123.927 23.7432 122.012 23.7432Z" fill="#005358"/>
<path d="M148.639 27.6655C148.553 27.6463 148.467 27.6326 148.384 27.6096C148.467 27.6332 148.553 27.6463 148.639 27.6655Z" fill="#777C7E"/>
<path d="M154.288 19.7572C154.478 20.0745 154.629 20.4161 154.754 20.77C154.632 20.413 154.478 20.0752 154.288 19.7572Z" fill="#777C7E"/>
<path d="M152.29 27.1224L152.292 27.1216L152.287 27.124L152.29 27.1224Z" fill="#777C7E"/>
<path d="M149.742 27.7998C149.504 27.7998 149.271 27.7805 149.041 27.7483C149.27 27.7812 149.504 27.7998 149.742 27.7998Z" fill="#777C7E"/>
<path d="M154.89 21.2092C154.92 21.3278 154.946 21.4482 154.968 21.5693C154.947 21.447 154.919 21.329 154.89 21.2092Z" fill="#777C7E"/>
<path d="M154.558 24.7077C154.466 24.9039 154.363 25.0933 154.249 25.2759C154.364 25.0939 154.466 24.9033 154.558 24.7077Z" fill="#777C7E"/>
<path d="M145.12 23.0454C145.12 20.1809 147.442 17.8584 150.307 17.8584C151.914 17.8584 153.334 18.6061 154.285 19.7543C153.355 18.2093 151.679 17.1654 149.743 17.1654C146.807 17.1654 144.427 19.5456 144.427 22.4828C144.427 24.3886 145.447 26.0323 146.955 26.9688C145.843 26.018 145.12 24.6239 145.12 23.0454Z" fill="#777C7E"/>
<path d="M153.949 25.7016C153.899 25.7658 153.846 25.8269 153.794 25.8887C153.847 25.8269 153.899 25.7658 153.949 25.7016Z" fill="#777C7E"/>
<path d="M154.907 23.7C154.854 23.9267 154.784 24.1453 154.703 24.3589C154.784 24.1459 154.853 23.9267 154.907 23.7Z" fill="#777C7E"/>
<path d="M155.059 22.483C155.059 22.8059 155.019 23.1189 154.964 23.4263C155.02 23.1189 155.059 22.8065 155.059 22.483Z" fill="#777C7E"/>
<path d="M150.633 27.7098C150.342 27.7588 150.048 27.7998 149.742 27.7998C150.048 27.7998 150.343 27.7619 150.633 27.7098Z" fill="#777C7E"/>
<path d="M147.197 27.1229L147.297 27.1709L147.162 27.1011L147.197 27.1229Z" fill="#777C7E"/>
<path d="M151.354 27.5242C151.235 27.5621 151.119 27.6056 150.997 27.6348C151.118 27.6043 151.236 27.564 151.354 27.5242Z" fill="#777C7E"/>
<path d="M149.743 23.7432C147.829 23.7432 146.277 22.1913 146.277 20.2769V3.46582C146.277 1.55135 147.829 -0.000490189 149.743 -0.000490189C151.657 -0.000490189 153.209 1.55135 153.209 3.46582V20.2769C153.209 22.1913 151.657 23.7432 149.743 23.7432Z" fill="#005358"/>
<path d="M71.6854 23.7C71.632 23.9267 71.5618 24.1453 71.4805 24.3589C71.5631 24.1459 71.6314 23.9267 71.6854 23.7Z" fill="#777C7E"/>
<path d="M71.667 21.2092C71.6974 21.3278 71.7235 21.4482 71.7458 21.5693C71.7247 21.447 71.6968 21.329 71.667 21.2092Z" fill="#777C7E"/>
<path d="M61.8987 23.0454C61.8987 20.1809 64.2212 17.8584 67.0857 17.8584C68.694 17.8584 70.113 18.6061 71.0643 19.7543C70.1341 18.2093 68.4575 17.1654 66.5225 17.1654C63.5859 17.1654 61.2051 19.5456 61.2051 22.4828C61.2051 24.3886 62.2266 26.0323 63.7343 26.9688C62.6209 26.018 61.8987 24.6239 61.8987 23.0454Z" fill="#777C7E"/>
<path d="M65.4173 27.6655C65.3329 27.6463 65.2459 27.6326 65.1621 27.6096C65.2459 27.6332 65.3329 27.6463 65.4173 27.6655Z" fill="#777C7E"/>
<path d="M70.7269 25.7016C70.6776 25.7658 70.6246 25.8269 70.5723 25.8887C70.6246 25.8269 70.677 25.7658 70.7269 25.7016Z" fill="#777C7E"/>
<path d="M67.412 27.7098C67.1213 27.7588 66.8264 27.7998 66.5215 27.7998C66.827 27.7998 67.122 27.7619 67.412 27.7098Z" fill="#777C7E"/>
<path d="M66.521 27.7998C66.2826 27.7998 66.0491 27.7805 65.8193 27.7483C66.0485 27.7812 66.2826 27.7998 66.521 27.7998Z" fill="#777C7E"/>
<path d="M71.8382 22.483C71.8382 22.8059 71.7984 23.1189 71.7432 23.4263C71.7991 23.1189 71.8382 22.8065 71.8382 22.483Z" fill="#777C7E"/>
<path d="M71.3363 24.7077C71.245 24.9039 71.1413 25.0933 71.0283 25.2759C71.1426 25.0939 71.2438 24.9033 71.3363 24.7077Z" fill="#777C7E"/>
<path d="M71.0654 19.7572C71.2567 20.0745 71.407 20.4161 71.5324 20.77C71.4107 20.413 71.2567 20.0752 71.0654 19.7572Z" fill="#777C7E"/>
<path d="M63.976 27.1229L64.0757 27.1709L63.9404 27.1011L63.976 27.1229Z" fill="#777C7E"/>
<path d="M69.0679 27.1224L69.0703 27.1216L69.0654 27.124L69.0679 27.1224Z" fill="#777C7E"/>
<path d="M68.1309 27.5242C68.0122 27.5621 67.8967 27.6056 67.7744 27.6348C67.8961 27.6043 68.0129 27.564 68.1309 27.5242Z" fill="#777C7E"/>
<path d="M66.522 23.7432C64.6075 23.7432 63.0557 22.1913 63.0557 20.2769V3.46582C63.0557 1.55135 64.6075 -0.000490189 66.522 -0.000490189C68.4364 -0.000490189 69.9882 1.55135 69.9882 3.46582V20.2769C69.9882 22.1913 68.4364 23.7432 66.522 23.7432Z" fill="#005358"/>
<path d="M93.1494 27.6655C93.0643 27.6463 92.9774 27.6326 92.8936 27.6096C92.9774 27.6332 93.0643 27.6463 93.1494 27.6655Z" fill="#777C7E"/>
<path d="M98.7969 19.7572C98.9881 20.0745 99.1384 20.4161 99.2632 20.77C99.1415 20.413 98.9881 20.0752 98.7969 19.7572Z" fill="#777C7E"/>
<path d="M96.8001 27.1224L96.8017 27.1216L96.7969 27.124L96.8001 27.1224Z" fill="#777C7E"/>
<path d="M94.2535 27.7998C94.015 27.7998 93.7815 27.7805 93.5518 27.7483C93.7809 27.7812 94.0144 27.7998 94.2535 27.7998Z" fill="#777C7E"/>
<path d="M99.3994 21.2092C99.4305 21.3278 99.4559 21.4482 99.4783 21.5693C99.4572 21.447 99.4292 21.329 99.3994 21.2092Z" fill="#777C7E"/>
<path d="M99.0678 24.7077C98.9765 24.9039 98.8728 25.0933 98.7598 25.2759C98.874 25.0939 98.9752 24.9033 99.0678 24.7077Z" fill="#777C7E"/>
<path d="M89.6308 23.0454C89.6308 20.1809 91.9526 17.8584 94.8172 17.8584C96.4255 17.8584 97.8444 18.6061 98.7958 19.7543C97.8655 18.2093 96.1889 17.1654 94.2539 17.1654C91.3173 17.1654 88.9365 19.5456 88.9365 22.4828C88.9365 24.3886 89.958 26.0323 91.4664 26.9688C90.353 26.018 89.6308 24.6239 89.6308 23.0454Z" fill="#777C7E"/>
<path d="M98.4577 25.7016C98.4091 25.7658 98.3561 25.8269 98.3037 25.8887C98.3561 25.8269 98.4085 25.7658 98.4577 25.7016Z" fill="#777C7E"/>
<path d="M99.4168 23.7C99.3634 23.9267 99.2933 24.1453 99.2119 24.3589C99.2945 24.1459 99.3628 23.9267 99.4168 23.7Z" fill="#777C7E"/>
<path d="M99.5706 22.483C99.5706 22.8059 99.5309 23.1189 99.4756 23.4263C99.5315 23.1189 99.5706 22.8065 99.5706 22.483Z" fill="#777C7E"/>
<path d="M95.1434 27.7098C94.8528 27.7588 94.5578 27.7998 94.2529 27.7998C94.5585 27.7998 94.854 27.7619 95.1434 27.7098Z" fill="#777C7E"/>
<path d="M91.7071 27.1229L91.8069 27.1709L91.6729 27.1011L91.7071 27.1229Z" fill="#777C7E"/>
<path d="M95.8633 27.5242C95.7447 27.5621 95.6292 27.6056 95.5068 27.6348C95.6279 27.6043 95.7453 27.564 95.8633 27.5242Z" fill="#777C7E"/>
<path d="M94.2534 23.7432C92.3389 23.7432 90.7871 22.1913 90.7871 20.2769V3.46582C90.7871 1.55135 92.3389 -0.000490189 94.2534 -0.000490189C96.1679 -0.000490189 97.7197 1.55135 97.7197 3.46582V20.2769C97.7197 22.1913 96.1679 23.7432 94.2534 23.7432Z" fill="#005358"/>
<path d="M37.6585 27.6655C37.5735 27.6463 37.4872 27.6326 37.4033 27.6096C37.4865 27.6332 37.5735 27.6463 37.6585 27.6655Z" fill="#777C7E"/>
<path d="M43.3066 19.7572C43.4973 20.0745 43.6482 20.4161 43.773 20.77C43.6513 20.413 43.4979 20.0752 43.3066 19.7572Z" fill="#777C7E"/>
<path d="M41.3089 27.1224L41.3105 27.1216L41.3057 27.124L41.3089 27.1224Z" fill="#777C7E"/>
<path d="M38.7632 27.7998C38.5242 27.7998 38.2907 27.7805 38.0615 27.7483C38.2907 27.7812 38.5242 27.7998 38.7632 27.7998Z" fill="#777C7E"/>
<path d="M43.9111 21.2092C43.9409 21.3278 43.967 21.4482 43.9894 21.5693C43.9676 21.447 43.9403 21.329 43.9111 21.2092Z" fill="#777C7E"/>
<path d="M43.5772 24.7077C43.4865 24.9039 43.3828 25.0933 43.2686 25.2759C43.3841 25.0939 43.4853 24.9033 43.5772 24.7077Z" fill="#777C7E"/>
<path d="M34.1393 23.0454C34.1393 20.1809 36.4617 17.8584 39.3269 17.8584C40.9346 17.8584 42.3542 18.6061 43.3049 19.7543C42.3753 18.2093 40.6981 17.1654 38.7637 17.1654C35.8265 17.1654 33.4463 19.5456 33.4463 22.4828C33.4463 24.3886 34.4678 26.0323 35.9749 26.9688C34.8621 26.018 34.1393 24.6239 34.1393 23.0454Z" fill="#777C7E"/>
<path d="M42.9685 25.7016C42.9192 25.7658 42.8662 25.8269 42.8145 25.8887C42.8668 25.8269 42.9186 25.7658 42.9685 25.7016Z" fill="#777C7E"/>
<path d="M43.926 23.7C43.8732 23.9267 43.803 24.1453 43.7217 24.3589C43.8043 24.1459 43.872 23.9267 43.926 23.7Z" fill="#777C7E"/>
<path d="M44.0784 22.483C44.0784 22.8059 44.0393 23.1189 43.9834 23.4263C44.0399 23.1189 44.0784 22.8065 44.0784 22.483Z" fill="#777C7E"/>
<path d="M39.6535 27.7098C39.3629 27.7588 39.0686 27.7998 38.7637 27.7998C39.0692 27.7998 39.3642 27.7619 39.6535 27.7098Z" fill="#777C7E"/>
<path d="M36.2182 27.1229L36.3179 27.1709L36.1826 27.1011L36.2182 27.1229Z" fill="#777C7E"/>
<path d="M40.374 27.5242C40.256 27.5621 40.1393 27.6056 40.0176 27.6348C40.1387 27.6043 40.2567 27.564 40.374 27.5242Z" fill="#777C7E"/>
<path d="M38.7641 23.7432C36.8497 23.7432 35.2979 22.1913 35.2979 20.2769V3.46582C35.2979 1.55135 36.8497 -0.000490189 38.7641 -0.000490189C40.6786 -0.000490189 42.2304 1.55135 42.2304 3.46582V20.2769C42.2304 22.1913 40.6786 23.7432 38.7641 23.7432Z" fill="#005358"/>
<path d="M37.8246 56.6782V48.9583H39.502C40.0738 48.9583 40.5249 49.0473 40.8553 49.2252C41.1921 49.3967 41.4304 49.6572 41.5701 50.0067C41.7163 50.3562 41.7893 50.7914 41.7893 51.3124V54.1526C41.7893 54.699 41.7163 55.1597 41.5701 55.5345C41.4304 55.9094 41.1984 56.1953 40.8744 56.3923C40.5567 56.5829 40.1278 56.6782 39.5877 56.6782H37.8246ZM38.9015 55.9062H39.5115C39.9054 55.9062 40.185 55.83 40.3502 55.6775C40.5154 55.525 40.6139 55.3026 40.6457 55.0103C40.6838 54.7181 40.7028 54.3654 40.7028 53.9524V51.4458C40.7028 51.0456 40.6774 50.7215 40.6266 50.4737C40.5758 50.2259 40.4646 50.0448 40.293 49.9305C40.1215 49.8161 39.8514 49.7589 39.4829 49.7589H38.9015V55.9062ZM44.7281 56.764C44.2071 56.764 43.7909 56.6623 43.4796 56.459C43.1682 56.2557 42.9458 55.9666 42.8124 55.5917C42.679 55.2105 42.6123 54.7657 42.6123 54.2574V51.3315C42.6123 50.8232 42.679 50.3879 42.8124 50.0258C42.9522 49.6572 43.1746 49.3777 43.4796 49.1871C43.7909 48.9901 44.2071 48.8916 44.7281 48.8916C45.2491 48.8916 45.6621 48.9901 45.9671 49.1871C46.2721 49.384 46.4913 49.6636 46.6247 50.0258C46.7645 50.3879 46.8344 50.8232 46.8344 51.3315V54.2669C46.8344 54.7689 46.7645 55.2073 46.6247 55.5822C46.4913 55.9571 46.2721 56.2493 45.9671 56.459C45.6621 56.6623 45.2491 56.764 44.7281 56.764ZM44.7281 55.9158C45.014 55.9158 45.23 55.8586 45.3762 55.7442C45.5223 55.6235 45.6208 55.4583 45.6716 55.2486C45.7225 55.0326 45.7479 54.7816 45.7479 54.4957V51.1123C45.7479 50.8263 45.7225 50.5817 45.6716 50.3784C45.6208 50.1687 45.5223 50.0099 45.3762 49.9019C45.23 49.7875 45.014 49.7303 44.7281 49.7303C44.4422 49.7303 44.223 49.7875 44.0705 49.9019C43.9243 50.0099 43.8258 50.1687 43.775 50.3784C43.7242 50.5817 43.6988 50.8263 43.6988 51.1123V54.4957C43.6988 54.7816 43.7242 55.0326 43.775 55.2486C43.8258 55.4583 43.9243 55.6235 44.0705 55.7442C44.223 55.8586 44.4422 55.9158 44.7281 55.9158ZM47.7785 56.6782L47.9215 48.9583H48.9794L50.3423 55.22L51.7147 48.9583H52.7631L52.9061 56.6782H52.0388L51.953 51.0741L50.6473 56.6782H50.0373L48.7411 51.0741L48.6554 56.6782H47.7785Z" fill="#007E85"/>
<path d="M68.4652 56.764C68.0205 56.764 67.6488 56.6687 67.3501 56.4781C67.0579 56.2875 66.8355 56.0238 66.683 55.687C66.5305 55.3503 66.4415 54.9595 66.4161 54.5147L67.3692 54.2574C67.3883 54.5306 67.4296 54.7943 67.4931 55.0485C67.563 55.3026 67.6742 55.5123 67.8267 55.6775C67.9792 55.8363 68.192 55.9158 68.4652 55.9158C68.7448 55.9158 68.9545 55.8395 69.0943 55.687C69.2404 55.5282 69.3135 55.3026 69.3135 55.0103C69.3135 54.6609 69.2341 54.3813 69.0752 54.1716C68.9164 53.9556 68.7162 53.7396 68.4748 53.5235L67.1786 52.3799C66.9244 52.1575 66.737 51.916 66.6163 51.6555C66.4956 51.3887 66.4352 51.0614 66.4352 50.6739C66.4352 50.1084 66.5972 49.6699 66.9213 49.3586C67.2453 49.0473 67.6869 48.8916 68.246 48.8916C68.551 48.8916 68.8179 48.9329 69.0466 49.0155C69.2817 49.0917 69.4755 49.2125 69.628 49.3777C69.7868 49.5429 69.9107 49.7525 69.9997 50.0067C70.095 50.2545 70.1585 50.5468 70.1903 50.8835L69.2754 51.1313C69.2563 50.8772 69.2182 50.6453 69.161 50.4356C69.1038 50.2196 69.0021 50.048 68.856 49.9209C68.7162 49.7875 68.5129 49.7208 68.246 49.7208C67.9792 49.7208 67.7695 49.7938 67.617 49.94C67.4709 50.0798 67.3978 50.2894 67.3978 50.569C67.3978 50.8041 67.4359 50.9979 67.5122 51.1504C67.5948 51.3029 67.725 51.4586 67.9029 51.6174L69.2086 52.7611C69.5009 53.0152 69.7582 53.3202 69.9806 53.676C70.203 54.0255 70.3142 54.4417 70.3142 54.9246C70.3142 55.3058 70.2348 55.6362 70.0759 55.9158C69.9171 56.189 69.6979 56.3987 69.4183 56.5448C69.1451 56.6909 68.8274 56.764 68.4652 56.764ZM71.0543 56.6782V48.9583H74.047V49.7589H72.1313V52.3131H73.6848V53.0756H72.1313V55.9062H74.066V56.6782H71.0543ZM76.6796 56.7735C76.1967 56.7735 75.8092 56.6719 75.5169 56.4685C75.231 56.2589 75.0213 55.9571 74.8878 55.5631C74.7608 55.1692 74.6972 54.6958 74.6972 54.143V51.5602C74.6972 50.9947 74.7544 50.515 74.8688 50.1211C74.9895 49.7208 75.1992 49.4158 75.4978 49.2061C75.8028 48.9964 76.2253 48.8916 76.7654 48.8916C77.2483 48.8916 77.6359 48.9742 77.9282 49.1394C78.2268 49.2982 78.4428 49.546 78.5762 49.8828C78.7097 50.2132 78.7764 50.6326 78.7764 51.1409V51.4268H77.7661V51.1885C77.7661 50.8518 77.7439 50.5785 77.6994 50.3689C77.6549 50.1528 77.5628 49.994 77.423 49.8923C77.2896 49.7843 77.0767 49.7303 76.7845 49.7303C76.4668 49.7303 76.2349 49.8034 76.0887 49.9495C75.9489 50.0957 75.86 50.2958 75.8219 50.55C75.7901 50.7978 75.7742 51.0805 75.7742 51.3982V54.2574C75.7742 54.6259 75.7996 54.9341 75.8505 55.1819C75.9076 55.4297 76.0125 55.614 76.165 55.7347C76.3175 55.8554 76.5335 55.9158 76.8131 55.9158C77.0926 55.9158 77.3087 55.849 77.4611 55.7156C77.6136 55.5822 77.7185 55.3852 77.7757 55.1247C77.8328 54.8642 77.8614 54.5402 77.8614 54.1526V53.6189H76.8798V52.8564H78.8336V56.6782H78.1569L78.0521 55.7919C77.9504 56.0778 77.7915 56.3129 77.5755 56.4971C77.3595 56.6814 77.0609 56.7735 76.6796 56.7735Z" fill="#005358"/>
<path d="M93.3139 56.6782V49.7589H92.0082V48.9583H95.6585V49.7589H94.3909V56.6782H93.3139ZM96.3074 56.6782V48.9583H99.3V49.7589H97.3844V52.3131H98.9379V53.0756H97.3844V55.9062H99.3191V56.6782H96.3074ZM100.093 56.6782V48.9583H101.647C102.161 48.9583 102.587 49.0282 102.924 49.168C103.261 49.3014 103.508 49.5206 103.667 49.8256C103.832 50.1242 103.915 50.5182 103.915 51.0074C103.915 51.3061 103.883 51.5793 103.82 51.8271C103.756 52.0685 103.655 52.275 103.515 52.4466C103.375 52.6118 103.191 52.7325 102.962 52.8087L104.058 56.6782H103.019L102.009 53.0565H101.17V56.6782H100.093ZM101.17 52.2845H101.58C101.885 52.2845 102.133 52.2464 102.323 52.1702C102.514 52.0939 102.654 51.9637 102.743 51.7794C102.832 51.5952 102.876 51.3378 102.876 51.0074C102.876 50.5563 102.794 50.2323 102.628 50.0353C102.463 49.832 102.136 49.7303 101.647 49.7303H101.17V52.2845Z" fill="#005358"/>
<path d="M120.831 58.2413C120.66 58.1523 120.488 58.0252 120.317 57.86C120.152 57.6948 119.993 57.5138 119.84 57.3168C119.694 57.1198 119.561 56.9324 119.44 56.7545C119.415 56.7608 119.386 56.764 119.354 56.764C119.322 56.764 119.291 56.764 119.259 56.764C118.738 56.764 118.322 56.6623 118.01 56.459C117.699 56.2557 117.477 55.9666 117.343 55.5917C117.21 55.2105 117.143 54.7657 117.143 54.2574V51.3315C117.143 50.8232 117.21 50.3879 117.343 50.0258C117.483 49.6572 117.705 49.3777 118.01 49.1871C118.322 48.9901 118.738 48.8916 119.259 48.8916C119.78 48.8916 120.193 48.9901 120.498 49.1871C120.809 49.384 121.032 49.6636 121.165 50.0258C121.305 50.3879 121.375 50.8232 121.375 51.3315V54.2669C121.375 54.6418 121.337 54.9849 121.26 55.2963C121.184 55.6012 121.063 55.8649 120.898 56.0873C120.733 56.3033 120.514 56.4685 120.241 56.5829C120.317 56.6782 120.399 56.7767 120.488 56.8784C120.577 56.9864 120.666 57.0849 120.755 57.1738C120.844 57.2628 120.927 57.3358 121.003 57.393L120.831 58.2413ZM119.259 55.9158C119.551 55.9158 119.77 55.8586 119.916 55.7442C120.063 55.6235 120.161 55.4583 120.212 55.2486C120.263 55.0326 120.288 54.7816 120.288 54.4957V51.1123C120.288 50.8263 120.263 50.5817 120.212 50.3784C120.161 50.1687 120.063 50.0099 119.916 49.9019C119.77 49.7875 119.551 49.7303 119.259 49.7303C118.973 49.7303 118.754 49.7875 118.601 49.9019C118.455 50.0099 118.357 50.1687 118.306 50.3784C118.255 50.5817 118.23 50.8263 118.23 51.1123V54.4957C118.23 54.7816 118.255 55.0326 118.306 55.2486C118.357 55.4583 118.455 55.6235 118.601 55.7442C118.754 55.8586 118.973 55.9158 119.259 55.9158ZM124.339 56.764C123.78 56.764 123.351 56.6528 123.052 56.4304C122.754 56.208 122.55 55.8967 122.442 55.4964C122.334 55.0898 122.28 54.6164 122.28 54.0763V48.9583H123.31V54.124C123.31 54.4544 123.332 54.7562 123.376 55.0294C123.421 55.3026 123.516 55.5186 123.662 55.6775C123.815 55.8363 124.04 55.9158 124.339 55.9158C124.644 55.9158 124.869 55.8363 125.016 55.6775C125.162 55.5186 125.257 55.3026 125.301 55.0294C125.346 54.7562 125.368 54.4544 125.368 54.124V48.9583H126.388V54.0763C126.388 54.6164 126.334 55.0898 126.226 55.4964C126.118 55.8967 125.915 56.208 125.616 56.4304C125.324 56.6528 124.898 56.764 124.339 56.764ZM127.007 56.6782L128.646 48.9583H129.685L131.334 56.6782H130.314L129.962 54.734H128.389L128.017 56.6782H127.007ZM128.532 53.962H129.819L129.171 50.4832L128.532 53.962Z" fill="#005358"/>
<path d="M147.652 58.2413C147.481 58.1523 147.309 58.0252 147.138 57.86C146.972 57.6948 146.814 57.5138 146.661 57.3168C146.515 57.1198 146.381 56.9324 146.261 56.7545C146.235 56.7608 146.207 56.764 146.175 56.764C146.143 56.764 146.111 56.764 146.08 56.764C145.559 56.764 145.142 56.6623 144.831 56.459C144.52 56.2557 144.297 55.9666 144.164 55.5917C144.031 55.2105 143.964 54.7657 143.964 54.2574V51.3315C143.964 50.8232 144.031 50.3879 144.164 50.0258C144.304 49.6572 144.526 49.3777 144.831 49.1871C145.142 48.9901 145.559 48.8916 146.08 48.8916C146.601 48.8916 147.014 48.9901 147.319 49.1871C147.63 49.384 147.852 49.6636 147.986 50.0258C148.126 50.3879 148.195 50.8232 148.195 51.3315V54.2669C148.195 54.6418 148.157 54.9849 148.081 55.2963C148.005 55.6012 147.884 55.8649 147.719 56.0873C147.554 56.3033 147.335 56.4685 147.061 56.5829C147.138 56.6782 147.22 56.7767 147.309 56.8784C147.398 56.9864 147.487 57.0849 147.576 57.1738C147.665 57.2628 147.748 57.3358 147.824 57.393L147.652 58.2413ZM146.08 55.9158C146.372 55.9158 146.591 55.8586 146.737 55.7442C146.883 55.6235 146.982 55.4583 147.033 55.2486C147.084 55.0326 147.109 54.7816 147.109 54.4957V51.1123C147.109 50.8263 147.084 50.5817 147.033 50.3784C146.982 50.1687 146.883 50.0099 146.737 49.9019C146.591 49.7875 146.372 49.7303 146.08 49.7303C145.794 49.7303 145.575 49.7875 145.422 49.9019C145.276 50.0099 145.177 50.1687 145.127 50.3784C145.076 50.5817 145.05 50.8263 145.05 51.1123V54.4957C145.05 54.7816 145.076 55.0326 145.127 55.2486C145.177 55.4583 145.276 55.6235 145.422 55.7442C145.575 55.8586 145.794 55.9158 146.08 55.9158ZM151.16 56.764C150.601 56.764 150.172 56.6528 149.873 56.4304C149.574 56.208 149.371 55.8967 149.263 55.4964C149.155 55.0898 149.101 54.6164 149.101 54.0763V48.9583H150.13V54.124C150.13 54.4544 150.153 54.7562 150.197 55.0294C150.242 55.3026 150.337 55.5186 150.483 55.6775C150.635 55.8363 150.861 55.9158 151.16 55.9158C151.465 55.9158 151.69 55.8363 151.836 55.6775C151.983 55.5186 152.078 55.3026 152.122 55.0294C152.167 54.7562 152.189 54.4544 152.189 54.124V48.9583H153.209V54.0763C153.209 54.6164 153.155 55.0898 153.047 55.4964C152.939 55.8967 152.735 56.208 152.437 56.4304C152.145 56.6528 151.719 56.764 151.16 56.764ZM154.305 56.6782V48.9583H155.362V56.6782H154.305Z" fill="#005358"/>
<path d="M170.748 56.764C170.303 56.764 169.931 56.6687 169.633 56.4781C169.341 56.2875 169.118 56.0238 168.966 55.687C168.813 55.3503 168.724 54.9595 168.699 54.5147L169.652 54.2574C169.671 54.5306 169.712 54.7943 169.776 55.0485C169.846 55.3026 169.957 55.5123 170.109 55.6775C170.262 55.8363 170.475 55.9158 170.748 55.9158C171.028 55.9158 171.237 55.8395 171.377 55.687C171.523 55.5282 171.596 55.3026 171.596 55.0103C171.596 54.6609 171.517 54.3813 171.358 54.1716C171.199 53.9556 170.999 53.7396 170.757 53.5235L169.461 52.3799C169.207 52.1575 169.02 51.916 168.899 51.6555C168.778 51.3887 168.718 51.0614 168.718 50.6739C168.718 50.1084 168.88 49.6699 169.204 49.3586C169.528 49.0473 169.97 48.8916 170.529 48.8916C170.834 48.8916 171.101 48.9329 171.329 49.0155C171.564 49.0917 171.758 49.2125 171.911 49.3777C172.07 49.5429 172.193 49.7525 172.282 50.0067C172.378 50.2545 172.441 50.5468 172.473 50.8835L171.558 51.1313C171.539 50.8772 171.501 50.6453 171.444 50.4356C171.387 50.2196 171.285 50.048 171.139 49.9209C170.999 49.7875 170.796 49.7208 170.529 49.7208C170.262 49.7208 170.052 49.7938 169.9 49.94C169.754 50.0798 169.681 50.2894 169.681 50.569C169.681 50.8041 169.719 50.9979 169.795 51.1504C169.877 51.3029 170.008 51.4586 170.186 51.6174L171.491 52.7611C171.784 53.0152 172.041 53.3202 172.263 53.676C172.486 54.0255 172.597 54.4417 172.597 54.9246C172.597 55.3058 172.517 55.6362 172.359 55.9158C172.2 56.189 171.981 56.3987 171.701 56.5448C171.428 56.6909 171.11 56.764 170.748 56.764ZM173.337 56.6782V48.9583H176.33V49.7589H174.414V52.3131H175.968V53.0756H174.414V55.9062H176.349V56.6782H173.337ZM176.646 56.6782L178.257 52.6372L176.675 48.9583H177.676L178.848 51.6841L179.915 48.9583H180.916L179.296 52.723L180.992 56.6782H179.992L178.734 53.7713L177.647 56.6782H176.646Z" fill="#005358"/>
<path d="M195.568 56.764C195.124 56.764 194.752 56.6687 194.453 56.4781C194.161 56.2875 193.939 56.0238 193.786 55.687C193.634 55.3503 193.545 54.9595 193.519 54.5147L194.472 54.2574C194.491 54.5306 194.533 54.7943 194.596 55.0485C194.666 55.3026 194.777 55.5123 194.93 55.6775C195.082 55.8363 195.295 55.9158 195.568 55.9158C195.848 55.9158 196.058 55.8395 196.197 55.687C196.343 55.5282 196.417 55.3026 196.417 55.0103C196.417 54.6609 196.337 54.3813 196.178 54.1716C196.019 53.9556 195.819 53.7396 195.578 53.5235L194.282 52.3799C194.027 52.1575 193.84 51.916 193.719 51.6555C193.599 51.3887 193.538 51.0614 193.538 50.6739C193.538 50.1084 193.7 49.6699 194.024 49.3586C194.348 49.0473 194.79 48.8916 195.349 48.8916C195.654 48.8916 195.921 48.9329 196.15 49.0155C196.385 49.0917 196.579 49.2125 196.731 49.3777C196.89 49.5429 197.014 49.7525 197.103 50.0067C197.198 50.2545 197.262 50.5468 197.293 50.8835L196.378 51.1313C196.359 50.8772 196.321 50.6453 196.264 50.4356C196.207 50.2196 196.105 50.048 195.959 49.9209C195.819 49.7875 195.616 49.7208 195.349 49.7208C195.082 49.7208 194.873 49.7938 194.72 49.94C194.574 50.0798 194.501 50.2894 194.501 50.569C194.501 50.8041 194.539 50.9979 194.615 51.1504C194.698 51.3029 194.828 51.4586 195.006 51.6174L196.312 52.7611C196.604 53.0152 196.861 53.3202 197.084 53.676C197.306 54.0255 197.417 54.4417 197.417 54.9246C197.417 55.3058 197.338 55.6362 197.179 55.9158C197.02 56.189 196.801 56.3987 196.521 56.5448C196.248 56.6909 195.93 56.764 195.568 56.764ZM197.738 56.6782L199.377 48.9583H200.416L202.065 56.6782H201.045L200.693 54.734H199.12L198.748 56.6782H197.738ZM199.263 53.962H200.55L199.901 50.4832L199.263 53.962ZM199.635 48.5008L200.197 46.6138H201.217L200.149 48.5008H199.635ZM202.753 56.6782V48.9583H204.526C204.875 48.9583 205.177 48.9964 205.431 49.0727C205.692 49.1489 205.908 49.2665 206.079 49.4253C206.251 49.5842 206.378 49.7875 206.46 50.0353C206.543 50.2767 206.584 50.5627 206.584 50.8931C206.584 51.2108 206.543 51.4871 206.46 51.7222C206.384 51.951 206.263 52.1321 206.098 52.2655C205.939 52.3989 205.733 52.4847 205.479 52.5228C205.79 52.5927 206.041 52.7134 206.232 52.885C206.422 53.0502 206.562 53.2662 206.651 53.5331C206.746 53.7936 206.794 54.1081 206.794 54.4766C206.794 54.807 206.756 55.1088 206.68 55.382C206.603 55.6553 206.483 55.8872 206.317 56.0778C206.159 56.2684 205.952 56.4177 205.698 56.5257C205.45 56.6274 205.155 56.6782 204.812 56.6782H202.753ZM203.83 55.9062H204.554C205.037 55.9062 205.358 55.795 205.517 55.5727C205.682 55.3439 205.765 54.9786 205.765 54.4766C205.765 54.1526 205.72 53.8825 205.631 53.6665C205.549 53.4441 205.412 53.2789 205.221 53.1709C205.037 53.0565 204.786 52.9994 204.468 52.9994H203.83V55.9062ZM203.83 52.1797H204.468C204.773 52.1797 205.012 52.1384 205.183 52.0558C205.355 51.9669 205.476 51.8271 205.545 51.6365C205.615 51.4458 205.65 51.198 205.65 50.8931C205.65 50.5372 205.596 50.2799 205.488 50.1211C205.38 49.9622 205.212 49.8637 204.983 49.8256C204.754 49.7811 204.456 49.7589 204.087 49.7589H203.83V52.1797Z" fill="#007E85"/>
<path d="M84.4396 100.039H33.5264V82.9052H84.4396V100.039Z" fill="#ACDDDB"/>
<path d="M51.0888 87.6587H35.9805V85.7492H51.0888V87.6587Z" fill="white"/>
<path d="M63.1097 87.6587H56.4404V85.7492H63.1097V87.6587Z" fill="white"/>
<path d="M70.3516 87.6587H67.0176V85.7492H70.3516V87.6587Z" fill="white"/>
<path d="M70.3516 96.0054H67.0176V94.0965H70.3516V96.0054Z" fill="white"/>
<path d="M79.832 91.5444H35.9805V89.6349H79.832V91.5444Z" fill="white"/>
<path d="M58.3934 96.0054H35.9805V94.0965H58.3934V96.0054Z" fill="white"/>
<path d="M33.6451 99.9204H58.8523V83.0242H33.6451V99.9204ZM59.0908 100.158H33.4072V82.7858H59.0908V100.158Z" fill="white"/>
<path d="M33.6451 82.7855H58.8523V65.8906H33.6451V82.7855ZM59.0908 83.0239H33.4072V65.6527H59.0908V83.0239Z" fill="white"/>
<path d="M33.6457 134.187H58.853V117.291H33.6457V134.187ZM59.0914 134.425H33.4072V117.053H59.0914V134.425Z" fill="white"/>
<path d="M33.6457 151.32H58.853V134.425H33.6457V151.32ZM59.0914 151.558H33.4072V134.187H59.0914V151.558Z" fill="white"/>
<path d="M33.6451 168.454H58.8523V151.558H33.6451V168.454ZM59.0908 168.693H33.4072V151.32H59.0908V168.693Z" fill="white"/>
<path d="M33.6457 117.053H58.853V100.158H33.6457V117.053ZM59.0914 117.291H33.4072V99.92H59.0914V117.291Z" fill="white"/>
<path d="M84.4399 168.386H58.9941V151.252H84.4399V168.386Z" fill="#ACDDDB"/>
<path d="M67.4115 156.005H61.4482V154.096H67.4115V156.005Z" fill="white"/>
<path d="M78.758 159.891H61.4482V157.981H78.758V159.891Z" fill="white"/>
<path d="M59.1119 99.9204H84.3204V83.0242H59.1119V99.9204ZM84.5588 100.158H58.874V82.7858H84.5588V100.158Z" fill="white"/>
<path d="M59.1119 82.7855H84.3204V65.8906H59.1119V82.7855ZM84.5588 83.0239H58.874V65.6527H84.5588V83.0239Z" fill="white"/>
<path d="M59.1119 134.187H84.3204V117.291H59.1119V134.187ZM84.5588 134.425H58.874V117.053H84.5588V134.425Z" fill="white"/>
<path d="M59.1119 151.32H84.3204V134.425H59.1119V151.32ZM84.5588 151.558H58.874V134.187H84.5588V151.558Z" fill="white"/>
<path d="M59.1119 168.454H84.3204V151.558H59.1119V168.454ZM84.5588 168.693H58.874V151.32H84.5588V168.693Z" fill="white"/>
<path d="M59.1119 117.053H84.3204V100.158H59.1119V117.053ZM84.5588 117.291H58.874V99.92H84.5588V117.291Z" fill="white"/>
<path d="M186.247 134.307H84.4414V117.173H186.247V134.307Z" fill="#AEF7F4"/>
<path d="M160.8 168.608H135.354V151.474H160.8V168.608Z" fill="#AEF7F4"/>
<path d="M97.8162 122.42H86.9062V120.51H97.8162V122.42Z" fill="white"/>
<path d="M118.573 126.305H86.9062V124.395H118.573V126.305Z" fill="white"/>
<path d="M103.091 130.766H86.9062V128.857H103.091V130.766Z" fill="white"/>
<path d="M84.5597 99.9204H109.766V83.0242H84.5597V99.9204ZM110.005 100.158H84.3213V82.7858H110.005V100.158Z" fill="white"/>
<path d="M84.5597 82.7855H109.766V65.8906H84.5597V82.7855ZM110.005 83.0239H84.3213V65.6527H110.005V83.0239Z" fill="white"/>
<path d="M84.5597 134.187H109.766V117.291H84.5597V134.187ZM110.005 134.425H84.3213V117.053H110.005V134.425Z" fill="white"/>
<path d="M84.5597 151.32H109.766V134.425H84.5597V151.32ZM110.005 151.558H84.3213V134.187H110.005V151.558Z" fill="white"/>
<path d="M84.5597 168.454H109.766V151.558H84.5597V168.454ZM110.005 168.693H84.3213V151.32H110.005V168.693Z" fill="white"/>
<path d="M84.5597 117.053H109.766V100.158H84.5597V117.053ZM110.005 117.291H84.3213V99.92H110.005V117.291Z" fill="white"/>
<path d="M110.027 99.9204H135.234V83.0242H110.027V99.9204ZM135.472 100.158H109.788V82.7858H135.472V100.158Z" fill="white"/>
<path d="M110.027 82.7855H135.234V65.8906H110.027V82.7855ZM135.472 83.0239H109.788V65.6527H135.472V83.0239Z" fill="white"/>
<path d="M110.027 134.187H135.234V117.291H110.027V134.187ZM135.472 134.425H109.788V117.053H135.472V134.425Z" fill="white"/>
<path d="M110.027 151.32H135.234V134.425H110.027V151.32ZM135.472 151.558H109.788V134.187H135.472V151.558Z" fill="white"/>
<path d="M110.027 168.454H135.234V151.558H110.027V168.454ZM135.472 168.693H109.788V151.32H135.472V168.693Z" fill="white"/>
<path d="M110.027 117.053H135.234V100.158H110.027V117.053ZM135.472 117.291H109.788V99.92H135.472V117.291Z" fill="white"/>
<path d="M135.472 99.9204H160.68V83.0242H135.472V99.9204ZM160.918 100.158H135.234V82.7858H160.918V100.158Z" fill="white"/>
<path d="M135.472 82.7855H160.68V65.8906H135.472V82.7855ZM160.918 83.0239H135.234V65.6527H160.918V83.0239Z" fill="white"/>
<path d="M135.472 134.187H160.68V117.291H135.472V134.187ZM160.918 134.425H135.234V117.053H160.918V134.425Z" fill="white"/>
<path d="M135.472 151.32H160.68V134.425H135.472V151.32ZM160.918 151.558H135.234V134.187H160.918V151.558Z" fill="white"/>
<path d="M135.472 168.454H160.68V151.558H135.472V168.454ZM160.918 168.693H135.234V151.32H160.918V168.693Z" fill="white"/>
<path d="M135.472 117.053H160.68V100.158H135.472V117.053ZM160.918 117.291H135.234V99.92H160.918V117.291Z" fill="white"/>
<path d="M97.1626 86.3769C94.3527 86.3769 92.0668 88.6628 92.0668 91.4727C92.0668 94.2826 94.3527 96.569 97.1626 96.569C99.9725 96.569 102.258 94.2826 102.258 91.4727C102.258 88.6628 99.9725 86.3769 97.1626 86.3769ZM97.1626 97.521C93.8273 97.521 91.1143 94.8079 91.1143 91.4727C91.1143 88.1374 93.8273 85.4244 97.1626 85.4244C100.498 85.4244 103.211 88.1374 103.211 91.4727C103.211 94.8079 100.498 97.521 97.1626 97.521Z" fill="#1BC5BD"/>
<path d="M198.968 69.243C196.158 69.243 193.872 71.5295 193.872 74.3388C193.872 77.1487 196.158 79.4351 198.968 79.4351C201.778 79.4351 204.064 77.1487 204.064 74.3388C204.064 71.5295 201.778 69.243 198.968 69.243ZM198.968 80.3877C195.633 80.3877 192.92 77.674 192.92 74.3388C192.92 71.0041 195.633 68.2911 198.968 68.2911C202.303 68.2911 205.016 71.0041 205.016 74.3388C205.016 77.674 202.303 80.3877 198.968 80.3877Z" fill="#1BC5BD"/>
<path d="M186.246 117.172H160.8V100.039H186.246V117.172Z" fill="#B0DFDD"/>
<path d="M180.969 104.792H163.254V102.883H180.969V104.792Z" fill="white"/>
<path d="M184.089 108.677H163.254V106.768H184.089V108.677Z" fill="white"/>
<path d="M176.802 113.139H163.254V111.23H176.802V113.139Z" fill="white"/>
<path d="M160.918 99.9204H186.125V83.0242H160.918V99.9204ZM186.364 100.158H160.68V82.7858H186.364V100.158Z" fill="white"/>
<path d="M160.918 82.7855H186.125V65.8906H160.918V82.7855ZM186.364 83.0239H160.68V65.6527H186.364V83.0239Z" fill="white"/>
<path d="M160.918 134.187H186.125V117.291H160.918V134.187ZM186.364 134.425H160.68V117.053H186.364V134.425Z" fill="white"/>
<path d="M160.918 151.32H186.125V134.425H160.918V151.32ZM186.364 151.558H160.68V134.187H186.364V151.558Z" fill="white"/>
<path d="M160.918 168.454H186.125V151.558H160.918V168.454ZM186.364 168.693H160.68V151.32H186.364V168.693Z" fill="white"/>
<path d="M160.918 117.053H186.125V100.158H160.918V117.053ZM186.364 117.291H160.68V99.92H186.364V117.291Z" fill="white"/>
<path d="M186.364 99.9204H211.573V83.0242H186.364V99.9204ZM211.81 100.158H186.126V82.7858H211.81V100.158Z" fill="white"/>
<path d="M186.364 82.7855H211.573V65.8906H186.364V82.7855ZM211.81 83.0239H186.126V65.6527H211.81V83.0239Z" fill="white"/>
<path d="M186.364 134.187H211.573V117.291H186.364V134.187ZM211.81 134.425H186.126V117.053H211.81V134.425Z" fill="white"/>
<path d="M186.364 151.32H211.573V134.425H186.364V151.32ZM211.81 151.558H186.126V134.187H211.81V151.558Z" fill="white"/>
<path d="M186.364 168.454H211.573V151.558H186.364V168.454ZM211.81 168.693H186.126V151.32H211.81V168.693Z" fill="white"/>
<path d="M186.364 117.053H211.573V100.158H186.364V117.053ZM211.81 117.291H186.126V99.92H211.81V117.291Z" fill="white"/>
<path d="M71.1088 131.506C70.9243 131.506 70.7455 131.434 70.6126 131.306L64.9747 125.864C64.691 125.59 64.6835 125.138 64.9574 124.854C65.2312 124.571 65.6845 124.563 65.9671 124.835L71.056 129.748L79.287 120.025C79.541 119.722 79.9918 119.686 80.293 119.941C80.5948 120.196 80.6314 120.646 80.3768 120.947L71.6533 131.253C71.526 131.403 71.3416 131.495 71.1448 131.505L71.1088 131.506Z" fill="#007E85"/>
<path d="M147.124 148.807C146.939 148.807 146.761 148.735 146.627 148.607L140.99 143.165C140.706 142.891 140.698 142.439 140.972 142.155C141.246 141.872 141.698 141.865 141.981 142.137L147.071 147.049L155.301 137.325C155.555 137.023 156.006 136.986 156.308 137.242C156.609 137.496 156.646 137.946 156.391 138.248L147.668 148.554C147.54 148.705 147.357 148.796 147.159 148.806L147.124 148.807Z" fill="#007E85"/>
<path d="M77.5518 96.063C77.5518 96.063 67.1585 111.962 64.3356 109.971C64.3356 109.971 59.7919 107.653 61.4201 98.3214C61.4232 97.4148 61.4281 96.7864 61.3959 96.6442C61.3959 96.6442 60.696 87.4314 59.1808 85.5231C59.015 85.3138 58.5133 84.9245 58.5803 84.9077C63.2054 83.7515 65.0584 93.6039 66.3332 98.9828C66.3866 99.2057 75.1312 92.383 75.1312 92.383C75.1312 92.383 79.7563 86.2683 80.0792 86.6179C80.5461 87.124 78.7546 89.8507 78.7546 89.8507C78.7546 89.8507 78.8707 90.1624 79.2216 90.3183C79.5718 90.4742 79.7674 90.7083 79.8836 91.1759C80.0009 91.6428 80.4685 91.9154 80.5461 92.1881C80.6244 92.4607 78.5385 95.3488 77.5518 96.063Z" fill="#F5777B"/>
<path d="M75.2852 92.3439C75.2852 92.3439 76.2204 89.6955 76.6103 89.7731C76.9997 89.8507 78.713 90.5909 78.6744 91.2535C78.6353 91.9154 77.1555 91.3702 77.1555 91.3702C77.1555 91.3702 77.4275 92.8506 76.6879 93.045C75.9477 93.24 75.2852 92.3439 75.2852 92.3439Z" fill="#F5777B"/>
<path d="M77.5842 91.2536C77.5842 91.2536 77.5457 91.9155 78.0915 92.0323C78.0915 92.0323 78.2077 92.734 78.9087 92.5781C78.9087 92.5781 78.7138 92.8892 79.1429 92.9675C79.1429 92.9675 77.3122 94.954 77.5842 91.2536Z" fill="#F14F46"/>
<path d="M77.236 89.9619C77.6073 90.088 77.9749 90.2295 78.3339 90.3898C78.5183 90.4711 78.6866 90.5344 78.876 90.6667C78.9648 90.7344 79.0635 90.8195 79.1119 90.9691C79.1641 91.1206 79.0939 91.3038 78.9964 91.392C78.6071 91.7031 78.1668 91.7099 77.7731 91.6913C77.6756 91.6814 77.5614 91.6752 77.5607 91.6814C77.5496 91.6361 77.5589 91.777 77.5719 91.8677L77.6067 92.4564L77.5893 92.4595L77.4781 91.8851C77.4738 91.7938 77.4018 91.6876 77.4813 91.5938C77.5732 91.5268 77.6793 91.5578 77.7737 91.551C78.1544 91.5504 78.5748 91.5175 78.8679 91.2641C79.03 91.1293 78.9368 90.8977 78.776 90.7965C78.6232 90.6804 78.4369 90.6083 78.268 90.5139L77.2285 89.978L77.236 89.9619Z" fill="#EE655C"/>
<path d="M78.7993 89.7798C78.7913 89.8686 78.7708 89.9468 78.7366 90.0114C78.7043 90.0784 78.6534 90.1281 78.6118 90.1871C78.5522 90.2287 78.5044 90.2815 78.4348 90.3144C78.3702 90.3517 78.2895 90.3747 78.1976 90.3877L78.1846 90.3753C78.3777 90.166 78.5783 89.9629 78.7863 89.768L78.7993 89.7798Z" fill="#EE655C"/>
<path d="M79.59 90.762C79.4988 90.9545 79.3857 91.134 79.2479 91.293C79.1131 91.4544 78.9529 91.591 78.7946 91.7283C78.6176 91.8469 78.4574 91.9673 78.2512 92.0586C78.145 92.0996 78.0246 92.1344 77.8991 92.117C77.7786 92.0922 77.6662 92.0183 77.624 91.9152L77.6383 91.9046C77.7693 92.071 78.0196 92.0387 78.1841 91.9357C78.358 91.8326 78.5238 91.7103 78.6846 91.5854C79.0082 91.3383 79.3081 91.0582 79.5758 90.7508L79.59 90.762Z" fill="#EE655C"/>
<path d="M78.0691 92.0315C78.1642 92.2476 78.2809 92.4761 78.4361 92.5314C78.5839 92.5922 78.7684 92.5177 78.9354 92.383C79.113 92.2693 79.2707 92.0936 79.4471 91.9402C79.6191 91.7812 79.8023 91.631 79.9936 91.4819L80.0085 91.4931C79.8613 91.6788 79.7085 91.8589 79.5508 92.0346C79.3912 92.2085 79.2329 92.3861 79.041 92.5295C78.8565 92.6636 78.5926 92.7835 78.3678 92.6537C78.1486 92.5227 78.0946 92.2588 78.0518 92.0346L78.0691 92.0315Z" fill="#EE655C"/>
<path d="M78.8793 92.4614C78.9209 92.6005 79.0079 92.7216 79.0712 92.8353L79.1836 92.9613C79.1867 92.9706 79.2401 92.9775 79.2985 92.9781C79.4115 92.9657 79.5165 92.9706 79.6692 92.9241C79.8313 92.9098 79.9176 92.9241 80.071 92.8446L80.0853 92.857C79.9983 92.9775 79.8512 93.0408 79.7127 93.0706C79.5786 93.1172 79.4332 93.1656 79.2842 93.1482C79.2128 93.1389 79.1321 93.1296 79.0762 93.0719C79.0234 93.0166 78.9892 92.9508 78.9601 92.8843C78.9048 92.7496 78.8632 92.6086 78.8613 92.4608L78.8793 92.4614Z" fill="#EE655C"/>
<path d="M48.3795 91.545C48.3795 91.545 42.2126 90.8141 42.9609 90.4396C43.7092 90.0652 48.8602 88.1345 49.8674 87.5583C50.8746 86.9826 51.5658 87.069 51.5658 87.069L58.8666 70.1362C58.9908 69.1408 57.1893 66.7574 56.3162 66.2575C53.9261 64.8883 50.9752 64.6914 48.2777 65.2522C39.4865 67.0785 34.5821 88.7934 29.9072 93.3067C29.9072 93.3067 41.935 97.9019 48.7825 96.9425" fill="#1B1D41"/>
<path d="M28.6342 91.6854C30.045 86.4326 32.7096 81.5616 35.9269 77.203C38.5921 73.5933 41.7287 70.0767 45.4452 67.5176C46.6089 66.7159 48.0552 65.7522 49.525 65.7317C49.8684 65.7267 49.8697 65.1921 49.525 65.197C48.2527 65.2144 47.0188 65.8882 45.965 66.5396C44.2828 67.5785 42.7564 68.8745 41.3269 70.2338C37.4967 73.8789 34.2229 78.1947 31.6863 82.8303C30.176 85.5893 28.9356 88.5023 28.1187 91.5432C28.0296 91.8761 28.5451 92.0182 28.6342 91.6854Z" fill="#1B1D41"/>
<path d="M49.5573 73.9272C49.5616 74.0601 49.4567 74.1694 49.3238 74.1687C48.7699 74.1663 47.49 74.0483 47.3093 75.4989C47.1261 76.965 48.5233 77.7897 49.3641 77.8356C49.6069 77.8493 50.1671 77.8989 50.331 78.0778C50.8371 78.628 51.0749 79.8296 51.4637 81.3274C52.3225 84.6359 49.7237 86.1474 49.7237 86.1474C49.7237 86.1474 58.3907 90.4085 58.3099 86.1368L57.6654 78.2392C58.3422 77.5624 60.9696 77.2718 59.3172 71.6706C57.7871 66.4817 53.9799 66.8512 53.0124 67.0225C52.1958 67.1672 49.361 67.3454 49.5573 73.9272Z" fill="#F5777B"/>
<path d="M55.6912 66.5123C55.6912 66.5123 50.3725 73.5448 49.4454 74.1279C49.4454 74.1279 45.8189 65.5448 55.6912 66.5123Z" fill="#1B1D41"/>
<path d="M47.9385 75.9188C47.9385 75.9188 48.8091 74.08 49.915 76.5435L47.9385 75.9188Z" fill="#EE655C"/>
<path d="M54.3743 73.9329C55.0934 73.9174 55.6895 74.4868 55.7057 75.2059C55.7218 75.925 55.1524 76.5205 54.4333 76.5373C53.7142 76.5534 53.118 75.9834 53.1019 75.2649C53.0858 74.5452 53.6558 73.9497 54.3743 73.9329Z" fill="#F14F46"/>
<path d="M59.8009 74.4194C59.2053 74.3114 58.7471 73.7966 58.7328 73.1675C58.7216 72.6826 58.9774 72.2535 59.3656 72.0206C59.3656 72.0206 59.9219 73.4613 59.8009 74.4194Z" fill="#F14F46"/>
<path d="M58.7044 73.7492L56.7197 74.7378C56.7197 74.7378 57.6903 75.4444 58.215 75.0576C58.7391 74.6713 58.7044 73.7492 58.7044 73.7492Z" fill="white"/>
<path d="M57.1846 72.3074L57.4982 73.7251L58.1881 73.4196C58.3154 73.3637 58.3359 73.1917 58.2253 73.1066L57.1846 72.3074Z" fill="#EE655C"/>
<path d="M54.6381 71.776C54.4667 72.0163 54.566 71.1767 54.8492 70.9836C55.1317 70.7905 55.4969 70.8321 55.6633 71.0761C55.6633 71.0761 55.0516 71.1978 54.6381 71.776Z" fill="#1B284B"/>
<path d="M58.382 70.3594C58.667 70.4396 58.064 69.8465 57.7225 69.8732C57.3809 69.8993 57.122 70.1601 57.145 70.4551C57.145 70.4551 57.6983 70.1676 58.382 70.3594Z" fill="#1B284B"/>
<path d="M55.7817 72.8179C55.8773 73.0551 56.0481 73.2097 56.1636 73.1638C56.2791 73.1172 56.294 72.8868 56.1984 72.6496C56.1021 72.4124 55.932 72.2578 55.8165 72.3044C55.7016 72.3509 55.6854 72.5807 55.7817 72.8179Z" fill="#1B284B"/>
<path d="M57.6228 71.9426C57.7135 72.1693 57.8774 72.3171 57.9874 72.273C58.0966 72.2283 58.1122 72.0085 58.0203 71.7824C57.929 71.5558 57.7657 71.408 57.6551 71.4521C57.5458 71.4968 57.5309 71.716 57.6228 71.9426Z" fill="#1B284B"/>
<path d="M57.6638 78.2388C57.6638 78.2388 55.1898 78.7114 53.9404 78.6306C52.691 78.5499 58.9449 85.7315 57.6638 78.2388Z" fill="#1B284B"/>
<path d="M54.8284 67.1721C54.9712 68.8518 53.9261 70.5819 52.8344 71.7859C51.8055 72.9205 50.2437 73.8054 48.6683 73.6396C48.3268 73.6035 48.3293 74.1388 48.6683 74.1742C50.371 74.3537 52.0998 73.3912 53.2126 72.1641C54.3937 70.8607 55.5177 68.9928 55.3624 67.1721C55.3332 66.8318 54.7986 66.8287 54.8284 67.1721Z" fill="#1B1D41"/>
<path d="M51.5102 79.6493C51.5102 80.2666 51.0091 80.7671 50.3918 80.7671C49.7739 80.7671 49.2734 80.2666 49.2734 79.6493C49.2734 79.0315 49.7739 78.531 50.3918 78.531C51.0091 78.531 51.5102 79.0315 51.5102 79.6493Z" fill="white"/>
<path d="M51.5102 81.885C51.5102 82.5029 51.0091 83.0034 50.3918 83.0034C49.7739 83.0034 49.2734 82.5029 49.2734 81.885C49.2734 81.2678 49.7739 80.7667 50.3918 80.7667C51.0091 80.7667 51.5102 81.2678 51.5102 81.885Z" fill="white"/>
<path d="M51.9312 77.1999L50.3626 79.4497L48.8896 77.1043L51.9312 77.1999Z" fill="#5D5EB5"/>
<path d="M45.4299 108.118C42.9764 112.457 41.6792 115.634 40.2689 121.149C38.6339 127.546 23.5106 181.652 22.7393 193.287C24.755 193.773 40.3826 193.702 41.6562 193.631C45.7081 182.019 51.1428 144.307 52.8803 136.992C53.1474 135.867 54.8848 136.114 54.7495 137.262C53.7634 145.616 47.7095 180.802 45.061 193.652C46.1179 194.19 62.2062 194.071 63.4264 193.917C64.7546 179.59 71.8015 125.348 61.1635 107.766C56.2988 107.095 50.3623 107.971 45.4299 108.118Z" fill="#5D5EB5"/>
<path d="M60.0565 108.509C60.0565 108.509 60.1297 108.693 60.2583 109.048C61.1581 111.53 64.7628 122.302 64.7628 135.526C64.7628 143.084 63.4408 157.558 62.1187 170.137C61.4574 176.427 60.7967 182.245 60.3005 186.489C60.0527 188.612 59.846 190.341 59.7013 191.539C59.5572 192.738 59.4746 193.404 59.4746 193.406L59.6677 193.43C59.6677 193.427 64.9572 150.675 64.9578 135.526C64.9572 120.373 60.2403 108.443 60.2378 108.437L60.0565 108.509Z" fill="white"/>
<path d="M26.01 193.212L47.9223 109.201L47.7335 109.152L25.8213 193.163L26.01 193.212Z" fill="white"/>
<path d="M50.7642 109.598C50.7642 109.601 50.7555 110.396 50.6562 111.597C50.5077 113.396 50.1538 116.096 49.3217 118.337C48.9062 119.456 48.371 120.461 47.6898 121.179C47.0073 121.898 46.1858 122.332 45.1742 122.333C44.9612 122.333 44.7401 122.314 44.5091 122.273L44.4756 122.465C44.7165 122.507 44.9494 122.528 45.1742 122.528C46.6031 122.528 47.6848 121.697 48.4865 120.479C50.8903 116.825 50.9561 109.608 50.9592 109.601L50.7642 109.598Z" fill="white"/>
<path d="M63.7567 122.908C63.5406 122.946 63.3338 122.964 63.1357 122.964C62.0999 122.963 61.3013 122.469 60.6654 121.653C58.7559 119.205 58.4709 113.862 58.4753 111.072C58.4753 109.985 58.5162 109.287 58.5162 109.285L58.3213 109.274C58.3213 109.275 58.2803 109.98 58.2803 111.072C58.2803 112.942 58.4001 115.945 59.059 118.491C59.3887 119.764 59.8526 120.924 60.5114 121.773C61.1691 122.622 62.0341 123.16 63.1357 123.159C63.3456 123.159 63.5635 123.14 63.7902 123.1L63.7567 122.908Z" fill="white"/>
<path d="M42.0156 115.352C42.5254 112.771 43.3091 110.075 44.5101 107.819L48.118 107.985C47.1983 108.043 46.2985 108.092 45.4291 108.118C43.9717 110.694 42.9229 112.861 42.0156 115.352Z" fill="#A9A7DB"/>
<path d="M46.1916 120.858L45.0695 120.139L47.9222 109.201L47.7335 109.152L44.8968 120.028L43.481 119.121L41.623 117.648C41.7317 116.904 41.8609 116.133 42.0155 115.352C42.9228 112.862 43.9716 110.694 45.429 108.118C46.2984 108.093 47.1982 108.043 48.1178 107.985L60.0654 108.533C60.0896 108.594 60.1561 108.768 60.2579 109.048C60.2877 109.131 60.3206 109.223 60.3567 109.325L58.4745 110.856C58.4794 109.894 58.5155 109.287 58.5155 109.285L58.3205 109.274C58.3205 109.275 58.2807 109.956 58.2795 111.016L49.6268 118.061C50.9135 114.323 50.9569 109.607 50.9594 109.601L50.7644 109.598C50.7644 109.601 50.7557 110.396 50.6564 111.597C50.5092 113.385 50.1578 116.065 49.3362 118.298L46.1916 120.858ZM60.5175 109.194C60.4063 108.882 60.3237 108.663 60.2784 108.543L61.2614 108.588L60.5175 109.194Z" fill="#4F53AD"/>
<path d="M60.3576 109.324C60.3216 109.222 60.2887 109.13 60.2589 109.047C60.1571 108.767 60.0906 108.593 60.0664 108.532L60.2794 108.542C60.3247 108.662 60.4073 108.881 60.5185 109.193L60.3576 109.324Z" fill="#C9CBD3"/>
<path d="M45.0691 120.139L44.8965 120.028L47.7331 109.152L47.9219 109.201L45.0691 120.139Z" fill="#C9CBD3"/>
<path d="M49.3359 118.298C50.1575 116.066 50.509 113.386 50.6561 111.597C50.7555 110.397 50.7642 109.602 50.7642 109.599L50.9592 109.602C50.9567 109.608 50.9132 114.324 49.6266 118.062L49.3359 118.298Z" fill="#C9CBD3"/>
<path d="M58.2803 111.016C58.2815 109.956 58.3213 109.276 58.3213 109.274L58.5162 109.285C58.5162 109.287 58.4802 109.894 58.4753 110.857L58.2803 111.016Z" fill="#C9CBD3"/>
<path d="M60.0904 85.5193C59.9495 85.8621 63.9274 95.7809 63.7585 99.1491C63.589 102.542 63.6623 107.396 63.8424 107.906C63.8424 107.906 58.8187 110.839 44.2953 108.552C39.8298 104.645 43.7525 91.3683 45.2528 87.1643C45.2528 87.1643 48.1105 85.7336 49.3419 85.6429C49.3419 85.6429 54.6004 87.7989 60.0904 85.5193Z" fill="#1B1D41"/>
<path d="M49.3057 85.6275L51.363 82.9375C51.363 82.9375 53.8133 84.6793 57.4932 85.9647L57.4473 90.7108C57.438 90.8437 57.2914 90.9226 57.171 90.8611C56.0017 90.26 50.8538 87.9177 49.3057 85.6275Z" fill="white"/>
<path d="M57.988 82.7901C57.988 82.7901 58.6009 84.9654 57.4434 85.8552L59.0548 90.5144C59.1709 90.8733 59.4299 90.8559 59.4696 90.6696C59.7217 89.4823 60.1887 86.9022 59.8732 85.3547L57.988 82.7901Z" fill="white"/>
<path d="M58.7624 90.9039C58.7624 91.2523 58.6108 91.5342 58.4258 91.5342C58.2401 91.5342 58.0898 91.2523 58.0898 90.9039C58.0898 90.5555 58.2401 90.273 58.4258 90.273C58.6108 90.273 58.7624 90.5555 58.7624 90.9039Z" fill="white"/>
<path d="M58.9303 93.5937C58.9303 93.9421 58.7801 94.2246 58.5938 94.2246C58.4081 94.2246 58.2578 93.9421 58.2578 93.5937C58.2578 93.246 58.4081 92.9634 58.5938 92.9634C58.7801 92.9634 58.9303 93.246 58.9303 93.5937Z" fill="white"/>
<path d="M59.0592 96.5571C59.0592 96.9054 58.909 97.188 58.7233 97.188C58.537 97.188 58.3867 96.9054 58.3867 96.5571C58.3867 96.2093 58.537 95.9268 58.7233 95.9268C58.909 95.9268 59.0592 96.2093 59.0592 96.5571Z" fill="white"/>
<path d="M59.0592 99.8286C59.0592 100.177 58.909 100.459 58.7233 100.459C58.537 100.459 58.3867 100.177 58.3867 99.8286C58.3867 99.4808 58.537 99.1983 58.7233 99.1983C58.909 99.1983 59.0592 99.4808 59.0592 99.8286Z" fill="white"/>
<path d="M59.0592 103.099C59.0592 103.447 58.909 103.729 58.7233 103.729C58.537 103.729 58.3867 103.447 58.3867 103.099C58.3867 102.751 58.537 102.468 58.7233 102.468C58.909 102.468 59.0592 102.751 59.0592 103.099Z" fill="white"/>
<path d="M59.0592 106.369C59.0592 106.717 58.909 107 58.7233 107C58.537 107 58.3867 106.717 58.3867 106.369C58.3867 106.021 58.537 105.739 58.7233 105.739C58.909 105.739 59.0592 106.021 59.0592 106.369Z" fill="white"/>
<path d="M47.6367 138.926L28.8701 126.902L36.6572 114.749L52.869 125.136C54.2799 126.04 54.691 127.916 53.7868 129.327L47.6367 138.926Z" fill="#1BC5BD"/>
<path d="M44.7281 126.731C44.7281 128.157 43.5725 129.314 42.1461 129.314C40.7197 129.314 39.5635 128.157 39.5635 126.731C39.5635 125.305 40.7197 124.149 42.1461 124.149C43.5725 124.149 44.7281 125.305 44.7281 126.731Z" fill="white"/>
<path d="M43.2627 135.967C43.2459 135.967 43.2279 135.964 43.2093 135.957C42.9186 135.861 40.5298 133.665 40.1106 133.387C39.7753 133.164 39.8293 132.633 39.9075 132.239L40.4192 128.65C40.8769 129.063 41.4823 129.314 42.1468 129.314C42.5957 129.314 43.018 129.199 43.3856 128.997C43.6228 129.834 43.9855 130.617 44.2097 131.083C44.2817 131.233 44.4034 131.632 44.2537 132.253C44.1426 132.717 44.1569 134.093 43.4434 134.42L43.3707 133.221C43.3378 132.73 43.2807 131.667 43.2577 131.667C43.2552 131.667 43.2534 131.679 43.2515 131.705C43.1583 133.19 43.7582 135.967 43.2627 135.967Z" fill="#765F97"/>
<path d="M41.2352 117.683L40.7012 117.34C40.721 117.323 40.7397 117.306 40.7583 117.291H41.1725L41.3203 117.409C41.2917 117.5 41.2638 117.591 41.2352 117.683Z" fill="#646A98"/>
<path d="M41.172 117.291H40.7578C40.8926 117.18 40.9807 117.139 40.9807 117.139L41.172 117.291Z" fill="#6F7790"/>
<path d="M41.5862 117.907L41.2354 117.682C41.2639 117.59 41.2919 117.499 41.3204 117.408L41.6228 117.648C41.6104 117.735 41.598 117.821 41.5862 117.907Z" fill="#4145A3"/>
<path d="M43.4815 119.121L41.5869 117.907C41.5987 117.821 41.6111 117.735 41.6235 117.648L43.4815 119.121Z" fill="#383F97"/>
<path d="M39.8904 125.473C38.6732 119.84 40.0686 117.902 40.702 117.34L41.236 117.682L41.5869 117.907L43.4815 119.121L44.0217 119.55C43.8497 121.597 43.6634 123.251 43.5082 124.536C43.1126 124.291 42.6463 124.149 42.147 124.149C41.177 124.149 40.3325 124.683 39.8904 125.473Z" fill="#765F97"/>
<path d="M42.1463 129.314C41.4818 129.314 40.8764 129.063 40.4187 128.651L40.4324 128.553C40.5243 128.092 40.4181 127.575 40.2939 127.121C40.1356 126.539 40.0014 125.99 39.8896 125.473C40.3318 124.683 41.1763 124.149 42.1463 124.149C42.6455 124.149 43.1119 124.291 43.5075 124.536C43.2883 126.347 43.1318 127.426 43.1647 127.842C43.1951 128.222 43.2771 128.615 43.3851 128.997C43.0175 129.199 42.5952 129.314 42.1463 129.314Z" fill="#6F7790"/>
<path d="M40.5968 96.2653C34.9875 127.59 38.6314 133.539 38.9978 133.784C39.4579 134.09 42.0759 136.495 42.3939 136.601C43.0403 136.817 42.3349 133.623 42.4405 131.941C42.4597 131.642 42.5311 133.006 42.5709 133.603L42.6503 134.917C43.4334 134.558 43.4173 133.05 43.5396 132.542C43.7029 131.861 43.57 131.424 43.4905 131.259C43.1335 130.515 42.4523 129.035 42.3461 127.708C42.2834 126.925 47.5989 101.485 48.5335 97.747C49.804 92.6667 48.2056 86.8321 46.4172 86.6352C44.1978 86.3899 41.0613 93.6709 40.5968 96.2653Z" fill="#F5777B"/>
<path d="M183.081 106.719C182.941 105.602 186.673 92.2038 187.211 91.2121C188.621 88.6164 195.062 88.0992 197.853 89.8658C202.367 92.7248 209.329 105.713 207.918 109.087L183.081 106.719Z" fill="#1B1D41"/>
<path d="M196.69 99.0548C196.686 99.2032 196.803 99.3268 196.953 99.3262C197.575 99.3231 199.011 99.1902 199.213 100.818C199.418 102.463 197.851 103.39 196.907 103.441C196.635 103.456 196.007 103.512 195.822 103.712C195.255 104.329 194.988 105.678 194.552 107.359C193.587 111.073 196.504 112.768 196.504 112.768C196.504 112.768 186.778 117.549 186.868 112.757L187.592 103.893C186.833 103.134 183.884 102.808 185.738 96.5219C187.456 90.699 191.728 91.1138 192.814 91.3063C193.73 91.4684 196.911 91.6683 196.69 99.0548Z" fill="#CD523D"/>
<path d="M196.948 98.9359C196.944 99.0843 197.061 99.2073 197.211 99.2066C197.833 99.2042 199.269 99.0713 199.471 100.699C199.677 102.344 198.109 103.27 197.165 103.322C196.893 103.337 196.264 103.393 196.08 103.593C195.512 104.21 195.247 105.559 194.809 107.24C193.845 110.953 196.762 112.649 196.762 112.649C196.762 112.649 187.036 117.431 187.126 112.638L187.85 103.774C187.091 103.015 184.142 102.689 185.996 96.4029C187.713 90.5807 191.985 90.9949 193.071 91.1874C193.987 91.3494 197.168 91.5494 196.948 98.9359Z" fill="#CD523D"/>
<path d="M190.395 90.3997C190.395 90.3997 192.249 98.8059 194.526 99.6765C197.047 100.64 196.814 96.6355 197.081 99.2387C197.081 99.2387 201.635 86.8781 190.395 90.3997Z" fill="#1B1D41"/>
<path d="M198.507 101.29C198.507 101.29 197.529 99.2276 196.288 101.992L198.507 101.29Z" fill="#E76239"/>
<path d="M191.283 99.0617C190.476 99.0437 189.807 99.6833 189.789 100.49C189.771 101.297 190.41 101.966 191.217 101.984C192.024 102.002 192.693 101.362 192.711 100.556C192.729 99.7491 192.09 99.0803 191.283 99.0617Z" fill="#8E271D"/>
<path d="M185.195 99.6084C185.863 99.4867 186.378 98.9092 186.394 98.2031C186.406 97.6592 186.119 97.1773 185.683 96.9165C185.683 96.9165 185.059 98.5329 185.195 99.6084Z" fill="#8E271D"/>
<path d="M188.491 96.6219L187.877 98.7891L187.104 98.4475L188.491 96.6219Z" fill="#E76239"/>
<path d="M191.163 96.7246C191.19 96.4893 191.263 96.1887 191.146 96.0167C191.05 95.854 190.672 95.6199 190.58 95.5572C190.262 95.3405 189.918 95.3932 189.892 95.7242C189.998 95.9105 190.447 95.8664 190.815 96.2173C190.985 96.3787 191.048 96.5619 191.163 96.7246Z" fill="#040606"/>
<path d="M186.714 94.9132C186.516 94.9685 186.898 94.6524 187.175 94.5605C187.418 94.4574 187.766 94.5319 187.91 94.5605C188.289 94.635 188.462 94.912 188.17 95.1275C187.852 95.3616 187.482 94.6977 186.714 94.9132Z" fill="#040606"/>
<path d="M189.704 97.8113C189.596 98.0771 189.404 98.2509 189.274 98.1988C189.145 98.1466 189.128 97.8883 189.236 97.6219C189.343 97.3561 189.535 97.1822 189.664 97.2344C189.793 97.2865 189.811 97.5443 189.704 97.8113Z" fill="#040606"/>
<path d="M187.641 96.8285C187.539 97.0831 187.355 97.2489 187.231 97.1992C187.108 97.1495 187.091 96.903 187.195 96.6484C187.297 96.3938 187.48 96.2286 187.603 96.2777C187.727 96.328 187.744 96.5739 187.641 96.8285Z" fill="#040606"/>
<path d="M187.592 103.894C187.592 103.894 190.368 104.425 191.77 104.334C193.172 104.243 187.121 107.827 187.592 103.894Z" fill="#040606"/>
<path d="M186.671 98.9314C186.671 98.9314 186.395 100.036 186.874 100.218C187.733 100.545 188.499 99.8797 188.499 99.8797L186.671 98.9314Z" fill="#F9F8F0"/>
<path d="M201.323 137.424C204.076 142.292 205.532 145.858 207.115 152.048C208.95 159.226 219.191 219.885 220.056 232.941C217.794 233.486 214.366 233.244 212.936 233.164C208.39 220.134 194.911 178.035 192.962 169.826C192.663 168.565 190.713 168.842 190.864 170.13C191.971 179.504 190.242 217.59 189.352 233.386C188.166 233.991 182.497 233.88 181.127 233.708C179.636 217.629 171.729 156.759 183.667 137.028C189.126 136.276 195.787 137.259 201.323 137.424Z" fill="#15171F"/>
<path d="M184.289 139.129C184.286 139.137 179.42 151.181 179.419 168.182C179.419 185.173 182.58 228.276 182.58 228.277L182.775 228.263C182.775 228.261 182.726 227.589 182.639 226.378C182.034 217.896 179.615 183.034 179.615 168.182C179.615 159.7 180.829 152.453 182.043 147.328C182.65 144.765 183.257 142.733 183.712 141.342C183.94 140.647 184.129 140.111 184.262 139.75C184.394 139.388 184.469 139.203 184.469 139.203L184.289 139.129Z" fill="white"/>
<path d="M216.148 228.03L198.727 138.594L198.535 138.631L215.956 228.067L216.148 228.03Z" fill="white"/>
<path d="M195.13 139.088C195.13 139.093 195.168 142.696 195.987 146.308C196.397 148.115 197.002 149.924 197.903 151.29C198.801 152.655 200.011 153.584 201.609 153.583C201.861 153.583 202.121 153.56 202.392 153.513L202.358 153.32C202.098 153.366 201.849 153.388 201.609 153.388C200.093 153.387 198.948 152.517 198.066 151.182C196.745 149.182 196.055 146.154 195.701 143.629C195.524 142.368 195.43 141.231 195.38 140.41C195.33 139.59 195.325 139.088 195.325 139.086L195.13 139.089V139.088Z" fill="white"/>
<path d="M205.643 146.95C204.782 144.357 203.836 142.152 202.598 139.769L203.166 139.777C204.413 142.118 205.179 144.618 205.643 146.95Z" fill="#A2A0C8"/>
<path d="M206.221 156.407L202.38 153.514C202.383 153.514 202.387 153.513 202.39 153.512L202.357 153.32C202.291 153.332 202.226 153.342 202.162 153.35L201.505 152.855L198.945 139.714L202.598 139.769C203.837 142.152 204.783 144.357 205.644 146.951C206.665 152.087 206.221 156.407 206.221 156.407ZM201.271 152.68L197.246 149.649C196.443 147.808 195.972 145.569 195.7 143.629C195.523 142.367 195.429 141.231 195.379 140.41C195.361 140.116 195.349 139.863 195.341 139.659L198.745 139.711L201.271 152.68ZM196.935 149.415L184.227 139.845C184.239 139.812 184.251 139.78 184.262 139.75C184.298 139.65 184.33 139.565 184.358 139.492L195.145 139.656C195.191 140.811 195.362 143.557 195.986 146.308C196.228 147.373 196.538 148.439 196.935 149.415ZM184.064 139.722L183.746 139.483L184.15 139.489C184.125 139.557 184.096 139.635 184.064 139.722Z" fill="#0F1116"/>
<path d="M184.228 139.846L184.064 139.723C184.096 139.636 184.125 139.558 184.151 139.49L184.358 139.493C184.331 139.566 184.299 139.651 184.263 139.751C184.251 139.781 184.24 139.813 184.228 139.846Z" fill="#C0C1BF"/>
<path d="M201.505 152.855L201.271 152.68L198.745 139.711L198.945 139.714L201.505 152.855Z" fill="#C0C1BF"/>
<path d="M202.38 153.515L202.162 153.35C202.226 153.342 202.291 153.332 202.357 153.32L202.39 153.513C202.387 153.513 202.384 153.514 202.38 153.515ZM197.246 149.649L196.935 149.415C196.538 148.439 196.228 147.373 195.986 146.308C195.362 143.557 195.191 140.811 195.146 139.656L195.341 139.659C195.349 139.863 195.362 140.116 195.379 140.41C195.429 141.231 195.523 142.368 195.7 143.629C195.972 145.57 196.443 147.808 197.246 149.649Z" fill="#C0C1BF"/>
<path d="M180.722 154.226C180.993 154.274 181.253 154.297 181.502 154.297C182.677 154.298 183.605 153.78 184.316 152.952C186.445 150.465 186.758 145.208 186.761 142.166C186.761 140.793 186.695 139.874 186.695 139.872L186.5 139.887C186.5 139.887 186.517 140.114 186.533 140.513C186.55 140.912 186.566 141.483 186.566 142.166C186.566 144.183 186.42 147.185 185.707 149.672C185.351 150.916 184.852 152.028 184.167 152.824C183.481 153.62 182.618 154.101 181.502 154.102C181.265 154.102 181.017 154.08 180.756 154.034L180.722 154.226Z" fill="white"/>
<path d="M159.455 128.513C159.455 128.513 180.363 142.431 182.733 138.948C182.733 138.948 185.453 134.952 179.597 124.992C179.207 123.958 178.932 123.242 178.908 123.066C178.908 123.066 185.157 114.707 186.069 111.879C186.169 111.569 186.576 110.909 186.493 110.919C180.715 111.578 180.657 124.989 175.125 129.843C174.915 130.027 161.397 124.081 161.397 124.081C161.397 124.081 153.496 119.077 153.278 119.614C152.961 120.393 156.175 122.74 156.175 122.74C156.175 122.74 156.175 123.146 155.841 123.474C155.508 123.802 155.385 124.152 155.452 124.737C155.518 125.32 155.101 125.831 155.129 126.177C155.157 126.521 158.022 128.12 159.455 128.513Z" fill="#CD523D"/>
<path d="M161.202 124.103C161.202 124.103 159 121.478 158.588 121.734C158.176 121.99 156.536 123.569 156.864 124.308C157.192 125.048 158.65 123.791 158.65 123.791C158.65 123.791 158.972 125.599 159.901 125.504C160.829 125.41 161.202 124.103 161.202 124.103Z" fill="#CD523D"/>
<path d="M158.11 123.841C158.11 123.841 158.438 124.581 157.865 124.948C157.865 124.948 158.033 125.798 157.164 125.921C157.164 125.921 157.521 126.193 157.064 126.466C157.064 126.466 160.006 127.951 158.11 123.841Z" fill="#8E271D"/>
<path d="M157.969 122.232C157.693 122.626 157.406 123.005 157.104 123.37C156.969 123.558 156.774 123.731 156.675 123.905C156.567 124.101 156.575 124.21 156.712 124.262C157.062 124.408 157.547 124.289 157.978 124.148C158.09 124.131 158.186 124.034 158.409 124.093C158.526 124.142 158.556 124.27 158.559 124.325L158.578 124.504L158.619 125.221L158.6 125.225L158.476 124.522C158.444 124.414 158.465 124.261 158.362 124.212C158.254 124.18 158.142 124.256 158.032 124.291C157.595 124.456 157.101 124.609 156.631 124.442C156.517 124.395 156.421 124.284 156.414 124.156C156.406 124.029 156.46 123.912 156.522 123.81C156.654 123.606 156.834 123.449 156.989 123.269L157.955 122.218L157.969 122.232Z" fill="#8E271D"/>
<path d="M156.101 122.659C156.208 122.641 156.307 122.638 156.396 122.654C156.487 122.667 156.566 122.704 156.65 122.729C156.723 122.777 156.803 122.812 156.869 122.873C156.938 122.929 156.997 123.005 157.048 123.096L157.039 123.113C156.718 122.978 156.403 122.832 156.092 122.677L156.101 122.659Z" fill="#8E271D"/>
<path d="M155.618 124.12C155.866 124.186 156.106 124.253 156.34 124.328C156.576 124.399 156.804 124.484 157.04 124.544C157.266 124.627 157.513 124.691 157.732 124.757C157.841 124.788 157.949 124.803 158.049 124.782C158.154 124.77 158.267 124.719 158.327 124.608L158.346 124.614C158.266 124.878 157.949 124.953 157.711 124.908C157.463 124.867 157.222 124.802 156.982 124.732C156.505 124.581 156.045 124.381 155.609 124.138L155.618 124.12Z" fill="#8E271D"/>
<path d="M157.912 124.932C158.011 125.195 158.13 125.527 157.911 125.853C157.808 126.013 157.61 126.09 157.442 126.11C157.269 126.131 157.107 126.107 156.954 126.071C156.653 125.971 156.393 125.836 156.145 125.682C155.897 125.53 155.664 125.351 155.447 125.151L155.457 125.134C155.706 125.279 155.958 125.416 156.215 125.546C156.472 125.673 156.73 125.805 157.006 125.881C157.269 125.956 157.603 125.981 157.793 125.755C157.978 125.53 157.936 125.21 157.892 124.936L157.912 124.932Z" fill="#8E271D"/>
<path d="M157.167 125.767C157.267 125.924 157.332 126.107 157.34 126.298C157.344 126.395 157.351 126.495 157.307 126.613C157.239 126.758 157.129 126.814 157.043 126.866C156.86 126.982 156.624 126.961 156.467 126.961C156.384 126.95 156.289 126.948 156.181 126.919C156.075 126.884 156.005 126.807 155.941 126.741L155.95 126.724C156.104 126.82 156.279 126.822 156.455 126.795C156.632 126.788 156.805 126.77 156.963 126.698C157.039 126.66 157.122 126.618 157.155 126.542C157.19 126.465 157.202 126.377 157.208 126.29C157.216 126.118 157.205 125.938 157.149 125.774L157.167 125.767Z" fill="#8E271D"/>
<path d="M186.56 110.104C186.56 110.104 183.729 110.524 181.809 114.237C180.285 117.181 174.504 129.45 174.504 129.45L163.056 124.541L162.018 131.695C162.018 131.695 179.671 142.33 182.711 139.972C185.751 137.615 188.025 113.89 186.56 110.104Z" fill="white"/>
<path d="M187.077 109.901C187.236 110.286 180.564 123.579 180.753 127.359C180.944 131.167 183.545 137.574 183.342 138.147C183.342 138.147 186.297 140.477 202.596 137.911C207.606 133.528 203.204 118.628 201.521 113.91C201.521 113.91 197.085 113.275 195.202 110.984C195.202 110.984 187.958 116.605 187.077 109.901Z" fill="white"/>
<path d="M201.675 138.053C201.977 138.007 202.283 137.96 202.595 137.911C202.283 137.96 201.977 138.007 201.675 138.053Z" fill="#CBC8E9"/>
<path d="M189.821 139.116C189.503 139.116 189.199 139.113 188.91 139.106C189.198 139.112 189.499 139.116 189.816 139.116C192.548 139.116 196.37 138.854 201.676 138.053C196.372 138.853 192.551 139.116 189.821 139.116Z" fill="#4E5468"/>
<path d="M202.613 137.896C202.617 137.893 202.62 137.89 202.623 137.887C202.62 137.89 202.616 137.894 202.613 137.896ZM202.641 137.872C202.65 137.864 202.659 137.855 202.669 137.847C202.659 137.855 202.65 137.863 202.641 137.872ZM202.67 137.845C202.674 137.841 202.678 137.838 202.682 137.834C202.678 137.838 202.674 137.841 202.67 137.845ZM202.684 137.832C202.689 137.828 202.693 137.824 202.697 137.82C202.693 137.824 202.688 137.828 202.684 137.832ZM202.698 137.82C202.712 137.807 202.726 137.794 202.741 137.78C202.726 137.793 202.712 137.807 202.698 137.82ZM202.741 137.78C203.609 136.955 204.176 135.797 204.514 134.425C204.176 135.796 203.609 136.955 202.741 137.78ZM204.57 134.187C204.82 133.064 204.925 131.808 204.92 130.48C204.925 131.807 204.821 133.064 204.57 134.187Z" fill="#CBC8E9"/>
<path d="M189.815 139.116C189.498 139.116 189.196 139.112 188.909 139.106C187.154 139.065 185.922 138.909 185.07 138.735C191.111 131.897 197.114 125.029 202.783 117.884C203.815 121.495 204.898 126.319 204.918 130.459C204.918 130.46 204.918 130.463 204.918 130.464C204.918 130.47 204.918 130.475 204.918 130.48C204.923 131.808 204.819 133.064 204.568 134.187C204.55 134.267 204.532 134.346 204.512 134.425C204.175 135.797 203.607 136.955 202.739 137.78C202.725 137.794 202.71 137.807 202.696 137.82C202.696 137.82 202.696 137.82 202.695 137.82C202.691 137.824 202.687 137.828 202.682 137.832C202.682 137.833 202.681 137.833 202.681 137.834C202.676 137.838 202.673 137.841 202.669 137.845C202.668 137.846 202.668 137.846 202.667 137.847C202.658 137.855 202.648 137.864 202.639 137.872C202.638 137.872 202.637 137.873 202.636 137.874C202.633 137.877 202.63 137.88 202.626 137.884C202.625 137.885 202.623 137.886 202.622 137.887C202.618 137.89 202.615 137.893 202.612 137.896C202.61 137.897 202.609 137.898 202.608 137.899C202.604 137.903 202.599 137.907 202.595 137.911C202.283 137.96 201.976 138.007 201.675 138.053C196.368 138.854 192.547 139.116 189.815 139.116Z" fill="#E4E6F3"/>
<path d="M189.724 140.533L179.86 128.482L169.361 128.568L177.415 139.668L182.161 140.346C182.458 140.36 189.724 140.533 189.724 140.533Z" fill="#007E85"/>
<path d="M184.049 133.581L184.049 135.355L186.416 136.229L184.049 133.581Z" fill="#0D1422"/>
<path d="M194.21 142.94C186.036 141.205 181.032 139.26 180.098 138.937C179.565 138.753 178.018 138.029 178.023 137.797C178.036 137.265 181.157 138.665 181.039 138.536C180.921 138.407 177.202 137.167 177.201 136.739C177.201 136.094 181.324 137.55 181.394 137.571C182.464 137.894 177.396 136.331 177.288 135.889C177.181 135.446 179.542 135.999 179.625 136.018C179.625 136.018 181.619 136.61 181.693 136.474C181.768 136.338 177.788 133.951 178.206 133.696C178.624 133.441 181.673 134.872 182.393 135.147C183.113 135.422 184.214 135.522 184.49 135.355C184.723 135.214 184.485 134.049 184.008 133.598C184.008 133.598 185.818 134.403 186.662 135.358C187.105 135.861 187.537 136.555 187.537 136.555L194.372 137.888L194.21 142.94Z" fill="#CD523D"/>
<path d="M198.127 118.782C198.127 118.782 197.159 112.496 200.374 113.005C205.811 113.868 212.021 126.276 209.639 142.764C208.866 148.119 187.166 142.897 187.166 142.897L188.558 135.06L199.889 136.941L198.127 118.782Z" fill="white"/>
</svg>
