<svg width="18" height="18" viewBox="0 0 18 18" fill="none" xmlns="http://www.w3.org/2000/svg">
<path opacity="0.3" d="M2.09996 8.14625V12.4063C2.09601 12.9426 2.19823 13.4744 2.40074 13.9711C2.60325 14.4677 2.90205 14.9194 3.27992 15.3001C3.65778 15.6807 4.10724 15.9828 4.6024 16.189C5.09755 16.3951 5.62861 16.5013 6.16496 16.5013H11.835C12.3688 16.5013 12.8974 16.3961 13.3906 16.1918C13.8838 15.9875 14.3319 15.6881 14.7094 15.3106C15.0868 14.9332 15.3862 14.485 15.5905 13.9919C15.7948 13.4987 15.9 12.9701 15.9 12.4362V8.14625C15.9 7.98314 15.8352 7.82671 15.7198 7.71138C15.6045 7.59604 15.4481 7.53125 15.285 7.53125H2.71496C2.55186 7.53125 2.39543 7.59604 2.28009 7.71138C2.16476 7.82671 2.09996 7.98314 2.09996 8.14625Z" fill="#A1A1AA"/>
<path d="M15.6375 5.6632C15.6728 5.75646 15.6848 5.8569 15.6726 5.95585C15.6605 6.05481 15.6244 6.14932 15.5676 6.23124C15.5107 6.31317 15.4349 6.38004 15.3464 6.42612C15.258 6.47219 15.1597 6.49607 15.06 6.4957H3.06001C2.93968 6.49295 2.82179 6.46129 2.71628 6.40337C2.61077 6.34546 2.52075 6.26301 2.45382 6.16298C2.38689 6.06295 2.34501 5.94828 2.33173 5.82866C2.31845 5.70904 2.33415 5.58798 2.37751 5.4757C2.60265 4.93337 2.94241 4.44615 3.3735 4.04742C3.80458 3.6487 4.31679 3.34792 4.87501 3.1657V1.9882C4.88081 1.85688 4.93709 1.73287 5.03211 1.64204C5.12714 1.55121 5.25356 1.50058 5.38501 1.5007C5.52226 1.5007 5.65389 1.55523 5.75094 1.65228C5.84799 1.74933 5.90251 1.88095 5.90251 2.0182V3.0007C5.98501 3.0007 6.06001 3.0007 6.14251 3.0007H8.59501V1.9882C8.59501 1.85095 8.64953 1.71933 8.74658 1.62228C8.84363 1.52523 8.97526 1.4707 9.11251 1.4707C9.24976 1.4707 9.38139 1.52523 9.47844 1.62228C9.57549 1.71933 9.63001 1.85095 9.63001 1.9882V2.9482H11.805C11.8875 2.9482 11.9625 2.9482 12.045 2.9482V1.9882C12.0508 1.85688 12.1071 1.73287 12.2021 1.64204C12.2971 1.55121 12.4236 1.50058 12.555 1.5007C12.6923 1.5007 12.8239 1.55523 12.9209 1.65228C13.018 1.74933 13.0725 1.88095 13.0725 2.0182V3.1657C13.6623 3.3586 14.2001 3.68397 14.6448 4.11688C15.0894 4.54979 15.429 5.07874 15.6375 5.6632Z" fill="#A1A1AA"/>
<path d="M6.54734 10.9957C6.90357 10.9957 7.19234 10.7103 7.19234 10.3582C7.19234 10.0061 6.90357 9.7207 6.54734 9.7207C6.19112 9.7207 5.90234 10.0061 5.90234 10.3582C5.90234 10.7103 6.19112 10.9957 6.54734 10.9957Z" fill="#A1A1AA"/>
<path d="M8.95481 10.9957C9.31104 10.9957 9.59981 10.7103 9.59981 10.3582C9.59981 10.0061 9.31104 9.7207 8.95481 9.7207C8.59859 9.7207 8.30981 10.0061 8.30981 10.3582C8.30981 10.7103 8.59859 10.9957 8.95481 10.9957Z" fill="#A1A1AA"/>
<path d="M6.54002 13.3961C6.89624 13.3961 7.18502 13.1107 7.18502 12.7586C7.18502 12.4065 6.89624 12.1211 6.54002 12.1211C6.1838 12.1211 5.89502 12.4065 5.89502 12.7586C5.89502 13.1107 6.1838 13.3961 6.54002 13.3961Z" fill="#A1A1AA"/>
</svg>
