<svg width="20" height="21" viewBox="0 0 20 21" fill="none" xmlns="http://www.w3.org/2000/svg">
<path opacity="0.3" d="M17.5 18.834H2.49996C1.99996 18.834 1.66663 18.5007 1.66663 18.0007V4.66732C1.66663 4.16732 1.99996 3.83398 2.49996 3.83398H17.5C18 3.83398 18.3333 4.16732 18.3333 4.66732V18.0007C18.3333 18.5007 18 18.834 17.5 18.834Z" fill="white"/>
<path d="M4.99996 5.50033C4.49996 5.50033 4.16663 5.16699 4.16663 4.66699V3.00033C4.16663 2.50033 4.49996 2.16699 4.99996 2.16699C5.49996 2.16699 5.83329 2.50033 5.83329 3.00033V4.66699C5.83329 5.16699 5.49996 5.50033 4.99996 5.50033ZM9.16663 4.66699V3.00033C9.16663 2.50033 8.83329 2.16699 8.33329 2.16699C7.83329 2.16699 7.49996 2.50033 7.49996 3.00033V4.66699C7.49996 5.16699 7.83329 5.50033 8.33329 5.50033C8.83329 5.50033 9.16663 5.16699 9.16663 4.66699ZM12.5 4.66699V3.00033C12.5 2.50033 12.1666 2.16699 11.6666 2.16699C11.1666 2.16699 10.8333 2.50033 10.8333 3.00033V4.66699C10.8333 5.16699 11.1666 5.50033 11.6666 5.50033C12.1666 5.50033 12.5 5.16699 12.5 4.66699ZM15.8333 4.66699V3.00033C15.8333 2.50033 15.5 2.16699 15 2.16699C14.5 2.16699 14.1666 2.50033 14.1666 3.00033V4.66699C14.1666 5.16699 14.5 5.50033 15 5.50033C15.5 5.50033 15.8333 5.16699 15.8333 4.66699Z" fill="white"/>
<path d="M7.33337 11.4166C7.6667 11.4166 7.9167 11.3333 8.08337 11.1666C8.25003 11 8.4167 10.75 8.4167 10.4166C8.4167 10.1666 8.33337 9.91663 8.1667 9.74997C8.00003 9.5833 7.75003 9.49997 7.50003 9.49997C7.33337 9.49997 7.16669 9.49997 7.00002 9.5833C6.83336 9.66663 6.75003 9.74997 6.6667 9.8333C6.58337 9.91663 6.50003 9.99997 6.4167 10.1666C6.33337 10.3333 6.25003 10.4166 6.25003 10.5833C6.25003 10.6666 6.1667 10.6666 6.08337 10.75C6.00003 10.8333 5.91669 10.8333 5.75002 10.8333C5.58336 10.8333 5.50003 10.75 5.4167 10.6666C5.33337 10.5833 5.25003 10.4166 5.25003 10.25C5.25003 10.0833 5.33337 9.91663 5.4167 9.74997C5.50003 9.5833 5.6667 9.41663 5.83337 9.24997C6.00003 9.0833 6.25002 8.91663 6.58336 8.8333C6.91669 8.74999 7.16671 8.66666 7.58337 8.66666C7.91671 8.66666 8.16671 8.74999 8.4167 8.8333C8.6667 8.91663 8.9167 9.0833 9.08337 9.16663C9.25003 9.24997 9.4167 9.49997 9.50003 9.74997C9.58337 9.99997 9.6667 10.1666 9.6667 10.4166C9.6667 10.75 9.58337 11 9.4167 11.25C9.25003 11.5 9.08337 11.75 8.83337 11.9166C9.08337 12.0833 9.33337 12.25 9.50003 12.4166C9.6667 12.5833 9.83337 12.75 9.9167 13C10 13.25 10.0834 13.4166 10.0834 13.6666C10.0834 14 10 14.25 9.9167 14.5C9.83337 14.75 9.58337 15 9.4167 15.25C9.25003 15.5 8.9167 15.6666 8.58337 15.75C8.25003 15.8333 7.9167 15.9166 7.50003 15.9166C7.08337 15.9166 6.75003 15.8333 6.4167 15.6666C6.08337 15.5 5.83337 15.3333 5.6667 15.1666C5.50003 15 5.33337 14.75 5.25003 14.5C5.1667 14.25 5.08337 14.0833 5.08337 13.9166C5.08337 13.75 5.1667 13.5833 5.25003 13.5C5.33337 13.4166 5.50003 13.3333 5.6667 13.3333C5.75003 13.3333 5.83337 13.3333 5.91671 13.4166C6.00004 13.5 6.08337 13.5 6.08337 13.5833C6.25003 14 6.4167 14.3333 6.6667 14.5833C6.9167 14.8333 7.1667 14.9166 7.50003 14.9166C7.6667 14.9166 7.9167 14.8333 8.08337 14.75C8.25003 14.6666 8.4167 14.5 8.58337 14.3333C8.75003 14.1666 8.75003 13.9166 8.75003 13.6666C8.75003 13.25 8.6667 13 8.4167 12.75C8.16671 12.5 7.91671 12.4166 7.58337 12.4166C7.50004 12.4166 7.4167 12.4166 7.25003 12.4166C7.08337 12.4166 7.00002 12.4166 7.00002 12.4166C6.83336 12.4166 6.66669 12.3333 6.58336 12.25C6.50002 12.1666 6.4167 12 6.4167 11.9166C6.4167 11.75 6.50002 11.6666 6.58336 11.5C6.66669 11.3333 6.83337 11.3333 7.08337 11.3333H7.33337V11.4166ZM12.75 15.0833V10.6666C11.9167 11.3333 11.3334 11.5833 11.0834 11.5833C10.9167 11.5833 10.8334 11.5 10.75 11.4166C10.6667 11.3333 10.5834 11.1666 10.5834 11C10.5834 10.8333 10.6667 10.75 10.75 10.6666C10.8334 10.5833 11 10.5 11.3334 10.3333C11.75 10.1666 12.0834 9.91663 12.25 9.74997C12.4167 9.5833 12.6667 9.3333 12.9167 9.0833C13.1667 8.8333 13.25 8.66666 13.25 8.58332C13.25 8.49999 13.4167 8.5 13.5834 8.5C13.75 8.5 13.9167 8.58332 14 8.66666C14.0834 8.74999 14.1667 8.99997 14.1667 9.24997V14.8333C14.1667 15.5 13.9167 15.8333 13.5 15.8333C13.3334 15.8333 13.1667 15.75 13 15.6666C12.8334 15.5833 12.75 15.3333 12.75 15.0833Z" fill="white"/>
</svg>
