<svg width="29" height="28" viewBox="0 0 29 28" fill="none" xmlns="http://www.w3.org/2000/svg">
<g clip-path="url(#clip0_11095_5540)">
<path d="M15.6673 7H5.16732C3.87865 7 2.83398 8.04467 2.83398 9.33333V18.6667C2.83398 19.9553 3.87865 21 5.16732 21H15.6673C16.956 21 18.0007 19.9553 18.0007 18.6667V9.33333C18.0007 8.04467 16.956 7 15.6673 7Z" fill="white"/>
<path opacity="0.3" fill-rule="evenodd" clip-rule="evenodd" d="M26.1671 9.81608V18.1829C26.1671 18.8272 25.6448 19.3496 25.0005 19.3496C24.6911 19.3496 24.3943 19.2267 24.1755 19.0079L19.9921 14.8245C19.5365 14.3688 19.5365 13.6301 19.9921 13.1745L24.1755 8.99112C24.6311 8.53551 25.3698 8.53551 25.8254 8.99112C26.0442 9.20992 26.1671 9.50666 26.1671 9.81608Z" fill="white"/>
</g>
<defs>
<clipPath id="clip0_11095_5540">
<rect width="28" height="28" fill="white" transform="translate(0.5)"/>
</clipPath>
</defs>
</svg>
