<svg width="21" height="21" viewBox="0 0 21 21" fill="none" xmlns="http://www.w3.org/2000/svg">
<path d="M8.82113 3.25867C9.5243 1.89383 11.4757 1.89383 12.1789 3.25867C12.6014 4.07878 13.5546 4.47361 14.4333 4.19247C15.8956 3.7246 17.2754 5.10445 16.8075 6.56674C16.5264 7.44542 16.9212 8.39861 17.7413 8.82113C19.1062 9.5243 19.1062 11.4757 17.7413 12.1789C16.9212 12.6014 16.5264 13.5546 16.8075 14.4333C17.2754 15.8956 15.8956 17.2754 14.4333 16.8075C13.5546 16.5264 12.6014 16.9212 12.1789 17.7413C11.4757 19.1062 9.5243 19.1062 8.82113 17.7413C8.39861 16.9212 7.44542 16.5264 6.56674 16.8075C5.10445 17.2754 3.7246 15.8956 4.19247 14.4333C4.47361 13.5546 4.07878 12.6014 3.25867 12.1789C1.89383 11.4757 1.89383 9.5243 3.25867 8.82113C4.07878 8.39861 4.47361 7.44542 4.19247 6.56674C3.7246 5.10445 5.10445 3.7246 6.56674 4.19247C7.44542 4.47361 8.39861 4.07878 8.82113 3.25867Z" fill="#00BAC9"/>
<path d="M12.9997 8.04148C13.1786 7.83108 13.4554 7.82116 13.6658 8C13.8762 8.17884 13.8455 8.45626 13.6667 8.66667L10.3806 12.8238C10.199 13.0375 9.87711 13.06 9.66748 12.8737L7.41748 10.8737C7.21109 10.6902 7.1925 10.3742 7.37596 10.1678C7.55941 9.96142 7.87545 9.94283 8.08184 10.1263L9.94977 11.7867L12.9997 8.04148Z" fill="white"/>
</svg>
