<svg width="30" height="30" viewBox="0 0 30 30" fill="none" xmlns="http://www.w3.org/2000/svg">
<path opacity="0.25" fill-rule="evenodd" clip-rule="evenodd" d="M0.553489 6.81276C0.988687 3.51756 3.51757 0.988686 6.81276 0.553489C9.07812 0.254301 11.9119 0 15 0C18.0881 0 20.9219 0.254301 23.1872 0.553489C26.4824 0.988687 29.0113 3.51757 29.4465 6.81276C29.7457 9.07812 30 11.9119 30 15C30 18.0881 29.7457 20.9219 29.4465 23.1872C29.0113 26.4824 26.4824 29.0113 23.1872 29.4465C20.9219 29.7457 18.0881 30 15 30C11.9119 30 9.07812 29.7457 6.81276 29.4465C3.51756 29.0113 0.988686 26.4824 0.553489 23.1872C0.254301 20.9219 0 18.0881 0 15C0 11.9119 0.254301 9.07812 0.553489 6.81276Z" fill="#B5B5C3"/>
<path fill-rule="evenodd" clip-rule="evenodd" d="M9.43934 9.43934C10.0251 8.85355 10.9749 8.85355 11.5607 9.43934L15 12.8787L18.4393 9.43934C19.0251 8.85355 19.9749 8.85355 20.5607 9.43934C21.1464 10.0251 21.1464 10.9749 20.5607 11.5607L17.1213 15L20.5607 18.4393C21.1464 19.0251 21.1464 19.9749 20.5607 20.5607C19.9749 21.1464 19.0251 21.1464 18.4393 20.5607L15 17.1213L11.5607 20.5607C10.9749 21.1464 10.0251 21.1464 9.43934 20.5607C8.85355 19.9749 8.85355 19.0251 9.43934 18.4393L12.8787 15L9.43934 11.5607C8.85355 10.9749 8.85355 10.0251 9.43934 9.43934Z" fill="#B5B5C3"/>
</svg>
