<svg width="26" height="26" viewBox="0 0 26 26" fill="none" xmlns="http://www.w3.org/2000/svg">
<path opacity="0.3" d="M17.5385 23.8332H8.46018C6.79087 23.8332 5.18992 23.17 4.00953 21.9897C2.82915 20.8093 2.16602 19.2083 2.16602 17.539V8.46067C2.16602 6.79135 2.82915 5.19041 4.00953 4.01002C5.18992 2.82964 6.79087 2.1665 8.46018 2.1665H17.5385C19.2078 2.1665 20.8088 2.82964 21.9892 4.01002C23.1695 5.19041 23.8327 6.79135 23.8327 8.46067V17.539C23.8327 19.2083 23.1695 20.8093 21.9892 21.9897C20.8088 23.17 19.2078 23.8332 17.5385 23.8332ZM19.4993 12.9998C19.4993 12.7125 19.3852 12.437 19.182 12.2338C18.9789 12.0306 18.7033 11.9165 18.416 11.9165H7.58268C7.29536 11.9165 7.01981 12.0306 6.81665 12.2338C6.61349 12.437 6.49935 12.7125 6.49935 12.9998C6.49935 13.2872 6.61349 13.5627 6.81665 13.7659C7.01981 13.969 7.29536 14.0832 7.58268 14.0832H18.416C18.7033 14.0832 18.9789 13.969 19.182 13.7659C19.3852 13.5627 19.4993 13.2872 19.4993 12.9998Z" fill="#00BAC9"/>
<path d="M18.5021 14.0832H7.49544C7.20812 14.0832 6.93257 13.969 6.72941 13.7659C6.52625 13.5627 6.41211 13.2872 6.41211 12.9998C6.41211 12.7125 6.52625 12.437 6.72941 12.2338C6.93257 12.0306 7.20812 11.9165 7.49544 11.9165H18.5021C18.7894 11.9165 19.065 12.0306 19.2681 12.2338C19.4713 12.437 19.5854 12.7125 19.5854 12.9998C19.5854 13.2872 19.4713 13.5627 19.2681 13.7659C19.065 13.969 18.7894 14.0832 18.5021 14.0832Z" fill="#00BAC9"/>
</svg>
