<svg width="22" height="22" viewBox="0 0 22 22" fill="none" xmlns="http://www.w3.org/2000/svg">
<path opacity="0.3" d="M9.91667 12.0832H5.58333C5.29602 12.0832 5.02047 11.969 4.8173 11.7659C4.61414 11.5627 4.5 11.2872 4.5 10.9998C4.5 10.7125 4.61414 10.437 4.8173 10.2338C5.02047 10.0306 5.29602 9.9165 5.58333 9.9165H9.91667V12.0832ZM16.4167 9.9165H12.0833V12.0832H16.4167C16.704 12.0832 16.9795 11.969 17.1827 11.7659C17.3859 11.5627 17.5 11.2872 17.5 10.9998C17.5 10.7125 17.3859 10.437 17.1827 10.2338C16.9795 10.0306 16.704 9.9165 16.4167 9.9165Z" fill="#71717A"/>
<path opacity="0.3" d="M15.5385 0.166504H6.46018C2.98401 0.166504 0.166016 2.9845 0.166016 6.46067V15.539C0.166016 19.0152 2.98401 21.8332 6.46018 21.8332H15.5385C19.0147 21.8332 21.8327 19.0152 21.8327 15.539V6.46067C21.8327 2.9845 19.0147 0.166504 15.5385 0.166504Z" fill="#71717A"/>
<path d="M16.4167 9.91667H12.0833V5.58333C12.0833 5.29602 11.9692 5.02047 11.766 4.8173C11.5629 4.61414 11.2873 4.5 11 4.5C10.7127 4.5 10.4371 4.61414 10.234 4.8173C10.0308 5.02047 9.91667 5.29602 9.91667 5.58333V9.91667H5.58333C5.29602 9.91667 5.02047 10.0308 4.8173 10.234C4.61414 10.4371 4.5 10.7127 4.5 11C4.5 11.2873 4.61414 11.5629 4.8173 11.766C5.02047 11.9692 5.29602 12.0833 5.58333 12.0833H9.91667V16.4167C9.91667 16.704 10.0308 16.9795 10.234 17.1827C10.4371 17.3859 10.7127 17.5 11 17.5C11.2873 17.5 11.5629 17.3859 11.766 17.1827C11.9692 16.9795 12.0833 16.704 12.0833 16.4167V12.0833H16.4167C16.704 12.0833 16.9795 11.9692 17.1827 11.766C17.3859 11.5629 17.5 11.2873 17.5 11C17.5 10.7127 17.3859 10.4371 17.1827 10.234C16.9795 10.0308 16.704 9.91667 16.4167 9.91667Z" fill="#71717A"/>
</svg>
