<svg width="28" height="28" viewBox="0 0 28 28" fill="none" xmlns="http://www.w3.org/2000/svg">
<path d="M14.0001 22.0966C13.7684 22.098 13.5415 22.0303 13.3484 21.9022C13.1553 21.7741 13.0047 21.5914 12.9158 21.3774C12.827 21.1633 12.8039 20.9277 12.8495 20.7005C12.895 20.4733 13.0072 20.2648 13.1718 20.1016L19.2734 14L13.1718 7.8983C12.9545 7.67971 12.8325 7.38402 12.8325 7.0758C12.8325 6.76758 12.9545 6.47189 13.1718 6.2533C13.2802 6.14395 13.4093 6.05716 13.5514 5.99793C13.6936 5.9387 13.8461 5.9082 14.0001 5.9082C14.1541 5.9082 14.3066 5.9387 14.4488 5.99793C14.591 6.05716 14.72 6.14395 14.8284 6.2533L21.7468 13.1716C21.857 13.2797 21.9447 13.4085 22.0048 13.5507C22.0649 13.6929 22.0961 13.8456 22.0968 14C22.0961 14.1543 22.0649 14.307 22.0048 14.4492C21.9447 14.5914 21.857 14.7203 21.7468 14.8283L14.8284 21.7466C14.7204 21.8569 14.5915 21.9446 14.4494 22.0047C14.3072 22.0647 14.1545 22.096 14.0001 22.0966Z" fill="#00BAC9"/>
<path opacity="0.3" d="M20.93 15.1668H7.06999C6.76057 15.1668 6.46382 15.0439 6.24503 14.8251C6.02624 14.6063 5.90332 14.3096 5.90332 14.0002C5.90332 13.6907 6.02624 13.394 6.24503 13.1752C6.46382 12.9564 6.76057 12.8335 7.06999 12.8335H20.93C21.2394 12.8335 21.5362 12.9564 21.7549 13.1752C21.9737 13.394 22.0967 13.6907 22.0967 14.0002C22.0967 14.3096 21.9737 14.6063 21.7549 14.8251C21.5362 15.0439 21.2394 15.1668 20.93 15.1668Z" fill="#00BAC9"/>
</svg>
