<svg width="28" height="28" viewBox="0 0 28 28" fill="none" xmlns="http://www.w3.org/2000/svg">
<path opacity="0.3" d="M3.2658 12.6705V19.2972C3.25964 20.1315 3.41865 20.9588 3.73367 21.7314C4.04869 22.5039 4.51349 23.2065 5.10128 23.7987C5.68907 24.3908 6.38823 24.8607 7.15847 25.1814C7.92871 25.5021 8.7548 25.6672 9.58913 25.6672H18.4091C19.2395 25.6672 20.0618 25.5036 20.829 25.1859C21.5961 24.8681 22.2932 24.4023 22.8804 23.8151C23.4676 23.228 23.9334 22.5309 24.2511 21.7637C24.5689 20.9965 24.7325 20.1743 24.7325 19.3439V12.6705C24.7325 12.4168 24.6317 12.1735 24.4523 11.9941C24.2729 11.8147 24.0295 11.7139 23.7758 11.7139H4.22246C3.96874 11.7139 3.72541 11.8147 3.546 11.9941C3.36659 12.1735 3.2658 12.4168 3.2658 12.6705Z" fill="#00BAC9"/>
<path d="M24.3241 8.80878C24.379 8.95385 24.3978 9.11008 24.3788 9.26401C24.3599 9.41794 24.3038 9.56496 24.2154 9.6924C24.127 9.81983 24.0089 9.92386 23.8714 9.99553C23.7338 10.0672 23.5809 10.1043 23.4258 10.1038H4.75915C4.57197 10.0995 4.38858 10.0502 4.22446 9.96015C4.06033 9.87007 3.9203 9.74181 3.81618 9.58621C3.71206 9.43061 3.64693 9.25223 3.62627 9.06615C3.60561 8.88008 3.63003 8.69176 3.69748 8.51711C4.0477 7.67349 4.57622 6.91557 5.2468 6.29534C5.91737 5.67511 6.71414 5.20723 7.58248 4.92378V3.09211C7.5915 2.88783 7.67905 2.69492 7.82686 2.55363C7.97468 2.41234 8.17133 2.33358 8.37581 2.33378C8.58931 2.33378 8.79407 2.41859 8.94503 2.56955C9.096 2.72052 9.18081 2.92528 9.18081 3.13878V4.66711C9.30915 4.66711 9.42581 4.66711 9.55415 4.66711H13.3691V3.09211C13.3691 2.87861 13.454 2.67386 13.6049 2.52289C13.7559 2.37192 13.9606 2.28711 14.1741 2.28711C14.3876 2.28711 14.5924 2.37192 14.7434 2.52289C14.8943 2.67386 14.9791 2.87861 14.9791 3.09211V4.58544H18.3625C18.4908 4.58544 18.6075 4.58544 18.7358 4.58544V3.09211C18.7448 2.88783 18.8324 2.69492 18.9802 2.55363C19.128 2.41234 19.3247 2.33358 19.5291 2.33378C19.7426 2.33378 19.9474 2.41859 20.0984 2.56955C20.2493 2.72052 20.3341 2.92528 20.3341 3.13878V4.92378C21.2516 5.22383 22.0882 5.72996 22.7799 6.40338C23.4715 7.07679 23.9997 7.89961 24.3241 8.80878Z" fill="#00BAC9"/>
<path d="M10.185 17.1034C10.7391 17.1034 11.1883 16.6595 11.1883 16.1118C11.1883 15.5641 10.7391 15.1201 10.185 15.1201C9.63085 15.1201 9.18164 15.5641 9.18164 16.1118C9.18164 16.6595 9.63085 17.1034 10.185 17.1034Z" fill="#00BAC9"/>
<path d="M13.9291 17.1034C14.4832 17.1034 14.9324 16.6595 14.9324 16.1118C14.9324 15.5641 14.4832 15.1201 13.9291 15.1201C13.375 15.1201 12.9258 15.5641 12.9258 16.1118C12.9258 16.6595 13.375 17.1034 13.9291 17.1034Z" fill="#00BAC9"/>
<path d="M10.1733 20.8369C10.7274 20.8369 11.1766 20.3929 11.1766 19.8452C11.1766 19.2975 10.7274 18.8535 10.1733 18.8535C9.61913 18.8535 9.16992 19.2975 9.16992 19.8452C9.16992 20.3929 9.61913 20.8369 10.1733 20.8369Z" fill="#00BAC9"/>
</svg>
