<svg width="24" height="23" viewBox="0 0 24 23" fill="none" xmlns="http://www.w3.org/2000/svg">
<path d="M11.2168 1.41051C11.4633 0.651785 12.5367 0.651786 12.7832 1.41051L14.9583 8.10472C15.0686 8.44403 15.3848 8.67376 15.7415 8.67376H22.7802C23.578 8.67376 23.9097 9.69462 23.2643 10.1635L17.5699 14.3008C17.2812 14.5105 17.1604 14.8822 17.2707 15.2215L19.4458 21.9157C19.6923 22.6745 18.8239 23.3054 18.1785 22.8365L12.4841 18.6992C12.1954 18.4895 11.8046 18.4895 11.5159 18.6992L5.82151 22.8365C5.1761 23.3054 4.3077 22.6745 4.55423 21.9157L6.72931 15.2215C6.83956 14.8822 6.71878 14.5105 6.43014 14.3008L0.735712 10.1635C0.0903008 9.69462 0.421999 8.67376 1.21977 8.67376H8.25847C8.61525 8.67376 8.93145 8.44403 9.0417 8.10472L11.2168 1.41051Z" fill="#00BAC9"/>
</svg>
