<svg width="30" height="31" viewBox="0 0 30 31" fill="none" xmlns="http://www.w3.org/2000/svg">
<g clip-path="url(#clip0_10478_9237)">
<path d="M7.5 0.5C6.46875 0.5 5.625 1.34375 5.625 2.375V28.625C5.625 29.6562 6.46875 30.5 7.5 30.5H26.25C27.2812 30.5 28.125 29.6562 28.125 28.625V8L20.625 0.5H7.5Z" fill="#E2E5E7"/>
<path d="M22.5 8H28.125L20.625 0.5V6.125C20.625 7.15625 21.4688 8 22.5 8Z" fill="#B0B7BD"/>
<path d="M28.125 13.625L22.5 8H28.125V13.625Z" fill="#CAD1D8"/>
<path d="M24.375 24.875C24.375 25.3906 23.9531 25.8125 23.4375 25.8125H2.8125C2.29688 25.8125 1.875 25.3906 1.875 24.875V15.5C1.875 14.9844 2.29688 14.5625 2.8125 14.5625H23.4375C23.9531 14.5625 24.375 14.9844 24.375 15.5V24.875Z" fill="#50BEE8"/>
<path d="M5.42448 23.0002C5.17698 23.0002 4.90698 22.8642 4.90698 22.5352V18.278C4.90698 18.008 5.17698 17.813 5.42448 17.813H7.14104C10.5667 17.813 10.4907 23.0002 7.20761 23.0002H5.42448ZM5.89698 18.7271V22.0852H7.14104C9.16511 22.0852 9.25417 18.7271 7.14104 18.7271H5.89698Z" fill="white"/>
<path d="M13.3595 23.0752C11.973 23.1352 10.533 22.2127 10.533 20.3761C10.533 18.5321 11.972 17.6255 13.3595 17.6255C14.6711 17.6921 16.0426 18.5996 16.0426 20.3761C16.0426 22.1536 14.6711 23.0752 13.3595 23.0752ZM13.277 18.6005C12.437 18.6005 11.523 19.193 11.523 20.377C11.523 21.5545 12.438 22.1545 13.277 22.1545C14.1395 22.1545 15.0611 21.5545 15.0611 20.377C15.0611 19.192 14.1395 18.6005 13.277 18.6005Z" fill="white"/>
<path d="M16.9246 20.3688C16.9246 18.9223 17.8321 17.6782 19.5561 17.6782C20.2086 17.6782 20.7261 17.8732 21.2727 18.3457C21.4752 18.5323 21.4977 18.8623 21.2952 19.0723C21.0927 19.2513 20.7852 19.2298 20.6052 19.0498C20.2986 18.7273 19.9836 18.6382 19.5561 18.6382C18.4021 18.6382 17.848 19.4557 17.848 20.3698C17.848 21.2998 18.3946 22.1538 19.5561 22.1538C19.9836 22.1538 20.3811 21.9804 20.7261 21.6738C20.9577 21.4938 21.2802 21.5829 21.4152 21.7638C21.5352 21.9288 21.5943 22.2063 21.3327 22.4679C20.8077 22.9563 20.1786 23.0538 19.5552 23.0538C17.7421 23.0538 16.9246 21.8154 16.9246 20.3688Z" fill="white"/>
<path d="M23.4375 25.8125H5.625V26.75H23.4375C23.9531 26.75 24.375 26.3281 24.375 25.8125V24.875C24.375 25.3906 23.9531 25.8125 23.4375 25.8125Z" fill="#CAD1D8"/>
</g>
<defs>
<clipPath id="clip0_10478_9237">
<rect width="30" height="30" fill="white" transform="translate(0 0.5)"/>
</clipPath>
</defs>
</svg>
