<svg width="14" height="14" viewBox="0 0 14 14" fill="none" xmlns="http://www.w3.org/2000/svg">
<path opacity="0.25" fill-rule="evenodd" clip-rule="evenodd" d="M6.99999 2.33317C4.42266 2.33317 2.33332 4.42251 2.33332 6.99984C2.33332 9.57717 4.42266 11.6665 6.99999 11.6665C7.74607 11.6665 8.44969 11.4919 9.07372 11.1817C9.36222 11.0384 9.71233 11.156 9.85571 11.4445C9.99908 11.733 9.88143 12.0831 9.59293 12.2265C8.81117 12.615 7.93022 12.8332 6.99999 12.8332C3.77833 12.8332 1.16666 10.2215 1.16666 6.99984C1.16666 3.77818 3.77833 1.1665 6.99999 1.1665C10.2217 1.1665 12.8333 3.77818 12.8333 6.99984V7.00504C12.8334 7.16389 12.8335 7.82321 12.6211 8.46035C12.5127 8.78549 12.3359 9.1465 12.0378 9.43135C11.7258 9.72947 11.3086 9.9165 10.7917 9.9165C10.4695 9.9165 10.2083 9.65534 10.2083 9.33317C10.2083 9.011 10.4695 8.74984 10.7917 8.74984C11.0039 8.74984 11.1336 8.68167 11.2318 8.58786C11.3438 8.48078 11.4404 8.31314 11.5143 8.09141C11.6641 7.64201 11.6667 7.14238 11.6667 6.99984C11.6667 4.42251 9.57732 2.33317 6.99999 2.33317Z" fill="#A1A1AA"/>
<path fill-rule="evenodd" clip-rule="evenodd" d="M8.75001 7.00016C8.75001 7.96666 7.96651 8.75016 7.00001 8.75016C6.03351 8.75016 5.25001 7.96666 5.25001 7.00016C5.25001 6.03366 6.03351 5.25016 7.00001 5.25016C7.96651 5.25016 8.75001 6.03366 8.75001 7.00016ZM9.18783 8.92905C8.65338 9.53477 7.87131 9.91683 7.00001 9.91683C5.38918 9.91683 4.08334 8.61099 4.08334 7.00016C4.08334 5.38933 5.38918 4.0835 7.00001 4.0835C7.65662 4.0835 8.26255 4.30047 8.75001 4.66662C8.75013 4.34455 9.01125 4.0835 9.33335 4.0835C9.65551 4.0835 9.91668 4.34466 9.91668 4.66683C9.91668 6.15614 9.92029 7.24227 10.0845 7.96463C10.1648 8.31798 10.2685 8.50737 10.3656 8.60656C10.4428 8.68554 10.5562 8.75016 10.7917 8.75016C11.1138 8.75016 11.375 9.01133 11.375 9.3335C11.375 9.65566 11.1138 9.91683 10.7917 9.91683C10.298 9.91683 9.86449 9.7627 9.5316 9.42241C9.39001 9.27768 9.27776 9.11039 9.18783 8.92905Z" fill="#A1A1AA"/>
</svg>
