<svg width="16" height="17" viewBox="0 0 16 17" fill="none" xmlns="http://www.w3.org/2000/svg">
<path fill-rule="evenodd" clip-rule="evenodd" d="M0 8.5C0 12.9183 3.58172 16.5 8 16.5V0.5C3.58172 0.5 0 4.08172 0 8.5Z" fill="#78A5DA"/>
<path d="M8 16.5C12.4183 16.5 16 12.9183 16 8.5C16 4.08172 12.4183 0.5 8 0.5V16.5Z" fill="#9AC3F3"/>
<path d="M4.6543 11.2162C6.11618 9.12233 10.3566 9.11116 11.3449 11.2162" stroke="white" stroke-miterlimit="22.9256" stroke-linecap="round" stroke-linejoin="round"/>
<path fill-rule="evenodd" clip-rule="evenodd" d="M5.36637 7.54849C5.93989 7.54849 6.4077 7.08067 6.4077 6.50715C6.4077 5.93364 5.93989 5.46582 5.36637 5.46582C4.79301 5.46582 4.3252 5.93364 4.3252 6.50715C4.3252 7.08067 4.79301 7.54849 5.36637 7.54849Z" fill="white"/>
<path fill-rule="evenodd" clip-rule="evenodd" d="M10.6331 7.54849C11.2066 7.54849 11.6743 7.08067 11.6743 6.50715C11.6743 5.93364 11.2066 5.46582 10.6331 5.46582C10.0596 5.46582 9.5918 5.93364 9.5918 6.50715C9.5918 7.08067 10.0596 7.54849 10.6331 7.54849Z" fill="white"/>
</svg>
