<svg width="16" height="16" viewBox="0 0 16 16" fill="none" xmlns="http://www.w3.org/2000/svg">
<path fill-rule="evenodd" clip-rule="evenodd" d="M0 8C0 12.4183 3.58172 16 8 16L8 0C3.58172 0 0 3.58172 0 8Z" fill="#82C79C"/>
<path d="M8 16C12.4183 16 16 12.4183 16 8C16 3.58172 12.4183 0 8 0L8 16Z" fill="#99D7B1"/>
<path d="M4.81152 9.42188C5.38328 10.7017 6.68979 11.3281 8 11.3147C9.29177 11.3015 10.5871 10.6663 11.1855 9.42188" stroke="white" stroke-miterlimit="22.9256" stroke-linecap="round" stroke-linejoin="round"/>
<path fill-rule="evenodd" clip-rule="evenodd" d="M5.36547 7.04442C5.93895 7.04442 6.40657 6.57664 6.40657 6.00317C6.40657 5.42969 5.93879 4.96191 5.36547 4.96191C4.792 4.96191 4.32422 5.42969 4.32422 6.00317C4.32422 6.57664 4.792 7.04442 5.36547 7.04442Z" fill="white"/>
<path fill-rule="evenodd" clip-rule="evenodd" d="M10.6311 7.04442C11.2044 7.04442 11.6722 6.57664 11.6722 6.00317C11.6722 5.42969 11.2044 4.96191 10.6311 4.96191C10.0576 4.96191 9.58984 5.42969 9.58984 6.00317C9.59001 6.57664 10.0576 7.04442 10.6311 7.04442Z" fill="white"/>
</svg>
