<svg width="16" height="17" viewBox="0 0 16 17" fill="none" xmlns="http://www.w3.org/2000/svg">
<path fill-rule="evenodd" clip-rule="evenodd" d="M8.00008 16.5V0.5C3.59383 0.5 0 4.09366 0 8.50008C0 12.9063 3.59367 16.5 8.00008 16.5Z" fill="#E8BF6C"/>
<path d="M8.00008 16.5C12.4063 16.5 16.0002 12.9063 16.0002 8.50008C16.0002 4.09366 12.4063 0.5 8.00008 0.5V16.5Z" fill="#E4CB99"/>
<path fill-rule="evenodd" clip-rule="evenodd" d="M5.36732 7.54452C5.94082 7.54452 6.40863 7.07656 6.40863 6.50322C6.40863 5.92971 5.94082 5.46191 5.36732 5.46191C4.79398 5.46191 4.32617 5.92971 4.32617 6.50322C4.32617 7.07656 4.79398 7.54452 5.36732 7.54452Z" fill="white"/>
<path fill-rule="evenodd" clip-rule="evenodd" d="M10.6341 7.54452C11.2076 7.54452 11.6752 7.07656 11.6752 6.50322C11.6752 5.92971 11.2076 5.46191 10.6341 5.46191C10.0606 5.46191 9.59277 5.92971 9.59277 6.50322C9.59277 7.07656 10.0606 7.54452 10.6341 7.54452Z" fill="white"/>
<path fill-rule="evenodd" clip-rule="evenodd" d="M10.4507 13.2306C9.47271 12.5372 6.33891 12.7499 5.54883 13.2306C6.49997 9.28247 9.61726 9.43431 10.4507 13.2306Z" fill="white"/>
<path d="M9.49609 3.25599C10.7664 3.24563 11.81 3.85458 12.2422 4.65324" stroke="white" stroke-miterlimit="22.9256" stroke-linecap="round" stroke-linejoin="round"/>
<path d="M6.46682 2.28529C5.19647 2.27493 4.1529 2.88388 3.7207 3.68255" stroke="white" stroke-miterlimit="22.9256" stroke-linecap="round" stroke-linejoin="round"/>
</svg>
