<svg width="58" height="56" viewBox="0 0 58 56" fill="none" xmlns="http://www.w3.org/2000/svg">
<path opacity="0.3" d="M32.025 21.0001C31.9704 19.7746 31.4354 18.6199 30.5358 17.7858C29.6363 16.9518 28.4445 16.5055 27.2183 16.5435H22.1667C20.9326 16.4929 19.7288 16.9335 18.8191 17.7689C17.9093 18.6043 17.3679 19.7662 17.3133 21.0001V35.0001C17.3649 36.2361 17.905 37.401 18.8151 38.2389C19.7252 39.0768 20.9307 39.519 22.1667 39.4685H27.265C28.4851 39.494 29.6667 39.0405 30.5564 38.2053C31.4462 37.37 31.9734 36.2194 32.025 35.0001V21.0001Z" fill="#A1A1AA"/>
<path d="M24.1383 27.1252H35.7L33.8333 25.2119C33.6695 25.0478 33.5774 24.8254 33.5774 24.5935C33.5774 24.3616 33.6695 24.1392 33.8333 23.9752C33.9138 23.8926 34.0099 23.827 34.1161 23.7822C34.2223 23.7374 34.3364 23.7144 34.4517 23.7144C34.5669 23.7144 34.681 23.7374 34.7872 23.7822C34.8934 23.827 34.9896 23.8926 35.07 23.9752L38.4883 27.3819C38.6522 27.5459 38.7442 27.7683 38.7442 28.0002C38.7442 28.2321 38.6522 28.4545 38.4883 28.6185L35 32.0252C34.9196 32.1075 34.8234 32.1727 34.7171 32.2168C34.6108 32.2609 34.4967 32.2831 34.3817 32.2819C34.2667 32.2824 34.1528 32.26 34.0466 32.2159C33.9404 32.1718 33.8441 32.107 33.7633 32.0252C33.5995 31.8611 33.5074 31.6387 33.5074 31.4069C33.5074 31.175 33.5995 30.9526 33.7633 30.7885L35.6883 28.8752H24.1383C23.9063 28.8752 23.6837 28.783 23.5196 28.6189C23.3555 28.4548 23.2633 28.2323 23.2633 28.0002C23.2633 27.7681 23.3555 27.5456 23.5196 27.3815C23.6837 27.2174 23.9063 27.1252 24.1383 27.1252Z" fill="#A1A1AA"/>
</svg>
