<svg width="29" height="28" viewBox="0 0 29 28" fill="none" xmlns="http://www.w3.org/2000/svg">
<g clip-path="url(#clip0_11095_5546)">
<path fill-rule="evenodd" clip-rule="evenodd" d="M16.3375 14.3002H12.7011C11.6967 14.3002 10.8051 14.9429 10.4875 15.8957L10.3845 16.2048C10.0669 17.1576 9.1752 17.8002 8.17086 17.8002L3.66196 17.8002C3.3398 17.8002 3.07863 17.5391 3.07863 17.2169C3.07863 17.1542 3.08874 17.0919 3.10856 17.0324L4.0193 14.3002C4.71602 12.2101 6.67206 10.8002 8.87529 10.8002L18.7728 10.8002C21.1711 10.8002 23.3635 12.1552 24.436 14.3002L25.7639 16.956C25.9079 17.2442 25.7911 17.5946 25.503 17.7386C25.422 17.7791 25.3327 17.8002 25.2421 17.8002L20.8677 17.8002C19.8634 17.8002 18.9717 17.1576 18.6541 16.2048L18.5511 15.8957C18.2335 14.9429 17.3419 14.3002 16.3375 14.3002Z" fill="white"/>
</g>
<defs>
<clipPath id="clip0_11095_5546">
<rect width="28" height="28" fill="white" transform="translate(0.5)"/>
</clipPath>
</defs>
</svg>
