<svg width="172" height="36" viewBox="0 0 172 36" fill="none" xmlns="http://www.w3.org/2000/svg">
<path fill-rule="evenodd" clip-rule="evenodd" d="M20.6834 0.607316C19.4543 1.40834 17.7338 3.09335 16.9369 4.27676C16.1919 5.38329 15.3051 7.28675 14.957 8.52705C14.8038 9.07285 14.6094 10.2041 14.5248 11.041C14.3354 12.916 14.5791 14.9171 15.2139 16.7006C15.4399 17.3355 15.6551 17.9492 15.692 18.0643C15.7412 18.2177 15.5536 18.3637 14.9886 18.6118C13.0539 19.4615 11.8148 19.683 9.33077 19.6232L7.34104 19.5752L7.22408 20.214C7.14138 20.6656 7.15263 20.8982 7.26218 21.0079C7.36949 21.1152 8.15979 21.1628 9.82535 21.1626C12.5149 21.162 13.3604 21.0042 15.4936 20.1045C16.3721 19.7341 16.61 19.6781 16.6911 19.8232C17.0156 20.4031 18.1052 21.7043 18.8486 22.3997C19.426 22.9398 19.7093 23.3051 19.7093 23.5097C19.7093 24.3221 18.6718 27.1832 18.3773 27.1832C18.2978 27.1832 17.7352 27.0076 17.1271 26.793C13.3784 25.4699 9.37575 25.7693 5.86813 27.6352C4.48943 28.3686 3.50687 29.1228 2.29567 30.377C1.47202 31.2298 0.0206776 33.2223 0.147434 33.3259C0.407958 33.5389 1.58608 34.1244 2.40351 34.4472C5.89882 35.8279 10.1608 35.6595 13.5586 34.0066C15.4827 33.0706 17.3762 31.5294 18.6714 29.8451L19.0156 29.3977L19.6601 29.8365C21.3283 30.9721 23.1572 33.2684 23.9008 35.1604C24.1199 35.7178 24.3152 36.0354 24.4157 35.9969C24.5046 35.9627 24.8217 35.8615 25.1204 35.7721C25.4654 35.6687 25.6634 35.5314 25.6634 35.3952C25.6634 34.8955 24.1882 32.2261 23.3247 31.1633C22.5404 30.1981 21.1147 28.8916 20.1361 28.2417L19.8374 28.0433L20.3114 26.9521C20.5724 26.3519 20.9186 25.3189 21.0811 24.6567C21.2657 23.904 21.4594 23.4061 21.5975 23.3287C21.963 23.1241 23.6858 22.7237 24.6185 22.6265L25.492 22.5353L25.6548 23.5692C26.3466 27.9643 29.2201 31.9293 33.1391 33.8965C34.9963 34.8289 37.1877 35.3866 38.9937 35.3866H39.9896L39.8976 34.2289C39.6563 31.193 38.6825 28.6281 36.8835 26.2905C35.6468 24.6836 33.4005 22.9614 31.4695 22.1397C30.3633 21.6689 28.2213 21.0968 27.565 21.0968C27.1238 21.0968 27.1188 21.0901 27.1188 20.4958C27.1188 18.5617 28.1581 15.8424 29.6661 13.8312L30.203 13.115L29.6202 12.6108L29.0374 12.1065L28.7312 12.4668C27.7551 13.6157 26.8632 15.2004 26.2829 16.8165C25.9055 17.8677 25.5311 19.6684 25.5311 20.4326V20.9298L24.3476 21.0816C23.6968 21.1651 22.6539 21.3813 22.0302 21.562C21.4065 21.7428 20.821 21.8907 20.7292 21.8907C20.3982 21.8907 17.9892 19.2132 17.9892 18.8454C17.9892 18.7934 18.4331 18.3836 18.9757 17.9348C21.9657 15.4615 23.9417 11.218 23.9417 7.27008C23.9417 6.08667 23.6068 4.09999 23.2058 2.90374C22.8358 1.80039 22.0531 0.132974 21.8444 0.00410092C21.778 -0.0369162 21.2556 0.234458 20.6834 0.607316ZM21.5602 2.93021C22.1225 4.43302 22.2717 5.3432 22.2717 7.27008C22.2717 8.56503 22.2043 9.39529 22.0478 10.0292C21.3936 12.6775 19.9587 15.0449 18.0006 16.7064L17.1518 17.4266L16.8966 16.7808C16.2832 15.229 16.1011 14.212 16.0941 12.298C16.084 9.55354 16.6785 7.53021 18.1344 5.35366C18.8289 4.31526 20.8701 2.17602 21.1662 2.17602C21.2277 2.17602 21.405 2.5154 21.5602 2.93021ZM28.9471 22.9503C33.3543 24.0068 36.962 27.6963 38.0341 32.2435C38.2747 33.2641 38.2863 33.7998 38.0677 33.796C37.4042 33.7846 35.3539 33.1761 34.3061 32.6798C32.6637 31.9018 31.6226 31.1467 30.4162 29.8583C28.8743 28.2118 27.7634 26.0971 27.3284 23.9802C27.2132 23.4193 27.1188 22.8983 27.1188 22.8224C27.1188 22.6147 27.7239 22.657 28.9471 22.9503ZM14.9063 27.7883C15.9038 27.9943 17.2946 28.4488 17.5006 28.636C17.6575 28.7786 15.6919 30.8151 14.758 31.4774C13.6377 32.272 12.2499 32.9423 10.8824 33.3493C9.4775 33.7674 6.90758 33.9239 5.49249 33.6774C4.49167 33.5032 2.55262 32.9187 2.4559 32.7622C2.33828 32.5719 3.57355 31.1689 4.55082 30.3827C6.17747 29.0741 7.96992 28.2006 9.85195 27.7993C11.1032 27.5324 13.6409 27.527 14.9063 27.7883Z" fill="#00C4CF"/>
<path fill-rule="evenodd" clip-rule="evenodd" d="M146.672 17.7946V29.6175H148.136H149.6V17.7946V5.97168H148.136H146.672V17.7946ZM58.2818 14.5499C55.0473 14.8742 52.6231 16.3616 51.6311 18.6305C50.9215 20.2535 50.7647 23.1905 51.291 25.0009C51.5948 26.0456 51.9319 26.569 52.9708 27.6078C54.7321 29.3691 56.5014 29.9523 60.0834 29.9523C63.6546 29.9523 65.4404 29.3666 67.165 27.6299C68.6822 26.1019 69.2039 24.7412 69.2039 22.3136C69.2039 20.4776 68.7734 18.7877 68.0212 17.6716C66.4151 15.2883 62.7221 14.1047 58.2818 14.5499ZM132.209 14.5483C130.508 14.7368 128.414 15.6016 127.454 16.5125C125.907 17.9792 125.141 20.3251 125.341 22.9746C125.676 27.4008 128.383 29.6681 133.731 30.0014C136.074 30.1473 138.758 29.6994 140.707 28.8374C141.804 28.3523 141.928 28.2237 142.054 27.4402C142.13 26.9655 142.231 26.3899 142.278 26.1609C142.376 25.6796 142.277 25.699 140.223 26.559C137.508 27.6956 133.319 27.847 131.136 26.8872C129.882 26.3356 129.14 25.667 128.74 24.7266C128.106 23.2396 127.717 23.3243 135.468 23.2588L142.506 23.1993L142.574 21.8896C142.836 16.8474 138.592 13.8419 132.209 14.5483ZM161.648 14.463C158.781 14.6567 156.663 15.5444 155.257 17.1413C154.096 18.4598 153.653 19.8939 153.653 22.331C153.653 26.68 155.872 29.1565 160.395 29.8564C161.316 29.9989 162.813 30.0575 163.723 29.9863C168.946 29.5771 171.53 27.3072 171.835 22.8602C172.05 19.7178 170.863 17.0649 168.663 15.7759C167.104 14.8623 164.089 14.2981 161.648 14.463ZM80.8016 14.8722C80.1823 15.0442 79.6139 15.1895 79.5385 15.1949C79.0762 15.2284 77.1584 17.2845 76.7017 18.2364L76.1574 19.371L76.238 17.1753L76.3184 14.9796H74.7879H73.2575V22.3089V29.638L74.7776 29.5715L76.2977 29.5049L76.4103 25.0772L76.5229 20.6499L77.2086 19.7851C77.6036 19.2869 78.5015 18.6102 79.3266 18.1887C80.571 17.5527 80.9834 17.4568 82.4708 17.4568C83.4123 17.4568 84.5113 17.5511 84.9131 17.6662C85.7389 17.9031 85.7526 17.8657 85.5029 16.0441C85.3677 15.0584 85.3252 15.0096 84.3897 14.7742C83.1369 14.4587 82.1988 14.4844 80.8016 14.8722ZM91.93 14.8611C89.9336 15.3631 88.121 16.2434 88.1181 16.7125C88.1167 16.9361 88.0543 17.4892 87.9796 17.9418L87.8433 18.7647L89.9525 17.9639C91.7478 17.2822 92.4133 17.1478 94.4261 17.0595C97.2767 16.9345 98.511 17.2178 99.5226 18.2294C100.163 18.8697 100.718 20.0454 100.477 20.2515C100.431 20.2907 98.4684 20.4832 96.1151 20.6796C91.3952 21.0732 89.3159 21.5687 88.2645 22.5498C86.4798 24.2156 86.5694 27.1011 88.4543 28.6547C89.6199 29.6154 91.0011 29.9611 93.5253 29.9233C96.849 29.8737 98.8733 28.913 100.07 26.8176L100.717 25.6848L100.578 27.6623L100.438 29.6395L101.992 29.5722L103.547 29.5049V24.4379C103.547 18.7116 103.442 18.1693 102.048 16.6566C100.623 15.1107 99.3273 14.6704 96.0025 14.6026C94.1516 14.5648 92.7569 14.6533 91.93 14.8611ZM107.262 16.1056V17.2316H112.892C115.989 17.2316 118.516 17.3075 118.509 17.4005C118.502 17.4935 115.972 19.7482 112.888 22.4111L107.279 27.2529L107.271 28.4381L107.262 29.6233L115.088 29.5641L122.914 29.5049V28.3789V27.2529L117.177 27.1403L111.441 27.0277L117.121 22.0941L122.801 17.1606V16.07V14.9796H115.032H107.262V16.1056ZM63.3405 17.4912C64.5827 18.0265 65.0851 18.4704 65.5951 19.4835C66.5117 21.304 66.3234 24.1323 65.1907 25.5616C63.3855 27.8397 58.3501 28.2881 55.8761 26.3915C54.5017 25.3378 54.0319 24.2688 54.0364 22.2048C54.0416 19.7617 54.7314 18.506 56.5841 17.5662C58.2456 16.7235 61.4763 16.6877 63.3405 17.4912ZM136.946 17.359C138.007 17.802 138.985 18.721 139.381 19.6452C140.015 21.1277 140.27 21.0599 134.061 21.0599C127.712 21.0599 128.014 21.1622 128.909 19.3147C129.465 18.1648 130.632 17.3104 132.054 17.012C133.351 16.7397 135.896 16.9201 136.946 17.359ZM164.895 17.1359C166.244 17.3334 167.696 18.3668 168.259 19.529C168.9 20.8543 168.922 23.4551 168.303 24.818C167.435 26.7313 164.977 27.7742 161.936 27.5195C158.215 27.2078 156.334 25.0896 156.659 21.5729C156.851 19.484 157.526 18.4503 159.274 17.5653C160.648 16.8699 162.247 16.7479 164.895 17.1359ZM100.506 23.2781C100.506 25.8573 96.4349 27.9879 92.6495 27.3896C90.9731 27.1245 90.2777 26.5478 90.1897 25.3495C90.0991 24.1195 90.5122 23.6567 92.0239 23.2939C92.9623 23.0687 97.5241 22.5802 99.9997 22.44C100.442 22.4147 100.506 22.5206 100.506 23.2781Z" fill="#00C4CF"/>
</svg>
