<svg width="16" height="16" viewBox="0 0 16 16" fill="none" xmlns="http://www.w3.org/2000/svg">
<path opacity="0.3" d="M13.934 8.59967C13.534 8.59967 13.2673 8.33301 13.2673 7.93301C13.2673 7.53301 13.534 7.26634 13.934 7.26634H14.534C14.2007 4.13301 11.734 1.59967 8.60065 1.33301V1.93301C8.60065 2.33301 8.33398 2.59967 7.93398 2.59967C7.53398 2.59967 7.26732 2.33301 7.26732 1.93301V1.33301C4.13398 1.66634 1.60065 4.13301 1.33398 7.26634H1.93398C2.33398 7.26634 2.60064 7.53301 2.60064 7.93301C2.60064 8.33301 2.33398 8.59967 1.93398 8.59967H1.33398C1.66732 11.733 4.13398 14.2663 7.26732 14.533V13.933C7.26732 13.533 7.53398 13.2663 7.93398 13.2663C8.33398 13.2663 8.60065 13.533 8.60065 13.933V14.533C11.734 14.1997 14.2673 11.733 14.534 8.59967H13.934Z" fill="#A1A1AA"/>
<path d="M11.2669 7.26659H9.06693C8.9336 7.06659 8.80027 6.93325 8.60027 6.79992V3.93327C8.60027 3.53327 8.3336 3.2666 7.9336 3.2666C7.5336 3.2666 7.26693 3.53327 7.26693 3.93327V6.79992C7.06693 6.93325 6.9336 7.06659 6.80027 7.26659H6.60026C6.20026 7.26659 5.93359 7.53325 5.93359 7.93325C5.93359 8.33325 6.20026 8.59992 6.60026 8.59992H6.80027C6.9336 8.79992 7.06693 8.93325 7.26693 9.06659V9.26659C7.26693 9.66659 7.5336 9.93325 7.9336 9.93325C8.3336 9.93325 8.60027 9.66659 8.60027 9.26659V9.06659C8.80027 8.93325 8.9336 8.79992 9.06693 8.59992H11.2669C11.6669 8.59992 11.9336 8.33325 11.9336 7.93325C11.9336 7.53325 11.6669 7.26659 11.2669 7.26659Z" fill="#A1A1AA"/>
</svg>
