<svg width="24" height="24" viewBox="0 0 24 24" fill="none" xmlns="http://www.w3.org/2000/svg">
<path opacity="0.3" d="M2.7998 10.8903V16.5803C2.7998 18.0178 3.37084 19.3964 4.38729 20.4128C5.40373 21.4293 6.78233 22.0003 8.2198 22.0003H15.7798C16.4916 22.0003 17.1964 21.8601 17.8539 21.5877C18.5115 21.3154 19.109 20.9161 19.6123 20.4128C20.1156 19.9095 20.5149 19.312 20.7872 18.6545C21.0596 17.9969 21.1998 17.2921 21.1998 16.5803V10.8903C21.1998 10.6728 21.1134 10.4643 20.9596 10.3105C20.8059 10.1567 20.5973 10.0703 20.3798 10.0703H3.6198C3.40233 10.0703 3.19376 10.1567 3.03998 10.3105C2.8862 10.4643 2.7998 10.6728 2.7998 10.8903Z" fill="#A1A1AA"/>
<path d="M20.8493 7.58C20.8959 7.70493 20.9117 7.83925 20.8954 7.97159C20.8791 8.10392 20.8311 8.23038 20.7556 8.34025C20.6801 8.45013 20.5792 8.54019 20.4614 8.60281C20.3437 8.66543 20.2127 8.69877 20.0793 8.7H4.07932C3.91634 8.70115 3.75555 8.66245 3.61095 8.58726C3.46634 8.51207 3.34231 8.40268 3.24964 8.26861C3.15697 8.13453 3.09848 7.97984 3.07925 7.81799C3.06002 7.65615 3.08065 7.49205 3.13932 7.34C3.44267 6.61264 3.90015 5.95973 4.48022 5.42627C5.06029 4.89281 5.74916 4.4915 6.49932 4.25V2.69C6.498 2.59986 6.51461 2.51036 6.54819 2.4267C6.58177 2.34304 6.63164 2.2669 6.69492 2.20269C6.7582 2.13848 6.83361 2.0875 6.91677 2.0527C6.99993 2.0179 7.08918 1.99999 7.17932 2C7.36232 2 7.53783 2.0727 7.66723 2.2021C7.79663 2.3315 7.86932 2.507 7.86932 2.69V4C7.99932 4 8.07932 4 8.18932 4H11.4593V2.69C11.4593 2.507 11.532 2.3315 11.6614 2.2021C11.7908 2.0727 11.9663 2 12.1493 2C12.3323 2 12.5078 2.0727 12.6372 2.2021C12.7666 2.3315 12.8393 2.507 12.8393 2.69V4H15.7393C15.8493 4 15.9493 4 16.0593 4V2.69C16.058 2.59986 16.0746 2.51036 16.1082 2.4267C16.1418 2.34304 16.1916 2.2669 16.2549 2.20269C16.3182 2.13848 16.3936 2.0875 16.4768 2.0527C16.5599 2.0179 16.6492 1.99999 16.7393 2C16.9223 2 17.0978 2.0727 17.2272 2.2021C17.3566 2.3315 17.4293 2.507 17.4293 2.69V4.25C18.2143 4.50985 18.9301 4.94461 19.5225 5.52146C20.1149 6.09832 20.5686 6.8022 20.8493 7.58ZM8.72932 13C8.56165 13.002 8.3983 13.0535 8.25984 13.1481C8.12138 13.2427 8.014 13.3761 7.95119 13.5316C7.88839 13.6871 7.87297 13.8577 7.90689 14.0219C7.94081 14.1861 8.02254 14.3366 8.14181 14.4545C8.26107 14.5724 8.41253 14.6523 8.57714 14.6843C8.74174 14.7163 8.91214 14.6989 9.06687 14.6343C9.22161 14.5697 9.35377 14.4607 9.44674 14.3212C9.5397 14.1816 9.58931 14.0177 9.58932 13.85C9.58669 13.6237 9.49492 13.4075 9.33393 13.2483C9.17293 13.0892 8.95569 13 8.72932 13ZM11.9393 13C11.7716 13.002 11.6083 13.0535 11.4698 13.1481C11.3314 13.2427 11.224 13.3761 11.1612 13.5316C11.0984 13.6871 11.083 13.8577 11.1169 14.0219C11.1508 14.1861 11.2325 14.3366 11.3518 14.4545C11.4711 14.5724 11.6225 14.6523 11.7871 14.6843C11.9517 14.7163 12.1221 14.6989 12.2769 14.6343C12.4316 14.5697 12.5638 14.4607 12.6567 14.3212C12.7497 14.1816 12.7993 14.0177 12.7993 13.85C12.7967 13.6237 12.7049 13.4075 12.5439 13.2483C12.3829 13.0892 12.1657 13 11.9393 13ZM15.1793 13C15.0677 13 14.9572 13.022 14.854 13.0647C14.7509 13.1074 14.6572 13.17 14.5783 13.249C14.4994 13.3279 14.4367 13.4216 14.394 13.5247C14.3513 13.6278 14.3293 13.7384 14.3293 13.85C14.3293 13.9616 14.3513 14.0722 14.394 14.1753C14.4367 14.2784 14.4994 14.3721 14.5783 14.451C14.6572 14.53 14.7509 14.5926 14.854 14.6353C14.9572 14.678 15.0677 14.7 15.1793 14.7C15.2909 14.7 15.4015 14.678 15.5046 14.6353C15.6077 14.5926 15.7014 14.53 15.7804 14.451C15.8593 14.3721 15.9219 14.2784 15.9646 14.1753C16.0073 14.0722 16.0293 13.9616 16.0293 13.85C16.0293 13.7384 16.0073 13.6278 15.9646 13.5247C15.9219 13.4216 15.8593 13.3279 15.7804 13.249C15.7014 13.17 15.6077 13.1074 15.5046 13.0647C15.4015 13.022 15.2909 13 15.1793 13ZM8.71932 16.2C8.55165 16.202 8.3883 16.2535 8.24984 16.3481C8.11138 16.4427 8.00399 16.5761 7.94119 16.7316C7.87839 16.8871 7.86298 17.0577 7.89689 17.2219C7.93081 17.3861 8.01254 17.5366 8.13181 17.6545C8.25107 17.7724 8.40253 17.8523 8.56714 17.8843C8.73174 17.9163 8.90214 17.8989 9.05687 17.8343C9.21161 17.7697 9.34377 17.6607 9.43674 17.5212C9.5297 17.3816 9.57931 17.2177 9.57932 17.05C9.57933 16.9375 9.55702 16.8262 9.51368 16.7224C9.47034 16.6186 9.40683 16.5245 9.32684 16.4454C9.24685 16.3663 9.15196 16.3039 9.04768 16.2618C8.94339 16.2197 8.83179 16.1987 8.71932 16.2ZM11.9293 16.2C11.7616 16.202 11.5983 16.2535 11.4598 16.3481C11.3214 16.4427 11.214 16.5761 11.1512 16.7316C11.0884 16.8871 11.073 17.0577 11.1069 17.2219C11.1408 17.3861 11.2225 17.5366 11.3418 17.6545C11.4611 17.7724 11.6125 17.8523 11.7771 17.8843C11.9417 17.9163 12.1121 17.8989 12.2669 17.8343C12.4216 17.7697 12.5538 17.6607 12.6467 17.5212C12.7397 17.3816 12.7893 17.2177 12.7893 17.05C12.7893 16.9375 12.767 16.8262 12.7237 16.7224C12.6803 16.6186 12.6168 16.5245 12.5368 16.4454C12.4568 16.3663 12.362 16.3039 12.2577 16.2618C12.1534 16.2197 12.0418 16.1987 11.9293 16.2ZM15.1593 16.2C14.9921 16.2039 14.8298 16.2571 14.6927 16.3529C14.5555 16.4486 14.4497 16.5827 14.3884 16.7383C14.3272 16.894 14.3131 17.0642 14.3482 17.2277C14.3832 17.3913 14.4657 17.5409 14.5853 17.6578C14.7049 17.7746 14.8564 17.8536 15.0207 17.8848C15.185 17.916 15.3549 17.8981 15.5091 17.8332C15.6632 17.7683 15.7948 17.6594 15.8873 17.5201C15.9799 17.3808 16.0293 17.2173 16.0293 17.05C16.028 16.9371 16.0045 16.8255 15.96 16.7216C15.9156 16.6178 15.8512 16.5237 15.7704 16.4448C15.6896 16.3659 15.594 16.3036 15.4892 16.2616C15.3844 16.2196 15.2723 16.1987 15.1593 16.2Z" fill="#A1A1AA"/>
</svg>
