<svg width="16" height="17" viewBox="0 0 16 17" fill="none" xmlns="http://www.w3.org/2000/svg">
<path opacity="0.3" fill-rule="evenodd" clip-rule="evenodd" d="M5.33329 2.5H4.66663C3.56206 2.5 2.66663 3.39543 2.66663 4.5V13.8333C2.66663 14.9379 3.56206 15.8333 4.66663 15.8333H11.3333C12.4379 15.8333 13.3333 14.9379 13.3333 13.8333V4.5C13.3333 3.39543 12.4379 2.5 11.3333 2.5H10.6666V2.83333C10.6666 3.38562 10.2189 3.83333 9.66663 3.83333H6.33329C5.78101 3.83333 5.33329 3.38562 5.33329 2.83333V2.5Z" fill="#A1A1AA"/>
<path fill-rule="evenodd" clip-rule="evenodd" d="M8.66667 1.83317L9.5 1.83317C9.77614 1.83317 10 2.05703 10 2.33317V2.6665C10 2.94265 9.77614 3.1665 9.5 3.1665H6.5C6.22386 3.1665 6 2.94265 6 2.6665V2.33317C6 2.05703 6.22386 1.83317 6.5 1.83317L7.33333 1.83317C7.33333 1.46498 7.63181 1.1665 8 1.1665C8.36819 1.1665 8.66667 1.46498 8.66667 1.83317Z" fill="#A1A1AA"/>
<rect x="4.66663" y="7.1665" width="3.33333" height="1.33333" rx="0.666667" fill="#A1A1AA"/>
<rect x="4.66663" y="9.8335" width="6" height="1.33334" rx="0.666668" fill="#A1A1AA"/>
</svg>
