<svg width="25" height="24" viewBox="0 0 25 24" fill="none" xmlns="http://www.w3.org/2000/svg">
<path opacity="0.3" fill-rule="evenodd" clip-rule="evenodd" d="M22.625 15.0098L22.6499 15V19.5858C22.6499 20.1381 22.2022 20.5858 21.6499 20.5858C21.3847 20.5858 21.1304 20.4804 20.9428 20.2929L18.6499 18H6.625C4.96815 18 3.625 16.6569 3.625 15V6C3.625 4.34315 4.96815 3 6.625 3H19.625C21.2819 3 22.625 4.34315 22.625 6V15C22.625 15.0033 22.625 15.0065 22.625 15.0098Z" fill="#00BAC9"/>
<path opacity="0.3" fill-rule="evenodd" clip-rule="evenodd" d="M8.125 12C7.29657 12 6.625 11.3284 6.625 10.5C6.625 9.67157 7.29657 9 8.125 9C8.95343 9 9.625 9.67157 9.625 10.5C9.625 11.3284 8.95343 12 8.125 12ZM13.125 12C12.2966 12 11.625 11.3284 11.625 10.5C11.625 9.67157 12.2966 9 13.125 9C13.9534 9 14.625 9.67157 14.625 10.5C14.625 11.3284 13.9534 12 13.125 12ZM18.125 12C17.2966 12 16.625 11.3284 16.625 10.5C16.625 9.67157 17.2966 9 18.125 9C18.9534 9 19.625 9.67157 19.625 10.5C19.625 11.3284 18.9534 12 18.125 12Z" fill="#00BAC9"/>
</svg>
