<svg width="16" height="16" viewBox="0 0 16 16" fill="none" xmlns="http://www.w3.org/2000/svg">
<path opacity="0.3" d="M12.2674 3.73242C14.6008 6.06576 14.6008 9.86577 12.2674 12.1991C9.93411 14.5324 6.13411 14.5324 3.80078 12.1991L12.2674 3.73242Z" fill="#A1A1AA"/>
<path d="M8.00065 1.33301C4.33398 1.33301 1.33398 4.33301 1.33398 7.99967C1.33398 11.6663 4.33398 14.6663 8.00065 14.6663C11.6673 14.6663 14.6673 11.6663 14.6673 7.99967C14.6673 4.33301 11.6673 1.33301 8.00065 1.33301ZM13.2673 7.33301H8.66732V5.93294C9.93398 5.79961 11.134 5.33304 12.0673 4.53304C12.734 5.33304 13.134 6.26634 13.2673 7.33301ZM7.33398 13.2663C6.46732 13.1329 5.60064 12.7997 4.93398 12.333C5.66731 11.7997 6.46732 11.4664 7.33398 11.3997V13.2663ZM3.93398 4.59969C4.93398 5.39969 6.13398 5.86634 7.33398 5.99967V7.39974H2.73399C2.86732 6.26641 3.26731 5.33302 3.93398 4.59969ZM4.93398 3.66634C5.66731 3.13301 6.46732 2.79966 7.33398 2.73299V4.66634C6.46732 4.53301 5.60064 4.19967 4.93398 3.66634ZM8.66732 11.3997C9.53398 11.5331 10.4007 11.8663 11.0673 12.333C10.334 12.8663 9.53398 13.1996 8.66732 13.2663V11.3997ZM8.66732 2.73299C9.53398 2.86633 10.4007 3.19967 11.0673 3.66634C10.334 4.19967 9.53398 4.53302 8.66732 4.59969V2.73299ZM2.73399 8.66634H7.33398V10.0664C6.06732 10.1997 4.86731 10.6663 3.93398 11.4663C3.26731 10.6663 2.86732 9.73301 2.73399 8.66634ZM12.0673 11.3997C11.0673 10.5997 9.86732 10.133 8.66732 9.99967V8.59961H13.2673C13.134 9.73294 12.734 10.6664 12.0673 11.3997Z" fill="#A1A1AA"/>
</svg>
