<svg width="16" height="17" viewBox="0 0 16 17" fill="none" xmlns="http://www.w3.org/2000/svg">
<path fill-rule="evenodd" clip-rule="evenodd" d="M3.66663 2.5C3.11434 2.5 2.66663 2.94772 2.66663 3.5V13.5C2.66663 14.0523 3.11434 14.5 3.66663 14.5C4.21891 14.5 4.66663 14.0523 4.66663 13.5V3.5C4.66663 2.94772 4.21891 2.5 3.66663 2.5ZM6.99995 2.5C6.44767 2.5 5.99995 2.94772 5.99995 3.5V13.5C5.99995 14.0523 6.44767 14.5 6.99995 14.5C7.55224 14.5 7.99995 14.0523 7.99995 13.5V3.5C7.99995 2.94772 7.55224 2.5 6.99995 2.5Z" fill="#A1A1AA"/>
<rect opacity="0.3" x="8.98474" y="3.11621" width="2" height="12" rx="1" transform="rotate(-19 8.98474 3.11621)" fill="#A1A1AA"/>
</svg>
