<svg width="40" height="36" viewBox="0 0 40 36" fill="none" xmlns="http://www.w3.org/2000/svg">
<path fill-rule="evenodd" clip-rule="evenodd" d="M20.6187 0.607316C19.3896 1.40834 17.6691 3.09335 16.8722 4.27676C16.1272 5.38329 15.2404 7.28675 14.8923 8.52705C14.7391 9.07285 14.5447 10.2041 14.4602 11.041C14.2707 12.916 14.5144 14.9171 15.1492 16.7006C15.3752 17.3355 15.5904 17.9492 15.6273 18.0643C15.6765 18.2177 15.4889 18.3637 14.9239 18.6118C12.9892 19.4615 11.7501 19.683 9.26607 19.6232L7.27634 19.5752L7.15938 20.214C7.07668 20.6656 7.08793 20.8982 7.19748 21.0079C7.30479 21.1152 8.0951 21.1628 9.76065 21.1626C12.4502 21.162 13.2957 21.0042 15.429 20.1045C16.3074 19.7341 16.5453 19.6781 16.6264 19.8232C16.951 20.4031 18.0405 21.7043 18.7839 22.3997C19.3613 22.9398 19.6446 23.3051 19.6446 23.5097C19.6446 24.3221 18.6071 27.1832 18.3126 27.1832C18.2331 27.1832 17.6705 27.0076 17.0624 26.793C13.3137 25.4699 9.31105 25.7693 5.80343 27.6352C4.42473 28.3686 3.44217 29.1228 2.23098 30.377C1.40733 31.2298 -0.0440196 33.2223 0.0827364 33.3259C0.343261 33.5389 1.52138 34.1244 2.33881 34.4472C5.83413 35.8279 10.0961 35.6595 13.4939 34.0066C15.418 33.0706 17.3115 31.5294 18.6067 29.8451L18.9509 29.3977L19.5954 29.8365C21.2636 30.9721 23.0925 33.2684 23.8361 35.1604C24.0552 35.7178 24.2505 36.0354 24.351 35.9969C24.4399 35.9627 24.757 35.8615 25.0557 35.7721C25.4007 35.6687 25.5987 35.5314 25.5987 35.3952C25.5987 34.8955 24.1235 32.2261 23.26 31.1633C22.4757 30.1981 21.05 28.8916 20.0714 28.2417L19.7727 28.0433L20.2467 26.9521C20.5077 26.3519 20.8539 25.3189 21.0164 24.6567C21.201 23.904 21.3947 23.4061 21.5328 23.3287C21.8983 23.1241 23.6211 22.7237 24.5538 22.6265L25.4273 22.5353L25.5901 23.5692C26.2819 27.9643 29.1554 31.9293 33.0744 33.8965C34.9316 34.8289 37.123 35.3866 38.929 35.3866H39.9249L39.8329 34.2289C39.5916 31.193 38.6178 28.6281 36.8188 26.2905C35.5821 24.6836 33.3358 22.9614 31.4048 22.1397C30.2986 21.6689 28.1566 21.0968 27.5003 21.0968C27.0591 21.0968 27.0541 21.0901 27.0541 20.4958C27.0541 18.5617 28.0934 15.8424 29.6014 13.8312L30.1383 13.115L29.5555 12.6108L28.9727 12.1065L28.6665 12.4668C27.6904 13.6157 26.7985 15.2004 26.2182 16.8165C25.8408 17.8677 25.4664 19.6684 25.4664 20.4326V20.9298L24.2829 21.0816C23.6321 21.1651 22.5892 21.3813 21.9655 21.562C21.3418 21.7428 20.7563 21.8907 20.6645 21.8907C20.3335 21.8907 17.9245 19.2132 17.9245 18.8454C17.9245 18.7934 18.3684 18.3836 18.911 17.9348C21.9011 15.4615 23.877 11.218 23.877 7.27008C23.877 6.08667 23.5421 4.09999 23.1411 2.90374C22.7711 1.80039 21.9884 0.132974 21.7797 0.00410092C21.7133 -0.0369162 21.1909 0.234458 20.6187 0.607316ZM21.4955 2.93021C22.0578 4.43302 22.207 5.3432 22.207 7.27008C22.207 8.56503 22.1396 9.39529 21.9831 10.0292C21.3289 12.6775 19.894 15.0449 17.9359 16.7064L17.0871 17.4266L16.8319 16.7808C16.2185 15.229 16.0364 14.212 16.0294 12.298C16.0193 9.55354 16.6138 7.53021 18.0697 5.35366C18.7642 4.31526 20.8054 2.17602 21.1015 2.17602C21.163 2.17602 21.3403 2.5154 21.4955 2.93021ZM28.8824 22.9503C33.2896 24.0068 36.8973 27.6963 37.9694 32.2435C38.21 33.2641 38.2216 33.7998 38.003 33.796C37.3395 33.7846 35.2892 33.1761 34.2414 32.6798C32.599 31.9018 31.5579 31.1467 30.3515 29.8583C28.8096 28.2118 27.6988 26.0971 27.2637 23.9802C27.1485 23.4193 27.0541 22.8983 27.0541 22.8224C27.0541 22.6147 27.6592 22.657 28.8824 22.9503ZM14.8416 27.7883C15.8391 27.9943 17.2299 28.4488 17.4359 28.636C17.5928 28.7786 15.6272 30.8151 14.6933 31.4774C13.573 32.272 12.1852 32.9423 10.8177 33.3493C9.4128 33.7674 6.84288 33.9239 5.42779 33.6774C4.42698 33.5032 2.48793 32.9187 2.39121 32.7622C2.27358 32.5719 3.50885 31.1689 4.48612 30.3827C6.11278 29.0741 7.90523 28.2006 9.78725 27.7993C11.0385 27.5324 13.5762 27.527 14.8416 27.7883Z" fill="#00959E"/>
</svg>
