<svg width="29" height="28" viewBox="0 0 29 28" fill="none" xmlns="http://www.w3.org/2000/svg">
<path d="M15.6645 20.9164C15.6664 20.9436 15.6673 20.971 15.6673 20.9987V24.4987C15.6673 25.143 15.145 25.6654 14.5007 25.6654C13.8563 25.6654 13.334 25.143 13.334 24.4987V20.9987C13.334 20.971 13.3349 20.9436 13.3368 20.9164C9.37777 20.3515 6.33398 16.9472 6.33398 12.832H8.66732C8.66732 16.0537 11.279 18.6654 14.5007 18.6654C17.7223 18.6654 20.334 16.0537 20.334 12.832H22.6673C22.6673 16.9472 19.6235 20.3515 15.6645 20.9164Z" fill="white"/>
<path opacity="0.3" d="M18 5.83203C18 3.89903 16.433 2.33203 14.5 2.33203C12.567 2.33203 11 3.89903 11 5.83203L11 12.832C11 14.765 12.567 16.332 14.5 16.332C16.433 16.332 18 14.765 18 12.832L18 5.83203Z" fill="white"/>
</svg>
