<svg width="28" height="28" viewBox="0 0 28 28" fill="none" xmlns="http://www.w3.org/2000/svg">
<g clip-path="url(#clip0_11095_5770)">
<path d="M15.1645 20.9164C15.1664 20.9436 15.1673 20.971 15.1673 20.9987V24.4987C15.1673 25.143 14.645 25.6654 14.0007 25.6654C13.3563 25.6654 12.834 25.143 12.834 24.4987V20.9987C12.834 20.971 12.8349 20.9436 12.8368 20.9164C8.87777 20.3515 5.83398 16.9472 5.83398 12.832H8.16732C8.16732 16.0537 10.779 18.6654 14.0007 18.6654C17.2223 18.6654 19.834 16.0537 19.834 12.832H22.1673C22.1673 16.9472 19.1235 20.3515 15.1645 20.9164Z" fill="#27272A"/>
<path opacity="0.3" d="M17.5 5.83203C17.5 3.89903 15.933 2.33203 14 2.33203C12.067 2.33203 10.5 3.89903 10.5 5.83203L10.5 12.832C10.5 14.765 12.067 16.332 14 16.332C15.933 16.332 17.5 14.765 17.5 12.832L17.5 5.83203Z" fill="#27272A"/>
</g>
<defs>
<clipPath id="clip0_11095_5770">
<rect width="28" height="28" fill="white"/>
</clipPath>
</defs>
</svg>
