<svg width="16" height="16" viewBox="0 0 16 16" fill="none" xmlns="http://www.w3.org/2000/svg">
<g clip-path="url(#clip0_11095_1300)">
<path d="M8.66569 11.9522C8.66677 11.9677 8.66732 11.9834 8.66732 11.9992V13.9992C8.66732 14.3674 8.36884 14.6659 8.00065 14.6659C7.63246 14.6659 7.33398 14.3674 7.33398 13.9992V11.9992C7.33398 11.9834 7.33453 11.9677 7.33562 11.9522C5.07329 11.6294 3.33398 9.68407 3.33398 7.33252H4.66732C4.66732 9.17347 6.1597 10.6659 8.00065 10.6659C9.8416 10.6659 11.334 9.17347 11.334 7.33252H12.6673C12.6673 9.68407 10.928 11.6294 8.66569 11.9522Z" fill="#00BAC9"/>
<path opacity="0.3" d="M10 3.33252C10 2.22795 9.10457 1.33252 8 1.33252C6.89543 1.33252 6 2.22795 6 3.33252L6 7.33252C6 8.43709 6.89543 9.33252 8 9.33252C9.10457 9.33252 10 8.43709 10 7.33252L10 3.33252Z" fill="#00BAC9"/>
</g>
<defs>
<clipPath id="clip0_11095_1300">
<rect width="16" height="16" fill="white"/>
</clipPath>
</defs>
</svg>
