<svg width="30" height="32" viewBox="0 0 30 32" fill="none" xmlns="http://www.w3.org/2000/svg">
<path opacity="0.3" d="M11.125 26.2501L8.99999 28.375C8.49999 28.875 7.75 28.875 7.25 28.375L5.125 26.2501H11.125ZM5 20.125L2.875 22.2501C2.375 22.7501 2.375 23.5 2.875 24L5 26.1251V20.125ZM24.125 11.5L19.75 7.125C19.25 6.625 18.5 6.625 18 7.125L11.25 13.875V26.2501L24.125 13.375C24.625 12.875 24.625 12 24.125 11.5Z" fill="white"/>
<path d="M26.25 18.75V25C26.25 25.75 25.75 26.25 25 26.25H14.75L23.5 17.5H25C25.75 17.5 26.25 18 26.25 18.75ZM12.5 26.25V5C12.5 4.25 12 3.75 11.25 3.75H5C4.25 3.75 3.75 4.25 3.75 5V26.25C3.75 27 4.25 27.5 5 27.5H11.25C12 27.5 12.5 27 12.5 26.25ZM9.375 23.125C9.375 23.875 8.875 24.375 8.125 24.375C7.375 24.375 6.875 23.875 6.875 23.125C6.875 22.375 7.375 21.875 8.125 21.875C8.875 21.875 9.375 22.375 9.375 23.125Z" fill="white"/>
</svg>
