<svg width="1360" height="240" viewBox="0 0 1360 240" fill="none" xmlns="http://www.w3.org/2000/svg">
<rect x="-3" width="1363" height="240" fill="url(#paint0_linear_10330_1031)" fill-opacity="0.4"/>
<path fill-rule="evenodd" clip-rule="evenodd" d="M969.522 -5.27663C946.823 -19.1208 905.828 -34.0974 880.25 -37.8877C856.334 -41.4302 818.278 -41.0659 795.275 -37.0718C785.152 -35.3148 765.132 -29.6578 750.785 -24.5042C718.641 -12.9583 687.817 6.65703 663.609 30.9689C654.989 39.6242 646.633 47.9357 645.039 49.4385C642.915 51.4412 639.061 49.5137 630.591 42.2115C601.584 17.2075 588.284 -1.32742 569.86 -42.4196L555.105 -75.3355L543.744 -72.259C535.713 -70.0844 531.997 -68.0837 531.059 -65.4353C530.142 -62.8423 535.535 -49.5453 548.548 -22.3081C569.563 21.6733 578.748 34.2678 610.125 62.1291C623.042 73.6027 625.816 77.0563 624.078 79.5154C617.128 89.3529 604.359 117.335 598.791 134.924C594.468 148.585 590.706 156.072 587.36 157.669C574.074 164.014 519.179 169.394 516.878 164.577C516.257 163.277 514.735 152.704 513.495 141.083C505.855 69.441 469.696 6.31944 411.785 -36.4723C389.022 -53.2919 369.014 -63.4705 339.042 -73.4831C318.663 -80.293 274.741 -88.4667 274.037 -85.5845C272.588 -79.6599 272.214 -55.8197 273.319 -39.9295C278.038 28.0179 314.08 96.4039 367.65 139.063C397.985 163.22 437.98 182.151 475.642 190.178L485.646 192.312L483.505 206.279C477.961 242.432 454.692 290.278 429.558 317.216C422.153 325.153 418.485 330.827 419.899 332.169C421.151 333.357 425.284 337.753 429.079 341.938C433.464 346.775 437.256 348.939 439.483 347.876C447.656 343.973 479.791 298.998 490.428 276.576C500.087 256.21 510.318 222.69 513.304 201.609L514.217 195.173L535.765 194.404C547.619 193.983 567.217 191.578 579.316 189.063C593.068 186.203 602.724 185.482 605.068 187.137C611.268 191.516 631.272 216.565 640.147 231.058L648.461 244.632L632.823 255.369C566.349 301.011 523.946 378.973 522.382 458.431C521.639 496.088 529.633 536.282 543.739 565.817L551.517 582.105L569.733 571.559C617.499 543.9 651.84 507.941 676.019 460.263C692.641 427.486 703.262 377.299 701.618 339.301C700.676 317.532 693.303 278.032 688.177 267.299C684.732 260.085 684.803 259.95 694.521 255.309C726.153 240.202 778.743 235.961 823.412 244.915L839.319 248.102L843.013 234.631L846.708 221.161L838.424 218.968C812.012 211.978 779.128 209.768 748.166 212.9C728.026 214.939 695.653 222.879 683.154 228.848L675.022 232.731L663.298 214.563C656.849 204.571 645.168 189.203 637.34 180.414C629.513 171.625 622.521 163.205 621.803 161.704C619.219 156.292 644.192 95.9814 650.208 93.1085C651.058 92.7023 661.227 96.7617 672.805 102.131C736.608 131.713 821.439 130.886 886.006 100.05C905.36 90.8076 935.235 69.8139 951.667 53.912C966.822 39.244 987.978 13.4193 988.456 9.00022C988.608 7.59359 980.09 1.17007 969.522 -5.27663ZM938.381 27.2063C918.196 48.1404 904.475 57.688 872.962 72.7377C851.784 82.8517 837.68 88.235 826.09 90.6263C777.67 100.612 727.744 95.6352 685.278 76.5883L666.871 68.3318L675.439 59.1135C696.027 36.9617 711.236 26.0413 742.485 10.9772C787.29 -10.6224 825.023 -16.7031 871.99 -9.89343C894.397 -6.64538 945.325 10.0288 947.638 14.8716C948.119 15.8779 943.953 21.4282 938.381 27.2063ZM668.661 304.379C685.804 384.708 653.641 472.526 587.648 525.576C572.836 537.481 564.166 541.855 562.521 538.251C557.525 527.31 551.463 489.025 551.396 468.013C551.292 435.076 555.51 412.153 567.157 382.36C582.042 344.284 607.952 309.599 639.174 285.95C647.447 279.685 655.231 274.072 656.471 273.48C659.868 271.858 663.902 282.084 668.661 304.379ZM479.873 112.537C484.295 130.46 487.724 156.755 486.271 161.586C485.164 165.266 436.507 149.025 418.381 138.925C396.637 126.809 374.835 109.347 357.498 90.1623C339.687 70.4516 317.055 29.6447 310.034 4.5765C305.067 -13.1523 299.481 -49.4289 301.285 -52.2332C303.478 -55.643 336.072 -46.3992 356.563 -36.5572C390.669 -20.1747 418.954 2.31707 440.217 29.962C454.355 48.3417 474.263 89.8008 479.873 112.537Z" fill="white" fill-opacity="0.05"/>
<defs>
<linearGradient id="paint0_linear_10330_1031" x1="-3" y1="240" x2="1360" y2="240" gradientUnits="userSpaceOnUse">
<stop stop-color="#00C4CF"/>
<stop offset="1" stop-color="#012640"/>
</linearGradient>
</defs>
</svg>
