<svg width="172" height="164" viewBox="0 0 172 164" fill="none" xmlns="http://www.w3.org/2000/svg">
<path d="M11.69 10.4139C11.69 9.38284 10.8546 8.54704 9.82361 8.54704C8.79257 8.54704 7.95679 9.38284 7.95679 10.4139C7.95679 11.4445 8.79257 12.2803 9.82361 12.2803C10.8546 12.2803 11.69 11.4445 11.69 10.4139Z" fill="#80B1E3"/>
<path d="M169.803 65.767C169.803 64.7359 168.967 63.9006 167.936 63.9006C166.905 63.9006 166.07 64.7359 166.07 65.767C166.07 66.798 166.905 67.6338 167.936 67.6338C168.967 67.6338 169.803 66.798 169.803 65.767Z" fill="#80B1E3"/>
<path d="M67.4043 155.428C33.4386 155.565 -0.201038 132.658 0.000904685 99.8001C0.199085 67.5473 24.0472 69.3038 50.0519 45.9244C76.0561 22.545 89.3931 8.61592 117.556 21.0733C160.751 40.1793 166.866 155.028 67.4043 155.428Z" fill="white"/>
<path d="M114.389 159.743C114.389 157.391 112.483 155.485 110.132 155.485C107.78 155.485 105.874 157.391 105.874 159.743C105.874 162.094 107.78 164 110.132 164C112.483 164 114.389 162.094 114.389 159.743Z" fill="white"/>
<path d="M14.0764 53.5769C14.0764 51.2255 12.1707 49.3193 9.8193 49.3193C7.4679 49.3193 5.56177 51.2255 5.56177 53.5769C5.56177 55.9279 7.4679 57.834 9.8193 57.834C12.1707 57.834 14.0764 55.9279 14.0764 53.5769Z" fill="white"/>
<path d="M9.91455 33.2727C9.91455 30.9218 8.00842 29.0156 5.65701 29.0156C3.30603 29.0156 1.3999 30.9218 1.3999 33.2727C1.3999 35.6241 3.30603 37.5303 5.65701 37.5303C8.00842 37.5303 9.91455 35.6241 9.91455 33.2727Z" fill="white"/>
<path d="M162.938 96.4187C162.938 94.0673 161.032 92.1611 158.681 92.1611C156.33 92.1611 154.424 94.0673 154.424 96.4187C154.424 98.7697 156.33 100.676 158.681 100.676C161.032 100.676 162.938 98.7697 162.938 96.4187Z" fill="white"/>
<path d="M113.611 7.73899C113.611 5.388 111.705 3.48186 109.354 3.48186C107.003 3.48186 105.097 5.388 105.097 7.73899C105.097 10.0904 107.003 11.9961 109.354 11.9961C111.705 11.9961 113.611 10.0904 113.611 7.73899Z" fill="white"/>
<path d="M22.795 46.6761C22.795 45.6451 21.9592 44.8097 20.9282 44.8097C19.8976 44.8097 19.0618 45.6451 19.0618 46.6761C19.0618 47.7072 19.8976 48.543 20.9282 48.543C21.9592 48.543 22.795 47.7072 22.795 46.6761Z" fill="white"/>
<path d="M127.761 1.99744C127.761 0.966817 126.925 0.130618 125.894 0.130618C124.863 0.130618 124.028 0.966817 124.028 1.99744C124.028 3.02806 124.863 3.86426 125.894 3.86426C126.925 3.86426 127.761 3.02806 127.761 1.99744Z" fill="white"/>
<path d="M123.869 147.766C123.869 146.735 123.034 145.9 122.003 145.9C120.972 145.9 120.136 146.735 120.136 147.766C120.136 148.797 120.972 149.633 122.003 149.633C123.034 149.633 123.869 148.797 123.869 147.766Z" fill="white"/>
<path d="M0.958213 97.4986C-1.28616 121.659 20.3652 152.191 58.2975 156.602C96.2302 161.013 140.117 143.591 149.6 86.0305C159.083 28.4704 96.8916 5.53419 71.53 30.6755C46.1684 55.8168 4.70733 57.1401 0.958213 97.4986Z" stroke="#29306E" stroke-width="0.796304" stroke-miterlimit="10" stroke-linecap="round" stroke-linejoin="round"/>
<path d="M63.0605 76.0436C63.0605 76.0436 74.3501 55.9584 75.2691 38.4989C76.1881 21.0394 79.4702 12.2442 86.4274 10.9313C93.385 9.61851 103.493 21.9584 95.7482 53.5957C88.0028 85.2326 84.4586 86.8076 84.4586 86.8076L63.0605 76.0436Z" fill="#F89C3A"/>
<path d="M87.0805 30.4914C87.0805 30.4914 87.2118 55.9584 76.0535 80.5068" stroke="#29306E" stroke-width="0.796304" stroke-miterlimit="10" stroke-linecap="round" stroke-linejoin="round"/>
<path d="M58.875 115.223C44.1014 112.088 38.1096 98.5913 40.6788 84.1994C43.2472 69.8075 41.515 64.498 35.999 60.1439C30.4822 55.7898 30.8836 48.1795 33.5352 43.225C36.1868 38.2705 30.3986 33.6592 30.1368 21.9628C29.8751 10.2664 36.1228 -1.60056 46.1292 0.650505C59.4253 3.6416 50.4762 19.7757 57.8457 26.9642C66.2428 35.1556 66.4214 42.0844 65.956 54.778C65.2837 73.1105 78.9151 69.177 82.1232 85.2116C85.3309 101.246 81.8577 120.101 58.875 115.223Z" fill="#3CB6A5"/>
<path d="M44.8044 28.2185C44.97 63.5773 64.7237 77.6072 64.3674 103.289" stroke="#29306E" stroke-width="0.796304" stroke-miterlimit="10" stroke-linecap="round" stroke-linejoin="round"/>
<path d="M43.6329 119.495C43.6329 119.495 38.5132 99.9351 25.2544 91.9272C11.9955 83.9193 3.68828 75.5225 11.2078 66.8536C20.6599 55.9579 63.0612 74.9928 68.1813 105.711C73.3009 136.429 43.6329 119.495 43.6329 119.495Z" fill="#F89C3A"/>
<path d="M26.0417 78.2745C26.0417 78.2745 57.5474 94.5529 59.7792 121.857" stroke="#29306E" stroke-width="0.796304" stroke-miterlimit="10" stroke-linecap="round" stroke-linejoin="round"/>
<path d="M82.7502 87.464C84.3257 72.7611 93.7773 63.4407 106.774 65.2787C119.77 67.1163 117.144 55.3015 127.646 49.9193C138.148 44.5371 140.511 50.707 149.7 46.9002C158.889 43.0934 167.16 39.1549 171.361 49.0008C175.561 58.8462 157.839 60.815 153.769 69.6107C149.7 78.4058 148.912 87.464 134.735 88.6456C120.557 89.8267 122.658 109.255 106.774 112.668C90.889 116.082 83.538 113.587 83.538 113.587L82.7502 87.464Z" fill="#F89C3A"/>
<path d="M142.349 64.623C118.102 72.9115 103.531 98.9212 84.5732 106.725" stroke="#29306E" stroke-width="0.796304" stroke-miterlimit="10" stroke-linecap="round" stroke-linejoin="round"/>
<path d="M68.9644 84.5759C68.9644 84.5759 73.7725 64.4255 89.4434 44.4059C102.209 28.0983 118.849 32.4599 117.93 41.9119C117.011 51.3635 95.3507 68.0354 93.2502 89.1708C91.1497 110.306 68.9644 84.5759 68.9644 84.5759Z" fill="#3CB6A5"/>
<path d="M99.4201 52.5449C99.4201 52.5449 83.9299 66.7223 79.2041 91.7959" stroke="#29306E" stroke-width="0.796304" stroke-miterlimit="10" stroke-linecap="round" stroke-linejoin="round"/>
<path d="M61.6172 106.107C61.6172 106.107 44.945 108.207 35.3621 103.481C25.7792 98.7551 9.76381 90.7471 4.11902 101.512C-1.52577 112.276 12.6516 130.655 47.0455 132.886C81.4394 135.118 61.6172 106.107 61.6172 106.107Z" fill="#3CB6A5"/>
<path d="M19.8733 107.024C19.8733 107.024 28.6685 124.747 65.1629 121.465" stroke="#29306E" stroke-width="0.796304" stroke-miterlimit="10" stroke-linecap="round" stroke-linejoin="round"/>
<path d="M86.4614 103.729C86.4614 103.729 104.237 105.915 114.454 100.996C124.671 96.0773 141.746 87.7437 147.764 98.9467C153.782 110.15 138.667 129.278 101.997 131.6C65.3272 133.923 86.4614 103.729 86.4614 103.729Z" fill="#3CB6A5"/>
<path d="M130.966 104.684C130.966 104.684 121.588 123.129 82.679 119.714" stroke="#29306E" stroke-width="0.796304" stroke-miterlimit="10" stroke-linecap="round" stroke-linejoin="round"/>
<path d="M123.762 123.407C120.487 114.418 99.4435 114.767 90.0592 114.96H56.3941C56.3941 114.96 25.4094 111.422 23.1098 126.891C21.2405 139.468 46.4754 144.168 70.8545 143.688L71.5018 145.809C87.1797 143.719 127.037 132.395 123.762 123.407Z" fill="#F03C7D"/>
<path d="M89.3623 141.145C89.3623 141.145 81.1474 142.161 57.5188 139.484C38.7611 137.359 27.0501 130.818 23.0154 128.209C23.0484 139.796 47.3468 144.151 70.8537 143.688L71.501 145.809C75.9232 145.219 82.2688 143.895 89.0274 142.096L89.3623 141.145Z" fill="#EF2B6C"/>
<path d="M123.76 123.407C123.58 122.913 123.338 122.451 123.055 122.012C121.53 123.736 114.978 130.283 99.7919 135.053C89.6107 138.251 78.2295 141.511 70.4294 143.695C70.5708 143.693 70.7121 143.691 70.8534 143.688L71.5006 145.809C87.1786 143.719 127.035 132.395 123.76 123.407Z" fill="#EF2B6C"/>
<path d="M71.8633 145.759C78.8962 144.782 90.4788 142.046 100.942 138.526L96.2662 127.084L72.0079 139.468L71.8633 145.759Z" fill="#F25745"/>
<path d="M99.5542 135.129C90.0649 138.105 79.5714 141.126 71.9201 143.278L71.8633 145.759C78.8962 144.782 90.4788 142.046 100.942 138.526L99.5542 135.129Z" fill="#D9463A"/>
<path d="M72.0067 139.468C72.0067 139.468 72.5432 142.762 71.8621 145.758L63.9934 155.006L65.7181 139.468H72.0067Z" fill="#29306E"/>
<path d="M97.4702 126.467L95.0962 127.679C95.0962 127.679 96.2623 133.528 99.4553 139.018C100.441 138.696 101.42 138.367 102.386 138.032L97.4702 126.467Z" fill="#252E4F"/>
<path d="M72.0034 139.468L104.214 123.023" stroke="#29306E" stroke-width="0.796304" stroke-miterlimit="10" stroke-linecap="round" stroke-linejoin="round"/>
<path d="M45.4141 142.051C58.0357 144.189 73.8876 144.176 87.195 142.569L88.0153 139.224L86.6912 136.228L49.4467 127.488L45.4141 142.051Z" fill="#F25745"/>
<path d="M87.195 142.569L87.5131 141.27C83.9572 141.423 74.9228 141.456 57.5189 139.484C53.5762 139.037 49.9521 138.392 46.6378 137.633L45.4141 142.051C58.0357 144.189 73.8876 144.176 87.195 142.569Z" fill="#D9463A"/>
<path d="M43.5635 141.717C44.7985 141.954 46.0687 142.169 47.3695 142.361C48.3871 139.322 50.1327 133.826 51.5275 127.975L47.8887 127.122L43.5635 141.717Z" fill="#29306E"/>
<path d="M23.1098 126.89C20.8107 142.359 59.5135 145.912 87.1956 142.568" stroke="#29306E" stroke-width="0.796304" stroke-miterlimit="10" stroke-linecap="round" stroke-linejoin="round"/>
<path d="M86.6926 136.228L41.2617 125.567" stroke="#29306E" stroke-width="0.796304" stroke-miterlimit="10" stroke-linecap="round" stroke-linejoin="round"/>
<path d="M86.6907 136.227C86.6907 136.227 86.5126 139.572 87.1941 142.568L94.7036 151.766L92.9789 136.227H86.6907Z" fill="#29306E"/>
<path d="M58.4019 94.4723C58.4019 94.4723 48.1593 113.634 34.2411 118.233C24.2 121.551 16.1594 121.404 13.6161 121.282C11.0728 121.16 8.99987 120.289 9.12154 119.4C9.24362 118.512 10.01 118.564 10.01 118.564C9.05631 118.251 8.18039 117.503 8.35934 116.861C8.60769 115.973 10.0949 116.545 10.0949 116.545C9.82939 116.373 9.58606 116.164 9.43094 115.921C8.90831 115.098 9.69225 114.274 10.6066 114.836C11.521 115.398 13.0387 115.778 13.0387 115.778C13.0132 115.472 13.0091 114.996 13.1282 114.444C13.4715 112.855 15.1142 112.276 15.3232 113.216C15.5323 114.157 14.5393 114.889 15.271 115.725C16.0027 116.561 19.5302 115.62 19.0857 114.496C18.6417 113.373 17.6224 113.896 16.5253 113.608C15.4278 113.321 16.264 111.91 18.0927 111.962C19.9219 112.014 21.124 114.262 21.124 114.262C21.124 114.262 34.7115 109.802 45.0933 94.2633C49.8388 87.161 53.9726 80.3911 58.085 76.8435L61.3633 86.3026L58.4019 94.4723Z" fill="#F25745"/>
<path d="M10.0098 118.564C10.9329 118.86 13.2066 119.409 14.7481 119.2" stroke="#29306E" stroke-width="0.796304" stroke-miterlimit="10" stroke-linecap="round" stroke-linejoin="round"/>
<path d="M10.094 116.546C10.094 116.546 12.7878 117.712 14.4862 117.424" stroke="#29306E" stroke-width="0.796304" stroke-miterlimit="10" stroke-linecap="round" stroke-linejoin="round"/>
<path d="M13.0364 115.778C13.0364 115.778 13.6744 115.986 14.4847 116.091" stroke="#29306E" stroke-width="0.796304" stroke-miterlimit="10" stroke-linecap="round" stroke-linejoin="round"/>
<path d="M18.493 115.477C17.7204 115.814 17.1877 117.781 18.7903 118.564" stroke="#29306E" stroke-width="0.796304" stroke-miterlimit="10" stroke-linecap="round" stroke-linejoin="round"/>
<path d="M13.6161 121.282C11.0728 121.16 8.99987 120.289 9.12154 119.401C9.24362 118.512 10.01 118.565 10.01 118.565C9.05631 118.251 8.18039 117.503 8.35934 116.862C8.60769 115.973 10.0949 116.546 10.0949 116.546C9.82939 116.373 9.58606 116.165 9.43094 115.921C8.90831 115.098 9.69225 114.275 10.6066 114.837C11.521 115.398 13.0387 115.778 13.0387 115.778C13.0132 115.472 13.0091 114.996 13.1282 114.445C13.4715 112.856 15.1142 112.276 15.3232 113.217C15.5323 114.157 14.5393 114.889 15.271 115.725C16.0027 116.561 19.5302 115.621 19.0857 114.497C18.6417 113.373 17.6224 113.896 16.5253 113.608C15.4278 113.321 16.264 111.91 18.0928 111.962C19.9219 112.015 21.124 114.262 21.124 114.262" stroke="#29306E" stroke-width="0.796304" stroke-miterlimit="10" stroke-linecap="round" stroke-linejoin="round"/>
<path d="M59.6422 85.6736L59.273 85.4888C59.273 85.4888 52.2586 104.872 36.3828 114.102C29.4114 118.155 23.5902 120.177 20.0911 121.142C23.8193 120.831 28.7274 120.056 34.2413 118.234C48.1595 113.635 58.4026 94.473 58.4026 94.473L60.5646 88.5079C60.0005 86.7548 59.6422 85.6736 59.6422 85.6736Z" fill="#D9463A"/>
<path d="M88.0513 94.4723C88.0513 94.4723 98.2943 113.634 112.213 118.233C122.254 121.551 130.295 121.404 132.838 121.282C135.381 121.16 137.454 120.289 137.332 119.4C137.21 118.512 136.444 118.564 136.444 118.564C137.397 118.251 138.274 117.503 138.094 116.861C137.846 115.973 136.359 116.545 136.359 116.545C136.625 116.373 136.868 116.164 137.023 115.921C137.545 115.098 136.761 114.274 135.847 114.836C134.932 115.398 133.415 115.778 133.415 115.778C133.44 115.472 133.445 114.996 133.325 114.444C132.982 112.855 131.339 112.276 131.131 113.216C130.922 114.157 131.914 114.889 131.183 115.725C130.451 116.561 126.924 115.62 127.368 114.496C127.812 113.373 128.831 113.896 129.929 113.608C131.026 113.321 130.19 111.91 128.361 111.962C126.532 112.014 125.33 114.262 125.33 114.262C125.33 114.262 111.743 109.802 101.36 94.2633C96.6144 87.161 92.4811 80.3911 88.3686 76.8435L85.0898 86.3026L88.0513 94.4723Z" fill="#F25745"/>
<path d="M136.443 118.564C135.52 118.86 133.247 119.409 131.705 119.2" stroke="#29306E" stroke-width="0.796304" stroke-miterlimit="10" stroke-linecap="round" stroke-linejoin="round"/>
<path d="M136.355 116.546C136.355 116.546 133.661 117.712 131.963 117.424" stroke="#29306E" stroke-width="0.796304" stroke-miterlimit="10" stroke-linecap="round" stroke-linejoin="round"/>
<path d="M133.411 115.778C133.411 115.778 132.773 115.986 131.963 116.091" stroke="#29306E" stroke-width="0.796304" stroke-miterlimit="10" stroke-linecap="round" stroke-linejoin="round"/>
<path d="M127.961 115.477C128.734 115.814 129.266 117.781 127.664 118.564" stroke="#29306E" stroke-width="0.796304" stroke-miterlimit="10" stroke-linecap="round" stroke-linejoin="round"/>
<path d="M136.442 118.564C137.395 118.251 138.272 117.503 138.092 116.862C137.844 115.973 136.357 116.545 136.357 116.545C136.623 116.373 136.866 116.165 137.021 115.921C137.543 115.098 136.759 114.275 135.845 114.837C134.93 115.398 133.413 115.778 133.413 115.778C133.438 115.472 133.443 114.996 133.323 114.444C132.98 112.856 131.337 112.276 131.129 113.217C130.92 114.157 131.912 114.889 131.181 115.725C130.449 116.561 126.922 115.621 127.366 114.497C127.81 113.373 128.829 113.896 129.927 113.608C131.024 113.321 130.188 111.91 128.359 111.962C126.53 112.014 125.328 114.262 125.328 114.262" stroke="#29306E" stroke-width="0.796304" stroke-miterlimit="10" stroke-linecap="round" stroke-linejoin="round"/>
<path d="M126.984 121.19C121.89 119.603 110.391 115.439 101.732 107.98C92.6713 100.174 86.8584 87.4392 85.6597 84.6596L85.0898 86.3036L88.0513 94.4733C88.0513 94.4733 98.2943 113.635 112.213 118.234C118.039 120.159 123.188 120.917 126.984 121.19Z" fill="#D9463A"/>
<path d="M88.3684 76.8437C88.3684 76.8437 87.061 75.7106 84.6018 74.4897L73.2269 80.2579L61.6609 74.5855C59.3246 75.7691 58.0858 76.8437 58.0858 76.8437C56.5839 91.9639 56.3945 116.545 56.3945 116.545C56.3945 116.545 63.141 120.394 73.2269 120.394C83.3132 120.394 90.0597 116.545 90.0597 116.545C90.0597 116.545 89.8707 91.9639 88.3684 76.8437Z" fill="#29306E"/>
<path d="M69.5864 61.5136H76.6762V76.4248H69.5864V61.5136Z" fill="#F25745"/>
<path d="M66.417 63.0946C66.417 63.0946 57.8455 65.8185 58.0721 56.7917C58.0721 56.7917 53.7694 54.1058 55.8248 49.7509C55.8248 49.7509 54.3965 47.4518 56.5912 46.4412C56.5912 46.4412 54.4705 40.2399 60.9311 40.0656C60.9311 40.0656 61.7823 36.1287 64.9528 35.188C68.1232 34.2477 70.8405 36.9996 70.8405 36.9996C70.8405 36.9996 72.8963 34.6223 76.0316 34.9923C79.1674 35.3623 79.2021 38.6373 80.4911 39.369C81.7801 40.1007 85.6823 38.4283 87.4241 40.5188C89.1663 42.6089 87.8422 47.4518 87.8422 47.4518C87.8422 47.4518 90.8036 48.0438 89.8281 51.249C89.8281 51.249 93.4736 63.7632 80.5609 62.1192L66.417 63.0946Z" fill="#29306E"/>
<path d="M76.6762 68.5424V61.5145H69.5864V68.3663C70.8052 68.899 73.308 69.6018 76.6762 68.5424Z" fill="#D9463A"/>
<path d="M84.5983 74.4896C82.0194 73.2094 78.1729 71.833 73.2234 71.5654C68.1514 71.8397 64.2359 73.2788 61.6575 74.5853C62.4644 78.671 65.2084 85.1006 73.2234 85.1006C80.6995 85.1006 83.5886 79.2697 84.5983 74.4896Z" fill="#F25745"/>
<path d="M83.9026 50.899C83.0673 50.899 82.3071 51.2126 81.7264 51.7252C77.371 50.8008 76.9103 46.2217 76.9103 46.2217C72.8865 48.1032 70.6655 43.7394 70.6655 43.7394C69.3849 49.1484 64.708 49.462 64.708 49.462C64.708 49.462 65.0475 53.4599 63.7409 53.5903C62.4348 53.7212 62.3386 50.69 60.3777 51.0495C59.041 51.4685 58.071 52.7165 58.071 54.1916C58.071 56.0095 59.5449 57.4837 61.3632 57.4837C61.9632 57.4837 62.5238 57.3206 63.008 57.0405C63.7087 61.4761 65.8051 66.96 73.1302 66.96C80.4742 66.96 82.0948 61.4531 82.2089 57.0108C82.7039 57.3089 83.2822 57.4837 83.9026 57.4837C85.7209 57.4837 87.1952 56.0095 87.1952 54.1916C87.1952 52.3732 85.7209 50.899 83.9026 50.899Z" fill="#F25745"/>
<path d="M59.8845 53.9662C59.8845 53.9662 61.1213 54.0883 61.7484 53.6179" stroke="#29306E" stroke-width="0.796304" stroke-miterlimit="10" stroke-linecap="round" stroke-linejoin="round"/>
<path d="M61.607 55.6035C61.607 55.6035 60.9493 55.1051 60.9297 53.9261" stroke="#29306E" stroke-width="0.796304" stroke-miterlimit="10" stroke-linecap="round" stroke-linejoin="round"/>
<path d="M85.5846 53.9662C85.5846 53.9662 84.3479 54.0883 83.7207 53.6179" stroke="#29306E" stroke-width="0.796304" stroke-miterlimit="10" stroke-linecap="round" stroke-linejoin="round"/>
<path d="M83.8608 55.6035C83.8608 55.6035 84.5185 55.1051 84.5382 53.9261" stroke="#29306E" stroke-width="0.796304" stroke-miterlimit="10" stroke-linecap="round" stroke-linejoin="round"/>
<path d="M66.647 52.1771C67.4255 52.4697 68.6752 52.6575 69.8016 51.5796" stroke="#29306E" stroke-width="0.796304" stroke-miterlimit="10" stroke-linecap="round" stroke-linejoin="round"/>
<path d="M79.7022 52.175C78.9241 52.4689 77.6715 52.66 76.5417 51.5796" stroke="#29306E" stroke-width="0.796304" stroke-miterlimit="10" stroke-linecap="round" stroke-linejoin="round"/>
<path d="M72.5317 50.0905L72.8541 51.5798C72.8541 51.5798 74.7527 51.423 74.8836 52.5987C75.014 53.7748 72.5317 53.6181 72.5317 53.6181" stroke="#29306E" stroke-width="0.796304" stroke-miterlimit="10" stroke-linecap="round" stroke-linejoin="round"/>
<path d="M69.1729 56.4665C69.1729 56.4665 73.5454 58.6088 77.0683 56.2311" stroke="#29306E" stroke-width="0.796304" stroke-miterlimit="10" stroke-linecap="round" stroke-linejoin="round"/>
<path d="M68.3581 58.4492C68.3581 57.223 67.3643 56.2291 66.1384 56.2291C64.9125 56.2291 63.9187 57.223 63.9187 58.4492C63.9187 59.6751 64.9125 60.6689 66.1384 60.6689C67.3643 60.6689 68.3581 59.6751 68.3581 58.4492Z" fill="#F3636A"/>
<path d="M81.5133 58.4492C81.5133 57.223 80.5195 56.2291 79.2936 56.2291C78.0677 56.2291 77.0735 57.223 77.0735 58.4492C77.0735 59.6751 78.0677 60.6689 79.2936 60.6689C80.5195 60.6689 81.5133 59.6751 81.5133 58.4492Z" fill="#F3636A"/>
</svg>
