<svg width="62" height="63" viewBox="0 0 62 63" fill="none" xmlns="http://www.w3.org/2000/svg">
<g clip-path="url(#clip0_11233_25768)">
<path d="M15.5 0.5C13.3687 0.5 11.625 2.24375 11.625 4.375V58.625C11.625 60.7562 13.3687 62.5 15.5 62.5H54.25C56.3812 62.5 58.125 60.7562 58.125 58.625V16L42.625 0.5H15.5Z" fill="#E2E5E7"/>
<path d="M46.5 16H58.125L42.625 0.5V12.125C42.625 14.2563 44.3687 16 46.5 16Z" fill="#B0B7BD"/>
<path d="M58.125 27.625L46.5 16H58.125V27.625Z" fill="#D4D4D8"/>
<path d="M50.375 50.875C50.375 51.9406 49.5031 52.8125 48.4375 52.8125H5.8125C4.74687 52.8125 3.875 51.9406 3.875 50.875V31.5C3.875 30.4344 4.74687 29.5625 5.8125 29.5625H48.4375C49.5031 29.5625 50.375 30.4344 50.375 31.5V50.875Z" fill="#F15642"/>
<path d="M12.3203 37.2101C12.3203 36.6986 12.7233 36.1406 13.3724 36.1406H16.9509C18.9659 36.1406 20.7794 37.4891 20.7794 40.0737C20.7794 42.5228 18.9659 43.8868 16.9509 43.8868H14.3644V45.9328C14.3644 46.6148 13.9304 47.0003 13.3724 47.0003C12.8609 47.0003 12.3203 46.6148 12.3203 45.9328V37.2101ZM14.3644 38.0917V41.9512H16.9509C17.9894 41.9512 18.8109 41.0347 18.8109 40.0737C18.8109 38.9907 17.9894 38.0917 16.9509 38.0917H14.3644Z" fill="white"/>
<path d="M23.8136 47.0005C23.3021 47.0005 22.7441 46.7215 22.7441 46.0414V37.2413C22.7441 36.6852 23.3021 36.2803 23.8136 36.2803H27.3612C34.4408 36.2803 34.2858 47.0005 27.5007 47.0005H23.8136ZM24.7901 38.1713V45.1114H27.3612C31.5443 45.1114 31.7303 38.1713 27.3612 38.1713H24.7901Z" fill="white"/>
<path d="M36.7971 38.2953V40.7578H40.7477C41.3057 40.7578 41.8637 41.3158 41.8637 41.8564C41.8637 42.3679 41.3057 42.7864 40.7477 42.7864H36.7971V46.0394C36.7971 46.5819 36.4116 46.9985 35.8691 46.9985C35.1871 46.9985 34.7705 46.5819 34.7705 46.0394V37.2393C34.7705 36.6833 35.189 36.2783 35.8691 36.2783H41.3076C41.9896 36.2783 42.3926 36.6833 42.3926 37.2393C42.3926 37.7353 41.9896 38.2933 41.3076 38.2933H36.7971V38.2953Z" fill="white"/>
<path d="M48.4375 52.8125H11.625V54.75H48.4375C49.5031 54.75 50.375 53.8781 50.375 52.8125V50.875C50.375 51.9406 49.5031 52.8125 48.4375 52.8125Z" fill="#D4D4D8"/>
</g>
<defs>
<clipPath id="clip0_11233_25768">
<rect width="62" height="62" fill="white" transform="translate(0 0.5)"/>
</clipPath>
</defs>
</svg>
