<svg width="26" height="27" viewBox="0 0 26 27" fill="none" xmlns="http://www.w3.org/2000/svg">
<path opacity="0.3" d="M11.9167 14.5837H7.58333C7.29602 14.5837 7.02047 14.4695 6.8173 14.2664C6.61414 14.0632 6.5 13.7876 6.5 13.5003C6.5 13.213 6.61414 12.9375 6.8173 12.7343C7.02047 12.5311 7.29602 12.417 7.58333 12.417H11.9167V14.5837ZM18.4167 12.417H14.0833V14.5837H18.4167C18.704 14.5837 18.9795 14.4695 19.1827 14.2664C19.3859 14.0632 19.5 13.7876 19.5 13.5003C19.5 13.213 19.3859 12.9375 19.1827 12.7343C18.9795 12.5311 18.704 12.417 18.4167 12.417Z" fill="#00BAC9"/>
<path opacity="0.3" d="M17.5385 2.66699H8.46018C4.98401 2.66699 2.16602 5.48499 2.16602 8.96116V18.0395C2.16602 21.5157 4.98401 24.3337 8.46018 24.3337H17.5385C21.0147 24.3337 23.8327 21.5157 23.8327 18.0395V8.96116C23.8327 5.48499 21.0147 2.66699 17.5385 2.66699Z" fill="#00BAC9"/>
<path d="M18.4167 12.4167H14.0833V8.08333C14.0833 7.79602 13.9692 7.52047 13.766 7.3173C13.5629 7.11414 13.2873 7 13 7C12.7127 7 12.4371 7.11414 12.234 7.3173C12.0308 7.52047 11.9167 7.79602 11.9167 8.08333V12.4167H7.58333C7.29602 12.4167 7.02047 12.5308 6.8173 12.734C6.61414 12.9371 6.5 13.2127 6.5 13.5C6.5 13.7873 6.61414 14.0629 6.8173 14.266C7.02047 14.4692 7.29602 14.5833 7.58333 14.5833H11.9167V18.9167C11.9167 19.204 12.0308 19.4795 12.234 19.6827C12.4371 19.8859 12.7127 20 13 20C13.2873 20 13.5629 19.8859 13.766 19.6827C13.9692 19.4795 14.0833 19.204 14.0833 18.9167V14.5833H18.4167C18.704 14.5833 18.9795 14.4692 19.1827 14.266C19.3859 14.0629 19.5 13.7873 19.5 13.5C19.5 13.2127 19.3859 12.9371 19.1827 12.734C18.9795 12.5308 18.704 12.4167 18.4167 12.4167Z" fill="#00BAC9"/>
</svg>
