<svg width="16" height="17" viewBox="0 0 16 17" fill="none" xmlns="http://www.w3.org/2000/svg">
<path opacity="0.3" fill-rule="evenodd" clip-rule="evenodd" d="M6.58572 8.97159L5.17151 10.3858C4.91116 10.6462 4.91116 11.0683 5.17151 11.3286C5.43185 11.589 5.85397 11.589 6.11431 11.3286L7.52853 9.9144L7.99993 10.3858C8.52063 10.9065 8.52063 11.7507 7.99993 12.2714L6.11431 14.157C5.59362 14.6777 4.7494 14.6777 4.2287 14.157L2.34308 12.2714C1.82238 11.7507 1.82238 10.9065 2.34308 10.3858L4.2287 8.50019C4.7494 7.97949 5.59362 7.97949 6.11431 8.50019L6.58572 8.97159Z" fill="#A1A1AA"/>
<path fill-rule="evenodd" clip-rule="evenodd" d="M9.41403 8.02841L10.8282 6.6142C11.0886 6.35385 11.0886 5.93174 10.8282 5.67139C10.5679 5.41104 10.1458 5.41104 9.88543 5.67139L8.47122 7.0856L7.99982 6.6142C7.47912 6.0935 7.47912 5.24928 7.99982 4.72858L9.88543 2.84296C10.4061 2.32226 11.2504 2.32226 11.7711 2.84296L13.6567 4.72858C14.1774 5.24928 14.1774 6.0935 13.6567 6.6142L11.7711 8.49981C11.2504 9.02051 10.4061 9.02051 9.88543 8.49981L9.41403 8.02841Z" fill="#A1A1AA"/>
<path opacity="0.3" fill-rule="evenodd" clip-rule="evenodd" d="M2.81466 4.25754C2.55431 3.99719 2.55431 3.57508 2.81466 3.31474C3.07501 3.05439 3.49712 3.05439 3.75747 3.31473L4.70028 4.25754C4.96063 4.51789 4.96063 4.94 4.70028 5.20035C4.43993 5.4607 4.01782 5.4607 3.75747 5.20035L2.81466 4.25754ZM5.56261 2.17646C5.56261 1.80827 5.86109 1.5098 6.22928 1.5098C6.59747 1.5098 6.89595 1.80827 6.89595 2.17646L6.89595 3.50979C6.89595 3.87798 6.59747 4.17646 6.22928 4.17646C5.86109 4.17646 5.56261 3.87798 5.56261 3.5098L5.56261 2.17646ZM1.12455 6.61452C1.12455 6.24633 1.42303 5.94785 1.79122 5.94785L3.12455 5.94785C3.49274 5.94785 3.79121 6.24633 3.79121 6.61452C3.79121 6.98271 3.49274 7.28119 3.12455 7.28119L1.79122 7.28119C1.42303 7.28119 1.12455 6.98271 1.12455 6.61452Z" fill="#A1A1AA"/>
<path opacity="0.3" fill-rule="evenodd" clip-rule="evenodd" d="M12.1618 13.6048C12.4221 13.8651 12.8442 13.8651 13.1046 13.6048C13.3649 13.3444 13.3649 12.9223 13.1046 12.662L12.1618 11.7192C11.9014 11.4588 11.4793 11.4588 11.2189 11.7192C10.9586 11.9795 10.9586 12.4016 11.2189 12.662L12.1618 13.6048ZM14.2429 10.8568C14.6111 10.8568 14.9095 10.5584 14.9095 10.1902C14.9095 9.82198 14.6111 9.52351 14.2429 9.52351H12.9095C12.5413 9.52351 12.2429 9.82198 12.2429 10.1902C12.2429 10.5584 12.5413 10.8568 12.9095 10.8568L14.2429 10.8568ZM9.8048 15.2949C10.173 15.2949 10.4715 14.9964 10.4715 14.6282L10.4715 13.2949C10.4715 12.9267 10.173 12.6282 9.8048 12.6282C9.43661 12.6282 9.13814 12.9267 9.13814 13.2949L9.13814 14.6282C9.13814 14.9964 9.43661 15.2949 9.8048 15.2949Z" fill="#A1A1AA"/>
</svg>
