<svg width="14" height="15" viewBox="0 0 14 15" fill="none" xmlns="http://www.w3.org/2000/svg">
<path d="M9.91667 4.00016C9.91667 5.61099 8.61083 6.91683 7 6.91683C5.38917 6.91683 4.08333 5.61099 4.08333 4.00016C4.08333 2.38933 5.38917 1.0835 7 1.0835C8.61083 1.0835 9.91667 2.38933 9.91667 4.00016Z" fill="#A1A1AA"/>
<path opacity="0.25" fill-rule="evenodd" clip-rule="evenodd" d="M10.9772 8.73966C10.6176 8.32277 9.99998 8.34425 9.51705 8.60858C8.76973 9.01762 7.91202 9.25018 7 9.25018C6.08798 9.25018 5.23027 9.01762 4.48295 8.60858C4.00001 8.34424 3.38241 8.32276 3.02284 8.73966C2.22963 9.65933 1.75 10.8571 1.75 12.1668V12.7502C1.75 13.3945 2.27233 13.9168 2.91667 13.9168H11.0833C11.7277 13.9168 12.25 13.3945 12.25 12.7502V12.1668C12.25 10.8571 11.7704 9.65933 10.9772 8.73966Z" fill="#A1A1AA"/>
</svg>
