<svg width="14" height="15" viewBox="0 0 14 15" fill="none" xmlns="http://www.w3.org/2000/svg">
<path opacity="0.3" d="M6.66464 4.77275C7.53964 3.89775 8.88131 3.89775 9.75631 4.77275C10.6313 5.64775 10.6313 6.98942 9.75631 7.86442C8.88131 8.73942 7.53964 8.73942 6.66464 7.86442C5.78965 7.04775 5.78965 5.64775 6.66464 4.77275ZM4.91465 3.02275C3.10631 4.83109 3.10631 7.80609 4.91465 9.61442C6.72297 11.4228 9.69797 11.4228 11.5063 9.61442C13.3146 7.80609 13.3146 4.83109 11.5063 3.02275C9.63964 1.21442 6.72297 1.21442 4.91465 3.02275Z" fill="#A1A1AA"/>
<path d="M6.60625 10.7232C5.84792 11.0149 4.91459 10.8399 4.27292 10.2565C3.39792 9.38152 3.39792 8.03986 4.27292 7.16486C5.14792 6.28984 6.48959 6.28984 7.36459 7.16486C7.71459 7.51486 7.94792 8.03986 8.00626 8.50652C8.64792 8.56486 9.28959 8.38985 9.75626 7.86486C9.98959 7.63152 10.1646 7.39819 10.2229 7.10652C9.98959 6.46485 9.63959 5.88151 9.11459 5.41484C7.30625 3.60651 4.33125 3.60651 2.52292 5.41484C0.714588 7.22319 0.714588 10.1982 2.52292 12.0065C4.33125 13.8149 7.30625 13.8149 9.11459 12.0065C9.52292 11.5982 9.87292 11.1315 10.0479 10.6065C8.99792 11.0732 7.71459 11.1315 6.60625 10.7232Z" fill="#A1A1AA"/>
</svg>
