<svg width="165" height="184" viewBox="0 0 165 184" fill="none" xmlns="http://www.w3.org/2000/svg">
<g clip-path="url(#clip0_11229_14441)">
<path fill-rule="evenodd" clip-rule="evenodd" d="M95.2051 115.566L62.994 200.678L40.4164 263.409H27.5427L58.5778 115.566L95.2051 115.566Z" fill="#008697"/>
<path fill-rule="evenodd" clip-rule="evenodd" d="M103.166 115.566C103.516 144.77 103.263 184.088 104.079 185.908C104.623 187.122 121.539 200.949 154.828 227.39L148.193 238.657C108.671 213.207 87.8995 198.786 85.8789 195.395C82.848 190.309 67.6211 143.505 59.6989 115.566H103.166Z" fill="#026C7A"/>
<path fill-rule="evenodd" clip-rule="evenodd" d="M84.3633 34.445C87.4503 30.8267 89.5396 26.3924 89.1905 21.4237C88.1845 7.10735 68.2274 10.2568 64.3453 17.4824C60.4632 24.7081 60.9245 43.0366 65.9417 44.328C67.9426 44.843 72.2051 43.5814 76.5432 40.9703L73.8202 60.2071H89.8984L84.3633 34.445Z" fill="#CFAF92"/>
<path fill-rule="evenodd" clip-rule="evenodd" d="M57.2223 7.46603C57.5553 6.29738 58.4508 5.29676 59.6577 4.99991C59.9504 4.92791 60.2526 4.89882 60.5538 4.91095C60.6618 4.91525 60.6921 4.94636 60.7426 4.87092C60.78 4.815 60.7809 4.67837 60.7963 4.61264C60.8442 4.40827 60.9042 4.20644 60.9782 4.00984C61.2308 3.3393 61.6551 2.74585 62.1667 2.24594C63.1236 1.3107 64.4165 0.665244 65.7598 0.54847C66.495 0.484592 67.2248 0.60387 67.9198 0.842688C68.2797 0.966315 68.6286 1.12026 68.9685 1.29045C69.0708 1.34168 69.4028 1.59258 69.5054 1.57632C69.6188 1.5584 69.8468 1.27696 69.939 1.20632C71.0788 0.333068 72.4863 -0.0102668 73.906 0.000233115C75.5085 0.012051 77.0515 0.0920093 78.388 1.06749C78.6709 1.27402 78.9404 1.50014 79.1969 1.73821C79.332 1.86355 79.4629 1.99359 79.5877 2.12904C79.663 2.21075 79.7363 2.29431 79.8068 2.38011C79.9266 2.52575 79.9074 2.57359 80.075 2.47198C80.7182 2.08177 81.4636 1.89927 82.2143 1.9914C82.6601 2.04614 83.0938 2.17978 83.5056 2.35569C83.6459 2.41557 83.9704 2.65443 84.1199 2.65676C84.2681 2.65904 84.5881 2.43762 84.7408 2.38134C85.5657 2.07729 86.4547 2.00234 87.3217 2.14283C88.216 2.28781 89.0945 2.64411 89.8522 3.13646C90.2166 3.3733 90.5346 3.63571 90.79 3.98788C90.9003 4.13993 90.9999 4.30077 91.1249 4.44175C91.1981 4.5243 91.343 4.609 91.3823 4.71347C91.3588 4.65091 92.3603 4.26536 92.4548 4.24071C92.9583 4.10939 93.471 4.13602 93.964 4.29804C94.8912 4.60272 95.6885 5.28596 96.3438 5.98647C96.6803 6.34627 96.9749 6.744 97.2249 7.16773C97.3447 7.3707 97.4543 7.57947 97.5545 7.79267C97.6031 7.89596 97.6353 8.02516 97.6993 8.11821C97.7818 8.23811 97.8372 8.24039 97.9866 8.29267C98.7454 8.55811 99.437 9.00741 99.9638 9.61452C100.497 10.2287 100.842 10.9851 100.987 11.7817C100.996 11.8286 101.001 12.023 101.028 12.0484C101.066 12.0834 101.219 12.0679 101.276 12.0747C101.476 12.0981 101.675 12.133 101.871 12.1793C102.232 12.2646 102.583 12.3901 102.915 12.5544C104.211 13.1945 105.137 14.3946 105.591 15.745C106.067 17.1622 106.058 18.7858 105.49 20.1766C105.398 20.4012 105.288 20.6192 105.16 20.8255C105.081 20.9521 105.056 20.9524 105.107 21.0853C105.164 21.2331 105.268 21.3767 105.336 21.5211C105.557 21.9924 105.712 22.4922 105.809 23.0027C105.969 23.8401 106.049 24.7201 105.891 25.5639C105.817 25.9557 105.69 26.3387 105.495 26.6876C105.395 26.8655 105.279 27.0343 105.147 27.1904C105.079 27.2714 105.007 27.3489 104.931 27.423C104.888 27.4654 104.831 27.5024 104.794 27.5498C104.704 27.6651 104.685 27.5703 104.732 27.7397C104.797 27.9765 104.944 28.2102 105.034 28.4407C105.126 28.6782 105.21 28.9189 105.287 29.162C105.442 29.6544 105.573 30.1556 105.655 30.6654C105.813 31.6443 105.785 32.6873 105.322 33.5857C105.123 33.97 104.839 34.3071 104.494 34.5693C104.325 34.6976 104.142 34.8081 103.951 34.899C103.852 34.9457 103.726 34.9657 103.681 35.0609C103.633 35.1633 103.705 35.3666 103.721 35.481C103.864 36.4766 103.935 37.522 103.639 38.4976C103.366 39.3963 102.765 40.1897 101.984 40.715C100.471 41.734 98.4301 41.6765 96.8395 40.8608C96.4249 40.6481 96.037 40.384 95.691 40.0726C94.8099 41.257 92.9968 41.2196 91.709 40.8821C90.1047 40.4616 88.8173 39.3476 88.0756 37.884C87.0614 39.1169 84.9329 38.7168 84.2296 37.3794C84.0575 37.052 83.9554 36.6912 83.9051 36.3262C83.8786 36.1342 83.8955 35.9405 83.8756 35.7501C83.8503 35.5074 83.6879 35.2715 83.5946 35.0368C83.4129 34.5799 83.3001 34.1079 83.2952 33.6151C83.2927 33.3578 83.3253 33.107 83.3498 32.8517C83.3719 32.622 83.3081 32.4079 83.2718 32.1811C83.6833 32.2488 84.1846 32.138 84.5722 32.0188C84.9526 31.9019 85.309 31.594 85.5775 31.3128C86.2009 30.6598 86.5818 29.8037 86.8423 28.9517C87.414 27.0818 87.1797 24.8383 85.2961 23.812C84.4187 23.3339 81.79 23.3355 80.745 23.5718C79.6461 23.8202 78.4004 26.2414 78.3391 26.469C78.3012 26.6098 78.3203 26.7841 78.1907 26.878C77.9059 27.0843 77.4363 26.7262 77.2263 26.5495C76.8638 26.2445 76.6053 25.8386 76.3814 25.4272C75.8935 24.531 75.5002 23.5699 75.2224 22.5887C75.0082 21.8323 74.8712 21.0523 74.5913 20.3151C74.3127 19.5816 73.8735 18.926 73.1907 18.5105C72.4479 18.0585 71.5965 17.8204 70.7811 17.5363C69.9728 17.2548 69.1785 16.9107 68.552 16.3134C68.4142 16.182 68.2804 16.0425 68.1695 15.8878C68.082 15.7657 67.9955 15.532 67.8621 15.4546C67.6547 15.3342 67.3521 15.6473 67.1728 15.761C66.2882 16.322 65.5502 17.1045 64.955 17.9592C64.3631 18.8093 63.8774 19.6273 63.4827 20.5766C63.1899 21.2806 63.0072 22.1822 62.4923 22.7592C62.2625 23.0168 60.5538 23.1727 60.0003 22.9478C59.4469 22.7228 58.8266 22.1388 58.6409 21.7728C58.4507 21.3982 58.4053 20.9867 58.4865 20.5766C58.5343 20.3353 58.6319 20.1099 58.6853 19.8729C58.7302 19.6739 58.7711 19.4857 58.8681 19.3034C59.052 18.9578 59.3662 18.7094 59.745 18.6055C59.3507 18.2425 59.024 17.8082 58.798 17.3228C58.563 16.8184 58.364 16.2051 58.3075 15.6515C58.2615 15.2019 58.3324 14.7361 58.5789 14.3497C58.8375 13.9444 59.2955 13.68 59.6919 13.4271C59.0865 12.9542 58.5683 12.3789 58.1424 11.7421C57.314 10.5036 56.8016 8.94252 57.2223 7.46603Z" fill="#27272A"/>
<path fill-rule="evenodd" clip-rule="evenodd" d="M38.4231 107.104L17.0537 122.774C11.2579 124.336 6.41566 126.279 2.52702 128.603C1.60847 129.439 0.498291 131.132 4.30779 130.839C8.11728 130.547 12.1375 130.41 12.6631 131.708C13.1888 133.005 10.8835 134.557 11.946 136.308C12.6544 137.475 16.0009 134.548 21.9857 127.528L43.1471 118.765L38.4231 107.104ZM120.471 107.645L106.471 107.7C115.115 135.565 119.782 150.351 120.471 152.056C122.021 155.892 118.741 161.734 117.338 164.874C121.907 166.916 121.42 159.355 127.184 162.033C132.444 164.477 136.446 168.905 142.524 165.16C143.271 164.7 144.09 162.966 142.112 161.611C137.183 158.236 130.079 152.329 129.12 150.385C127.811 147.733 124.928 133.487 120.471 107.645Z" fill="#CFAF92"/>
<path fill-rule="evenodd" clip-rule="evenodd" d="M80.6869 48.985L74.894 47.9928C53.4006 66.5336 44.5724 102.153 18.2268 121.022L24.568 128.871C70.2729 123.22 81.6012 79.773 80.6869 48.985Z" fill="#00BAC9"/>
<path fill-rule="evenodd" clip-rule="evenodd" d="M105.938 121.681C82.71 121.681 65.6244 121.681 54.6806 121.681C52.3384 121.681 52.7798 118.304 53.1184 116.6C57.0259 96.9314 72.2796 75.7302 72.2796 47.7331L87.0645 45.418C99.2935 65.058 103.523 89.2387 105.938 121.681Z" fill="#DDE3E9"/>
<path fill-rule="evenodd" clip-rule="evenodd" d="M105.528 64.7229C107.675 64.1065 109.376 62.6689 110.629 60.4101C116.033 50.6732 114.082 45.3122 108.307 43.5501C102.532 41.7879 97.3814 45.4177 88.1802 45.4177C87.6797 45.4177 87.2213 45.449 86.805 45.5116L82.1766 45.7754C68.8971 90.7173 65.2347 120.702 71.1894 135.729H111.533C113.923 141.295 116.21 145.978 118.394 149.777H129.387C130.422 116.374 122.469 88.0222 105.528 64.7229Z" fill="#26F5EB"/>
<path fill-rule="evenodd" clip-rule="evenodd" d="M102.746 112.648C101.477 123.249 99.4153 130.943 96.5597 135.73H111.531C108.743 129.237 105.815 121.544 102.746 112.648H102.746Z" fill="black" fill-opacity="0.1"/>
</g>
<defs>
<clipPath id="clip0_11229_14441">
<rect width="165.508" height="184" fill="white" transform="translate(0.746094)"/>
</clipPath>
</defs>
</svg>
