<svg width="30" height="30" viewBox="0 0 30 30" fill="none" xmlns="http://www.w3.org/2000/svg">
<path opacity="0.3" d="M15 27.5C21.9036 27.5 27.5 21.9036 27.5 15C27.5 8.09644 21.9036 2.5 15 2.5C8.09644 2.5 2.5 8.09644 2.5 15C2.5 21.9036 8.09644 27.5 15 27.5Z" fill="#00BAC9"/>
<path d="M18.6624 16.25C18.4138 16.25 18.1753 16.1512 17.9995 15.9754C17.8237 15.7996 17.7249 15.5611 17.7249 15.3125V11.725C17.7216 11.1525 17.4927 10.6043 17.0879 10.1995C16.6831 9.79467 16.1349 9.56578 15.5624 9.5625H14.4374C13.8649 9.56578 13.3167 9.79467 12.9119 10.1995C12.5071 10.6043 12.2782 11.1525 12.2749 11.725V15.325C12.2749 15.5736 12.1761 15.8121 12.0003 15.9879C11.8245 16.1637 11.586 16.2625 11.3374 16.2625C11.0888 16.2625 10.8503 16.1637 10.6745 15.9879C10.4987 15.8121 10.3999 15.5736 10.3999 15.325V11.725C10.3999 10.6542 10.8253 9.62723 11.5825 8.87006C12.3396 8.11288 13.3666 7.6875 14.4374 7.6875H15.5624C16.0926 7.6875 16.6176 7.79193 17.1075 7.99484C17.5973 8.19774 18.0424 8.49514 18.4173 8.87006C18.7923 9.24497 19.0897 9.69006 19.2926 10.1799C19.4955 10.6698 19.5999 11.1948 19.5999 11.725V15.325C19.5935 15.5705 19.4922 15.8039 19.3175 15.9763C19.1427 16.1488 18.9079 16.2469 18.6624 16.25Z" fill="#00BAC9"/>
<path d="M19.025 13.0625H10.975C10.2887 13.0625 9.63059 13.3351 9.14534 13.8204C8.66009 14.3056 8.38748 14.9638 8.38748 15.65V18.75C8.38251 19.0929 8.44577 19.4334 8.57357 19.7517C8.70138 20.07 8.89118 20.3597 9.13195 20.6039C9.37272 20.8482 9.65965 21.0421 9.97605 21.1745C10.2924 21.3069 10.632 21.375 10.975 21.375H19.025C19.368 21.375 19.7075 21.3069 20.0239 21.1745C20.3403 21.0421 20.6272 20.8482 20.868 20.6039C21.1088 20.3597 21.2986 20.07 21.4264 19.7517C21.5542 19.4334 21.6175 19.0929 21.6125 18.75V15.65C21.6125 14.9638 21.3399 14.3056 20.8546 13.8204C20.3694 13.3351 19.7112 13.0625 19.025 13.0625ZM15 18.55C14.7344 18.5525 14.4741 18.4758 14.2522 18.3298C14.0304 18.1838 13.857 17.975 13.7542 17.7301C13.6515 17.4852 13.6239 17.2153 13.6751 16.9547C13.7263 16.6941 13.854 16.4546 14.0418 16.2668C14.2296 16.079 14.469 15.9514 14.7297 15.9002C14.9903 15.8489 15.2602 15.8765 15.5051 15.9793C15.75 16.082 15.9588 16.2554 16.1048 16.4773C16.2508 16.6991 16.3275 16.9594 16.325 17.225C16.325 17.5764 16.1854 17.9134 15.9369 18.1619C15.6884 18.4104 15.3514 18.55 15 18.55Z" fill="#00BAC9"/>
</svg>
