<svg width="24" height="21" viewBox="0 0 24 21" fill="none" xmlns="http://www.w3.org/2000/svg">
<g opacity="0.3">
<path d="M8.86259 13C8.86237 11.8337 9.2505 10.7005 9.96575 9.77932C10.681 8.8581 11.6826 8.20127 12.8126 7.91247C14.2715 7.53569 15.8201 7.74665 17.1251 8.49998C17.8268 8.08971 18.6085 7.83498 19.4172 7.75303C20.2259 7.67108 21.0428 7.76382 21.8126 8.02497C22.0961 8.1253 22.3719 8.24647 22.6376 8.38747C22.6971 7.93143 22.7305 7.47234 22.7376 7.01248C22.7224 5.63932 22.2864 4.30387 21.4884 3.18627C20.6905 2.06867 19.5689 1.22269 18.2751 0.762475C17.1435 0.372418 15.9331 0.267593 14.7513 0.457293C13.5695 0.646993 12.4528 1.12536 11.5001 1.84997C10.6228 1.17841 9.60345 0.716593 8.5201 0.499922C7.43675 0.283252 6.31817 0.317477 5.25009 0.599975C3.82058 0.970545 2.55431 1.8047 1.64955 2.97185C0.74479 4.13899 0.252615 5.57322 0.250087 7.04997C0.125087 15 9.00009 19.225 11.0626 20.1125C11.336 20.2185 11.6392 20.2185 11.9126 20.1125C12.1168 20.0493 12.3172 19.9742 12.5126 19.8875C11.4181 19.0949 10.52 18.0619 9.8872 16.8679C9.25444 15.6739 8.90392 14.3507 8.86259 13Z" fill="#00BAC9"/>
</g>
<path d="M17.125 10.8127L16.55 10.3752C15.9033 9.87185 15.1069 9.59907 14.2875 9.60021C13.9464 9.60482 13.6069 9.64674 13.275 9.72521C12.5521 9.92579 11.9155 10.359 11.4636 10.9578C11.0116 11.5565 10.7696 12.2876 10.775 13.0377C10.6875 17.6502 16.1375 20.2002 17.2375 20.6627C18.175 20.3002 23.4875 18.2252 23.4875 12.9502C23.4637 12.2619 23.236 11.5962 22.8331 11.0376C22.4303 10.4789 21.8706 10.0526 21.225 9.81271C20.6335 9.60172 19.9985 9.54265 19.3782 9.64093C18.7579 9.73922 18.1723 9.9917 17.675 10.3752L17.125 10.8127Z" fill="#00BAC9"/>
</svg>
