<svg width="30" height="30" viewBox="0 0 30 30" fill="none" xmlns="http://www.w3.org/2000/svg">
<path d="M10 27.5C9.66848 27.5 9.35054 27.3683 9.11612 27.1339C8.8817 26.8995 8.75 26.5815 8.75 26.25V11.25C8.75 10.9185 8.8817 10.6005 9.11612 10.3661C9.35054 10.1317 9.66848 10 10 10C10.3315 10 10.6495 10.1317 10.8839 10.3661C11.1183 10.6005 11.25 10.9185 11.25 11.25V26.25C11.25 26.5815 11.1183 26.8995 10.8839 27.1339C10.6495 27.3683 10.3315 27.5 10 27.5Z" fill="#00BAC9"/>
<path opacity="0.3" d="M5 18.75C4.66848 18.75 4.35054 18.6183 4.11612 18.3839C3.8817 18.1495 3.75 17.8315 3.75 17.5V7.5C3.75 7.16848 3.8817 6.85054 4.11612 6.61612C4.35054 6.3817 4.66848 6.25 5 6.25C5.33152 6.25 5.64946 6.3817 5.88388 6.61612C6.1183 6.85054 6.25 7.16848 6.25 7.5V17.5C6.25 17.8315 6.1183 18.1495 5.88388 18.3839C5.64946 18.6183 5.33152 18.75 5 18.75ZM16.25 23.75V3.75C16.25 3.41848 16.1183 3.10054 15.8839 2.86612C15.6495 2.6317 15.3315 2.5 15 2.5C14.6685 2.5 14.3505 2.6317 14.1161 2.86612C13.8817 3.10054 13.75 3.41848 13.75 3.75V23.75C13.75 24.0815 13.8817 24.3995 14.1161 24.6339C14.3505 24.8683 14.6685 25 15 25C15.3315 25 15.6495 24.8683 15.8839 24.6339C16.1183 24.3995 16.25 24.0815 16.25 23.75ZM21.25 20V6.25C21.25 5.91848 21.1183 5.60054 20.8839 5.36612C20.6495 5.1317 20.3315 5 20 5C19.6685 5 19.3505 5.1317 19.1161 5.36612C18.8817 5.60054 18.75 5.91848 18.75 6.25V20C18.75 20.3315 18.8817 20.6495 19.1161 20.8839C19.3505 21.1183 19.6685 21.25 20 21.25C20.3315 21.25 20.6495 21.1183 20.8839 20.8839C21.1183 20.6495 21.25 20.3315 21.25 20ZM26.25 22.5V12.5C26.25 12.1685 26.1183 11.8505 25.8839 11.6161C25.6495 11.3817 25.3315 11.25 25 11.25C24.6685 11.25 24.3505 11.3817 24.1161 11.6161C23.8817 11.8505 23.75 12.1685 23.75 12.5V22.5C23.75 22.8315 23.8817 23.1495 24.1161 23.3839C24.3505 23.6183 24.6685 23.75 25 23.75C25.3315 23.75 25.6495 23.6183 25.8839 23.3839C26.1183 23.1495 26.25 22.8315 26.25 22.5Z" fill="#00BAC9"/>
</svg>
