<svg width="30" height="30" viewBox="0 0 30 30" fill="none" xmlns="http://www.w3.org/2000/svg">
<path opacity="0.3" d="M20.5875 2.5H9.4125C5.59483 2.5 2.5 5.59483 2.5 9.4125V20.5875C2.5 24.4052 5.59483 27.5 9.4125 27.5H20.5875C24.4052 27.5 27.5 24.4052 27.5 20.5875V9.4125C27.5 5.59483 24.4052 2.5 20.5875 2.5Z" fill="#00BAC9"/>
<path d="M10.625 12.6629C11.9229 12.6629 12.975 11.6108 12.975 10.3129C12.975 9.01502 11.9229 7.96289 10.625 7.96289C9.32716 7.96289 8.27502 9.01502 8.27502 10.3129C8.27502 11.6108 9.32716 12.6629 10.625 12.6629Z" fill="#00BAC9"/>
<path d="M19.2999 12.6629C20.5978 12.6629 21.65 11.6108 21.65 10.3129C21.65 9.01502 20.5978 7.96289 19.2999 7.96289C18.0021 7.96289 16.95 9.01502 16.95 10.3129C16.95 11.6108 18.0021 12.6629 19.2999 12.6629Z" fill="#00BAC9"/>
<path d="M10.5125 16.1504H19.5125C19.7236 16.1488 19.933 16.189 20.1286 16.2686C20.3242 16.3483 20.502 16.4659 20.6519 16.6146C20.8018 16.7634 20.9208 16.9403 21.002 17.1352C21.0832 17.3302 21.125 17.5393 21.125 17.7504C21.125 18.5536 20.9664 19.3489 20.6583 20.0906C20.3501 20.8323 19.8986 21.5059 19.3295 22.0727C18.7604 22.6394 18.085 23.0882 17.342 23.3933C16.599 23.6984 15.8031 23.8537 15 23.8504C13.3843 23.8471 11.836 23.203 10.6947 22.0594C9.55343 20.9158 8.91247 19.3661 8.91248 17.7504C8.91248 17.3261 9.08105 16.9191 9.3811 16.6191C9.68116 16.319 10.0881 16.1504 10.5125 16.1504Z" fill="#00BAC9"/>
</svg>
