<svg width="30" height="30" viewBox="0 0 30 30" fill="none" xmlns="http://www.w3.org/2000/svg">
<path opacity="0.3" d="M15 27.5C21.9036 27.5 27.5 21.9036 27.5 15C27.5 8.09644 21.9036 2.5 15 2.5C8.09644 2.5 2.5 8.09644 2.5 15C2.5 21.9036 8.09644 27.5 15 27.5Z" fill="#00BAC9"/>
<path d="M20.3125 15.9375H15C14.7524 15.9343 14.5158 15.8345 14.3407 15.6593C14.1655 15.4842 14.0657 15.2476 14.0625 15V7.5C14.0625 7.25136 14.1613 7.0129 14.3371 6.83709C14.5129 6.66127 14.7514 6.5625 15 6.5625C15.2486 6.5625 15.4871 6.66127 15.6629 6.83709C15.8387 7.0129 15.9375 7.25136 15.9375 7.5V14.0875H20.3125C20.5611 14.0875 20.7996 14.1863 20.9754 14.3621C21.1512 14.5379 21.25 14.7764 21.25 15.025C21.25 15.2736 21.1512 15.5121 20.9754 15.6879C20.7996 15.8637 20.5611 15.9625 20.3125 15.9625V15.9375Z" fill="#00BAC9"/>
</svg>
