<svg width="26" height="26" viewBox="0 0 26 26" fill="none" xmlns="http://www.w3.org/2000/svg">
<path d="M20.5625 0.500257H10.2625C8.96952 0.500257 7.72955 1.01387 6.81531 1.92811C5.90107 2.84235 5.38745 4.08233 5.38745 5.37526V5.50026H15.7375C17.0304 5.50026 18.2704 6.01387 19.1846 6.92811C20.0988 7.84235 20.6125 9.08233 20.6125 10.3753V17.6753C21.2552 17.6786 21.8923 17.5544 22.4867 17.31C23.0812 17.0655 23.6213 16.7056 24.0758 16.2511C24.5303 15.7966 24.8902 15.2565 25.1347 14.662C25.3791 14.0676 25.5033 13.4305 25.5 12.7878V5.35026C25.4951 4.70736 25.3634 4.07174 25.1124 3.47981C24.8615 2.88789 24.4962 2.35129 24.0375 1.90076C23.5789 1.45023 23.0358 1.09461 22.4395 0.854292C21.8432 0.61397 21.2053 0.493661 20.5625 0.500257Z" fill="#00BAC9"/>
<g opacity="0.3">
<path d="M15.7375 5.5H5.5C4.20808 5.5033 2.97003 6.01797 2.0565 6.9315C1.14297 7.84503 0.6283 9.08308 0.625 10.375V17.8125C0.634875 19.1001 1.15245 20.3317 2.06527 21.2399C2.97808 22.148 4.21239 22.6592 5.5 22.6625H7.025C7.2465 22.6596 7.46526 22.7118 7.66162 22.8143C7.85798 22.9169 8.0258 23.0666 8.15 23.25L9.25 24.8375C9.39742 25.0489 9.59375 25.2216 9.82227 25.3409C10.0508 25.4602 10.3047 25.5224 10.5625 25.5224C10.8203 25.5224 11.0742 25.4602 11.3027 25.3409C11.5313 25.2216 11.7276 25.0489 11.875 24.8375L13 23.25C13.1242 23.0666 13.292 22.9169 13.4884 22.8143C13.6847 22.7118 13.9035 22.6596 14.125 22.6625H15.7125C17.0054 22.6625 18.2454 22.1489 19.1596 21.2346C20.0739 20.3204 20.5875 19.0804 20.5875 17.7875V10.35C20.5809 9.06573 20.0678 7.83592 19.1597 6.92779C18.2516 6.01966 17.0218 5.50657 15.7375 5.5Z" fill="#00BAC9"/>
</g>
<path d="M6.22505 15.3998C6.87398 15.3998 7.40005 14.8737 7.40005 14.2248C7.40005 13.5759 6.87398 13.0498 6.22505 13.0498C5.57611 13.0498 5.05005 13.5759 5.05005 14.2248C5.05005 14.8737 5.57611 15.3998 6.22505 15.3998Z" fill="#00BAC9"/>
<path d="M10.6 15.3998C11.249 15.3998 11.775 14.8737 11.775 14.2248C11.775 13.5759 11.249 13.0498 10.6 13.0498C9.95111 13.0498 9.42505 13.5759 9.42505 14.2248C9.42505 14.8737 9.95111 15.3998 10.6 15.3998Z" fill="#00BAC9"/>
<path d="M14.9626 15.3998C15.6115 15.3998 16.1376 14.8737 16.1376 14.2248C16.1376 13.5759 15.6115 13.0498 14.9626 13.0498C14.3137 13.0498 13.7876 13.5759 13.7876 14.2248C13.7876 14.8737 14.3137 15.3998 14.9626 15.3998Z" fill="#00BAC9"/>
</svg>
