<svg width="30" height="30" viewBox="0 0 30 30" fill="none" xmlns="http://www.w3.org/2000/svg">
<path opacity="0.3" d="M20.0875 2.5H9.95C5.83548 2.5 2.5 5.83548 2.5 9.95V20.05C2.5 24.1645 5.83548 27.5 9.95 27.5H20.0875C24.202 27.5 27.5375 24.1645 27.5375 20.05V9.95C27.5375 5.83548 24.202 2.5 20.0875 2.5Z" fill="#00BAC9"/>
<path d="M9.47496 18.6125C9.35466 18.6137 9.2353 18.5912 9.12374 18.5461C9.01219 18.5011 8.91065 18.4344 8.82496 18.35C8.64939 18.1742 8.55078 17.9359 8.55078 17.6875C8.55078 17.439 8.64939 17.2007 8.82496 17.025L11.8125 13.9C12.1608 13.5484 12.627 13.3386 13.1211 13.3108C13.6152 13.2831 14.102 13.4396 14.4875 13.75L16.425 15.325C16.4355 15.3359 16.4481 15.3446 16.462 15.3506C16.476 15.3566 16.491 15.3596 16.5062 15.3596C16.5214 15.3596 16.5364 15.3566 16.5504 15.3506C16.5643 15.3446 16.577 15.3359 16.5875 15.325L19.875 11.7C20.0507 11.5244 20.289 11.4258 20.5375 11.4258C20.7859 11.4258 21.0242 11.5244 21.2 11.7C21.3755 11.8757 21.4741 12.114 21.4741 12.3625C21.4741 12.6109 21.3755 12.8492 21.2 13.025L17.925 16.6125C17.5804 16.9879 17.1062 17.2186 16.5981 17.2581C16.09 17.2975 15.5859 17.1427 15.1875 16.825L13.2625 15.25C13.252 15.239 13.2393 15.2303 13.2254 15.2243C13.2114 15.2183 13.1964 15.2153 13.1812 15.2153C13.166 15.2153 13.151 15.2183 13.137 15.2243C13.1231 15.2303 13.1105 15.239 13.1 15.25L10.1 18.375C9.92613 18.5253 9.70477 18.6094 9.47496 18.6125Z" fill="#00BAC9"/>
</svg>
