<svg width="30" height="30" viewBox="0 0 30 30" fill="none" xmlns="http://www.w3.org/2000/svg">
<path opacity="0.3" d="M15 27.5C21.9036 27.5 27.5 21.9036 27.5 15C27.5 8.09644 21.9036 2.5 15 2.5C8.09644 2.5 2.5 8.09644 2.5 15C2.5 21.9036 8.09644 27.5 15 27.5Z" fill="#00BAC9"/>
<path d="M19.075 9.26251C18.5086 9.06659 17.908 8.9888 17.3104 9.03395C16.7127 9.0791 16.1306 9.24622 15.6 9.52501C15.41 9.63472 15.1945 9.69248 14.975 9.69248C14.7556 9.69248 14.5401 9.63472 14.35 9.52501C13.3962 9.02675 12.2909 8.90196 11.25 9.17501C10.3898 9.39638 9.62738 9.89692 9.08221 10.5982C8.53704 11.2994 8.23996 12.1618 8.23755 13.05C8.23755 17.3 12.3625 19.7875 14.1875 20.6625C14.4533 20.78 14.7407 20.8406 15.0313 20.8406C15.3219 20.8406 15.6093 20.78 15.875 20.6625C17.675 19.9125 21.7 17.7125 21.7875 12.95C21.7636 12.1326 21.4911 11.3419 21.0066 10.6831C20.522 10.0243 19.8483 9.52883 19.075 9.26251Z" fill="#00BAC9"/>
</svg>
