<svg width="25" height="24" viewBox="0 0 25 24" fill="none" xmlns="http://www.w3.org/2000/svg">
<path opacity="0.3" d="M18.9975 9.75H19.125C20.3676 9.75 21.375 10.7574 21.375 12C21.375 13.2426 20.3676 14.25 19.125 14.25L19.0605 14.25C18.8662 14.2508 18.6909 14.3669 18.6144 14.5454C18.5307 14.7351 18.5693 14.9481 18.7028 15.0847L18.7475 15.1294C19.17 15.5514 19.4074 16.1241 19.4074 16.7213C19.4074 17.3184 19.17 17.8911 18.7481 18.3125C18.3261 18.735 17.7534 18.9724 17.1562 18.9724C16.5591 18.9724 15.9864 18.735 15.5647 18.3128L15.5256 18.2736C15.3831 18.1343 15.1701 18.0957 14.9804 18.1794C14.8019 18.2559 14.6858 18.4312 14.685 18.6225V18.75C14.685 19.9926 13.6776 21 12.435 21C11.1924 21 10.185 19.9926 10.185 18.75C10.1805 18.4999 10.054 18.323 9.82218 18.2361C9.63985 18.1557 9.42691 18.1943 9.29033 18.3278L9.24562 18.3725C8.8236 18.795 8.25092 19.0324 7.65375 19.0324C7.05658 19.0324 6.4839 18.795 6.06247 18.3731C5.63997 17.9511 5.40257 17.3784 5.40257 16.7812C5.40257 16.1841 5.63997 15.6114 6.06217 15.1897L6.10135 15.1506C6.24071 15.0081 6.27932 14.7951 6.19565 14.6054C6.1191 14.4269 5.94381 14.3108 5.7525 14.31H5.625C4.38236 14.31 3.375 13.3026 3.375 12.06C3.375 10.8174 4.38236 9.81 5.625 9.81C5.87508 9.80552 6.052 9.67899 6.13885 9.44718C6.21932 9.26485 6.18071 9.05191 6.04717 8.91533L6.00246 8.87062C5.57997 8.4486 5.34257 7.87592 5.34257 7.27875C5.34257 6.68158 5.57997 6.1089 6.00187 5.68747C6.4239 5.26497 6.99658 5.02757 7.59375 5.02757C8.19092 5.02757 8.7636 5.26497 9.18533 5.68717L9.22445 5.72635C9.36691 5.86571 9.57985 5.90432 9.76218 5.82385L9.86985 5.80115C10.0254 5.71689 10.1243 5.55401 10.125 5.3775V5.25C10.125 4.00736 11.1324 3 12.375 3C13.6176 3 14.625 4.00736 14.625 5.25L14.625 5.31451C14.6258 5.50881 14.7419 5.6841 14.9278 5.76385C15.1101 5.84432 15.3231 5.80571 15.4597 5.67217L15.5044 5.62746C15.9264 5.20497 16.4991 4.96757 17.0963 4.96757C17.6934 4.96757 18.2661 5.20497 18.6875 5.62687C19.11 6.0489 19.3474 6.62158 19.3474 7.21875C19.3474 7.81592 19.11 8.3886 18.6878 8.81033L18.6486 8.84945C18.5093 8.99191 18.4707 9.20485 18.5511 9.38718L18.5739 9.49485C18.6581 9.65041 18.821 9.74929 18.9975 9.75Z" fill="#00BAC9"/>
<path fill-rule="evenodd" clip-rule="evenodd" d="M12.375 15C14.0319 15 15.375 13.6569 15.375 12C15.375 10.3431 14.0319 9 12.375 9C10.7181 9 9.375 10.3431 9.375 12C9.375 13.6569 10.7181 15 12.375 15Z" fill="#00BAC9"/>
</svg>
