<svg width="191" height="188" viewBox="0 0 191 188" fill="none" xmlns="http://www.w3.org/2000/svg">
<g clip-path="url(#clip0_10478_20296)">
<rect x="0.875" width="189.75" height="188" rx="12" fill="#CCF3F5"/>
<g clip-path="url(#clip1_10478_20296)">
<path d="M223.001 155.935C223.001 172.936 208.971 186.721 191.668 186.721C174.363 186.721 160.335 172.936 160.335 155.935C160.335 138.931 174.363 125.148 191.668 125.148C208.971 125.148 223.001 138.931 223.001 155.935Z" fill="#E6F9FA"/>
<path d="M183.834 82.8149C183.834 97.6937 171.56 109.754 156.417 109.754C141.274 109.754 129 97.6937 129 82.8149C129 67.9379 141.274 55.876 156.417 55.876C171.56 55.876 183.834 67.9379 183.834 82.8149Z" fill="#E6F9FA"/>
<path d="M129 140.54C129 166.045 107.957 186.721 81.9993 186.721C56.0434 186.721 35 166.045 35 140.54C35 115.035 56.0434 94.3604 81.9993 94.3604C107.957 94.3604 129 115.035 129 140.54Z" fill="#E6F9FA"/>
<path d="M113.336 40.4847C113.336 61.7388 95.7993 78.9694 74.1679 78.9694C52.5364 78.9694 35 61.7388 35 40.4847C35 19.2306 52.5364 2 74.1679 2C95.7993 2 113.336 19.2306 113.336 40.4847Z" fill="#E6F9FA"/>
<path d="M223.001 25.0898C223.001 37.8422 212.479 48.1795 199.5 48.1795C186.521 48.1795 176 37.8422 176 25.0898C176 12.3373 186.521 2 199.5 2C212.479 2 223.001 12.3373 223.001 25.0898Z" fill="#E6F9FA"/>
<path d="M156.417 28.9376C156.417 35.3147 151.157 40.4833 144.666 40.4833C138.178 40.4833 132.917 35.3147 132.917 28.9376C132.917 22.5622 138.178 17.3936 144.666 17.3936C151.157 17.3936 156.417 22.5622 156.417 28.9376Z" fill="#E6F9FA"/>
</g>
</g>
<defs>
<clipPath id="clip0_10478_20296">
<rect x="0.875" width="189.75" height="188" rx="12" fill="white"/>
</clipPath>
<clipPath id="clip1_10478_20296">
<rect width="188" height="184.721" fill="white" transform="translate(35 2)"/>
</clipPath>
</defs>
</svg>
