<svg width="123" height="138" viewBox="0 0 123 138" fill="none" xmlns="http://www.w3.org/2000/svg">
<g clip-path="url(#clip0_10478_8939)">
<path d="M24.333 40.6673C10.8994 40.6673 0 29.7721 0 16.333C0 2.89386 10.8994 -8 24.333 -8C37.7707 -8 48.6659 2.89525 48.6659 16.333C48.6659 29.7707 59.5626 40.6673 73.0003 40.6673C86.438 40.6673 97.3332 29.7721 97.3332 16.3344C97.3332 2.89664 108.23 -8 121.668 -8C135.105 -8 146.001 2.89525 146.001 16.333C146.001 29.7707 135.105 40.6659 121.668 40.6659C81.3461 40.6659 48.6673 73.3586 48.6673 113.665C48.6673 127.096 37.7721 137.998 24.3344 137.998C10.8966 137.998 0 127.105 0 113.668C0 100.23 10.8953 89.3332 24.333 89.3332C37.7707 89.3332 48.6631 78.438 48.6631 65.0003C48.6631 51.5626 37.7721 40.6673 24.333 40.6673Z" fill="#E6F9FA"/>
<path d="M66.917 98.4578C66.917 76.6074 84.6167 58.916 106.46 58.916C128.304 58.9174 146.001 76.6074 146.001 98.4578C146.001 120.298 128.304 138.001 106.457 138.001C84.614 138.001 66.917 120.298 66.917 98.4578Z" fill="#E6F9FA"/>
</g>
<defs>
<clipPath id="clip0_10478_8939">
<rect width="146" height="146" fill="white" transform="translate(0 -8)"/>
</clipPath>
</defs>
</svg>
