<svg width="191" height="188" viewBox="0 0 191 188" fill="none" xmlns="http://www.w3.org/2000/svg">
<g clip-path="url(#clip0_10478_20292)">
<rect x="0.375" width="189.75" height="188" rx="12" fill="#CCF3F5"/>
<g clip-path="url(#clip1_10478_20292)">
<path d="M67.8329 62.6675C50.5349 62.6675 36.5 48.638 36.5 31.3329C36.5 14.0277 50.5349 0 67.8329 0C85.1362 0 99.1657 14.0295 99.1657 31.3329C99.1657 48.6362 113.197 62.6675 130.5 62.6675C147.804 62.6675 161.833 48.638 161.833 31.3346C161.833 14.0313 175.865 0 193.168 0C210.471 0 224.501 14.0295 224.501 31.3329C224.501 48.6362 210.471 62.6657 193.168 62.6657C141.247 62.6657 99.1675 104.763 99.1675 156.664C99.1675 173.959 85.138 187.997 67.8346 187.997C50.5313 187.997 36.5 173.971 36.5 156.668C36.5 139.365 50.5295 125.333 67.8329 125.333C85.1362 125.333 99.1621 111.304 99.1621 94.0004C99.1621 76.697 85.138 62.6675 67.8329 62.6675Z" fill="#E6F9FA"/>
<path d="M122.667 137.083C122.667 108.947 145.458 86.166 173.586 86.166C201.713 86.1678 224.501 108.947 224.501 137.083C224.501 165.206 201.713 188.001 173.582 188.001C145.455 188.001 122.667 165.206 122.667 137.083Z" fill="#E6F9FA"/>
</g>
</g>
<defs>
<clipPath id="clip0_10478_20292">
<rect x="0.375" width="189.75" height="188" rx="12" fill="white"/>
</clipPath>
<clipPath id="clip1_10478_20292">
<rect width="188" height="188" fill="white" transform="translate(36.5)"/>
</clipPath>
</defs>
</svg>
