<svg width="190" height="188" viewBox="0 0 190 188" fill="none" xmlns="http://www.w3.org/2000/svg">
<g clip-path="url(#clip0_10478_20294)">
<rect x="0.125" width="189.75" height="188" rx="12" fill="#CCF3F5"/>
<g clip-path="url(#clip1_10478_20294)">
<path d="M70.8322 74.0742H50.9175C50.9175 151.074 113.332 213.501 190.332 213.501V193.583C124.329 193.583 70.8322 140.077 70.8322 74.0742Z" fill="#E6F9FA"/>
<path d="M190.332 -5.58237V-25.5C135.33 -25.5 90.75 19.0797 90.75 74.0736C90.75 129.076 135.33 173.668 190.332 173.668V153.75C146.33 153.75 110.668 118.079 110.668 74.0765C110.668 30.0885 146.329 -5.58237 190.332 -5.58237Z" fill="#E6F9FA"/>
<path d="M190.333 14.333C157.326 14.333 130.583 41.077 130.583 74.0742C130.583 107.08 157.326 133.833 190.333 133.833V74.083L250.083 74.0742C250.083 41.077 223.342 14.333 190.333 14.333Z" fill="#E6F9FA"/>
</g>
</g>
<defs>
<clipPath id="clip0_10478_20294">
<rect x="0.125" width="189.75" height="188" rx="12" fill="white"/>
</clipPath>
<clipPath id="clip1_10478_20294">
<rect width="239" height="239" fill="white" transform="translate(31 -25.5)"/>
</clipPath>
</defs>
</svg>
