<svg width="120" height="168" viewBox="0 0 120 168" fill="none" xmlns="http://www.w3.org/2000/svg">
<path d="M18.3327 41.9912H0.334473C0.334473 111.581 56.7428 168 126.333 168V149.999C66.6817 149.999 18.3327 101.642 18.3327 41.9912Z" fill="#E6F9FA"/>
<path d="M126.333 -29.9991V-48C76.6231 -48 36.3335 -7.71042 36.3335 41.9912C36.3335 91.7007 76.6231 132.001 126.333 132.001V114C86.5646 114 54.3344 81.7619 54.3344 41.9938C54.3344 2.23898 86.564 -29.9991 126.333 -29.9991Z" fill="#E6F9FA"/>
<path d="M126.333 -12.001C96.5028 -12.001 72.3325 12.1693 72.3325 41.9911C72.3325 71.8208 96.5028 95.999 126.333 95.999V41.999L180.333 41.9911C180.333 12.1693 156.165 -12.001 126.333 -12.001Z" fill="#E6F9FA"/>
</svg>
