<svg width="173" height="161" viewBox="0 0 173 161" fill="none" xmlns="http://www.w3.org/2000/svg">
<g clip-path="url(#clip0_10478_8972)">
<path d="M172.667 132.835C172.667 148.389 159.831 161.001 144.001 161.001C128.168 161.001 115.334 148.389 115.334 132.835C115.334 117.278 128.168 104.668 144.001 104.668C159.831 104.668 172.667 117.278 172.667 132.835Z" fill="#E6F9FA"/>
<path d="M136.834 65.9373C136.834 79.5498 125.604 90.5836 111.75 90.5836C97.8961 90.5836 86.6665 79.5498 86.6665 65.9373C86.6665 52.3264 97.8961 41.291 111.75 41.291C125.604 41.291 136.834 52.3264 136.834 65.9373Z" fill="#E6F9FA"/>
<path d="M86.6668 118.749C86.6668 142.084 67.4144 161 43.6658 161C19.9189 161 0.666504 142.084 0.666504 118.749C0.666504 95.415 19.9189 76.5 43.6658 76.5C67.4144 76.5 86.6668 95.415 86.6668 118.749Z" fill="#E6F9FA"/>
<path d="M72.3354 27.2094C72.3354 46.6547 56.2914 62.4188 36.5009 62.4188C16.7105 62.4188 0.666504 46.6547 0.666504 27.2094C0.666504 7.76413 16.7105 -8 36.5009 -8C56.2914 -8 72.3354 7.76413 72.3354 27.2094Z" fill="#E6F9FA"/>
<path d="M172.667 13.1247C172.667 24.7918 163.04 34.2494 151.166 34.2494C139.292 34.2494 129.667 24.7918 129.667 13.1247C129.667 1.45751 139.292 -8 151.166 -8C163.04 -8 172.667 1.45751 172.667 13.1247Z" fill="#E6F9FA"/>
<path d="M165.499 83.54C165.499 87.429 162.29 90.5815 158.332 90.5815C154.374 90.5815 151.166 87.429 151.166 83.54C151.166 79.6525 154.374 76.5 158.332 76.5C162.29 76.5 165.499 79.6525 165.499 83.54Z" fill="#E6F9FA"/>
<path d="M111.75 16.646C111.75 22.4804 106.937 27.2091 101 27.2091C95.0632 27.2091 90.2505 22.4804 90.2505 16.646C90.2505 10.8132 95.0632 6.08447 101 6.08447C106.937 6.08447 111.75 10.8132 111.75 16.646Z" fill="#E6F9FA"/>
</g>
<defs>
<clipPath id="clip0_10478_8972">
<rect width="172" height="169" fill="white" transform="translate(0.666504 -8)"/>
</clipPath>
</defs>
</svg>
