<svg width="24" height="24" viewBox="0 0 24 24" fill="none" xmlns="http://www.w3.org/2000/svg">
<path opacity="0.3" d="M5.85714 2H13.7364C14.0911 2 14.4343 2.12568 14.7051 2.35474L19.4687 6.38394C19.8057 6.66895 20 7.08788 20 7.5292V20.0833C20 21.8739 19.9796 22 18.1429 22H5.85714C4.02045 22 4 21.8739 4 20.0833V3.91667C4 2.12612 4.02045 2 5.85714 2Z" fill="#A1A1AA"/>
<path fill-rule="evenodd" clip-rule="evenodd" d="M8.95314 13.8152H10.9096V15.8229C10.9096 16.0991 11.1335 16.3229 11.4096 16.3229H12.4329C12.7091 16.3229 12.9329 16.0991 12.9329 15.8229V13.8152H14.8894C15.1655 13.8152 15.3894 13.5914 15.3894 13.3152C15.3894 13.1969 15.3474 13.0825 15.271 12.9922L12.3029 9.4865C12.1244 9.27575 11.8089 9.24955 11.5982 9.42798C11.5771 9.44584 11.5575 9.46541 11.5397 9.4865L8.57154 12.9922C8.3931 13.2029 8.4193 13.5184 8.63005 13.6968C8.72035 13.7733 8.83482 13.8152 8.95314 13.8152Z" fill="#A1A1AA"/>
</svg>
