<svg width="64" height="64" viewBox="0 0 64 64" fill="none" xmlns="http://www.w3.org/2000/svg">
<path opacity="0.25" d="M7.99902 10.666C7.99902 6.24774 11.5807 2.66602 15.999 2.66602H42.0187C44.1404 2.66602 46.1752 3.50887 47.6755 5.00916L53.6559 10.9895C55.1562 12.4898 55.999 14.5247 55.999 16.6464V53.3327C55.999 57.751 52.4173 61.3327 47.999 61.3327H15.999C11.5807 61.3327 7.99902 57.751 7.99902 53.3327V10.666Z" fill="#00BAC9"/>
<path d="M39.999 5.04416C39.999 3.73075 41.0638 2.66602 42.3772 2.66602C44.2693 2.66602 46.084 3.41768 47.422 4.75565L53.9094 11.2431C55.2474 12.581 55.999 14.3957 55.999 16.2879C55.999 17.6013 54.9343 18.666 53.6209 18.666H42.6657C41.1929 18.666 39.999 17.4721 39.999 15.9993V5.04416Z" fill="#00BAC9"/>
<path d="M30.9789 24.2014C30.6644 24.3315 30.3697 24.5244 30.1141 24.7801L22.1141 32.7801C21.0727 33.8215 21.0727 35.5099 22.1141 36.5513C23.1555 37.5927 24.8439 37.5927 25.8853 36.5513L29.333 33.1036V45.3324C29.333 46.8051 30.5269 47.999 31.9997 47.999C33.4724 47.999 34.6663 46.8051 34.6663 45.3324V33.1036L38.1141 36.5513C39.1555 37.5927 40.8439 37.5927 41.8853 36.5513C42.9267 35.5099 42.9267 33.8215 41.8853 32.7801L33.8853 24.7801C33.0996 23.9943 31.9455 23.8014 30.9789 24.2014Z" fill="#00BAC9"/>
</svg>
