<svg width="160" height="160" viewBox="0 0 160 160" fill="none" xmlns="http://www.w3.org/2000/svg">
<rect width="160" height="160" rx="12" fill="#E6F9FA"/>
<g clip-path="url(#clip0_11901_10227)">
<path d="M142.07 61.7241C142.07 61.7241 131.402 63.0172 126.553 46.2069C119.862 23.0125 104.996 10 80.0009 10C55.0055 10 40.1397 23.0125 33.4492 46.2069C28.6 63.0172 17.9319 61.7241 17.9319 61.7241C17.9319 61.7241 12.113 74.6552 25.6905 82.4138H20.5181C20.5181 82.4138 23.6623 98.1163 39.4954 100.251C41.5078 104.798 47.8029 110.862 67.0699 110.862H80.0009H92.9319C112.199 110.862 118.494 104.797 120.506 100.251C136.339 98.1163 139.484 82.4138 139.484 82.4138H134.311C147.889 74.6552 142.07 61.7241 142.07 61.7241Z" fill="#9D6E48"/>
<path d="M105.863 61.7241C73.8587 45.5603 75.7983 17.1121 80.0009 10C55.0058 10 40.1397 23.0125 33.4492 46.2069C28.6 63.0172 17.9319 61.7241 17.9319 61.7241C17.9319 61.7241 12.113 74.6552 25.6905 82.4138H20.5181C20.5181 82.4138 23.6623 98.1163 39.4954 100.251C41.5078 104.798 47.8029 110.862 67.0699 110.862L105.863 61.7241Z" fill="#8D5F3D"/>
<path d="M127.967 151.218L124.996 128.941C124.362 124.185 121.147 120.172 116.644 118.515L99.0538 112.043C96.9418 111.339 95.5171 109.362 95.5171 107.136V98.7946L106.658 94.1527C112.44 91.7433 116.207 86.0934 116.207 79.829V77.2428C120.492 77.2428 123.965 73.7692 123.965 69.4841C123.965 65.1991 120.492 61.7255 116.207 61.7255V56.5531C116.207 49.4113 110.417 43.6221 103.276 43.6221H56.724C49.5822 43.6221 43.793 49.4116 43.793 56.5531V61.7255C39.508 61.7255 36.0344 65.1991 36.0344 69.4841C36.0344 73.7692 39.508 77.2428 43.793 77.2428V79.829C43.793 86.0934 47.5595 91.7433 53.3419 94.1527L64.4827 98.7946V107.135C64.4827 109.362 63.058 111.338 60.946 112.042L43.3559 118.514C38.853 120.171 35.6377 124.185 35.0035 128.941L32.0332 151.217C31.4132 155.869 35.0313 160.001 39.7236 160.001H79.9999H120.276C124.969 160.001 128.587 155.869 127.967 151.218Z" fill="#F6B47B"/>
<path d="M64.4845 98.9017V107.135C64.4845 108.975 63.5092 110.643 61.9785 111.564C82.5883 115.125 94.3684 100.314 95.4388 98.9014H64.4845V98.9017Z" fill="#E2A071"/>
<path d="M116.209 61.7255V56.5531C116.209 49.4113 110.419 43.6221 103.278 43.6221H56.7258C49.584 43.6221 43.7948 49.4116 43.7948 56.5531V61.7255C39.5097 61.7255 36.0361 65.1991 36.0361 69.4841C36.0361 73.7692 39.5097 77.2428 43.7948 77.2428V79.829C43.7948 86.0934 47.5612 91.7433 53.3437 94.1527L70.0541 101.115C73.2061 102.429 76.5869 103.105 80.0013 103.105C83.4158 103.105 86.7963 102.429 89.9482 101.115L106.66 94.1524C112.442 91.7433 116.209 86.0934 116.209 79.829V77.2428C120.494 77.2428 123.967 73.7692 123.967 69.4841C123.967 65.1991 120.494 61.7255 116.209 61.7255Z" fill="#FDC88E"/>
<path d="M61.8987 72.0682C60.4763 72.0682 59.3125 70.9044 59.3125 69.482V66.8958C59.3125 65.4734 60.4763 64.3096 61.8987 64.3096C63.3211 64.3096 64.4849 65.4734 64.4849 66.8958V69.482C64.4849 70.9044 63.3211 72.0682 61.8987 72.0682Z" fill="#623F33"/>
<path d="M79.9998 90.2459C75.4018 90.2459 71.101 89.1144 68.2002 87.1408C67.0196 86.3378 66.7125 84.7289 67.5171 83.5483C68.3189 82.369 69.9291 82.0619 71.1097 82.8652C73.1428 84.2479 76.4664 85.0738 79.9998 85.0738C83.5332 85.0738 86.8568 84.2479 88.8898 82.8652C90.073 82.0596 91.6794 82.3677 92.4824 83.5483C93.2867 84.7289 92.9799 86.3378 91.7993 87.1408C88.8989 89.1144 84.5977 90.2459 79.9998 90.2459Z" fill="#E2A071"/>
<path d="M109.691 115.601L100.385 130.49C98.9668 132.759 96.4805 134.137 93.8054 134.137H66.1989C63.5238 134.137 61.0375 132.759 59.6196 130.49L50.3138 115.601C49.5664 114.405 47.9991 114.028 46.7901 114.754L38.295 119.851C37.0546 120.595 36.6657 122.212 37.4325 123.439L48.9677 141.895H111.037L122.572 123.439C123.339 122.212 122.95 120.595 121.709 119.85L113.214 114.753C112.006 114.028 110.438 114.405 109.691 115.601Z" fill="#F23F44"/>
<path d="M111.036 141.898H48.9668V160.002H111.036V141.898Z" fill="#FF4F4F"/>
<path d="M57.371 88.7911C55.2756 86.5444 54.1399 83.5796 54.1399 80.5072V53.0734C63.1247 59.3701 75.5537 64.2943 98.752 65.6048L96.489 57.8462C96.489 57.8462 80.4032 48.8029 72.5663 43.6221H56.7258C55.8394 43.6221 54.9756 43.7152 54.1396 43.8852V43.8826C53.9404 43.923 53.7436 43.9689 53.548 44.0184C53.5299 44.0229 53.5111 44.0262 53.493 44.0307C53.4885 44.032 53.4846 44.0355 53.4798 44.0368C47.9101 45.4773 43.7948 50.5331 43.7948 56.5531V61.7255C39.5097 61.7255 36.0361 65.1991 36.0361 69.4841C36.0361 73.7692 39.5097 77.2428 43.7948 77.2428V79.829C43.7948 86.0934 47.5612 91.7433 53.3437 94.1527L70.0538 101.115C70.8717 101.456 71.7064 101.75 72.5518 102.004C65.1668 96.6015 60.2511 91.8791 57.371 88.7911Z" fill="#F6B47B"/>
<path d="M98.1057 72.0682C96.6833 72.0682 95.5195 70.9044 95.5195 69.482V66.8958C95.5195 65.4734 96.6833 64.3096 98.1057 64.3096C99.5282 64.3096 100.692 65.4734 100.692 66.8958V69.482C100.692 70.9044 99.5282 72.0682 98.1057 72.0682Z" fill="#623F33"/>
<path d="M105.863 61.7257L103.277 56.5532C103.277 56.5532 111.46 61.716 116.531 61.716V42.3291H55.4814C65.2534 51.685 77.4367 61.7257 105.863 61.7257Z" fill="#9D6E48"/>
<path d="M105.863 61.7257C94.997 56.2377 88.0473 49.3335 83.7668 42.3291H55.4814C65.2537 51.685 77.437 61.7257 105.863 61.7257Z" fill="#8D5F3D"/>
</g>
<defs>
<clipPath id="clip0_11901_10227">
<rect width="150" height="150" fill="white" transform="translate(5 10)"/>
</clipPath>
</defs>
</svg>
