<svg width="24" height="24" viewBox="0 0 24 24" fill="none" xmlns="http://www.w3.org/2000/svg">
<g opacity="0.3">
<path d="M12 11.92C14.7394 11.92 16.96 9.69933 16.96 6.96C16.96 4.22067 14.7394 2 12 2C9.26071 2 7.04004 4.22067 7.04004 6.96C7.04004 9.69933 9.26071 11.92 12 11.92Z" fill="#A1A1AA"/>
</g>
<path d="M19.7 22.0004C19.8635 22.0096 20.027 21.9836 20.1795 21.924C20.332 21.8644 20.4699 21.7726 20.5838 21.655C20.6976 21.5373 20.7848 21.3965 20.8394 21.2421C20.894 21.0877 20.9146 20.9234 20.9 20.7604C20.26 17.0004 16.52 14.1104 12 14.1104C7.48002 14.1104 3.74002 17.0004 3.10002 20.7604C3.08539 20.9234 3.10607 21.0877 3.16064 21.2421C3.21521 21.3965 3.30239 21.5373 3.41625 21.655C3.53012 21.7726 3.66799 21.8644 3.82049 21.924C3.97299 21.9836 4.13654 22.0096 4.30002 22.0004H19.7Z" fill="#A1A1AA"/>
</svg>
