<svg width="28" height="28" viewBox="0 0 28 28" fill="none" xmlns="http://www.w3.org/2000/svg">
<g opacity="0.3">
<path d="M14 13.9068C17.1959 13.9068 19.7867 11.3161 19.7867 8.12016C19.7867 4.92428 17.1959 2.3335 14 2.3335C10.8041 2.3335 8.21335 4.92428 8.21335 8.12016C8.21335 11.3161 10.8041 13.9068 14 13.9068Z" fill="#A1A1AA"/>
</g>
<path d="M22.9833 25.6669C23.1741 25.6777 23.3649 25.6473 23.5428 25.5778C23.7207 25.5083 23.8816 25.4012 24.0144 25.264C24.1472 25.1267 24.249 24.9624 24.3126 24.7823C24.3763 24.6022 24.4004 24.4105 24.3833 24.2202C23.6367 19.8336 19.2733 16.4619 14 16.4619C8.72668 16.4619 4.36334 19.8336 3.61668 24.2202C3.59961 24.4105 3.62373 24.6022 3.6874 24.7823C3.75106 24.9624 3.85278 25.1267 3.98562 25.264C4.11846 25.4012 4.27931 25.5083 4.45723 25.5778C4.63515 25.6473 4.82596 25.6777 5.01668 25.6669H22.9833Z" fill="#A1A1AA"/>
</svg>
