<svg width="32" height="32" viewBox="0 0 32 32" fill="none" xmlns="http://www.w3.org/2000/svg">
<path opacity="0.3" fill-rule="evenodd" clip-rule="evenodd" d="M6.66699 9.33333C6.66699 12.2789 9.05481 14.6667 12.0003 14.6667C14.9458 14.6667 17.3337 12.2789 17.3337 9.33333C17.3337 6.38781 14.9458 4 12.0003 4C9.05481 4 6.66699 6.38781 6.66699 9.33333ZM20 14.6665C20 16.8756 21.7909 18.6665 24 18.6665C26.2091 18.6665 28 16.8756 28 14.6665C28 12.4574 26.2091 10.6665 24 10.6665C21.7909 10.6665 20 12.4574 20 14.6665Z" fill="#00959E"/>
<path fill-rule="evenodd" clip-rule="evenodd" d="M11.9778 17.3335C5.68255 17.3335 0.517678 20.5688 0.000868912 26.9324C-0.0272823 27.2791 0.635616 28.0002 0.970003 28.0002H22.9956C23.9972 28.0002 24.0128 27.1941 23.9972 26.9335C23.6065 20.3911 18.3616 17.3335 11.9778 17.3335ZM31.2739 28H26.1325C26.1324 24.9987 25.1407 22.2291 23.4672 20.0008C28.0094 20.0503 31.7182 22.3467 31.9973 27.2C32.0086 27.3955 31.9973 28 31.2739 28Z" fill="#00959E"/>
</svg>
