<svg width="20" height="20" viewBox="0 0 20 20" fill="none" xmlns="http://www.w3.org/2000/svg">
<path opacity="0.3" d="M2.66602 4.93247L14.0827 2.51579C14.4993 2.43246 14.9993 2.6825 15.0827 3.1825L15.9993 7.51579L2.66602 4.93247Z" fill="#A1A1AA"/>
<path opacity="0.3" d="M10.832 11.5996C10.832 10.1829 11.9154 9.09961 13.332 9.09961H17.4987C17.9987 9.09961 18.332 9.43294 18.332 9.93294V13.2663C18.332 13.7663 17.9987 14.0996 17.4987 14.0996H13.332C11.9154 14.0996 10.832 13.0163 10.832 11.5996ZM13.332 10.3496C12.6654 10.3496 12.082 10.9329 12.082 11.5996C12.082 12.2663 12.6654 12.8496 13.332 12.8496C13.9987 12.8496 14.582 12.2663 14.582 11.5996C14.582 10.9329 13.9987 10.3496 13.332 10.3496Z" fill="#A1A1AA"/>
<path d="M10.8346 11.5992C10.8346 10.1826 11.918 9.09924 13.3346 9.09924H17.5013V6.59928C17.5013 5.68262 16.7513 4.93262 15.8346 4.93262H2.5013C2.0013 4.93262 1.66797 5.26595 1.66797 5.76595V17.4326C1.66797 17.9326 2.0013 18.2659 2.5013 18.2659H15.8346C16.7513 18.2659 17.5013 17.5159 17.5013 16.5992V14.0992H13.3346C11.918 14.0992 10.8346 13.0159 10.8346 11.5992Z" fill="#A1A1AA"/>
</svg>
