<svg width="275" height="196" viewBox="0 0 275 196" fill="none" xmlns="http://www.w3.org/2000/svg">
<g clip-path="url(#clip0_11140_1675)">
<path d="M205.926 115.511C200.294 115.511 196.765 114.829 196.71 114.818C196.637 114.806 196.567 114.78 196.504 114.741C196.441 114.702 196.387 114.65 196.345 114.59C196.303 114.529 196.273 114.461 196.258 114.389C196.243 114.316 196.242 114.242 196.257 114.169C196.271 114.097 196.3 114.028 196.342 113.967C196.384 113.906 196.437 113.854 196.5 113.815C196.562 113.775 196.632 113.748 196.705 113.736C196.778 113.724 196.853 113.726 196.925 113.744C197.016 113.763 206.261 115.538 218.773 113.239C230.304 111.121 247.057 105.006 261.382 87.9026C261.477 87.797 261.61 87.7323 261.752 87.7221C261.894 87.7119 262.034 87.757 262.143 87.8478C262.253 87.9387 262.323 88.0683 262.338 88.2093C262.353 88.3503 262.313 88.4918 262.226 88.604C255.805 96.276 248.363 102.425 240.116 106.888C233.491 110.466 226.338 112.977 218.925 114.327C214.636 115.111 210.286 115.507 205.926 115.511Z" fill="#1D1D1B"/>
<path d="M82.2262 82.6738C82.2262 82.6738 84.9762 84.8658 84.7012 88.4278C84.4262 91.9898 72.3262 90.0718 72.3262 90.0718L82.2262 82.6738Z" fill="#FFCDB2"/>
<path d="M82.2257 82.6742C82.2257 82.6742 84.9758 84.8662 84.7008 88.4282C84.5688 90.1434 81.695 90.5873 78.7497 90.5873C76.5991 90.5619 74.4528 90.3898 72.3257 90.0722L82.2257 82.6742ZM82.2422 81.6357L81.7308 82.0166L71.8307 89.4146L70.2715 90.5791L72.1965 90.8832C74.366 91.2098 76.5557 91.3856 78.7497 91.4093C80.3695 91.4093 85.2975 91.4093 85.523 88.4912C85.8282 84.5401 82.8665 82.1317 82.74 82.033L82.2422 81.6357Z" fill="#1D1D1B"/>
<path d="M67.7435 88.861L67.353 93.6176C67.353 93.6176 58.553 97.4043 61.4817 110.033C64.4105 122.662 70.7272 148.804 113.418 148.629C113.418 148.629 96.7835 179.717 106.425 199.672C130.949 211.136 157.212 217.849 185.212 219.811C185.212 219.811 192.032 196.811 192.087 185.835C192.142 174.859 204.086 183.643 205.034 175.541C205.983 167.439 199.237 135.419 160.737 121.171C160.737 121.171 152.014 127.566 144.512 115.691C144.512 115.691 134.887 114.321 103.067 123.284C93.8355 125.884 93.4422 119.965 94.677 111.899C95.9117 103.832 93.698 96.3302 84.9887 92.2421L84.7275 88.5596C84.7275 88.5596 80.52 91.5955 67.7435 88.861Z" fill="#1BC5BD"/>
<path d="M84.7282 88.5598L84.9895 92.2424C93.6987 96.3304 95.907 103.833 94.6777 111.899C93.6492 118.656 93.7509 123.906 99.2372 123.906C100.537 123.874 101.825 123.664 103.068 123.284C127.441 116.434 138.79 115.612 142.77 115.612C143.352 115.601 143.934 115.626 144.513 115.686C148.124 121.404 152.018 122.887 155.087 122.887C157.098 122.872 159.062 122.274 160.738 121.166C199.238 135.414 205.984 167.447 205.035 175.536C204.086 183.624 192.143 174.853 192.088 185.83C192.033 196.806 185.213 219.806 185.213 219.806C157.194 217.891 130.932 211.18 106.426 199.672C96.7842 179.717 113.419 148.629 113.419 148.629H112.993C70.6895 148.629 64.3892 122.618 61.4825 110.033C58.5647 97.4045 67.3537 93.6178 67.3537 93.6178L67.7442 88.8612C71.7125 89.7106 74.8502 90.0038 77.295 90.0038C82.7262 90.0038 84.72 88.5598 84.72 88.5598H84.7282ZM85.4377 87.0254L84.2497 87.8803C84.181 87.9268 82.2422 89.1735 77.295 89.1735C74.1384 89.1248 70.9956 88.7483 67.9175 88.0501L66.999 87.8529L66.922 88.7872L66.57 93.0863C65.025 93.9624 63.689 95.1617 62.654 96.6017C60.883 99.043 59.101 103.389 60.6767 110.211C62.0517 116.209 64.3837 126.251 71.85 134.597C75.9007 139.137 81.0735 142.68 87.2005 145.146C94.1415 147.925 102.51 149.374 112.08 149.462C109.413 154.929 107.216 160.612 105.513 166.45C103.78 172.478 102.809 178.13 102.625 183.257C102.397 189.718 103.425 195.365 105.683 200.037L105.81 200.311L106.085 200.437C118.371 206.178 131.168 210.764 144.31 214.137C157.699 217.538 171.372 219.712 185.158 220.631L185.818 220.677L186.005 220.044C186.28 219.102 192.858 196.809 192.913 185.838C192.938 180.701 195.611 180.561 198.996 180.385C201.82 180.237 205.338 180.057 205.855 175.637C206.355 171.36 204.782 161.068 198.391 150.248C194.727 144.076 190.056 138.555 184.57 133.912C177.948 128.276 170.025 123.728 161.024 120.399L160.609 120.242L160.249 120.516C158.713 121.518 156.922 122.06 155.087 122.078C151.391 122.078 148.069 119.785 145.212 115.261L145.008 114.941L144.629 114.886C144.011 114.819 143.39 114.792 142.77 114.804C138.983 114.804 127.515 115.552 102.842 122.503C101.673 122.859 100.46 123.057 99.2372 123.092C97.832 123.092 96.8255 122.714 96.1572 121.941C94.5292 120.056 94.9087 115.872 95.4945 112.031C96.9327 102.586 93.5695 95.5714 85.7787 91.7163L85.5505 88.5077L85.446 87.0336L85.4377 87.0254Z" fill="#1D1D1B"/>
<path d="M85.6027 92.5377C85.4019 92.4363 85.1984 92.3322 84.9894 92.2363L84.7282 88.5537C84.7282 88.5537 80.5207 91.5896 67.7442 88.8551L67.3537 93.6118C67.3537 93.6118 67.2162 93.6693 66.9824 93.7981C72.1497 95.338 80.0532 96.6093 85.6027 92.5377Z" fill="#008697"/>
<path d="M186.145 136.061C200.61 148.623 228.61 180.416 228.613 189.156C228.616 197.897 222.549 199.475 222.549 199.475L223.872 205.974L202.675 215.29L200.841 211.208C200.841 211.208 191.807 211.663 189.398 203.93C186.989 196.198 181.605 166.072 175.299 160.529" fill="#1BC5BD"/>
<path d="M202.676 215.704C202.597 215.704 202.519 215.681 202.452 215.638C202.386 215.595 202.332 215.534 202.299 215.463L200.578 211.627C198.986 211.627 191.228 211.207 189.003 204.053C188.384 202.064 187.559 198.573 186.602 194.502C183.822 182.72 179.623 164.879 175.028 160.838C174.987 160.802 174.954 160.758 174.93 160.71C174.906 160.661 174.893 160.608 174.889 160.554C174.886 160.5 174.894 160.446 174.912 160.395C174.929 160.343 174.957 160.296 174.993 160.256C175.029 160.215 175.073 160.182 175.122 160.159C175.171 160.135 175.224 160.121 175.278 160.118C175.333 160.115 175.387 160.122 175.438 160.14C175.49 160.158 175.537 160.185 175.578 160.221C180.371 164.436 184.609 182.415 187.403 194.315C188.354 198.357 189.179 201.85 189.79 203.809C192.075 211.142 200.465 210.818 200.82 210.802C200.903 210.797 200.985 210.818 201.055 210.861C201.126 210.904 201.182 210.968 201.216 211.043L202.88 214.742L223.403 205.716L222.146 199.546C222.125 199.443 222.144 199.336 222.2 199.247C222.256 199.158 222.344 199.093 222.446 199.066C222.68 199.003 228.221 197.439 228.202 189.145C228.202 180.536 199.811 148.461 185.874 136.359C185.791 136.286 185.741 136.184 185.734 136.074C185.728 135.965 185.765 135.857 185.838 135.775C185.911 135.693 186.013 135.643 186.123 135.637C186.233 135.63 186.341 135.667 186.424 135.74C200.82 148.242 229.032 180.169 229.049 189.145C229.049 196.817 224.412 199.201 223.048 199.732L224.299 205.878C224.318 205.97 224.305 206.065 224.262 206.148C224.219 206.232 224.149 206.298 224.063 206.336L202.86 215.652C202.803 215.682 202.741 215.7 202.676 215.704Z" fill="#1D1D1B"/>
<path d="M168.45 98.7169C168.45 98.7169 171.043 105.986 175.891 102.997C180.739 100.007 191.052 93.5109 196.266 100.476C201.48 107.441 201.089 109.244 206.972 107.477C212.854 105.709 228.103 121.292 213.591 130.517C189.809 145.642 156.201 109.723 156.201 109.723L159.776 104.367L168.45 98.7169Z" fill="#191847"/>
<path d="M213.675 109.882C219.29 114.417 223.789 124.034 213.592 130.517C197.859 140.523 177.826 128.191 166.067 118.694C162.592 115.913 159.296 112.917 156.2 109.723L159.775 104.366L168.448 98.7166C168.448 98.7166 169.383 101.333 171.176 102.78C172.372 103.747 173.951 104.194 175.89 102.996C180.331 100.256 189.365 94.571 194.865 99.0043C195.393 99.434 195.865 99.9284 196.27 100.476C198.94 104.038 200.142 106.257 201.467 107.326C202.73 108.345 204.107 108.331 206.967 107.474C208.716 106.95 211.293 107.961 213.669 109.879L213.675 109.882ZM214.002 109.471C211.37 107.345 208.686 106.41 206.816 106.969C204.044 107.791 202.87 107.791 201.792 106.915C201.008 106.282 200.213 105.136 199.111 103.55C198.434 102.574 197.664 101.47 196.685 100.161C196.253 99.5785 195.751 99.0521 195.189 98.5933C192.714 96.5849 189.257 96.3054 184.951 97.7713C181.439 98.9577 178.04 101.059 175.793 102.443L175.609 102.558C174.127 103.47 172.785 103.413 171.506 102.38C169.856 101.04 168.954 98.5714 168.943 98.544C168.91 98.4532 168.853 98.3728 168.778 98.3111C168.73 98.2718 168.675 98.242 168.616 98.2234C168.54 98.198 168.459 98.19 168.38 98.1999C168.3 98.2099 168.224 98.2376 168.157 98.2809L159.5 103.928C159.44 103.967 159.388 104.017 159.348 104.076L155.773 109.433C155.708 109.531 155.678 109.649 155.687 109.766C155.697 109.884 155.745 109.995 155.826 110.082C158.937 113.295 162.245 116.312 165.731 119.116C171.096 123.448 179.344 129.273 188.16 132.424C198.112 135.986 206.764 135.496 213.873 130.972C215.927 129.668 217.508 128.163 218.567 126.503C219.526 125.026 220.083 123.327 220.184 121.571C220.308 119.379 219.714 117.023 218.468 114.767C217.328 112.741 215.813 110.946 214.005 109.479L214.002 109.471Z" fill="black"/>
<path d="M197.435 134.068C182.86 113.612 160.884 108.312 160.884 108.312C159.681 109.149 158.687 110.251 157.98 111.532C163.431 116.853 180.547 132.309 197.435 134.068Z" fill="#1C1A61"/>
<path d="M169.694 86.3837C174.452 86.3837 178.31 82.5403 178.31 77.7993C178.31 73.0582 174.452 69.2148 169.694 69.2148C164.936 69.2148 161.078 73.0582 161.078 77.7993C161.078 82.5403 164.936 86.3837 169.694 86.3837Z" fill="#191847"/>
<path d="M173.545 70.1199C175.401 71.043 176.86 72.6022 177.654 74.511C178.449 76.4199 178.526 78.5503 177.871 80.5111C177.216 82.4719 175.873 84.1315 174.089 85.1852C172.305 86.2388 170.199 86.6157 168.158 86.2468C166.117 85.8778 164.279 84.7877 162.98 83.1767C161.681 81.5656 161.008 79.5417 161.087 77.4766C161.165 75.4115 161.988 73.4439 163.405 71.9349C164.822 70.4259 166.738 69.477 168.801 69.2623C170.432 69.0919 172.078 69.3895 173.545 70.1199ZM173.839 69.5363C171.999 68.619 169.904 68.338 167.885 68.7377C165.867 69.1373 164.039 70.1948 162.69 71.7436C161.342 73.2923 160.548 75.2442 160.436 77.2916C160.323 79.3391 160.898 81.3656 162.068 83.052C163.239 84.7383 164.94 85.9885 166.903 86.6055C168.865 87.2226 170.978 87.1714 172.908 86.46C174.838 85.7486 176.476 84.4175 177.563 82.6765C178.65 80.9354 179.125 78.8834 178.913 76.8439C178.752 75.2991 178.202 73.8197 177.316 72.5425C176.429 71.2652 175.233 70.2313 173.839 69.5363Z" fill="black"/>
<path d="M137.688 94.2265C137.688 94.2265 133.935 87.2641 138.238 83.1569C142.542 79.0496 143.681 79.9757 145.801 77.6632C147.921 75.3506 153.861 74.4738 157.851 77.4686C157.851 77.4686 164.988 75.4191 169.522 78.6112C174.057 81.8033 174.899 84.8529 174.838 89.2972C174.778 93.7415 175.542 96.0239 175.605 99.1612C175.669 102.299 174.409 110.543 161.594 112.127C148.779 113.711 137.688 94.2265 137.688 94.2265Z" fill="#191847"/>
<path d="M168.436 77.9591C168.811 78.1468 169.172 78.362 169.516 78.603C174.048 81.7923 174.893 84.8447 174.832 89.289C174.772 93.7332 175.536 96.0157 175.599 99.153C175.663 102.29 174.403 110.535 161.588 112.119C158.739 112.472 155.973 111.782 153.396 110.497C144.389 106 137.688 94.2237 137.688 94.2237C137.688 94.2237 133.934 87.2614 138.238 83.1541C142.541 79.0468 143.68 79.973 145.8 77.6604C147.689 75.6027 152.612 74.6793 156.484 76.611C156.968 76.8505 157.428 77.1339 157.859 77.4576C157.859 77.4576 163.948 75.7095 168.449 77.9563L168.436 77.9591ZM168.741 77.3754C164.616 75.3095 159.333 76.4137 157.994 76.748C157.608 76.4797 157.202 76.2398 156.781 76.0301C152.59 73.9395 147.382 74.9807 145.325 77.222C144.458 78.1646 143.801 78.5043 142.891 78.9756C141.711 79.5839 140.242 80.3456 137.792 82.6828C135.867 84.5214 135.155 87.1682 135.719 90.3411C135.983 91.798 136.457 93.2091 137.127 94.5306V94.5443C138.479 96.8277 139.993 99.0116 141.659 101.079C144.255 104.329 148.35 108.702 153.107 111.077C156.036 112.538 158.918 113.108 161.673 112.765C167.388 112.058 171.521 109.981 173.96 106.595C175.508 104.419 176.314 101.806 176.259 99.1393C176.217 97.8633 176.101 96.5908 175.913 95.3279C175.616 93.3325 175.475 91.3171 175.492 89.2999C175.553 84.7214 174.667 81.4142 169.899 78.0659C169.528 77.8057 169.138 77.574 168.733 77.3727L168.741 77.3754Z" fill="black"/>
<path d="M159.608 96.3353L159.635 96.349C163.21 97.7518 168.034 95.6119 168.237 95.527C168.316 95.4906 168.378 95.4245 168.408 95.343C168.438 95.2616 168.435 95.1715 168.398 95.0927C168.362 95.0138 168.295 94.9527 168.214 94.9226C168.132 94.8925 168.041 94.8961 167.962 94.9324C167.916 94.9543 163.191 97.0504 159.869 95.7544C159.79 95.7181 159.7 95.7144 159.619 95.7442C159.537 95.774 159.471 95.8348 159.435 95.9133C159.398 95.9918 159.394 96.0815 159.424 96.1627C159.454 96.2439 159.515 96.3099 159.594 96.3462L159.608 96.3353Z" fill="black"/>
<path d="M143.913 115.801C143.913 115.801 138.188 117.609 141.763 122.541C145.338 127.473 150.288 125.007 150.288 125.007C150.288 125.007 158.538 132.953 161.838 121.993L143.913 115.801Z" fill="white"/>
<path d="M156.215 128.202C153.484 128.202 150.935 126.136 150.206 125.49C149.087 125.931 144.682 127.271 141.428 122.783C140.284 121.202 139.921 119.738 140.35 118.44C141.063 116.292 143.678 115.445 143.788 115.409L143.92 115.368L162.345 121.733L162.232 122.111C161.215 125.492 159.614 127.487 157.477 128.043C157.065 128.15 156.641 128.203 156.215 128.202ZM150.366 124.512L150.575 124.712C150.611 124.744 154.117 128.074 157.274 127.249C159.037 126.788 160.398 125.109 161.327 122.251L143.914 116.237C143.428 116.42 141.632 117.188 141.134 118.703C140.793 119.738 141.118 120.95 142.099 122.303C145.419 126.884 149.915 124.736 150.105 124.643L150.366 124.512Z" fill="#1D1D1B"/>
<path d="M160.786 94.1819C161.571 94.5652 162.403 94.8416 163.261 95.0039C163.303 95.0127 163.347 95.013 163.389 95.0049C163.431 94.9968 163.471 94.9804 163.506 94.9566C163.542 94.9329 163.572 94.9023 163.596 94.8667C163.62 94.831 163.636 94.7911 163.644 94.7491C163.661 94.6645 163.643 94.5766 163.595 94.5046C163.547 94.4327 163.473 94.3827 163.388 94.3655C155.996 92.8941 156.543 85.0495 156.568 84.7235C156.575 84.6377 156.547 84.5527 156.491 84.4872C156.435 84.4217 156.356 84.381 156.27 84.3741C156.184 84.3672 156.098 84.3946 156.033 84.4504C155.967 84.5061 155.926 84.5856 155.919 84.6714C155.905 84.7372 155.424 91.4913 160.786 94.1819Z" fill="white"/>
<path d="M180.951 74.2897C180.985 74.3064 181.021 74.3175 181.058 74.3226C181.143 74.3336 181.228 74.311 181.296 74.2597C181.364 74.2085 181.409 74.1326 181.421 74.0486C181.68 71.969 181.256 70.2126 180.162 68.8262C178.237 66.3903 174.956 65.9876 174.816 65.9711C174.732 65.9609 174.647 65.9839 174.58 66.0351C174.512 66.0863 174.468 66.1616 174.456 66.2451C174.445 66.3292 174.468 66.4139 174.52 66.4814C174.571 66.5489 174.647 66.5939 174.731 66.6068C174.761 66.6068 177.888 66.9986 179.642 69.2235C180.621 70.4647 180.998 72.0594 180.761 73.9555C180.753 74.024 180.767 74.0933 180.802 74.1534C180.836 74.2135 180.888 74.2612 180.951 74.2897Z" fill="black"/>
<path d="M175.86 78.2193C175.911 78.2453 175.967 78.2576 176.024 78.255C176.081 78.2523 176.136 78.2349 176.184 78.2044C176.232 78.1738 176.271 78.1313 176.297 78.081C176.323 78.0308 176.336 77.9745 176.333 77.9179C176.267 75.6985 175.563 74.0107 174.243 72.9037C172.104 71.1117 169.15 71.509 169.018 71.5337C168.933 71.5472 168.856 71.5935 168.805 71.6627C168.754 71.7319 168.731 71.8183 168.743 71.9036C168.749 71.9457 168.764 71.9863 168.786 72.0229C168.807 72.0594 168.836 72.0914 168.871 72.1168C168.905 72.1423 168.944 72.1608 168.985 72.1712C169.027 72.1816 169.07 72.1838 169.112 72.1776C169.139 72.1776 171.909 71.8077 173.82 73.4133C174.991 74.397 175.613 75.9204 175.676 77.948C175.679 78.0057 175.698 78.0614 175.73 78.1091C175.763 78.1569 175.808 78.195 175.86 78.2193Z" fill="white"/>
<path d="M147.806 112.384L144.377 115.829C144.377 115.829 145.752 127.885 160.877 121.857C160.877 121.857 159.664 114.933 161.259 105.088C161.259 105.088 165.549 105.951 166.484 102.194C167.419 98.4378 164.85 96.6102 162.771 96.8266C162.771 96.8266 154.285 98.4926 153.619 82.0827C153.619 82.0827 145.463 81.8854 140.89 88.3847C136.316 94.884 134.094 103.729 138.53 108.505C142.966 113.28 147.806 112.384 147.806 112.384Z" fill="#FFCDB2"/>
<path d="M153.525 82.0824H153.604C154.154 95.7221 160.116 96.8784 162.11 96.8784C162.327 96.8814 162.543 96.8659 162.756 96.8318C162.866 96.8318 162.979 96.8154 163.089 96.8154C165.094 96.8154 167.341 98.643 166.469 102.2C165.839 104.775 163.625 105.181 162.294 105.181C161.947 105.183 161.6 105.154 161.258 105.093C159.663 114.932 160.875 121.856 160.875 121.856C157.85 123.062 155.375 123.544 153.351 123.544C145.255 123.544 144.375 115.828 144.375 115.828L147.805 112.384C147.488 112.43 147.168 112.451 146.848 112.447C145.214 112.447 141.755 111.976 138.515 108.496C134.079 103.723 136.315 94.8618 140.875 88.3735C145.181 82.2605 152.672 82.0715 153.525 82.0715V82.0824ZM153.525 81.2495C152.639 81.2495 144.747 81.4358 140.201 87.8912C137.748 91.371 136.076 95.2892 135.504 98.9389C134.838 103.139 135.672 106.633 137.91 109.041C140.773 112.121 143.806 113.001 145.814 113.206L143.79 115.239L143.515 115.513L143.559 115.905C143.786 117.4 144.323 118.833 145.134 120.111C146.369 122.045 148.797 124.35 153.354 124.35C155.642 124.35 158.277 123.763 161.183 122.604L161.805 122.355L161.692 121.697C161.678 121.632 160.592 115.141 161.967 105.972C162.074 105.972 162.187 105.972 162.308 105.972C164.91 105.972 166.722 104.657 167.283 102.364C167.863 99.9938 167.184 98.4758 166.507 97.621C166.102 97.1073 165.585 96.6915 164.995 96.4045C164.406 96.1175 163.759 95.9667 163.103 95.9633C162.965 95.9633 162.828 95.9633 162.685 95.9824H162.649H162.611C162.45 96.0063 162.287 96.0173 162.124 96.0153C161.244 96.0153 159.528 95.755 157.944 94.0069C155.848 91.6998 154.671 87.6638 154.443 82.0139L154.41 81.2467L153.637 81.2275L153.525 81.2495Z" fill="#1D1D1B"/>
<path d="M147.402 112.927C147.433 112.943 147.466 112.954 147.501 112.959C151.139 113.48 155.041 111.34 155.201 111.247C155.242 111.228 155.278 111.201 155.308 111.167C155.338 111.134 155.361 111.094 155.375 111.052C155.389 111.009 155.394 110.964 155.389 110.919C155.385 110.874 155.371 110.831 155.349 110.792C155.327 110.752 155.297 110.718 155.261 110.691C155.225 110.664 155.184 110.645 155.14 110.634C155.096 110.624 155.05 110.622 155.006 110.63C154.962 110.638 154.919 110.655 154.882 110.68C154.843 110.702 151.007 112.803 147.589 112.324C147.512 112.311 147.432 112.326 147.366 112.367C147.299 112.408 147.249 112.471 147.226 112.546C147.202 112.62 147.207 112.701 147.238 112.772C147.269 112.844 147.326 112.901 147.396 112.935L147.402 112.927Z" fill="black"/>
<path d="M161.975 103.46C162.028 103.487 162.087 103.498 162.147 103.494C162.206 103.49 162.262 103.469 162.311 103.435C163.664 102.482 164.321 101.49 164.263 100.487C164.181 99.0432 162.638 98.1828 162.572 98.1472C162.534 98.1261 162.493 98.1126 162.45 98.1076C162.407 98.1027 162.364 98.1063 162.322 98.1183C162.281 98.1303 162.242 98.1504 162.208 98.1775C162.175 98.2046 162.147 98.2381 162.127 98.276C162.086 98.3518 162.077 98.4404 162.101 98.5228C162.125 98.6052 162.181 98.675 162.256 98.7171C162.278 98.7308 163.551 99.446 163.612 100.526C163.653 101.29 163.089 102.09 161.934 102.904C161.889 102.936 161.854 102.98 161.831 103.029C161.808 103.079 161.798 103.134 161.802 103.189C161.806 103.244 161.824 103.297 161.854 103.343C161.885 103.389 161.926 103.426 161.975 103.452V103.46Z" fill="black"/>
<path d="M148.691 92.5849C152.499 94.8564 158.651 94.9495 159.099 96.7332C159.548 98.517 158.153 100.232 155.761 99.9582C153.368 99.6842 151.185 98.8622 146.788 96.9661C142.39 95.0701 138.224 92.8863 139.566 90.6641C140.908 88.442 143.092 89.2503 148.691 92.5849Z" fill="#FFB49F"/>
<path d="M144.846 88.3049C144.889 88.3258 144.936 88.3366 144.984 88.3366C145.031 88.3366 145.078 88.3258 145.121 88.3049C145.14 88.3049 146.928 87.5597 148.295 88.3789C148.369 88.4224 148.458 88.435 148.542 88.414C148.626 88.393 148.698 88.3401 148.743 88.2666C148.787 88.1924 148.8 88.1038 148.779 88.0201C148.758 87.9363 148.704 87.8644 148.63 87.82C146.98 86.8363 144.953 87.6693 144.868 87.7049C144.828 87.7213 144.792 87.7455 144.762 87.776C144.732 87.8065 144.708 87.8427 144.692 87.8824C144.675 87.9222 144.667 87.9648 144.668 88.0077C144.669 88.0506 144.678 88.093 144.695 88.1323C144.721 88.2072 144.775 88.269 144.846 88.3049Z" fill="black"/>
<path d="M144.725 99.4644C144.792 99.4969 144.869 99.5057 144.942 99.4893C145.015 99.4728 145.08 99.4322 145.127 99.374L149.576 93.7652C149.63 93.6958 149.654 93.6079 149.643 93.5208C149.632 93.4337 149.587 93.3546 149.517 93.3008C149.447 93.247 149.359 93.223 149.272 93.2341C149.184 93.2451 149.105 93.2903 149.051 93.3597L144.604 98.9685C144.55 99.0361 144.526 99.1223 144.535 99.2081C144.545 99.2938 144.589 99.3723 144.656 99.4261L144.725 99.4644Z" fill="black"/>
<path d="M162.917 107.066C163.696 107.066 164.327 106.437 164.327 105.661C164.327 104.884 163.696 104.255 162.917 104.255C162.137 104.255 161.506 104.884 161.506 105.661C161.506 106.437 162.137 107.066 162.917 107.066Z" fill="#1BC5BD"/>
<path d="M163.549 104.403C163.852 104.554 164.089 104.81 164.218 105.122C164.347 105.434 164.358 105.782 164.251 106.102C164.143 106.422 163.923 106.693 163.631 106.864C163.339 107.036 162.995 107.096 162.661 107.035C162.328 106.974 162.028 106.796 161.817 106.532C161.605 106.269 161.496 105.938 161.509 105.6C161.522 105.263 161.657 104.942 161.889 104.696C162.121 104.45 162.434 104.295 162.771 104.26C163.039 104.233 163.309 104.282 163.549 104.403ZM163.841 103.819C163.431 103.615 162.964 103.552 162.514 103.641C162.065 103.73 161.657 103.966 161.357 104.311C161.056 104.656 160.88 105.091 160.855 105.547C160.83 106.003 160.958 106.454 161.218 106.83C161.479 107.206 161.858 107.484 162.296 107.622C162.733 107.759 163.204 107.748 163.634 107.589C164.064 107.431 164.428 107.134 164.671 106.746C164.913 106.358 165.018 105.901 164.971 105.447C164.936 105.102 164.814 104.772 164.616 104.488C164.419 104.203 164.152 103.973 163.841 103.819Z" fill="black"/>
<path d="M153.097 90.2669C153.136 90.2869 153.179 90.2984 153.223 90.3007C153.267 90.3031 153.311 90.2962 153.352 90.2806C153.641 90.1793 154.54 89.9628 154.884 90.3217C154.914 90.3525 154.95 90.3771 154.989 90.3941C155.029 90.4111 155.071 90.4201 155.114 90.4208C155.157 90.4214 155.2 90.4136 155.24 90.3978C155.28 90.382 155.317 90.3584 155.348 90.3286C155.378 90.2987 155.403 90.2631 155.42 90.2237C155.437 90.1843 155.446 90.142 155.447 90.0992C155.448 90.0563 155.44 90.0137 155.424 89.9739C155.408 89.934 155.384 89.8977 155.354 89.8669C154.656 89.149 153.284 89.6121 153.13 89.6696C153.07 89.6917 153.018 89.7307 152.98 89.7818C152.942 89.833 152.92 89.894 152.917 89.9575C152.913 90.0209 152.928 90.084 152.96 90.139C152.992 90.194 153.04 90.2385 153.097 90.2669Z" fill="black"/>
<path d="M149.327 106.924C149.217 106.93 149.11 106.894 149.027 106.822C148.945 106.749 148.895 106.648 148.888 106.539C148.881 106.43 148.918 106.322 148.99 106.24C149.063 106.158 149.165 106.108 149.274 106.102C149.858 106.029 150.407 105.789 150.856 105.411C148.414 106.17 145.699 104.756 145.556 104.679C145.465 104.626 145.397 104.538 145.369 104.436C145.34 104.334 145.352 104.224 145.403 104.131C145.453 104.037 145.538 103.967 145.64 103.934C145.741 103.902 145.851 103.91 145.947 103.956C145.985 103.975 149.833 105.973 152.06 103.753C152.127 103.688 152.214 103.647 152.308 103.637C152.401 103.627 152.495 103.65 152.574 103.701C152.653 103.751 152.712 103.827 152.742 103.916C152.771 104.005 152.769 104.101 152.737 104.189C152.701 104.288 151.796 106.617 149.379 106.929L149.327 106.924Z" fill="#1D1D1B"/>
<path d="M145.751 94.5933C145.648 94.5937 145.549 94.5556 145.473 94.4866C145.397 94.4175 145.35 94.3226 145.341 94.2207C145.335 93.9337 145.264 93.6518 145.135 93.3954C145.005 93.139 144.82 92.9145 144.593 92.7383C143.619 92.0341 142.008 92.3876 141.991 92.3903C141.887 92.4085 141.78 92.3861 141.692 92.3279C141.604 92.2697 141.542 92.18 141.518 92.0774C141.495 91.9748 141.511 91.8671 141.565 91.7764C141.619 91.6858 141.706 91.6192 141.807 91.5903C141.89 91.5711 143.793 91.1464 145.074 92.0725C145.401 92.3142 145.669 92.6256 145.86 92.984C146.05 93.3425 146.157 93.7388 146.174 94.1439C146.179 94.1976 146.174 94.2518 146.158 94.3033C146.142 94.3549 146.116 94.4028 146.082 94.4443C146.047 94.4858 146.005 94.5202 145.957 94.5453C145.909 94.5703 145.857 94.5857 145.803 94.5905L145.751 94.5933Z" fill="#1D1D1B"/>
<path d="M155.651 98.9771C155.548 98.9775 155.449 98.9394 155.373 98.8704C155.297 98.8013 155.25 98.7064 155.241 98.6044C155.235 98.3175 155.165 98.0356 155.035 97.7792C154.906 97.5228 154.721 97.2983 154.493 97.1221C153.52 96.4179 151.908 96.7714 151.892 96.7741C151.788 96.7923 151.681 96.7699 151.593 96.7117C151.505 96.6535 151.442 96.5638 151.419 96.4612C151.395 96.3586 151.412 96.2509 151.466 96.1602C151.519 96.0696 151.606 96.0029 151.708 95.9741C151.79 95.9549 153.693 95.5302 154.975 96.4563C155.301 96.6979 155.57 97.0094 155.76 97.3678C155.95 97.7262 156.058 98.1226 156.075 98.5277C156.08 98.5814 156.074 98.6356 156.059 98.6871C156.043 98.7387 156.017 98.7866 155.982 98.8281C155.948 98.8696 155.905 98.9039 155.857 98.929C155.81 98.9541 155.757 98.9695 155.703 98.9743L155.651 98.9771Z" fill="#1D1D1B"/>
<path d="M88.3116 106.619C89.1363 106.619 89.8049 105.953 89.8049 105.131C89.8049 104.31 89.1363 103.644 88.3116 103.644C87.4869 103.644 86.8184 104.31 86.8184 105.131C86.8184 105.953 87.4869 106.619 88.3116 106.619Z" fill="#26F5EB"/>
<path d="M73.1866 118.675C74.0113 118.675 74.6799 118.009 74.6799 117.187C74.6799 116.365 74.0113 115.699 73.1866 115.699C72.3619 115.699 71.6934 116.365 71.6934 117.187C71.6934 118.009 72.3619 118.675 73.1866 118.675Z" fill="#26F5EB"/>
<path d="M85.5616 138.951C86.3863 138.951 87.0549 138.285 87.0549 137.463C87.0549 136.642 86.3863 135.976 85.5616 135.976C84.7369 135.976 84.0684 136.642 84.0684 137.463C84.0684 138.285 84.7369 138.951 85.5616 138.951Z" fill="#26F5EB"/>
<path d="M114.437 127.443C115.261 127.443 115.93 126.777 115.93 125.956C115.93 125.134 115.261 124.468 114.437 124.468C113.612 124.468 112.943 125.134 112.943 125.956C112.943 126.777 113.612 127.443 114.437 127.443Z" fill="#26F5EB"/>
<path d="M110.587 143.609C111.412 143.609 112.08 142.943 112.08 142.122C112.08 141.3 111.412 140.634 110.587 140.634C109.762 140.634 109.094 141.3 109.094 142.122C109.094 142.943 109.762 143.609 110.587 143.609Z" fill="#26F5EB"/>
<path d="M143.036 135.663C143.861 135.663 144.529 134.997 144.529 134.175C144.529 133.354 143.861 132.688 143.036 132.688C142.212 132.688 141.543 133.354 141.543 134.175C141.543 134.997 142.212 135.663 143.036 135.663Z" fill="#26F5EB"/>
<path d="M127.636 155.117C128.461 155.117 129.129 154.451 129.129 153.629C129.129 152.808 128.461 152.142 127.636 152.142C126.811 152.142 126.143 152.808 126.143 153.629C126.143 154.451 126.811 155.117 127.636 155.117Z" fill="#26F5EB"/>
<path d="M154.86 161.967C155.685 161.967 156.354 161.301 156.354 160.479C156.354 159.657 155.685 158.991 154.86 158.991C154.036 158.991 153.367 159.657 153.367 160.479C153.367 161.301 154.036 161.967 154.86 161.967Z" fill="#26F5EB"/>
<path d="M117.735 185.531C118.56 185.531 119.229 184.865 119.229 184.043C119.229 183.222 118.56 182.556 117.735 182.556C116.911 182.556 116.242 183.222 116.242 184.043C116.242 184.865 116.911 185.531 117.735 185.531Z" fill="#26F5EB"/>
<path d="M141.386 180.325C142.211 180.325 142.879 179.659 142.879 178.837C142.879 178.016 142.211 177.35 141.386 177.35C140.561 177.35 139.893 178.016 139.893 178.837C139.893 179.659 140.561 180.325 141.386 180.325Z" fill="#26F5EB"/>
<path d="M170.536 180.325C171.361 180.325 172.029 179.659 172.029 178.837C172.029 178.016 171.361 177.35 170.536 177.35C169.712 177.35 169.043 178.016 169.043 178.837C169.043 179.659 169.712 180.325 170.536 180.325Z" fill="#26F5EB"/>
<path d="M173.011 142.513C173.836 142.513 174.504 141.847 174.504 141.025C174.504 140.203 173.836 139.537 173.011 139.537C172.186 139.537 171.518 140.203 171.518 141.025C171.518 141.847 172.186 142.513 173.011 142.513Z" fill="#26F5EB"/>
<path d="M209.312 167.173C210.136 167.173 210.805 166.507 210.805 165.685C210.805 164.863 210.136 164.197 209.312 164.197C208.487 164.197 207.818 164.863 207.818 165.685C207.818 166.507 208.487 167.173 209.312 167.173Z" fill="#26F5EB"/>
<path d="M190.61 158.405C191.435 158.405 192.104 157.739 192.104 156.918C192.104 156.096 191.435 155.43 190.61 155.43C189.786 155.43 189.117 156.096 189.117 156.918C189.117 157.739 189.786 158.405 190.61 158.405Z" fill="#26F5EB"/>
<path d="M194.187 190.463C195.011 190.463 195.68 189.797 195.68 188.975C195.68 188.153 195.011 187.487 194.187 187.487C193.362 187.487 192.693 188.153 192.693 188.975C192.693 189.797 193.362 190.463 194.187 190.463Z" fill="#26F5EB"/>
<path d="M218.661 189.915C219.486 189.915 220.154 189.249 220.154 188.427C220.154 187.606 219.486 186.939 218.661 186.939C217.837 186.939 217.168 187.606 217.168 188.427C217.168 189.249 217.837 189.915 218.661 189.915Z" fill="#26F5EB"/>
<path d="M111.399 152.634C111.345 152.633 111.292 152.623 111.242 152.604C111.191 152.583 111.144 152.553 111.105 152.514C111.066 152.475 111.034 152.428 111.013 152.377C110.992 152.326 110.982 152.272 110.982 152.216C110.983 152.161 110.995 152.107 111.017 152.056C113.492 146.028 120.317 135.964 120.386 135.863C120.415 135.815 120.453 135.773 120.499 135.741C120.544 135.708 120.596 135.685 120.651 135.673C120.705 135.661 120.762 135.66 120.817 135.67C120.872 135.681 120.924 135.702 120.971 135.734C121.017 135.765 121.057 135.806 121.087 135.853C121.117 135.9 121.138 135.952 121.147 136.008C121.156 136.063 121.153 136.119 121.14 136.173C121.126 136.228 121.102 136.278 121.068 136.323C120.999 136.424 114.231 146.403 111.781 152.368C111.752 152.446 111.699 152.513 111.631 152.56C111.563 152.608 111.482 152.633 111.399 152.634Z" fill="#1D1D1B"/>
<path d="M218.764 179.533C218.621 179.533 218.48 179.496 218.356 179.425C218.231 179.355 218.128 179.253 218.055 179.13C211.034 167.291 193.855 149.043 193.687 148.859C193.611 148.78 193.552 148.688 193.513 148.586C193.473 148.485 193.454 148.377 193.457 148.268C193.46 148.159 193.485 148.052 193.53 147.953C193.574 147.853 193.639 147.764 193.718 147.69C193.798 147.615 193.892 147.557 193.994 147.519C194.096 147.481 194.205 147.464 194.314 147.468C194.424 147.473 194.531 147.498 194.63 147.544C194.729 147.59 194.818 147.655 194.891 147.736C195.065 147.919 212.359 166.296 219.474 178.292C219.585 178.48 219.617 178.704 219.563 178.915C219.509 179.126 219.373 179.307 219.185 179.418C219.058 179.494 218.912 179.534 218.764 179.533Z" fill="white"/>
<path d="M222.2 127.207H221.469C212.699 127.094 206.946 125.127 206.707 125.042C206.569 124.994 206.456 124.894 206.393 124.763C206.329 124.632 206.321 124.481 206.369 124.343C206.417 124.206 206.518 124.093 206.649 124.03C206.781 123.967 206.932 123.959 207.07 124.006C207.128 124.028 212.925 126.009 221.527 126.111C232.902 126.242 244.064 123.026 253.614 116.866C253.736 116.789 253.884 116.763 254.026 116.794C254.167 116.825 254.291 116.911 254.37 117.032C254.448 117.153 254.476 117.301 254.446 117.442C254.416 117.583 254.331 117.707 254.21 117.787C244.675 123.937 233.559 127.208 222.2 127.207Z" fill="#1D1D1B"/>
<path d="M72.3258 151.448C72.2561 151.449 72.1869 151.436 72.1223 151.409C62.9978 147.801 58.6033 141.304 56.5243 136.493C54.272 131.287 54.1785 126.977 54.1758 126.796C54.1758 126.651 54.2337 126.511 54.3369 126.409C54.44 126.306 54.5799 126.248 54.7258 126.248C54.8717 126.248 55.0115 126.306 55.1147 126.409C55.2178 126.511 55.2758 126.651 55.2758 126.796C55.4793 130.011 56.2501 133.164 57.5528 136.112C59.552 140.721 63.7733 146.943 72.5293 150.404C72.6405 150.456 72.7312 150.543 72.787 150.652C72.8427 150.761 72.8602 150.885 72.8368 151.005C72.8134 151.125 72.7504 151.234 72.6578 151.314C72.5652 151.394 72.4483 151.441 72.3258 151.448Z" fill="#1D1D1B"/>
<path d="M233.201 196.11C233.107 196.11 233.015 196.086 232.933 196.041C232.851 195.995 232.783 195.93 232.733 195.851C232.684 195.771 232.656 195.681 232.652 195.588C232.647 195.494 232.667 195.402 232.708 195.318C238.208 184.358 226.108 174.993 225.993 174.9C225.884 174.809 225.814 174.681 225.798 174.54C225.782 174.4 225.821 174.259 225.907 174.147C225.993 174.034 226.119 173.959 226.259 173.937C226.399 173.915 226.542 173.948 226.658 174.028C228.902 175.832 230.838 177.985 232.392 180.404C235.692 185.594 236.146 190.92 233.693 195.806C233.647 195.897 233.577 195.974 233.49 196.028C233.403 196.081 233.303 196.11 233.201 196.11Z" fill="#1D1D1B"/>
<path d="M194.627 89.1039L193.422 87.7887C193.212 87.5552 192.933 87.3941 192.625 87.3284L190.873 86.964C190.643 86.9157 190.428 86.814 190.244 86.6671C190.061 86.5202 189.916 86.3323 189.819 86.1186C189.723 85.905 189.678 85.6717 189.689 85.4377C189.7 85.2037 189.767 84.9756 189.883 84.772L190.769 83.2239C190.922 82.9526 190.986 82.6403 190.953 82.3306L190.76 80.5606C190.735 80.3281 190.765 80.093 190.849 79.8743C190.932 79.6557 191.066 79.4598 191.24 79.3025C191.413 79.1452 191.622 79.031 191.848 78.9692C192.075 78.9073 192.312 78.8997 192.542 78.9467L194.294 79.3029C194.6 79.3668 194.919 79.3323 195.204 79.2043L196.835 78.4755C197.049 78.3795 197.283 78.3352 197.518 78.3464C197.752 78.3576 197.981 78.4238 198.185 78.5398C198.389 78.6557 198.563 78.818 198.692 79.0135C198.821 79.209 198.902 79.4321 198.928 79.6646L199.126 81.4347C199.164 81.7406 199.296 82.0274 199.503 82.2567L200.704 83.5773C200.862 83.7507 200.976 83.9586 201.037 84.1841C201.099 84.4097 201.106 84.6465 201.058 84.8753C201.01 85.1041 200.909 85.3185 200.763 85.501C200.616 85.6835 200.428 85.8289 200.215 85.9255L198.587 86.6626C198.301 86.791 198.064 87.0057 197.908 87.2764L197.025 88.8436C196.908 89.0471 196.745 89.2202 196.548 89.3487C196.351 89.4771 196.126 89.5573 195.892 89.5827C195.659 89.6081 195.422 89.578 195.202 89.4947C194.982 89.4115 194.785 89.2776 194.627 89.1039Z" fill="#1BC5BD"/>
<path d="M195.722 89.9998C195.459 90.0001 195.199 89.9454 194.958 89.8393C194.718 89.7331 194.502 89.5777 194.325 89.3833L193.118 88.0654C192.966 87.8991 192.765 87.785 192.543 87.7393L190.794 87.3721C190.501 87.311 190.226 87.1817 189.993 86.9947C189.759 86.8078 189.573 86.5685 189.45 86.2964C189.326 86.0243 189.269 85.727 189.283 85.4287C189.297 85.1305 189.381 84.8397 189.529 84.5801L190.412 83.032C190.525 82.8361 190.572 82.6097 190.547 82.3853L190.354 80.6153C190.323 80.3192 190.363 80.0201 190.469 79.742C190.576 79.4639 190.747 79.2148 190.968 79.0147C191.189 78.8146 191.454 78.6692 191.742 78.5902C192.03 78.5113 192.333 78.501 192.626 78.5603L194.378 78.9165C194.6 78.9633 194.831 78.9383 195.038 78.8453L196.668 78.1164C196.942 77.9942 197.24 77.938 197.539 77.9524C197.839 77.9668 198.13 78.0515 198.391 78.1994C198.651 78.3473 198.872 78.5544 199.037 78.8038C199.202 79.0531 199.305 79.3377 199.339 79.6344L199.537 81.4072C199.564 81.6306 199.66 81.8401 199.812 82.0072L201.013 83.3279C201.217 83.5495 201.365 83.816 201.445 84.1056C201.525 84.3952 201.535 84.6996 201.474 84.9938C201.413 85.288 201.283 85.5636 201.094 85.798C200.906 86.0323 200.664 86.2187 200.389 86.3419L198.761 87.0543C198.554 87.1468 198.382 87.3022 198.269 87.4982L197.381 89.0435C197.232 89.3036 197.024 89.5248 196.773 89.6887C196.522 89.8526 196.235 89.9546 195.937 89.9861C195.866 89.9948 195.794 89.9993 195.722 89.9998ZM194.933 88.8271C195.048 88.9517 195.19 89.0477 195.349 89.1073C195.508 89.1668 195.679 89.1883 195.847 89.1698C196.016 89.1514 196.178 89.0937 196.32 89.0013C196.462 88.9089 196.581 88.7845 196.666 88.638L197.554 87.0927C197.752 86.7468 198.056 86.4725 198.42 86.309L200.048 85.572C200.203 85.5024 200.339 85.3972 200.445 85.2651C200.551 85.133 200.625 84.9778 200.659 84.812C200.693 84.6463 200.688 84.4748 200.643 84.3116C200.598 84.1484 200.515 83.9982 200.4 83.8732L199.201 82.5525C198.933 82.258 198.765 81.8871 198.72 81.4921L198.522 79.7221C198.503 79.554 198.445 79.3927 198.351 79.2514C198.258 79.1101 198.132 78.9928 197.985 78.9089C197.838 78.8251 197.672 78.7771 197.503 78.7689C197.333 78.7607 197.164 78.7925 197.009 78.8617L195.376 79.5905C195.011 79.7534 194.604 79.7975 194.213 79.7166L192.461 79.3604C192.295 79.3261 192.123 79.3315 191.96 79.376C191.796 79.4204 191.645 79.5028 191.52 79.6164C191.395 79.7299 191.298 79.8714 191.238 80.0293C191.177 80.1872 191.156 80.357 191.174 80.5249L191.364 82.2977C191.408 82.693 191.325 83.092 191.127 83.4375L190.244 84.9883C190.161 85.1353 190.113 85.2998 190.105 85.4686C190.097 85.6374 190.13 85.8056 190.199 85.9597C190.269 86.1137 190.374 86.2492 190.506 86.3551C190.638 86.461 190.793 86.5344 190.959 86.5693L192.711 86.9337C193.102 87.0151 193.457 87.2174 193.726 87.5119L194.933 88.8271Z" fill="#1D1E1B"/>
<path d="M239.328 153.497L238.124 152.182C237.913 151.949 237.634 151.788 237.326 151.722L235.574 151.358C235.344 151.309 235.129 151.208 234.946 151.061C234.762 150.914 234.617 150.726 234.52 150.512C234.424 150.299 234.379 150.065 234.39 149.831C234.401 149.597 234.468 149.369 234.584 149.166L235.47 147.617C235.623 147.346 235.688 147.034 235.654 146.724L235.461 144.954C235.436 144.722 235.467 144.487 235.55 144.268C235.633 144.049 235.767 143.853 235.941 143.696C236.115 143.539 236.323 143.425 236.549 143.363C236.776 143.301 237.014 143.293 237.243 143.34L238.995 143.697C239.302 143.76 239.62 143.726 239.906 143.598L241.536 142.869C241.75 142.773 241.984 142.729 242.219 142.74C242.454 142.751 242.682 142.817 242.886 142.933C243.09 143.049 243.264 143.212 243.393 143.407C243.522 143.603 243.603 143.826 243.629 144.058L243.827 145.828C243.865 146.134 243.997 146.421 244.204 146.65L245.406 147.971C245.563 148.144 245.677 148.352 245.738 148.578C245.8 148.803 245.807 149.04 245.759 149.269C245.712 149.498 245.61 149.712 245.464 149.895C245.317 150.077 245.13 150.222 244.916 150.319L243.288 151.056C243.002 151.185 242.765 151.399 242.609 151.67L241.726 153.237C241.609 153.441 241.446 153.614 241.249 153.742C241.052 153.871 240.827 153.951 240.594 153.976C240.36 154.002 240.123 153.972 239.903 153.888C239.683 153.805 239.486 153.671 239.328 153.497Z" fill="#008697"/>
<path d="M240.422 154.393C240.158 154.394 239.898 154.339 239.657 154.233C239.417 154.127 239.201 153.971 239.025 153.777L237.817 152.459C237.665 152.293 237.464 152.179 237.243 152.133L235.494 151.766C235.2 151.705 234.926 151.575 234.692 151.388C234.458 151.201 234.272 150.962 234.149 150.69C234.026 150.418 233.969 150.121 233.982 149.822C233.996 149.524 234.081 149.233 234.229 148.974L235.111 147.426C235.224 147.23 235.271 147.003 235.246 146.779L235.054 145.009C235.023 144.713 235.062 144.414 235.169 144.136C235.275 143.857 235.446 143.608 235.667 143.408C235.888 143.208 236.154 143.063 236.442 142.984C236.73 142.905 237.032 142.895 237.325 142.954L239.077 143.31C239.299 143.357 239.53 143.332 239.737 143.239L241.368 142.51C241.641 142.388 241.939 142.332 242.239 142.346C242.538 142.36 242.83 142.445 243.09 142.593C243.35 142.741 243.572 142.948 243.736 143.197C243.901 143.447 244.004 143.731 244.038 144.028L244.236 145.801C244.264 146.024 244.36 146.234 244.511 146.401L245.713 147.721C245.916 147.943 246.064 148.21 246.144 148.499C246.224 148.789 246.234 149.093 246.173 149.387C246.112 149.682 245.982 149.957 245.794 150.192C245.605 150.426 245.363 150.612 245.088 150.735L243.46 151.448C243.253 151.54 243.081 151.696 242.968 151.892L242.08 153.437C241.932 153.697 241.723 153.918 241.472 154.082C241.221 154.246 240.935 154.348 240.636 154.38C240.565 154.388 240.493 154.393 240.422 154.393ZM239.632 153.221C239.745 153.347 239.888 153.444 240.047 153.504C240.206 153.564 240.377 153.584 240.545 153.563C240.716 153.547 240.88 153.491 241.023 153.398C241.167 153.306 241.286 153.18 241.37 153.032L242.259 151.486C242.457 151.14 242.76 150.866 243.125 150.703L244.753 149.966C244.908 149.896 245.044 149.791 245.15 149.659C245.256 149.527 245.329 149.371 245.364 149.206C245.398 149.04 245.393 148.868 245.348 148.705C245.303 148.542 245.219 148.392 245.105 148.267L243.906 146.946C243.638 146.652 243.47 146.281 243.425 145.886L243.227 144.116C243.208 143.948 243.149 143.786 243.056 143.645C242.963 143.504 242.837 143.386 242.69 143.302C242.542 143.219 242.377 143.171 242.208 143.162C242.038 143.154 241.869 143.186 241.714 143.255L240.075 143.984C239.71 144.147 239.303 144.191 238.912 144.11L237.16 143.754C236.994 143.72 236.822 143.725 236.659 143.77C236.495 143.814 236.345 143.896 236.219 144.01C236.094 144.123 235.997 144.265 235.937 144.423C235.877 144.581 235.855 144.751 235.873 144.918L236.063 146.691C236.107 147.087 236.024 147.486 235.826 147.831L234.944 149.382C234.86 149.529 234.812 149.693 234.804 149.862C234.797 150.031 234.829 150.199 234.898 150.353C234.968 150.507 235.073 150.643 235.205 150.749C235.337 150.855 235.493 150.928 235.659 150.963L237.41 151.327C237.801 151.409 238.156 151.611 238.425 151.905L239.632 153.221Z" fill="#1D1E1B"/>
<path d="M81.261 50.5613C80.9685 50.5608 80.6856 50.457 80.4626 50.2684C80.2396 50.0798 80.0908 49.8186 80.0427 49.5311C78.4862 40.1822 80.2077 31.4854 84.231 28.3865C85.7572 27.2083 87.531 26.9672 89.181 27.707C94.956 30.2661 93.449 38.4423 93.383 38.7875C93.321 39.1087 93.1335 39.3922 92.8617 39.5757C92.5899 39.7591 92.2561 39.8275 91.9337 39.7657C91.6114 39.7039 91.3268 39.5171 91.1427 39.2463C90.9586 38.9755 90.89 38.6429 90.952 38.3217C90.9657 38.2478 92.1565 31.7238 88.1745 29.9593C87.3495 29.5894 86.541 29.7127 85.7325 30.3346C82.9825 32.4527 80.9117 39.7575 82.4737 49.1256C82.5005 49.2853 82.4954 49.4488 82.4588 49.6066C82.4221 49.7644 82.3546 49.9135 82.2601 50.0453C82.1656 50.1771 82.046 50.289 81.9081 50.3748C81.7701 50.4605 81.6166 50.5183 81.4562 50.5449C81.3917 50.5552 81.3264 50.5607 81.261 50.5613Z" fill="#D9CFFF"/>
<path d="M81.2607 50.9717C80.871 50.9713 80.4941 50.8335 80.1967 50.5828C79.8992 50.332 79.7004 49.9845 79.6354 49.6017C78.0542 40.1103 79.8389 31.2437 83.9777 28.0653C85.6277 26.7912 87.5527 26.5309 89.3594 27.3364C95.4424 30.0298 93.8694 38.5129 93.7979 38.8718C93.7146 39.2981 93.4655 39.6743 93.1048 39.9181C92.7441 40.162 92.3013 40.2537 91.8729 40.1733C91.4451 40.0904 91.0676 39.8421 90.8228 39.4827C90.5781 39.1234 90.486 38.6821 90.5667 38.2553C90.5667 38.195 91.6997 31.9725 88.0257 30.3449C87.3327 30.0381 86.6919 30.1422 86.0044 30.671C83.3534 32.715 81.3652 39.8582 82.8997 49.0701C82.9351 49.2831 82.9281 49.501 82.8789 49.7113C82.8298 49.9216 82.7396 50.1202 82.6135 50.2958C82.4873 50.4713 82.3277 50.6204 82.1437 50.7345C81.9597 50.8486 81.755 50.9255 81.5412 50.9607C81.4481 50.9716 81.3543 50.9752 81.2607 50.9717ZM87.2667 27.6981C86.2506 27.7144 85.2695 28.0705 84.4809 28.7092C80.5732 31.7232 78.9149 40.2555 80.4494 49.4619C80.4671 49.5684 80.5057 49.6704 80.5629 49.7621C80.6202 49.8538 80.695 49.9333 80.7831 49.9961C80.8712 50.059 80.9709 50.1039 81.0764 50.1284C81.1819 50.1528 81.2913 50.1564 81.3982 50.1387C81.5051 50.1211 81.6075 50.0827 81.6995 50.0256C81.7914 49.9686 81.8713 49.894 81.9343 49.8062C81.9974 49.7185 82.0425 49.6192 82.0671 49.514C82.0916 49.4089 82.0951 49.2999 82.0774 49.1934C80.4907 39.6664 82.6522 32.2054 85.4902 30.0134C86.4169 29.2983 87.3822 29.1558 88.3529 29.586C92.6347 31.482 91.3779 38.332 91.3779 38.4033C91.3476 38.5626 91.3652 38.7272 91.4285 38.8766C91.4919 39.0259 91.5981 39.1533 91.7339 39.2426C91.8697 39.3319 92.029 39.3792 92.1917 39.3786C92.3544 39.378 92.5133 39.3294 92.6484 39.239C92.7385 39.1785 92.8158 39.1009 92.8757 39.0107C92.9356 38.9204 92.9771 38.8192 92.9977 38.7129C93.0609 38.3786 94.5212 30.5148 89.0322 28.0844C88.4778 27.8324 87.876 27.7007 87.2667 27.6981Z" fill="#1D1E1B"/>
<path d="M108.703 78.6373C108.688 78.929 108.777 79.2164 108.955 79.4486C109.133 79.6809 109.387 79.8429 109.673 79.906C118.96 81.95 127.766 80.6978 131.085 76.8591C132.347 75.4014 132.683 73.6588 132.028 71.9572C129.768 66.069 121.496 67.1403 121.144 67.1896C120.818 67.2343 120.524 67.4059 120.326 67.6667C120.128 67.9275 120.042 68.2561 120.086 68.5802C120.131 68.9043 120.303 69.1973 120.565 69.3949C120.827 69.5925 121.157 69.6784 121.482 69.6337C121.559 69.6337 128.162 68.7843 129.718 72.8395C130.045 73.6889 129.878 74.4835 129.212 75.248C126.946 77.8674 119.516 79.547 110.207 77.4975C109.886 77.4273 109.551 77.4864 109.274 77.6621C108.998 77.8377 108.802 78.1155 108.73 78.4346C108.717 78.5016 108.708 78.5693 108.703 78.6373Z" fill="#D9CFFF"/>
<path d="M118.27 81.2849C115.348 81.2716 112.435 80.9437 109.583 80.3067C109.202 80.2223 108.864 80.0062 108.627 79.6967C108.391 79.3872 108.273 79.0044 108.293 78.6161C108.297 78.5239 108.309 78.4321 108.329 78.3421C108.376 78.1313 108.463 77.9316 108.587 77.7546C108.711 77.5775 108.869 77.4265 109.052 77.3103C109.234 77.194 109.438 77.1147 109.652 77.0769C109.865 77.0391 110.084 77.0435 110.295 77.0899C119.447 79.1038 126.71 77.5009 128.899 74.9719C129.466 74.3171 129.603 73.6841 129.334 72.9772C127.895 69.2481 121.601 70.0317 121.551 70.0399C121.118 70.0985 120.68 69.9837 120.332 69.7207C119.984 69.4577 119.755 69.068 119.695 68.637C119.663 68.4235 119.675 68.2058 119.729 67.9969C119.784 67.788 119.879 67.592 120.011 67.4205C120.143 67.2473 120.308 67.102 120.497 66.9928C120.686 66.8837 120.895 66.813 121.111 66.7848C121.474 66.7328 130.06 65.6176 132.436 71.8127C133.148 73.6622 132.785 75.5501 131.421 77.1283C129.07 79.819 124.153 81.2849 118.27 81.2849ZM109.938 77.8791C109.78 77.8791 109.627 77.9248 109.495 78.0106C109.311 78.128 109.182 78.3133 109.135 78.5257C109.124 78.5697 109.118 78.6147 109.116 78.66C109.106 78.854 109.165 79.0453 109.284 79.1998C109.402 79.3543 109.571 79.462 109.762 79.5039C118.908 81.5178 127.549 80.3259 130.775 76.5913C131.932 75.2541 132.24 73.6595 131.644 72.1059C129.499 66.5081 121.551 67.552 121.202 67.6041C121.092 67.6153 120.985 67.6486 120.888 67.7019C120.791 67.7551 120.706 67.8273 120.637 67.9141C120.569 68.0009 120.519 68.1005 120.49 68.2071C120.461 68.3136 120.454 68.4249 120.469 68.5342C120.484 68.6435 120.521 68.7487 120.578 68.8434C120.635 68.9382 120.71 69.0205 120.799 69.0856C120.889 69.1507 120.991 69.1972 121.098 69.2223C121.206 69.2474 121.318 69.2505 121.427 69.2316C121.496 69.2316 128.429 68.3357 130.104 72.6977C130.483 73.6896 130.288 74.6404 129.523 75.5227C127.18 78.2325 119.582 79.9889 110.117 77.9065C110.058 77.8904 109.998 77.8812 109.938 77.8791Z" fill="#1D1E1B"/>
<path d="M71.0755 106.164L65.5755 100.64C63.2147 97.5752 60.4751 94.8198 57.4217 92.4389L51.9217 86.915L49.6035 89.2029C49.5538 89.2376 49.5069 89.2761 49.4632 89.318C47.97 90.7921 51.0417 96.2968 56.3382 101.612C61.6347 106.928 67.1155 110.041 68.6087 108.567C68.6603 108.525 68.7081 108.479 68.7517 108.43V108.443L71.0755 106.164Z" fill="#FFAD00"/>
<path d="M67.558 109.355C66.5928 109.355 65.2948 108.901 63.708 108.005C61.3568 106.673 58.6425 104.508 56.0603 101.911C53.478 99.3133 51.333 96.5898 50.0103 94.2389C48.6875 91.8879 48.3603 90.1289 49.0395 89.2164C49.082 89.1574 49.1299 89.1023 49.1825 89.052L49.254 88.9863L49.3118 88.9233L51.9243 86.3477L57.6993 92.1428C60.7621 94.5404 63.5139 97.308 65.8915 100.382L71.6528 106.18L68.7515 109.029H68.7378C68.3896 109.261 67.9762 109.375 67.558 109.355ZM50.2055 89.2027L50.2578 89.2548L49.87 89.548C49.8404 89.5702 49.8119 89.594 49.7848 89.6192C49.2348 90.1672 49.5978 91.7838 50.7418 93.8361C52.0233 96.1267 54.1188 98.79 56.6488 101.333C59.1788 103.875 61.8325 105.991 64.1178 107.289C66.1665 108.451 67.7863 108.832 68.339 108.284C68.3659 108.258 68.3907 108.229 68.4133 108.199L68.6883 107.807L68.7515 107.87L70.484 106.161L65.259 100.886C64.0933 99.3679 62.8293 97.9273 61.475 96.5733C60.1283 95.2118 58.6944 93.9386 57.1823 92.762L57.141 92.7264L51.938 87.4957L50.2055 89.2027Z" fill="#1D1D1B"/>
<path d="M71.206 106.032C72.6993 104.558 69.6259 99.0546 64.3415 93.7394C59.057 88.4243 53.5625 85.3104 52.0691 86.7843C50.5758 88.2583 53.6492 93.7619 58.9337 99.077C64.2181 104.392 69.7126 107.506 71.206 106.032Z" fill="#D9CFFF"/>
<path d="M70.1258 106.814C69.1605 106.814 67.8625 106.359 66.2758 105.463C63.9273 104.131 61.2103 101.967 58.6308 99.3719C56.0513 96.7771 53.9035 94.048 52.5808 91.6999C51.1673 89.1654 50.8813 87.3679 51.7558 86.4939C52.6303 85.6198 54.4343 85.9267 56.9643 87.3597C59.3128 88.6913 62.0298 90.8532 64.612 93.4507C67.1943 96.0482 69.3393 98.7745 70.662 101.123C72.0755 103.654 72.3588 105.452 71.487 106.329C71.3041 106.496 71.0894 106.625 70.8556 106.708C70.6218 106.792 70.3737 106.827 70.1258 106.814ZM53.1253 86.8336C52.8443 86.8114 52.5659 86.8999 52.3498 87.0802C51.7998 87.6282 52.1628 89.2421 53.3095 91.2943C54.5883 93.585 56.6865 96.2483 59.2165 98.791C61.7465 101.334 64.3975 103.449 66.6855 104.748C68.7343 105.909 70.3513 106.29 70.9068 105.745C71.4568 105.197 71.091 103.583 69.9443 101.528C68.6655 99.2403 66.57 96.5771 64.04 94.0316C61.51 91.4861 58.8563 89.3736 56.571 88.0776C55.1465 87.2665 53.9283 86.8336 53.1335 86.8336H53.1253Z" fill="#1D1E1B"/>
<path d="M67.4366 103.353C62.6214 100.361 58.1416 96.8234 54.9681 91.1845C54.8574 90.9868 54.8032 90.7626 54.8114 90.5363C54.8195 90.31 54.8898 90.0903 55.0146 89.9011C55.1393 89.7118 55.3137 89.5603 55.5189 89.4629C55.724 89.3655 55.952 89.326 56.1781 89.3487C62.5856 89.8802 72.7579 83.4905 77.1414 70.6865L88.6254 81.7232C74.7131 85.8113 68.7236 94.9355 69.1774 102.317C69.1912 102.526 69.1469 102.734 69.0494 102.919C68.952 103.104 68.8051 103.258 68.6251 103.366C68.445 103.473 68.2387 103.528 68.029 103.526C67.8193 103.524 67.6143 103.464 67.4366 103.353Z" fill="#D9CFFF"/>
<path d="M68.0424 103.939C67.7507 103.939 67.465 103.857 67.2174 103.704C62.8999 101.032 58.0269 97.4702 54.6087 91.3874C54.4603 91.1282 54.3865 90.8334 54.3952 90.5352C54.404 90.237 54.4949 89.9469 54.6581 89.6968C54.8243 89.4418 55.0569 89.2365 55.331 89.1028C55.6051 88.9691 55.9106 88.9121 56.2146 88.9378C62.8697 89.4858 72.6212 82.6194 76.7517 70.5524L76.9607 69.9414L89.4237 81.9179L88.7417 82.118C74.9064 86.1841 69.1534 95.1796 69.5907 102.293C69.6034 102.503 69.5728 102.714 69.5008 102.913C69.4288 103.111 69.317 103.293 69.172 103.447C69.0271 103.601 68.8521 103.724 68.6579 103.808C68.4637 103.892 68.2542 103.936 68.0424 103.937V103.939ZM67.6519 103.005C67.7654 103.075 67.8963 103.113 68.03 103.113C68.1637 103.113 68.2947 103.075 68.4081 103.005C68.5245 102.937 68.6194 102.838 68.6821 102.718C68.7448 102.599 68.7728 102.465 68.7629 102.331C68.3119 95.0124 74.0429 85.8087 87.8287 81.5234L77.3181 71.4402C73.1106 83.0359 63.7579 89.7982 56.9516 89.7982C56.6766 89.7982 56.4016 89.7982 56.1459 89.7653C55.9913 89.7508 55.8356 89.7788 55.6959 89.8465C55.5562 89.9141 55.4379 90.0188 55.3539 90.1489C55.2718 90.2735 55.226 90.4184 55.2217 90.5674C55.2173 90.7164 55.2545 90.8636 55.3291 90.9928C58.6539 96.9003 63.4251 100.383 67.6574 103.013L67.6519 103.005Z" fill="#1D1E1B"/>
<path d="M98.6055 32.2148L127.694 61.472L109.663 79.2684C105.771 83.1104 100.506 85.2551 95.0272 85.2308C89.5482 85.2065 84.303 83.0153 80.4449 79.139C76.5876 75.2593 74.435 70.0117 74.4608 64.5506C74.4867 59.0896 76.6888 53.8625 80.5826 50.0191L98.6132 32.2226L98.6055 32.2148Z" fill="#FFAD00"/>
<path d="M95.1159 85.6302C92.3313 85.6354 89.5736 85.0889 87.003 84.0226C84.4323 82.9562 82.1002 81.3912 80.1421 79.4186C78.1937 77.4596 76.6517 75.1374 75.6042 72.5845C74.5568 70.0316 74.0243 67.2982 74.0373 64.5402C74.0504 61.7823 74.6086 59.0539 75.6801 56.511C76.7517 53.9681 78.3155 51.6604 80.2824 49.7197L98.6056 31.6357L128.273 61.4743L109.949 79.5583C106.005 83.4568 100.672 85.64 95.1159 85.6302ZM80.7279 78.8377C82.5956 80.7278 84.8214 82.2296 87.2761 83.2559C89.7309 84.2822 92.3657 84.8126 95.0279 84.8164H95.1269C97.7695 84.8224 100.388 84.3096 102.831 83.3072C105.275 82.3049 107.497 80.8327 109.369 78.9747L127.107 61.4689L98.6001 32.8057L80.8516 50.3034C77.0436 54.0742 74.8921 59.1958 74.8689 64.5451C74.8457 69.8943 76.9527 75.0343 80.7279 78.8377Z" fill="#1D1D1B"/>
<path d="M132.227 64.1099C135.534 60.8457 130.047 49.9838 119.971 39.8491C109.894 29.7145 99.0452 24.1449 95.7381 27.409C92.4309 30.6732 97.9184 41.5351 107.995 51.6697C118.071 61.8044 128.92 67.374 132.227 64.1099Z" fill="#FFAD00"/>
<path d="M129.527 65.4533C127.676 65.4533 125.281 64.7245 122.473 63.2832C117.858 60.9132 112.617 56.8936 107.714 51.9616C102.81 47.0296 98.8257 41.7715 96.4937 37.1656C94.0902 32.4117 93.7244 28.8497 95.4624 27.1344C97.2004 25.4192 100.77 25.8192 105.519 28.2551C110.134 30.6252 115.375 34.6448 120.278 39.5768C125.182 44.5088 129.166 49.7668 131.498 54.3865C133.899 59.1404 134.268 62.7024 132.53 64.4176C131.809 65.1053 130.792 65.4533 129.527 65.4533ZM98.4517 26.8933C97.4012 26.8933 96.5762 27.1673 96.0262 27.7153C94.5852 29.1374 95.0169 32.4473 97.2142 36.7929C99.5077 41.3386 103.44 46.5227 108.283 51.3944C113.126 56.2661 118.293 60.2336 122.833 62.5626C127.175 64.7902 130.489 65.2533 131.933 63.8312C133.374 62.4092 132.942 59.0993 130.745 54.7536C128.449 50.208 124.519 45.0239 119.676 40.1522C114.833 35.2805 109.669 31.302 105.131 28.9702C102.447 27.6002 100.157 26.8933 98.4517 26.8933Z" fill="#1D1D1B"/>
<path d="M128.606 59.3124C129.887 58.0483 124.638 50.6998 116.882 42.8991C109.126 35.0984 101.801 29.7995 100.52 31.0636C99.2394 32.3278 104.488 39.6762 112.244 47.4769C120 55.2776 127.325 60.5765 128.606 59.3124Z" fill="#835D07"/>
<path d="M128.085 59.8905C125.115 59.8905 117.124 52.9665 111.954 47.766C108.186 43.9793 104.886 40.1762 102.659 37.0581C99.0235 31.9672 99.931 31.0684 100.231 30.7725C100.53 30.4766 101.441 29.5806 106.517 33.2385C109.625 35.4853 113.409 38.8117 117.176 42.5984C122.951 48.3935 130.813 57.7012 128.897 59.5864C128.789 59.6892 128.662 59.7691 128.522 59.8214C128.383 59.8737 128.234 59.8972 128.085 59.8905ZM101.083 31.2822C100.986 31.272 100.888 31.2984 100.808 31.3561C100.563 31.6 100.772 33.0001 103.33 36.5813C105.53 39.6638 108.8 43.4313 112.537 47.1879C116.274 50.9444 120.022 54.2406 123.094 56.4628C126.669 59.0438 128.066 59.2658 128.319 59.0219C128.572 58.7781 128.355 57.3779 125.8 53.7967C123.6 50.7142 120.328 46.9467 116.593 43.1902C112.859 39.4337 109.108 36.1402 106.033 33.918C103.126 31.8247 101.666 31.2822 101.083 31.2822Z" fill="#1D1D1B"/>
<path d="M98.203 82.0793C97.1551 82.0837 96.1152 81.898 95.134 81.5313C95.0325 81.4932 94.9396 81.4355 94.8605 81.3616C94.7814 81.2876 94.7177 81.1989 94.673 81.1004C94.5827 80.9016 94.5755 80.6751 94.6528 80.4709C94.7301 80.2667 94.8856 80.1015 95.0852 80.0116C95.2848 79.9216 95.5121 79.9144 95.717 79.9914C105.147 83.5534 116.892 64.8995 116.999 64.7105C117.116 64.5278 117.3 64.3982 117.512 64.3499C117.723 64.3015 117.946 64.3384 118.13 64.4524C118.315 64.5664 118.447 64.7483 118.498 64.9587C118.549 65.1692 118.514 65.3911 118.402 65.5763C117.943 66.3106 108.01 82.0793 98.203 82.0793Z" fill="white"/>
<path d="M81.1266 53.0819C81.0004 53.0816 80.878 53.0381 80.7801 52.9586C74.0179 47.4786 70.2284 37.2447 69.8187 23.3666C69.6495 16.858 70.1211 10.3486 71.2267 3.93176C71.2365 3.85772 71.2615 3.78647 71.3001 3.7224C71.3386 3.65833 71.3898 3.60278 71.4507 3.55916C71.5116 3.51555 71.5807 3.4848 71.654 3.46879C71.7272 3.45278 71.8029 3.45186 71.8765 3.46607C71.9501 3.48029 72.02 3.50935 72.0819 3.55146C72.1439 3.59358 72.1965 3.64786 72.2366 3.71097C72.2767 3.77409 72.3034 3.8447 72.3151 3.91848C72.3268 3.99226 72.3233 4.06764 72.3047 4.14C71.211 10.4845 70.7431 16.9203 70.9077 23.3556C71.1827 32.7977 73.2479 45.4482 81.4621 52.1092C81.5494 52.18 81.6127 52.2758 81.6436 52.3836C81.6745 52.4914 81.6714 52.6061 81.6349 52.7121C81.5983 52.8181 81.53 52.9104 81.4391 52.9766C81.3482 53.0427 81.2392 53.0795 81.1266 53.0819Z" fill="#1D1D1B"/>
<path d="M79.4767 58.5625H79.3805C73.4762 57.524 68.1962 53.0332 64.1097 45.5776C62.2219 42.0949 60.7401 38.4085 59.6932 34.5902C59.6752 34.5204 59.6711 34.4478 59.6812 34.3764C59.6913 34.305 59.7155 34.2363 59.7522 34.1742C59.789 34.1121 59.8377 34.0579 59.8955 34.0146C59.9533 33.9712 60.0192 33.9397 60.0892 33.9217C60.1593 33.9037 60.2322 33.8996 60.3038 33.9097C60.3755 33.9198 60.4444 33.9438 60.5067 33.9805C60.569 34.0171 60.6235 34.0656 60.667 34.1232C60.7105 34.1808 60.7422 34.2464 60.7602 34.3162C60.8125 34.5245 66.065 55.0964 79.573 57.472C79.7188 57.4847 79.8537 57.5546 79.9478 57.6664C80.0419 57.7781 80.0876 57.9226 80.0748 58.0679C80.0621 58.2133 79.9919 58.3476 79.8797 58.4414C79.7676 58.5351 79.6226 58.5807 79.4767 58.568V58.5625Z" fill="#1D1D1B"/>
<path d="M59.4004 88.4281C59.4004 88.4281 54.6594 87.2307 56.3479 78.9148C58.0364 70.5989 62.1972 63.4173 68.5304 61.6144C74.8637 59.8115 79.3352 62.3405 81.2877 65.4888C83.2402 68.637 81.7414 72.0346 77.3057 73.6841C77.3057 73.6841 79.5964 79.734 71.6242 82.1781C71.6242 82.1781 71.5114 92.486 63.7894 87.3841L59.4004 88.4281Z" fill="#FFCDB2"/>
<path d="M72.6002 61.0115C76.783 61.0115 79.775 63.0665 81.2765 65.4886C83.2317 68.6341 81.7302 72.0345 77.2945 73.684C77.2945 73.684 79.5852 79.7339 71.613 82.178C71.613 82.178 71.5415 88.8005 67.5347 88.8005C66.542 88.8005 65.31 88.395 63.7782 87.384L59.4002 88.4279C59.4002 88.4279 54.6592 87.2305 56.3477 78.9146C58.0362 70.5987 62.197 63.4172 68.5302 61.6143C69.8558 61.2251 71.2294 61.0222 72.6112 61.0115H72.6002ZM72.6112 60.1895C71.1523 60.2009 69.7021 60.4139 68.302 60.8224C65.0872 61.7376 62.296 63.9405 60.008 67.3655C57.9785 70.4069 56.433 74.3443 55.5392 78.7502C54.7912 82.4355 55.1405 85.3016 56.5732 87.2716C57.204 88.1967 58.1277 88.8845 59.1967 89.2252L59.3947 89.2746L59.5927 89.228L63.638 88.2608C65.079 89.1622 66.388 89.6308 67.5457 89.6308C68.9647 89.6308 70.8677 88.9567 71.8742 85.7427C72.1662 84.7823 72.3507 83.7926 72.4242 82.7917C75.0477 81.8848 76.8435 80.4792 77.7647 78.605C78.4211 77.2269 78.6047 75.6721 78.2872 74.1799C80.5175 73.1962 82.0602 71.7139 82.668 69.9439C83.218 68.3492 82.9815 66.6559 81.9915 65.0639C80.0995 62.017 76.5932 60.1977 72.6112 60.1977V60.1895Z" fill="#1D1D1B"/>
<path d="M77.2752 74.0429C77.2071 74.0432 77.1401 74.0265 77.08 73.9945C77.02 73.9624 76.969 73.916 76.9315 73.8593C72.7405 67.5984 65.3485 69.3548 65.2742 69.3739C65.1678 69.4001 65.0552 69.383 64.9613 69.3265C64.8675 69.27 64.8 69.1786 64.7737 69.0725C64.7475 68.9664 64.7646 68.8543 64.8213 68.7608C64.8781 68.6673 64.9698 68.6 65.0762 68.5739C65.156 68.5547 73.109 66.6559 77.619 73.4045C77.649 73.4495 77.6698 73.4999 77.6802 73.5529C77.6906 73.6058 77.6905 73.6604 77.6798 73.7133C77.669 73.7662 77.6479 73.8165 77.6177 73.8613C77.5875 73.9061 77.5486 73.9445 77.5035 73.9744C77.436 74.0196 77.3565 74.0434 77.2752 74.0429Z" fill="black"/>
<path d="M71.6365 82.6742H71.565C63.7413 81.2823 61.984 77.6628 61.9125 77.5093C61.8716 77.4113 61.8703 77.3013 61.909 77.2023C61.9476 77.1033 62.0233 77.0231 62.12 76.9785C62.2167 76.9339 62.327 76.9283 62.4278 76.9629C62.5285 76.9975 62.6119 77.0696 62.6605 77.1641C62.6853 77.2162 64.382 80.559 71.708 81.8632C71.8174 81.8727 71.9186 81.925 71.9892 82.0088C72.0599 82.0925 72.0943 82.2008 72.0848 82.3098C72.0753 82.4188 72.0227 82.5196 71.9387 82.59C71.8546 82.6604 71.7459 82.6947 71.6365 82.6852V82.6742Z" fill="black"/>
<path d="M81.2618 68.7004C81.1396 68.7003 81.0197 68.6678 80.9143 68.6061C80.8089 68.5445 80.7219 68.456 80.6623 68.3497C75.8251 59.7242 67.6383 64.0452 67.2918 64.2397C67.133 64.317 66.9504 64.3303 66.782 64.277C66.6136 64.2236 66.4722 64.1077 66.3873 63.9533C66.3024 63.7989 66.2804 63.6178 66.3259 63.4477C66.3715 63.2776 66.481 63.1314 66.6318 63.0396C66.7281 62.9848 76.3696 57.8939 81.8613 67.6976C81.9052 67.7766 81.933 67.8636 81.9429 67.9534C81.9529 68.0431 81.9448 68.134 81.9192 68.2207C81.8936 68.3073 81.851 68.3881 81.7939 68.4582C81.7367 68.5283 81.6662 68.5865 81.5863 68.6292C81.4858 68.6796 81.3742 68.7041 81.2618 68.7004Z" fill="white"/>
</g>
<defs>
<clipPath id="clip0_11140_1675">
<rect width="275" height="196" fill="white"/>
</clipPath>
</defs>
</svg>
