<svg width="736" height="437" viewBox="0 0 736 437" fill="none" xmlns="http://www.w3.org/2000/svg">
<g filter="url(#filter0_d_10478_8545)">
<rect x="20" y="20" width="696" height="397" rx="18" fill="white"/>
<path d="M44.7486 51.7422V50.1364H54.3171V51.7422H50.4595V62.5H48.6001V51.7422H44.7486ZM57.7235 62.7053C57.1359 62.7053 56.6046 62.5966 56.1297 62.3793C55.6548 62.1579 55.2785 61.8379 55.0008 61.4194C54.7271 61.0008 54.5903 60.4877 54.5903 59.88C54.5903 59.3568 54.6909 58.9261 54.8921 58.5881C55.0934 58.25 55.365 57.9824 55.7071 57.7852C56.0492 57.5879 56.4316 57.439 56.8541 57.3384C57.2767 57.2378 57.7074 57.1613 58.146 57.109C58.7014 57.0446 59.1522 56.9923 59.4983 56.9521C59.8444 56.9078 60.096 56.8374 60.2529 56.7408C60.4099 56.6442 60.4884 56.4872 60.4884 56.2699V56.2276C60.4884 55.7004 60.3395 55.2919 60.0416 55.0021C59.7478 54.7124 59.3092 54.5675 58.7256 54.5675C58.1179 54.5675 57.6389 54.7023 57.2888 54.9719C56.9427 55.2376 56.7032 55.5334 56.5704 55.8594L54.874 55.473C55.0753 54.9096 55.3691 54.4548 55.7554 54.1087C56.1458 53.7585 56.5945 53.505 57.1017 53.348C57.6088 53.187 58.142 53.1065 58.7014 53.1065C59.0717 53.1065 59.4641 53.1508 59.8786 53.2393C60.2972 53.3239 60.6876 53.4808 61.0498 53.7102C61.416 53.9396 61.7159 54.2676 61.9493 54.6942C62.1827 55.1168 62.2994 55.6662 62.2994 56.3423V62.5H60.5367V61.2322H60.4642C60.3475 61.4657 60.1724 61.6951 59.939 61.9205C59.7056 62.1458 59.4057 62.333 59.0395 62.4819C58.6733 62.6308 58.2346 62.7053 57.7235 62.7053ZM58.1159 61.2564C58.6149 61.2564 59.0415 61.1578 59.3957 60.9606C59.7539 60.7634 60.0255 60.5058 60.2107 60.1879C60.3998 59.8659 60.4944 59.5218 60.4944 59.1555V57.9602C60.43 58.0246 60.3053 58.085 60.1201 58.1413C59.939 58.1937 59.7317 58.2399 59.4983 58.2802C59.2649 58.3164 59.0375 58.3506 58.8161 58.3828C58.5948 58.411 58.4097 58.4351 58.2607 58.4553C57.9106 58.4995 57.5906 58.574 57.3009 58.6786C57.0151 58.7833 56.7857 58.9342 56.6127 59.1314C56.4436 59.3246 56.3591 59.5821 56.3591 59.9041C56.3591 60.3509 56.5241 60.6889 56.8541 60.9183C57.1842 61.1437 57.6047 61.2564 58.1159 61.2564ZM64.7037 62.5V53.2273H66.4483V54.7003H66.5449C66.714 54.2012 67.0118 53.8088 67.4384 53.5231C67.869 53.2333 68.356 53.0884 68.8993 53.0884C69.012 53.0884 69.1448 53.0924 69.2978 53.1005C69.4547 53.1085 69.5775 53.1186 69.666 53.1307V54.8572C69.5936 54.8371 69.4648 54.815 69.2797 54.7908C69.0945 54.7627 68.9094 54.7486 68.7243 54.7486C68.2976 54.7486 67.9173 54.8391 67.5833 55.0202C67.2533 55.1973 66.9917 55.4448 66.7985 55.7628C66.6053 56.0767 66.5087 56.4349 66.5087 56.8374V62.5H64.7037ZM74.8925 62.6871C73.9789 62.6871 73.1921 62.492 72.532 62.1016C71.876 61.7071 71.3689 61.1538 71.0107 60.4414C70.6566 59.725 70.4795 58.8859 70.4795 57.924C70.4795 56.9742 70.6566 56.1371 71.0107 55.4126C71.3689 54.6882 71.868 54.1228 72.5079 53.7163C73.1518 53.3098 73.9044 53.1065 74.7657 53.1065C75.2889 53.1065 75.796 53.1931 76.287 53.3661C76.778 53.5392 77.2187 53.8108 77.6091 54.1811C77.9995 54.5514 78.3074 55.0323 78.5328 55.6239C78.7581 56.2115 78.8708 56.9259 78.8708 57.767V58.407H71.4997V57.0547H77.102C77.102 56.5798 77.0054 56.1592 76.8122 55.793C76.6191 55.4227 76.3474 55.1309 75.9972 54.9176C75.6511 54.7043 75.2446 54.5977 74.7778 54.5977C74.2707 54.5977 73.828 54.7224 73.4497 54.9719C73.0754 55.2174 72.7856 55.5394 72.5803 55.9379C72.3791 56.3323 72.2785 56.7609 72.2785 57.2237V58.2802C72.2785 58.9 72.3872 59.4272 72.6045 59.8619C72.8258 60.2965 73.1337 60.6286 73.5281 60.858C73.9226 61.0833 74.3834 61.196 74.9106 61.196C75.2527 61.196 75.5646 61.1477 75.8463 61.0511C76.128 60.9505 76.3715 60.8016 76.5768 60.6044C76.782 60.4072 76.939 60.1637 77.0477 59.8739L78.7561 60.1818C78.6193 60.6849 78.3738 61.1256 78.0196 61.5039C77.6695 61.8782 77.2288 62.17 76.6975 62.3793C76.1703 62.5845 75.5686 62.6871 74.8925 62.6871ZM85.2866 53.2273V54.6761H80.0465V53.2273H85.2866ZM81.4833 62.5V52.1527C81.4833 51.5732 81.6101 51.0922 81.8636 50.7099C82.1172 50.3235 82.4532 50.0357 82.8718 49.8466C83.2904 49.6534 83.7451 49.5568 84.2362 49.5568C84.5984 49.5568 84.9083 49.587 85.1658 49.6474C85.4234 49.7037 85.6146 49.756 85.7393 49.8043L85.3168 51.2653C85.2322 51.2411 85.1236 51.2129 84.9908 51.1808C84.858 51.1445 84.697 51.1264 84.5078 51.1264C84.0691 51.1264 83.7552 51.2351 83.5661 51.4524C83.3809 51.6697 83.2884 51.9837 83.2884 52.3942V62.5H81.4833ZM89.5653 62.7053C88.9777 62.7053 88.4464 62.5966 87.9715 62.3793C87.4966 62.1579 87.1203 61.8379 86.8426 61.4194C86.5689 61.0008 86.4321 60.4877 86.4321 59.88C86.4321 59.3568 86.5327 58.9261 86.7339 58.5881C86.9352 58.25 87.2068 57.9824 87.5489 57.7852C87.891 57.5879 88.2733 57.439 88.6959 57.3384C89.1185 57.2378 89.5492 57.1613 89.9878 57.109C90.5432 57.0446 90.994 56.9923 91.3401 56.9521C91.6862 56.9078 91.9378 56.8374 92.0947 56.7408C92.2517 56.6442 92.3302 56.4872 92.3302 56.2699V56.2276C92.3302 55.7004 92.1813 55.2919 91.8834 55.0021C91.5896 54.7124 91.151 54.5675 90.5674 54.5675C89.9597 54.5675 89.4807 54.7023 89.1306 54.9719C88.7845 55.2376 88.545 55.5334 88.4122 55.8594L86.7158 55.473C86.9171 54.9096 87.2108 54.4548 87.5972 54.1087C87.9876 53.7585 88.4363 53.505 88.9434 53.348C89.4506 53.187 89.9838 53.1065 90.5432 53.1065C90.9135 53.1065 91.3059 53.1508 91.7204 53.2393C92.139 53.3239 92.5294 53.4808 92.8916 53.7102C93.2578 53.9396 93.5577 54.2676 93.7911 54.6942C94.0245 55.1168 94.1412 55.6662 94.1412 56.3423V62.5H92.3785V61.2322H92.306C92.1893 61.4657 92.0142 61.6951 91.7808 61.9205C91.5474 62.1458 91.2475 62.333 90.8813 62.4819C90.5151 62.6308 90.0764 62.7053 89.5653 62.7053ZM89.9577 61.2564C90.4567 61.2564 90.8833 61.1578 91.2375 60.9606C91.5957 60.7634 91.8673 60.5058 92.0525 60.1879C92.2416 59.8659 92.3362 59.5218 92.3362 59.1555V57.9602C92.2718 58.0246 92.147 58.085 91.9619 58.1413C91.7808 58.1937 91.5735 58.2399 91.3401 58.2802C91.1067 58.3164 90.8793 58.3506 90.6579 58.3828C90.4366 58.411 90.2515 58.4351 90.1025 58.4553C89.7524 58.4995 89.4324 58.574 89.1427 58.6786C88.8569 58.7833 88.6275 58.9342 88.4545 59.1314C88.2854 59.3246 88.2009 59.5821 88.2009 59.9041C88.2009 60.3509 88.3659 60.6889 88.6959 60.9183C89.026 61.1437 89.4465 61.2564 89.9577 61.2564ZM103.494 55.4911L101.858 55.7809C101.79 55.5716 101.681 55.3724 101.532 55.1832C101.387 54.9941 101.19 54.8391 100.94 54.7184C100.691 54.5977 100.379 54.5373 100.005 54.5373C99.4935 54.5373 99.0669 54.652 98.7248 54.8814C98.3827 55.1068 98.2116 55.3986 98.2116 55.7567C98.2116 56.0666 98.3263 56.3162 98.5558 56.5053C98.7852 56.6945 99.1554 56.8494 99.6665 56.9702L101.14 57.3082C101.993 57.5054 102.629 57.8093 103.047 58.2198C103.466 58.6303 103.675 59.1636 103.675 59.8196C103.675 60.375 103.514 60.87 103.192 61.3047C102.874 61.7353 102.429 62.0734 101.858 62.3189C101.29 62.5644 100.632 62.6871 99.8839 62.6871C98.8455 62.6871 97.9983 62.4658 97.3423 62.0231C96.6863 61.5763 96.2839 60.9425 96.1349 60.1214L97.8796 59.8558C97.9883 60.3106 98.2116 60.6547 98.5497 60.8881C98.8878 61.1175 99.3285 61.2322 99.8718 61.2322C100.463 61.2322 100.936 61.1095 101.29 60.864C101.645 60.6145 101.822 60.3106 101.822 59.9524C101.822 59.6626 101.713 59.4192 101.496 59.2219C101.282 59.0247 100.954 58.8758 100.512 58.7752L98.9421 58.4311C98.0768 58.2339 97.4369 57.92 97.0224 57.4893C96.6119 57.0587 96.4066 56.5134 96.4066 55.8533C96.4066 55.306 96.5595 54.8271 96.8654 54.4165C97.1713 54.006 97.5939 53.6861 98.1332 53.4567C98.6725 53.2232 99.2902 53.1065 99.9865 53.1065C100.989 53.1065 101.777 53.3239 102.353 53.7585C102.929 54.1892 103.309 54.7667 103.494 55.4911Z" fill="#3F3F46"/>
<rect x="668" y="44" width="24" height="24" rx="5" fill="#F4F4F5"/>
<rect x="679" y="55" width="2" height="2" rx="1" fill="#A1A1AA"/>
<rect x="683" y="55" width="2" height="2" rx="1" fill="#A1A1AA"/>
<rect x="675" y="55" width="2" height="2" rx="1" fill="#A1A1AA"/>
<path d="M46.3118 114H44.343L47.9276 103.818H50.2045L53.794 114H51.8253L49.1058 105.906H49.0263L46.3118 114ZM46.3764 110.008H51.7457V111.489H46.3764V110.008ZM60.9196 106.364L58.2001 114H56.2115L53.492 106.364H55.411L57.166 112.036H57.2456L59.0055 106.364H60.9196ZM64.1436 114.154C63.6597 114.154 63.2239 114.068 62.8361 113.896C62.4516 113.72 62.1467 113.461 61.9213 113.12C61.6993 112.779 61.5882 112.358 61.5882 111.857C61.5882 111.426 61.6678 111.07 61.8269 110.788C61.986 110.507 62.2031 110.281 62.4782 110.112C62.7533 109.943 63.0632 109.816 63.4078 109.729C63.7559 109.64 64.1155 109.575 64.4867 109.536C64.9341 109.489 65.2971 109.448 65.5755 109.411C65.8539 109.371 66.056 109.312 66.182 109.232C66.3113 109.149 66.3759 109.022 66.3759 108.849V108.82C66.3759 108.445 66.2649 108.155 66.0428 107.95C65.8207 107.744 65.5009 107.641 65.0833 107.641C64.6425 107.641 64.2928 107.737 64.0343 107.93C63.7791 108.122 63.6067 108.349 63.5172 108.611L61.8368 108.372C61.9694 107.908 62.1882 107.52 62.4931 107.209C62.798 106.894 63.1709 106.659 63.6117 106.503C64.0525 106.344 64.5397 106.264 65.0733 106.264C65.4412 106.264 65.8075 106.307 66.1721 106.393C66.5366 106.48 66.8697 106.622 67.1713 106.821C67.473 107.017 67.7149 107.283 67.8972 107.621C68.0828 107.96 68.1756 108.382 68.1756 108.889V114H66.4455V112.951H66.3858C66.2765 113.163 66.1223 113.362 65.9235 113.548C65.7279 113.73 65.481 113.877 65.1827 113.99C64.8877 114.099 64.5414 114.154 64.1436 114.154ZM64.611 112.832C64.9722 112.832 65.2855 112.76 65.5506 112.618C65.8158 112.472 66.0196 112.28 66.1621 112.041C66.3079 111.803 66.3809 111.542 66.3809 111.261V110.361C66.3245 110.407 66.2284 110.45 66.0925 110.49C65.9599 110.53 65.8108 110.565 65.6451 110.594C65.4793 110.624 65.3153 110.651 65.1529 110.674C64.9905 110.697 64.8496 110.717 64.7303 110.734C64.4618 110.77 64.2215 110.83 64.0094 110.913C63.7973 110.996 63.6299 111.112 63.5073 111.261C63.3846 111.406 63.3233 111.595 63.3233 111.827C63.3233 112.159 63.4443 112.409 63.6863 112.578C63.9282 112.747 64.2364 112.832 64.611 112.832ZM71.785 103.818V114H69.9853V103.818H71.785ZM73.6357 114V106.364H75.4354V114H73.6357ZM74.5405 105.28C74.2554 105.28 74.0102 105.185 73.8047 104.996C73.5992 104.804 73.4964 104.574 73.4964 104.305C73.4964 104.034 73.5992 103.803 73.8047 103.614C74.0102 103.422 74.2554 103.326 74.5405 103.326C74.8288 103.326 75.0741 103.422 75.2763 103.614C75.4818 103.803 75.5845 104.034 75.5845 104.305C75.5845 104.574 75.4818 104.804 75.2763 104.996C75.0741 105.185 74.8288 105.28 74.5405 105.28ZM79.4835 114.154C78.9996 114.154 78.5637 114.068 78.176 113.896C77.7915 113.72 77.4866 113.461 77.2612 113.12C77.0391 112.779 76.9281 112.358 76.9281 111.857C76.9281 111.426 77.0076 111.07 77.1667 110.788C77.3258 110.507 77.5429 110.281 77.818 110.112C78.0931 109.943 78.403 109.816 78.7477 109.729C79.0957 109.64 79.4553 109.575 79.8265 109.536C80.274 109.489 80.6369 109.448 80.9153 109.411C81.1937 109.371 81.3959 109.312 81.5218 109.232C81.6511 109.149 81.7157 109.022 81.7157 108.849V108.82C81.7157 108.445 81.6047 108.155 81.3826 107.95C81.1606 107.744 80.8407 107.641 80.4231 107.641C79.9823 107.641 79.6326 107.737 79.3741 107.93C79.1189 108.122 78.9466 108.349 78.8571 108.611L77.1767 108.372C77.3092 107.908 77.528 107.52 77.8329 107.209C78.1378 106.894 78.5107 106.659 78.9515 106.503C79.3923 106.344 79.8796 106.264 80.4132 106.264C80.7811 106.264 81.1473 106.307 81.5119 106.393C81.8765 106.48 82.2096 106.622 82.5112 106.821C82.8128 107.017 83.0547 107.283 83.237 107.621C83.4226 107.96 83.5154 108.382 83.5154 108.889V114H81.7853V112.951H81.7257C81.6163 113.163 81.4622 113.362 81.2633 113.548C81.0678 113.73 80.8208 113.877 80.5225 113.99C80.2276 114.099 79.8812 114.154 79.4835 114.154ZM79.9508 112.832C80.3121 112.832 80.6253 112.76 80.8904 112.618C81.1556 112.472 81.3594 112.28 81.502 112.041C81.6478 111.803 81.7207 111.542 81.7207 111.261V110.361C81.6644 110.407 81.5682 110.45 81.4324 110.49C81.2998 110.53 81.1506 110.565 80.9849 110.594C80.8192 110.624 80.6551 110.651 80.4927 110.674C80.3303 110.697 80.1895 110.717 80.0701 110.734C79.8017 110.77 79.5614 110.83 79.3493 110.913C79.1371 110.996 78.9698 111.112 78.8471 111.261C78.7245 111.406 78.6632 111.595 78.6632 111.827C78.6632 112.159 78.7842 112.409 79.0261 112.578C79.2681 112.747 79.5763 112.832 79.9508 112.832ZM85.3251 114V106.364H87.0701V107.636H87.1497C87.2889 107.196 87.5275 106.856 87.8656 106.617C88.207 106.375 88.5964 106.254 89.0339 106.254C89.1333 106.254 89.2444 106.259 89.367 106.269C89.493 106.276 89.5974 106.287 89.6802 106.304V107.96C89.604 107.933 89.483 107.91 89.3173 107.89C89.1549 107.867 88.9975 107.855 88.845 107.855C88.5169 107.855 88.2219 107.926 87.96 108.069C87.7015 108.208 87.4977 108.402 87.3485 108.651C87.1994 108.899 87.1248 109.186 87.1248 109.511V114H85.3251Z" fill="#3F3F46"/>
<path d="M48.7134 123.545H50.1353V130.249C50.1353 130.855 50.0153 131.373 49.7752 131.804C49.5382 132.235 49.2043 132.565 48.7734 132.792C48.3426 133.017 47.8378 133.129 47.2592 133.129C46.7268 133.129 46.2482 133.032 45.8235 132.838C45.4019 132.645 45.0679 132.363 44.8217 131.994C44.5786 131.621 44.457 131.169 44.457 130.636H45.8743C45.8743 130.898 45.9343 131.124 46.0543 131.315C46.1774 131.506 46.3452 131.655 46.5575 131.763C46.773 131.867 47.0192 131.92 47.2962 131.92C47.5978 131.92 47.8532 131.857 48.0625 131.73C48.2749 131.601 48.4364 131.412 48.5472 131.163C48.658 130.913 48.7134 130.609 48.7134 130.249V123.545ZM56.5926 130.059V125.909H57.9775V133H56.6203V131.772H56.5464C56.3833 132.151 56.1217 132.466 55.7616 132.718C55.4046 132.968 54.9599 133.092 54.4275 133.092C53.972 133.092 53.5688 132.992 53.218 132.792C52.8702 132.589 52.5963 132.289 52.3962 131.892C52.1992 131.495 52.1008 131.004 52.1008 130.419V125.909H53.4811V130.253C53.4811 130.736 53.615 131.121 53.8827 131.407C54.1505 131.694 54.4983 131.837 54.926 131.837C55.1846 131.837 55.4416 131.772 55.697 131.643C55.9555 131.513 56.1694 131.318 56.3387 131.056C56.511 130.795 56.5957 130.462 56.5926 130.059ZM54.4782 124.963L55.5585 122.835H57.0127L55.5816 124.963H54.4782ZM61.2125 123.545V133H59.8322V123.545H61.2125ZM63.0695 133V125.909H64.4498V133H63.0695ZM63.7666 124.815C63.5265 124.815 63.3203 124.735 63.148 124.575C62.9787 124.412 62.8941 124.218 62.8941 123.993C62.8941 123.766 62.9787 123.572 63.148 123.412C63.3203 123.248 63.5265 123.167 63.7666 123.167C64.0067 123.167 64.2113 123.248 64.3806 123.412C64.5529 123.572 64.6391 123.766 64.6391 123.993C64.6391 124.218 64.5529 124.412 64.3806 124.575C64.2113 124.735 64.0067 124.815 63.7666 124.815ZM69.2937 133.143C68.6289 133.143 68.0488 132.991 67.5533 132.686C67.0578 132.381 66.6731 131.955 66.3991 131.407C66.1252 130.859 65.9883 130.219 65.9883 129.487C65.9883 128.751 66.1252 128.108 66.3991 127.557C66.6731 127.006 67.0578 126.578 67.5533 126.274C68.0488 125.969 68.6289 125.817 69.2937 125.817C69.9585 125.817 70.5386 125.969 71.0341 126.274C71.5296 126.578 71.9143 127.006 72.1882 127.557C72.4621 128.108 72.5991 128.751 72.5991 129.487C72.5991 130.219 72.4621 130.859 72.1882 131.407C71.9143 131.955 71.5296 132.381 71.0341 132.686C70.5386 132.991 69.9585 133.143 69.2937 133.143ZM69.2983 131.984C69.7292 131.984 70.0862 131.871 70.3693 131.643C70.6525 131.415 70.8617 131.112 70.9972 130.733C71.1357 130.355 71.2049 129.938 71.2049 129.482C71.2049 129.03 71.1357 128.614 70.9972 128.236C70.8617 127.854 70.6525 127.548 70.3693 127.317C70.0862 127.086 69.7292 126.971 69.2983 126.971C68.8643 126.971 68.5043 127.086 68.218 127.317C67.9349 127.548 67.7241 127.854 67.5856 128.236C67.4502 128.614 67.3825 129.03 67.3825 129.482C67.3825 129.938 67.4502 130.355 67.5856 130.733C67.7241 131.112 67.9349 131.415 68.218 131.643C68.5043 131.871 68.8643 131.984 69.2983 131.984ZM78.4897 133H76.9755L80.3778 123.545H82.0259L85.4283 133H83.9141L81.2411 125.263H81.1673L78.4897 133ZM78.7436 129.298H83.6555V130.498H78.7436V129.298ZM88.0631 123.545V133H86.6828V123.545H88.0631ZM95.9862 125.909L93.4148 133H91.9375L89.3615 125.909H90.8434L92.6392 131.366H92.7131L94.5043 125.909H95.9862ZM100.098 133.143C99.3997 133.143 98.798 132.994 98.2932 132.695C97.7916 132.394 97.4038 131.971 97.1299 131.426C96.859 130.878 96.7236 130.236 96.7236 129.501C96.7236 128.774 96.859 128.134 97.1299 127.58C97.4038 127.026 97.7854 126.594 98.2748 126.283C98.7672 125.972 99.3427 125.817 100.001 125.817C100.401 125.817 100.789 125.883 101.165 126.015C101.54 126.148 101.877 126.355 102.176 126.638C102.474 126.922 102.71 127.289 102.882 127.742C103.054 128.191 103.141 128.737 103.141 129.381V129.87H97.5038V128.836H101.788C101.788 128.473 101.714 128.151 101.566 127.871C101.419 127.588 101.211 127.365 100.943 127.202C100.678 127.039 100.368 126.957 100.011 126.957C99.6228 126.957 99.2842 127.052 98.9949 127.243C98.7087 127.431 98.4871 127.677 98.3302 127.982C98.1763 128.283 98.0993 128.611 98.0993 128.965V129.773C98.0993 130.247 98.1824 130.65 98.3486 130.983C98.5179 131.315 98.7533 131.569 99.055 131.744C99.3566 131.917 99.709 132.003 100.112 132.003C100.374 132.003 100.612 131.966 100.828 131.892C101.043 131.815 101.229 131.701 101.386 131.55C101.543 131.4 101.663 131.213 101.746 130.992L103.053 131.227C102.948 131.612 102.76 131.949 102.49 132.238C102.222 132.525 101.885 132.748 101.479 132.908C101.075 133.065 100.615 133.143 100.098 133.143ZM109.986 127.64L108.735 127.862C108.682 127.702 108.599 127.549 108.485 127.405C108.374 127.26 108.224 127.142 108.033 127.049C107.842 126.957 107.604 126.911 107.317 126.911C106.926 126.911 106.6 126.999 106.339 127.174C106.077 127.346 105.946 127.569 105.946 127.843C105.946 128.08 106.034 128.271 106.209 128.416C106.385 128.56 106.668 128.679 107.059 128.771L108.185 129.03C108.838 129.181 109.324 129.413 109.644 129.727C109.964 130.041 110.124 130.449 110.124 130.95C110.124 131.375 110.001 131.754 109.755 132.086C109.512 132.415 109.172 132.674 108.735 132.862C108.301 133.049 107.797 133.143 107.225 133.143C106.431 133.143 105.783 132.974 105.281 132.635C104.78 132.294 104.472 131.809 104.358 131.181L105.692 130.978C105.775 131.326 105.946 131.589 106.205 131.767C106.463 131.943 106.8 132.031 107.216 132.031C107.668 132.031 108.03 131.937 108.301 131.749C108.571 131.558 108.707 131.326 108.707 131.052C108.707 130.83 108.624 130.644 108.458 130.493C108.294 130.342 108.044 130.229 107.705 130.152L106.505 129.888C105.843 129.738 105.354 129.498 105.037 129.168C104.723 128.839 104.566 128.422 104.566 127.917C104.566 127.499 104.683 127.132 104.917 126.819C105.151 126.505 105.474 126.26 105.886 126.085C106.299 125.906 106.771 125.817 107.303 125.817C108.07 125.817 108.673 125.983 109.113 126.315C109.553 126.645 109.844 127.086 109.986 127.64Z" fill="#A1A1AA"/>
<rect x="664" y="104" width="28" height="28" rx="6" fill="#F4F4F5"/>
<rect opacity="0.3" x="673" y="118.333" width="1.33333" height="6" rx="0.666666" transform="rotate(-90 673 118.333)" fill="#A1A1AA"/>
<path d="M677.862 121.195C677.602 121.456 677.602 121.878 677.862 122.138C678.122 122.399 678.544 122.399 678.805 122.138L682.805 118.138C683.057 117.886 683.066 117.479 682.825 117.216L679.158 113.216C678.909 112.945 678.488 112.927 678.216 113.175C677.945 113.424 677.926 113.846 678.175 114.117L681.411 117.647L677.862 121.195Z" fill="#A1A1AA"/>
<path d="M45.0043 174V163.818H48.8224C49.6046 163.818 50.2609 163.964 50.7912 164.256C51.3248 164.547 51.7275 164.948 51.9993 165.459C52.2744 165.966 52.4119 166.543 52.4119 167.189C52.4119 167.842 52.2744 168.422 51.9993 168.929C51.7242 169.436 51.3182 169.835 50.7812 170.127C50.2443 170.415 49.5831 170.56 48.7976 170.56H46.267V169.043H48.549C49.0064 169.043 49.3809 168.964 49.6726 168.805C49.9643 168.646 50.1797 168.427 50.3189 168.148C50.4614 167.87 50.5327 167.55 50.5327 167.189C50.5327 166.828 50.4614 166.509 50.3189 166.234C50.1797 165.959 49.9626 165.746 49.6676 165.593C49.3759 165.437 48.9998 165.359 48.5391 165.359H46.8487V174H45.0043ZM53.9345 174V166.364H55.6795V167.636H55.7591C55.8983 167.196 56.1369 166.856 56.475 166.617C56.8163 166.375 57.2058 166.254 57.6433 166.254C57.7427 166.254 57.8538 166.259 57.9764 166.269C58.1023 166.276 58.2067 166.287 58.2896 166.304V167.96C58.2134 167.933 58.0924 167.91 57.9267 167.89C57.7643 167.867 57.6068 167.855 57.4544 167.855C57.1262 167.855 56.8313 167.926 56.5694 168.069C56.3109 168.208 56.1071 168.402 55.9579 168.651C55.8088 168.899 55.7342 169.186 55.7342 169.511V174H53.9345ZM62.5515 174.149C61.7859 174.149 61.1246 173.99 60.5678 173.672C60.0143 173.35 59.5884 172.896 59.2901 172.31C58.9918 171.72 58.8427 171.025 58.8427 170.227C58.8427 169.441 58.9918 168.752 59.2901 168.158C59.5917 167.562 60.0127 167.098 60.5529 166.766C61.0932 166.432 61.7279 166.264 62.457 166.264C62.9277 166.264 63.3718 166.34 63.7894 166.493C64.2103 166.642 64.5816 166.874 64.9031 167.189C65.2279 167.504 65.4831 167.905 65.6687 168.392C65.8543 168.876 65.9471 169.453 65.9471 170.122V170.674H59.6879V169.461H64.2219C64.2186 169.116 64.1441 168.81 63.9982 168.541C63.8524 168.269 63.6486 168.056 63.3867 167.9C63.1282 167.744 62.8266 167.666 62.4819 167.666C62.114 167.666 61.7908 167.756 61.5124 167.935C61.234 168.11 61.0169 168.342 60.8612 168.631C60.7087 168.916 60.6308 169.229 60.6275 169.57V170.629C60.6275 171.073 60.7087 171.455 60.8711 171.773C61.0335 172.088 61.2605 172.33 61.5522 172.499C61.8439 172.664 62.1853 172.747 62.5763 172.747C62.8382 172.747 63.0752 172.711 63.2873 172.638C63.4994 172.562 63.6834 172.451 63.8391 172.305C63.9949 172.159 64.1126 171.978 64.1921 171.763L65.8725 171.952C65.7665 172.396 65.5643 172.784 65.266 173.115C64.971 173.443 64.5932 173.698 64.1325 173.881C63.6718 174.06 63.1448 174.149 62.5515 174.149ZM73.5051 168.382L71.8645 168.561C71.8181 168.395 71.7369 168.24 71.6209 168.094C71.5082 167.948 71.3558 167.83 71.1635 167.741C70.9713 167.651 70.736 167.607 70.4576 167.607C70.083 167.607 69.7682 167.688 69.513 167.85C69.2611 168.013 69.1368 168.223 69.1401 168.482C69.1368 168.704 69.218 168.884 69.3837 169.023C69.5527 169.163 69.8311 169.277 70.2189 169.366L71.5215 169.645C72.244 169.801 72.781 170.048 73.1323 170.386C73.4869 170.724 73.6659 171.166 73.6692 171.713C73.6659 172.194 73.525 172.618 73.2466 172.986C72.9715 173.35 72.5887 173.635 72.0982 173.841C71.6077 174.046 71.0442 174.149 70.4078 174.149C69.4732 174.149 68.7208 173.954 68.1507 173.562C67.5807 173.168 67.2409 172.62 67.1316 171.917L68.8865 171.748C68.9661 172.093 69.1351 172.353 69.3936 172.528C69.6522 172.704 69.9886 172.792 70.4029 172.792C70.8304 172.792 71.1735 172.704 71.432 172.528C71.6938 172.353 71.8248 172.136 71.8248 171.877C71.8248 171.658 71.7402 171.478 71.5712 171.335C71.4055 171.193 71.147 171.083 70.7956 171.007L69.4931 170.734C68.7606 170.581 68.2187 170.324 67.8674 169.963C67.516 169.598 67.342 169.138 67.3453 168.581C67.342 168.11 67.4696 167.703 67.7282 167.358C67.99 167.01 68.3529 166.741 68.8169 166.553C69.2843 166.36 69.8229 166.264 70.4327 166.264C71.3276 166.264 72.0319 166.455 72.5456 166.836C73.0627 167.217 73.3825 167.732 73.5051 168.382ZM78.4842 174.149C77.7219 174.149 77.0673 173.982 76.5204 173.647C75.9769 173.312 75.5576 172.85 75.2626 172.26C74.9709 171.667 74.8251 170.984 74.8251 170.212C74.8251 169.436 74.9743 168.752 75.2725 168.158C75.5708 167.562 75.9918 167.098 76.5353 166.766C77.0822 166.432 77.7285 166.264 78.4743 166.264C79.094 166.264 79.6426 166.379 80.1199 166.607C80.6004 166.833 80.9833 167.152 81.2683 167.567C81.5533 167.978 81.7157 168.458 81.7555 169.009H80.0353C79.9657 168.641 79.8 168.334 79.5382 168.089C79.2797 167.84 78.9333 167.716 78.4991 167.716C78.1312 167.716 77.8081 167.815 77.5297 168.014C77.2512 168.21 77.0342 168.491 76.8784 168.859C76.7259 169.227 76.6497 169.668 76.6497 170.182C76.6497 170.702 76.7259 171.15 76.8784 171.524C77.0308 171.895 77.2446 172.182 77.5197 172.384C77.7981 172.583 78.1246 172.683 78.4991 172.683C78.7643 172.683 79.0012 172.633 79.21 172.533C79.4222 172.431 79.5995 172.283 79.742 172.091C79.8845 171.899 79.9823 171.665 80.0353 171.39H81.7555C81.7124 171.93 81.5533 172.409 81.2782 172.827C81.0031 173.241 80.6286 173.566 80.1547 173.801C79.6807 174.033 79.1239 174.149 78.4842 174.149ZM83.2333 174V166.364H84.9783V167.636H85.0579C85.1971 167.196 85.4357 166.856 85.7738 166.617C86.1152 166.375 86.5046 166.254 86.9421 166.254C87.0415 166.254 87.1526 166.259 87.2752 166.269C87.4012 166.276 87.5056 166.287 87.5884 166.304V167.96C87.5122 167.933 87.3912 167.91 87.2255 167.89C87.0631 167.867 86.9057 167.855 86.7532 167.855C86.4251 167.855 86.1301 167.926 85.8683 168.069C85.6097 168.208 85.4059 168.402 85.2567 168.651C85.1076 168.899 85.033 169.186 85.033 169.511V174H83.2333ZM91.8503 174.149C91.0847 174.149 90.4235 173.99 89.8667 173.672C89.3132 173.35 88.8873 172.896 88.589 172.31C88.2907 171.72 88.1415 171.025 88.1415 170.227C88.1415 169.441 88.2907 168.752 88.589 168.158C88.8906 167.562 89.3115 167.098 89.8517 166.766C90.392 166.432 91.0267 166.264 91.7559 166.264C92.2265 166.264 92.6706 166.34 93.0882 166.493C93.5092 166.642 93.8804 166.874 94.2019 167.189C94.5267 167.504 94.7819 167.905 94.9675 168.392C95.1531 168.876 95.2459 169.453 95.2459 170.122V170.674H88.9867V169.461H93.5208C93.5175 169.116 93.4429 168.81 93.2971 168.541C93.1512 168.269 92.9474 168.056 92.6855 167.9C92.427 167.744 92.1254 167.666 91.7807 167.666C91.4128 167.666 91.0897 167.756 90.8113 167.935C90.5328 168.11 90.3158 168.342 90.16 168.631C90.0075 168.916 89.9296 169.229 89.9263 169.57V170.629C89.9263 171.073 90.0075 171.455 90.1699 171.773C90.3323 172.088 90.5594 172.33 90.851 172.499C91.1427 172.664 91.4841 172.747 91.8752 172.747C92.137 172.747 92.374 172.711 92.5861 172.638C92.7982 172.562 92.9822 172.451 93.138 172.305C93.2937 172.159 93.4114 171.978 93.4909 171.763L95.1713 171.952C95.0653 172.396 94.8631 172.784 94.5648 173.115C94.2698 173.443 93.892 173.698 93.4313 173.881C92.9706 174.06 92.4436 174.149 91.8503 174.149ZM103.371 166.364L100.651 174H98.6626L95.9432 166.364H97.8622L99.6172 172.036H99.6967L101.457 166.364H103.371ZM107.737 174.149C106.971 174.149 106.31 173.99 105.753 173.672C105.2 173.35 104.774 172.896 104.476 172.31C104.177 171.72 104.028 171.025 104.028 170.227C104.028 169.441 104.177 168.752 104.476 168.158C104.777 167.562 105.198 167.098 105.738 166.766C106.279 166.432 106.913 166.264 107.643 166.264C108.113 166.264 108.557 166.34 108.975 166.493C109.396 166.642 109.767 166.874 110.089 167.189C110.413 167.504 110.669 167.905 110.854 168.392C111.04 168.876 111.133 169.453 111.133 170.122V170.674H104.873V169.461H109.407C109.404 169.116 109.33 168.81 109.184 168.541C109.038 168.269 108.834 168.056 108.572 167.9C108.314 167.744 108.012 167.666 107.667 167.666C107.3 167.666 106.976 167.756 106.698 167.935C106.42 168.11 106.202 168.342 106.047 168.631C105.894 168.916 105.816 169.229 105.813 169.57V170.629C105.813 171.073 105.894 171.455 106.057 171.773C106.219 172.088 106.446 172.33 106.738 172.499C107.029 172.664 107.371 172.747 107.762 172.747C108.024 172.747 108.261 172.711 108.473 172.638C108.685 172.562 108.869 172.451 109.025 172.305C109.18 172.159 109.298 171.978 109.378 171.763L111.058 171.952C110.952 172.396 110.75 172.784 110.452 173.115C110.157 173.443 109.779 173.698 109.318 173.881C108.857 174.06 108.33 174.149 107.737 174.149ZM112.655 174V166.364H114.4V167.636H114.48C114.619 167.196 114.858 166.856 115.196 166.617C115.537 166.375 115.926 166.254 116.364 166.254C116.463 166.254 116.574 166.259 116.697 166.269C116.823 166.276 116.927 166.287 117.01 166.304V167.96C116.934 167.933 116.813 167.91 116.647 167.89C116.485 167.867 116.328 167.855 116.175 167.855C115.847 167.855 115.552 167.926 115.29 168.069C115.032 168.208 114.828 168.402 114.679 168.651C114.529 168.899 114.455 169.186 114.455 169.511V174H112.655Z" fill="#3F3F46"/>
<path d="M52.6697 183.545V193H51.3587L46.5529 186.066H46.4652V193H45.0387V183.545H46.359L51.1694 190.489H51.2571V183.545H52.6697ZM57.6267 193.143C56.9619 193.143 56.3818 192.991 55.8863 192.686C55.3908 192.381 55.0061 191.955 54.7322 191.407C54.4582 190.859 54.3213 190.219 54.3213 189.487C54.3213 188.751 54.4582 188.108 54.7322 187.557C55.0061 187.006 55.3908 186.578 55.8863 186.274C56.3818 185.969 56.9619 185.817 57.6267 185.817C58.2915 185.817 58.8716 185.969 59.3671 186.274C59.8626 186.578 60.2473 187.006 60.5212 187.557C60.7951 188.108 60.9321 188.751 60.9321 189.487C60.9321 190.219 60.7951 190.859 60.5212 191.407C60.2473 191.955 59.8626 192.381 59.3671 192.686C58.8716 192.991 58.2915 193.143 57.6267 193.143ZM57.6313 191.984C58.0622 191.984 58.4192 191.871 58.7023 191.643C58.9855 191.415 59.1948 191.112 59.3302 190.733C59.4687 190.355 59.5379 189.938 59.5379 189.482C59.5379 189.03 59.4687 188.614 59.3302 188.236C59.1948 187.854 58.9855 187.548 58.7023 187.317C58.4192 187.086 58.0622 186.971 57.6313 186.971C57.1974 186.971 56.8373 187.086 56.551 187.317C56.2679 187.548 56.0571 187.854 55.9186 188.236C55.7832 188.614 55.7155 189.03 55.7155 189.482C55.7155 189.938 55.7832 190.355 55.9186 190.733C56.0571 191.112 56.2679 191.415 56.551 191.643C56.8373 191.871 57.1974 191.984 57.6313 191.984ZM65.5289 193.143C64.8303 193.143 64.2286 192.994 63.7239 192.695C63.2222 192.394 62.8345 191.971 62.5605 191.426C62.2897 190.878 62.1543 190.236 62.1543 189.501C62.1543 188.774 62.2897 188.134 62.5605 187.58C62.8345 187.026 63.2161 186.594 63.7054 186.283C64.1979 185.972 64.7734 185.817 65.432 185.817C65.8321 185.817 66.2199 185.883 66.5953 186.015C66.9708 186.148 67.3078 186.355 67.6064 186.638C67.9049 186.922 68.1403 187.289 68.3127 187.742C68.485 188.191 68.5712 188.737 68.5712 189.381V189.87H62.9345V188.836H67.2186C67.2186 188.473 67.1447 188.151 66.997 187.871C66.8493 187.588 66.6415 187.365 66.3738 187.202C66.1091 187.039 65.7982 186.957 65.4412 186.957C65.0534 186.957 64.7149 187.052 64.4256 187.243C64.1394 187.431 63.9178 187.677 63.7608 187.982C63.6069 188.283 63.53 188.611 63.53 188.965V189.773C63.53 190.247 63.6131 190.65 63.7793 190.983C63.9486 191.315 64.184 191.569 64.4856 191.744C64.7872 191.917 65.1396 192.003 65.5428 192.003C65.8044 192.003 66.0429 191.966 66.2583 191.892C66.4738 191.815 66.66 191.701 66.8169 191.55C66.9739 191.4 67.0939 191.213 67.177 190.992L68.4835 191.227C68.3788 191.612 68.1911 191.949 67.9203 192.238C67.6525 192.525 67.3155 192.748 66.9093 192.908C66.5061 193.065 66.046 193.143 65.5289 193.143ZM70.1027 193V185.909H71.4276V187.063H71.5154C71.6631 186.672 71.9047 186.368 72.2401 186.149C72.5756 185.928 72.9772 185.817 73.445 185.817C73.919 185.817 74.316 185.928 74.6361 186.149C74.9593 186.371 75.1978 186.675 75.3517 187.063H75.4255C75.5948 186.685 75.8641 186.383 76.2334 186.158C76.6027 185.931 77.0428 185.817 77.5537 185.817C78.1969 185.817 78.7217 186.018 79.1279 186.422C79.5373 186.825 79.7419 187.433 79.7419 188.245V193H78.3616V188.374C78.3616 187.894 78.2308 187.546 77.9692 187.331C77.7076 187.116 77.3952 187.008 77.032 187.008C76.5827 187.008 76.2334 187.146 75.9841 187.423C75.7348 187.697 75.6102 188.05 75.6102 188.48V193H74.2345V188.287C74.2345 187.902 74.1144 187.593 73.8744 187.359C73.6343 187.125 73.3219 187.008 72.9372 187.008C72.6756 187.008 72.434 187.077 72.2124 187.216C71.9939 187.351 71.817 187.54 71.6816 187.783C71.5492 188.027 71.483 188.308 71.483 188.628V193H70.1027ZM81.592 193V185.909H82.9723V193H81.592ZM82.2891 184.815C82.049 184.815 81.8428 184.735 81.6705 184.575C81.5012 184.412 81.4165 184.218 81.4165 183.993C81.4165 183.766 81.5012 183.572 81.6705 183.412C81.8428 183.248 82.049 183.167 82.2891 183.167C82.5291 183.167 82.7338 183.248 82.9031 183.412C83.0754 183.572 83.1616 183.766 83.1616 183.993C83.1616 184.218 83.0754 184.412 82.9031 184.575C82.7338 184.735 82.5291 184.815 82.2891 184.815ZM86.8928 193.157C86.4435 193.157 86.0373 193.074 85.6741 192.908C85.3109 192.738 85.0232 192.494 84.8108 192.174C84.6015 191.854 84.4969 191.461 84.4969 190.996C84.4969 190.596 84.5738 190.267 84.7277 190.009C84.8816 189.75 85.0893 189.545 85.3509 189.395C85.6125 189.244 85.9049 189.13 86.2281 189.053C86.5512 188.976 86.8805 188.917 87.216 188.877C87.6407 188.828 87.9854 188.788 88.2501 188.757C88.5148 188.724 88.7071 188.67 88.8271 188.596C88.9472 188.522 89.0072 188.402 89.0072 188.236V188.203C89.0072 187.8 88.8933 187.488 88.6656 187.266C88.4409 187.045 88.1054 186.934 87.6592 186.934C87.1945 186.934 86.8282 187.037 86.5605 187.243C86.2958 187.446 86.1127 187.673 86.0111 187.922L84.7139 187.626C84.8677 187.196 85.0924 186.848 85.3879 186.583C85.6864 186.315 86.0296 186.121 86.4173 186.001C86.8051 185.878 87.2129 185.817 87.6407 185.817C87.9239 185.817 88.2239 185.851 88.5409 185.918C88.861 185.983 89.1595 186.103 89.4365 186.278C89.7166 186.454 89.9459 186.705 90.1244 187.031C90.3029 187.354 90.3921 187.774 90.3921 188.291V193H89.0441V192.031H88.9887C88.8995 192.209 88.7656 192.384 88.5871 192.557C88.4086 192.729 88.1793 192.872 87.8992 192.986C87.6192 193.1 87.2837 193.157 86.8928 193.157ZM87.1929 192.049C87.5745 192.049 87.9008 191.974 88.1716 191.823C88.4455 191.672 88.6533 191.475 88.7948 191.232C88.9395 190.986 89.0118 190.723 89.0118 190.442V189.528C88.9626 189.578 88.8672 189.624 88.7256 189.667C88.5871 189.707 88.4286 189.742 88.2501 189.773C88.0716 189.801 87.8977 189.827 87.7284 189.852C87.5592 189.873 87.4176 189.892 87.3037 189.907C87.036 189.941 86.7913 189.998 86.5697 190.078C86.3512 190.158 86.1758 190.273 86.0434 190.424C85.9142 190.572 85.8495 190.769 85.8495 191.015C85.8495 191.357 85.9757 191.615 86.2281 191.79C86.4804 191.963 86.8021 192.049 87.1929 192.049ZM96.5805 193H95.0663L98.4687 183.545H100.117L103.519 193H102.005L99.3319 185.263H99.2581L96.5805 193ZM96.8344 189.298H101.746V190.498H96.8344V189.298ZM106.154 188.79V193H104.774V185.909H106.099V187.063H106.186C106.349 186.688 106.605 186.386 106.953 186.158C107.303 185.931 107.745 185.817 108.278 185.817C108.761 185.817 109.184 185.918 109.547 186.121C109.91 186.321 110.192 186.62 110.392 187.017C110.592 187.414 110.692 187.905 110.692 188.49V193H109.312V188.656C109.312 188.142 109.178 187.74 108.91 187.451C108.642 187.159 108.274 187.012 107.807 187.012C107.487 187.012 107.202 187.082 106.953 187.22C106.706 187.359 106.511 187.562 106.366 187.83C106.225 188.094 106.154 188.414 106.154 188.79ZM115.853 185.909V187.017H111.98V185.909H115.853ZM113.019 184.21H114.399V190.918C114.399 191.186 114.439 191.387 114.519 191.523C114.599 191.655 114.702 191.746 114.828 191.795C114.958 191.841 115.098 191.864 115.248 191.864C115.359 191.864 115.456 191.857 115.539 191.841C115.622 191.826 115.687 191.814 115.733 191.804L115.982 192.945C115.902 192.975 115.789 193.006 115.641 193.037C115.493 193.071 115.308 193.089 115.087 193.092C114.724 193.098 114.385 193.034 114.071 192.898C113.757 192.763 113.503 192.554 113.309 192.271C113.116 191.987 113.019 191.632 113.019 191.204V184.21ZM121.872 190.059V185.909H123.257V193H121.9V191.772H121.826C121.663 192.151 121.401 192.466 121.041 192.718C120.684 192.968 120.239 193.092 119.707 193.092C119.251 193.092 118.848 192.992 118.497 192.792C118.149 192.589 117.876 192.289 117.676 191.892C117.479 191.495 117.38 191.004 117.38 190.419V185.909H118.76V190.253C118.76 190.736 118.894 191.121 119.162 191.407C119.43 191.694 119.778 191.837 120.205 191.837C120.464 191.837 120.721 191.772 120.976 191.643C121.235 191.513 121.449 191.318 121.618 191.056C121.79 190.795 121.875 190.462 121.872 190.059ZM126.492 188.79V193H125.112V185.909H126.436V187.063H126.524C126.687 186.688 126.943 186.386 127.29 186.158C127.641 185.931 128.083 185.817 128.615 185.817C129.099 185.817 129.522 185.918 129.885 186.121C130.248 186.321 130.53 186.62 130.73 187.017C130.93 187.414 131.03 187.905 131.03 188.49V193H129.65V188.656C129.65 188.142 129.516 187.74 129.248 187.451C128.98 187.159 128.612 187.012 128.145 187.012C127.824 187.012 127.54 187.082 127.29 187.22C127.044 187.359 126.849 187.562 126.704 187.83C126.563 188.094 126.492 188.414 126.492 188.79ZM135.937 193.143C135.239 193.143 134.637 192.994 134.132 192.695C133.63 192.394 133.243 191.971 132.969 191.426C132.698 190.878 132.562 190.236 132.562 189.501C132.562 188.774 132.698 188.134 132.969 187.58C133.243 187.026 133.624 186.594 134.114 186.283C134.606 185.972 135.182 185.817 135.84 185.817C136.24 185.817 136.628 185.883 137.004 186.015C137.379 186.148 137.716 186.355 138.015 186.638C138.313 186.922 138.549 187.289 138.721 187.742C138.893 188.191 138.979 188.737 138.979 189.381V189.87H133.343V188.836H137.627C137.627 188.473 137.553 188.151 137.405 187.871C137.257 187.588 137.05 187.365 136.782 187.202C136.517 187.039 136.206 186.957 135.849 186.957C135.462 186.957 135.123 187.052 134.834 187.243C134.548 187.431 134.326 187.677 134.169 187.982C134.015 188.283 133.938 188.611 133.938 188.965V189.773C133.938 190.247 134.021 190.65 134.188 190.983C134.357 191.315 134.592 191.569 134.894 191.744C135.195 191.917 135.548 192.003 135.951 192.003C136.213 192.003 136.451 191.966 136.667 191.892C136.882 191.815 137.068 191.701 137.225 191.55C137.382 191.4 137.502 191.213 137.585 190.992L138.892 191.227C138.787 191.612 138.599 191.949 138.328 192.238C138.061 192.525 137.724 192.748 137.317 192.908C136.914 193.065 136.454 193.143 135.937 193.143ZM145.824 187.64L144.573 187.862C144.521 187.702 144.438 187.549 144.324 187.405C144.213 187.26 144.063 187.142 143.872 187.049C143.681 186.957 143.442 186.911 143.156 186.911C142.765 186.911 142.439 186.999 142.177 187.174C141.916 187.346 141.785 187.569 141.785 187.843C141.785 188.08 141.873 188.271 142.048 188.416C142.224 188.56 142.507 188.679 142.898 188.771L144.024 189.03C144.677 189.181 145.163 189.413 145.483 189.727C145.803 190.041 145.963 190.449 145.963 190.95C145.963 191.375 145.84 191.754 145.594 192.086C145.351 192.415 145.01 192.674 144.573 192.862C144.139 193.049 143.636 193.143 143.064 193.143C142.27 193.143 141.622 192.974 141.12 192.635C140.619 192.294 140.311 191.809 140.197 191.181L141.531 190.978C141.614 191.326 141.785 191.589 142.044 191.767C142.302 191.943 142.639 192.031 143.055 192.031C143.507 192.031 143.869 191.937 144.139 191.749C144.41 191.558 144.546 191.326 144.546 191.052C144.546 190.83 144.463 190.644 144.296 190.493C144.133 190.342 143.882 190.229 143.544 190.152L142.344 189.888C141.682 189.738 141.193 189.498 140.876 189.168C140.562 188.839 140.405 188.422 140.405 187.917C140.405 187.499 140.522 187.132 140.756 186.819C140.989 186.505 141.313 186.26 141.725 186.085C142.137 185.906 142.61 185.817 143.142 185.817C143.909 185.817 144.512 185.983 144.952 186.315C145.392 186.645 145.683 187.086 145.824 187.64Z" fill="#A1A1AA"/>
<rect x="664" y="164" width="28" height="28" rx="6" fill="#F4F4F5"/>
<rect opacity="0.3" x="673" y="178.333" width="1.33333" height="6" rx="0.666666" transform="rotate(-90 673 178.333)" fill="#A1A1AA"/>
<path d="M677.862 181.195C677.602 181.456 677.602 181.878 677.862 182.138C678.122 182.399 678.544 182.399 678.805 182.138L682.805 178.138C683.057 177.886 683.066 177.479 682.825 177.216L679.158 173.216C678.909 172.945 678.488 172.927 678.216 173.175C677.945 173.424 677.926 173.846 678.175 174.117L681.411 177.647L677.862 181.195Z" fill="#A1A1AA"/>
<path d="M46.3118 234H44.343L47.9276 223.818H50.2045L53.794 234H51.8253L49.1058 225.906H49.0263L46.3118 234ZM46.3764 230.008H51.7457V231.489H46.3764V230.008ZM60.9196 226.364L58.2001 234H56.2115L53.492 226.364H55.411L57.166 232.036H57.2456L59.0055 226.364H60.9196ZM64.1436 234.154C63.6597 234.154 63.2239 234.068 62.8361 233.896C62.4516 233.72 62.1467 233.461 61.9213 233.12C61.6993 232.779 61.5882 232.358 61.5882 231.857C61.5882 231.426 61.6678 231.07 61.8269 230.788C61.986 230.507 62.2031 230.281 62.4782 230.112C62.7533 229.943 63.0632 229.816 63.4078 229.729C63.7559 229.64 64.1155 229.575 64.4867 229.536C64.9341 229.489 65.2971 229.448 65.5755 229.411C65.8539 229.371 66.056 229.312 66.182 229.232C66.3113 229.149 66.3759 229.022 66.3759 228.849V228.82C66.3759 228.445 66.2649 228.155 66.0428 227.95C65.8207 227.744 65.5009 227.641 65.0833 227.641C64.6425 227.641 64.2928 227.737 64.0343 227.93C63.7791 228.122 63.6067 228.349 63.5172 228.611L61.8368 228.372C61.9694 227.908 62.1882 227.52 62.4931 227.209C62.798 226.894 63.1709 226.659 63.6117 226.503C64.0525 226.344 64.5397 226.264 65.0733 226.264C65.4412 226.264 65.8075 226.307 66.1721 226.393C66.5366 226.48 66.8697 226.622 67.1713 226.821C67.473 227.017 67.7149 227.283 67.8972 227.621C68.0828 227.96 68.1756 228.382 68.1756 228.889V234H66.4455V232.951H66.3858C66.2765 233.163 66.1223 233.362 65.9235 233.548C65.7279 233.73 65.481 233.877 65.1827 233.99C64.8877 234.099 64.5414 234.154 64.1436 234.154ZM64.611 232.832C64.9722 232.832 65.2855 232.76 65.5506 232.618C65.8158 232.472 66.0196 232.28 66.1621 232.041C66.3079 231.803 66.3809 231.542 66.3809 231.261V230.361C66.3245 230.407 66.2284 230.45 66.0925 230.49C65.9599 230.53 65.8108 230.565 65.6451 230.594C65.4793 230.624 65.3153 230.651 65.1529 230.674C64.9905 230.697 64.8496 230.717 64.7303 230.734C64.4618 230.77 64.2215 230.83 64.0094 230.913C63.7973 230.996 63.6299 231.112 63.5073 231.261C63.3846 231.406 63.3233 231.595 63.3233 231.827C63.3233 232.159 63.4443 232.409 63.6863 232.578C63.9282 232.747 64.2364 232.832 64.611 232.832ZM71.785 223.818V234H69.9853V223.818H71.785ZM73.6357 234V226.364H75.4354V234H73.6357ZM74.5405 225.28C74.2554 225.28 74.0102 225.185 73.8047 224.996C73.5992 224.804 73.4964 224.574 73.4964 224.305C73.4964 224.034 73.5992 223.803 73.8047 223.614C74.0102 223.422 74.2554 223.326 74.5405 223.326C74.8288 223.326 75.0741 223.422 75.2763 223.614C75.4818 223.803 75.5845 224.034 75.5845 224.305C75.5845 224.574 75.4818 224.804 75.2763 224.996C75.0741 225.185 74.8288 225.28 74.5405 225.28ZM79.4835 234.154C78.9996 234.154 78.5637 234.068 78.176 233.896C77.7915 233.72 77.4866 233.461 77.2612 233.12C77.0391 232.779 76.9281 232.358 76.9281 231.857C76.9281 231.426 77.0076 231.07 77.1667 230.788C77.3258 230.507 77.5429 230.281 77.818 230.112C78.0931 229.943 78.403 229.816 78.7477 229.729C79.0957 229.64 79.4553 229.575 79.8265 229.536C80.274 229.489 80.6369 229.448 80.9153 229.411C81.1937 229.371 81.3959 229.312 81.5218 229.232C81.6511 229.149 81.7157 229.022 81.7157 228.849V228.82C81.7157 228.445 81.6047 228.155 81.3826 227.95C81.1606 227.744 80.8407 227.641 80.4231 227.641C79.9823 227.641 79.6326 227.737 79.3741 227.93C79.1189 228.122 78.9466 228.349 78.8571 228.611L77.1767 228.372C77.3092 227.908 77.528 227.52 77.8329 227.209C78.1378 226.894 78.5107 226.659 78.9515 226.503C79.3923 226.344 79.8796 226.264 80.4132 226.264C80.7811 226.264 81.1473 226.307 81.5119 226.393C81.8765 226.48 82.2096 226.622 82.5112 226.821C82.8128 227.017 83.0547 227.283 83.237 227.621C83.4226 227.96 83.5154 228.382 83.5154 228.889V234H81.7853V232.951H81.7257C81.6163 233.163 81.4622 233.362 81.2633 233.548C81.0678 233.73 80.8208 233.877 80.5225 233.99C80.2276 234.099 79.8812 234.154 79.4835 234.154ZM79.9508 232.832C80.3121 232.832 80.6253 232.76 80.8904 232.618C81.1556 232.472 81.3594 232.28 81.502 232.041C81.6478 231.803 81.7207 231.542 81.7207 231.261V230.361C81.6644 230.407 81.5682 230.45 81.4324 230.49C81.2998 230.53 81.1506 230.565 80.9849 230.594C80.8192 230.624 80.6551 230.651 80.4927 230.674C80.3303 230.697 80.1895 230.717 80.0701 230.734C79.8017 230.77 79.5614 230.83 79.3493 230.913C79.1371 230.996 78.9698 231.112 78.8471 231.261C78.7245 231.406 78.6632 231.595 78.6632 231.827C78.6632 232.159 78.7842 232.409 79.0261 232.578C79.2681 232.747 79.5763 232.832 79.9508 232.832ZM85.3251 234V226.364H87.0701V227.636H87.1497C87.2889 227.196 87.5275 226.856 87.8656 226.617C88.207 226.375 88.5964 226.254 89.0339 226.254C89.1333 226.254 89.2444 226.259 89.367 226.269C89.493 226.276 89.5974 226.287 89.6802 226.304V227.96C89.604 227.933 89.483 227.91 89.3173 227.89C89.1549 227.867 88.9975 227.855 88.845 227.855C88.5169 227.855 88.2219 227.926 87.96 228.069C87.7015 228.208 87.4977 228.402 87.3485 228.651C87.1994 228.899 87.1248 229.186 87.1248 229.511V234H85.3251Z" fill="#3F3F46"/>
<path d="M45.0387 253V243.545H46.4652V251.772H50.7493V253H45.0387ZM54.3294 253.157C53.88 253.157 53.4738 253.074 53.1106 252.908C52.7475 252.738 52.4597 252.494 52.2473 252.174C52.0381 251.854 51.9334 251.461 51.9334 250.996C51.9334 250.596 52.0104 250.267 52.1642 250.009C52.3181 249.75 52.5259 249.545 52.7875 249.395C53.0491 249.244 53.3414 249.13 53.6646 249.053C53.9877 248.976 54.3171 248.917 54.6525 248.877C55.0772 248.828 55.4219 248.788 55.6866 248.757C55.9513 248.724 56.1436 248.67 56.2637 248.596C56.3837 248.522 56.4437 248.402 56.4437 248.236V248.203C56.4437 247.8 56.3298 247.488 56.1021 247.266C55.8774 247.045 55.542 246.934 55.0957 246.934C54.631 246.934 54.2647 247.037 53.997 247.243C53.7323 247.446 53.5492 247.673 53.4476 247.922L52.1504 247.626C52.3043 247.196 52.5289 246.848 52.8244 246.583C53.1229 246.315 53.4661 246.121 53.8539 246.001C54.2417 245.878 54.6494 245.817 55.0772 245.817C55.3604 245.817 55.6605 245.851 55.9775 245.918C56.2975 245.983 56.5961 246.103 56.873 246.278C57.1531 246.454 57.3824 246.705 57.5609 247.031C57.7394 247.354 57.8287 247.774 57.8287 248.291V253H56.4806V252.031H56.4252C56.336 252.209 56.2021 252.384 56.0236 252.557C55.8451 252.729 55.6158 252.872 55.3358 252.986C55.0557 253.1 54.7202 253.157 54.3294 253.157ZM54.6294 252.049C55.0111 252.049 55.3373 251.974 55.6081 251.823C55.882 251.672 56.0898 251.475 56.2314 251.232C56.376 250.986 56.4483 250.723 56.4483 250.442V249.528C56.3991 249.578 56.3037 249.624 56.1621 249.667C56.0236 249.707 55.8651 249.742 55.6866 249.773C55.5081 249.801 55.3342 249.827 55.165 249.852C54.9957 249.873 54.8541 249.892 54.7402 249.907C54.4725 249.941 54.2278 249.998 54.0062 250.078C53.7877 250.158 53.6123 250.273 53.4799 250.424C53.3507 250.572 53.286 250.769 53.286 251.015C53.286 251.357 53.4122 251.615 53.6646 251.79C53.917 251.963 54.2386 252.049 54.6294 252.049ZM64.159 250.059V245.909H65.5439V253H64.1867V251.772H64.1128C63.9497 252.151 63.6881 252.466 63.328 252.718C62.971 252.968 62.5263 253.092 61.9939 253.092C61.5384 253.092 61.1352 252.992 60.7844 252.792C60.4366 252.589 60.1627 252.289 59.9626 251.892C59.7657 251.495 59.6672 251.004 59.6672 250.419V245.909H61.0475V250.253C61.0475 250.736 61.1814 251.121 61.4491 251.407C61.7169 251.694 62.0647 251.837 62.4925 251.837C62.751 251.837 63.008 251.772 63.2634 251.643C63.5219 251.513 63.7358 251.318 63.9051 251.056C64.0774 250.795 64.1621 250.462 64.159 250.059ZM67.3986 253V245.909H68.7328V247.036H68.8066C68.9359 246.654 69.1636 246.354 69.4899 246.135C69.8192 245.914 70.1916 245.803 70.6071 245.803C70.6932 245.803 70.7948 245.806 70.9118 245.812C71.0318 245.818 71.1257 245.826 71.1934 245.835V247.156C71.138 247.14 71.0395 247.123 70.8979 247.105C70.7563 247.083 70.6148 247.072 70.4732 247.072C70.147 247.072 69.8561 247.142 69.6007 247.28C69.3483 247.416 69.1483 247.605 69.0005 247.848C68.8528 248.088 68.7789 248.362 68.7789 248.67V253H67.3986ZM74.388 253.157C73.9386 253.157 73.5324 253.074 73.1692 252.908C72.806 252.738 72.5183 252.494 72.3059 252.174C72.0967 251.854 71.992 251.461 71.992 250.996C71.992 250.596 72.069 250.267 72.2228 250.009C72.3767 249.75 72.5845 249.545 72.8461 249.395C73.1077 249.244 73.4 249.13 73.7232 249.053C74.0463 248.976 74.3757 248.917 74.7111 248.877C75.1358 248.828 75.4805 248.788 75.7452 248.757C76.0099 248.724 76.2022 248.67 76.3223 248.596C76.4423 248.522 76.5023 248.402 76.5023 248.236V248.203C76.5023 247.8 76.3884 247.488 76.1607 247.266C75.936 247.045 75.6006 246.934 75.1543 246.934C74.6896 246.934 74.3233 247.037 74.0556 247.243C73.7909 247.446 73.6078 247.673 73.5062 247.922L72.209 247.626C72.3629 247.196 72.5875 246.848 72.883 246.583C73.1815 246.315 73.5247 246.121 73.9125 246.001C74.3002 245.878 74.708 245.817 75.1358 245.817C75.419 245.817 75.719 245.851 76.036 245.918C76.3561 245.983 76.6547 246.103 76.9316 246.278C77.2117 246.454 77.441 246.705 77.6195 247.031C77.798 247.354 77.8873 247.774 77.8873 248.291V253H76.5392V252.031H76.4838C76.3946 252.209 76.2607 252.384 76.0822 252.557C75.9037 252.729 75.6744 252.872 75.3944 252.986C75.1143 253.1 74.7788 253.157 74.388 253.157ZM74.688 252.049C75.0697 252.049 75.3959 251.974 75.6667 251.823C75.9406 251.672 76.1484 251.475 76.29 251.232C76.4346 250.986 76.5069 250.723 76.5069 250.442V249.528C76.4577 249.578 76.3623 249.624 76.2207 249.667C76.0822 249.707 75.9237 249.742 75.7452 249.773C75.5667 249.801 75.3928 249.827 75.2235 249.852C75.0543 249.873 74.9127 249.892 74.7988 249.907C74.5311 249.941 74.2864 249.998 74.0648 250.078C73.8463 250.158 73.6709 250.273 73.5385 250.424C73.4093 250.572 73.3446 250.769 73.3446 251.015C73.3446 251.357 73.4708 251.615 73.7232 251.79C73.9756 251.963 74.2972 252.049 74.688 252.049ZM89.6754 246.532C89.5862 246.252 89.4661 246.001 89.3153 245.78C89.1676 245.555 88.9906 245.364 88.7844 245.207C88.5782 245.047 88.3428 244.926 88.0781 244.843C87.8165 244.76 87.5288 244.718 87.2148 244.718C86.6824 244.718 86.2023 244.855 85.7745 245.129C85.3467 245.403 85.0082 245.804 84.7589 246.334C84.5127 246.86 84.3896 247.505 84.3896 248.268C84.3896 249.034 84.5142 249.682 84.7635 250.212C85.0128 250.741 85.3544 251.143 85.7884 251.417C86.2223 251.69 86.7163 251.827 87.2702 251.827C87.7842 251.827 88.232 251.723 88.6136 251.513C88.9983 251.304 89.2953 251.009 89.5046 250.627C89.717 250.242 89.8232 249.79 89.8232 249.27L90.1925 249.339H87.4872V248.162H91.2035V249.238C91.2035 250.032 91.0342 250.721 90.6957 251.306C90.3602 251.887 89.8955 252.337 89.3015 252.654C88.7106 252.971 88.0335 253.129 87.2702 253.129C86.4147 253.129 85.6637 252.932 85.0174 252.538C84.3742 252.144 83.8725 251.586 83.5124 250.863C83.1523 250.136 82.9723 249.275 82.9723 248.277C82.9723 247.523 83.0769 246.846 83.2862 246.246C83.4955 245.646 83.7894 245.137 84.168 244.718C84.5496 244.296 84.9974 243.975 85.5114 243.753C86.0284 243.529 86.5932 243.416 87.2056 243.416C87.7165 243.416 88.192 243.492 88.6321 243.642C89.0753 243.793 89.4692 244.007 89.8139 244.284C90.1617 244.561 90.4495 244.89 90.6772 245.272C90.9049 245.651 91.0588 246.071 91.1388 246.532H89.6754ZM95.8904 253.143C95.2256 253.143 94.6454 252.991 94.1499 252.686C93.6544 252.381 93.2697 251.955 92.9958 251.407C92.7219 250.859 92.585 250.219 92.585 249.487C92.585 248.751 92.7219 248.108 92.9958 247.557C93.2697 247.006 93.6544 246.578 94.1499 246.274C94.6454 245.969 95.2256 245.817 95.8904 245.817C96.5551 245.817 97.1353 245.969 97.6308 246.274C98.1263 246.578 98.511 247.006 98.7849 247.557C99.0588 248.108 99.1958 248.751 99.1958 249.487C99.1958 250.219 99.0588 250.859 98.7849 251.407C98.511 251.955 98.1263 252.381 97.6308 252.686C97.1353 252.991 96.5551 253.143 95.8904 253.143ZM95.895 251.984C96.3258 251.984 96.6829 251.871 96.966 251.643C97.2491 251.415 97.4584 251.112 97.5938 250.733C97.7323 250.355 97.8016 249.938 97.8016 249.482C97.8016 249.03 97.7323 248.614 97.5938 248.236C97.4584 247.854 97.2491 247.548 96.966 247.317C96.6829 247.086 96.3258 246.971 95.895 246.971C95.461 246.971 95.1009 247.086 94.8147 247.317C94.5316 247.548 94.3208 247.854 94.1823 248.236C94.0468 248.614 93.9791 249.03 93.9791 249.482C93.9791 249.938 94.0468 250.355 94.1823 250.733C94.3208 251.112 94.5316 251.415 94.8147 251.643C95.1009 251.871 95.461 251.984 95.895 251.984ZM103.793 253.143C103.094 253.143 102.492 252.994 101.988 252.695C101.486 252.394 101.098 251.971 100.824 251.426C100.553 250.878 100.418 250.236 100.418 249.501C100.418 248.774 100.553 248.134 100.824 247.58C101.098 247.026 101.48 246.594 101.969 246.283C102.462 245.972 103.037 245.817 103.696 245.817C104.096 245.817 104.484 245.883 104.859 246.015C105.234 246.148 105.571 246.355 105.87 246.638C106.169 246.922 106.404 247.289 106.576 247.742C106.749 248.191 106.835 248.737 106.835 249.381V249.87H101.198V248.836H105.482C105.482 248.473 105.408 248.151 105.261 247.871C105.113 247.588 104.905 247.365 104.637 247.202C104.373 247.039 104.062 246.957 103.705 246.957C103.317 246.957 102.979 247.052 102.689 247.243C102.403 247.431 102.181 247.677 102.025 247.982C101.871 248.283 101.794 248.611 101.794 248.965V249.773C101.794 250.247 101.877 250.65 102.043 250.983C102.212 251.315 102.448 251.569 102.749 251.744C103.051 251.917 103.403 252.003 103.806 252.003C104.068 252.003 104.307 251.966 104.522 251.892C104.737 251.815 104.924 251.701 105.081 251.55C105.238 251.4 105.358 251.213 105.441 250.992L106.747 251.227C106.643 251.612 106.455 251.949 106.184 252.238C105.916 252.525 105.579 252.748 105.173 252.908C104.77 253.065 104.31 253.143 103.793 253.143ZM113.68 247.64L112.429 247.862C112.377 247.702 112.293 247.549 112.18 247.405C112.069 247.26 111.918 247.142 111.727 247.049C111.536 246.957 111.298 246.911 111.012 246.911C110.621 246.911 110.295 246.999 110.033 247.174C109.771 247.346 109.641 247.569 109.641 247.843C109.641 248.08 109.728 248.271 109.904 248.416C110.079 248.56 110.362 248.679 110.753 248.771L111.88 249.03C112.532 249.181 113.018 249.413 113.338 249.727C113.658 250.041 113.818 250.449 113.818 250.95C113.818 251.375 113.695 251.754 113.449 252.086C113.206 252.415 112.866 252.674 112.429 252.862C111.995 253.049 111.492 253.143 110.919 253.143C110.125 253.143 109.477 252.974 108.976 252.635C108.474 252.294 108.166 251.809 108.052 251.181L109.387 250.978C109.47 251.326 109.641 251.589 109.899 251.767C110.158 251.943 110.495 252.031 110.91 252.031C111.362 252.031 111.724 251.937 111.995 251.749C112.266 251.558 112.401 251.326 112.401 251.052C112.401 250.83 112.318 250.644 112.152 250.493C111.989 250.342 111.738 250.229 111.399 250.152L110.199 249.888C109.537 249.738 109.048 249.498 108.731 249.168C108.417 248.839 108.26 248.422 108.26 247.917C108.26 247.499 108.377 247.132 108.611 246.819C108.845 246.505 109.168 246.26 109.581 246.085C109.993 245.906 110.465 245.817 110.998 245.817C111.764 245.817 112.367 245.983 112.807 246.315C113.248 246.645 113.538 247.086 113.68 247.64Z" fill="#A1A1AA"/>
<rect x="664" y="224" width="28" height="28" rx="6" fill="#F4F4F5"/>
<rect opacity="0.3" x="673" y="238.333" width="1.33333" height="6" rx="0.666666" transform="rotate(-90 673 238.333)" fill="#A1A1AA"/>
<path d="M677.862 241.195C677.602 241.456 677.602 241.878 677.862 242.138C678.122 242.399 678.544 242.399 678.805 242.138L682.805 238.138C683.057 237.886 683.066 237.479 682.825 237.216L679.158 233.216C678.909 232.945 678.488 232.927 678.216 233.175C677.945 233.424 677.926 233.846 678.175 234.117L681.411 237.647L677.862 241.195Z" fill="#A1A1AA"/>
<path d="M45.0043 283.818H47.2614L50.2841 291.196H50.4034L53.4261 283.818H55.6832V294H53.9134V287.005H53.8189L51.005 293.97H49.6825L46.8686 286.99H46.7741V294H45.0043V283.818ZM59.8097 294.154C59.3258 294.154 58.8899 294.068 58.5021 293.896C58.1177 293.72 57.8127 293.461 57.5874 293.12C57.3653 292.779 57.2543 292.358 57.2543 291.857C57.2543 291.426 57.3338 291.07 57.4929 290.788C57.652 290.507 57.8691 290.281 58.1442 290.112C58.4193 289.943 58.7292 289.816 59.0739 289.729C59.4219 289.64 59.7815 289.575 60.1527 289.536C60.6001 289.489 60.9631 289.448 61.2415 289.411C61.5199 289.371 61.7221 289.312 61.848 289.232C61.9773 289.149 62.0419 289.022 62.0419 288.849V288.82C62.0419 288.445 61.9309 288.155 61.7088 287.95C61.4867 287.744 61.1669 287.641 60.7493 287.641C60.3085 287.641 59.9588 287.737 59.7003 287.93C59.4451 288.122 59.2727 288.349 59.1832 288.611L57.5028 288.372C57.6354 287.908 57.8542 287.52 58.1591 287.209C58.464 286.894 58.8369 286.659 59.2777 286.503C59.7185 286.344 60.2057 286.264 60.7393 286.264C61.1072 286.264 61.4735 286.307 61.8381 286.393C62.2027 286.48 62.5357 286.622 62.8374 286.821C63.139 287.017 63.3809 287.283 63.5632 287.621C63.7488 287.96 63.8416 288.382 63.8416 288.889V294H62.1115V292.951H62.0518C61.9425 293.163 61.7884 293.362 61.5895 293.548C61.3939 293.73 61.147 293.877 60.8487 293.99C60.5537 294.099 60.2074 294.154 59.8097 294.154ZM60.277 292.832C60.6383 292.832 60.9515 292.76 61.2166 292.618C61.4818 292.472 61.6856 292.28 61.8281 292.041C61.974 291.803 62.0469 291.542 62.0469 291.261V290.361C61.9905 290.407 61.8944 290.45 61.7585 290.49C61.6259 290.53 61.4768 290.565 61.3111 290.594C61.1454 290.624 60.9813 290.651 60.8189 290.674C60.6565 290.697 60.5156 290.717 60.3963 290.734C60.1278 290.77 59.8875 290.83 59.6754 290.913C59.4633 290.996 59.2959 291.112 59.1733 291.261C59.0507 291.406 58.9893 291.595 58.9893 291.827C58.9893 292.159 59.1103 292.409 59.3523 292.578C59.5942 292.747 59.9025 292.832 60.277 292.832ZM65.6513 294V286.364H67.3963V287.636H67.4759C67.6151 287.196 67.8537 286.856 68.1918 286.617C68.5331 286.375 68.9226 286.254 69.3601 286.254C69.4595 286.254 69.5705 286.259 69.6932 286.269C69.8191 286.276 69.9235 286.287 70.0064 286.304V287.96C69.9302 287.933 69.8092 287.91 69.6435 287.89C69.4811 287.867 69.3236 287.855 69.1712 287.855C68.843 287.855 68.5481 287.926 68.2862 288.069C68.0277 288.208 67.8239 288.402 67.6747 288.651C67.5256 288.899 67.451 289.186 67.451 289.511V294H65.6513ZM74.2186 294.149C73.4563 294.149 72.8017 293.982 72.2548 293.647C71.7112 293.312 71.292 292.85 70.997 292.26C70.7053 291.667 70.5595 290.984 70.5595 290.212C70.5595 289.436 70.7086 288.752 71.0069 288.158C71.3052 287.562 71.7261 287.098 72.2697 286.766C72.8166 286.432 73.4629 286.264 74.2086 286.264C74.8284 286.264 75.377 286.379 75.8542 286.607C76.3348 286.833 76.7176 287.152 77.0027 287.567C77.2877 287.978 77.4501 288.458 77.4899 289.009H75.7697C75.7001 288.641 75.5344 288.334 75.2725 288.089C75.014 287.84 74.6677 287.716 74.2335 287.716C73.8656 287.716 73.5424 287.815 73.264 288.014C72.9856 288.21 72.7685 288.491 72.6127 288.859C72.4603 289.227 72.3841 289.668 72.3841 290.182C72.3841 290.702 72.4603 291.15 72.6127 291.524C72.7652 291.895 72.979 292.182 73.2541 292.384C73.5325 292.583 73.859 292.683 74.2335 292.683C74.4986 292.683 74.7356 292.633 74.9444 292.533C75.1565 292.431 75.3339 292.283 75.4764 292.091C75.6189 291.899 75.7167 291.665 75.7697 291.39H77.4899C77.4468 291.93 77.2877 292.409 77.0126 292.827C76.7375 293.241 76.363 293.566 75.889 293.801C75.4151 294.033 74.8583 294.149 74.2186 294.149ZM81.1651 294.154C80.6812 294.154 80.2454 294.068 79.8576 293.896C79.4731 293.72 79.1682 293.461 78.9428 293.12C78.7208 292.779 78.6097 292.358 78.6097 291.857C78.6097 291.426 78.6893 291.07 78.8484 290.788C79.0075 290.507 79.2246 290.281 79.4996 290.112C79.7747 289.943 80.0846 289.816 80.4293 289.729C80.7773 289.64 81.137 289.575 81.5082 289.536C81.9556 289.489 82.3185 289.448 82.5969 289.411C82.8754 289.371 83.0775 289.312 83.2035 289.232C83.3327 289.149 83.3974 289.022 83.3974 288.849V288.82C83.3974 288.445 83.2863 288.155 83.0643 287.95C82.8422 287.744 82.5224 287.641 82.1048 287.641C81.6639 287.641 81.3143 287.737 81.0558 287.93C80.8005 288.122 80.6282 288.349 80.5387 288.611L78.8583 288.372C78.9909 287.908 79.2096 287.52 79.5146 287.209C79.8195 286.894 80.1924 286.659 80.6332 286.503C81.074 286.344 81.5612 286.264 82.0948 286.264C82.4627 286.264 82.829 286.307 83.1935 286.393C83.5581 286.48 83.8912 286.622 84.1928 286.821C84.4944 287.017 84.7364 287.283 84.9187 287.621C85.1043 287.96 85.1971 288.382 85.1971 288.889V294H83.467V292.951H83.4073C83.2979 293.163 83.1438 293.362 82.945 293.548C82.7494 293.73 82.5025 293.877 82.2042 293.99C81.9092 294.099 81.5629 294.154 81.1651 294.154ZM81.6325 292.832C81.9937 292.832 82.3069 292.76 82.5721 292.618C82.8372 292.472 83.0411 292.28 83.1836 292.041C83.3294 291.803 83.4023 291.542 83.4023 291.261V290.361C83.346 290.407 83.2499 290.45 83.114 290.49C82.9814 290.53 82.8323 290.565 82.6665 290.594C82.5008 290.624 82.3368 290.651 82.1744 290.674C82.012 290.697 81.8711 290.717 81.7518 290.734C81.4833 290.77 81.243 290.83 81.0309 290.913C80.8188 290.996 80.6514 291.112 80.5288 291.261C80.4061 291.406 80.3448 291.595 80.3448 291.827C80.3448 292.159 80.4658 292.409 80.7077 292.578C80.9497 292.747 81.2579 292.832 81.6325 292.832ZM87.0067 294V286.364H88.7518V287.636H88.8313C88.9705 287.196 89.2092 286.856 89.5472 286.617C89.8886 286.375 90.2781 286.254 90.7156 286.254C90.815 286.254 90.926 286.259 91.0487 286.269C91.1746 286.276 91.279 286.287 91.3619 286.304V287.96C91.2856 287.933 91.1647 287.91 90.9989 287.89C90.8365 287.867 90.6791 287.855 90.5266 287.855C90.1985 287.855 89.9035 287.926 89.6417 288.069C89.3832 288.208 89.1793 288.402 89.0302 288.651C88.881 288.899 88.8065 289.186 88.8065 289.511V294H87.0067ZM96.0302 294V286.364H97.7752V287.636H97.8548C97.994 287.196 98.2326 286.856 98.5707 286.617C98.9121 286.375 99.3015 286.254 99.739 286.254C99.8384 286.254 99.9495 286.259 100.072 286.269C100.198 286.276 100.302 286.287 100.385 286.304V287.96C100.309 287.933 100.188 287.91 100.022 287.89C99.86 287.867 99.7025 287.855 99.5501 287.855C99.2219 287.855 98.927 287.926 98.6651 288.069C98.4066 288.208 98.2028 288.402 98.0536 288.651C97.9045 288.899 97.8299 289.186 97.8299 289.511V294H96.0302ZM104.647 294.149C103.882 294.149 103.22 293.99 102.664 293.672C102.11 293.35 101.684 292.896 101.386 292.31C101.088 291.72 100.938 291.025 100.938 290.227C100.938 289.441 101.088 288.752 101.386 288.158C101.687 287.562 102.108 287.098 102.649 286.766C103.189 286.432 103.824 286.264 104.553 286.264C105.023 286.264 105.468 286.34 105.885 286.493C106.306 286.642 106.677 286.874 106.999 287.189C107.324 287.504 107.579 287.905 107.764 288.392C107.95 288.876 108.043 289.453 108.043 290.122V290.674H101.784V289.461H106.318C106.314 289.116 106.24 288.81 106.094 288.541C105.948 288.269 105.744 288.056 105.482 287.9C105.224 287.744 104.922 287.666 104.578 287.666C104.21 287.666 103.887 287.756 103.608 287.935C103.33 288.11 103.113 288.342 102.957 288.631C102.804 288.916 102.727 289.229 102.723 289.57V290.629C102.723 291.073 102.804 291.455 102.967 291.773C103.129 292.088 103.356 292.33 103.648 292.499C103.94 292.664 104.281 292.747 104.672 292.747C104.934 292.747 105.171 292.711 105.383 292.638C105.595 292.562 105.779 292.451 105.935 292.305C106.091 292.159 106.208 291.978 106.288 291.763L107.968 291.952C107.862 292.396 107.66 292.784 107.362 293.115C107.067 293.443 106.689 293.698 106.228 293.881C105.767 294.06 105.24 294.149 104.647 294.149ZM113.379 286.364V287.756H108.989V286.364H113.379ZM110.072 284.534H111.872V291.703C111.872 291.945 111.909 292.131 111.982 292.26C112.058 292.386 112.157 292.472 112.28 292.518C112.402 292.565 112.538 292.588 112.688 292.588C112.8 292.588 112.903 292.58 112.996 292.563C113.092 292.547 113.165 292.532 113.214 292.518L113.518 293.925C113.422 293.959 113.284 293.995 113.105 294.035C112.929 294.075 112.714 294.098 112.459 294.104C112.008 294.118 111.602 294.05 111.241 293.901C110.879 293.748 110.593 293.513 110.381 293.195C110.172 292.876 110.069 292.479 110.072 292.001V284.534ZM118.133 294.149C117.387 294.149 116.741 293.985 116.194 293.657C115.647 293.329 115.223 292.87 114.921 292.28C114.623 291.69 114.474 291 114.474 290.212C114.474 289.423 114.623 288.732 114.921 288.138C115.223 287.545 115.647 287.085 116.194 286.756C116.741 286.428 117.387 286.264 118.133 286.264C118.878 286.264 119.525 286.428 120.072 286.756C120.618 287.085 121.041 287.545 121.339 288.138C121.641 288.732 121.792 289.423 121.792 290.212C121.792 291 121.641 291.69 121.339 292.28C121.041 292.87 120.618 293.329 120.072 293.657C119.525 293.985 118.878 294.149 118.133 294.149ZM118.143 292.707C118.547 292.707 118.885 292.596 119.157 292.374C119.429 292.149 119.631 291.847 119.763 291.469C119.899 291.092 119.967 290.671 119.967 290.207C119.967 289.739 119.899 289.317 119.763 288.939C119.631 288.558 119.429 288.254 119.157 288.029C118.885 287.804 118.547 287.691 118.143 287.691C117.728 287.691 117.384 287.804 117.108 288.029C116.837 288.254 116.633 288.558 116.497 288.939C116.364 289.317 116.298 289.739 116.298 290.207C116.298 290.671 116.364 291.092 116.497 291.469C116.633 291.847 116.837 292.149 117.108 292.374C117.384 292.596 117.728 292.707 118.143 292.707ZM123.319 294V286.364H125.064V287.636H125.144C125.283 287.196 125.522 286.856 125.86 286.617C126.201 286.375 126.591 286.254 127.028 286.254C127.127 286.254 127.239 286.259 127.361 286.269C127.487 286.276 127.592 286.287 127.674 286.304V287.96C127.598 287.933 127.477 287.91 127.311 287.89C127.149 287.867 126.992 287.855 126.839 287.855C126.511 287.855 126.216 287.926 125.954 288.069C125.696 288.208 125.492 288.402 125.343 288.651C125.194 288.899 125.119 289.186 125.119 289.511V294H123.319ZM130.67 289.526V294H128.87V286.364H130.59V287.661H130.68C130.855 287.234 131.135 286.894 131.52 286.642C131.908 286.39 132.387 286.264 132.957 286.264C133.484 286.264 133.943 286.377 134.334 286.602C134.728 286.828 135.033 287.154 135.249 287.582C135.467 288.009 135.575 288.528 135.572 289.138V294H133.772V289.416C133.772 288.906 133.639 288.506 133.374 288.218C133.112 287.93 132.75 287.786 132.286 287.786C131.971 287.786 131.691 287.855 131.445 287.994C131.203 288.13 131.013 288.327 130.874 288.586C130.738 288.844 130.67 289.158 130.67 289.526ZM140.732 294.149C139.987 294.149 139.34 293.985 138.793 293.657C138.246 293.329 137.822 292.87 137.521 292.28C137.222 291.69 137.073 291 137.073 290.212C137.073 289.423 137.222 288.732 137.521 288.138C137.822 287.545 138.246 287.085 138.793 286.756C139.34 286.428 139.987 286.264 140.732 286.264C141.478 286.264 142.124 286.428 142.671 286.756C143.218 287.085 143.641 287.545 143.939 288.138C144.241 288.732 144.391 289.423 144.391 290.212C144.391 291 144.241 291.69 143.939 292.28C143.641 292.87 143.218 293.329 142.671 293.657C142.124 293.985 141.478 294.149 140.732 294.149ZM140.742 292.707C141.147 292.707 141.485 292.596 141.756 292.374C142.028 292.149 142.23 291.847 142.363 291.469C142.499 291.092 142.567 290.671 142.567 290.207C142.567 289.739 142.499 289.317 142.363 288.939C142.23 288.558 142.028 288.254 141.756 288.029C141.485 287.804 141.147 287.691 140.742 287.691C140.328 287.691 139.983 287.804 139.708 288.029C139.436 288.254 139.232 288.558 139.097 288.939C138.964 289.317 138.898 289.739 138.898 290.207C138.898 290.671 138.964 291.092 139.097 291.469C139.232 291.847 139.436 292.149 139.708 292.374C139.983 292.596 140.328 292.707 140.742 292.707Z" fill="#3F3F46"/>
<path d="M45.8374 313H44.3232L47.7255 303.545H49.3736L52.7759 313H51.2617L48.5888 305.263H48.5149L45.8374 313ZM46.0913 309.298H51.0032V310.498H46.0913V309.298ZM55.4108 308.79V313H54.0305V305.909H55.3554V307.063H55.4431C55.6062 306.688 55.8617 306.386 56.2094 306.158C56.5603 305.931 57.0019 305.817 57.5344 305.817C58.0175 305.817 58.4407 305.918 58.8039 306.121C59.1671 306.321 59.4487 306.62 59.6487 307.017C59.8488 307.414 59.9488 307.905 59.9488 308.49V313H58.5684V308.656C58.5684 308.142 58.4346 307.74 58.1668 307.451C57.8991 307.159 57.5313 307.012 57.0635 307.012C56.7434 307.012 56.4587 307.082 56.2094 307.22C55.9632 307.359 55.7678 307.562 55.6231 307.83C55.4816 308.094 55.4108 308.414 55.4108 308.79ZM64.4545 313.138C63.882 313.138 63.3711 312.992 62.9218 312.7C62.4755 312.404 62.1247 311.984 61.8692 311.44C61.6169 310.892 61.4907 310.235 61.4907 309.468C61.4907 308.702 61.6184 308.047 61.8738 307.502C62.1324 306.957 62.4863 306.54 62.9356 306.251C63.385 305.961 63.8943 305.817 64.4637 305.817C64.9038 305.817 65.2577 305.891 65.5255 306.038C65.7963 306.183 66.0056 306.352 66.1533 306.546C66.3041 306.74 66.4211 306.911 66.5042 307.059H66.5873V303.545H67.9676V313H66.6196V311.897H66.5042C66.4211 312.047 66.301 312.22 66.1441 312.414C65.9902 312.608 65.7778 312.777 65.507 312.922C65.2362 313.066 64.8853 313.138 64.4545 313.138ZM64.7591 311.961C65.1562 311.961 65.4916 311.857 65.7655 311.647C66.0425 311.435 66.2518 311.141 66.3934 310.766C66.538 310.39 66.6104 309.953 66.6104 309.455C66.6104 308.962 66.5396 308.531 66.398 308.162C66.2564 307.793 66.0487 307.505 65.7748 307.299C65.5009 307.092 65.1623 306.989 64.7591 306.989C64.3437 306.989 63.9974 307.097 63.7204 307.312C63.4434 307.528 63.2342 307.822 63.0926 308.194C62.9541 308.567 62.8849 308.987 62.8849 309.455C62.8849 309.929 62.9556 310.355 63.0972 310.733C63.2388 311.112 63.4481 311.412 63.7251 311.634C64.0051 311.852 64.3498 311.961 64.7591 311.961ZM72.9938 313.143C72.2952 313.143 71.6935 312.994 71.1887 312.695C70.6871 312.394 70.2993 311.971 70.0254 311.426C69.7546 310.878 69.6191 310.236 69.6191 309.501C69.6191 308.774 69.7546 308.134 70.0254 307.58C70.2993 307.026 70.6809 306.594 71.1703 306.283C71.6627 305.972 72.2382 305.817 72.8968 305.817C73.2969 305.817 73.6847 305.883 74.0602 306.015C74.4357 306.148 74.7727 306.355 75.0712 306.638C75.3697 306.922 75.6052 307.289 75.7775 307.742C75.9499 308.191 76.036 308.737 76.036 309.381V309.87H70.3993V308.836H74.6834C74.6834 308.473 74.6096 308.151 74.4618 307.871C74.3141 307.588 74.1064 307.365 73.8386 307.202C73.5739 307.039 73.2631 306.957 72.9061 306.957C72.5183 306.957 72.1797 307.052 71.8904 307.243C71.6042 307.431 71.3826 307.677 71.2257 307.982C71.0718 308.283 70.9949 308.611 70.9949 308.965V309.773C70.9949 310.247 71.0779 310.65 71.2441 310.983C71.4134 311.315 71.6489 311.569 71.9505 311.744C72.2521 311.917 72.6045 312.003 73.0076 312.003C73.2692 312.003 73.5078 311.966 73.7232 311.892C73.9386 311.815 74.1248 311.701 74.2818 311.55C74.4387 311.4 74.5588 311.213 74.6419 310.992L75.9483 311.227C75.8437 311.612 75.656 311.949 75.3851 312.238C75.1174 312.525 74.7804 312.748 74.3741 312.908C73.9709 313.065 73.5108 313.143 72.9938 313.143ZM77.5676 313V305.909H78.9017V307.036H78.9756C79.1048 306.654 79.3326 306.354 79.6588 306.135C79.9881 305.914 80.3605 305.803 80.776 305.803C80.8622 305.803 80.9637 305.806 81.0807 305.812C81.2007 305.818 81.2946 305.826 81.3623 305.835V307.156C81.3069 307.14 81.2084 307.123 81.0669 307.105C80.9253 307.083 80.7837 307.072 80.6421 307.072C80.3159 307.072 80.0251 307.142 79.7696 307.28C79.5173 307.416 79.3172 307.605 79.1695 307.848C79.0218 308.088 78.9479 308.362 78.9479 308.67V313H77.5676ZM87.8704 307.64L86.6193 307.862C86.567 307.702 86.4839 307.549 86.37 307.405C86.2592 307.26 86.1084 307.142 85.9176 307.049C85.7268 306.957 85.4883 306.911 85.2021 306.911C84.8112 306.911 84.485 306.999 84.2234 307.174C83.9618 307.346 83.831 307.569 83.831 307.843C83.831 308.08 83.9187 308.271 84.0941 308.416C84.2695 308.56 84.5527 308.679 84.9435 308.771L86.07 309.03C86.7224 309.181 87.2087 309.413 87.5288 309.727C87.8488 310.041 88.0089 310.449 88.0089 310.95C88.0089 311.375 87.8858 311.754 87.6396 312.086C87.3964 312.415 87.0563 312.674 86.6193 312.862C86.1854 313.049 85.6822 313.143 85.1097 313.143C84.3157 313.143 83.6679 312.974 83.1662 312.635C82.6645 312.294 82.3568 311.809 82.2429 311.181L83.5771 310.978C83.6602 311.326 83.831 311.589 84.0895 311.767C84.348 311.943 84.685 312.031 85.1005 312.031C85.5529 312.031 85.9145 311.937 86.1854 311.749C86.4562 311.558 86.5916 311.326 86.5916 311.052C86.5916 310.83 86.5085 310.644 86.3423 310.493C86.1792 310.342 85.9284 310.229 85.5898 310.152L84.3896 309.888C83.7279 309.738 83.2385 309.498 82.9215 309.168C82.6076 308.839 82.4506 308.422 82.4506 307.917C82.4506 307.499 82.5676 307.132 82.8015 306.819C83.0354 306.505 83.3585 306.26 83.771 306.085C84.1834 305.906 84.6558 305.817 85.1882 305.817C85.9545 305.817 86.5578 305.983 86.9979 306.315C87.438 306.645 87.7288 307.086 87.8704 307.64ZM92.5134 313.143C91.8486 313.143 91.2685 312.991 90.773 312.686C90.2775 312.381 89.8928 311.955 89.6189 311.407C89.345 310.859 89.208 310.219 89.208 309.487C89.208 308.751 89.345 308.108 89.6189 307.557C89.8928 307.006 90.2775 306.578 90.773 306.274C91.2685 305.969 91.8486 305.817 92.5134 305.817C93.1782 305.817 93.7583 305.969 94.2538 306.274C94.7493 306.578 95.134 307.006 95.4079 307.557C95.6818 308.108 95.8188 308.751 95.8188 309.487C95.8188 310.219 95.6818 310.859 95.4079 311.407C95.134 311.955 94.7493 312.381 94.2538 312.686C93.7583 312.991 93.1782 313.143 92.5134 313.143ZM92.518 311.984C92.9489 311.984 93.3059 311.871 93.589 311.643C93.8722 311.415 94.0815 311.112 94.2169 310.733C94.3554 310.355 94.4246 309.938 94.4246 309.482C94.4246 309.03 94.3554 308.614 94.2169 308.236C94.0815 307.854 93.8722 307.548 93.589 307.317C93.3059 307.086 92.9489 306.971 92.518 306.971C92.0841 306.971 91.724 307.086 91.4378 307.317C91.1546 307.548 90.9438 307.854 90.8053 308.236C90.6699 308.614 90.6022 309.03 90.6022 309.482C90.6022 309.938 90.6699 310.355 90.8053 310.733C90.9438 311.112 91.1546 311.415 91.4378 311.643C91.724 311.871 92.0841 311.984 92.518 311.984ZM98.7399 308.79V313H97.3596V305.909H98.6845V307.063H98.7722C98.9353 306.688 99.1908 306.386 99.5385 306.158C99.8894 305.931 100.331 305.817 100.863 305.817C101.347 305.817 101.77 305.918 102.133 306.121C102.496 306.321 102.778 306.62 102.978 307.017C103.178 307.414 103.278 307.905 103.278 308.49V313H101.898V308.656C101.898 308.142 101.764 307.74 101.496 307.451C101.228 307.159 100.86 307.012 100.393 307.012C100.073 307.012 99.7878 307.082 99.5385 307.22C99.2923 307.359 99.0969 307.562 98.9522 307.83C98.8107 308.094 98.7399 308.414 98.7399 308.79ZM108.68 313V303.545H112.143C112.814 303.545 113.369 303.656 113.809 303.878C114.249 304.096 114.579 304.393 114.797 304.769C115.016 305.141 115.125 305.561 115.125 306.029C115.125 306.423 115.053 306.755 114.908 307.026C114.763 307.294 114.569 307.509 114.326 307.673C114.086 307.833 113.822 307.95 113.532 308.023V308.116C113.846 308.131 114.152 308.233 114.451 308.42C114.753 308.605 115.002 308.868 115.199 309.21C115.396 309.551 115.494 309.967 115.494 310.456C115.494 310.94 115.38 311.373 115.153 311.758C114.928 312.14 114.58 312.443 114.109 312.668C113.638 312.889 113.037 313 112.304 313H108.68ZM110.107 311.777H112.166C112.849 311.777 113.338 311.644 113.634 311.38C113.929 311.115 114.077 310.784 114.077 310.387C114.077 310.089 114.002 309.815 113.851 309.565C113.7 309.316 113.485 309.118 113.204 308.97C112.927 308.822 112.598 308.748 112.217 308.748H110.107V311.777ZM110.107 307.636H112.018C112.338 307.636 112.626 307.574 112.881 307.451C113.14 307.328 113.344 307.156 113.495 306.934C113.649 306.709 113.726 306.445 113.726 306.14C113.726 305.749 113.589 305.421 113.315 305.157C113.041 304.892 112.621 304.76 112.055 304.76H110.107V307.636ZM121.567 310.059V305.909H122.952V313H121.595V311.772H121.521C121.358 312.151 121.096 312.466 120.736 312.718C120.379 312.968 119.935 313.092 119.402 313.092C118.947 313.092 118.543 312.992 118.193 312.792C117.845 312.589 117.571 312.289 117.371 311.892C117.174 311.495 117.075 311.004 117.075 310.419V305.909H118.456V310.253C118.456 310.736 118.59 311.121 118.857 311.407C119.125 311.694 119.473 311.837 119.901 311.837C120.159 311.837 120.416 311.772 120.672 311.643C120.93 311.513 121.144 311.318 121.313 311.056C121.486 310.795 121.57 310.462 121.567 310.059ZM127.863 313.143C127.164 313.143 126.563 312.994 126.058 312.695C125.556 312.394 125.168 311.971 124.895 311.426C124.624 310.878 124.488 310.236 124.488 309.501C124.488 308.774 124.624 308.134 124.895 307.58C125.168 307.026 125.55 306.594 126.039 306.283C126.532 305.972 127.107 305.817 127.766 305.817C128.166 305.817 128.554 305.883 128.929 306.015C129.305 306.148 129.642 306.355 129.94 306.638C130.239 306.922 130.474 307.289 130.647 307.742C130.819 308.191 130.905 308.737 130.905 309.381V309.87H125.268V308.836H129.553C129.553 308.473 129.479 308.151 129.331 307.871C129.183 307.588 128.975 307.365 128.708 307.202C128.443 307.039 128.132 306.957 127.775 306.957C127.387 306.957 127.049 307.052 126.76 307.243C126.473 307.431 126.252 307.677 126.095 307.982C125.941 308.283 125.864 308.611 125.864 308.965V309.773C125.864 310.247 125.947 310.65 126.113 310.983C126.283 311.315 126.518 311.569 126.82 311.744C127.121 311.917 127.474 312.003 127.877 312.003C128.138 312.003 128.377 311.966 128.592 311.892C128.808 311.815 128.994 311.701 129.151 311.55C129.308 311.4 129.428 311.213 129.511 310.992L130.817 311.227C130.713 311.612 130.525 311.949 130.254 312.238C129.987 312.525 129.65 312.748 129.243 312.908C128.84 313.065 128.38 313.143 127.863 313.143ZM133.817 308.79V313H132.437V305.909H133.762V307.063H133.849C134.012 306.688 134.268 306.386 134.616 306.158C134.967 305.931 135.408 305.817 135.941 305.817C136.424 305.817 136.847 305.918 137.21 306.121C137.573 306.321 137.855 306.62 138.055 307.017C138.255 307.414 138.355 307.905 138.355 308.49V313H136.975V308.656C136.975 308.142 136.841 307.74 136.573 307.451C136.305 307.159 135.938 307.012 135.47 307.012C135.15 307.012 134.865 307.082 134.616 307.22C134.369 307.359 134.174 307.562 134.029 307.83C133.888 308.094 133.817 308.414 133.817 308.79ZM143.193 313.143C142.528 313.143 141.948 312.991 141.453 312.686C140.957 312.381 140.572 311.955 140.299 311.407C140.025 310.859 139.888 310.219 139.888 309.487C139.888 308.751 140.025 308.108 140.299 307.557C140.572 307.006 140.957 306.578 141.453 306.274C141.948 305.969 142.528 305.817 143.193 305.817C143.858 305.817 144.438 305.969 144.934 306.274C145.429 306.578 145.814 307.006 146.088 307.557C146.362 308.108 146.498 308.751 146.498 309.487C146.498 310.219 146.362 310.859 146.088 311.407C145.814 311.955 145.429 312.381 144.934 312.686C144.438 312.991 143.858 313.143 143.193 313.143ZM143.198 311.984C143.629 311.984 143.986 311.871 144.269 311.643C144.552 311.415 144.761 311.112 144.897 310.733C145.035 310.355 145.104 309.938 145.104 309.482C145.104 309.03 145.035 308.614 144.897 308.236C144.761 307.854 144.552 307.548 144.269 307.317C143.986 307.086 143.629 306.971 143.198 306.971C142.764 306.971 142.404 307.086 142.117 307.317C141.834 307.548 141.623 307.854 141.485 308.236C141.35 308.614 141.282 309.03 141.282 309.482C141.282 309.938 141.35 310.355 141.485 310.733C141.623 311.112 141.834 311.415 142.117 311.643C142.404 311.871 142.764 311.984 143.198 311.984Z" fill="#A1A1AA"/>
<rect x="664" y="284" width="28" height="28" rx="6" fill="#F4F4F5"/>
<rect opacity="0.3" x="673" y="298.333" width="1.33333" height="6" rx="0.666666" transform="rotate(-90 673 298.333)" fill="#A1A1AA"/>
<path d="M677.862 301.195C677.602 301.456 677.602 301.878 677.862 302.138C678.122 302.399 678.544 302.399 678.805 302.138L682.805 298.138C683.057 297.886 683.066 297.479 682.825 297.216L679.158 293.216C678.909 292.945 678.488 292.927 678.216 293.175C677.945 293.424 677.926 293.846 678.175 294.117L681.411 297.647L677.862 301.195Z" fill="#A1A1AA"/>
<path d="M46.3118 354H44.343L47.9276 343.818H50.2045L53.794 354H51.8253L49.1058 345.906H49.0263L46.3118 354ZM46.3764 350.008H51.7457V351.489H46.3764V350.008ZM60.9196 346.364L58.2001 354H56.2115L53.492 346.364H55.411L57.166 352.036H57.2456L59.0055 346.364H60.9196ZM64.1436 354.154C63.6597 354.154 63.2239 354.068 62.8361 353.896C62.4516 353.72 62.1467 353.461 61.9213 353.12C61.6993 352.779 61.5882 352.358 61.5882 351.857C61.5882 351.426 61.6678 351.07 61.8269 350.788C61.986 350.507 62.2031 350.281 62.4782 350.112C62.7533 349.943 63.0632 349.816 63.4078 349.729C63.7559 349.64 64.1155 349.575 64.4867 349.536C64.9341 349.489 65.2971 349.448 65.5755 349.411C65.8539 349.371 66.056 349.312 66.182 349.232C66.3113 349.149 66.3759 349.022 66.3759 348.849V348.82C66.3759 348.445 66.2649 348.155 66.0428 347.95C65.8207 347.744 65.5009 347.641 65.0833 347.641C64.6425 347.641 64.2928 347.737 64.0343 347.93C63.7791 348.122 63.6067 348.349 63.5172 348.611L61.8368 348.372C61.9694 347.908 62.1882 347.52 62.4931 347.209C62.798 346.894 63.1709 346.659 63.6117 346.503C64.0525 346.344 64.5397 346.264 65.0733 346.264C65.4412 346.264 65.8075 346.307 66.1721 346.393C66.5366 346.48 66.8697 346.622 67.1713 346.821C67.473 347.017 67.7149 347.283 67.8972 347.621C68.0828 347.96 68.1756 348.382 68.1756 348.889V354H66.4455V352.951H66.3858C66.2765 353.163 66.1223 353.362 65.9235 353.548C65.7279 353.73 65.481 353.877 65.1827 353.99C64.8877 354.099 64.5414 354.154 64.1436 354.154ZM64.611 352.832C64.9722 352.832 65.2855 352.76 65.5506 352.618C65.8158 352.472 66.0196 352.28 66.1621 352.041C66.3079 351.803 66.3809 351.542 66.3809 351.261V350.361C66.3245 350.407 66.2284 350.45 66.0925 350.49C65.9599 350.53 65.8108 350.565 65.6451 350.594C65.4793 350.624 65.3153 350.651 65.1529 350.674C64.9905 350.697 64.8496 350.717 64.7303 350.734C64.4618 350.77 64.2215 350.83 64.0094 350.913C63.7973 350.996 63.6299 351.112 63.5073 351.261C63.3846 351.406 63.3233 351.595 63.3233 351.827C63.3233 352.159 63.4443 352.409 63.6863 352.578C63.9282 352.747 64.2364 352.832 64.611 352.832ZM71.785 343.818V354H69.9853V343.818H71.785ZM73.6357 354V346.364H75.4354V354H73.6357ZM74.5405 345.28C74.2554 345.28 74.0102 345.185 73.8047 344.996C73.5992 344.804 73.4964 344.574 73.4964 344.305C73.4964 344.034 73.5992 343.803 73.8047 343.614C74.0102 343.422 74.2554 343.326 74.5405 343.326C74.8288 343.326 75.0741 343.422 75.2763 343.614C75.4818 343.803 75.5845 344.034 75.5845 344.305C75.5845 344.574 75.4818 344.804 75.2763 344.996C75.0741 345.185 74.8288 345.28 74.5405 345.28ZM79.4835 354.154C78.9996 354.154 78.5637 354.068 78.176 353.896C77.7915 353.72 77.4866 353.461 77.2612 353.12C77.0391 352.779 76.9281 352.358 76.9281 351.857C76.9281 351.426 77.0076 351.07 77.1667 350.788C77.3258 350.507 77.5429 350.281 77.818 350.112C78.0931 349.943 78.403 349.816 78.7477 349.729C79.0957 349.64 79.4553 349.575 79.8265 349.536C80.274 349.489 80.6369 349.448 80.9153 349.411C81.1937 349.371 81.3959 349.312 81.5218 349.232C81.6511 349.149 81.7157 349.022 81.7157 348.849V348.82C81.7157 348.445 81.6047 348.155 81.3826 347.95C81.1606 347.744 80.8407 347.641 80.4231 347.641C79.9823 347.641 79.6326 347.737 79.3741 347.93C79.1189 348.122 78.9466 348.349 78.8571 348.611L77.1767 348.372C77.3092 347.908 77.528 347.52 77.8329 347.209C78.1378 346.894 78.5107 346.659 78.9515 346.503C79.3923 346.344 79.8796 346.264 80.4132 346.264C80.7811 346.264 81.1473 346.307 81.5119 346.393C81.8765 346.48 82.2096 346.622 82.5112 346.821C82.8128 347.017 83.0547 347.283 83.237 347.621C83.4226 347.96 83.5154 348.382 83.5154 348.889V354H81.7853V352.951H81.7257C81.6163 353.163 81.4622 353.362 81.2633 353.548C81.0678 353.73 80.8208 353.877 80.5225 353.99C80.2276 354.099 79.8812 354.154 79.4835 354.154ZM79.9508 352.832C80.3121 352.832 80.6253 352.76 80.8904 352.618C81.1556 352.472 81.3594 352.28 81.502 352.041C81.6478 351.803 81.7207 351.542 81.7207 351.261V350.361C81.6644 350.407 81.5682 350.45 81.4324 350.49C81.2998 350.53 81.1506 350.565 80.9849 350.594C80.8192 350.624 80.6551 350.651 80.4927 350.674C80.3303 350.697 80.1895 350.717 80.0701 350.734C79.8017 350.77 79.5614 350.83 79.3493 350.913C79.1371 350.996 78.9698 351.112 78.8471 351.261C78.7245 351.406 78.6632 351.595 78.6632 351.827C78.6632 352.159 78.7842 352.409 79.0261 352.578C79.2681 352.747 79.5763 352.832 79.9508 352.832ZM85.3251 354V346.364H87.0701V347.636H87.1497C87.2889 347.196 87.5275 346.856 87.8656 346.617C88.207 346.375 88.5964 346.254 89.0339 346.254C89.1333 346.254 89.2444 346.259 89.367 346.269C89.493 346.276 89.5974 346.287 89.6802 346.304V347.96C89.604 347.933 89.483 347.91 89.3173 347.89C89.1549 347.867 88.9975 347.855 88.845 347.855C88.5169 347.855 88.2219 347.926 87.96 348.069C87.7015 348.208 87.4977 348.402 87.3485 348.651C87.1994 348.899 87.1248 349.186 87.1248 349.511V354H85.3251Z" fill="#3F3F46"/>
<path d="M45.0387 373V363.545H48.4087C49.1443 363.545 49.7537 363.679 50.2369 363.947C50.7201 364.215 51.0817 364.581 51.3217 365.046C51.5618 365.507 51.6818 366.028 51.6818 366.606C51.6818 367.188 51.5603 367.711 51.3171 368.176C51.0771 368.637 50.7139 369.004 50.2276 369.275C49.7444 369.542 49.1366 369.676 48.4041 369.676H46.0866V368.467H48.2749C48.7396 368.467 49.1166 368.387 49.4059 368.227C49.6952 368.063 49.9076 367.842 50.043 367.562C50.1784 367.282 50.2461 366.963 50.2461 366.606C50.2461 366.249 50.1784 365.932 50.043 365.655C49.9076 365.378 49.6937 365.161 49.4013 365.004C49.112 364.847 48.7304 364.769 48.2564 364.769H46.4652V373H45.0387ZM56.2106 373.143C55.512 373.143 54.9103 372.994 54.4055 372.695C53.9039 372.394 53.5161 371.971 53.2422 371.426C52.9714 370.878 52.8359 370.236 52.8359 369.501C52.8359 368.774 52.9714 368.134 53.2422 367.58C53.5161 367.026 53.8977 366.594 54.3871 366.283C54.8795 365.972 55.455 365.817 56.1136 365.817C56.5137 365.817 56.9015 365.883 57.277 366.015C57.6525 366.148 57.9895 366.355 58.288 366.638C58.5865 366.922 58.822 367.289 58.9943 367.742C59.1667 368.191 59.2528 368.737 59.2528 369.381V369.87H53.6161V368.836H57.9002C57.9002 368.473 57.8263 368.151 57.6786 367.871C57.5309 367.588 57.3232 367.365 57.0554 367.202C56.7907 367.039 56.4799 366.957 56.1229 366.957C55.7351 366.957 55.3965 367.052 55.1072 367.243C54.821 367.431 54.5994 367.677 54.4425 367.982C54.2886 368.283 54.2116 368.611 54.2116 368.965V369.773C54.2116 370.247 54.2947 370.65 54.4609 370.983C54.6302 371.315 54.8656 371.569 55.1673 371.744C55.4689 371.917 55.8213 372.003 56.2244 372.003C56.486 372.003 56.7246 371.966 56.94 371.892C57.1554 371.815 57.3416 371.701 57.4986 371.55C57.6555 371.4 57.7756 371.213 57.8587 370.992L59.1651 371.227C59.0605 371.612 58.8728 371.949 58.6019 372.238C58.3342 372.525 57.9972 372.748 57.5909 372.908C57.1877 373.065 56.7276 373.143 56.2106 373.143ZM63.4388 373.138C62.8664 373.138 62.3555 372.992 61.9062 372.7C61.4599 372.404 61.109 371.984 60.8536 371.44C60.6012 370.892 60.4751 370.235 60.4751 369.468C60.4751 368.702 60.6028 368.047 60.8582 367.502C61.1167 366.957 61.4707 366.54 61.92 366.251C62.3693 365.961 62.8787 365.817 63.4481 365.817C63.8882 365.817 64.2421 365.891 64.5099 366.038C64.7807 366.183 64.99 366.352 65.1377 366.546C65.2885 366.74 65.4055 366.911 65.4885 367.059H65.5716V363.545H66.952V373H65.604V371.897H65.4885C65.4055 372.047 65.2854 372.22 65.1285 372.414C64.9746 372.608 64.7622 372.777 64.4914 372.922C64.2206 373.066 63.8697 373.138 63.4388 373.138ZM63.7435 371.961C64.1405 371.961 64.476 371.857 64.7499 371.647C65.0269 371.435 65.2362 371.141 65.3778 370.766C65.5224 370.39 65.5947 369.953 65.5947 369.455C65.5947 368.962 65.5239 368.531 65.3824 368.162C65.2408 367.793 65.0331 367.505 64.7591 367.299C64.4852 367.092 64.1467 366.989 63.7435 366.989C63.328 366.989 62.9818 367.097 62.7048 367.312C62.4278 367.528 62.2185 367.822 62.077 368.194C61.9385 368.567 61.8692 368.987 61.8692 369.455C61.8692 369.929 61.94 370.355 62.0816 370.733C62.2232 371.112 62.4324 371.412 62.7094 371.634C62.9895 371.852 63.3342 371.961 63.7435 371.961ZM68.9221 373V365.909H70.2562V367.036H70.3301C70.4593 366.654 70.6871 366.354 71.0133 366.135C71.3426 365.914 71.715 365.803 72.1305 365.803C72.2167 365.803 72.3182 365.806 72.4352 365.812C72.5552 365.818 72.6491 365.826 72.7168 365.835V367.156C72.6614 367.14 72.5629 367.123 72.4213 367.105C72.2798 367.083 72.1382 367.072 71.9966 367.072C71.6704 367.072 71.3796 367.142 71.1241 367.28C70.8717 367.416 70.6717 367.605 70.524 367.848C70.3762 368.088 70.3024 368.362 70.3024 368.67V373H68.9221ZM76.6443 373.143C75.9795 373.143 75.3994 372.991 74.9039 372.686C74.4084 372.381 74.0236 371.955 73.7497 371.407C73.4758 370.859 73.3389 370.219 73.3389 369.487C73.3389 368.751 73.4758 368.108 73.7497 367.557C74.0236 367.006 74.4084 366.578 74.9039 366.274C75.3994 365.969 75.9795 365.817 76.6443 365.817C77.309 365.817 77.8892 365.969 78.3847 366.274C78.8802 366.578 79.2649 367.006 79.5388 367.557C79.8127 368.108 79.9497 368.751 79.9497 369.487C79.9497 370.219 79.8127 370.859 79.5388 371.407C79.2649 371.955 78.8802 372.381 78.3847 372.686C77.8892 372.991 77.309 373.143 76.6443 373.143ZM76.6489 371.984C77.0798 371.984 77.4368 371.871 77.7199 371.643C78.003 371.415 78.2123 371.112 78.3477 370.733C78.4862 370.355 78.5555 369.938 78.5555 369.482C78.5555 369.03 78.4862 368.614 78.3477 368.236C78.2123 367.854 78.003 367.548 77.7199 367.317C77.4368 367.086 77.0798 366.971 76.6489 366.971C76.2149 366.971 75.8548 367.086 75.5686 367.317C75.2855 367.548 75.0747 367.854 74.9362 368.236C74.8008 368.614 74.733 369.03 74.733 369.482C74.733 369.938 74.8008 370.355 74.9362 370.733C75.0747 371.112 75.2855 371.415 75.5686 371.643C75.8548 371.871 76.2149 371.984 76.6489 371.984ZM90.1982 366.029C90.149 365.592 89.9459 365.254 89.5889 365.013C89.2319 364.77 88.7825 364.649 88.2409 364.649C87.8531 364.649 87.5176 364.71 87.2345 364.833C86.9513 364.953 86.7313 365.12 86.5743 365.332C86.4204 365.541 86.3435 365.78 86.3435 366.048C86.3435 366.272 86.3958 366.466 86.5004 366.629C86.6082 366.792 86.7482 366.929 86.9205 367.04C87.096 367.148 87.2837 367.239 87.4838 367.312C87.6838 367.383 87.8762 367.442 88.0608 367.488L88.9841 367.728C89.2857 367.802 89.595 367.902 89.912 368.028C90.229 368.154 90.5229 368.32 90.7938 368.527C91.0646 368.733 91.2831 368.988 91.4493 369.293C91.6186 369.598 91.7032 369.962 91.7032 370.387C91.7032 370.923 91.5647 371.398 91.2877 371.814C91.0138 372.229 90.6153 372.557 90.0921 372.797C89.5719 373.037 88.9426 373.157 88.2039 373.157C87.4961 373.157 86.8836 373.045 86.3666 372.82C85.8495 372.595 85.4448 372.277 85.1524 371.864C84.8601 371.449 84.6985 370.956 84.6677 370.387H86.0988C86.1265 370.729 86.2373 371.013 86.4312 371.241C86.6282 371.466 86.879 371.634 87.1837 371.744C87.4914 371.852 87.8285 371.906 88.1947 371.906C88.5979 371.906 88.9564 371.843 89.2703 371.717C89.5873 371.587 89.8366 371.409 90.0182 371.181C90.1998 370.95 90.2906 370.681 90.2906 370.373C90.2906 370.093 90.2106 369.864 90.0505 369.685C89.8936 369.507 89.6797 369.359 89.4088 369.242C89.1411 369.125 88.8379 369.022 88.4994 368.933L87.3822 368.628C86.6251 368.422 86.0249 368.119 85.5818 367.719C85.1417 367.319 84.9216 366.789 84.9216 366.131C84.9216 365.586 85.0693 365.11 85.3648 364.704C85.6602 364.298 86.0603 363.982 86.5651 363.758C87.0698 363.53 87.6392 363.416 88.2732 363.416C88.9133 363.416 89.4781 363.529 89.9674 363.753C90.4598 363.978 90.8476 364.287 91.1308 364.681C91.4139 365.072 91.5616 365.521 91.574 366.029H90.1982ZM93.2971 373V365.909H94.6774V373H93.2971ZM93.9941 364.815C93.7541 364.815 93.5479 364.735 93.3755 364.575C93.2063 364.412 93.1216 364.218 93.1216 363.993C93.1216 363.766 93.2063 363.572 93.3755 363.412C93.5479 363.248 93.7541 363.167 93.9941 363.167C94.2342 363.167 94.4389 363.248 94.6081 363.412C94.7805 363.572 94.8667 363.766 94.8667 363.993C94.8667 364.218 94.7805 364.412 94.6081 364.575C94.4389 364.735 94.2342 364.815 93.9941 364.815ZM97.9147 363.545V373H96.5344V363.545H97.9147ZM105.838 365.909L103.266 373H101.789L99.2131 365.909H100.695L102.491 371.366H102.565L104.356 365.909H105.838ZM108.995 373.157C108.546 373.157 108.14 373.074 107.777 372.908C107.413 372.738 107.126 372.494 106.913 372.174C106.704 371.854 106.599 371.461 106.599 370.996C106.599 370.596 106.676 370.267 106.83 370.009C106.984 369.75 107.192 369.545 107.453 369.395C107.715 369.244 108.007 369.13 108.331 369.053C108.654 368.976 108.983 368.917 109.319 368.877C109.743 368.828 110.088 368.788 110.353 368.757C110.617 368.724 110.81 368.67 110.93 368.596C111.05 368.522 111.11 368.402 111.11 368.236V368.203C111.11 367.8 110.996 367.488 110.768 367.266C110.543 367.045 110.208 366.934 109.762 366.934C109.297 366.934 108.931 367.037 108.663 367.243C108.398 367.446 108.215 367.673 108.114 367.922L106.816 367.626C106.97 367.196 107.195 366.848 107.49 366.583C107.789 366.315 108.132 366.121 108.52 366.001C108.908 365.878 109.315 365.817 109.743 365.817C110.026 365.817 110.326 365.851 110.643 365.918C110.964 365.983 111.262 366.103 111.539 366.278C111.819 366.454 112.048 366.705 112.227 367.031C112.405 367.354 112.495 367.774 112.495 368.291V373H111.147V372.031H111.091C111.002 372.209 110.868 372.384 110.69 372.557C110.511 372.729 110.282 372.872 110.002 372.986C109.722 373.1 109.386 373.157 108.995 373.157ZM109.295 372.049C109.677 372.049 110.003 371.974 110.274 371.823C110.548 371.672 110.756 371.475 110.897 371.232C111.042 370.986 111.114 370.723 111.114 370.442V369.528C111.065 369.578 110.97 369.624 110.828 369.667C110.69 369.707 110.531 369.742 110.353 369.773C110.174 369.801 110 369.827 109.831 369.852C109.662 369.873 109.52 369.892 109.406 369.907C109.138 369.941 108.894 369.998 108.672 370.078C108.454 370.158 108.278 370.273 108.146 370.424C108.017 370.572 107.952 370.769 107.952 371.015C107.952 371.357 108.078 371.615 108.331 371.79C108.583 371.963 108.905 372.049 109.295 372.049Z" fill="#A1A1AA"/>
<rect x="664" y="344" width="28" height="28" rx="6" fill="#F4F4F5"/>
<rect opacity="0.3" x="673" y="358.333" width="1.33333" height="6" rx="0.666666" transform="rotate(-90 673 358.333)" fill="#A1A1AA"/>
<path d="M677.862 361.195C677.602 361.456 677.602 361.878 677.862 362.138C678.122 362.399 678.544 362.399 678.805 362.138L682.805 358.138C683.057 357.886 683.066 357.479 682.825 357.216L679.158 353.216C678.909 352.945 678.488 352.927 678.216 353.175C677.945 353.424 677.926 353.846 678.175 354.117L681.411 357.647L677.862 361.195Z" fill="#A1A1AA"/>
</g>
<defs>
<filter id="filter0_d_10478_8545" x="0" y="0" width="736" height="437" filterUnits="userSpaceOnUse" color-interpolation-filters="sRGB">
<feFlood flood-opacity="0" result="BackgroundImageFix"/>
<feColorMatrix in="SourceAlpha" type="matrix" values="0 0 0 0 0 0 0 0 0 0 0 0 0 0 0 0 0 0 127 0" result="hardAlpha"/>
<feOffset/>
<feGaussianBlur stdDeviation="10"/>
<feColorMatrix type="matrix" values="0 0 0 0 0.368627 0 0 0 0 0.384314 0 0 0 0 0.470588 0 0 0 0.04 0"/>
<feBlend mode="normal" in2="BackgroundImageFix" result="effect1_dropShadow_10478_8545"/>
<feBlend mode="normal" in="SourceGraphic" in2="effect1_dropShadow_10478_8545" result="shape"/>
</filter>
</defs>
</svg>
