<svg width="466" height="42" viewBox="0 0 466 42" fill="none" xmlns="http://www.w3.org/2000/svg">
<rect width="240" height="42" rx="12" fill="#00BAC9"/>
<path d="M28.275 26.1746L25.95 23.8496C25.425 24.6746 24.675 25.4246 23.85 25.9496L26.175 28.2746C26.475 28.5746 26.925 28.5746 27.225 28.2746L28.275 27.2246C28.575 26.9246 28.575 26.4746 28.275 26.1746Z" fill="white"/>
<path opacity="0.3" d="M20.25 27C16.5 27 13.5 24 13.5 20.25C13.5 16.5 16.5 13.5 20.25 13.5C24 13.5 27 16.5 27 20.25C27 24 24 27 20.25 27ZM20.25 15C17.325 15 15 17.325 15 20.25C15 23.175 17.325 25.5 20.25 25.5C23.175 25.5 25.5 23.175 25.5 20.25C25.5 17.325 23.175 15 20.25 15ZM18 20.25C18 18.975 18.975 18 20.25 18C20.7 18 21 17.7 21 17.25C21 16.8 20.7 16.5 20.25 16.5C18.15 16.5 16.5 18.15 16.5 20.25C16.5 20.7 16.8 21 17.25 21C17.7 21 18 20.7 18 20.25Z" fill="white"/>
<path d="M41.0387 26V16.5455H44.4087C45.1443 16.5455 45.7537 16.6793 46.2369 16.9471C46.7201 17.2148 47.0817 17.5811 47.3217 18.0458C47.5618 18.5075 47.6818 19.0276 47.6818 19.6062C47.6818 20.1879 47.5603 20.7111 47.3171 21.1758C47.0771 21.6374 46.7139 22.0037 46.2276 22.2745C45.7444 22.5423 45.1366 22.6761 44.4041 22.6761H42.0866V21.4666H44.2749C44.7396 21.4666 45.1166 21.3866 45.4059 21.2266C45.6952 21.0634 45.9076 20.8419 46.043 20.5618C46.1784 20.2817 46.2461 19.9632 46.2461 19.6062C46.2461 19.2492 46.1784 18.9322 46.043 18.6552C45.9076 18.3782 45.6937 18.1612 45.4013 18.0043C45.112 17.8473 44.7304 17.7688 44.2564 17.7688H42.4652V26H41.0387ZM52.2106 26.1431C51.512 26.1431 50.9103 25.9938 50.4055 25.6953C49.9039 25.3937 49.5161 24.9705 49.2422 24.4258C48.9714 23.878 48.8359 23.2363 48.8359 22.5007C48.8359 21.7744 48.9714 21.1342 49.2422 20.5803C49.5161 20.0263 49.8977 19.5939 50.3871 19.283C50.8795 18.9722 51.455 18.8168 52.1136 18.8168C52.5137 18.8168 52.9015 18.8829 53.277 19.0153C53.6525 19.1476 53.9895 19.3554 54.288 19.6385C54.5865 19.9216 54.822 20.2894 54.9943 20.7418C55.1667 21.1912 55.2528 21.7375 55.2528 22.3807V22.87H49.6161V21.8359H53.9002C53.9002 21.4728 53.8263 21.1512 53.6786 20.8711C53.5309 20.5879 53.3232 20.3648 53.0554 20.2017C52.7907 20.0386 52.4799 19.957 52.1229 19.957C51.7351 19.957 51.3965 20.0524 51.1072 20.2433C50.821 20.431 50.5994 20.6772 50.4425 20.9819C50.2886 21.2835 50.2116 21.6113 50.2116 21.9652V22.7731C50.2116 23.247 50.2947 23.6502 50.4609 23.9826C50.6302 24.315 50.8656 24.5689 51.1673 24.7443C51.4689 24.9167 51.8213 25.0028 52.2244 25.0028C52.486 25.0028 52.7246 24.9659 52.94 24.892C53.1554 24.8151 53.3416 24.7012 53.4986 24.5504C53.6555 24.3996 53.7756 24.2134 53.8587 23.9918L55.1651 24.2273C55.0605 24.612 54.8728 24.949 54.6019 25.2383C54.3342 25.5245 53.9972 25.7476 53.5909 25.9077C53.1877 26.0646 52.7276 26.1431 52.2106 26.1431ZM62.0979 20.6403L60.8469 20.8619C60.7945 20.7018 60.7114 20.5495 60.5976 20.4048C60.4868 20.2602 60.336 20.1417 60.1452 20.0494C59.9543 19.957 59.7158 19.9109 59.4296 19.9109C59.0387 19.9109 58.7125 19.9986 58.4509 20.174C58.1893 20.3464 58.0585 20.5695 58.0585 20.8434C58.0585 21.0804 58.1462 21.2712 58.3216 21.4158C58.4971 21.5605 58.7802 21.679 59.1711 21.7713L60.2975 22.0298C60.95 22.1806 61.4362 22.413 61.7563 22.7269C62.0764 23.0408 62.2364 23.4486 62.2364 23.9503C62.2364 24.375 62.1133 24.7536 61.8671 25.0859C61.624 25.4152 61.2839 25.6738 60.8469 25.8615C60.4129 26.0492 59.9097 26.1431 59.3373 26.1431C58.5432 26.1431 57.8954 25.9738 57.3937 25.6353C56.8921 25.2937 56.5843 24.8089 56.4704 24.1811L57.8046 23.978C57.8877 24.3258 58.0585 24.5889 58.317 24.7674C58.5756 24.9428 58.9126 25.0305 59.328 25.0305C59.7805 25.0305 60.1421 24.9367 60.4129 24.7489C60.6837 24.5581 60.8192 24.3258 60.8192 24.0518C60.8192 23.8303 60.7361 23.6441 60.5699 23.4933C60.4068 23.3424 60.1559 23.2286 59.8174 23.1516L58.6171 22.8885C57.9554 22.7377 57.4661 22.4976 57.1491 22.1683C56.8351 21.839 56.6782 21.422 56.6782 20.9173C56.6782 20.4987 56.7951 20.1325 57.029 19.8185C57.2629 19.5046 57.5861 19.2599 57.9985 19.0845C58.4109 18.906 58.8833 18.8168 59.4157 18.8168C60.1821 18.8168 60.7853 18.983 61.2254 19.3153C61.6655 19.6446 61.9564 20.0863 62.0979 20.6403ZM68.5414 28.6591V24.8967H68.4583C68.3752 25.0475 68.2551 25.2198 68.0982 25.4137C67.9443 25.6076 67.7319 25.7769 67.4611 25.9215C67.1903 26.0662 66.8394 26.1385 66.4086 26.1385C65.8361 26.1385 65.3252 25.9923 64.8759 25.6999C64.4296 25.4045 64.0788 24.9844 63.8233 24.4396C63.571 23.8918 63.4448 23.2347 63.4448 22.4684C63.4448 21.7021 63.5725 21.0465 63.8279 20.5018C64.0865 19.957 64.4404 19.54 64.8897 19.2507C65.3391 18.9614 65.8484 18.8168 66.4178 18.8168C66.8579 18.8168 67.2118 18.8906 67.4796 19.0384C67.7504 19.183 67.9597 19.3523 68.1074 19.5462C68.2582 19.7401 68.3752 19.9109 68.4583 20.0586H68.5737V18.9091H69.9217V28.6591H68.5414ZM66.7132 24.9613C67.1103 24.9613 67.4457 24.8567 67.7196 24.6474C67.9966 24.435 68.2059 24.1411 68.3475 23.7656C68.4921 23.3902 68.5645 22.9531 68.5645 22.4545C68.5645 21.9621 68.4937 21.5312 68.3521 21.1619C68.2105 20.7926 68.0028 20.5049 67.7289 20.2987C67.455 20.0924 67.1164 19.9893 66.7132 19.9893C66.2978 19.9893 65.9515 20.0971 65.6745 20.3125C65.3975 20.5279 65.1883 20.8219 65.0467 21.1942C64.9082 21.5666 64.839 21.9867 64.839 22.4545C64.839 22.9285 64.9097 23.3548 65.0513 23.7333C65.1929 24.1119 65.4022 24.4119 65.6792 24.6335C65.9592 24.852 66.3039 24.9613 66.7132 24.9613ZM76.2694 23.0593V18.9091H77.6543V26H76.2971V24.772H76.2232C76.0601 25.1506 75.7985 25.466 75.4384 25.7184C75.0814 25.9677 74.6367 26.0923 74.1042 26.0923C73.6487 26.0923 73.2456 25.9923 72.8947 25.7923C72.5469 25.5891 72.273 25.2891 72.073 24.892C71.876 24.495 71.7775 24.0041 71.7775 23.4194V18.9091H73.1578V23.2532C73.1578 23.7364 73.2917 24.1211 73.5595 24.4073C73.8272 24.6935 74.175 24.8366 74.6028 24.8366C74.8613 24.8366 75.1183 24.772 75.3738 24.6428C75.6323 24.5135 75.8462 24.3181 76.0154 24.0565C76.1878 23.7949 76.2724 23.4625 76.2694 23.0593ZM79.509 26V18.9091H80.8893V26H79.509ZM80.2061 17.815C79.966 17.815 79.7598 17.735 79.5874 17.5749C79.4182 17.4118 79.3335 17.2179 79.3335 16.9933C79.3335 16.7655 79.4182 16.5716 79.5874 16.4116C79.7598 16.2485 79.966 16.1669 80.2061 16.1669C80.4461 16.1669 80.6508 16.2485 80.82 16.4116C80.9924 16.5716 81.0786 16.7655 81.0786 16.9933C81.0786 17.2179 80.9924 17.4118 80.82 17.5749C80.6508 17.735 80.4461 17.815 80.2061 17.815ZM88.0598 20.6403L86.8088 20.8619C86.7565 20.7018 86.6734 20.5495 86.5595 20.4048C86.4487 20.2602 86.2979 20.1417 86.1071 20.0494C85.9163 19.957 85.6777 19.9109 85.3915 19.9109C85.0007 19.9109 84.6744 19.9986 84.4128 20.174C84.1512 20.3464 84.0204 20.5695 84.0204 20.8434C84.0204 21.0804 84.1081 21.2712 84.2836 21.4158C84.459 21.5605 84.7421 21.679 85.133 21.7713L86.2594 22.0298C86.9119 22.1806 87.3981 22.413 87.7182 22.7269C88.0383 23.0408 88.1983 23.4486 88.1983 23.9503C88.1983 24.375 88.0752 24.7536 87.829 25.0859C87.5859 25.4152 87.2458 25.6738 86.8088 25.8615C86.3748 26.0492 85.8716 26.1431 85.2992 26.1431C84.5051 26.1431 83.8573 25.9738 83.3556 25.6353C82.854 25.2937 82.5462 24.8089 82.4324 24.1811L83.7665 23.978C83.8496 24.3258 84.0204 24.5889 84.2789 24.7674C84.5375 24.9428 84.8745 25.0305 85.29 25.0305C85.7424 25.0305 86.104 24.9367 86.3748 24.7489C86.6457 24.5581 86.7811 24.3258 86.7811 24.0518C86.7811 23.8303 86.698 23.6441 86.5318 23.4933C86.3687 23.3424 86.1178 23.2286 85.7793 23.1516L84.579 22.8885C83.9173 22.7377 83.428 22.4976 83.111 22.1683C82.7971 21.839 82.6401 21.422 82.6401 20.9173C82.6401 20.4987 82.757 20.1325 82.9909 19.8185C83.2248 19.5046 83.548 19.2599 83.9604 19.0845C84.3728 18.906 84.8452 18.8168 85.3777 18.8168C86.144 18.8168 86.7472 18.983 87.1873 19.3153C87.6274 19.6446 87.9183 20.0863 88.0598 20.6403ZM91.7796 26.157C91.3302 26.157 90.924 26.0739 90.5608 25.9077C90.1977 25.7384 89.9099 25.4937 89.6975 25.1737C89.4883 24.8536 89.3836 24.4612 89.3836 23.9964C89.3836 23.5964 89.4606 23.267 89.6144 23.0085C89.7683 22.75 89.9761 22.5453 90.2377 22.3945C90.4993 22.2437 90.7916 22.1299 91.1148 22.0529C91.4379 21.976 91.7673 21.9175 92.1027 21.8775C92.5274 21.8282 92.8721 21.7882 93.1368 21.7575C93.4015 21.7236 93.5938 21.6697 93.7139 21.5959C93.8339 21.522 93.8939 21.402 93.8939 21.2358V21.2035C93.8939 20.8003 93.78 20.4879 93.5523 20.2663C93.3276 20.0447 92.9922 19.9339 92.5459 19.9339C92.0812 19.9339 91.7149 20.037 91.4472 20.2433C91.1825 20.4464 90.9994 20.6726 90.8978 20.9219L89.6006 20.6264C89.7545 20.1955 89.9791 19.8478 90.2746 19.5831C90.5731 19.3153 90.9163 19.1214 91.3041 19.0014C91.6919 18.8783 92.0996 18.8168 92.5274 18.8168C92.8106 18.8168 93.1106 18.8506 93.4276 18.9183C93.7477 18.983 94.0463 19.103 94.3232 19.2784C94.6033 19.4538 94.8326 19.7047 95.0111 20.0309C95.1896 20.354 95.2789 20.7741 95.2789 21.2912V26H93.9308V25.0305H93.8754C93.7862 25.209 93.6523 25.3845 93.4738 25.5568C93.2953 25.7292 93.066 25.8723 92.786 25.9862C92.5059 26.1 92.1704 26.157 91.7796 26.157ZM92.0796 25.049C92.4613 25.049 92.7875 24.9736 93.0583 24.8228C93.3322 24.672 93.54 24.475 93.6816 24.2319C93.8262 23.9857 93.8985 23.7225 93.8985 23.4425V22.5284C93.8493 22.5777 93.7539 22.6238 93.6123 22.6669C93.4738 22.7069 93.3153 22.7423 93.1368 22.7731C92.9583 22.8008 92.7844 22.8269 92.6151 22.8516C92.4459 22.8731 92.3043 22.8916 92.1904 22.907C91.9227 22.9408 91.678 22.9978 91.4564 23.0778C91.2379 23.1578 91.0625 23.2732 90.9301 23.424C90.8009 23.5717 90.7362 23.7687 90.7362 24.0149C90.7362 24.3565 90.8624 24.6151 91.1148 24.7905C91.3672 24.9628 91.6888 25.049 92.0796 25.049ZM97.1174 26V18.9091H98.4515V20.0355H98.5254C98.6547 19.6539 98.8824 19.3538 99.2086 19.1353C99.5379 18.9137 99.9103 18.8029 100.326 18.8029C100.412 18.8029 100.514 18.806 100.631 18.8121C100.751 18.8183 100.844 18.826 100.912 18.8352V20.1555C100.857 20.1402 100.758 20.1232 100.617 20.1048C100.475 20.0832 100.334 20.0724 100.192 20.0724C99.8657 20.0724 99.5749 20.1417 99.3194 20.2802C99.0671 20.4156 98.867 20.6049 98.7193 20.848C98.5716 21.0881 98.4977 21.362 98.4977 21.6697V26H97.1174Z" fill="white"/>
<rect x="248" width="42" height="42" rx="12" fill="#00BAC9"/>
<path opacity="0.3" d="M269 31C270.657 31 272 29.6569 272 28C272 26.3431 270.657 25 269 25C267.343 25 266 26.3431 266 28C266 29.6569 267.343 31 269 31Z" fill="white"/>
<path d="M276 24V27C276 27.6 275.6 28 275 28H263C262.4 28 262 27.6 262 27V24C263.1 24 264 23.1 264 22V19C264 16.6 265.7 14.6 268 14.1V12C268 11.4 268.4 11 269 11C269.6 11 270 11.4 270 12V14.1C272.3 14.6 274 16.6 274 19V22C274 23.1 274.9 24 276 24ZM268 19C268 18.4 268.4 18 269 18C269.6 18 270 17.6 270 17C270 16.4 269.6 16 269 16C267.3 16 266 17.3 266 19C266 19.6 266.4 20 267 20C267.6 20 268 19.6 268 19Z" fill="white"/>
<rect x="306" y="1" width="160" height="40" rx="20" fill="white"/>
<path opacity="0.3" d="M343.5 29.334H328.5C328 29.334 327.667 29.0007 327.667 28.5007V15.1673C327.667 14.6673 328 14.334 328.5 14.334H343.5C344 14.334 344.333 14.6673 344.333 15.1673V28.5007C344.333 29.0007 344 29.334 343.5 29.334Z" fill="#00BAC9"/>
<path d="M331 16.0003C330.5 16.0003 330.167 15.667 330.167 15.167V13.5003C330.167 13.0003 330.5 12.667 331 12.667C331.5 12.667 331.833 13.0003 331.833 13.5003V15.167C331.833 15.667 331.5 16.0003 331 16.0003ZM335.167 15.167V13.5003C335.167 13.0003 334.833 12.667 334.333 12.667C333.833 12.667 333.5 13.0003 333.5 13.5003V15.167C333.5 15.667 333.833 16.0003 334.333 16.0003C334.833 16.0003 335.167 15.667 335.167 15.167ZM338.5 15.167V13.5003C338.5 13.0003 338.167 12.667 337.667 12.667C337.167 12.667 336.833 13.0003 336.833 13.5003V15.167C336.833 15.667 337.167 16.0003 337.667 16.0003C338.167 16.0003 338.5 15.667 338.5 15.167ZM341.833 15.167V13.5003C341.833 13.0003 341.5 12.667 341 12.667C340.5 12.667 340.167 13.0003 340.167 13.5003V15.167C340.167 15.667 340.5 16.0003 341 16.0003C341.5 16.0003 341.833 15.667 341.833 15.167Z" fill="#00BAC9"/>
<path d="M333.333 21.9166C333.667 21.9166 333.917 21.8333 334.083 21.6666C334.25 21.5 334.417 21.25 334.417 20.9166C334.417 20.6666 334.333 20.4166 334.167 20.25C334 20.0833 333.75 20 333.5 20C333.333 20 333.167 20 333 20.0833C332.833 20.1666 332.75 20.25 332.667 20.3333C332.583 20.4166 332.5 20.5 332.417 20.6666C332.333 20.8333 332.25 20.9166 332.25 21.0833C332.25 21.1666 332.167 21.1666 332.083 21.25C332 21.3333 331.917 21.3333 331.75 21.3333C331.583 21.3333 331.5 21.25 331.417 21.1666C331.333 21.0833 331.25 20.9166 331.25 20.75C331.25 20.5833 331.333 20.4166 331.417 20.25C331.5 20.0833 331.667 19.9166 331.833 19.75C332 19.5833 332.25 19.4166 332.583 19.3333C332.917 19.25 333.167 19.1667 333.583 19.1667C333.917 19.1667 334.167 19.25 334.417 19.3333C334.667 19.4166 334.917 19.5833 335.083 19.6666C335.25 19.75 335.417 20 335.5 20.25C335.583 20.5 335.667 20.6666 335.667 20.9166C335.667 21.25 335.583 21.5 335.417 21.75C335.25 22 335.083 22.25 334.833 22.4166C335.083 22.5833 335.333 22.75 335.5 22.9166C335.667 23.0833 335.833 23.25 335.917 23.5C336 23.75 336.083 23.9166 336.083 24.1666C336.083 24.5 336 24.75 335.917 25C335.833 25.25 335.583 25.5 335.417 25.75C335.25 26 334.917 26.1666 334.583 26.25C334.25 26.3333 333.917 26.4166 333.5 26.4166C333.083 26.4166 332.75 26.3333 332.417 26.1666C332.083 26 331.833 25.8333 331.667 25.6666C331.5 25.5 331.333 25.25 331.25 25C331.167 24.75 331.083 24.5833 331.083 24.4166C331.083 24.25 331.167 24.0833 331.25 24C331.333 23.9166 331.5 23.8333 331.667 23.8333C331.75 23.8333 331.833 23.8333 331.917 23.9166C332 24 332.083 24 332.083 24.0833C332.25 24.5 332.417 24.8333 332.667 25.0833C332.917 25.3333 333.167 25.4166 333.5 25.4166C333.667 25.4166 333.917 25.3333 334.083 25.25C334.25 25.1666 334.417 25 334.583 24.8333C334.75 24.6666 334.75 24.4166 334.75 24.1666C334.75 23.75 334.667 23.5 334.417 23.25C334.167 23 333.917 22.9166 333.583 22.9166C333.5 22.9166 333.417 22.9166 333.25 22.9166C333.083 22.9166 333 22.9166 333 22.9166C332.833 22.9166 332.667 22.8333 332.583 22.75C332.5 22.6666 332.417 22.5 332.417 22.4166C332.417 22.25 332.5 22.1666 332.583 22C332.667 21.8333 332.833 21.8333 333.083 21.8333H333.333V21.9166ZM338.75 25.5833V21.1666C337.917 21.8333 337.333 22.0833 337.083 22.0833C336.917 22.0833 336.833 22 336.75 21.9166C336.667 21.8333 336.583 21.6666 336.583 21.5C336.583 21.3333 336.667 21.25 336.75 21.1666C336.833 21.0833 337 21 337.333 20.8333C337.75 20.6666 338.083 20.4166 338.25 20.25C338.417 20.0833 338.667 19.8333 338.917 19.5833C339.167 19.3333 339.25 19.1667 339.25 19.0833C339.25 19 339.417 19 339.583 19C339.75 19 339.917 19.0833 340 19.1667C340.083 19.25 340.167 19.5 340.167 19.75V25.3333C340.167 26 339.917 26.3333 339.5 26.3333C339.333 26.3333 339.167 26.25 339 26.1666C338.833 26.0833 338.75 25.8333 338.75 25.5833Z" fill="#00BAC9"/>
<path d="M364.702 16.5455V26H363.179L358.724 19.56H358.645V26H356.933V16.5455H358.465L362.915 22.9901H362.999V16.5455H364.702ZM369.587 26.1385C368.895 26.1385 368.295 25.9862 367.787 25.6815C367.279 25.3768 366.885 24.9505 366.605 24.4027C366.328 23.8549 366.19 23.2147 366.19 22.4822C366.19 21.7498 366.328 21.1081 366.605 20.5572C366.885 20.0063 367.279 19.5785 367.787 19.2738C368.295 18.9691 368.895 18.8168 369.587 18.8168C370.28 18.8168 370.88 18.9691 371.388 19.2738C371.896 19.5785 372.288 20.0063 372.565 20.5572C372.845 21.1081 372.985 21.7498 372.985 22.4822C372.985 23.2147 372.845 23.8549 372.565 24.4027C372.288 24.9505 371.896 25.3768 371.388 25.6815C370.88 25.9862 370.28 26.1385 369.587 26.1385ZM369.597 24.7997C369.972 24.7997 370.286 24.6966 370.538 24.4904C370.791 24.2811 370.979 24.0011 371.102 23.6502C371.228 23.2994 371.291 22.9085 371.291 22.4776C371.291 22.0437 371.228 21.6513 371.102 21.3004C370.979 20.9465 370.791 20.6649 370.538 20.4556C370.286 20.2463 369.972 20.1417 369.597 20.1417C369.212 20.1417 368.892 20.2463 368.636 20.4556C368.384 20.6649 368.195 20.9465 368.069 21.3004C367.946 21.6513 367.884 22.0437 367.884 22.4776C367.884 22.9085 367.946 23.2994 368.069 23.6502C368.195 24.0011 368.384 24.2811 368.636 24.4904C368.892 24.6966 369.212 24.7997 369.597 24.7997ZM380.496 18.9091L377.971 26H376.124L373.599 18.9091H375.381L377.011 24.1765H377.085L378.719 18.9091H380.496ZM383.49 26.1431C383.041 26.1431 382.636 26.0631 382.276 25.9031C381.919 25.7399 381.636 25.4999 381.426 25.1829C381.22 24.8659 381.117 24.475 381.117 24.0103C381.117 23.6102 381.191 23.2794 381.339 23.0178C381.486 22.7562 381.688 22.5469 381.943 22.3899C382.199 22.233 382.487 22.1145 382.807 22.0344C383.13 21.9513 383.464 21.8913 383.809 21.8544C384.224 21.8113 384.561 21.7728 384.82 21.739C385.078 21.7021 385.266 21.6467 385.383 21.5728C385.503 21.4959 385.563 21.3774 385.563 21.2173V21.1896C385.563 20.8419 385.46 20.5726 385.253 20.3817C385.047 20.1909 384.75 20.0955 384.362 20.0955C383.953 20.0955 383.628 20.1848 383.388 20.3633C383.151 20.5418 382.991 20.7526 382.908 20.9957L381.348 20.7741C381.471 20.3433 381.674 19.9832 381.957 19.6939C382.24 19.4015 382.587 19.183 382.996 19.0384C383.405 18.8906 383.858 18.8168 384.353 18.8168C384.695 18.8168 385.035 18.8568 385.373 18.9368C385.712 19.0168 386.021 19.1491 386.301 19.3338C386.581 19.5154 386.806 19.7631 386.975 20.0771C387.148 20.391 387.234 20.7834 387.234 21.2543V26H385.627V25.0259H385.572C385.47 25.2229 385.327 25.4076 385.143 25.5799C384.961 25.7492 384.732 25.8861 384.455 25.9908C384.181 26.0923 383.859 26.1431 383.49 26.1431ZM383.924 24.9151C384.259 24.9151 384.55 24.849 384.796 24.7166C385.043 24.5812 385.232 24.4027 385.364 24.1811C385.5 23.9595 385.567 23.7179 385.567 23.4563V22.6207C385.515 22.6638 385.426 22.7038 385.3 22.7408C385.177 22.7777 385.038 22.81 384.884 22.8377C384.73 22.8654 384.578 22.89 384.427 22.9116C384.276 22.9331 384.146 22.9516 384.035 22.967C383.785 23.0008 383.562 23.0562 383.365 23.1332C383.168 23.2101 383.013 23.3178 382.899 23.4563C382.785 23.5917 382.728 23.7672 382.728 23.9826C382.728 24.2904 382.841 24.5227 383.065 24.6797C383.29 24.8366 383.576 24.9151 383.924 24.9151ZM395.232 26.1385C394.524 26.1385 393.916 25.9831 393.408 25.6722C392.904 25.3614 392.514 24.9321 392.241 24.3842C391.97 23.8333 391.834 23.1993 391.834 22.4822C391.834 21.7621 391.973 21.1265 392.25 20.5756C392.527 20.0217 392.918 19.5908 393.422 19.283C393.93 18.9722 394.53 18.8168 395.223 18.8168C395.798 18.8168 396.308 18.9229 396.751 19.1353C397.197 19.3446 397.553 19.6416 397.817 20.0263C398.082 20.4079 398.233 20.8542 398.27 21.3651H396.672C396.608 21.0234 396.454 20.7388 396.211 20.511C395.971 20.2802 395.649 20.1648 395.246 20.1648C394.904 20.1648 394.604 20.2571 394.346 20.4418C394.087 20.6233 393.886 20.8849 393.741 21.2266C393.599 21.5682 393.528 21.9775 393.528 22.4545C393.528 22.9377 393.599 23.3532 393.741 23.701C393.882 24.0457 394.081 24.3119 394.336 24.4996C394.595 24.6843 394.898 24.7766 395.246 24.7766C395.492 24.7766 395.712 24.7305 395.906 24.6381C396.103 24.5427 396.268 24.4058 396.4 24.2273C396.532 24.0488 396.623 23.8318 396.672 23.5763H398.27C398.23 24.078 398.082 24.5227 397.826 24.9105C397.571 25.2952 397.223 25.5968 396.783 25.8153C396.343 26.0308 395.826 26.1385 395.232 26.1385ZM402.735 26.1385C402.042 26.1385 401.442 25.9862 400.934 25.6815C400.427 25.3768 400.033 24.9505 399.753 24.4027C399.476 23.8549 399.337 23.2147 399.337 22.4822C399.337 21.7498 399.476 21.1081 399.753 20.5572C400.033 20.0063 400.427 19.5785 400.934 19.2738C401.442 18.9691 402.042 18.8168 402.735 18.8168C403.427 18.8168 404.028 18.9691 404.535 19.2738C405.043 19.5785 405.436 20.0063 405.713 20.5572C405.993 21.1081 406.133 21.7498 406.133 22.4822C406.133 23.2147 405.993 23.8549 405.713 24.4027C405.436 24.9505 405.043 25.3768 404.535 25.6815C404.028 25.9862 403.427 26.1385 402.735 26.1385ZM402.744 24.7997C403.12 24.7997 403.434 24.6966 403.686 24.4904C403.938 24.2811 404.126 24.0011 404.249 23.6502C404.375 23.2994 404.438 22.9085 404.438 22.4776C404.438 22.0437 404.375 21.6513 404.249 21.3004C404.126 20.9465 403.938 20.6649 403.686 20.4556C403.434 20.2463 403.12 20.1417 402.744 20.1417C402.359 20.1417 402.039 20.2463 401.784 20.4556C401.532 20.6649 401.342 20.9465 401.216 21.3004C401.093 21.6513 401.031 22.0437 401.031 22.4776C401.031 22.9085 401.093 23.2994 401.216 23.6502C401.342 24.0011 401.532 24.2811 401.784 24.4904C402.039 24.6966 402.359 24.7997 402.744 24.7997ZM409.222 21.8452V26H407.551V18.9091H409.148V20.114H409.231C409.395 19.717 409.655 19.4015 410.012 19.1676C410.372 18.9337 410.816 18.8168 411.346 18.8168C411.835 18.8168 412.261 18.9214 412.625 19.1307C412.991 19.34 413.274 19.6431 413.474 20.0401C413.677 20.4371 413.777 20.9188 413.774 21.4851V26H412.103V21.7436C412.103 21.2696 411.98 20.8988 411.734 20.631C411.49 20.3633 411.153 20.2294 410.723 20.2294C410.43 20.2294 410.17 20.294 409.942 20.4233C409.718 20.5495 409.541 20.7326 409.411 20.9727C409.285 21.2127 409.222 21.5036 409.222 21.8452ZM421.077 20.7834L419.554 20.9496C419.511 20.7957 419.435 20.651 419.328 20.5156C419.223 20.3802 419.081 20.271 418.903 20.1879C418.724 20.1048 418.506 20.0632 418.247 20.0632C417.9 20.0632 417.607 20.1386 417.37 20.2894C417.136 20.4402 417.021 20.6357 417.024 20.8757C417.021 21.0819 417.096 21.2496 417.25 21.3789C417.407 21.5082 417.666 21.6143 418.026 21.6974L419.235 21.956C419.906 22.1006 420.405 22.3299 420.731 22.6438C421.06 22.9577 421.227 23.3686 421.23 23.8764C421.227 24.3227 421.096 24.7166 420.837 25.0582C420.582 25.3968 420.226 25.6615 419.771 25.8523C419.315 26.0431 418.792 26.1385 418.201 26.1385C417.333 26.1385 416.635 25.9569 416.105 25.5938C415.576 25.2275 415.261 24.7182 415.159 24.0657L416.789 23.9087C416.862 24.2288 417.019 24.4704 417.259 24.6335C417.5 24.7966 417.812 24.8782 418.197 24.8782C418.594 24.8782 418.912 24.7966 419.152 24.6335C419.395 24.4704 419.517 24.2688 419.517 24.0288C419.517 23.8256 419.438 23.6579 419.282 23.5256C419.128 23.3932 418.888 23.2917 418.561 23.2209L417.352 22.967C416.672 22.8254 416.168 22.5869 415.842 22.2514C415.516 21.9129 415.354 21.4851 415.358 20.968C415.354 20.531 415.473 20.1525 415.713 19.8324C415.956 19.5092 416.293 19.2599 416.724 19.0845C417.158 18.906 417.658 18.8168 418.224 18.8168C419.055 18.8168 419.709 18.9937 420.186 19.3477C420.666 19.7016 420.963 20.1802 421.077 20.7834ZM427.127 23.0178V18.9091H428.798V26H427.178V24.7397H427.104C426.944 25.1367 426.681 25.4614 426.315 25.7138C425.952 25.9661 425.504 26.0923 424.971 26.0923C424.507 26.0923 424.096 25.9892 423.739 25.783C423.385 25.5737 423.108 25.2706 422.908 24.8736C422.708 24.4735 422.608 23.9903 422.608 23.424V18.9091H424.279V23.1655C424.279 23.6148 424.402 23.9718 424.648 24.2365C424.894 24.5012 425.218 24.6335 425.618 24.6335C425.864 24.6335 426.102 24.5735 426.333 24.4535C426.564 24.3335 426.753 24.1549 426.901 23.918C427.052 23.6779 427.127 23.3778 427.127 23.0178ZM432.188 16.5455V26H430.517V16.5455H432.188ZM437.447 18.9091V20.2017H433.371V18.9091H437.447ZM434.377 17.2102H436.049V23.8672C436.049 24.0919 436.082 24.2642 436.15 24.3842C436.221 24.5012 436.313 24.5812 436.427 24.6243C436.541 24.6674 436.667 24.6889 436.806 24.6889C436.91 24.6889 437.006 24.6812 437.092 24.6658C437.181 24.6504 437.249 24.6366 437.295 24.6243L437.577 25.9308C437.487 25.9615 437.36 25.9954 437.193 26.0323C437.03 26.0692 436.83 26.0908 436.593 26.0969C436.175 26.1093 435.798 26.0462 435.462 25.9077C435.127 25.7661 434.861 25.5476 434.664 25.2521C434.47 24.9567 434.374 24.5874 434.377 24.1442V17.2102ZM440.885 26.1431C440.436 26.1431 440.031 26.0631 439.671 25.9031C439.314 25.7399 439.031 25.4999 438.822 25.1829C438.616 24.8659 438.513 24.475 438.513 24.0103C438.513 23.6102 438.586 23.2794 438.734 23.0178C438.882 22.7562 439.084 22.5469 439.339 22.3899C439.594 22.233 439.882 22.1145 440.202 22.0344C440.525 21.9513 440.859 21.8913 441.204 21.8544C441.619 21.8113 441.956 21.7728 442.215 21.739C442.474 21.7021 442.661 21.6467 442.778 21.5728C442.898 21.4959 442.958 21.3774 442.958 21.2173V21.1896C442.958 20.8419 442.855 20.5726 442.649 20.3817C442.443 20.1909 442.146 20.0955 441.758 20.0955C441.349 20.0955 441.024 20.1848 440.784 20.3633C440.547 20.5418 440.387 20.7526 440.304 20.9957L438.743 20.7741C438.867 20.3433 439.07 19.9832 439.353 19.6939C439.636 19.4015 439.982 19.183 440.392 19.0384C440.801 18.8906 441.253 18.8168 441.749 18.8168C442.09 18.8168 442.43 18.8568 442.769 18.9368C443.108 19.0168 443.417 19.1491 443.697 19.3338C443.977 19.5154 444.202 19.7631 444.371 20.0771C444.543 20.391 444.629 20.7834 444.629 21.2543V26H443.023V25.0259H442.968C442.866 25.2229 442.723 25.4076 442.538 25.5799C442.357 25.7492 442.127 25.8861 441.85 25.9908C441.576 26.0923 441.255 26.1431 440.885 26.1431ZM441.319 24.9151C441.655 24.9151 441.946 24.849 442.192 24.7166C442.438 24.5812 442.627 24.4027 442.76 24.1811C442.895 23.9595 442.963 23.7179 442.963 23.4563V22.6207C442.911 22.6638 442.821 22.7038 442.695 22.7408C442.572 22.7777 442.434 22.81 442.28 22.8377C442.126 22.8654 441.973 22.89 441.823 22.9116C441.672 22.9331 441.541 22.9516 441.43 22.967C441.181 23.0008 440.958 23.0562 440.761 23.1332C440.564 23.2101 440.408 23.3178 440.295 23.4563C440.181 23.5917 440.124 23.7672 440.124 23.9826C440.124 24.2904 440.236 24.5227 440.461 24.6797C440.685 24.8366 440.972 24.9151 441.319 24.9151Z" fill="#00BAC9"/>
</svg>
