<svg width="432" height="210" viewBox="0 0 432 210" fill="none" xmlns="http://www.w3.org/2000/svg">
<rect width="432" height="210" rx="12" fill="#CCF3F5"/>
<path d="M37.8849 44.3622H35.2287C35.1529 43.9266 35.0133 43.5407 34.8097 43.2045C34.6061 42.8636 34.3527 42.5748 34.0497 42.3381C33.7467 42.1013 33.401 41.9238 33.0128 41.8054C32.6293 41.6823 32.215 41.6207 31.7699 41.6207C30.9792 41.6207 30.2784 41.8196 29.6676 42.2173C29.0568 42.6103 28.5786 43.188 28.233 43.9503C27.8873 44.7079 27.7145 45.6335 27.7145 46.7273C27.7145 47.84 27.8873 48.7775 28.233 49.5398C28.5833 50.2973 29.0616 50.8703 29.6676 51.2585C30.2784 51.642 30.9768 51.8338 31.7628 51.8338C32.1984 51.8338 32.6056 51.777 32.9844 51.6634C33.3679 51.545 33.7112 51.3722 34.0142 51.1449C34.322 50.9176 34.58 50.6383 34.7884 50.3068C35.0014 49.9754 35.1482 49.5966 35.2287 49.1705L37.8849 49.1847C37.7855 49.8759 37.5701 50.5246 37.2386 51.1307C36.9119 51.7367 36.4834 52.2718 35.9531 52.7358C35.4228 53.1951 34.8026 53.5549 34.0923 53.8153C33.3821 54.071 32.5938 54.1989 31.7273 54.1989C30.4489 54.1989 29.3078 53.9029 28.304 53.3111C27.3002 52.7192 26.5095 51.8646 25.9318 50.7472C25.3542 49.6297 25.0653 48.2898 25.0653 46.7273C25.0653 45.16 25.3565 43.8201 25.9389 42.7074C26.5213 41.59 27.3144 40.7353 28.3182 40.1435C29.322 39.5516 30.4583 39.2557 31.7273 39.2557C32.5369 39.2557 33.2898 39.3693 33.9858 39.5966C34.6818 39.8239 35.3021 40.1577 35.8466 40.598C36.3911 41.0336 36.8385 41.5687 37.1889 42.2031C37.544 42.8329 37.776 43.5526 37.8849 44.3622ZM40.1843 54V43.0909H42.6772V44.9091H42.7908C42.9897 44.2794 43.3306 43.794 43.8136 43.4531C44.3013 43.1075 44.8576 42.9347 45.4826 42.9347C45.6246 42.9347 45.7833 42.9418 45.9585 42.956C46.1384 42.9654 46.2875 42.982 46.4059 43.0057V45.3707C46.297 45.3329 46.1242 45.2997 45.8874 45.2713C45.6554 45.2382 45.4305 45.2216 45.2127 45.2216C44.744 45.2216 44.3226 45.3234 43.9485 45.527C43.5792 45.7259 43.288 46.0028 43.0749 46.358C42.8619 46.7131 42.7553 47.1226 42.7553 47.5866V54H40.1843ZM48.114 54V43.0909H50.685V54H48.114ZM49.4066 41.5426C48.9994 41.5426 48.649 41.4077 48.3555 41.1378C48.0619 40.8632 47.9151 40.5341 47.9151 40.1506C47.9151 39.7623 48.0619 39.4332 48.3555 39.1634C48.649 38.8887 48.9994 38.7514 49.4066 38.7514C49.8185 38.7514 50.1689 38.8887 50.4577 39.1634C50.7513 39.4332 50.8981 39.7623 50.8981 40.1506C50.8981 40.5341 50.7513 40.8632 50.4577 41.1378C50.1689 41.4077 49.8185 41.5426 49.4066 41.5426ZM58.1584 54.2131C57.0646 54.2131 56.12 53.9858 55.3246 53.5312C54.5339 53.072 53.9254 52.4233 53.4993 51.5852C53.0732 50.7424 52.8601 49.7505 52.8601 48.6094C52.8601 47.4872 53.0732 46.5024 53.4993 45.6548C53.9302 44.8026 54.5315 44.1397 55.3033 43.6662C56.075 43.188 56.9818 42.9489 58.0234 42.9489C58.6958 42.9489 59.3303 43.0578 59.9268 43.2756C60.5282 43.4886 61.0585 43.8201 61.5178 44.2699C61.9818 44.7197 62.3464 45.2926 62.6115 45.9886C62.8767 46.6799 63.0092 47.5038 63.0092 48.4602V49.2486H54.0675V47.5156H60.5447C60.54 47.0232 60.4335 46.5852 60.2251 46.2017C60.0168 45.8134 59.7256 45.508 59.3516 45.2855C58.9822 45.063 58.5514 44.9517 58.0589 44.9517C57.5334 44.9517 57.0717 45.0795 56.674 45.3352C56.2763 45.5862 55.9661 45.9176 55.7436 46.3295C55.5258 46.7367 55.4145 47.1842 55.4098 47.6719V49.1847C55.4098 49.8191 55.5258 50.3636 55.7578 50.8182C55.9898 51.268 56.3142 51.6136 56.7308 51.8551C57.1475 52.0919 57.6352 52.2102 58.1939 52.2102C58.5679 52.2102 58.9065 52.1581 59.2095 52.054C59.5125 51.9451 59.7753 51.7865 59.9979 51.5781C60.2204 51.3698 60.3885 51.1117 60.5021 50.804L62.9027 51.0739C62.7512 51.7083 62.4624 52.2623 62.0362 52.7358C61.6148 53.2045 61.075 53.5691 60.4169 53.8295C59.7588 54.0852 59.0059 54.2131 58.1584 54.2131ZM77.0984 49.4119V43.0909H79.6694V54H77.1765V52.0611H77.0629C76.8166 52.6719 76.4118 53.1714 75.8484 53.5597C75.2897 53.9479 74.6007 54.142 73.7816 54.142C73.0666 54.142 72.4345 53.9834 71.8853 53.6662C71.3408 53.3442 70.9147 52.8778 70.6069 52.267C70.2991 51.6515 70.1452 50.9081 70.1452 50.0369V43.0909H72.7163V49.6392C72.7163 50.3305 72.9057 50.8797 73.2844 51.2869C73.6632 51.6941 74.1604 51.8977 74.7759 51.8977C75.1547 51.8977 75.5217 51.8054 75.8768 51.6207C76.2319 51.4361 76.5231 51.1615 76.7504 50.7969C76.9824 50.4276 77.0984 49.9659 77.0984 49.4119ZM82.3132 54V43.0909H84.7706V44.9446H84.8984C85.1257 44.3196 85.5021 43.8319 86.0277 43.4815C86.5533 43.1264 87.1806 42.9489 87.9098 42.9489C88.6484 42.9489 89.2711 43.1288 89.7777 43.4886C90.2891 43.8437 90.6489 44.3291 90.8572 44.9446H90.9709C91.2124 44.3385 91.6196 43.8556 92.1925 43.4957C92.7701 43.1312 93.4543 42.9489 94.245 42.9489C95.2488 42.9489 96.0679 43.2661 96.7024 43.9006C97.3369 44.535 97.6541 45.4607 97.6541 46.6776V54H95.076V47.0753C95.076 46.3982 94.8961 45.9034 94.5362 45.5909C94.1764 45.2737 93.736 45.1151 93.2152 45.1151C92.5949 45.1151 92.1096 45.3092 91.7592 45.6974C91.4136 46.081 91.2408 46.5805 91.2408 47.196V54H88.7195V46.9688C88.7195 46.4053 88.549 45.9555 88.2081 45.6193C87.8719 45.2831 87.4316 45.1151 86.8871 45.1151C86.5178 45.1151 86.1816 45.2098 85.8786 45.3991C85.5755 45.5838 85.334 45.8466 85.1541 46.1875C84.9742 46.5237 84.8842 46.9167 84.8842 47.3665V54H82.3132ZM107.794 47.608V54H105.223V43.0909H107.681V44.9446H107.809C108.06 44.3338 108.46 43.8485 109.009 43.4886C109.563 43.1288 110.247 42.9489 111.061 42.9489C111.814 42.9489 112.47 43.1098 113.029 43.4318C113.592 43.7538 114.028 44.2202 114.336 44.831C114.648 45.4418 114.802 46.1828 114.797 47.054V54H112.226V47.4517C112.226 46.7225 112.037 46.152 111.658 45.7401C111.284 45.3281 110.766 45.1222 110.103 45.1222C109.653 45.1222 109.253 45.2216 108.902 45.4205C108.557 45.6146 108.284 45.8963 108.086 46.2656C107.891 46.6349 107.794 47.0824 107.794 47.608ZM122.169 54.2131C121.104 54.2131 120.181 53.9787 119.4 53.5099C118.618 53.0412 118.012 52.3854 117.581 51.5426C117.155 50.6998 116.942 49.715 116.942 48.5881C116.942 47.4612 117.155 46.474 117.581 45.6264C118.012 44.7789 118.618 44.1207 119.4 43.652C120.181 43.1832 121.104 42.9489 122.169 42.9489C123.235 42.9489 124.158 43.1832 124.939 43.652C125.721 44.1207 126.324 44.7789 126.75 45.6264C127.181 46.474 127.397 47.4612 127.397 48.5881C127.397 49.715 127.181 50.6998 126.75 51.5426C126.324 52.3854 125.721 53.0412 124.939 53.5099C124.158 53.9787 123.235 54.2131 122.169 54.2131ZM122.184 52.1534C122.761 52.1534 123.244 51.9948 123.632 51.6776C124.021 51.3556 124.31 50.9247 124.499 50.3849C124.693 49.8452 124.79 49.2438 124.79 48.581C124.79 47.9134 124.693 47.3097 124.499 46.7699C124.31 46.2254 124.021 45.7921 123.632 45.4702C123.244 45.1482 122.761 44.9872 122.184 44.9872C121.592 44.9872 121.099 45.1482 120.706 45.4702C120.318 45.7921 120.027 46.2254 119.833 46.7699C119.643 47.3097 119.549 47.9134 119.549 48.581C119.549 49.2438 119.643 49.8452 119.833 50.3849C120.027 50.9247 120.318 51.3556 120.706 51.6776C121.099 51.9948 121.592 52.1534 122.184 52.1534ZM138.952 43.0909L135.067 54H132.226L128.341 43.0909H131.083L133.59 51.1946H133.703L136.218 43.0909H138.952ZM145.119 54.2131C144.053 54.2131 143.13 53.9787 142.349 53.5099C141.567 53.0412 140.961 52.3854 140.531 51.5426C140.104 50.6998 139.891 49.715 139.891 48.5881C139.891 47.4612 140.104 46.474 140.531 45.6264C140.961 44.7789 141.567 44.1207 142.349 43.652C143.13 43.1832 144.053 42.9489 145.119 42.9489C146.184 42.9489 147.107 43.1832 147.888 43.652C148.67 44.1207 149.273 44.7789 149.7 45.6264C150.13 46.474 150.346 47.4612 150.346 48.5881C150.346 49.715 150.13 50.6998 149.7 51.5426C149.273 52.3854 148.67 53.0412 147.888 53.5099C147.107 53.9787 146.184 54.2131 145.119 54.2131ZM145.133 52.1534C145.71 52.1534 146.193 51.9948 146.582 51.6776C146.97 51.3556 147.259 50.9247 147.448 50.3849C147.642 49.8452 147.739 49.2438 147.739 48.581C147.739 47.9134 147.642 47.3097 147.448 46.7699C147.259 46.2254 146.97 45.7921 146.582 45.4702C146.193 45.1482 145.71 44.9872 145.133 44.9872C144.541 44.9872 144.049 45.1482 143.656 45.4702C143.267 45.7921 142.976 46.2254 142.782 46.7699C142.593 47.3097 142.498 47.9134 142.498 48.581C142.498 49.2438 142.593 49.8452 142.782 50.3849C142.976 50.9247 143.267 51.3556 143.656 51.6776C144.049 51.9948 144.541 52.1534 145.133 52.1534ZM162.248 54.2131C161.158 54.2131 160.223 53.974 159.442 53.4957C158.666 53.0175 158.067 52.357 157.645 51.5142C157.229 50.6667 157.02 49.6913 157.02 48.5881C157.02 47.4801 157.233 46.5024 157.659 45.6548C158.086 44.8026 158.687 44.1397 159.463 43.6662C160.245 43.188 161.168 42.9489 162.233 42.9489C163.119 42.9489 163.902 43.1122 164.584 43.4389C165.271 43.7609 165.818 44.2178 166.225 44.8097C166.632 45.3968 166.864 46.0833 166.921 46.8693H164.463C164.364 46.3437 164.127 45.9058 163.753 45.5554C163.384 45.2003 162.889 45.0227 162.269 45.0227C161.743 45.0227 161.282 45.1648 160.884 45.4489C160.486 45.7282 160.176 46.1307 159.953 46.6562C159.736 47.1818 159.627 47.8116 159.627 48.5455C159.627 49.2888 159.736 49.928 159.953 50.4631C160.171 50.9934 160.477 51.4029 160.87 51.6918C161.267 51.9759 161.734 52.1179 162.269 52.1179C162.648 52.1179 162.986 52.0469 163.284 51.9048C163.587 51.758 163.841 51.5473 164.044 51.2727C164.248 50.9981 164.388 50.6643 164.463 50.2713H166.921C166.859 51.0431 166.632 51.7273 166.239 52.3239C165.846 52.9157 165.311 53.3797 164.634 53.7159C163.957 54.0473 163.161 54.2131 162.248 54.2131ZM173.79 54.2131C172.725 54.2131 171.802 53.9787 171.021 53.5099C170.239 53.0412 169.633 52.3854 169.202 51.5426C168.776 50.6998 168.563 49.715 168.563 48.5881C168.563 47.4612 168.776 46.474 169.202 45.6264C169.633 44.7789 170.239 44.1207 171.021 43.652C171.802 43.1832 172.725 42.9489 173.79 42.9489C174.856 42.9489 175.779 43.1832 176.56 43.652C177.342 44.1207 177.945 44.7789 178.371 45.6264C178.802 46.474 179.018 47.4612 179.018 48.5881C179.018 49.715 178.802 50.6998 178.371 51.5426C177.945 52.3854 177.342 53.0412 176.56 53.5099C175.779 53.9787 174.856 54.2131 173.79 54.2131ZM173.805 52.1534C174.382 52.1534 174.865 51.9948 175.254 51.6776C175.642 51.3556 175.931 50.9247 176.12 50.3849C176.314 49.8452 176.411 49.2438 176.411 48.581C176.411 47.9134 176.314 47.3097 176.12 46.7699C175.931 46.2254 175.642 45.7921 175.254 45.4702C174.865 45.1482 174.382 44.9872 173.805 44.9872C173.213 44.9872 172.72 45.1482 172.327 45.4702C171.939 45.7921 171.648 46.2254 171.454 46.7699C171.264 47.3097 171.17 47.9134 171.17 48.581C171.17 49.2438 171.264 49.8452 171.454 50.3849C171.648 50.9247 171.939 51.3556 172.327 51.6776C172.72 51.9948 173.213 52.1534 173.805 52.1534ZM183.771 47.608V54H181.2V43.0909H183.657V44.9446H183.785C184.036 44.3338 184.436 43.8485 184.985 43.4886C185.539 43.1288 186.224 42.9489 187.038 42.9489C187.791 42.9489 188.447 43.1098 189.005 43.4318C189.569 43.7538 190.004 44.2202 190.312 44.831C190.625 45.4418 190.779 46.1828 190.774 47.054V54H188.203V47.4517C188.203 46.7225 188.013 46.152 187.635 45.7401C187.261 45.3281 186.742 45.1222 186.079 45.1222C185.629 45.1222 185.229 45.2216 184.879 45.4205C184.533 45.6146 184.261 45.8963 184.062 46.2656C183.868 46.6349 183.771 47.0824 183.771 47.608ZM198.835 43.0909V45.0795H192.564V43.0909H198.835ZM194.112 40.4773H196.683V50.7188C196.683 51.0644 196.735 51.3295 196.839 51.5142C196.948 51.6941 197.09 51.8172 197.265 51.8835C197.44 51.9498 197.635 51.983 197.848 51.983C198.009 51.983 198.155 51.9711 198.288 51.9474C198.425 51.9238 198.529 51.9025 198.6 51.8835L199.034 53.8935C198.896 53.9408 198.7 53.9929 198.444 54.0497C198.193 54.1065 197.886 54.1397 197.521 54.1491C196.877 54.1681 196.297 54.071 195.781 53.858C195.265 53.6402 194.855 53.304 194.552 52.8494C194.254 52.3949 194.107 51.8267 194.112 51.1449V40.4773ZM205.697 54.2131C204.604 54.2131 203.659 53.9858 202.864 53.5312C202.073 53.072 201.464 52.4233 201.038 51.5852C200.612 50.7424 200.399 49.7505 200.399 48.6094C200.399 47.4872 200.612 46.5024 201.038 45.6548C201.469 44.8026 202.071 44.1397 202.842 43.6662C203.614 43.188 204.521 42.9489 205.562 42.9489C206.235 42.9489 206.869 43.0578 207.466 43.2756C208.067 43.4886 208.598 43.8201 209.057 44.2699C209.521 44.7197 209.885 45.2926 210.151 45.9886C210.416 46.6799 210.548 47.5038 210.548 48.4602V49.2486H201.607V47.5156H208.084C208.079 47.0232 207.973 46.5852 207.764 46.2017C207.556 45.8134 207.265 45.508 206.891 45.2855C206.521 45.063 206.09 44.9517 205.598 44.9517C205.072 44.9517 204.611 45.0795 204.213 45.3352C203.815 45.5862 203.505 45.9176 203.283 46.3295C203.065 46.7367 202.954 47.1842 202.949 47.6719V49.1847C202.949 49.8191 203.065 50.3636 203.297 50.8182C203.529 51.268 203.853 51.6136 204.27 51.8551C204.687 52.0919 205.174 52.2102 205.733 52.2102C206.107 52.2102 206.446 52.1581 206.749 52.054C207.052 51.9451 207.314 51.7865 207.537 51.5781C207.759 51.3698 207.928 51.1117 208.041 50.804L210.442 51.0739C210.29 51.7083 210.001 52.2623 209.575 52.7358C209.154 53.2045 208.614 53.5691 207.956 53.8295C207.298 54.0852 206.545 54.2131 205.697 54.2131ZM219.676 49.4119V43.0909H222.248V54H219.755V52.0611H219.641C219.395 52.6719 218.99 53.1714 218.426 53.5597C217.868 53.9479 217.179 54.142 216.36 54.142C215.645 54.142 215.013 53.9834 214.463 53.6662C213.919 53.3442 213.493 52.8778 213.185 52.267C212.877 51.6515 212.723 50.9081 212.723 50.0369V43.0909H215.294V49.6392C215.294 50.3305 215.484 50.8797 215.863 51.2869C216.241 51.6941 216.739 51.8977 217.354 51.8977C217.733 51.8977 218.1 51.8054 218.455 51.6207C218.81 51.4361 219.101 51.1615 219.328 50.7969C219.56 50.4276 219.676 49.9659 219.676 49.4119ZM216.516 41.6562L218.107 38.4105H220.621L218.441 41.6562H216.516ZM228.94 54.1918C228.083 54.1918 227.316 53.9716 226.638 53.5312C225.961 53.0909 225.426 52.4517 225.033 51.6136C224.64 50.7756 224.444 49.7576 224.444 48.5597C224.444 47.3475 224.643 46.3248 225.04 45.4915C225.443 44.6534 225.985 44.0213 226.667 43.5952C227.349 43.1643 228.109 42.9489 228.947 42.9489C229.586 42.9489 230.112 43.0578 230.523 43.2756C230.935 43.4886 231.262 43.7467 231.504 44.0497C231.745 44.348 231.932 44.6297 232.065 44.8949H232.171V39.4545H234.749V54H232.221V52.2812H232.065C231.932 52.5464 231.74 52.8281 231.489 53.1264C231.238 53.42 230.907 53.6709 230.495 53.8793C230.083 54.0876 229.565 54.1918 228.94 54.1918ZM229.657 52.0824C230.201 52.0824 230.665 51.9356 231.049 51.642C231.433 51.3437 231.724 50.9295 231.923 50.3991C232.121 49.8688 232.221 49.2509 232.221 48.5455C232.221 47.84 232.121 47.2268 231.923 46.706C231.728 46.1851 231.44 45.7803 231.056 45.4915C230.677 45.2027 230.211 45.0582 229.657 45.0582C229.084 45.0582 228.606 45.2074 228.222 45.5057C227.839 45.804 227.55 46.2159 227.356 46.7415C227.162 47.267 227.065 47.8684 227.065 48.5455C227.065 49.2273 227.162 49.8357 227.356 50.3707C227.555 50.901 227.846 51.3201 228.229 51.6278C228.618 51.9309 229.094 52.0824 229.657 52.0824ZM242.248 54.2131C241.182 54.2131 240.259 53.9787 239.478 53.5099C238.696 53.0412 238.09 52.3854 237.659 51.5426C237.233 50.6998 237.02 49.715 237.02 48.5881C237.02 47.4612 237.233 46.474 237.659 45.6264C238.09 44.7789 238.696 44.1207 239.478 43.652C240.259 43.1832 241.182 42.9489 242.248 42.9489C243.313 42.9489 244.236 43.1832 245.017 43.652C245.799 44.1207 246.402 44.7789 246.828 45.6264C247.259 46.474 247.475 47.4612 247.475 48.5881C247.475 49.715 247.259 50.6998 246.828 51.5426C246.402 52.3854 245.799 53.0412 245.017 53.5099C244.236 53.9787 243.313 54.2131 242.248 54.2131ZM242.262 52.1534C242.839 52.1534 243.322 51.9948 243.711 51.6776C244.099 51.3556 244.388 50.9247 244.577 50.3849C244.771 49.8452 244.868 49.2438 244.868 48.581C244.868 47.9134 244.771 47.3097 244.577 46.7699C244.388 46.2254 244.099 45.7921 243.711 45.4702C243.322 45.1482 242.839 44.9872 242.262 44.9872C241.67 44.9872 241.177 45.1482 240.784 45.4702C240.396 45.7921 240.105 46.2254 239.911 46.7699C239.721 47.3097 239.627 47.9134 239.627 48.581C239.627 49.2438 239.721 49.8452 239.911 50.3849C240.105 50.9247 240.396 51.3556 240.784 51.6776C241.177 51.9948 241.67 52.1534 242.262 52.1534Z" fill="#00BAC9"/>
<path d="M33.5753 70.1293H32.0241C31.9645 69.7978 31.8535 69.5062 31.6911 69.2543C31.5286 69.0024 31.3298 68.7886 31.0945 68.6129C30.8591 68.4373 30.5956 68.3047 30.304 68.2152C30.0156 68.1257 29.709 68.081 29.3842 68.081C28.7976 68.081 28.2723 68.2285 27.8082 68.5234C27.3475 68.8184 26.983 69.2509 26.7145 69.821C26.4493 70.3911 26.3168 71.0871 26.3168 71.9091C26.3168 72.7377 26.4493 73.437 26.7145 74.0071C26.983 74.5772 27.3492 75.008 27.8132 75.2997C28.2772 75.5914 28.7992 75.7372 29.3793 75.7372C29.7008 75.7372 30.0057 75.6941 30.294 75.608C30.5857 75.5185 30.8492 75.3875 31.0845 75.2152C31.3198 75.0429 31.5187 74.8324 31.6811 74.5838C31.8468 74.3319 31.9612 74.0436 32.0241 73.7188L33.5753 73.7237C33.4924 74.2242 33.3317 74.6849 33.093 75.1058C32.8577 75.5234 32.5545 75.8847 32.1832 76.1896C31.8153 76.4912 31.3944 76.7249 30.9205 76.8906C30.4465 77.0563 29.9295 77.1392 29.3693 77.1392C28.4877 77.1392 27.7022 76.9304 27.0128 76.5128C26.3234 76.0919 25.7798 75.4903 25.3821 74.7081C24.9877 73.9259 24.7905 72.9929 24.7905 71.9091C24.7905 70.822 24.9893 69.889 25.3871 69.1101C25.7848 68.3279 26.3284 67.728 27.0178 67.3104C27.7071 66.8894 28.491 66.679 29.3693 66.679C29.9096 66.679 30.4134 66.7569 30.8807 66.9126C31.3513 67.0651 31.7739 67.2905 32.1484 67.5888C32.523 67.8838 32.8329 68.245 33.0781 68.6726C33.3234 69.0968 33.4891 69.5824 33.5753 70.1293ZM38.5108 77.1541C37.7949 77.1541 37.1702 76.9901 36.6365 76.6619C36.1029 76.3338 35.6886 75.8748 35.3936 75.2848C35.0987 74.6948 34.9512 74.0054 34.9512 73.2166C34.9512 72.4245 35.0987 71.7318 35.3936 71.1385C35.6886 70.5452 36.1029 70.0845 36.6365 69.7564C37.1702 69.4283 37.7949 69.2642 38.5108 69.2642C39.2267 69.2642 39.8515 69.4283 40.3851 69.7564C40.9187 70.0845 41.333 70.5452 41.628 71.1385C41.923 71.7318 42.0705 72.4245 42.0705 73.2166C42.0705 74.0054 41.923 74.6948 41.628 75.2848C41.333 75.8748 40.9187 76.3338 40.3851 76.6619C39.8515 76.9901 39.2267 77.1541 38.5108 77.1541ZM38.5158 75.9062C38.9798 75.9062 39.3643 75.7836 39.6692 75.5384C39.9741 75.2931 40.1995 74.9666 40.3453 74.5589C40.4945 74.1513 40.5691 73.7022 40.5691 73.2116C40.5691 72.7244 40.4945 72.277 40.3453 71.8693C40.1995 71.4583 39.9741 71.1286 39.6692 70.88C39.3643 70.6314 38.9798 70.5071 38.5158 70.5071C38.0485 70.5071 37.6607 70.6314 37.3525 70.88C37.0475 71.1286 36.8205 71.4583 36.6713 71.8693C36.5255 72.277 36.4526 72.7244 36.4526 73.2116C36.4526 73.7022 36.5255 74.1513 36.6713 74.5589C36.8205 74.9666 37.0475 75.2931 37.3525 75.5384C37.6607 75.7836 38.0485 75.9062 38.5158 75.9062ZM45.2163 72.4659V77H43.7298V69.3636H45.1566V70.6065H45.2511C45.4267 70.2022 45.7018 69.8774 46.0763 69.6321C46.4542 69.3868 46.9298 69.2642 47.5032 69.2642C48.0236 69.2642 48.4793 69.3736 48.8704 69.5923C49.2615 69.8078 49.5647 70.1293 49.7802 70.5568C49.9956 70.9844 50.1033 71.513 50.1033 72.1428V77H48.6168V72.3217C48.6168 71.7682 48.4727 71.3357 48.1843 71.0241C47.896 70.7093 47.4999 70.5518 46.9961 70.5518C46.6514 70.5518 46.3448 70.6264 46.0763 70.7756C45.8112 70.9247 45.6007 71.1435 45.445 71.4318C45.2925 71.7169 45.2163 72.0616 45.2163 72.4659ZM55.6616 69.3636V70.5568H51.4904V69.3636H55.6616ZM52.609 67.5341H54.0955V74.7578C54.0955 75.0462 54.1386 75.2633 54.2248 75.4091C54.311 75.5516 54.422 75.6494 54.5579 75.7024C54.6971 75.7521 54.8479 75.777 55.0103 75.777C55.1296 75.777 55.234 75.7687 55.3235 75.7521C55.413 75.7356 55.4826 75.7223 55.5323 75.7124L55.8008 76.9403C55.7146 76.9735 55.592 77.0066 55.4329 77.0398C55.2738 77.0762 55.0749 77.0961 54.8363 77.0994C54.4452 77.1061 54.0806 77.0365 53.7425 76.8906C53.4045 76.7448 53.131 76.5194 52.9222 76.2145C52.7134 75.9096 52.609 75.5268 52.609 75.0661V67.5341ZM60.5151 77.1541C59.7627 77.1541 59.1148 76.9934 58.5712 76.6719C58.031 76.3471 57.6133 75.8913 57.3184 75.3047C57.0267 74.7147 56.8809 74.0237 56.8809 73.2315C56.8809 72.4493 57.0267 71.7599 57.3184 71.1634C57.6133 70.5668 58.0243 70.1011 58.5513 69.7663C59.0816 69.4316 59.7014 69.2642 60.4107 69.2642C60.8416 69.2642 61.2592 69.3355 61.6635 69.478C62.0679 69.6205 62.4308 69.8442 62.7523 70.1491C63.0738 70.4541 63.3274 70.8501 63.513 71.3374C63.6986 71.8213 63.7914 72.4096 63.7914 73.1023V73.6293H57.7211V72.5156H62.3347C62.3347 72.1245 62.2551 71.7782 62.0961 71.4766C61.937 71.1716 61.7132 70.9313 61.4249 70.7557C61.1399 70.58 60.8051 70.4922 60.4206 70.4922C60.003 70.4922 59.6384 70.5949 59.3269 70.8004C59.0186 71.0026 58.78 71.2678 58.611 71.5959C58.4453 71.9207 58.3624 72.2737 58.3624 72.6548V73.5249C58.3624 74.0353 58.4519 74.4695 58.6309 74.8274C58.8132 75.1854 59.0667 75.4588 59.3915 75.6477C59.7163 75.8333 60.0958 75.9261 60.53 75.9261C60.8117 75.9261 61.0686 75.8864 61.3006 75.8068C61.5326 75.724 61.7331 75.6013 61.9022 75.4389C62.0712 75.2765 62.2005 75.076 62.29 74.8374L63.6969 75.0909C63.5842 75.5052 63.382 75.8681 63.0904 76.1797C62.802 76.4879 62.4391 76.7282 62.0016 76.9006C61.5674 77.0696 61.0719 77.1541 60.5151 77.1541ZM70.2781 73.8331V69.3636H71.7695V77H70.3079V75.6776H70.2283C70.0527 76.0852 69.771 76.425 69.3832 76.6967C68.9987 76.9652 68.5198 77.0994 67.9464 77.0994C67.4558 77.0994 67.0217 76.9917 66.6438 76.7763C66.2693 76.5575 65.9743 76.2344 65.7589 75.8068C65.5468 75.3793 65.4407 74.8506 65.4407 74.2209V69.3636H66.9272V74.0419C66.9272 74.5623 67.0714 74.9766 67.3597 75.2848C67.6481 75.593 68.0226 75.7472 68.4833 75.7472C68.7617 75.7472 69.0385 75.6776 69.3136 75.5384C69.592 75.3991 69.8223 75.1887 70.0046 74.907C70.1902 74.6252 70.2814 74.2673 70.2781 73.8331ZM68.0011 68.3445L69.1644 66.0526H70.7305L69.1893 68.3445H68.0011ZM76.6255 77.1491C76.0091 77.1491 75.4589 76.9917 74.975 76.6768C74.4944 76.3587 74.1165 75.9062 73.8414 75.3196C73.5697 74.7296 73.4338 74.022 73.4338 73.1967C73.4338 72.3714 73.5713 71.6655 73.8464 71.0788C74.1248 70.4922 74.506 70.0431 74.9899 69.7315C75.4738 69.42 76.0223 69.2642 76.6355 69.2642C77.1094 69.2642 77.4906 69.3438 77.7789 69.5028C78.0706 69.6586 78.296 69.8409 78.4551 70.0497C78.6175 70.2585 78.7434 70.4425 78.8329 70.6016H78.9224V66.8182H80.4089V77H78.9572V75.8118H78.8329C78.7434 75.9742 78.6142 76.1598 78.4451 76.3686C78.2794 76.5774 78.0507 76.7597 77.7591 76.9155C77.4674 77.0713 77.0895 77.1491 76.6255 77.1491ZM76.9537 75.8814C77.3812 75.8814 77.7425 75.7687 78.0375 75.5433C78.3358 75.3146 78.5611 74.9981 78.7136 74.5938C78.8694 74.1894 78.9473 73.7187 78.9473 73.1818C78.9473 72.6515 78.871 72.1875 78.7186 71.7898C78.5661 71.392 78.3424 71.0821 78.0474 70.8601C77.7524 70.638 77.3878 70.527 76.9537 70.527C76.5062 70.527 76.1333 70.643 75.835 70.875C75.5368 71.107 75.3114 71.4235 75.1589 71.8246C75.0098 72.2256 74.9352 72.678 74.9352 73.1818C74.9352 73.6922 75.0114 74.1513 75.1639 74.5589C75.3163 74.9666 75.5417 75.2898 75.84 75.5284C76.1416 75.7637 76.5128 75.8814 76.9537 75.8814ZM85.7472 77.1541C85.0313 77.1541 84.4065 76.9901 83.8729 76.6619C83.3393 76.3338 82.925 75.8748 82.63 75.2848C82.335 74.6948 82.1875 74.0054 82.1875 73.2166C82.1875 72.4245 82.335 71.7318 82.63 71.1385C82.925 70.5452 83.3393 70.0845 83.8729 69.7564C84.4065 69.4283 85.0313 69.2642 85.7472 69.2642C86.4631 69.2642 87.0878 69.4283 87.6214 69.7564C88.1551 70.0845 88.5694 70.5452 88.8643 71.1385C89.1593 71.7318 89.3068 72.4245 89.3068 73.2166C89.3068 74.0054 89.1593 74.6948 88.8643 75.2848C88.5694 75.8748 88.1551 76.3338 87.6214 76.6619C87.0878 76.9901 86.4631 77.1541 85.7472 77.1541ZM85.7521 75.9062C86.2161 75.9062 86.6006 75.7836 86.9055 75.5384C87.2105 75.2931 87.4358 74.9666 87.5817 74.5589C87.7308 74.1513 87.8054 73.7022 87.8054 73.2116C87.8054 72.7244 87.7308 72.277 87.5817 71.8693C87.4358 71.4583 87.2105 71.1286 86.9055 70.88C86.6006 70.6314 86.2161 70.5071 85.7521 70.5071C85.2848 70.5071 84.897 70.6314 84.5888 70.88C84.2839 71.1286 84.0568 71.4583 83.9077 71.8693C83.7618 72.277 83.6889 72.7244 83.6889 73.2116C83.6889 73.7022 83.7618 74.1513 83.9077 74.5589C84.0568 74.9666 84.2839 75.2931 84.5888 75.5384C84.897 75.7836 85.2848 75.9062 85.7521 75.9062ZM96.6884 71.228L95.3411 71.4666C95.2847 71.2943 95.1953 71.1302 95.0726 70.9744C94.9533 70.8187 94.7909 70.6911 94.5854 70.5916C94.3799 70.4922 94.123 70.4425 93.8148 70.4425C93.3939 70.4425 93.0426 70.5369 92.7608 70.7259C92.4791 70.9115 92.3382 71.1518 92.3382 71.4467C92.3382 71.7019 92.4327 71.9074 92.6216 72.0632C92.8105 72.219 93.1155 72.3466 93.5364 72.446L94.7495 72.7244C95.4521 72.8868 95.9758 73.1371 96.3205 73.4751C96.6652 73.8132 96.8375 74.2524 96.8375 74.7926C96.8375 75.25 96.705 75.6577 96.4398 76.0156C96.178 76.3703 95.8117 76.6487 95.3411 76.8509C94.8738 77.053 94.3319 77.1541 93.7154 77.1541C92.8603 77.1541 92.1626 76.9718 91.6223 76.6072C91.0821 76.2393 90.7507 75.7173 90.628 75.0412L92.0648 74.8224C92.1543 75.197 92.3382 75.4804 92.6167 75.6726C92.8951 75.8615 93.258 75.956 93.7054 75.956C94.1926 75.956 94.5821 75.8549 94.8738 75.6527C95.1654 75.4472 95.3113 75.197 95.3113 74.902C95.3113 74.6634 95.2218 74.4628 95.0428 74.3004C94.8671 74.138 94.597 74.0154 94.2324 73.9325L92.9398 73.6491C92.2272 73.4867 91.7002 73.2282 91.3588 72.8736C91.0208 72.5189 90.8517 72.0698 90.8517 71.5263C90.8517 71.0755 90.9777 70.6811 91.2296 70.343C91.4815 70.005 91.8295 69.7415 92.2736 69.5526C92.7177 69.3603 93.2265 69.2642 93.7999 69.2642C94.6252 69.2642 95.2748 69.4432 95.7488 69.8011C96.2227 70.1558 96.5359 70.6314 96.6884 71.228ZM102.177 77V69.3636H103.604V70.6065H103.698C103.857 70.1856 104.118 69.8575 104.479 69.6222C104.84 69.3835 105.273 69.2642 105.776 69.2642C106.287 69.2642 106.714 69.3835 107.059 69.6222C107.407 69.8608 107.664 70.1889 107.83 70.6065H107.909C108.092 70.1989 108.382 69.8741 108.779 69.6321C109.177 69.3868 109.651 69.2642 110.201 69.2642C110.894 69.2642 111.459 69.4813 111.896 69.9155C112.337 70.3497 112.558 71.0043 112.558 71.8793V77H111.071V72.0185C111.071 71.5014 110.93 71.1269 110.649 70.8949C110.367 70.6629 110.03 70.5469 109.639 70.5469C109.155 70.5469 108.779 70.696 108.511 70.9943C108.242 71.2893 108.108 71.6688 108.108 72.1328V77H106.627V71.924C106.627 71.5097 106.497 71.1766 106.239 70.9247C105.98 70.6728 105.644 70.5469 105.23 70.5469C104.948 70.5469 104.688 70.6214 104.449 70.7706C104.214 70.9164 104.023 71.1203 103.877 71.3821C103.735 71.6439 103.664 71.9472 103.664 72.2919V77H102.177ZM116.772 77.169C116.288 77.169 115.851 77.0795 115.46 76.9006C115.069 76.7183 114.759 76.4548 114.53 76.1101C114.305 75.7654 114.192 75.3428 114.192 74.8423C114.192 74.4115 114.275 74.0568 114.441 73.7784C114.606 73.5 114.83 73.2796 115.112 73.1172C115.394 72.9548 115.708 72.8321 116.056 72.7493C116.404 72.6664 116.759 72.6035 117.12 72.5604C117.578 72.5073 117.949 72.4643 118.234 72.4311C118.519 72.3946 118.726 72.3366 118.855 72.2571C118.985 72.1776 119.049 72.0483 119.049 71.8693V71.8345C119.049 71.4003 118.927 71.0639 118.681 70.8253C118.44 70.5866 118.078 70.4673 117.598 70.4673C117.097 70.4673 116.703 70.5784 116.414 70.8004C116.129 71.0192 115.932 71.2628 115.823 71.5312L114.426 71.2131C114.592 70.7491 114.833 70.3745 115.152 70.0895C115.473 69.8011 115.843 69.5923 116.26 69.4631C116.678 69.3305 117.117 69.2642 117.578 69.2642C117.883 69.2642 118.206 69.3007 118.547 69.3736C118.892 69.4432 119.213 69.5724 119.512 69.7614C119.813 69.9503 120.06 70.2204 120.252 70.5717C120.445 70.9197 120.541 71.3722 120.541 71.929V77H119.089V75.956H119.029C118.933 76.1482 118.789 76.3371 118.597 76.5227C118.405 76.7083 118.158 76.8625 117.856 76.9851C117.555 77.1077 117.193 77.169 116.772 77.169ZM117.096 75.9759C117.507 75.9759 117.858 75.8946 118.15 75.7322C118.444 75.5698 118.668 75.3577 118.821 75.0959C118.976 74.8307 119.054 74.5473 119.054 74.2457V73.2614C119.001 73.3144 118.899 73.3641 118.746 73.4105C118.597 73.4536 118.426 73.4917 118.234 73.5249C118.042 73.5547 117.855 73.5829 117.672 73.6094C117.49 73.6326 117.337 73.6525 117.215 73.669C116.926 73.7055 116.663 73.7668 116.424 73.853C116.189 73.9392 116 74.0634 115.858 74.2259C115.718 74.3849 115.649 74.5971 115.649 74.8622C115.649 75.2301 115.785 75.5085 116.056 75.6974C116.328 75.883 116.675 75.9759 117.096 75.9759ZM124.007 72.4659V77H122.521V69.3636H123.948V70.6065H124.042C124.218 70.2022 124.493 69.8774 124.867 69.6321C125.245 69.3868 125.721 69.2642 126.294 69.2642C126.815 69.2642 127.27 69.3736 127.661 69.5923C128.052 69.8078 128.356 70.1293 128.571 70.5568C128.787 70.9844 128.894 71.513 128.894 72.1428V77H127.408V72.3217C127.408 71.7682 127.264 71.3357 126.975 71.0241C126.687 70.7093 126.291 70.5518 125.787 70.5518C125.442 70.5518 125.136 70.6264 124.867 70.7756C124.602 70.9247 124.392 71.1435 124.236 71.4318C124.084 71.7169 124.007 72.0616 124.007 72.4659ZM134.453 69.3636V70.5568H130.281V69.3636H134.453ZM131.4 67.5341H132.887V74.7578C132.887 75.0462 132.93 75.2633 133.016 75.4091C133.102 75.5516 133.213 75.6494 133.349 75.7024C133.488 75.7521 133.639 75.777 133.801 75.777C133.921 75.777 134.025 75.7687 134.115 75.7521C134.204 75.7356 134.274 75.7223 134.323 75.7124L134.592 76.9403C134.506 76.9735 134.383 77.0066 134.224 77.0398C134.065 77.0762 133.866 77.0961 133.627 77.0994C133.236 77.1061 132.872 77.0365 132.534 76.8906C132.195 76.7448 131.922 76.5194 131.713 76.2145C131.504 75.9096 131.4 75.5268 131.4 75.0661V67.5341ZM139.306 77.1541C138.554 77.1541 137.906 76.9934 137.362 76.6719C136.822 76.3471 136.404 75.8913 136.109 75.3047C135.818 74.7147 135.672 74.0237 135.672 73.2315C135.672 72.4493 135.818 71.7599 136.109 71.1634C136.404 70.5668 136.815 70.1011 137.342 69.7663C137.873 69.4316 138.492 69.2642 139.202 69.2642C139.633 69.2642 140.05 69.3355 140.455 69.478C140.859 69.6205 141.222 69.8442 141.543 70.1491C141.865 70.4541 142.118 70.8501 142.304 71.3374C142.49 71.8213 142.582 72.4096 142.582 73.1023V73.6293H136.512V72.5156H141.126C141.126 72.1245 141.046 71.7782 140.887 71.4766C140.728 71.1716 140.504 70.9313 140.216 70.7557C139.931 70.58 139.596 70.4922 139.212 70.4922C138.794 70.4922 138.429 70.5949 138.118 70.8004C137.81 71.0026 137.571 71.2678 137.402 71.5959C137.236 71.9207 137.153 72.2737 137.153 72.6548V73.5249C137.153 74.0353 137.243 74.4695 137.422 74.8274C137.604 75.1854 137.858 75.4588 138.183 75.6477C138.507 75.8333 138.887 75.9261 139.321 75.9261C139.603 75.9261 139.86 75.8864 140.092 75.8068C140.324 75.724 140.524 75.6013 140.693 75.4389C140.862 75.2765 140.991 75.076 141.081 74.8374L142.488 75.0909C142.375 75.5052 142.173 75.8681 141.881 76.1797C141.593 76.4879 141.23 76.7282 140.793 76.9006C140.358 77.0696 139.863 77.1541 139.306 77.1541ZM138.531 68.3445L139.694 66.0526H141.26L139.719 68.3445H138.531ZM144.232 77V69.3636H145.659V70.6065H145.753C145.912 70.1856 146.172 69.8575 146.534 69.6222C146.895 69.3835 147.327 69.2642 147.831 69.2642C148.342 69.2642 148.769 69.3835 149.114 69.6222C149.462 69.8608 149.719 70.1889 149.884 70.6065H149.964C150.146 70.1989 150.436 69.8741 150.834 69.6321C151.232 69.3868 151.706 69.2642 152.256 69.2642C152.949 69.2642 153.514 69.4813 153.951 69.9155C154.392 70.3497 154.612 71.0043 154.612 71.8793V77H153.126V72.0185C153.126 71.5014 152.985 71.1269 152.703 70.8949C152.422 70.6629 152.085 70.5469 151.694 70.5469C151.21 70.5469 150.834 70.696 150.566 70.9943C150.297 71.2893 150.163 71.6688 150.163 72.1328V77H148.681V71.924C148.681 71.5097 148.552 71.1766 148.294 70.9247C148.035 70.6728 147.699 70.5469 147.284 70.5469C147.003 70.5469 146.742 70.6214 146.504 70.7706C146.268 70.9164 146.078 71.1203 145.932 71.3821C145.789 71.6439 145.718 71.9472 145.718 72.2919V77H144.232ZM166.032 71.228L164.685 71.4666C164.628 71.2943 164.539 71.1302 164.416 70.9744C164.297 70.8187 164.135 70.6911 163.929 70.5916C163.724 70.4922 163.467 70.4425 163.159 70.4425C162.738 70.4425 162.386 70.5369 162.105 70.7259C161.823 70.9115 161.682 71.1518 161.682 71.4467C161.682 71.7019 161.776 71.9074 161.965 72.0632C162.154 72.219 162.459 72.3466 162.88 72.446L164.093 72.7244C164.796 72.8868 165.32 73.1371 165.664 73.4751C166.009 73.8132 166.181 74.2524 166.181 74.7926C166.181 75.25 166.049 75.6577 165.784 76.0156C165.522 76.3703 165.155 76.6487 164.685 76.8509C164.218 77.053 163.676 77.1541 163.059 77.1541C162.204 77.1541 161.506 76.9718 160.966 76.6072C160.426 76.2393 160.094 75.7173 159.972 75.0412L161.409 74.8224C161.498 75.197 161.682 75.4804 161.96 75.6726C162.239 75.8615 162.602 75.956 163.049 75.956C163.536 75.956 163.926 75.8549 164.218 75.6527C164.509 75.4472 164.655 75.197 164.655 74.902C164.655 74.6634 164.566 74.4628 164.387 74.3004C164.211 74.138 163.941 74.0154 163.576 73.9325L162.284 73.6491C161.571 73.4867 161.044 73.2282 160.703 72.8736C160.365 72.5189 160.195 72.0698 160.195 71.5263C160.195 71.0755 160.321 70.6811 160.573 70.343C160.825 70.005 161.173 69.7415 161.617 69.5526C162.061 69.3603 162.57 69.2642 163.144 69.2642C163.969 69.2642 164.619 69.4432 165.093 69.8011C165.566 70.1558 165.88 70.6314 166.032 71.228ZM171.107 77.1541C170.355 77.1541 169.707 76.9934 169.163 76.6719C168.623 76.3471 168.205 75.8913 167.91 75.3047C167.618 74.7147 167.473 74.0237 167.473 73.2315C167.473 72.4493 167.618 71.7599 167.91 71.1634C168.205 70.5668 168.616 70.1011 169.143 69.7663C169.673 69.4316 170.293 69.2642 171.002 69.2642C171.433 69.2642 171.851 69.3355 172.255 69.478C172.66 69.6205 173.023 69.8442 173.344 70.1491C173.666 70.4541 173.919 70.8501 174.105 71.3374C174.29 71.8213 174.383 72.4096 174.383 73.1023V73.6293H168.313V72.5156H172.926C172.926 72.1245 172.847 71.7782 172.688 71.4766C172.529 71.1716 172.305 70.9313 172.017 70.7557C171.732 70.58 171.397 70.4922 171.012 70.4922C170.595 70.4922 170.23 70.5949 169.919 70.8004C169.61 71.0026 169.372 71.2678 169.203 71.5959C169.037 71.9207 168.954 72.2737 168.954 72.6548V73.5249C168.954 74.0353 169.044 74.4695 169.223 74.8274C169.405 75.1854 169.658 75.4588 169.983 75.6477C170.308 75.8333 170.688 75.9261 171.122 75.9261C171.404 75.9261 171.66 75.8864 171.892 75.8068C172.124 75.724 172.325 75.6013 172.494 75.4389C172.663 75.2765 172.792 75.076 172.882 74.8374L174.289 75.0909C174.176 75.5052 173.974 75.8681 173.682 76.1797C173.394 76.4879 173.031 76.7282 172.593 76.9006C172.159 77.0696 171.664 77.1541 171.107 77.1541ZM180.87 73.8331V69.3636H182.361V77H180.9V75.6776H180.82C180.644 76.0852 180.363 76.425 179.975 76.6967C179.59 76.9652 179.112 77.0994 178.538 77.0994C178.048 77.0994 177.613 76.9917 177.236 76.7763C176.861 76.5575 176.566 76.2344 176.351 75.8068C176.139 75.3793 176.032 74.8506 176.032 74.2209V69.3636H177.519V74.0419C177.519 74.5623 177.663 74.9766 177.952 75.2848C178.24 75.593 178.614 75.7472 179.075 75.7472C179.354 75.7472 179.63 75.6776 179.905 75.5384C180.184 75.3991 180.414 75.1887 180.596 74.907C180.782 74.6252 180.873 74.2673 180.87 73.8331ZM28.2905 94.1541C27.5381 94.1541 26.8902 93.9934 26.3466 93.6719C25.8063 93.3471 25.3887 92.8913 25.0938 92.3047C24.8021 91.7147 24.6562 91.0237 24.6562 90.2315C24.6562 89.4493 24.8021 88.7599 25.0938 88.1634C25.3887 87.5668 25.7997 87.1011 26.3267 86.7663C26.857 86.4316 27.4768 86.2642 28.1861 86.2642C28.617 86.2642 29.0346 86.3355 29.4389 86.478C29.8433 86.6205 30.2062 86.8442 30.5277 87.1491C30.8492 87.4541 31.1027 87.8501 31.2884 88.3374C31.474 88.8213 31.5668 89.4096 31.5668 90.1023V90.6293H25.4964V89.5156H30.1101C30.1101 89.1245 30.0305 88.7782 29.8714 88.4766C29.7124 88.1716 29.4886 87.9313 29.2003 87.7557C28.9152 87.58 28.5805 87.4922 28.196 87.4922C27.7784 87.4922 27.4138 87.5949 27.1023 87.8004C26.794 88.0026 26.5554 88.2678 26.3864 88.5959C26.2206 88.9207 26.1378 89.2737 26.1378 89.6548V90.5249C26.1378 91.0353 26.2273 91.4695 26.4062 91.8274C26.5885 92.1854 26.8421 92.4588 27.1669 92.6477C27.4917 92.8333 27.8712 92.9261 28.3054 92.9261C28.5871 92.9261 28.844 92.8864 29.076 92.8068C29.308 92.724 29.5085 92.6013 29.6776 92.4389C29.8466 92.2765 29.9759 92.076 30.0653 91.8374L31.4723 92.0909C31.3596 92.5052 31.1574 92.8681 30.8658 93.1797C30.5774 93.4879 30.2145 93.7282 29.777 93.9006C29.3428 94.0696 28.8473 94.1541 28.2905 94.1541ZM34.7026 89.4659V94H33.2161V86.3636H34.6429V87.6065H34.7374C34.9131 87.2022 35.1882 86.8774 35.5627 86.6321C35.9405 86.3868 36.4161 86.2642 36.9895 86.2642C37.5099 86.2642 37.9656 86.3736 38.3567 86.5923C38.7478 86.8078 39.0511 87.1293 39.2665 87.5568C39.4819 87.9844 39.5897 88.513 39.5897 89.1428V94H38.1032V89.3217C38.1032 88.7682 37.959 88.3357 37.6706 88.0241C37.3823 87.7093 36.9862 87.5518 36.4824 87.5518C36.1377 87.5518 35.8311 87.6264 35.5627 87.7756C35.2975 87.9247 35.0871 88.1435 34.9313 88.4318C34.7788 88.7169 34.7026 89.0616 34.7026 89.4659ZM44.785 97.0227C44.1784 97.0227 43.6564 96.9432 43.2189 96.7841C42.7847 96.625 42.4301 96.4145 42.155 96.1527C41.8799 95.8909 41.6744 95.6042 41.5385 95.2926L42.8162 94.7656C42.9057 94.9115 43.025 95.0656 43.1742 95.228C43.3266 95.3937 43.5321 95.5346 43.7907 95.6506C44.0525 95.7666 44.3889 95.8246 44.7999 95.8246C45.3633 95.8246 45.829 95.687 46.1969 95.4119C46.5648 95.1402 46.7488 94.706 46.7488 94.1094V92.608H46.6543C46.5648 92.7704 46.4355 92.951 46.2665 93.1499C46.1008 93.3487 45.8721 93.5211 45.5804 93.6669C45.2888 93.8127 44.9093 93.8857 44.4419 93.8857C43.8387 93.8857 43.2952 93.7448 42.8113 93.4631C42.3307 93.178 41.9495 92.7588 41.6678 92.2053C41.3894 91.6484 41.2502 90.964 41.2502 90.152C41.2502 89.34 41.3877 88.6439 41.6628 88.0639C41.9412 87.4839 42.3224 87.0398 42.8063 86.7315C43.2902 86.42 43.8387 86.2642 44.4519 86.2642C44.9258 86.2642 45.3087 86.3438 45.6003 86.5028C45.892 86.6586 46.119 86.8409 46.2814 87.0497C46.4471 87.2585 46.5748 87.4425 46.6642 87.6016H46.7736V86.3636H48.2303V94.169C48.2303 94.8253 48.0778 95.3639 47.7729 95.7848C47.468 96.2057 47.0553 96.5173 46.535 96.7195C46.0179 96.9216 45.4346 97.0227 44.785 97.0227ZM44.7701 92.6527C45.1976 92.6527 45.5589 92.5533 45.8539 92.3544C46.1522 92.1522 46.3775 91.8639 46.53 91.4893C46.6858 91.1115 46.7637 90.6591 46.7637 90.1321C46.7637 89.6184 46.6874 89.166 46.535 88.7749C46.3825 88.3838 46.1588 88.0788 45.8638 87.8601C45.5688 87.638 45.2042 87.527 44.7701 87.527C44.3226 87.527 43.9498 87.643 43.6515 87.875C43.3532 88.1037 43.1278 88.4152 42.9753 88.8097C42.8262 89.2041 42.7516 89.6449 42.7516 90.1321C42.7516 90.6326 42.8278 91.0717 42.9803 91.4496C43.1328 91.8274 43.3581 92.1224 43.6564 92.3345C43.958 92.5466 44.3292 92.6527 44.7701 92.6527ZM52.4462 94.169C51.9623 94.169 51.5248 94.0795 51.1337 93.9006C50.7426 93.7183 50.4327 93.4548 50.204 93.1101C49.9786 92.7654 49.8659 92.3428 49.8659 91.8423C49.8659 91.4115 49.9488 91.0568 50.1145 90.7784C50.2802 90.5 50.504 90.2796 50.7857 90.1172C51.0674 89.9548 51.3823 89.8321 51.7303 89.7493C52.0783 89.6664 52.4329 89.6035 52.7942 89.5604C53.2516 89.5073 53.6228 89.4643 53.9078 89.4311C54.1929 89.3946 54.4 89.3366 54.5293 89.2571C54.6586 89.1776 54.7232 89.0483 54.7232 88.8693V88.8345C54.7232 88.4003 54.6006 88.0639 54.3553 87.8253C54.1133 87.5866 53.7521 87.4673 53.2715 87.4673C52.771 87.4673 52.3766 87.5784 52.0882 87.8004C51.8032 88.0192 51.606 88.2628 51.4966 88.5312L50.0996 88.2131C50.2653 87.7491 50.5073 87.3745 50.8255 87.0895C51.147 86.8011 51.5165 86.5923 51.9341 86.4631C52.3517 86.3305 52.7909 86.2642 53.2516 86.2642C53.5565 86.2642 53.8797 86.3007 54.2211 86.3736C54.5658 86.4432 54.8873 86.5724 55.1855 86.7614C55.4872 86.9503 55.7341 87.2204 55.9263 87.5717C56.1185 87.9197 56.2147 88.3722 56.2147 88.929V94H54.763V92.956H54.7033C54.6072 93.1482 54.463 93.3371 54.2708 93.5227C54.0785 93.7083 53.8316 93.8625 53.53 93.9851C53.2284 94.1077 52.8671 94.169 52.4462 94.169ZM52.7694 92.9759C53.1803 92.9759 53.5317 92.8946 53.8233 92.7322C54.1183 92.5698 54.342 92.3577 54.4945 92.0959C54.6503 91.8307 54.7282 91.5473 54.7282 91.2457V90.2614C54.6751 90.3144 54.5724 90.3641 54.4199 90.4105C54.2708 90.4536 54.1001 90.4917 53.9078 90.5249C53.7156 90.5547 53.5284 90.5829 53.3461 90.6094C53.1638 90.6326 53.0113 90.6525 52.8887 90.669C52.6003 90.7055 52.3368 90.7668 52.0982 90.853C51.8629 90.9392 51.6739 91.0634 51.5314 91.2259C51.3922 91.3849 51.3226 91.5971 51.3226 91.8622C51.3226 92.2301 51.4585 92.5085 51.7303 92.6974C52.0021 92.883 52.3484 92.9759 52.7694 92.9759ZM58.1946 86.3636H59.6811V94.4972C59.6811 95.0076 59.5883 95.4384 59.4027 95.7898C59.2204 96.1411 58.9486 96.4079 58.5874 96.5902C58.2294 96.7725 57.7869 96.8636 57.2599 96.8636C57.2069 96.8636 57.1572 96.8636 57.1108 96.8636C57.0611 96.8636 57.0097 96.862 56.9567 96.8587V95.581C57.0031 95.581 57.0445 95.581 57.081 95.581C57.1141 95.581 57.1522 95.581 57.1953 95.581C57.5466 95.581 57.8002 95.4865 57.956 95.2976C58.1151 95.112 58.1946 94.8419 58.1946 94.4872V86.3636ZM58.9304 85.1854C58.6719 85.1854 58.4498 85.0992 58.2642 84.9268C58.0819 84.7512 57.9908 84.5424 57.9908 84.3004C57.9908 84.0552 58.0819 83.8464 58.2642 83.674C58.4498 83.4983 58.6719 83.4105 58.9304 83.4105C59.1889 83.4105 59.4093 83.4983 59.5916 83.674C59.7772 83.8464 59.87 84.0552 59.87 84.3004C59.87 84.5424 59.7772 84.7512 59.5916 84.9268C59.4093 85.0992 59.1889 85.1854 58.9304 85.1854ZM63.9032 94.169C63.4193 94.169 62.9818 94.0795 62.5907 93.9006C62.1996 93.7183 61.8897 93.4548 61.661 93.1101C61.4357 92.7654 61.323 92.3428 61.323 91.8423C61.323 91.4115 61.4058 91.0568 61.5716 90.7784C61.7373 90.5 61.961 90.2796 62.2427 90.1172C62.5244 89.9548 62.8393 89.8321 63.1873 89.7493C63.5353 89.6664 63.89 89.6035 64.2512 89.5604C64.7086 89.5073 65.0798 89.4643 65.3649 89.4311C65.6499 89.3946 65.8571 89.3366 65.9863 89.2571C66.1156 89.1776 66.1802 89.0483 66.1802 88.8693V88.8345C66.1802 88.4003 66.0576 88.0639 65.8123 87.8253C65.5704 87.5866 65.2091 87.4673 64.7285 87.4673C64.228 87.4673 63.8336 87.5784 63.5453 87.8004C63.2602 88.0192 63.063 88.2628 62.9537 88.5312L61.5566 88.2131C61.7224 87.7491 61.9643 87.3745 62.2825 87.0895C62.604 86.8011 62.9735 86.5923 63.3912 86.4631C63.8088 86.3305 64.2479 86.2642 64.7086 86.2642C65.0136 86.2642 65.3367 86.3007 65.6781 86.3736C66.0228 86.4432 66.3443 86.5724 66.6426 86.7614C66.9442 86.9503 67.1911 87.2204 67.3833 87.5717C67.5756 87.9197 67.6717 88.3722 67.6717 88.929V94H66.22V92.956H66.1603C66.0642 93.1482 65.92 93.3371 65.7278 93.5227C65.5356 93.7083 65.2886 93.8625 64.987 93.9851C64.6854 94.1077 64.3242 94.169 63.9032 94.169ZM64.2264 92.9759C64.6374 92.9759 64.9887 92.8946 65.2804 92.7322C65.5753 92.5698 65.7991 92.3577 65.9515 92.0959C66.1073 91.8307 66.1852 91.5473 66.1852 91.2457V90.2614C66.1322 90.3144 66.0294 90.3641 65.877 90.4105C65.7278 90.4536 65.5571 90.4917 65.3649 90.5249C65.1726 90.5547 64.9854 90.5829 64.8031 90.6094C64.6208 90.6326 64.4683 90.6525 64.3457 90.669C64.0574 90.7055 63.7939 90.7668 63.5552 90.853C63.3199 90.9392 63.131 91.0634 62.9885 91.2259C62.8493 91.3849 62.7797 91.5971 62.7797 91.8622C62.7797 92.2301 62.9155 92.5085 63.1873 92.6974C63.4591 92.883 63.8055 92.9759 64.2264 92.9759ZM69.6516 94V86.3636H71.0785V87.6065H71.1729C71.332 87.1856 71.5922 86.8575 71.9535 86.6222C72.3147 86.3835 72.7473 86.2642 73.2511 86.2642C73.7615 86.2642 74.189 86.3835 74.5337 86.6222C74.8817 86.8608 75.1386 87.1889 75.3043 87.6065H75.3839C75.5662 87.1989 75.8562 86.8741 76.2539 86.6321C76.6516 86.3868 77.1256 86.2642 77.6758 86.2642C78.3685 86.2642 78.9336 86.4813 79.3711 86.9155C79.8119 87.3497 80.0323 88.0043 80.0323 88.8793V94H78.5458V89.0185C78.5458 88.5014 78.4049 88.1269 78.1232 87.8949C77.8415 87.6629 77.5051 87.5469 77.114 87.5469C76.6301 87.5469 76.2539 87.696 75.9854 87.9943C75.717 88.2893 75.5827 88.6688 75.5827 89.1328V94H74.1012V88.924C74.1012 88.5097 73.9719 88.1766 73.7134 87.9247C73.4549 87.6728 73.1185 87.5469 72.7042 87.5469C72.4225 87.5469 72.1623 87.6214 71.9237 87.7706C71.6883 87.9164 71.4978 88.1203 71.3519 88.3821C71.2094 88.6439 71.1381 88.9472 71.1381 89.2919V94H69.6516ZM85.3159 94.1541C84.5635 94.1541 83.9155 93.9934 83.372 93.6719C82.8317 93.3471 82.4141 92.8913 82.1191 92.3047C81.8275 91.7147 81.6816 91.0237 81.6816 90.2315C81.6816 89.4493 81.8275 88.7599 82.1191 88.1634C82.4141 87.5668 82.8251 87.1011 83.3521 86.7663C83.8824 86.4316 84.5022 86.2642 85.2115 86.2642C85.6423 86.2642 86.06 86.3355 86.4643 86.478C86.8687 86.6205 87.2316 86.8442 87.5531 87.1491C87.8746 87.4541 88.1281 87.8501 88.3137 88.3374C88.4993 88.8213 88.5922 89.4096 88.5922 90.1023V90.6293H82.5218V89.5156H87.1355C87.1355 89.1245 87.0559 88.7782 86.8968 88.4766C86.7377 88.1716 86.514 87.9313 86.2257 87.7557C85.9406 87.58 85.6059 87.4922 85.2214 87.4922C84.8038 87.4922 84.4392 87.5949 84.1277 87.8004C83.8194 88.0026 83.5808 88.2678 83.4118 88.5959C83.246 88.9207 83.1632 89.2737 83.1632 89.6548V90.5249C83.1632 91.0353 83.2527 91.4695 83.4316 91.8274C83.6139 92.1854 83.8675 92.4588 84.1923 92.6477C84.5171 92.8333 84.8966 92.9261 85.3308 92.9261C85.6125 92.9261 85.8694 92.8864 86.1014 92.8068C86.3334 92.724 86.5339 92.6013 86.7029 92.4389C86.872 92.2765 87.0012 92.076 87.0907 91.8374L88.4977 92.0909C88.385 92.5052 88.1828 92.8681 87.8912 93.1797C87.6028 93.4879 87.2399 93.7282 86.8024 93.9006C86.3682 94.0696 85.8727 94.1541 85.3159 94.1541ZM91.728 89.4659V94H90.2415V86.3636H91.6683V87.6065H91.7628C91.9384 87.2022 92.2135 86.8774 92.5881 86.6321C92.9659 86.3868 93.4415 86.2642 94.0149 86.2642C94.5353 86.2642 94.991 86.3736 95.3821 86.5923C95.7732 86.8078 96.0765 87.1293 96.2919 87.5568C96.5073 87.9844 96.6151 88.513 96.6151 89.1428V94H95.1286V89.3217C95.1286 88.7682 94.9844 88.3357 94.696 88.0241C94.4077 87.7093 94.0116 87.5518 93.5078 87.5518C93.1631 87.5518 92.8565 87.6264 92.5881 87.7756C92.3229 87.9247 92.1125 88.1435 91.9567 88.4318C91.8042 88.7169 91.728 89.0616 91.728 89.4659ZM102.173 86.3636V87.5568H98.0021V86.3636H102.173ZM99.1207 84.5341H100.607V91.7578C100.607 92.0462 100.65 92.2633 100.737 92.4091C100.823 92.5516 100.934 92.6494 101.07 92.7024C101.209 92.7521 101.36 92.777 101.522 92.777C101.641 92.777 101.746 92.7687 101.835 92.7521C101.925 92.7356 101.994 92.7223 102.044 92.7124L102.312 93.9403C102.226 93.9735 102.104 94.0066 101.945 94.0398C101.786 94.0762 101.587 94.0961 101.348 94.0994C100.957 94.1061 100.592 94.0365 100.254 93.8906C99.9162 93.7448 99.6428 93.5194 99.4339 93.2145C99.2251 92.9096 99.1207 92.5268 99.1207 92.0661V84.5341ZM106.952 94.1541C106.236 94.1541 105.612 93.9901 105.078 93.6619C104.544 93.3338 104.13 92.8748 103.835 92.2848C103.54 91.6948 103.393 91.0054 103.393 90.2166C103.393 89.4245 103.54 88.7318 103.835 88.1385C104.13 87.5452 104.544 87.0845 105.078 86.7564C105.612 86.4283 106.236 86.2642 106.952 86.2642C107.668 86.2642 108.293 86.4283 108.827 86.7564C109.36 87.0845 109.774 87.5452 110.069 88.1385C110.364 88.7318 110.512 89.4245 110.512 90.2166C110.512 91.0054 110.364 91.6948 110.069 92.2848C109.774 92.8748 109.36 93.3338 108.827 93.6619C108.293 93.9901 107.668 94.1541 106.952 94.1541ZM106.957 92.9062C107.421 92.9062 107.806 92.7836 108.111 92.5384C108.416 92.2931 108.641 91.9666 108.787 91.5589C108.936 91.1513 109.01 90.7022 109.01 90.2116C109.01 89.7244 108.936 89.277 108.787 88.8693C108.641 88.4583 108.416 88.1286 108.111 87.88C107.806 87.6314 107.421 87.5071 106.957 87.5071C106.49 87.5071 106.102 87.6314 105.794 87.88C105.489 88.1286 105.262 88.4583 105.113 88.8693C104.967 89.277 104.894 89.7244 104.894 90.2116C104.894 90.7022 104.967 91.1513 105.113 91.5589C105.262 91.9666 105.489 92.2931 105.794 92.5384C106.102 92.7836 106.49 92.9062 106.957 92.9062ZM117.363 89.4659V94H115.876V86.3636H117.303V87.6065H117.398C117.573 87.2022 117.848 86.8774 118.223 86.6321C118.601 86.3868 119.076 86.2642 119.65 86.2642C120.17 86.2642 120.626 86.3736 121.017 86.5923C121.408 86.8078 121.711 87.1293 121.927 87.5568C122.142 87.9844 122.25 88.513 122.25 89.1428V94H120.763V89.3217C120.763 88.7682 120.619 88.3357 120.331 88.0241C120.042 87.7093 119.646 87.5518 119.143 87.5518C118.798 87.5518 118.491 87.6264 118.223 87.7756C117.958 87.9247 117.747 88.1435 117.591 88.4318C117.439 88.7169 117.363 89.0616 117.363 89.4659ZM126.466 94.169C125.982 94.169 125.544 94.0795 125.153 93.9006C124.762 93.7183 124.452 93.4548 124.224 93.1101C123.998 92.7654 123.885 92.3428 123.885 91.8423C123.885 91.4115 123.968 91.0568 124.134 90.7784C124.3 90.5 124.523 90.2796 124.805 90.1172C125.087 89.9548 125.402 89.8321 125.75 89.7493C126.098 89.6664 126.452 89.6035 126.814 89.5604C127.271 89.5073 127.642 89.4643 127.927 89.4311C128.212 89.3946 128.42 89.3366 128.549 89.2571C128.678 89.1776 128.743 89.0483 128.743 88.8693V88.8345C128.743 88.4003 128.62 88.0639 128.375 87.8253C128.133 87.5866 127.772 87.4673 127.291 87.4673C126.791 87.4673 126.396 87.5784 126.108 87.8004C125.823 88.0192 125.626 88.2628 125.516 88.5312L124.119 88.2131C124.285 87.7491 124.527 87.3745 124.845 87.0895C125.166 86.8011 125.536 86.5923 125.954 86.4631C126.371 86.3305 126.81 86.2642 127.271 86.2642C127.576 86.2642 127.899 86.3007 128.241 86.3736C128.585 86.4432 128.907 86.5724 129.205 86.7614C129.507 86.9503 129.754 87.2204 129.946 87.5717C130.138 87.9197 130.234 88.3722 130.234 88.929V94H128.782V92.956H128.723C128.627 93.1482 128.483 93.3371 128.29 93.5227C128.098 93.7083 127.851 93.8625 127.55 93.9851C127.248 94.1077 126.887 94.169 126.466 94.169ZM126.789 92.9759C127.2 92.9759 127.551 92.8946 127.843 92.7322C128.138 92.5698 128.362 92.3577 128.514 92.0959C128.67 91.8307 128.748 91.5473 128.748 91.2457V90.2614C128.695 90.3144 128.592 90.3641 128.439 90.4105C128.29 90.4536 128.12 90.4917 127.927 90.5249C127.735 90.5547 127.548 90.5829 127.366 90.6094C127.183 90.6326 127.031 90.6525 126.908 90.669C126.62 90.7055 126.356 90.7668 126.118 90.853C125.882 90.9392 125.693 91.0634 125.551 91.2259C125.412 91.3849 125.342 91.5971 125.342 91.8622C125.342 92.2301 125.478 92.5085 125.75 92.6974C126.022 92.883 126.368 92.9759 126.789 92.9759ZM135.919 96.8636V86.3636H137.371V87.6016H137.495C137.581 87.4425 137.706 87.2585 137.868 87.0497C138.03 86.8409 138.256 86.6586 138.544 86.5028C138.833 86.3438 139.214 86.2642 139.688 86.2642C140.304 86.2642 140.854 86.42 141.338 86.7315C141.822 87.0431 142.202 87.4922 142.477 88.0788C142.755 88.6655 142.894 89.3714 142.894 90.1967C142.894 91.022 142.757 91.7296 142.482 92.3196C142.207 92.9062 141.829 93.3587 141.348 93.6768C140.868 93.9917 140.319 94.1491 139.703 94.1491C139.239 94.1491 138.859 94.0713 138.564 93.9155C138.272 93.7597 138.044 93.5774 137.878 93.3686C137.712 93.1598 137.585 92.9742 137.495 92.8118H137.406V96.8636H135.919ZM137.376 90.1818C137.376 90.7187 137.454 91.1894 137.61 91.5938C137.765 91.9981 137.991 92.3146 138.286 92.5433C138.581 92.7687 138.942 92.8814 139.369 92.8814C139.814 92.8814 140.185 92.7637 140.483 92.5284C140.781 92.2898 141.007 91.9666 141.159 91.5589C141.315 91.1513 141.393 90.6922 141.393 90.1818C141.393 89.678 141.317 89.2256 141.164 88.8246C141.015 88.4235 140.79 88.107 140.488 87.875C140.19 87.643 139.817 87.527 139.369 87.527C138.939 87.527 138.574 87.638 138.276 87.8601C137.981 88.0821 137.757 88.392 137.605 88.7898C137.452 89.1875 137.376 89.6515 137.376 90.1818ZM146.046 83.8182V94H144.56V83.8182H146.046ZM150.268 94.169C149.785 94.169 149.347 94.0795 148.956 93.9006C148.565 93.7183 148.255 93.4548 148.026 93.1101C147.801 92.7654 147.688 92.3428 147.688 91.8423C147.688 91.4115 147.771 91.0568 147.937 90.7784C148.103 90.5 148.326 90.2796 148.608 90.1172C148.89 89.9548 149.205 89.8321 149.553 89.7493C149.901 89.6664 150.255 89.6035 150.616 89.5604C151.074 89.5073 151.445 89.4643 151.73 89.4311C152.015 89.3946 152.222 89.3366 152.352 89.2571C152.481 89.1776 152.545 89.0483 152.545 88.8693V88.8345C152.545 88.4003 152.423 88.0639 152.178 87.8253C151.936 87.5866 151.574 87.4673 151.094 87.4673C150.593 87.4673 150.199 87.5784 149.911 87.8004C149.625 88.0192 149.428 88.2628 149.319 88.5312L147.922 88.2131C148.088 87.7491 148.33 87.3745 148.648 87.0895C148.969 86.8011 149.339 86.5923 149.756 86.4631C150.174 86.3305 150.613 86.2642 151.074 86.2642C151.379 86.2642 151.702 86.3007 152.043 86.3736C152.388 86.4432 152.71 86.5724 153.008 86.7614C153.309 86.9503 153.556 87.2204 153.749 87.5717C153.941 87.9197 154.037 88.3722 154.037 88.929V94H152.585V92.956H152.526C152.429 93.1482 152.285 93.3371 152.093 93.5227C151.901 93.7083 151.654 93.8625 151.352 93.9851C151.051 94.1077 150.689 94.169 150.268 94.169ZM150.592 92.9759C151.003 92.9759 151.354 92.8946 151.646 92.7322C151.941 92.5698 152.164 92.3577 152.317 92.0959C152.473 91.8307 152.55 91.5473 152.55 91.2457V90.2614C152.497 90.3144 152.395 90.3641 152.242 90.4105C152.093 90.4536 151.922 90.4917 151.73 90.5249C151.538 90.5547 151.351 90.5829 151.168 90.6094C150.986 90.6326 150.834 90.6525 150.711 90.669C150.423 90.7055 150.159 90.7668 149.92 90.853C149.685 90.9392 149.496 91.0634 149.354 91.2259C149.214 91.3849 149.145 91.5971 149.145 91.8622C149.145 92.2301 149.281 92.5085 149.553 92.6974C149.824 92.883 150.171 92.9759 150.592 92.9759ZM159.581 86.3636V87.5568H155.41V86.3636H159.581ZM156.529 84.5341H158.015V91.7578C158.015 92.0462 158.059 92.2633 158.145 92.4091C158.231 92.5516 158.342 92.6494 158.478 92.7024C158.617 92.7521 158.768 92.777 158.93 92.777C159.05 92.777 159.154 92.7687 159.243 92.7521C159.333 92.7356 159.403 92.7223 159.452 92.7124L159.721 93.9403C159.635 93.9735 159.512 94.0066 159.353 94.0398C159.194 94.0762 158.995 94.0961 158.756 94.0994C158.365 94.1061 158.001 94.0365 157.662 93.8906C157.324 93.7448 157.051 93.5194 156.842 93.2145C156.633 92.9096 156.529 92.5268 156.529 92.0661V84.5341ZM163.448 94.169C162.964 94.169 162.527 94.0795 162.136 93.9006C161.745 93.7183 161.435 93.4548 161.206 93.1101C160.981 92.7654 160.868 92.3428 160.868 91.8423C160.868 91.4115 160.951 91.0568 161.116 90.7784C161.282 90.5 161.506 90.2796 161.788 90.1172C162.069 89.9548 162.384 89.8321 162.732 89.7493C163.08 89.6664 163.435 89.6035 163.796 89.5604C164.254 89.5073 164.625 89.4643 164.91 89.4311C165.195 89.3946 165.402 89.3366 165.531 89.2571C165.661 89.1776 165.725 89.0483 165.725 88.8693V88.8345C165.725 88.4003 165.603 88.0639 165.357 87.8253C165.115 87.5866 164.754 87.4673 164.273 87.4673C163.773 87.4673 163.379 87.5784 163.09 87.8004C162.805 88.0192 162.608 88.2628 162.499 88.5312L161.102 88.2131C161.267 87.7491 161.509 87.3745 161.827 87.0895C162.149 86.8011 162.518 86.5923 162.936 86.4631C163.354 86.3305 163.793 86.2642 164.254 86.2642C164.558 86.2642 164.882 86.3007 165.223 86.3736C165.568 86.4432 165.889 86.5724 166.188 86.7614C166.489 86.9503 166.736 87.2204 166.928 87.5717C167.121 87.9197 167.217 88.3722 167.217 88.929V94H165.765V92.956H165.705C165.609 93.1482 165.465 93.3371 165.273 93.5227C165.08 93.7083 164.834 93.8625 164.532 93.9851C164.23 94.1077 163.869 94.169 163.448 94.169ZM163.771 92.9759C164.182 92.9759 164.534 92.8946 164.825 92.7322C165.12 92.5698 165.344 92.3577 165.496 92.0959C165.652 91.8307 165.73 91.5473 165.73 91.2457V90.2614C165.677 90.3144 165.574 90.3641 165.422 90.4105C165.273 90.4536 165.102 90.4917 164.91 90.5249C164.718 90.5547 164.53 90.5829 164.348 90.6094C164.166 90.6326 164.013 90.6525 163.891 90.669C163.602 90.7055 163.339 90.7668 163.1 90.853C162.865 90.9392 162.676 91.0634 162.533 91.2259C162.394 91.3849 162.325 91.5971 162.325 91.8622C162.325 92.2301 162.46 92.5085 162.732 92.6974C163.004 92.883 163.35 92.9759 163.771 92.9759ZM172.831 86.3636V87.5568H168.515V86.3636H172.831ZM169.699 94V85.4787C169.699 85.0014 169.803 84.6053 170.012 84.2905C170.221 83.9723 170.497 83.7353 170.842 83.5795C171.187 83.4205 171.561 83.3409 171.966 83.3409C172.264 83.3409 172.519 83.3658 172.731 83.4155C172.943 83.4619 173.101 83.505 173.204 83.5447L172.856 84.7479C172.786 84.728 172.697 84.7048 172.587 84.6783C172.478 84.6484 172.345 84.6335 172.189 84.6335C171.828 84.6335 171.57 84.723 171.414 84.902C171.261 85.081 171.185 85.3395 171.185 85.6776V94H169.699ZM177.28 94.1541C176.564 94.1541 175.94 93.9901 175.406 93.6619C174.872 93.3338 174.458 92.8748 174.163 92.2848C173.868 91.6948 173.721 91.0054 173.721 90.2166C173.721 89.4245 173.868 88.7318 174.163 88.1385C174.458 87.5452 174.872 87.0845 175.406 86.7564C175.94 86.4283 176.564 86.2642 177.28 86.2642C177.996 86.2642 178.621 86.4283 179.155 86.7564C179.688 87.0845 180.103 87.5452 180.398 88.1385C180.693 88.7318 180.84 89.4245 180.84 90.2166C180.84 91.0054 180.693 91.6948 180.398 92.2848C180.103 92.8748 179.688 93.3338 179.155 93.6619C178.621 93.9901 177.996 94.1541 177.28 94.1541ZM177.285 92.9062C177.749 92.9062 178.134 92.7836 178.439 92.5384C178.744 92.2931 178.969 91.9666 179.115 91.5589C179.264 91.1513 179.339 90.7022 179.339 90.2116C179.339 89.7244 179.264 89.277 179.115 88.8693C178.969 88.4583 178.744 88.1286 178.439 87.88C178.134 87.6314 177.749 87.5071 177.285 87.5071C176.818 87.5071 176.43 87.6314 176.122 87.88C175.817 88.1286 175.59 88.4583 175.441 88.8693C175.295 89.277 175.222 89.7244 175.222 90.2116C175.222 90.7022 175.295 91.1513 175.441 91.5589C175.59 91.9666 175.817 92.2931 176.122 92.5384C176.43 92.7836 176.818 92.9062 177.285 92.9062ZM182.499 94V86.3636H183.936V87.5767H184.016C184.155 87.1657 184.4 86.8426 184.751 86.6072C185.106 86.3686 185.507 86.2493 185.955 86.2493C186.047 86.2493 186.157 86.2526 186.283 86.2592C186.412 86.2659 186.513 86.2741 186.586 86.2841V87.706C186.526 87.6894 186.42 87.6712 186.268 87.6513C186.115 87.6281 185.963 87.6165 185.81 87.6165C185.459 87.6165 185.146 87.6911 184.871 87.8402C184.599 87.986 184.384 88.1899 184.224 88.4517C184.065 88.7102 183.986 89.0052 183.986 89.3366V94H182.499ZM187.872 94V86.3636H189.299V87.6065H189.394C189.553 87.1856 189.813 86.8575 190.174 86.6222C190.535 86.3835 190.968 86.2642 191.472 86.2642C191.982 86.2642 192.41 86.3835 192.754 86.6222C193.102 86.8608 193.359 87.1889 193.525 87.6065H193.605C193.787 87.1989 194.077 86.8741 194.475 86.6321C194.872 86.3868 195.346 86.2642 195.896 86.2642C196.589 86.2642 197.154 86.4813 197.592 86.9155C198.033 87.3497 198.253 88.0043 198.253 88.8793V94H196.767V89.0185C196.767 88.5014 196.626 88.1269 196.344 87.8949C196.062 87.6629 195.726 87.5469 195.335 87.5469C194.851 87.5469 194.475 87.696 194.206 87.9943C193.938 88.2893 193.803 88.6688 193.803 89.1328V94H192.322V88.924C192.322 88.5097 192.193 88.1766 191.934 87.9247C191.676 87.6728 191.339 87.5469 190.925 87.5469C190.643 87.5469 190.383 87.6214 190.144 87.7706C189.909 87.9164 189.718 88.1203 189.573 88.3821C189.43 88.6439 189.359 88.9472 189.359 89.2919V94H187.872ZM202.468 94.169C201.984 94.169 201.546 94.0795 201.155 93.9006C200.764 93.7183 200.454 93.4548 200.225 93.1101C200 92.7654 199.887 92.3428 199.887 91.8423C199.887 91.4115 199.97 91.0568 200.136 90.7784C200.302 90.5 200.525 90.2796 200.807 90.1172C201.089 89.9548 201.404 89.8321 201.752 89.7493C202.1 89.6664 202.454 89.6035 202.816 89.5604C203.273 89.5073 203.644 89.4643 203.929 89.4311C204.214 89.3946 204.422 89.3366 204.551 89.2571C204.68 89.1776 204.745 89.0483 204.745 88.8693V88.8345C204.745 88.4003 204.622 88.0639 204.377 87.8253C204.135 87.5866 203.774 87.4673 203.293 87.4673C202.792 87.4673 202.398 87.5784 202.11 87.8004C201.825 88.0192 201.627 88.2628 201.518 88.5312L200.121 88.2131C200.287 87.7491 200.529 87.3745 200.847 87.0895C201.168 86.8011 201.538 86.5923 201.956 86.4631C202.373 86.3305 202.812 86.2642 203.273 86.2642C203.578 86.2642 203.901 86.3007 204.243 86.3736C204.587 86.4432 204.909 86.5724 205.207 86.7614C205.509 86.9503 205.756 87.2204 205.948 87.5717C206.14 87.9197 206.236 88.3722 206.236 88.929V94H204.784V92.956H204.725C204.629 93.1482 204.484 93.3371 204.292 93.5227C204.1 93.7083 203.853 93.8625 203.551 93.9851C203.25 94.1077 202.889 94.169 202.468 94.169ZM202.791 92.9759C203.202 92.9759 203.553 92.8946 203.845 92.7322C204.14 92.5698 204.364 92.3577 204.516 92.0959C204.672 91.8307 204.75 91.5473 204.75 91.2457V90.2614C204.697 90.3144 204.594 90.3641 204.441 90.4105C204.292 90.4536 204.122 90.4917 203.929 90.5249C203.737 90.5547 203.55 90.5829 203.368 90.6094C203.185 90.6326 203.033 90.6525 202.91 90.669C202.622 90.7055 202.358 90.7668 202.12 90.853C201.884 90.9392 201.695 91.0634 201.553 91.2259C201.414 91.3849 201.344 91.5971 201.344 91.8622C201.344 92.2301 201.48 92.5085 201.752 92.6974C202.024 92.883 202.37 92.9759 202.791 92.9759ZM209.195 94.0945C208.924 94.0945 208.69 93.9983 208.494 93.8061C208.299 93.6106 208.201 93.3752 208.201 93.1001C208.201 92.8284 208.299 92.5964 208.494 92.4041C208.69 92.2086 208.924 92.1108 209.195 92.1108C209.467 92.1108 209.701 92.2086 209.896 92.4041C210.092 92.5964 210.19 92.8284 210.19 93.1001C210.19 93.2824 210.143 93.4498 210.051 93.6023C209.961 93.7514 209.842 93.8707 209.693 93.9602C209.544 94.0497 209.378 94.0945 209.195 94.0945Z" fill="#7CDDE1"/>
<path d="M32.8913 163.62H31.451C31.3956 163.312 31.2925 163.041 31.1417 162.808C30.9909 162.574 30.8062 162.375 30.5877 162.212C30.3692 162.049 30.1245 161.926 29.8537 161.843C29.5859 161.76 29.3013 161.718 28.9996 161.718C28.4549 161.718 27.9671 161.855 27.5362 162.129C27.1084 162.403 26.7699 162.804 26.5206 163.334C26.2744 163.863 26.1513 164.509 26.1513 165.273C26.1513 166.042 26.2744 166.692 26.5206 167.221C26.7699 167.75 27.11 168.15 27.5408 168.421C27.9717 168.692 28.4564 168.827 28.995 168.827C29.2936 168.827 29.5767 168.787 29.8445 168.707C30.1153 168.624 30.36 168.503 30.5785 168.343C30.797 168.183 30.9817 167.987 31.1325 167.756C31.2863 167.522 31.3925 167.255 31.451 166.953L32.8913 166.958C32.8144 167.422 32.6651 167.85 32.4435 168.241C32.225 168.629 31.9434 168.964 31.5987 169.248C31.2571 169.528 30.8662 169.745 30.4261 169.898C29.986 170.052 29.5059 170.129 28.9858 170.129C28.1671 170.129 27.4377 169.935 26.7976 169.548C26.1574 169.157 25.6527 168.598 25.2834 167.872C24.9171 167.145 24.734 166.279 24.734 165.273C24.734 164.263 24.9187 163.397 25.288 162.674C25.6573 161.947 26.1621 161.39 26.8022 161.002C27.4424 160.612 28.1702 160.416 28.9858 160.416C29.4875 160.416 29.9553 160.489 30.3892 160.633C30.8262 160.775 31.2186 160.984 31.5664 161.261C31.9142 161.535 32.2019 161.87 32.4297 162.267C32.6574 162.661 32.8113 163.112 32.8913 163.62ZM34.4875 170V162.909H35.8216V164.036H35.8955C36.0248 163.654 36.2525 163.354 36.5787 163.135C36.9081 162.914 37.2805 162.803 37.6959 162.803C37.7821 162.803 37.8837 162.806 38.0006 162.812C38.1206 162.818 38.2145 162.826 38.2822 162.835V164.156C38.2268 164.14 38.1283 164.123 37.9868 164.105C37.8452 164.083 37.7036 164.072 37.5621 164.072C37.2358 164.072 36.945 164.142 36.6895 164.28C36.4372 164.416 36.2371 164.605 36.0894 164.848C35.9417 165.088 35.8678 165.362 35.8678 165.67V170H34.4875ZM39.4767 170V162.909H40.8571V170H39.4767ZM40.1738 161.815C39.9338 161.815 39.7276 161.735 39.5552 161.575C39.3859 161.412 39.3013 161.218 39.3013 160.993C39.3013 160.766 39.3859 160.572 39.5552 160.412C39.7276 160.248 39.9338 160.167 40.1738 160.167C40.4139 160.167 40.6185 160.248 40.7878 160.412C40.9602 160.572 41.0463 160.766 41.0463 160.993C41.0463 161.218 40.9602 161.412 40.7878 161.575C40.6185 161.735 40.4139 161.815 40.1738 161.815ZM44.7776 170.157C44.3283 170.157 43.922 170.074 43.5589 169.908C43.1957 169.738 42.9079 169.494 42.6956 169.174C42.4863 168.854 42.3817 168.461 42.3817 167.996C42.3817 167.596 42.4586 167.267 42.6125 167.009C42.7664 166.75 42.9741 166.545 43.2357 166.395C43.4973 166.244 43.7897 166.13 44.1128 166.053C44.436 165.976 44.7653 165.917 45.1008 165.877C45.5255 165.828 45.8702 165.788 46.1349 165.757C46.3995 165.724 46.5919 165.67 46.7119 165.596C46.8319 165.522 46.892 165.402 46.892 165.236V165.203C46.892 164.8 46.7781 164.488 46.5503 164.266C46.3257 164.045 45.9902 163.934 45.5439 163.934C45.0792 163.934 44.713 164.037 44.4452 164.243C44.1805 164.446 43.9974 164.673 43.8959 164.922L42.5986 164.626C42.7525 164.196 42.9772 163.848 43.2726 163.583C43.5712 163.315 43.9143 163.121 44.3021 163.001C44.6899 162.878 45.0977 162.817 45.5255 162.817C45.8086 162.817 46.1087 162.851 46.4257 162.918C46.7458 162.983 47.0443 163.103 47.3213 163.278C47.6014 163.454 47.8306 163.705 48.0091 164.031C48.1876 164.354 48.2769 164.774 48.2769 165.291V170H46.9289V169.031H46.8735C46.7842 169.209 46.6504 169.384 46.4719 169.557C46.2934 169.729 46.0641 169.872 45.784 169.986C45.5039 170.1 45.1685 170.157 44.7776 170.157ZM45.0777 169.049C45.4593 169.049 45.7855 168.974 46.0564 168.823C46.3303 168.672 46.538 168.475 46.6796 168.232C46.8242 167.986 46.8966 167.723 46.8966 167.442V166.528C46.8473 166.578 46.7519 166.624 46.6104 166.667C46.4719 166.707 46.3134 166.742 46.1349 166.773C45.9564 166.801 45.7825 166.827 45.6132 166.852C45.4439 166.873 45.3023 166.892 45.1885 166.907C44.9207 166.941 44.676 166.998 44.4545 167.078C44.2359 167.158 44.0605 167.273 43.9282 167.424C43.7989 167.572 43.7343 167.769 43.7343 168.015C43.7343 168.357 43.8605 168.615 44.1128 168.79C44.3652 168.963 44.6868 169.049 45.0777 169.049ZM50.1154 170V162.909H51.4496V164.036H51.5234C51.6527 163.654 51.8804 163.354 52.2067 163.135C52.536 162.914 52.9084 162.803 53.3239 162.803C53.41 162.803 53.5116 162.806 53.6286 162.812C53.7486 162.818 53.8424 162.826 53.9102 162.835V164.156C53.8548 164.14 53.7563 164.123 53.6147 164.105C53.4731 164.083 53.3316 164.072 53.19 164.072C52.8638 164.072 52.5729 164.142 52.3175 164.28C52.0651 164.416 51.8651 164.605 51.7173 164.848C51.5696 165.088 51.4957 165.362 51.4957 165.67V170H50.1154ZM61.532 170.143C60.8456 170.143 60.2547 169.988 59.7592 169.677C59.2668 169.363 58.8883 168.931 58.6236 168.38C58.3589 167.829 58.2266 167.198 58.2266 166.487C58.2266 165.767 58.362 165.131 58.6328 164.58C58.9036 164.026 59.2853 163.594 59.7777 163.283C60.2701 162.972 60.8503 162.817 61.5181 162.817C62.0567 162.817 62.5368 162.917 62.9585 163.117C63.3801 163.314 63.7202 163.591 63.9787 163.948C64.2403 164.305 64.3957 164.722 64.445 165.199H63.1016C63.0277 164.866 62.8584 164.58 62.5938 164.34C62.3321 164.1 61.9813 163.98 61.5412 163.98C61.1565 163.98 60.8195 164.082 60.5302 164.285C60.244 164.485 60.0208 164.771 59.8608 165.143C59.7008 165.513 59.6207 165.95 59.6207 166.455C59.6207 166.972 59.6992 167.418 59.8562 167.793C60.0131 168.169 60.2347 168.46 60.521 168.666C60.8103 168.872 61.1503 168.975 61.5412 168.975C61.8028 168.975 62.0398 168.927 62.2521 168.832C62.4676 168.734 62.6476 168.594 62.7923 168.412C62.94 168.23 63.0431 168.012 63.1016 167.756H64.445C64.3957 168.215 64.2464 168.624 63.9972 168.984C63.7479 169.344 63.4139 169.628 62.9954 169.834C62.5799 170.04 62.0921 170.143 61.532 170.143ZM68.9079 170.143C68.2432 170.143 67.663 169.991 67.1675 169.686C66.672 169.381 66.2873 168.955 66.0134 168.407C65.7395 167.859 65.6025 167.219 65.6025 166.487C65.6025 165.751 65.7395 165.108 66.0134 164.557C66.2873 164.006 66.672 163.578 67.1675 163.274C67.663 162.969 68.2432 162.817 68.9079 162.817C69.5727 162.817 70.1528 162.969 70.6483 163.274C71.1439 163.578 71.5286 164.006 71.8025 164.557C72.0764 165.108 72.2133 165.751 72.2133 166.487C72.2133 167.219 72.0764 167.859 71.8025 168.407C71.5286 168.955 71.1439 169.381 70.6483 169.686C70.1528 169.991 69.5727 170.143 68.9079 170.143ZM68.9126 168.984C69.3434 168.984 69.7004 168.871 69.9836 168.643C70.2667 168.415 70.476 168.112 70.6114 167.733C70.7499 167.355 70.8192 166.938 70.8192 166.482C70.8192 166.03 70.7499 165.614 70.6114 165.236C70.476 164.854 70.2667 164.548 69.9836 164.317C69.7004 164.086 69.3434 163.971 68.9126 163.971C68.4786 163.971 68.1185 164.086 67.8323 164.317C67.5492 164.548 67.3383 164.854 67.1998 165.236C67.0644 165.614 66.9967 166.03 66.9967 166.482C66.9967 166.938 67.0644 167.355 67.1998 167.733C67.3383 168.112 67.5492 168.415 67.8323 168.643C68.1185 168.871 68.4786 168.984 68.9126 168.984ZM75.1344 165.79V170H73.7541V162.909H75.079V164.063H75.1667C75.3298 163.688 75.5853 163.386 75.9331 163.158C76.2839 162.931 76.7256 162.817 77.258 162.817C77.7412 162.817 78.1644 162.918 78.5275 163.121C78.8907 163.321 79.1723 163.62 79.3723 164.017C79.5724 164.414 79.6724 164.905 79.6724 165.49V170H78.2921V165.656C78.2921 165.142 78.1582 164.74 77.8904 164.451C77.6227 164.159 77.2549 164.012 76.7871 164.012C76.467 164.012 76.1824 164.082 75.9331 164.22C75.6868 164.359 75.4914 164.562 75.3468 164.83C75.2052 165.094 75.1344 165.414 75.1344 165.79ZM84.8336 162.909V164.017H80.9604V162.909H84.8336ZM81.9991 161.21H83.3794V167.918C83.3794 168.186 83.4194 168.387 83.4995 168.523C83.5795 168.655 83.6826 168.746 83.8088 168.795C83.938 168.841 84.0781 168.864 84.2289 168.864C84.3397 168.864 84.4366 168.857 84.5197 168.841C84.6028 168.826 84.6674 168.814 84.7136 168.804L84.9629 169.945C84.8829 169.975 84.769 170.006 84.6213 170.037C84.4735 170.071 84.2889 170.089 84.0673 170.092C83.7041 170.098 83.3656 170.034 83.0517 169.898C82.7377 169.763 82.4838 169.554 82.29 169.271C82.0961 168.987 81.9991 168.632 81.9991 168.204V161.21ZM89.3405 170.143C88.6418 170.143 88.0402 169.994 87.5354 169.695C87.0338 169.394 86.646 168.971 86.3721 168.426C86.1012 167.878 85.9658 167.236 85.9658 166.501C85.9658 165.774 86.1012 165.134 86.3721 164.58C86.646 164.026 87.0276 163.594 87.517 163.283C88.0094 162.972 88.5849 162.817 89.2435 162.817C89.6436 162.817 90.0314 162.883 90.4069 163.015C90.7823 163.148 91.1193 163.355 91.4179 163.638C91.7164 163.922 91.9519 164.289 92.1242 164.742C92.2965 165.191 92.3827 165.737 92.3827 166.381V166.87H86.746V165.836H91.0301C91.0301 165.473 90.9562 165.151 90.8085 164.871C90.6608 164.588 90.453 164.365 90.1853 164.202C89.9206 164.039 89.6098 163.957 89.2528 163.957C88.865 163.957 88.5264 164.052 88.2371 164.243C87.9509 164.431 87.7293 164.677 87.5724 164.982C87.4185 165.283 87.3415 165.611 87.3415 165.965V166.773C87.3415 167.247 87.4246 167.65 87.5908 167.983C87.7601 168.315 87.9955 168.569 88.2971 168.744C88.5988 168.917 88.9511 169.003 89.3543 169.003C89.6159 169.003 89.8544 168.966 90.0699 168.892C90.2853 168.815 90.4715 168.701 90.6285 168.55C90.7854 168.4 90.9055 168.213 90.9885 167.992L92.295 168.227C92.1904 168.612 92.0026 168.949 91.7318 169.238C91.464 169.525 91.127 169.748 90.7208 169.908C90.3176 170.065 89.8575 170.143 89.3405 170.143ZM98.4061 167.059V162.909H99.791V170H98.4338V168.772H98.3599C98.1968 169.151 97.9352 169.466 97.5751 169.718C97.2181 169.968 96.7734 170.092 96.2409 170.092C95.7855 170.092 95.3823 169.992 95.0314 169.792C94.6837 169.589 94.4097 169.289 94.2097 168.892C94.0127 168.495 93.9142 168.004 93.9142 167.419V162.909H95.2946V167.253C95.2946 167.736 95.4284 168.121 95.6962 168.407C95.964 168.694 96.3117 168.837 96.7395 168.837C96.998 168.837 97.255 168.772 97.5105 168.643C97.769 168.513 97.9829 168.318 98.1522 168.056C98.3245 167.795 98.4092 167.462 98.4061 167.059ZM96.2917 161.963L97.372 159.835H98.8262L97.3951 161.963H96.2917ZM104.3 170.138C103.728 170.138 103.217 169.992 102.767 169.7C102.321 169.404 101.97 168.984 101.715 168.44C101.463 167.892 101.336 167.235 101.336 166.468C101.336 165.702 101.464 165.047 101.72 164.502C101.978 163.957 102.332 163.54 102.781 163.251C103.231 162.961 103.74 162.817 104.309 162.817C104.749 162.817 105.103 162.891 105.371 163.038C105.642 163.183 105.851 163.352 105.999 163.546C106.15 163.74 106.267 163.911 106.35 164.059H106.433V160.545H107.813V170H106.465V168.897H106.35C106.267 169.047 106.147 169.22 105.99 169.414C105.836 169.608 105.624 169.777 105.353 169.922C105.082 170.066 104.731 170.138 104.3 170.138ZM104.605 168.961C105.002 168.961 105.337 168.857 105.611 168.647C105.888 168.435 106.098 168.141 106.239 167.766C106.384 167.39 106.456 166.953 106.456 166.455C106.456 165.962 106.385 165.531 106.244 165.162C106.102 164.793 105.894 164.505 105.62 164.299C105.347 164.092 105.008 163.989 104.605 163.989C104.189 163.989 103.843 164.097 103.566 164.312C103.289 164.528 103.08 164.822 102.938 165.194C102.8 165.567 102.731 165.987 102.731 166.455C102.731 166.929 102.801 167.355 102.943 167.733C103.084 168.112 103.294 168.412 103.571 168.634C103.851 168.852 104.196 168.961 104.605 168.961ZM112.77 170.143C112.105 170.143 111.525 169.991 111.03 169.686C110.534 169.381 110.15 168.955 109.876 168.407C109.602 167.859 109.465 167.219 109.465 166.487C109.465 165.751 109.602 165.108 109.876 164.557C110.15 164.006 110.534 163.578 111.03 163.274C111.525 162.969 112.105 162.817 112.77 162.817C113.435 162.817 114.015 162.969 114.511 163.274C115.006 163.578 115.391 164.006 115.665 164.557C115.939 165.108 116.076 165.751 116.076 166.487C116.076 167.219 115.939 167.859 115.665 168.407C115.391 168.955 115.006 169.381 114.511 169.686C114.015 169.991 113.435 170.143 112.77 170.143ZM112.775 168.984C113.206 168.984 113.563 168.871 113.846 168.643C114.129 168.415 114.338 168.112 114.474 167.733C114.612 167.355 114.681 166.938 114.681 166.482C114.681 166.03 114.612 165.614 114.474 165.236C114.338 164.854 114.129 164.548 113.846 164.317C113.563 164.086 113.206 163.971 112.775 163.971C112.341 163.971 111.981 164.086 111.695 164.317C111.411 164.548 111.201 164.854 111.062 165.236C110.927 165.614 110.859 166.03 110.859 166.482C110.859 166.938 110.927 167.355 111.062 167.733C111.201 168.112 111.411 168.415 111.695 168.643C111.981 168.871 112.341 168.984 112.775 168.984Z" fill="#00BAC9"/>
<rect opacity="0.3" x="129" y="166.334" width="1.83333" height="12.2341" rx="0.916667" transform="rotate(-90 129 166.334)" fill="#00BAC9"/>
<path d="M134.499 170.269C134.158 170.627 134.158 171.208 134.499 171.565C134.84 171.923 135.394 171.923 135.735 171.565L140.978 166.065C141.309 165.718 141.321 165.16 141.004 164.798L136.198 159.298C135.872 158.925 135.319 158.899 134.964 159.242C134.608 159.584 134.584 160.164 134.91 160.537L139.151 165.39L134.499 170.269Z" fill="#00BAC9"/>
<path d="M256.69 46.4139C256.69 45.3828 255.855 44.547 254.824 44.547C253.793 44.547 252.957 45.3828 252.957 46.4139C252.957 47.4445 253.793 48.2803 254.824 48.2803C255.855 48.2803 256.69 47.4445 256.69 46.4139Z" fill="#80B1E3"/>
<path d="M414.803 101.767C414.803 100.736 413.967 99.9006 412.936 99.9006C411.905 99.9006 411.07 100.736 411.07 101.767C411.07 102.798 411.905 103.634 412.936 103.634C413.967 103.634 414.803 102.798 414.803 101.767Z" fill="#80B1E3"/>
<path d="M312.404 191.428C278.439 191.565 244.799 168.658 245.001 135.8C245.199 103.547 269.047 105.304 295.052 81.9244C321.056 58.545 334.393 44.6159 362.556 57.0733C405.751 76.1793 411.866 191.028 312.404 191.428Z" fill="white"/>
<path d="M359.389 195.743C359.389 193.391 357.483 191.485 355.132 191.485C352.78 191.485 350.874 193.391 350.874 195.743C350.874 198.094 352.78 200 355.132 200C357.483 200 359.389 198.094 359.389 195.743Z" fill="white"/>
<path d="M259.076 89.5769C259.076 87.2255 257.171 85.3193 254.819 85.3193C252.468 85.3193 250.562 87.2255 250.562 89.5769C250.562 91.9279 252.468 93.834 254.819 93.834C257.171 93.834 259.076 91.9279 259.076 89.5769Z" fill="white"/>
<path d="M254.915 69.2727C254.915 66.9218 253.008 65.0156 250.657 65.0156C248.306 65.0156 246.4 66.9218 246.4 69.2727C246.4 71.6241 248.306 73.5303 250.657 73.5303C253.008 73.5303 254.915 71.6241 254.915 69.2727Z" fill="white"/>
<path d="M407.938 132.419C407.938 130.067 406.032 128.161 403.681 128.161C401.33 128.161 399.424 130.067 399.424 132.419C399.424 134.77 401.33 136.676 403.681 136.676C406.032 136.676 407.938 134.77 407.938 132.419Z" fill="white"/>
<path d="M358.611 43.739C358.611 41.388 356.705 39.4819 354.354 39.4819C352.003 39.4819 350.097 41.388 350.097 43.739C350.097 46.0904 352.003 47.9961 354.354 47.9961C356.705 47.9961 358.611 46.0904 358.611 43.739Z" fill="white"/>
<path d="M267.795 82.6761C267.795 81.6451 266.959 80.8097 265.928 80.8097C264.898 80.8097 264.062 81.6451 264.062 82.6761C264.062 83.7072 264.898 84.543 265.928 84.543C266.959 84.543 267.795 83.7072 267.795 82.6761Z" fill="white"/>
<path d="M372.761 37.9974C372.761 36.9668 371.925 36.1306 370.894 36.1306C369.863 36.1306 369.028 36.9668 369.028 37.9974C369.028 39.0281 369.863 39.8643 370.894 39.8643C371.925 39.8643 372.761 39.0281 372.761 37.9974Z" fill="white"/>
<path d="M368.869 183.766C368.869 182.735 368.034 181.9 367.003 181.9C365.972 181.9 365.136 182.735 365.136 183.766C365.136 184.797 365.972 185.633 367.003 185.633C368.034 185.633 368.869 184.797 368.869 183.766Z" fill="white"/>
<path d="M245.958 133.499C243.714 157.659 265.365 188.191 303.298 192.602C341.23 197.013 385.117 179.591 394.6 122.03C404.083 64.4704 341.892 41.5342 316.53 66.6755C291.168 91.8168 249.707 93.1401 245.958 133.499Z" stroke="#29306E" stroke-width="0.796304" stroke-miterlimit="10" stroke-linecap="round" stroke-linejoin="round"/>
<path d="M308.061 112.044C308.061 112.044 319.35 91.9584 320.269 74.4989C321.188 57.0394 324.47 48.2442 331.427 46.9313C338.385 45.6185 348.493 57.9584 340.748 89.5957C333.003 121.233 329.459 122.808 329.459 122.808L308.061 112.044Z" fill="#F89C3A"/>
<path d="M332.08 66.4914C332.08 66.4914 332.212 91.9584 321.053 116.507" stroke="#29306E" stroke-width="0.796304" stroke-miterlimit="10" stroke-linecap="round" stroke-linejoin="round"/>
<path d="M303.875 151.223C289.101 148.088 283.11 134.591 285.679 120.199C288.247 105.807 286.515 100.498 280.999 96.1439C275.482 91.7898 275.884 84.1795 278.535 79.225C281.187 74.2705 275.399 69.6592 275.137 57.9628C274.875 46.2664 281.123 34.3994 291.129 36.6505C304.425 39.6416 295.476 55.7757 302.846 62.9642C311.243 71.1556 311.421 78.0844 310.956 90.778C310.284 109.11 323.915 105.177 327.123 121.212C330.331 137.246 326.858 156.101 303.875 151.223Z" fill="#3CB6A5"/>
<path d="M289.804 64.2185C289.97 99.5773 309.724 113.607 309.367 139.289" stroke="#29306E" stroke-width="0.796304" stroke-miterlimit="10" stroke-linecap="round" stroke-linejoin="round"/>
<path d="M288.633 155.495C288.633 155.495 283.513 135.935 270.254 127.927C256.996 119.919 248.688 111.523 256.208 102.854C265.66 91.9579 308.061 110.993 313.181 141.711C318.301 172.429 288.633 155.495 288.633 155.495Z" fill="#F89C3A"/>
<path d="M271.042 114.274C271.042 114.274 302.547 130.553 304.779 157.857" stroke="#29306E" stroke-width="0.796304" stroke-miterlimit="10" stroke-linecap="round" stroke-linejoin="round"/>
<path d="M327.75 123.464C329.326 108.761 338.777 99.4407 351.774 101.279C364.77 103.116 362.144 91.3015 372.646 85.9193C383.148 80.5371 385.511 86.707 394.7 82.9002C403.889 79.0934 412.16 75.1549 416.361 85.0008C420.561 94.8462 402.839 96.815 398.769 105.611C394.7 114.406 393.912 123.464 379.735 124.646C365.557 125.827 367.658 145.255 351.774 148.668C335.889 152.082 328.538 149.587 328.538 149.587L327.75 123.464Z" fill="#F89C3A"/>
<path d="M387.349 100.623C363.102 108.911 348.531 134.921 329.573 142.725" stroke="#29306E" stroke-width="0.796304" stroke-miterlimit="10" stroke-linecap="round" stroke-linejoin="round"/>
<path d="M313.964 120.576C313.964 120.576 318.773 100.425 334.443 80.4059C347.209 64.0983 363.849 68.4599 362.93 77.9119C362.011 87.3635 340.351 104.035 338.25 125.171C336.15 146.306 313.964 120.576 313.964 120.576Z" fill="#3CB6A5"/>
<path d="M344.42 88.5449C344.42 88.5449 328.93 102.722 324.204 127.796" stroke="#29306E" stroke-width="0.796304" stroke-miterlimit="10" stroke-linecap="round" stroke-linejoin="round"/>
<path d="M306.617 142.107C306.617 142.107 289.945 144.207 280.362 139.481C270.779 134.755 254.764 126.747 249.119 137.512C243.474 148.276 257.652 166.655 292.046 168.886C326.439 171.118 306.617 142.107 306.617 142.107Z" fill="#3CB6A5"/>
<path d="M264.873 143.024C264.873 143.024 273.668 160.747 310.163 157.465" stroke="#29306E" stroke-width="0.796304" stroke-miterlimit="10" stroke-linecap="round" stroke-linejoin="round"/>
<path d="M331.461 139.729C331.461 139.729 349.237 141.915 359.454 136.996C369.671 132.077 386.746 123.744 392.764 134.947C398.782 146.15 383.667 165.278 346.997 167.6C310.327 169.923 331.461 139.729 331.461 139.729Z" fill="#3CB6A5"/>
<path d="M375.966 140.684C375.966 140.684 366.588 159.129 327.679 155.714" stroke="#29306E" stroke-width="0.796304" stroke-miterlimit="10" stroke-linecap="round" stroke-linejoin="round"/>
<path d="M368.762 159.407C365.487 150.418 344.443 150.767 335.059 150.96H301.394C301.394 150.96 270.409 147.422 268.11 162.891C266.241 175.468 291.475 180.168 315.855 179.688L316.502 181.809C332.18 179.719 372.037 168.395 368.762 159.407Z" fill="#F03C7D"/>
<path d="M334.362 177.145C334.362 177.145 326.147 178.161 302.519 175.484C283.761 173.359 272.05 166.818 268.015 164.209C268.048 175.796 292.347 180.151 315.854 179.688L316.501 181.809C320.923 181.219 327.269 179.895 334.027 178.096L334.362 177.145Z" fill="#EF2B6C"/>
<path d="M368.76 159.407C368.58 158.913 368.338 158.451 368.055 158.012C366.53 159.736 359.978 166.283 344.792 171.053C334.611 174.251 323.23 177.511 315.429 179.695C315.571 179.693 315.712 179.691 315.853 179.688L316.501 181.809C332.179 179.719 372.035 168.395 368.76 159.407Z" fill="#EF2B6C"/>
<path d="M316.863 181.759C323.896 180.782 335.479 178.046 345.942 174.526L341.266 163.084L317.008 175.468L316.863 181.759Z" fill="#F25745"/>
<path d="M344.554 171.129C335.065 174.105 324.571 177.126 316.92 179.278L316.863 181.759C323.896 180.782 335.479 178.046 345.942 174.526L344.554 171.129Z" fill="#D9463A"/>
<path d="M317.007 175.468C317.007 175.468 317.543 178.762 316.862 181.758L308.993 191.006L310.718 175.468H317.007Z" fill="#29306E"/>
<path d="M342.47 162.467L340.096 163.679C340.096 163.679 341.262 169.528 344.455 175.018C345.441 174.696 346.42 174.367 347.386 174.032L342.47 162.467Z" fill="#252E4F"/>
<path d="M317.003 175.468L349.214 159.023" stroke="#29306E" stroke-width="0.796304" stroke-miterlimit="10" stroke-linecap="round" stroke-linejoin="round"/>
<path d="M290.414 178.051C303.036 180.189 318.888 180.176 332.195 178.569L333.015 175.224L331.691 172.228L294.447 163.488L290.414 178.051Z" fill="#F25745"/>
<path d="M332.195 178.569L332.513 177.27C328.957 177.423 319.923 177.456 302.519 175.484C298.576 175.037 294.952 174.392 291.638 173.633L290.414 178.051C303.036 180.189 318.888 180.176 332.195 178.569Z" fill="#D9463A"/>
<path d="M288.563 177.717C289.799 177.954 291.069 178.169 292.369 178.361C293.387 175.322 295.133 169.826 296.527 163.975L292.889 163.122L288.563 177.717Z" fill="#29306E"/>
<path d="M268.11 162.89C265.811 178.359 304.514 181.912 332.196 178.568" stroke="#29306E" stroke-width="0.796304" stroke-miterlimit="10" stroke-linecap="round" stroke-linejoin="round"/>
<path d="M331.693 172.228L286.262 161.567" stroke="#29306E" stroke-width="0.796304" stroke-miterlimit="10" stroke-linecap="round" stroke-linejoin="round"/>
<path d="M331.691 172.227C331.691 172.227 331.513 175.572 332.194 178.568L339.704 187.766L337.979 172.227H331.691Z" fill="#29306E"/>
<path d="M303.402 130.472C303.402 130.472 293.159 149.634 279.241 154.233C269.2 157.551 261.159 157.404 258.616 157.282C256.073 157.16 254 156.289 254.122 155.4C254.244 154.512 255.01 154.564 255.01 154.564C254.056 154.251 253.18 153.503 253.359 152.861C253.608 151.973 255.095 152.545 255.095 152.545C254.829 152.373 254.586 152.164 254.431 151.921C253.908 151.098 254.692 150.274 255.607 150.836C256.521 151.398 258.039 151.778 258.039 151.778C258.013 151.472 258.009 150.996 258.128 150.444C258.471 148.855 260.114 148.276 260.323 149.216C260.532 150.157 259.539 150.889 260.271 151.725C261.003 152.561 264.53 151.62 264.086 150.496C263.642 149.373 262.622 149.896 261.525 149.608C260.428 149.321 261.264 147.91 263.093 147.962C264.922 148.014 266.124 150.262 266.124 150.262C266.124 150.262 279.711 145.802 290.093 130.263C294.839 123.161 298.973 116.391 303.085 112.844L306.363 122.303L303.402 130.472Z" fill="#F25745"/>
<path d="M255.01 154.564C255.933 154.86 258.207 155.409 259.748 155.2" stroke="#29306E" stroke-width="0.796304" stroke-miterlimit="10" stroke-linecap="round" stroke-linejoin="round"/>
<path d="M255.094 152.546C255.094 152.546 257.788 153.712 259.486 153.424" stroke="#29306E" stroke-width="0.796304" stroke-miterlimit="10" stroke-linecap="round" stroke-linejoin="round"/>
<path d="M258.036 151.778C258.036 151.778 258.674 151.986 259.485 152.091" stroke="#29306E" stroke-width="0.796304" stroke-miterlimit="10" stroke-linecap="round" stroke-linejoin="round"/>
<path d="M263.493 151.477C262.72 151.814 262.188 153.781 263.79 154.564" stroke="#29306E" stroke-width="0.796304" stroke-miterlimit="10" stroke-linecap="round" stroke-linejoin="round"/>
<path d="M258.616 157.282C256.073 157.16 254 156.289 254.122 155.401C254.244 154.512 255.01 154.565 255.01 154.565C254.056 154.251 253.18 153.503 253.359 152.862C253.608 151.973 255.095 152.546 255.095 152.546C254.829 152.373 254.586 152.165 254.431 151.921C253.908 151.098 254.692 150.275 255.607 150.837C256.521 151.398 258.039 151.778 258.039 151.778C258.013 151.472 258.009 150.996 258.128 150.445C258.471 148.856 260.114 148.276 260.323 149.217C260.532 150.157 259.539 150.889 260.271 151.725C261.003 152.561 264.53 151.621 264.086 150.497C263.642 149.373 262.622 149.896 261.525 149.608C260.428 149.321 261.264 147.91 263.093 147.962C264.922 148.015 266.124 150.262 266.124 150.262" stroke="#29306E" stroke-width="0.796304" stroke-miterlimit="10" stroke-linecap="round" stroke-linejoin="round"/>
<path d="M304.642 121.674L304.273 121.489C304.273 121.489 297.259 140.872 281.383 150.102C274.411 154.155 268.59 156.177 265.091 157.142C268.819 156.831 273.727 156.056 279.241 154.234C293.159 149.635 303.403 130.473 303.403 130.473L305.565 124.508C305.001 122.755 304.642 121.674 304.642 121.674Z" fill="#D9463A"/>
<path d="M333.051 130.472C333.051 130.472 343.294 149.634 357.213 154.233C367.254 157.551 375.295 157.404 377.838 157.282C380.381 157.16 382.454 156.289 382.332 155.4C382.21 154.512 381.444 154.564 381.444 154.564C382.397 154.251 383.274 153.503 383.094 152.861C382.846 151.973 381.359 152.545 381.359 152.545C381.625 152.373 381.868 152.164 382.023 151.921C382.545 151.098 381.761 150.274 380.847 150.836C379.932 151.398 378.415 151.778 378.415 151.778C378.44 151.472 378.445 150.996 378.325 150.444C377.982 148.855 376.339 148.276 376.131 149.216C375.922 150.157 376.914 150.889 376.183 151.725C375.451 152.561 371.924 151.62 372.368 150.496C372.812 149.373 373.831 149.896 374.929 149.608C376.026 149.321 375.19 147.91 373.361 147.962C371.532 148.014 370.33 150.262 370.33 150.262C370.33 150.262 356.743 145.802 346.36 130.263C341.614 123.161 337.481 116.391 333.369 112.844L330.09 122.303L333.051 130.472Z" fill="#F25745"/>
<path d="M381.443 154.564C380.52 154.86 378.247 155.409 376.705 155.2" stroke="#29306E" stroke-width="0.796304" stroke-miterlimit="10" stroke-linecap="round" stroke-linejoin="round"/>
<path d="M381.355 152.546C381.355 152.546 378.661 153.712 376.963 153.424" stroke="#29306E" stroke-width="0.796304" stroke-miterlimit="10" stroke-linecap="round" stroke-linejoin="round"/>
<path d="M378.411 151.778C378.411 151.778 377.773 151.986 376.963 152.091" stroke="#29306E" stroke-width="0.796304" stroke-miterlimit="10" stroke-linecap="round" stroke-linejoin="round"/>
<path d="M372.961 151.477C373.734 151.814 374.266 153.781 372.664 154.564" stroke="#29306E" stroke-width="0.796304" stroke-miterlimit="10" stroke-linecap="round" stroke-linejoin="round"/>
<path d="M381.442 154.564C382.395 154.251 383.272 153.503 383.092 152.862C382.844 151.973 381.357 152.545 381.357 152.545C381.623 152.373 381.866 152.165 382.021 151.921C382.543 151.098 381.759 150.275 380.845 150.837C379.93 151.398 378.413 151.778 378.413 151.778C378.438 151.472 378.443 150.996 378.323 150.444C377.98 148.856 376.337 148.276 376.129 149.217C375.92 150.157 376.912 150.889 376.181 151.725C375.449 152.561 371.922 151.621 372.366 150.497C372.81 149.373 373.829 149.896 374.927 149.608C376.024 149.321 375.188 147.91 373.359 147.962C371.53 148.014 370.328 150.262 370.328 150.262" stroke="#29306E" stroke-width="0.796304" stroke-miterlimit="10" stroke-linecap="round" stroke-linejoin="round"/>
<path d="M371.984 157.19C366.89 155.603 355.391 151.439 346.732 143.98C337.671 136.174 331.858 123.439 330.66 120.66L330.09 122.304L333.051 130.473C333.051 130.473 343.294 149.635 357.213 154.234C363.039 156.159 368.188 156.917 371.984 157.19Z" fill="#D9463A"/>
<path d="M333.368 112.844C333.368 112.844 332.061 111.711 329.602 110.49L318.227 116.258L306.661 110.585C304.325 111.769 303.086 112.844 303.086 112.844C301.584 127.964 301.395 152.545 301.395 152.545C301.395 152.545 308.141 156.394 318.227 156.394C328.313 156.394 335.06 152.545 335.06 152.545C335.06 152.545 334.871 127.964 333.368 112.844Z" fill="#29306E"/>
<path d="M314.586 97.5136H321.676V112.425H314.586V97.5136Z" fill="#F25745"/>
<path d="M311.417 99.0946C311.417 99.0946 302.845 101.819 303.072 92.7917C303.072 92.7917 298.769 90.1058 300.825 85.7509C300.825 85.7509 299.397 83.4518 301.591 82.4412C301.591 82.4412 299.471 76.2399 305.931 76.0656C305.931 76.0656 306.782 72.1287 309.953 71.188C313.123 70.2477 315.84 72.9996 315.84 72.9996C315.84 72.9996 317.896 70.6223 321.032 70.9923C324.167 71.3623 324.202 74.6373 325.491 75.369C326.78 76.1007 330.682 74.4283 332.424 76.5188C334.166 78.6089 332.842 83.4518 332.842 83.4518C332.842 83.4518 335.804 84.0438 334.828 87.249C334.828 87.249 338.474 99.7632 325.561 98.1192L311.417 99.0946Z" fill="#29306E"/>
<path d="M321.676 104.542V97.5145H314.586V104.366C315.805 104.899 318.308 105.602 321.676 104.542Z" fill="#D9463A"/>
<path d="M329.598 110.49C327.019 109.209 323.173 107.833 318.223 107.565C313.151 107.84 309.236 109.279 306.657 110.585C307.464 114.671 310.208 121.101 318.223 121.101C325.699 121.101 328.589 115.27 329.598 110.49Z" fill="#F25745"/>
<path d="M328.903 86.899C328.067 86.899 327.307 87.2126 326.726 87.7252C322.371 86.8008 321.91 82.2217 321.91 82.2217C317.886 84.1032 315.666 79.7394 315.666 79.7394C314.385 85.1484 309.708 85.462 309.708 85.462C309.708 85.462 310.047 89.4599 308.741 89.5903C307.435 89.7212 307.339 86.69 305.378 87.0495C304.041 87.4685 303.071 88.7165 303.071 90.1916C303.071 92.0095 304.545 93.4837 306.363 93.4837C306.963 93.4837 307.524 93.3206 308.008 93.0405C308.709 97.4761 310.805 102.96 318.13 102.96C325.474 102.96 327.095 97.4531 327.209 93.0108C327.704 93.3089 328.282 93.4837 328.903 93.4837C330.721 93.4837 332.195 92.0095 332.195 90.1916C332.195 88.3732 330.721 86.899 328.903 86.899Z" fill="#F25745"/>
<path d="M304.885 89.9662C304.885 89.9662 306.121 90.0883 306.748 89.6179" stroke="#29306E" stroke-width="0.796304" stroke-miterlimit="10" stroke-linecap="round" stroke-linejoin="round"/>
<path d="M306.607 91.6035C306.607 91.6035 305.949 91.1051 305.93 89.9261" stroke="#29306E" stroke-width="0.796304" stroke-miterlimit="10" stroke-linecap="round" stroke-linejoin="round"/>
<path d="M330.585 89.9662C330.585 89.9662 329.348 90.0883 328.721 89.6179" stroke="#29306E" stroke-width="0.796304" stroke-miterlimit="10" stroke-linecap="round" stroke-linejoin="round"/>
<path d="M328.861 91.6035C328.861 91.6035 329.519 91.1051 329.538 89.9261" stroke="#29306E" stroke-width="0.796304" stroke-miterlimit="10" stroke-linecap="round" stroke-linejoin="round"/>
<path d="M311.647 88.1771C312.425 88.4697 313.675 88.6575 314.802 87.5796" stroke="#29306E" stroke-width="0.796304" stroke-miterlimit="10" stroke-linecap="round" stroke-linejoin="round"/>
<path d="M324.702 88.175C323.924 88.4689 322.671 88.66 321.542 87.5796" stroke="#29306E" stroke-width="0.796304" stroke-miterlimit="10" stroke-linecap="round" stroke-linejoin="round"/>
<path d="M317.532 86.0905L317.854 87.5798C317.854 87.5798 319.753 87.423 319.884 88.5987C320.014 89.7748 317.532 89.6181 317.532 89.6181" stroke="#29306E" stroke-width="0.796304" stroke-miterlimit="10" stroke-linecap="round" stroke-linejoin="round"/>
<path d="M314.173 92.4665C314.173 92.4665 318.545 94.6088 322.068 92.2311" stroke="#29306E" stroke-width="0.796304" stroke-miterlimit="10" stroke-linecap="round" stroke-linejoin="round"/>
<path d="M313.358 94.4492C313.358 93.223 312.364 92.2291 311.138 92.2291C309.913 92.2291 308.919 93.223 308.919 94.4492C308.919 95.6751 309.913 96.6689 311.138 96.6689C312.364 96.6689 313.358 95.6751 313.358 94.4492Z" fill="#F3636A"/>
<path d="M326.513 94.4492C326.513 93.223 325.519 92.2291 324.294 92.2291C323.068 92.2291 322.073 93.223 322.073 94.4492C322.073 95.6751 323.068 96.6689 324.294 96.6689C325.519 96.6689 326.513 95.6751 326.513 94.4492Z" fill="#F3636A"/>
</svg>
