<svg width="432" height="155" viewBox="0 0 432 155" fill="none" xmlns="http://www.w3.org/2000/svg">
<rect width="432" height="155" rx="12" fill="#00BAC9"/>
<path opacity="0.3" d="M31.125 46.2501L29 48.375C28.5 48.875 27.75 48.875 27.25 48.375L25.125 46.2501H31.125ZM25 40.125L22.875 42.2501C22.375 42.7501 22.375 43.5 22.875 44L25 46.1251V40.125ZM44.125 31.5L39.75 27.125C39.25 26.625 38.5 26.625 38 27.125L31.25 33.875V46.2501L44.125 33.375C44.625 32.875 44.625 32 44.125 31.5Z" fill="white"/>
<path d="M46.25 38.75V45C46.25 45.75 45.75 46.25 45 46.25H34.75L43.5 37.5H45C45.75 37.5 46.25 38 46.25 38.75ZM32.5 46.25V25C32.5 24.25 32 23.75 31.25 23.75H25C24.25 23.75 23.75 24.25 23.75 25V46.25C23.75 47 24.25 47.5 25 47.5H31.25C32 47.5 32.5 47 32.5 46.25ZM29.375 43.125C29.375 43.875 28.875 44.375 28.125 44.375C27.375 44.375 26.875 43.875 26.875 43.125C26.875 42.375 27.375 41.875 28.125 41.875C28.875 41.875 29.375 42.375 29.375 43.125Z" fill="white"/>
<path d="M21.2195 69.8864H23.9602L27.6307 78.8452H27.7756L31.446 69.8864H34.1868V82.25H32.0376V73.756H31.9229L28.506 82.2138H26.9002L23.4833 73.7379H23.3686V82.25H21.2195V69.8864ZM40.6342 82.4311C39.7045 82.4311 38.9016 82.2379 38.2255 81.8516C37.5534 81.4612 37.0362 80.9098 36.674 80.1974C36.3118 79.4811 36.1307 78.6379 36.1307 77.668C36.1307 76.7141 36.3118 75.877 36.674 75.1566C37.0402 74.4322 37.5514 73.8687 38.2074 73.4663C38.8634 73.0598 39.6341 72.8565 40.5195 72.8565C41.091 72.8565 41.6303 72.9491 42.1374 73.1342C42.6486 73.3153 43.0993 73.5971 43.4897 73.9794C43.8841 74.3617 44.194 74.8487 44.4194 75.4403C44.6448 76.0279 44.7575 76.7282 44.7575 77.5412V78.2113H37.157V76.7383H42.6626C42.6586 76.3197 42.5681 75.9474 42.391 75.6214C42.2139 75.2914 41.9664 75.0318 41.6484 74.8427C41.3345 74.6535 40.9683 74.5589 40.5497 74.5589C40.103 74.5589 39.7106 74.6676 39.3725 74.8849C39.0344 75.0982 38.7708 75.38 38.5817 75.7301C38.3965 76.0762 38.302 76.4566 38.2979 76.8711V78.157C38.2979 78.6963 38.3965 79.1591 38.5938 79.5455C38.791 79.9278 39.0666 80.2216 39.4208 80.4268C39.775 80.6281 40.1895 80.7287 40.6644 80.7287C40.9824 80.7287 41.2701 80.6844 41.5277 80.5959C41.7853 80.5033 42.0086 80.3685 42.1978 80.1914C42.387 80.0143 42.5298 79.795 42.6264 79.5334L44.6669 79.7628C44.5381 80.3021 44.2926 80.773 43.9304 81.1754C43.5722 81.5739 43.1134 81.8838 42.554 82.1051C41.9946 82.3224 41.3546 82.4311 40.6342 82.4311ZM52.5164 78.3501V72.9773H54.7018V82.25H52.5828V80.6019H52.4862C52.277 81.1211 51.9329 81.5457 51.4539 81.8757C50.979 82.2057 50.3934 82.3707 49.6972 82.3707C49.0895 82.3707 48.5522 82.2359 48.0853 81.9663C47.6225 81.6926 47.2603 81.2962 46.9987 80.777C46.7371 80.2538 46.6063 79.6219 46.6063 78.8814V72.9773H48.7916V78.5433C48.7916 79.1309 48.9526 79.5978 49.2746 79.9439C49.5966 80.29 50.0191 80.4631 50.5423 80.4631C50.8643 80.4631 51.1762 80.3846 51.4781 80.2276C51.7799 80.0707 52.0274 79.8372 52.2206 79.5273C52.4178 79.2134 52.5164 78.821 52.5164 78.3501ZM64.2779 75.4283L62.2857 75.6456C62.2293 75.4444 62.1307 75.2552 61.9899 75.0781C61.853 74.901 61.6679 74.7582 61.4345 74.6495C61.2011 74.5408 60.9153 74.4865 60.5772 74.4865C60.1225 74.4865 59.7401 74.5851 59.4302 74.7823C59.1243 74.9795 58.9734 75.2351 58.9775 75.549C58.9734 75.8187 59.072 76.038 59.2733 76.207C59.4785 76.3761 59.8166 76.5149 60.2875 76.6236L61.8691 76.9616C62.7465 77.1508 63.3985 77.4506 63.8251 77.8612C64.2557 78.2717 64.4731 78.8089 64.4771 79.473C64.4731 80.0566 64.302 80.5717 63.964 81.0185C63.6299 81.4612 63.1651 81.8073 62.5694 82.0568C61.9738 82.3063 61.2896 82.4311 60.5169 82.4311C59.3819 82.4311 58.4683 82.1937 57.7761 81.7188C57.0839 81.2398 56.6713 80.5737 56.5385 79.7205L58.6696 79.5153C58.7662 79.9338 58.9714 80.2498 59.2853 80.4631C59.5993 80.6764 60.0078 80.783 60.5108 80.783C61.03 80.783 61.4466 80.6764 61.7605 80.4631C62.0784 80.2498 62.2374 79.9862 62.2374 79.6722C62.2374 79.4066 62.1348 79.1873 61.9295 79.0142C61.7283 78.8411 61.4144 78.7083 60.9877 78.6158L59.4061 78.2837C58.5166 78.0986 57.8586 77.7867 57.432 77.348C57.0054 76.9053 56.7941 76.3459 56.7981 75.6697C56.7941 75.0982 56.949 74.6032 57.263 74.1847C57.5809 73.7621 58.0216 73.4361 58.585 73.2067C59.1525 72.9732 59.8065 72.8565 60.5471 72.8565C61.6337 72.8565 62.4889 73.0879 63.1127 73.5508C63.7406 74.0136 64.129 74.6394 64.2779 75.4283ZM74.5407 82.4311C73.615 82.4311 72.8201 82.2279 72.1561 81.8214C71.496 81.4149 70.9869 80.8535 70.6287 80.1371C70.2746 79.4167 70.0975 78.5876 70.0975 77.6499C70.0975 76.7081 70.2786 75.877 70.6408 75.1566C71.003 74.4322 71.5141 73.8687 72.1742 73.4663C72.8382 73.0598 73.623 72.8565 74.5286 72.8565C75.2812 72.8565 75.9473 72.9954 76.5268 73.2731C77.1104 73.5468 77.5752 73.9351 77.9213 74.4382C78.2675 74.9373 78.4647 75.5208 78.513 76.1889H76.4242C76.3397 75.7422 76.1384 75.3699 75.8205 75.0721C75.5066 74.7702 75.086 74.6193 74.5588 74.6193C74.112 74.6193 73.7196 74.7401 73.3816 74.9815C73.0435 75.219 72.7799 75.5611 72.5907 76.0078C72.4056 76.4545 72.313 76.9898 72.313 77.6136C72.313 78.2455 72.4056 78.7888 72.5907 79.2436C72.7759 79.6944 73.0355 80.0425 73.3695 80.288C73.7076 80.5295 74.104 80.6502 74.5588 80.6502C74.8807 80.6502 75.1685 80.5898 75.4221 80.4691C75.6796 80.3443 75.8949 80.1652 76.068 79.9318C76.2411 79.6984 76.3598 79.4147 76.4242 79.0806H78.513C78.4606 79.7366 78.2675 80.3182 77.9334 80.8253C77.5994 81.3284 77.1446 81.7228 76.5691 82.0085C75.9935 82.2902 75.3174 82.4311 74.5407 82.4311ZM84.3522 82.4311C83.4466 82.4311 82.6618 82.2319 81.9978 81.8335C81.3337 81.435 80.8186 80.8776 80.4523 80.1612C80.0901 79.4448 79.909 78.6077 79.909 77.6499C79.909 76.692 80.0901 75.8529 80.4523 75.1325C80.8186 74.412 81.3337 73.8526 81.9978 73.4542C82.6618 73.0558 83.4466 72.8565 84.3522 72.8565C85.2577 72.8565 86.0425 73.0558 86.7066 73.4542C87.3707 73.8526 87.8838 74.412 88.246 75.1325C88.6122 75.8529 88.7954 76.692 88.7954 77.6499C88.7954 78.6077 88.6122 79.4448 88.246 80.1612C87.8838 80.8776 87.3707 81.435 86.7066 81.8335C86.0425 82.2319 85.2577 82.4311 84.3522 82.4311ZM84.3643 80.6804C84.8553 80.6804 85.2658 80.5456 85.5958 80.2759C85.9258 80.0022 86.1713 79.636 86.3323 79.1772C86.4973 78.7184 86.5798 78.2073 86.5798 77.6438C86.5798 77.0763 86.4973 76.5632 86.3323 76.1044C86.1713 75.6416 85.9258 75.2733 85.5958 74.9996C85.2658 74.726 84.8553 74.5891 84.3643 74.5891C83.8612 74.5891 83.4426 74.726 83.1086 74.9996C82.7786 75.2733 82.531 75.6416 82.366 76.1044C82.205 76.5632 82.1246 77.0763 82.1246 77.6438C82.1246 78.2073 82.205 78.7184 82.366 79.1772C82.531 79.636 82.7786 80.0022 83.1086 80.2759C83.4426 80.5456 83.8612 80.6804 84.3643 80.6804ZM92.8356 76.8168V82.25H90.6502V72.9773H92.739V74.5529H92.8477C93.061 74.0337 93.401 73.6212 93.8679 73.3153C94.3388 73.0095 94.9203 72.8565 95.6126 72.8565C96.2525 72.8565 96.8099 72.9934 97.2848 73.267C97.7637 73.5407 98.134 73.9371 98.3956 74.4563C98.6612 74.9755 98.792 75.6054 98.788 76.3459V82.25H96.6026V76.6839C96.6026 76.0642 96.4416 75.5792 96.1197 75.229C95.8017 74.8789 95.361 74.7038 94.7976 74.7038C94.4152 74.7038 94.0752 74.7884 93.7773 74.9574C93.4835 75.1224 93.2521 75.3619 93.0831 75.6758C92.9181 75.9897 92.8356 76.37 92.8356 76.8168ZM105.64 72.9773V74.6676H100.309V72.9773H105.64ZM101.625 70.7557H103.811V79.4609C103.811 79.7547 103.855 79.9801 103.944 80.1371C104.036 80.29 104.157 80.3946 104.306 80.451C104.455 80.5073 104.62 80.5355 104.801 80.5355C104.938 80.5355 105.062 80.5254 105.175 80.5053C105.292 80.4852 105.38 80.4671 105.441 80.451L105.809 82.1594C105.692 82.1997 105.525 82.244 105.308 82.2923C105.095 82.3406 104.833 82.3687 104.523 82.3768C103.976 82.3929 103.483 82.3104 103.044 82.1293C102.605 81.9441 102.257 81.6584 102 81.272C101.746 80.8857 101.621 80.4027 101.625 79.8232V70.7557ZM111.473 82.4311C110.543 82.4311 109.741 82.2379 109.064 81.8516C108.392 81.4612 107.875 80.9098 107.513 80.1974C107.151 79.4811 106.97 78.6379 106.97 77.668C106.97 76.7141 107.151 75.877 107.513 75.1566C107.879 74.4322 108.39 73.8687 109.046 73.4663C109.702 73.0598 110.473 72.8565 111.358 72.8565C111.93 72.8565 112.469 72.9491 112.976 73.1342C113.487 73.3153 113.938 73.5971 114.329 73.9794C114.723 74.3617 115.033 74.8487 115.258 75.4403C115.484 76.0279 115.596 76.7282 115.596 77.5412V78.2113H107.996V76.7383H113.502C113.497 76.3197 113.407 75.9474 113.23 75.6214C113.053 75.2914 112.805 75.0318 112.487 74.8427C112.173 74.6535 111.807 74.5589 111.389 74.5589C110.942 74.5589 110.549 74.6676 110.211 74.8849C109.873 75.0982 109.61 75.38 109.421 75.7301C109.235 76.0762 109.141 76.4566 109.137 76.8711V78.157C109.137 78.6963 109.235 79.1591 109.433 79.5455C109.63 79.9278 109.906 80.2216 110.26 80.4268C110.614 80.6281 111.028 80.7287 111.503 80.7287C111.821 80.7287 112.109 80.6844 112.367 80.5959C112.624 80.5033 112.848 80.3685 113.037 80.1914C113.226 80.0143 113.369 79.795 113.465 79.5334L115.506 79.7628C115.377 80.3021 115.131 80.773 114.769 81.1754C114.411 81.5739 113.952 81.8838 113.393 82.1051C112.833 82.3224 112.194 82.4311 111.473 82.4311ZM123.355 78.3501V72.9773H125.541V82.25H123.422V80.6019H123.325C123.116 81.1211 122.772 81.5457 122.293 81.8757C121.818 82.2057 121.232 82.3707 120.536 82.3707C119.928 82.3707 119.391 82.2359 118.924 81.9663C118.461 81.6926 118.099 81.2962 117.838 80.777C117.576 80.2538 117.445 79.6219 117.445 78.8814V72.9773H119.631V78.5433C119.631 79.1309 119.791 79.5978 120.113 79.9439C120.435 80.29 120.858 80.4631 121.381 80.4631C121.703 80.4631 122.015 80.3846 122.317 80.2276C122.619 80.0707 122.866 79.8372 123.059 79.5273C123.257 79.2134 123.355 78.821 123.355 78.3501ZM120.669 71.7578L122.021 68.9989H124.158L122.305 71.7578H120.669ZM131.229 82.413C130.501 82.413 129.849 82.2259 129.273 81.8516C128.697 81.4773 128.243 80.9339 127.909 80.2216C127.575 79.5092 127.408 78.6439 127.408 77.6257C127.408 76.5954 127.577 75.7261 127.915 75.0178C128.257 74.3054 128.718 73.7681 129.297 73.4059C129.877 73.0397 130.523 72.8565 131.235 72.8565C131.778 72.8565 132.225 72.9491 132.575 73.1342C132.925 73.3153 133.203 73.5347 133.408 73.7923C133.614 74.0458 133.773 74.2853 133.885 74.5107H133.976V69.8864H136.167V82.25H134.018V80.7891H133.885C133.773 81.0144 133.61 81.2539 133.396 81.5075C133.183 81.757 132.901 81.9703 132.551 82.1474C132.201 82.3245 131.76 82.413 131.229 82.413ZM131.839 80.62C132.302 80.62 132.696 80.4953 133.022 80.2457C133.348 79.9922 133.595 79.64 133.764 79.1893C133.934 78.7385 134.018 78.2133 134.018 77.6136C134.018 77.014 133.934 76.4928 133.764 76.0501C133.599 75.6074 133.354 75.2633 133.028 75.0178C132.706 74.7723 132.31 74.6495 131.839 74.6495C131.352 74.6495 130.945 74.7763 130.619 75.0298C130.293 75.2834 130.048 75.6335 129.883 76.0803C129.718 76.527 129.635 77.0381 129.635 77.6136C129.635 78.1932 129.718 78.7103 129.883 79.1651C130.052 79.6159 130.299 79.9721 130.625 80.2337C130.955 80.4912 131.36 80.62 131.839 80.62ZM142.541 82.4311C141.635 82.4311 140.85 82.2319 140.186 81.8335C139.522 81.435 139.007 80.8776 138.641 80.1612C138.279 79.4448 138.097 78.6077 138.097 77.6499C138.097 76.692 138.279 75.8529 138.641 75.1325C139.007 74.412 139.522 73.8526 140.186 73.4542C140.85 73.0558 141.635 72.8565 142.541 72.8565C143.446 72.8565 144.231 73.0558 144.895 73.4542C145.559 73.8526 146.072 74.412 146.434 75.1325C146.801 75.8529 146.984 76.692 146.984 77.6499C146.984 78.6077 146.801 79.4448 146.434 80.1612C146.072 80.8776 145.559 81.435 144.895 81.8335C144.231 82.2319 143.446 82.4311 142.541 82.4311ZM142.553 80.6804C143.044 80.6804 143.454 80.5456 143.784 80.2759C144.114 80.0022 144.36 79.636 144.521 79.1772C144.686 78.7184 144.768 78.2073 144.768 77.6438C144.768 77.0763 144.686 76.5632 144.521 76.1044C144.36 75.6416 144.114 75.2733 143.784 74.9996C143.454 74.726 143.044 74.5891 142.553 74.5891C142.05 74.5891 141.631 74.726 141.297 74.9996C140.967 75.2733 140.72 75.6416 140.555 76.1044C140.394 76.5632 140.313 77.0763 140.313 77.6438C140.313 78.2073 140.394 78.7184 140.555 79.1772C140.72 79.636 140.967 80.0022 141.297 80.2759C141.631 80.5456 142.05 80.6804 142.553 80.6804ZM156.168 75.4283L154.175 75.6456C154.119 75.4444 154.02 75.2552 153.88 75.0781C153.743 74.901 153.558 74.7582 153.324 74.6495C153.091 74.5408 152.805 74.4865 152.467 74.4865C152.012 74.4865 151.63 74.5851 151.32 74.7823C151.014 74.9795 150.863 75.2351 150.867 75.549C150.863 75.8187 150.962 76.038 151.163 76.207C151.368 76.3761 151.706 76.5149 152.177 76.6236L153.759 76.9616C154.636 77.1508 155.288 77.4506 155.715 77.8612C156.145 78.2717 156.363 78.8089 156.367 79.473C156.363 80.0566 156.192 80.5717 155.854 81.0185C155.52 81.4612 155.055 81.8073 154.459 82.0568C153.863 82.3063 153.179 82.4311 152.407 82.4311C151.272 82.4311 150.358 82.1937 149.666 81.7188C148.974 81.2398 148.561 80.5737 148.428 79.7205L150.559 79.5153C150.656 79.9338 150.861 80.2498 151.175 80.4631C151.489 80.6764 151.897 80.783 152.4 80.783C152.92 80.783 153.336 80.6764 153.65 80.4631C153.968 80.2498 154.127 79.9862 154.127 79.6722C154.127 79.4066 154.024 79.1873 153.819 79.0142C153.618 78.8411 153.304 78.7083 152.877 78.6158L151.296 78.2837C150.406 78.0986 149.748 77.7867 149.322 77.348C148.895 76.9053 148.684 76.3459 148.688 75.6697C148.684 75.0982 148.839 74.6032 149.153 74.1847C149.471 73.7621 149.911 73.4361 150.475 73.2067C151.042 72.9732 151.696 72.8565 152.437 72.8565C153.523 72.8565 154.379 73.0879 155.002 73.5508C155.63 74.0136 156.019 74.6394 156.168 75.4283Z" fill="white"/>
<path d="M21.7216 93.5227L24.1506 100.631H24.2486L26.6776 93.5227H28.1009L24.9602 102.25H23.4389L20.2983 93.5227H21.7216ZM29.2589 102.25V95.7045H30.533V102.25H29.2589ZM29.9023 94.6946C29.6808 94.6946 29.4904 94.6207 29.3313 94.473C29.1751 94.3224 29.0969 94.1435 29.0969 93.9361C29.0969 93.7259 29.1751 93.5469 29.3313 93.3991C29.4904 93.2486 29.6808 93.1733 29.9023 93.1733C30.1239 93.1733 30.3129 93.2486 30.4691 93.3991C30.6282 93.5469 30.7077 93.7259 30.7077 93.9361C30.7077 94.1435 30.6282 94.3224 30.4691 94.473C30.3129 94.6207 30.1239 94.6946 29.9023 94.6946ZM37.152 97.3026L35.9972 97.5071C35.9489 97.3594 35.8722 97.2187 35.767 97.0852C35.6648 96.9517 35.5256 96.8423 35.3494 96.7571C35.1733 96.6719 34.9531 96.6293 34.6889 96.6293C34.3281 96.6293 34.027 96.7102 33.7855 96.8722C33.544 97.0312 33.4233 97.2372 33.4233 97.4901C33.4233 97.7088 33.5043 97.8849 33.6662 98.0185C33.8281 98.152 34.0895 98.2614 34.4503 98.3466L35.4901 98.5852C36.0923 98.7244 36.5412 98.9389 36.8366 99.2287C37.1321 99.5185 37.2798 99.8949 37.2798 100.358C37.2798 100.75 37.1662 101.099 36.9389 101.406C36.7145 101.71 36.4006 101.949 35.9972 102.122C35.5966 102.295 35.1321 102.382 34.6037 102.382C33.8707 102.382 33.2727 102.226 32.8097 101.913C32.3466 101.598 32.0625 101.151 31.9574 100.571L33.1889 100.384C33.2656 100.705 33.4233 100.947 33.6619 101.112C33.9006 101.274 34.2116 101.355 34.5952 101.355C35.0128 101.355 35.3466 101.268 35.5966 101.095C35.8466 100.919 35.9716 100.705 35.9716 100.452C35.9716 100.247 35.8949 100.075 35.7415 99.9361C35.5909 99.7969 35.3594 99.6918 35.0469 99.6207L33.9389 99.3778C33.3281 99.2386 32.8764 99.017 32.5838 98.7131C32.294 98.4091 32.1491 98.0241 32.1491 97.5582C32.1491 97.1719 32.2571 96.8338 32.473 96.544C32.6889 96.2543 32.9872 96.0284 33.3679 95.8665C33.7486 95.7017 34.1847 95.6193 34.6761 95.6193C35.3835 95.6193 35.9403 95.7727 36.3466 96.0795C36.7528 96.3835 37.0213 96.7912 37.152 97.3026ZM42.8271 99.5355V95.7045H44.1055V102.25H42.8526V101.116H42.7844C42.6339 101.466 42.3924 101.757 42.06 101.99C41.7305 102.22 41.32 102.335 40.8285 102.335C40.408 102.335 40.0359 102.243 39.712 102.058C39.391 101.871 39.1381 101.594 38.9535 101.227C38.7717 100.861 38.6808 100.408 38.6808 99.8679V95.7045H39.9549V99.7145C39.9549 100.161 40.0785 100.516 40.3256 100.78C40.5728 101.044 40.8938 101.176 41.2887 101.176C41.5273 101.176 41.7646 101.116 42.0004 100.997C42.239 100.878 42.4364 100.697 42.5927 100.456C42.7518 100.214 42.8299 99.9077 42.8271 99.5355ZM47.7223 102.395C47.3075 102.395 46.9325 102.318 46.5973 102.165C46.2621 102.009 45.9964 101.783 45.8004 101.487C45.6072 101.192 45.5107 100.83 45.5107 100.401C45.5107 100.031 45.5817 99.7273 45.7237 99.4886C45.8658 99.25 46.0575 99.0611 46.299 98.9219C46.5405 98.7827 46.8104 98.6776 47.1087 98.6065C47.407 98.5355 47.7109 98.4815 48.0206 98.4446C48.4126 98.3991 48.7308 98.3622 48.9751 98.3338C49.2195 98.3026 49.397 98.2528 49.5078 98.1847C49.6186 98.1165 49.674 98.0057 49.674 97.8523V97.8224C49.674 97.4503 49.5689 97.1619 49.3587 96.9574C49.1513 96.7528 48.8416 96.6506 48.4297 96.6506C48.0007 96.6506 47.6626 96.7457 47.4155 96.9361C47.1712 97.1236 47.0021 97.3324 46.9084 97.5625L45.7109 97.2898C45.853 96.892 46.0604 96.571 46.3331 96.3267C46.6087 96.0795 46.9254 95.9006 47.2834 95.7898C47.6413 95.6761 48.0178 95.6193 48.4126 95.6193C48.674 95.6193 48.951 95.6506 49.2436 95.7131C49.5391 95.7727 49.8146 95.8835 50.0703 96.0455C50.3288 96.2074 50.5405 96.4389 50.7053 96.7401C50.87 97.0384 50.9524 97.4261 50.9524 97.9034V102.25H49.7081V101.355H49.657C49.5746 101.52 49.451 101.682 49.2862 101.841C49.1214 102 48.9098 102.132 48.6513 102.237C48.3928 102.342 48.0831 102.395 47.7223 102.395ZM47.9993 101.372C48.3516 101.372 48.6527 101.303 48.9027 101.163C49.1555 101.024 49.3473 100.842 49.478 100.618C49.6115 100.391 49.6783 100.148 49.6783 99.8892V99.0455C49.6328 99.0909 49.5447 99.1335 49.4141 99.1733C49.2862 99.2102 49.1399 99.2429 48.9751 99.2713C48.8104 99.2969 48.6499 99.321 48.4936 99.3438C48.3374 99.3636 48.2067 99.3807 48.1016 99.3949C47.8544 99.4261 47.6286 99.4787 47.424 99.5526C47.2223 99.6264 47.0604 99.733 46.9382 99.8722C46.8189 100.009 46.7592 100.19 46.7592 100.418C46.7592 100.733 46.8757 100.972 47.1087 101.134C47.3416 101.293 47.6385 101.372 47.9993 101.372ZM53.9237 93.5227V102.25H52.6495V93.5227H53.9237ZM55.6378 102.25V95.7045H56.9119V102.25H55.6378ZM56.2812 94.6946C56.0597 94.6946 55.8693 94.6207 55.7102 94.473C55.554 94.3224 55.4759 94.1435 55.4759 93.9361C55.4759 93.7259 55.554 93.5469 55.7102 93.3991C55.8693 93.2486 56.0597 93.1733 56.2812 93.1733C56.5028 93.1733 56.6918 93.2486 56.848 93.3991C57.0071 93.5469 57.0866 93.7259 57.0866 93.9361C57.0866 94.1435 57.0071 94.3224 56.848 94.473C56.6918 94.6207 56.5028 94.6946 56.2812 94.6946ZM58.4897 102.25V101.376L62.0352 96.8722V96.8125H58.6048V95.7045H63.6246V96.6335L60.2156 101.082V101.142H63.744V102.25H58.4897ZM67.152 102.395C66.7372 102.395 66.3622 102.318 66.027 102.165C65.6918 102.009 65.4261 101.783 65.2301 101.487C65.0369 101.192 64.9403 100.83 64.9403 100.401C64.9403 100.031 65.0114 99.7273 65.1534 99.4886C65.2955 99.25 65.4872 99.0611 65.7287 98.9219C65.9702 98.7827 66.2401 98.6776 66.5384 98.6065C66.8366 98.5355 67.1406 98.4815 67.4503 98.4446C67.8423 98.3991 68.1605 98.3622 68.4048 98.3338C68.6491 98.3026 68.8267 98.2528 68.9375 98.1847C69.0483 98.1165 69.1037 98.0057 69.1037 97.8523V97.8224C69.1037 97.4503 68.9986 97.1619 68.7884 96.9574C68.581 96.7528 68.2713 96.6506 67.8594 96.6506C67.4304 96.6506 67.0923 96.7457 66.8452 96.9361C66.6009 97.1236 66.4318 97.3324 66.3381 97.5625L65.1406 97.2898C65.2827 96.892 65.4901 96.571 65.7628 96.3267C66.0384 96.0795 66.3551 95.9006 66.7131 95.7898C67.071 95.6761 67.4474 95.6193 67.8423 95.6193C68.1037 95.6193 68.3807 95.6506 68.6733 95.7131C68.9688 95.7727 69.2443 95.8835 69.5 96.0455C69.7585 96.2074 69.9702 96.4389 70.1349 96.7401C70.2997 97.0384 70.3821 97.4261 70.3821 97.9034V102.25H69.1378V101.355H69.0866C69.0043 101.52 68.8807 101.682 68.7159 101.841C68.5511 102 68.3395 102.132 68.081 102.237C67.8224 102.342 67.5128 102.395 67.152 102.395ZM67.429 101.372C67.7813 101.372 68.0824 101.303 68.3324 101.163C68.5852 101.024 68.777 100.842 68.9077 100.618C69.0412 100.391 69.108 100.148 69.108 99.8892V99.0455C69.0625 99.0909 68.9744 99.1335 68.8438 99.1733C68.7159 99.2102 68.5696 99.2429 68.4048 99.2713C68.2401 99.2969 68.0795 99.321 67.9233 99.3438C67.767 99.3636 67.6364 99.3807 67.5312 99.3949C67.2841 99.4261 67.0582 99.4787 66.8537 99.5526C66.652 99.6264 66.4901 99.733 66.3679 99.8722C66.2486 100.009 66.1889 100.19 66.1889 100.418C66.1889 100.733 66.3054 100.972 66.5384 101.134C66.7713 101.293 67.0682 101.372 67.429 101.372ZM72.0792 102.25V95.7045H73.3107V96.7443H73.3789C73.4982 96.392 73.7085 96.1151 74.0096 95.9134C74.3136 95.7088 74.6573 95.6065 75.0408 95.6065C75.1204 95.6065 75.2141 95.6094 75.3221 95.6151C75.4329 95.6207 75.5195 95.6278 75.582 95.6364V96.8551C75.5309 96.8409 75.44 96.8253 75.3093 96.8082C75.1786 96.7884 75.0479 96.7784 74.9173 96.7784C74.6161 96.7784 74.3477 96.8423 74.1119 96.9702C73.8789 97.0952 73.6942 97.2699 73.5579 97.4943C73.4215 97.7159 73.3533 97.9687 73.3533 98.2528V102.25H72.0792ZM81.7653 102.395C81.3505 102.395 80.9755 102.318 80.6403 102.165C80.305 102.009 80.0394 101.783 79.8434 101.487C79.6502 101.192 79.5536 100.83 79.5536 100.401C79.5536 100.031 79.6246 99.7273 79.7667 99.4886C79.9087 99.25 80.1005 99.0611 80.342 98.9219C80.5835 98.7827 80.8533 98.6776 81.1516 98.6065C81.4499 98.5355 81.7539 98.4815 82.0636 98.4446C82.4556 98.3991 82.7738 98.3622 83.0181 98.3338C83.2624 98.3026 83.44 98.2528 83.5508 98.1847C83.6616 98.1165 83.717 98.0057 83.717 97.8523V97.8224C83.717 97.4503 83.6119 97.1619 83.4016 96.9574C83.1942 96.7528 82.8846 96.6506 82.4727 96.6506C82.0437 96.6506 81.7056 96.7457 81.4585 96.9361C81.2141 97.1236 81.0451 97.3324 80.9513 97.5625L79.7539 97.2898C79.896 96.892 80.1033 96.571 80.3761 96.3267C80.6516 96.0795 80.9684 95.9006 81.3263 95.7898C81.6843 95.6761 82.0607 95.6193 82.4556 95.6193C82.717 95.6193 82.994 95.6506 83.2866 95.7131C83.582 95.7727 83.8576 95.8835 84.1133 96.0455C84.3718 96.2074 84.5835 96.4389 84.7482 96.7401C84.913 97.0384 84.9954 97.4261 84.9954 97.9034V102.25H83.7511V101.355H83.6999C83.6175 101.52 83.494 101.682 83.3292 101.841C83.1644 102 82.9528 102.132 82.6942 102.237C82.4357 102.342 82.1261 102.395 81.7653 102.395ZM82.0423 101.372C82.3945 101.372 82.6957 101.303 82.9457 101.163C83.1985 101.024 83.3903 100.842 83.521 100.618C83.6545 100.391 83.7212 100.148 83.7212 99.8892V99.0455C83.6758 99.0909 83.5877 99.1335 83.457 99.1733C83.3292 99.2102 83.1829 99.2429 83.0181 99.2713C82.8533 99.2969 82.6928 99.321 82.5366 99.3438C82.3803 99.3636 82.2496 99.3807 82.1445 99.3949C81.8974 99.4261 81.6715 99.4787 81.467 99.5526C81.2653 99.6264 81.1033 99.733 80.9812 99.8722C80.8619 100.009 80.8022 100.19 80.8022 100.418C80.8022 100.733 80.9187 100.972 81.1516 101.134C81.3846 101.293 81.6815 101.372 82.0423 101.372ZM91.5973 97.3026L90.4425 97.5071C90.3942 97.3594 90.3175 97.2187 90.2124 97.0852C90.1101 96.9517 89.9709 96.8423 89.7947 96.7571C89.6186 96.6719 89.3984 96.6293 89.1342 96.6293C88.7734 96.6293 88.4723 96.7102 88.2308 96.8722C87.9893 97.0312 87.8686 97.2372 87.8686 97.4901C87.8686 97.7088 87.9496 97.8849 88.1115 98.0185C88.2734 98.152 88.5348 98.2614 88.8956 98.3466L89.9354 98.5852C90.5376 98.7244 90.9865 98.9389 91.282 99.2287C91.5774 99.5185 91.7251 99.8949 91.7251 100.358C91.7251 100.75 91.6115 101.099 91.3842 101.406C91.1598 101.71 90.8459 101.949 90.4425 102.122C90.0419 102.295 89.5774 102.382 89.049 102.382C88.3161 102.382 87.718 102.226 87.255 101.913C86.7919 101.598 86.5078 101.151 86.4027 100.571L87.6342 100.384C87.7109 100.705 87.8686 100.947 88.1072 101.112C88.3459 101.274 88.657 101.355 89.0405 101.355C89.4581 101.355 89.7919 101.268 90.0419 101.095C90.2919 100.919 90.4169 100.705 90.4169 100.452C90.4169 100.247 90.3402 100.075 90.1868 99.9361C90.0362 99.7969 89.8047 99.6918 89.4922 99.6207L88.3842 99.3778C87.7734 99.2386 87.3217 99.017 87.0291 98.7131C86.7393 98.4091 86.5945 98.0241 86.5945 97.5582C86.5945 97.1719 86.7024 96.8338 86.9183 96.544C87.1342 96.2543 87.4325 96.0284 87.8132 95.8665C88.1939 95.7017 88.63 95.6193 89.1214 95.6193C89.8288 95.6193 90.3857 95.7727 90.7919 96.0795C91.1982 96.3835 91.4666 96.7912 91.5973 97.3026ZM98.0309 97.3026L96.8761 97.5071C96.8278 97.3594 96.7511 97.2187 96.646 97.0852C96.5437 96.9517 96.4045 96.8423 96.2283 96.7571C96.0522 96.6719 95.832 96.6293 95.5678 96.6293C95.207 96.6293 94.9059 96.7102 94.6644 96.8722C94.4229 97.0312 94.3022 97.2372 94.3022 97.4901C94.3022 97.7088 94.3832 97.8849 94.5451 98.0185C94.707 98.152 94.9684 98.2614 95.3292 98.3466L96.369 98.5852C96.9712 98.7244 97.4201 98.9389 97.7156 99.2287C98.011 99.5185 98.1587 99.8949 98.1587 100.358C98.1587 100.75 98.0451 101.099 97.8178 101.406C97.5934 101.71 97.2795 101.949 96.8761 102.122C96.4755 102.295 96.011 102.382 95.4826 102.382C94.7496 102.382 94.1516 102.226 93.6886 101.913C93.2255 101.598 92.9414 101.151 92.8363 100.571L94.0678 100.384C94.1445 100.705 94.3022 100.947 94.5408 101.112C94.7795 101.274 95.0906 101.355 95.4741 101.355C95.8917 101.355 96.2255 101.268 96.4755 101.095C96.7255 100.919 96.8505 100.705 96.8505 100.452C96.8505 100.247 96.7738 100.075 96.6204 99.9361C96.4698 99.7969 96.2383 99.6918 95.9258 99.6207L94.8178 99.3778C94.207 99.2386 93.7553 99.017 93.4627 98.7131C93.1729 98.4091 93.0281 98.0241 93.0281 97.5582C93.0281 97.1719 93.136 96.8338 93.3519 96.544C93.5678 96.2543 93.8661 96.0284 94.2468 95.8665C94.6275 95.7017 95.0636 95.6193 95.555 95.6193C96.2624 95.6193 96.8192 95.7727 97.2255 96.0795C97.6317 96.3835 97.9002 96.7912 98.0309 97.3026ZM102.381 102.382C101.736 102.382 101.18 102.244 100.714 101.969C100.251 101.69 99.8935 101.3 99.6406 100.797C99.3906 100.291 99.2656 99.6989 99.2656 99.0199C99.2656 98.3494 99.3906 97.7585 99.6406 97.2472C99.8935 96.7358 100.246 96.3366 100.697 96.0497C101.152 95.7628 101.683 95.6193 102.291 95.6193C102.661 95.6193 103.018 95.6804 103.365 95.8026C103.712 95.9247 104.023 96.1165 104.298 96.3778C104.574 96.6392 104.791 96.9787 104.95 97.3963C105.109 97.8111 105.189 98.3153 105.189 98.9091V99.3608H99.9858V98.4062H103.94C103.94 98.071 103.872 97.7741 103.736 97.5156C103.599 97.2543 103.408 97.0483 103.161 96.8977C102.916 96.7472 102.629 96.6719 102.3 96.6719C101.942 96.6719 101.629 96.7599 101.362 96.9361C101.098 97.1094 100.893 97.3366 100.749 97.6179C100.607 97.8963 100.536 98.1989 100.536 98.5256V99.2713C100.536 99.7088 100.612 100.081 100.766 100.388C100.922 100.695 101.139 100.929 101.418 101.091C101.696 101.25 102.021 101.33 102.393 101.33C102.635 101.33 102.855 101.295 103.054 101.227C103.253 101.156 103.425 101.051 103.57 100.912C103.714 100.773 103.825 100.601 103.902 100.396L105.108 100.614C105.011 100.969 104.838 101.28 104.588 101.547C104.341 101.811 104.03 102.017 103.655 102.165C103.283 102.31 102.858 102.382 102.381 102.382ZM111.507 97.3026L110.353 97.5071C110.304 97.3594 110.228 97.2187 110.123 97.0852C110.02 96.9517 109.881 96.8423 109.705 96.7571C109.529 96.6719 109.309 96.6293 109.044 96.6293C108.684 96.6293 108.382 96.7102 108.141 96.8722C107.9 97.0312 107.779 97.2372 107.779 97.4901C107.779 97.7088 107.86 97.8849 108.022 98.0185C108.184 98.152 108.445 98.2614 108.806 98.3466L109.846 98.5852C110.448 98.7244 110.897 98.9389 111.192 99.2287C111.488 99.5185 111.635 99.8949 111.635 100.358C111.635 100.75 111.522 101.099 111.294 101.406C111.07 101.71 110.756 101.949 110.353 102.122C109.952 102.295 109.488 102.382 108.959 102.382C108.226 102.382 107.628 102.226 107.165 101.913C106.702 101.598 106.418 101.151 106.313 100.571L107.544 100.384C107.621 100.705 107.779 100.947 108.017 101.112C108.256 101.274 108.567 101.355 108.951 101.355C109.368 101.355 109.702 101.268 109.952 101.095C110.202 100.919 110.327 100.705 110.327 100.452C110.327 100.247 110.25 100.075 110.097 99.9361C109.946 99.7969 109.715 99.6918 109.402 99.6207L108.294 99.3778C107.684 99.2386 107.232 99.017 106.939 98.7131C106.65 98.4091 106.505 98.0241 106.505 97.5582C106.505 97.1719 106.613 96.8338 106.828 96.544C107.044 96.2543 107.343 96.0284 107.723 95.8665C108.104 95.7017 108.54 95.6193 109.032 95.6193C109.739 95.6193 110.296 95.7727 110.702 96.0795C111.108 96.3835 111.377 96.7912 111.507 97.3026ZM117.941 97.3026L116.786 97.5071C116.738 97.3594 116.661 97.2187 116.556 97.0852C116.454 96.9517 116.315 96.8423 116.138 96.7571C115.962 96.6719 115.742 96.6293 115.478 96.6293C115.117 96.6293 114.816 96.7102 114.575 96.8722C114.333 97.0312 114.212 97.2372 114.212 97.4901C114.212 97.7088 114.293 97.8849 114.455 98.0185C114.617 98.152 114.879 98.2614 115.239 98.3466L116.279 98.5852C116.881 98.7244 117.33 98.9389 117.626 99.2287C117.921 99.5185 118.069 99.8949 118.069 100.358C118.069 100.75 117.955 101.099 117.728 101.406C117.504 101.71 117.19 101.949 116.786 102.122C116.386 102.295 115.921 102.382 115.393 102.382C114.66 102.382 114.062 102.226 113.599 101.913C113.136 101.598 112.852 101.151 112.746 100.571L113.978 100.384C114.055 100.705 114.212 100.947 114.451 101.112C114.69 101.274 115.001 101.355 115.384 101.355C115.802 101.355 116.136 101.268 116.386 101.095C116.636 100.919 116.761 100.705 116.761 100.452C116.761 100.247 116.684 100.075 116.531 99.9361C116.38 99.7969 116.148 99.6918 115.836 99.6207L114.728 99.3778C114.117 99.2386 113.665 99.017 113.373 98.7131C113.083 98.4091 112.938 98.0241 112.938 97.5582C112.938 97.1719 113.046 96.8338 113.262 96.544C113.478 96.2543 113.776 96.0284 114.157 95.8665C114.538 95.7017 114.974 95.6193 115.465 95.6193C116.173 95.6193 116.729 95.7727 117.136 96.0795C117.542 96.3835 117.81 96.7912 117.941 97.3026ZM119.47 102.25V95.7045H120.693V96.7699H120.774C120.91 96.4091 121.133 96.1278 121.443 95.9261C121.752 95.7216 122.123 95.6193 122.555 95.6193C122.993 95.6193 123.359 95.7216 123.654 95.9261C123.953 96.1307 124.173 96.4119 124.315 96.7699H124.383C124.539 96.4205 124.788 96.142 125.129 95.9347C125.47 95.7244 125.876 95.6193 126.348 95.6193C126.941 95.6193 127.426 95.8054 127.801 96.1776C128.179 96.5497 128.368 97.1108 128.368 97.8608V102.25H127.093V97.9801C127.093 97.5369 126.973 97.2159 126.731 97.017C126.49 96.8182 126.201 96.7188 125.866 96.7188C125.451 96.7188 125.129 96.8466 124.899 97.1023C124.669 97.3551 124.554 97.6804 124.554 98.0781V102.25H123.284V97.8991C123.284 97.544 123.173 97.2585 122.951 97.0426C122.73 96.8267 122.441 96.7188 122.086 96.7188C121.845 96.7188 121.622 96.7827 121.417 96.9105C121.216 97.0355 121.052 97.2102 120.927 97.4347C120.805 97.6591 120.744 97.919 120.744 98.2145V102.25H119.47ZM132.896 102.382C132.251 102.382 131.696 102.244 131.23 101.969C130.767 101.69 130.409 101.3 130.156 100.797C129.906 100.291 129.781 99.6989 129.781 99.0199C129.781 98.3494 129.906 97.7585 130.156 97.2472C130.409 96.7358 130.761 96.3366 131.213 96.0497C131.668 95.7628 132.199 95.6193 132.807 95.6193C133.176 95.6193 133.534 95.6804 133.881 95.8026C134.227 95.9247 134.538 96.1165 134.814 96.3778C135.089 96.6392 135.307 96.9787 135.466 97.3963C135.625 97.8111 135.705 98.3153 135.705 98.9091V99.3608H130.501V98.4062H134.456C134.456 98.071 134.388 97.7741 134.251 97.5156C134.115 97.2543 133.923 97.0483 133.676 96.8977C133.432 96.7472 133.145 96.6719 132.815 96.6719C132.457 96.6719 132.145 96.7599 131.878 96.9361C131.614 97.1094 131.409 97.3366 131.264 97.6179C131.122 97.8963 131.051 98.1989 131.051 98.5256V99.2713C131.051 99.7088 131.128 100.081 131.281 100.388C131.438 100.695 131.655 100.929 131.933 101.091C132.212 101.25 132.537 101.33 132.909 101.33C133.151 101.33 133.371 101.295 133.57 101.227C133.768 101.156 133.94 101.051 134.085 100.912C134.23 100.773 134.341 100.601 134.418 100.396L135.624 100.614C135.527 100.969 135.354 101.28 135.104 101.547C134.857 101.811 134.545 102.017 134.17 102.165C133.798 102.31 133.374 102.382 132.896 102.382ZM138.392 98.3636V102.25H137.118V95.7045H138.341V96.7699H138.422C138.573 96.4233 138.809 96.1449 139.13 95.9347C139.453 95.7244 139.861 95.6193 140.353 95.6193C140.799 95.6193 141.189 95.7131 141.525 95.9006C141.86 96.0852 142.12 96.3608 142.304 96.7273C142.489 97.0937 142.581 97.5469 142.581 98.0866V102.25H141.307V98.2401C141.307 97.7656 141.184 97.3949 140.936 97.1278C140.689 96.858 140.35 96.723 139.918 96.723C139.623 96.723 139.36 96.7869 139.13 96.9148C138.902 97.0426 138.722 97.2301 138.588 97.4773C138.458 97.7216 138.392 98.017 138.392 98.3636ZM147.346 95.7045V96.7273H143.77V95.7045H147.346ZM144.729 94.1364H146.003V100.328C146.003 100.575 146.04 100.761 146.114 100.886C146.188 101.009 146.283 101.092 146.4 101.138C146.519 101.18 146.648 101.202 146.787 101.202C146.89 101.202 146.979 101.195 147.056 101.18C147.132 101.166 147.192 101.155 147.235 101.146L147.465 102.199C147.391 102.227 147.286 102.256 147.15 102.284C147.013 102.315 146.843 102.332 146.638 102.335C146.303 102.341 145.99 102.281 145.701 102.156C145.411 102.031 145.176 101.838 144.998 101.577C144.819 101.315 144.729 100.987 144.729 100.592V94.1364ZM153.554 97.3026L152.4 97.5071C152.351 97.3594 152.275 97.2187 152.169 97.0852C152.067 96.9517 151.928 96.8423 151.752 96.7571C151.576 96.6719 151.355 96.6293 151.091 96.6293C150.73 96.6293 150.429 96.7102 150.188 96.8722C149.946 97.0312 149.826 97.2372 149.826 97.4901C149.826 97.7088 149.907 97.8849 150.069 98.0185C150.23 98.152 150.492 98.2614 150.853 98.3466L151.892 98.5852C152.495 98.7244 152.944 98.9389 153.239 99.2287C153.534 99.5185 153.682 99.8949 153.682 100.358C153.682 100.75 153.569 101.099 153.341 101.406C153.117 101.71 152.803 101.949 152.4 102.122C151.999 102.295 151.534 102.382 151.006 102.382C150.273 102.382 149.675 102.226 149.212 101.913C148.749 101.598 148.465 101.151 148.36 100.571L149.591 100.384C149.668 100.705 149.826 100.947 150.064 101.112C150.303 101.274 150.614 101.355 150.998 101.355C151.415 101.355 151.749 101.268 151.999 101.095C152.249 100.919 152.374 100.705 152.374 100.452C152.374 100.247 152.297 100.075 152.144 99.9361C151.993 99.7969 151.762 99.6918 151.449 99.6207L150.341 99.3778C149.73 99.2386 149.279 99.017 148.986 98.7131C148.696 98.4091 148.551 98.0241 148.551 97.5582C148.551 97.1719 148.659 96.8338 148.875 96.544C149.091 96.2543 149.39 96.0284 149.77 95.8665C150.151 95.7017 150.587 95.6193 151.078 95.6193C151.786 95.6193 152.343 95.7727 152.749 96.0795C153.155 96.3835 153.424 96.7912 153.554 97.3026ZM156.741 101.057L156.677 101.521C156.634 101.862 156.562 102.217 156.46 102.587C156.36 102.959 156.256 103.304 156.148 103.622C156.043 103.94 155.957 104.193 155.888 104.381H154.985C155.022 104.205 155.073 103.966 155.138 103.665C155.204 103.366 155.268 103.033 155.33 102.663C155.393 102.294 155.44 101.918 155.471 101.534L155.513 101.057H156.741ZM165.994 104.705V101.232H165.918C165.841 101.371 165.73 101.53 165.585 101.709C165.443 101.888 165.247 102.044 164.997 102.178C164.747 102.311 164.423 102.378 164.026 102.378C163.497 102.378 163.026 102.243 162.611 101.973C162.199 101.7 161.875 101.312 161.639 100.81C161.406 100.304 161.29 99.6974 161.29 98.9901C161.29 98.2827 161.408 97.6776 161.643 97.1747C161.882 96.6719 162.209 96.2869 162.624 96.0199C163.038 95.7528 163.509 95.6193 164.034 95.6193C164.44 95.6193 164.767 95.6875 165.014 95.8239C165.264 95.9574 165.457 96.1136 165.594 96.2926C165.733 96.4716 165.841 96.6293 165.918 96.7656H166.024V95.7045H167.268V104.705H165.994ZM164.307 101.291C164.673 101.291 164.983 101.195 165.236 101.001C165.491 100.805 165.685 100.534 165.815 100.188C165.949 99.8409 166.016 99.4375 166.016 98.9773C166.016 98.5227 165.95 98.125 165.82 97.7841C165.689 97.4432 165.497 97.1776 165.244 96.9872C164.991 96.7969 164.679 96.7017 164.307 96.7017C163.923 96.7017 163.604 96.8011 163.348 97C163.092 97.1989 162.899 97.4702 162.768 97.8139C162.641 98.1577 162.577 98.5455 162.577 98.9773C162.577 99.4148 162.642 99.8082 162.773 100.158C162.903 100.507 163.097 100.784 163.352 100.989C163.611 101.19 163.929 101.291 164.307 101.291ZM173.128 99.5355V95.7045H174.406V102.25H173.153V101.116H173.085C172.935 101.466 172.693 101.757 172.361 101.99C172.031 102.22 171.621 102.335 171.129 102.335C170.709 102.335 170.337 102.243 170.013 102.058C169.692 101.871 169.439 101.594 169.254 101.227C169.072 100.861 168.982 100.408 168.982 99.8679V95.7045H170.256V99.7145C170.256 100.161 170.379 100.516 170.626 100.78C170.874 101.044 171.195 101.176 171.589 101.176C171.828 101.176 172.065 101.116 172.301 100.997C172.54 100.878 172.737 100.697 172.893 100.456C173.053 100.214 173.131 99.9077 173.128 99.5355ZM178.939 102.382C178.294 102.382 177.739 102.244 177.273 101.969C176.81 101.69 176.452 101.3 176.199 100.797C175.949 100.291 175.824 99.6989 175.824 99.0199C175.824 98.3494 175.949 97.7585 176.199 97.2472C176.452 96.7358 176.804 96.3366 177.256 96.0497C177.711 95.7628 178.242 95.6193 178.85 95.6193C179.219 95.6193 179.577 95.6804 179.924 95.8026C180.27 95.9247 180.581 96.1165 180.857 96.3778C181.132 96.6392 181.35 96.9787 181.509 97.3963C181.668 97.8111 181.748 98.3153 181.748 98.9091V99.3608H176.544V98.4062H180.499C180.499 98.071 180.431 97.7741 180.294 97.5156C180.158 97.2543 179.966 97.0483 179.719 96.8977C179.475 96.7472 179.188 96.6719 178.858 96.6719C178.5 96.6719 178.188 96.7599 177.921 96.9361C177.657 97.1094 177.452 97.3366 177.307 97.6179C177.165 97.8963 177.094 98.1989 177.094 98.5256V99.2713C177.094 99.7088 177.171 100.081 177.324 100.388C177.48 100.695 177.698 100.929 177.976 101.091C178.255 101.25 178.58 101.33 178.952 101.33C179.194 101.33 179.414 101.295 179.613 101.227C179.811 101.156 179.983 101.051 180.128 100.912C180.273 100.773 180.384 100.601 180.461 100.396L181.667 100.614C181.57 100.969 181.397 101.28 181.147 101.547C180.9 101.811 180.588 102.017 180.213 102.165C179.841 102.31 179.417 102.382 178.939 102.382ZM188.066 97.3026L186.911 97.5071C186.863 97.3594 186.786 97.2187 186.681 97.0852C186.579 96.9517 186.44 96.8423 186.263 96.7571C186.087 96.6719 185.867 96.6293 185.603 96.6293C185.242 96.6293 184.941 96.7102 184.7 96.8722C184.458 97.0312 184.337 97.2372 184.337 97.4901C184.337 97.7088 184.418 97.8849 184.58 98.0185C184.742 98.152 185.004 98.2614 185.364 98.3466L186.404 98.5852C187.006 98.7244 187.455 98.9389 187.751 99.2287C188.046 99.5185 188.194 99.8949 188.194 100.358C188.194 100.75 188.08 101.099 187.853 101.406C187.629 101.71 187.315 101.949 186.911 102.122C186.511 102.295 186.046 102.382 185.518 102.382C184.785 102.382 184.187 102.226 183.724 101.913C183.261 101.598 182.977 101.151 182.871 100.571L184.103 100.384C184.18 100.705 184.337 100.947 184.576 101.112C184.815 101.274 185.126 101.355 185.509 101.355C185.927 101.355 186.261 101.268 186.511 101.095C186.761 100.919 186.886 100.705 186.886 100.452C186.886 100.247 186.809 100.075 186.656 99.9361C186.505 99.7969 186.273 99.6918 185.961 99.6207L184.853 99.3778C184.242 99.2386 183.79 99.017 183.498 98.7131C183.208 98.4091 183.063 98.0241 183.063 97.5582C183.063 97.1719 183.171 96.8338 183.387 96.544C183.603 96.2543 183.901 96.0284 184.282 95.8665C184.663 95.7017 185.099 95.6193 185.59 95.6193C186.298 95.6193 186.854 95.7727 187.261 96.0795C187.667 96.3835 187.935 96.7912 188.066 97.3026ZM192.65 95.7045V96.7273H189.075V95.7045H192.65ZM190.034 94.1364H191.308V100.328C191.308 100.575 191.345 100.761 191.419 100.886C191.493 101.009 191.588 101.092 191.704 101.138C191.824 101.18 191.953 101.202 192.092 101.202C192.194 101.202 192.284 101.195 192.36 101.18C192.437 101.166 192.497 101.155 192.539 101.146L192.77 102.199C192.696 102.227 192.591 102.256 192.454 102.284C192.318 102.315 192.147 102.332 191.943 102.335C191.608 102.341 191.295 102.281 191.005 102.156C190.716 102.031 190.481 101.838 190.302 101.577C190.123 101.315 190.034 100.987 190.034 100.592V94.1364ZM194.06 102.25V95.7045H195.334V102.25H194.06ZM194.703 94.6946C194.482 94.6946 194.291 94.6207 194.132 94.473C193.976 94.3224 193.898 94.1435 193.898 93.9361C193.898 93.7259 193.976 93.5469 194.132 93.3991C194.291 93.2486 194.482 93.1733 194.703 93.1733C194.925 93.1733 195.114 93.2486 195.27 93.3991C195.429 93.5469 195.509 93.7259 195.509 93.9361C195.509 94.1435 195.429 94.3224 195.27 94.473C195.114 94.6207 194.925 94.6946 194.703 94.6946ZM199.805 102.382C199.191 102.382 198.656 102.241 198.199 101.96C197.741 101.679 197.386 101.286 197.133 100.78C196.88 100.274 196.754 99.6832 196.754 99.0071C196.754 98.3281 196.88 97.7344 197.133 97.2259C197.386 96.7173 197.741 96.3224 198.199 96.0412C198.656 95.7599 199.191 95.6193 199.805 95.6193C200.419 95.6193 200.954 95.7599 201.412 96.0412C201.869 96.3224 202.224 96.7173 202.477 97.2259C202.73 97.7344 202.856 98.3281 202.856 99.0071C202.856 99.6832 202.73 100.274 202.477 100.78C202.224 101.286 201.869 101.679 201.412 101.96C200.954 102.241 200.419 102.382 199.805 102.382ZM199.809 101.312C200.207 101.312 200.537 101.207 200.798 100.997C201.059 100.787 201.252 100.507 201.377 100.158C201.505 99.8082 201.569 99.4233 201.569 99.0028C201.569 98.5852 201.505 98.2017 201.377 97.8523C201.252 97.5 201.059 97.2173 200.798 97.0043C200.537 96.7912 200.207 96.6847 199.809 96.6847C199.409 96.6847 199.076 96.7912 198.812 97.0043C198.551 97.2173 198.356 97.5 198.228 97.8523C198.103 98.2017 198.041 98.5852 198.041 99.0028C198.041 99.4233 198.103 99.8082 198.228 100.158C198.356 100.507 198.551 100.787 198.812 100.997C199.076 101.207 199.409 101.312 199.809 101.312ZM205.553 98.3636V102.25H204.278V95.7045H205.501V96.7699H205.582C205.733 96.4233 205.969 96.1449 206.29 95.9347C206.614 95.7244 207.021 95.6193 207.513 95.6193C207.959 95.6193 208.349 95.7131 208.685 95.9006C209.02 96.0852 209.28 96.3608 209.464 96.7273C209.649 97.0937 209.741 97.5469 209.741 98.0866V102.25H208.467V98.2401C208.467 97.7656 208.344 97.3949 208.097 97.1278C207.849 96.858 207.51 96.723 207.078 96.723C206.783 96.723 206.52 96.7869 206.29 96.9148C206.063 97.0426 205.882 97.2301 205.749 97.4773C205.618 97.7216 205.553 98.017 205.553 98.3636ZM213.355 102.395C212.94 102.395 212.565 102.318 212.23 102.165C211.895 102.009 211.629 101.783 211.433 101.487C211.24 101.192 211.143 100.83 211.143 100.401C211.143 100.031 211.214 99.7273 211.357 99.4886C211.499 99.25 211.69 99.0611 211.932 98.9219C212.173 98.7827 212.443 98.6776 212.741 98.6065C213.04 98.5355 213.344 98.4815 213.653 98.4446C214.045 98.3991 214.364 98.3622 214.608 98.3338C214.852 98.3026 215.03 98.2528 215.141 98.1847C215.251 98.1165 215.307 98.0057 215.307 97.8523V97.8224C215.307 97.4503 215.202 97.1619 214.991 96.9574C214.784 96.7528 214.474 96.6506 214.062 96.6506C213.634 96.6506 213.295 96.7457 213.048 96.9361C212.804 97.1236 212.635 97.3324 212.541 97.5625L211.344 97.2898C211.486 96.892 211.693 96.571 211.966 96.3267C212.241 96.0795 212.558 95.9006 212.916 95.7898C213.274 95.6761 213.651 95.6193 214.045 95.6193C214.307 95.6193 214.584 95.6506 214.876 95.7131C215.172 95.7727 215.447 95.8835 215.703 96.0455C215.962 96.2074 216.173 96.4389 216.338 96.7401C216.503 97.0384 216.585 97.4261 216.585 97.9034V102.25H215.341V101.355H215.29C215.207 101.52 215.084 101.682 214.919 101.841C214.754 102 214.543 102.132 214.284 102.237C214.026 102.342 213.716 102.395 213.355 102.395ZM213.632 101.372C213.984 101.372 214.286 101.303 214.536 101.163C214.788 101.024 214.98 100.842 215.111 100.618C215.244 100.391 215.311 100.148 215.311 99.8892V99.0455C215.266 99.0909 215.178 99.1335 215.047 99.1733C214.919 99.2102 214.773 99.2429 214.608 99.2713C214.443 99.2969 214.283 99.321 214.126 99.3438C213.97 99.3636 213.839 99.3807 213.734 99.3949C213.487 99.4261 213.261 99.4787 213.057 99.5526C212.855 99.6264 212.693 99.733 212.571 99.8722C212.452 100.009 212.392 100.19 212.392 100.418C212.392 100.733 212.509 100.972 212.741 101.134C212.974 101.293 213.271 101.372 213.632 101.372ZM213.585 94.831L214.582 92.8665H215.925L214.604 94.831H213.585ZM218.282 102.25V95.7045H219.514V96.7443H219.582C219.701 96.392 219.912 96.1151 220.213 95.9134C220.517 95.7088 220.86 95.6065 221.244 95.6065C221.324 95.6065 221.417 95.6094 221.525 95.6151C221.636 95.6207 221.723 95.6278 221.785 95.6364V96.8551C221.734 96.8409 221.643 96.8253 221.512 96.8082C221.382 96.7884 221.251 96.7784 221.12 96.7784C220.819 96.7784 220.551 96.8423 220.315 96.9702C220.082 97.0952 219.897 97.2699 219.761 97.4943C219.625 97.7159 219.556 97.9687 219.556 98.2528V102.25H218.282ZM222.888 102.25V95.7045H224.162V102.25H222.888ZM223.531 94.6946C223.31 94.6946 223.119 94.6207 222.96 94.473C222.804 94.3224 222.726 94.1435 222.726 93.9361C222.726 93.7259 222.804 93.5469 222.96 93.3991C223.119 93.2486 223.31 93.1733 223.531 93.1733C223.753 93.1733 223.942 93.2486 224.098 93.3991C224.257 93.5469 224.337 93.7259 224.337 93.9361C224.337 94.1435 224.257 94.3224 224.098 94.473C223.942 94.6207 223.753 94.6946 223.531 94.6946ZM228.633 102.382C228.02 102.382 227.484 102.241 227.027 101.96C226.569 101.679 226.214 101.286 225.961 100.78C225.708 100.274 225.582 99.6832 225.582 99.0071C225.582 98.3281 225.708 97.7344 225.961 97.2259C226.214 96.7173 226.569 96.3224 227.027 96.0412C227.484 95.7599 228.02 95.6193 228.633 95.6193C229.247 95.6193 229.782 95.7599 230.24 96.0412C230.697 96.3224 231.052 96.7173 231.305 97.2259C231.558 97.7344 231.684 98.3281 231.684 99.0071C231.684 99.6832 231.558 100.274 231.305 100.78C231.052 101.286 230.697 101.679 230.24 101.96C229.782 102.241 229.247 102.382 228.633 102.382ZM228.637 101.312C229.035 101.312 229.365 101.207 229.626 100.997C229.887 100.787 230.081 100.507 230.206 100.158C230.333 99.8082 230.397 99.4233 230.397 99.0028C230.397 98.5852 230.333 98.2017 230.206 97.8523C230.081 97.5 229.887 97.2173 229.626 97.0043C229.365 96.7912 229.035 96.6847 228.637 96.6847C228.237 96.6847 227.904 96.7912 227.64 97.0043C227.379 97.2173 227.184 97.5 227.056 97.8523C226.931 98.2017 226.869 98.5852 226.869 99.0028C226.869 99.4233 226.931 99.8082 227.056 100.158C227.184 100.507 227.379 100.787 227.64 100.997C227.904 101.207 228.237 101.312 228.637 101.312ZM238.011 97.3026L236.857 97.5071C236.808 97.3594 236.732 97.2187 236.626 97.0852C236.524 96.9517 236.385 96.8423 236.209 96.7571C236.033 96.6719 235.813 96.6293 235.548 96.6293C235.188 96.6293 234.886 96.7102 234.645 96.8722C234.403 97.0312 234.283 97.2372 234.283 97.4901C234.283 97.7088 234.364 97.8849 234.526 98.0185C234.688 98.152 234.949 98.2614 235.31 98.3466L236.349 98.5852C236.952 98.7244 237.401 98.9389 237.696 99.2287C237.991 99.5185 238.139 99.8949 238.139 100.358C238.139 100.75 238.026 101.099 237.798 101.406C237.574 101.71 237.26 101.949 236.857 102.122C236.456 102.295 235.991 102.382 235.463 102.382C234.73 102.382 234.132 102.226 233.669 101.913C233.206 101.598 232.922 101.151 232.817 100.571L234.048 100.384C234.125 100.705 234.283 100.947 234.521 101.112C234.76 101.274 235.071 101.355 235.455 101.355C235.872 101.355 236.206 101.268 236.456 101.095C236.706 100.919 236.831 100.705 236.831 100.452C236.831 100.247 236.754 100.075 236.601 99.9361C236.45 99.7969 236.219 99.6918 235.906 99.6207L234.798 99.3778C234.188 99.2386 233.736 99.017 233.443 98.7131C233.153 98.4091 233.009 98.0241 233.009 97.5582C233.009 97.1719 233.116 96.8338 233.332 96.544C233.548 96.2543 233.847 96.0284 234.227 95.8665C234.608 95.7017 235.044 95.6193 235.536 95.6193C236.243 95.6193 236.8 95.7727 237.206 96.0795C237.612 96.3835 237.881 96.7912 238.011 97.3026ZM245.537 102.382C244.892 102.382 244.337 102.244 243.871 101.969C243.408 101.69 243.05 101.3 242.797 100.797C242.547 100.291 242.422 99.6989 242.422 99.0199C242.422 98.3494 242.547 97.7585 242.797 97.2472C243.05 96.7358 243.402 96.3366 243.854 96.0497C244.308 95.7628 244.839 95.6193 245.447 95.6193C245.817 95.6193 246.175 95.6804 246.521 95.8026C246.868 95.9247 247.179 96.1165 247.455 96.3778C247.73 96.6392 247.947 96.9787 248.107 97.3963C248.266 97.8111 248.345 98.3153 248.345 98.9091V99.3608H243.142V98.4062H247.097C247.097 98.071 247.028 97.7741 246.892 97.5156C246.756 97.2543 246.564 97.0483 246.317 96.8977C246.072 96.7472 245.786 96.6719 245.456 96.6719C245.098 96.6719 244.786 96.7599 244.518 96.9361C244.254 97.1094 244.05 97.3366 243.905 97.6179C243.763 97.8963 243.692 98.1989 243.692 98.5256V99.2713C243.692 99.7088 243.768 100.081 243.922 100.388C244.078 100.695 244.295 100.929 244.574 101.091C244.852 101.25 245.178 101.33 245.55 101.33C245.791 101.33 246.011 101.295 246.21 101.227C246.409 101.156 246.581 101.051 246.726 100.912C246.871 100.773 246.982 100.601 247.058 100.396L248.264 100.614C248.168 100.969 247.994 101.28 247.744 101.547C247.497 101.811 247.186 102.017 246.811 102.165C246.439 102.31 246.014 102.382 245.537 102.382ZM255.692 102.382C255.058 102.382 254.513 102.239 254.055 101.952C253.601 101.662 253.251 101.263 253.007 100.754C252.763 100.246 252.641 99.6634 252.641 99.0071C252.641 98.3423 252.766 97.7557 253.016 97.2472C253.266 96.7358 253.618 96.3366 254.072 96.0497C254.527 95.7628 255.063 95.6193 255.679 95.6193C256.176 95.6193 256.619 95.7116 257.009 95.8963C257.398 96.0781 257.712 96.3338 257.95 96.6634C258.192 96.9929 258.335 97.3778 258.381 97.8182H257.141C257.072 97.5114 256.916 97.2472 256.672 97.0256C256.43 96.804 256.107 96.6932 255.7 96.6932C255.345 96.6932 255.034 96.7869 254.767 96.9744C254.503 97.1591 254.297 97.4233 254.149 97.767C254.001 98.108 253.928 98.5114 253.928 98.9773C253.928 99.4545 254 99.8665 254.145 100.213C254.29 100.56 254.494 100.828 254.759 101.018C255.026 101.209 255.339 101.304 255.7 101.304C255.942 101.304 256.161 101.26 256.357 101.172C256.555 101.081 256.722 100.952 256.855 100.784C256.991 100.616 257.087 100.415 257.141 100.179H258.381C258.335 100.602 258.197 100.98 257.967 101.312C257.737 101.645 257.429 101.906 257.043 102.097C256.659 102.287 256.209 102.382 255.692 102.382ZM262.5 102.382C261.887 102.382 261.351 102.241 260.894 101.96C260.436 101.679 260.081 101.286 259.828 100.78C259.576 100.274 259.449 99.6832 259.449 99.0071C259.449 98.3281 259.576 97.7344 259.828 97.2259C260.081 96.7173 260.436 96.3224 260.894 96.0412C261.351 95.7599 261.887 95.6193 262.5 95.6193C263.114 95.6193 263.65 95.7599 264.107 96.0412C264.564 96.3224 264.919 96.7173 265.172 97.2259C265.425 97.7344 265.551 98.3281 265.551 99.0071C265.551 99.6832 265.425 100.274 265.172 100.78C264.919 101.286 264.564 101.679 264.107 101.96C263.65 102.241 263.114 102.382 262.5 102.382ZM262.505 101.312C262.902 101.312 263.232 101.207 263.493 100.997C263.755 100.787 263.948 100.507 264.073 100.158C264.201 99.8082 264.265 99.4233 264.265 99.0028C264.265 98.5852 264.201 98.2017 264.073 97.8523C263.948 97.5 263.755 97.2173 263.493 97.0043C263.232 96.7912 262.902 96.6847 262.505 96.6847C262.104 96.6847 261.772 96.7912 261.507 97.0043C261.246 97.2173 261.051 97.5 260.924 97.8523C260.799 98.2017 260.736 98.5852 260.736 99.0028C260.736 99.4233 260.799 99.8082 260.924 100.158C261.051 100.507 261.246 100.787 261.507 100.997C261.772 101.207 262.104 101.312 262.505 101.312ZM268.248 98.3636V102.25H266.974V95.7045H268.197V96.7699H268.278C268.428 96.4233 268.664 96.1449 268.985 95.9347C269.309 95.7244 269.717 95.6193 270.208 95.6193C270.654 95.6193 271.045 95.7131 271.38 95.9006C271.715 96.0852 271.975 96.3608 272.16 96.7273C272.344 97.0937 272.437 97.5469 272.437 98.0866V102.25H271.163V98.2401C271.163 97.7656 271.039 97.3949 270.792 97.1278C270.545 96.858 270.205 96.723 269.773 96.723C269.478 96.723 269.215 96.7869 268.985 96.9148C268.758 97.0426 268.577 97.2301 268.444 97.4773C268.313 97.7216 268.248 98.017 268.248 98.3636ZM277.201 95.7045V96.7273H273.626V95.7045H277.201ZM274.585 94.1364H275.859V100.328C275.859 100.575 275.896 100.761 275.969 100.886C276.043 101.009 276.138 101.092 276.255 101.138C276.374 101.18 276.504 101.202 276.643 101.202C276.745 101.202 276.835 101.195 276.911 101.18C276.988 101.166 277.048 101.155 277.09 101.146L277.32 102.199C277.246 102.227 277.141 102.256 277.005 102.284C276.869 102.315 276.698 102.332 276.494 102.335C276.158 102.341 275.846 102.281 275.556 102.156C275.266 102.031 275.032 101.838 274.853 101.577C274.674 101.315 274.585 100.987 274.585 100.592V94.1364ZM281.361 102.382C280.716 102.382 280.161 102.244 279.695 101.969C279.232 101.69 278.874 101.3 278.621 100.797C278.371 100.291 278.246 99.6989 278.246 99.0199C278.246 98.3494 278.371 97.7585 278.621 97.2472C278.874 96.7358 279.226 96.3366 279.678 96.0497C280.132 95.7628 280.664 95.6193 281.272 95.6193C281.641 95.6193 281.999 95.6804 282.346 95.8026C282.692 95.9247 283.003 96.1165 283.279 96.3778C283.554 96.6392 283.772 96.9787 283.931 97.3963C284.09 97.8111 284.169 98.3153 284.169 98.9091V99.3608H278.966V98.4062H282.921C282.921 98.071 282.853 97.7741 282.716 97.5156C282.58 97.2543 282.388 97.0483 282.141 96.8977C281.897 96.7472 281.61 96.6719 281.28 96.6719C280.922 96.6719 280.61 96.7599 280.343 96.9361C280.078 97.1094 279.874 97.3366 279.729 97.6179C279.587 97.8963 279.516 98.1989 279.516 98.5256V99.2713C279.516 99.7088 279.593 100.081 279.746 100.388C279.902 100.695 280.12 100.929 280.398 101.091C280.676 101.25 281.002 101.33 281.374 101.33C281.615 101.33 281.836 101.295 282.034 101.227C282.233 101.156 282.405 101.051 282.55 100.912C282.695 100.773 282.806 100.601 282.882 100.396L284.088 100.614C283.992 100.969 283.819 101.28 283.569 101.547C283.321 101.811 283.01 102.017 282.635 102.165C282.263 102.31 281.838 102.382 281.361 102.382ZM289.729 99.5355V95.7045H291.008V102.25H289.755V101.116H289.687C289.536 101.466 289.295 101.757 288.962 101.99C288.633 102.22 288.222 102.335 287.731 102.335C287.31 102.335 286.938 102.243 286.614 102.058C286.293 101.871 286.04 101.594 285.856 101.227C285.674 100.861 285.583 100.408 285.583 99.8679V95.7045H286.857V99.7145C286.857 100.161 286.981 100.516 287.228 100.78C287.475 101.044 287.796 101.176 288.191 101.176C288.43 101.176 288.667 101.116 288.903 100.997C289.141 100.878 289.339 100.697 289.495 100.456C289.654 100.214 289.732 99.9077 289.729 99.5355ZM287.778 94.831L288.775 92.8665H290.117L288.796 94.831H287.778ZM295.17 102.378C294.642 102.378 294.17 102.243 293.755 101.973C293.343 101.7 293.02 101.312 292.784 100.81C292.551 100.304 292.434 99.6974 292.434 98.9901C292.434 98.2827 292.552 97.6776 292.788 97.1747C293.027 96.6719 293.353 96.2869 293.768 96.0199C294.183 95.7528 294.653 95.6193 295.179 95.6193C295.585 95.6193 295.912 95.6875 296.159 95.8239C296.409 95.9574 296.602 96.1136 296.738 96.2926C296.877 96.4716 296.985 96.6293 297.062 96.7656H297.139V93.5227H298.413V102.25H297.169V101.232H297.062C296.985 101.371 296.875 101.53 296.73 101.709C296.588 101.888 296.392 102.044 296.142 102.178C295.892 102.311 295.568 102.378 295.17 102.378ZM295.451 101.291C295.818 101.291 296.127 101.195 296.38 101.001C296.636 100.805 296.829 100.534 296.96 100.188C297.093 99.8409 297.16 99.4375 297.16 98.9773C297.16 98.5227 297.095 98.125 296.964 97.7841C296.833 97.4432 296.642 97.1776 296.389 96.9872C296.136 96.7969 295.824 96.7017 295.451 96.7017C295.068 96.7017 294.748 96.8011 294.493 97C294.237 97.1989 294.044 97.4702 293.913 97.8139C293.785 98.1577 293.721 98.5455 293.721 98.9773C293.721 99.4148 293.787 99.8082 293.917 100.158C294.048 100.507 294.241 100.784 294.497 100.989C294.755 101.19 295.074 101.291 295.451 101.291ZM302.989 102.382C302.375 102.382 301.839 102.241 301.382 101.96C300.925 101.679 300.57 101.286 300.317 100.78C300.064 100.274 299.938 99.6832 299.938 99.0071C299.938 98.3281 300.064 97.7344 300.317 97.2259C300.57 96.7173 300.925 96.3224 301.382 96.0412C301.839 95.7599 302.375 95.6193 302.989 95.6193C303.602 95.6193 304.138 95.7599 304.595 96.0412C305.053 96.3224 305.408 96.7173 305.661 97.2259C305.913 97.7344 306.04 98.3281 306.04 99.0071C306.04 99.6832 305.913 100.274 305.661 100.78C305.408 101.286 305.053 101.679 304.595 101.96C304.138 102.241 303.602 102.382 302.989 102.382ZM302.993 101.312C303.391 101.312 303.72 101.207 303.982 100.997C304.243 100.787 304.436 100.507 304.561 100.158C304.689 99.8082 304.753 99.4233 304.753 99.0028C304.753 98.5852 304.689 98.2017 304.561 97.8523C304.436 97.5 304.243 97.2173 303.982 97.0043C303.72 96.7912 303.391 96.6847 302.993 96.6847C302.592 96.6847 302.26 96.7912 301.996 97.0043C301.734 97.2173 301.54 97.5 301.412 97.8523C301.287 98.2017 301.224 98.5852 301.224 99.0028C301.224 99.4233 301.287 99.8082 301.412 100.158C301.54 100.507 301.734 100.787 301.996 100.997C302.26 101.207 302.592 101.312 302.993 101.312ZM312.367 97.3026L311.212 97.5071C311.164 97.3594 311.087 97.2187 310.982 97.0852C310.88 96.9517 310.74 96.8423 310.564 96.7571C310.388 96.6719 310.168 96.6293 309.904 96.6293C309.543 96.6293 309.242 96.7102 309 96.8722C308.759 97.0312 308.638 97.2372 308.638 97.4901C308.638 97.7088 308.719 97.8849 308.881 98.0185C309.043 98.152 309.304 98.2614 309.665 98.3466L310.705 98.5852C311.307 98.7244 311.756 98.9389 312.051 99.2287C312.347 99.5185 312.495 99.8949 312.495 100.358C312.495 100.75 312.381 101.099 312.154 101.406C311.929 101.71 311.615 101.949 311.212 102.122C310.811 102.295 310.347 102.382 309.819 102.382C309.086 102.382 308.488 102.226 308.025 101.913C307.561 101.598 307.277 101.151 307.172 100.571L308.404 100.384C308.48 100.705 308.638 100.947 308.877 101.112C309.115 101.274 309.426 101.355 309.81 101.355C310.228 101.355 310.561 101.268 310.811 101.095C311.061 100.919 311.186 100.705 311.186 100.452C311.186 100.247 311.11 100.075 310.956 99.9361C310.806 99.7969 310.574 99.6918 310.262 99.6207L309.154 99.3778C308.543 99.2386 308.091 99.017 307.799 98.7131C307.509 98.4091 307.364 98.0241 307.364 97.5582C307.364 97.1719 307.472 96.8338 307.688 96.544C307.904 96.2543 308.202 96.0284 308.583 95.8665C308.963 95.7017 309.4 95.6193 309.891 95.6193C310.598 95.6193 311.155 95.7727 311.561 96.0795C311.968 96.3835 312.236 96.7912 312.367 97.3026Z" fill="white"/>
</svg>
