<svg width="268" height="1103" viewBox="0 0 268 1103" fill="none" xmlns="http://www.w3.org/2000/svg">
<g filter="url(#filter0_d_11230_14741)">
<rect width="138" height="1103" fill="white"/>
<path fill-rule="evenodd" clip-rule="evenodd" d="M69.6187 64.6073C68.3896 65.4083 66.6691 67.0933 65.8722 68.2768C65.1272 69.3833 64.2404 71.2868 63.8923 72.5271C63.7391 73.0728 63.5447 74.2041 63.4602 75.041C63.2707 76.916 63.5144 78.9171 64.1492 80.7006C64.3752 81.3355 64.5904 81.9492 64.6273 82.0643C64.6765 82.2177 64.4889 82.3637 63.9239 82.6118C61.9892 83.4615 60.7501 83.683 58.2661 83.6232L56.2763 83.5752L56.1594 84.214C56.0767 84.6656 56.0879 84.8982 56.1975 85.0079C56.3048 85.1152 57.0951 85.1628 58.7607 85.1626C61.4502 85.162 62.2957 85.0042 64.429 84.1045C65.3074 83.7341 65.5453 83.6781 65.6264 83.8232C65.951 84.4031 67.0405 85.7043 67.7839 86.3997C68.3613 86.9398 68.6446 87.3051 68.6446 87.5097C68.6446 88.3221 67.6071 91.1832 67.3126 91.1832C67.2331 91.1832 66.6705 91.0076 66.0624 90.793C62.3137 89.4699 58.3111 89.7693 54.8034 91.6352C53.4247 92.3686 52.4422 93.1228 51.231 94.377C50.4073 95.2298 48.956 97.2223 49.0827 97.3259C49.3433 97.5389 50.5214 98.1244 51.3388 98.4472C54.8341 99.8279 59.0961 99.6595 62.4939 98.0066C64.418 97.0706 66.3115 95.5294 67.6067 93.8451L67.9509 93.3977L68.5954 93.8365C70.2636 94.9721 72.0925 97.2684 72.8361 99.1604C73.0552 99.7178 73.2505 100.035 73.351 99.9969C73.4399 99.9627 73.757 99.8615 74.0557 99.7721C74.4007 99.6687 74.5987 99.5314 74.5987 99.3952C74.5987 98.8955 73.1235 96.2261 72.26 95.1633C71.4757 94.1981 70.05 92.8916 69.0714 92.2417L68.7727 92.0433L69.2467 90.9521C69.5077 90.3519 69.8539 89.3189 70.0164 88.6567C70.201 87.904 70.3947 87.4061 70.5328 87.3287C70.8983 87.1241 72.6211 86.7237 73.5538 86.6265L74.4273 86.5353L74.5901 87.5692C75.2819 91.9643 78.1554 95.9293 82.0744 97.8965C83.9316 98.8289 86.123 99.3866 87.929 99.3866H88.9249L88.8329 98.2289C88.5916 95.193 87.6178 92.6281 85.8188 90.2905C84.5821 88.6836 82.3358 86.9614 80.4048 86.1397C79.2986 85.6689 77.1566 85.0968 76.5003 85.0968C76.0591 85.0968 76.0541 85.0901 76.0541 84.4958C76.0541 82.5617 77.0934 79.8424 78.6014 77.8312L79.1383 77.115L78.5555 76.6108L77.9727 76.1065L77.6665 76.4668C76.6904 77.6157 75.7985 79.2004 75.2182 80.8165C74.8408 81.8677 74.4664 83.6684 74.4664 84.4326V84.9298L73.2829 85.0816C72.6321 85.1651 71.5892 85.3813 70.9655 85.562C70.3418 85.7428 69.7563 85.8907 69.6645 85.8907C69.3335 85.8907 66.9245 83.2132 66.9245 82.8454C66.9245 82.7934 67.3684 82.3836 67.911 81.9348C70.9011 79.4615 72.877 75.218 72.877 71.2701C72.877 70.0867 72.5421 68.1 72.1411 66.9037C71.7711 65.8004 70.9884 64.133 70.7797 64.0041C70.7133 63.9631 70.1909 64.2345 69.6187 64.6073ZM70.4955 66.9302C71.0578 68.433 71.207 69.3432 71.207 71.2701C71.207 72.565 71.1396 73.3953 70.9831 74.0292C70.3289 76.6775 68.894 79.0449 66.9359 80.7064L66.0871 81.4266L65.8319 80.7808C65.2185 79.229 65.0364 78.212 65.0294 76.298C65.0193 73.5535 65.6138 71.5302 67.0697 69.3537C67.7642 68.3153 69.8054 66.176 70.1015 66.176C70.163 66.176 70.3403 66.5154 70.4955 66.9302ZM77.8824 86.9503C82.2896 88.0068 85.8973 91.6963 86.9694 96.2435C87.21 97.2641 87.2216 97.7998 87.003 97.796C86.3395 97.7846 84.2892 97.1761 83.2414 96.6798C81.599 95.9018 80.5579 95.1467 79.3515 93.8583C77.8096 92.2118 76.6988 90.0971 76.2637 87.9802C76.1485 87.4193 76.0541 86.8983 76.0541 86.8224C76.0541 86.6147 76.6592 86.657 77.8824 86.9503ZM63.8416 91.7883C64.8391 91.9943 66.2299 92.4488 66.4359 92.636C66.5928 92.7786 64.6272 94.8151 63.6933 95.4774C62.573 96.272 61.1852 96.9423 59.8177 97.3493C58.4128 97.7674 55.8429 97.9239 54.4278 97.6774C53.427 97.5032 51.4879 96.9187 51.3912 96.7622C51.2736 96.5719 52.5089 95.1689 53.4861 94.3827C55.1128 93.0741 56.9052 92.2006 58.7872 91.7993C60.0385 91.5324 62.5762 91.527 63.8416 91.7883Z" fill="#00C4CF"/>
<g filter="url(#filter1_dd_11230_14741)">
<rect x="40" y="245" width="58" height="56" rx="12" fill="#00BAC9" shape-rendering="crispEdges"/>
<path d="M64.174 261.334H58.399C57.2585 261.334 56.334 262.259 56.334 263.399V269.174C56.334 270.314 57.2585 271.239 58.399 271.239H64.174C65.3145 271.239 66.239 270.314 66.239 269.174V263.399C66.239 262.259 65.3145 261.334 64.174 261.334Z" fill="white"/>
<g opacity="0.3">
<path d="M77.6017 261.334H71.8267C70.6863 261.334 69.7617 262.259 69.7617 263.399V269.174C69.7617 270.314 70.6863 271.239 71.8267 271.239H77.6017C78.7422 271.239 79.6667 270.314 79.6667 269.174V263.399C79.6667 262.259 78.7422 261.334 77.6017 261.334Z" fill="white"/>
</g>
<path d="M77.5907 274.751H71.8157C70.6753 274.751 69.7507 275.676 69.7507 276.816V282.591C69.7507 283.731 70.6753 284.656 71.8157 284.656H77.5907C78.7312 284.656 79.6557 283.731 79.6557 282.591V276.816C79.6557 275.676 78.7312 274.751 77.5907 274.751Z" fill="white"/>
<g opacity="0.3">
<path d="M64.1742 274.751H58.3992C57.2588 274.751 56.3342 275.676 56.3342 276.816V282.591C56.3342 283.731 57.2588 284.656 58.3992 284.656H64.1742C65.3147 284.656 66.2392 283.731 66.2392 282.591V276.816C66.2392 275.676 65.3147 274.751 64.1742 274.751Z" fill="white"/>
</g>
</g>
<g opacity="0.3">
<path d="M68 348.906C71.1959 348.906 73.7867 346.316 73.7867 343.12C73.7867 339.924 71.1959 337.333 68 337.333C64.8042 337.333 62.2134 339.924 62.2134 343.12C62.2134 346.316 64.8042 348.906 68 348.906Z" fill="#A1A1AA"/>
</g>
<path d="M76.9833 360.666C77.174 360.677 77.3648 360.646 77.5428 360.577C77.7207 360.507 77.8815 360.4 78.0144 360.263C78.1472 360.126 78.2489 359.961 78.3126 359.781C78.3763 359.601 78.4004 359.41 78.3833 359.219C77.6366 354.833 73.2733 351.461 68 351.461C62.7266 351.461 58.3633 354.833 57.6166 359.219C57.5996 359.41 57.6237 359.601 57.6874 359.781C57.751 359.961 57.8527 360.126 57.9856 360.263C58.1184 360.4 58.2793 360.507 58.4572 360.577C58.6351 360.646 58.8259 360.677 59.0166 360.666H76.9833Z" fill="#A1A1AA"/>
<path opacity="0.3" d="M57.2668 423.671V430.297C57.2606 431.132 57.4196 431.959 57.7346 432.731C58.0497 433.504 58.5145 434.207 59.1023 434.799C59.69 435.391 60.3892 435.861 61.1594 436.181C61.9297 436.502 62.7558 436.667 63.5901 436.667H72.4101C73.2405 436.667 74.0628 436.504 74.8299 436.186C75.5971 435.868 76.2942 435.402 76.8814 434.815C77.4686 434.228 77.9343 433.531 78.2521 432.764C78.5699 431.997 78.7334 431.174 78.7334 430.344V423.671C78.7334 423.417 78.6327 423.173 78.4532 422.994C78.2738 422.815 78.0305 422.714 77.7768 422.714H58.2234C57.9697 422.714 57.7264 422.815 57.547 422.994C57.3676 423.173 57.2668 423.417 57.2668 423.671Z" fill="#A1A1AA"/>
<path d="M78.3251 419.809C78.38 419.954 78.3987 420.11 78.3798 420.264C78.3608 420.418 78.3047 420.565 78.2163 420.692C78.1279 420.82 78.0099 420.924 77.8723 420.996C77.7348 421.067 77.5819 421.104 77.4268 421.104H58.7601C58.573 421.099 58.3896 421.05 58.2254 420.96C58.0613 420.87 57.9213 420.742 57.8172 420.586C57.713 420.431 57.6479 420.252 57.6272 420.066C57.6066 419.88 57.631 419.692 57.6985 419.517C58.0487 418.673 58.5772 417.916 59.2478 417.295C59.9183 416.675 60.7151 416.207 61.5835 415.924V414.092C61.5925 413.888 61.68 413.695 61.8278 413.554C61.9757 413.412 62.1723 413.334 62.3768 413.334C62.5903 413.334 62.795 413.419 62.946 413.57C63.097 413.721 63.1818 413.925 63.1818 414.139V415.667C63.3101 415.667 63.4268 415.667 63.5551 415.667H67.3701V414.092C67.3701 413.879 67.4549 413.674 67.6059 413.523C67.7569 413.372 67.9616 413.287 68.1751 413.287C68.3886 413.287 68.5934 413.372 68.7443 413.523C68.8953 413.674 68.9801 413.879 68.9801 414.092V415.585H72.3635C72.4918 415.585 72.6085 415.585 72.7368 415.585V414.092C72.7458 413.888 72.8334 413.695 72.9812 413.554C73.129 413.412 73.3256 413.334 73.5301 413.334C73.7436 413.334 73.9484 413.419 74.0993 413.57C74.2503 413.721 74.3351 413.925 74.3351 414.139V415.924C75.2526 416.224 76.0892 416.73 76.7808 417.403C77.4725 418.077 78.0007 418.9 78.3251 419.809Z" fill="#A1A1AA"/>
<path d="M64.1852 428.103C64.7393 428.103 65.1886 427.659 65.1886 427.112C65.1886 426.564 64.7393 426.12 64.1852 426.12C63.6311 426.12 63.1819 426.564 63.1819 427.112C63.1819 427.659 63.6311 428.103 64.1852 428.103Z" fill="#A1A1AA"/>
<path d="M67.9301 428.103C68.4842 428.103 68.9334 427.659 68.9334 427.112C68.9334 426.564 68.4842 426.12 67.9301 426.12C67.376 426.12 66.9268 426.564 66.9268 427.112C66.9268 427.659 67.376 428.103 67.9301 428.103Z" fill="#A1A1AA"/>
<path d="M64.1735 431.837C64.7276 431.837 65.1768 431.393 65.1768 430.845C65.1768 430.298 64.7276 429.854 64.1735 429.854C63.6194 429.854 63.1702 430.298 63.1702 430.845C63.1702 431.393 63.6194 431.837 64.1735 431.837Z" fill="black"/>
<path opacity="0.3" d="M64.5349 500.3C67.589 500.3 70.0649 497.845 70.0649 494.816C70.0649 491.788 67.589 489.333 64.5349 489.333C61.4807 489.333 59.0049 491.788 59.0049 494.816C59.0049 497.845 61.4807 500.3 64.5349 500.3Z" fill="#A1A1AA"/>
<path d="M64.5349 512.666C69.0646 512.666 72.7366 510.211 72.7366 507.183C72.7366 504.154 69.0646 501.699 64.5349 501.699C60.0053 501.699 56.3333 504.154 56.3333 507.183C56.3333 510.211 60.0053 512.666 64.5349 512.666Z" fill="#A1A1AA"/>
<g opacity="0.3">
<path d="M73.1217 491.666C72.4799 491.667 71.8462 491.81 71.2667 492.086C71.7557 493.273 71.9141 494.57 71.7251 495.839C71.5361 497.109 71.0068 498.303 70.1934 499.296C70.7211 499.777 71.3582 500.121 72.0492 500.3C72.7403 500.478 73.4645 500.486 74.1591 500.321C74.8536 500.156 75.4974 499.825 76.0347 499.355C76.572 498.885 76.9865 498.291 77.2423 497.624C77.498 496.958 77.5873 496.239 77.5024 495.531C77.4174 494.822 77.1608 494.145 76.7548 493.558C76.3488 492.971 75.8057 492.491 75.1726 492.162C74.5395 491.832 73.8355 491.662 73.1217 491.666Z" fill="#A1A1AA"/>
</g>
<path d="M73.1217 501.583C72.4672 501.582 71.8143 501.649 71.1733 501.781C72.1371 502.327 72.9459 503.11 73.5236 504.055C74.1012 505 74.4287 506.076 74.475 507.183C74.4698 508.306 74.1329 509.401 73.5067 510.333C76.9367 510.205 79.6667 508.303 79.6667 505.97C79.6667 503.636 76.7383 501.583 73.1217 501.583Z" fill="#A1A1AA"/>
<path opacity="0.3" d="M78.2433 588.807H57.7566C57.5245 588.807 57.302 588.714 57.1379 588.55C56.9738 588.386 56.8816 588.164 56.8816 587.932C56.8816 587.7 56.9738 587.477 57.1379 587.313C57.302 587.149 57.5245 587.057 57.7566 587.057H78.2433C78.4753 587.057 78.6979 587.149 78.862 587.313C79.0261 587.477 79.1183 587.7 79.1183 587.932C79.1183 588.164 79.0261 588.386 78.862 588.55C78.6979 588.714 78.4753 588.807 78.2433 588.807Z" fill="#A1A1AA"/>
<g opacity="0.3">
<path d="M68.0233 570.245H66.9033C66.143 570.245 65.5266 570.861 65.5266 571.622V583.953C65.5266 584.714 66.143 585.33 66.9033 585.33H68.0233C68.7836 585.33 69.3999 584.714 69.3999 583.953V571.622C69.3999 570.861 68.7836 570.245 68.0233 570.245Z" fill="#A1A1AA"/>
</g>
<path d="M60.44 585.342H61.28C62.1176 585.342 62.7966 584.663 62.7966 583.825V566.722C62.7966 565.884 62.1176 565.205 61.28 565.205H60.44C59.6023 565.205 58.9233 565.884 58.9233 566.722V583.825C58.9233 584.663 59.6023 585.342 60.44 585.342Z" fill="#A1A1AA"/>
<g opacity="0.3">
<path d="M74.6148 576.043H73.4948C72.7345 576.043 72.1182 576.659 72.1182 577.42V583.953C72.1182 584.713 72.7345 585.33 73.4948 585.33H74.6148C75.3751 585.33 75.9915 584.713 75.9915 583.953V577.42C75.9915 576.659 75.3751 576.043 74.6148 576.043Z" fill="#A1A1AA"/>
</g>
<g opacity="0.3">
<path d="M77.0417 655.917H68.2917C67.7502 655.917 67.2309 655.702 66.848 655.319C66.4651 654.936 66.25 654.417 66.25 653.876V652.126C66.25 651.584 66.4651 651.065 66.848 650.682C67.2309 650.299 67.7502 650.084 68.2917 650.084H77.0417C77.5832 650.084 78.1025 650.299 78.4853 650.682C78.8682 651.065 79.0833 651.584 79.0833 652.126V653.876C79.0833 654.417 78.8682 654.936 78.4853 655.319C78.1025 655.702 77.5832 655.917 77.0417 655.917ZM79.0833 662.042V660.292C79.0833 659.751 78.8682 659.232 78.4853 658.849C78.1025 658.466 77.5832 658.251 77.0417 658.251H68.2917C67.7502 658.251 67.2309 658.466 66.848 658.849C66.4651 659.232 66.25 659.751 66.25 660.292V662.042C66.25 662.584 66.4651 663.103 66.848 663.486C67.2309 663.869 67.7502 664.084 68.2917 664.084H77.0417C77.5832 664.084 78.1025 663.869 78.4853 663.486C78.8682 663.103 79.0833 662.584 79.0833 662.042Z" fill="#A1A1AA"/>
</g>
<path d="M77.0417 647.75H58.9584C58.4169 647.75 57.8976 647.535 57.5147 647.152C57.1319 646.769 56.9167 646.25 56.9167 645.709V643.959C56.9167 643.417 57.1319 642.898 57.5147 642.515C57.8976 642.132 58.4169 641.917 58.9584 641.917H77.0417C77.5832 641.917 78.1025 642.132 78.4854 642.515C78.8683 642.898 79.0834 643.417 79.0834 643.959V645.709C79.0834 646.25 78.8683 646.769 78.4854 647.152C78.1025 647.535 77.5832 647.75 77.0417 647.75ZM61.8751 650.084H58.9584C58.4169 650.084 57.8976 650.299 57.5147 650.682C57.1319 651.065 56.9167 651.584 56.9167 652.125V662.042C56.9167 662.583 57.1319 663.103 57.5147 663.486C57.8976 663.869 58.4169 664.084 58.9584 664.084H61.8751C62.4166 664.084 62.9359 663.869 63.3188 663.486C63.7016 663.103 63.9167 662.583 63.9167 662.042V652.125C63.9167 651.584 63.7016 651.065 63.3188 650.682C62.9359 650.299 62.4166 650.084 61.8751 650.084Z" fill="#A1A1AA"/>
<path opacity="0.3" d="M77.5433 725.78H75.9216C75.6326 725.054 75.2396 724.374 74.755 723.762L75.5483 722.385C75.8321 721.888 75.908 721.299 75.7594 720.746C75.6108 720.193 75.2498 719.721 74.755 719.433L72.8533 718.337C72.6075 718.194 72.3361 718.102 72.0546 718.065C71.7731 718.028 71.487 718.047 71.2128 718.121C70.9386 718.194 70.6817 718.321 70.4567 718.495C70.2317 718.668 70.0431 718.884 69.9016 719.13L69.0966 720.53C68.7335 720.475 68.3671 720.444 68 720.437C67.633 720.44 67.2667 720.467 66.9033 720.518L66.1216 719.13C65.8399 718.632 65.372 718.266 64.8207 718.113C64.2694 717.96 63.6798 718.032 63.1816 718.313L61.2683 719.398C60.7703 719.68 60.4045 720.148 60.2513 720.699C60.0982 721.25 60.1702 721.84 60.4516 722.338L61.245 723.75C60.7672 724.359 60.3747 725.03 60.0783 725.745H58.5033C58.219 725.74 57.9366 725.792 57.6728 725.898C57.4089 726.004 57.1689 726.162 56.9668 726.362C56.7646 726.562 56.6045 726.8 56.4957 727.063C56.3869 727.325 56.3317 727.607 56.3333 727.892V730.085C56.3317 730.368 56.3861 730.649 56.4931 730.912C56.6002 731.174 56.7579 731.413 56.9572 731.614C57.1565 731.816 57.3936 731.976 57.6549 732.086C57.9162 732.196 58.1965 732.253 58.48 732.255H60.0783C60.3706 732.972 60.7635 733.644 61.245 734.25L60.44 735.627C60.2981 735.871 60.2061 736.142 60.1692 736.423C60.1324 736.703 60.1513 736.988 60.2251 737.262C60.2988 737.535 60.4258 737.791 60.5989 738.015C60.7719 738.239 60.9875 738.426 61.2333 738.567L63.135 739.675C63.3808 739.817 63.6522 739.909 63.9337 739.946C64.2152 739.983 64.5012 739.964 64.7754 739.891C65.0496 739.817 65.3065 739.69 65.5316 739.517C65.7566 739.344 65.9452 739.128 66.0866 738.882L66.8916 737.482C67.2583 737.538 67.6289 737.565 68 737.563C68.3902 737.56 68.7798 737.533 69.1666 737.482L69.96 738.858C70.1003 739.104 70.2878 739.32 70.5118 739.493C70.7357 739.666 70.9917 739.793 71.2649 739.866C71.5382 739.94 71.8233 739.959 72.1039 739.922C72.3845 739.885 72.655 739.793 72.9 739.652L74.8016 738.555C75.0484 738.416 75.2651 738.229 75.4393 738.005C75.6135 737.782 75.7417 737.526 75.8165 737.253C75.8914 736.979 75.9114 736.694 75.8753 736.413C75.8393 736.132 75.748 735.86 75.6066 735.615L74.8016 734.215C75.2694 733.62 75.6613 732.97 75.9683 732.278H77.5433C78.0998 732.264 78.6297 732.037 79.0245 731.644C79.4192 731.252 79.6489 730.723 79.6666 730.167V727.962C79.6729 727.391 79.453 726.841 79.0551 726.433C78.6572 726.024 78.1137 725.789 77.5433 725.78Z" fill="#A1A1AA"/>
<path d="M67.9882 732.791C70.0823 732.791 71.7799 731.094 71.7799 729C71.7799 726.906 70.0823 725.208 67.9882 725.208C65.8941 725.208 64.1965 726.906 64.1965 729C64.1965 731.094 65.8941 732.791 67.9882 732.791Z" fill="#A1A1AA"/>
<path opacity="0.3" d="M67.9999 816.666C74.4432 816.666 79.6666 811.443 79.6666 805C79.6666 798.556 74.4432 793.333 67.9999 793.333C61.5566 793.333 56.3333 798.556 56.3333 805C56.3333 811.443 61.5566 816.666 67.9999 816.666Z" fill="#A1A1AA"/>
<path d="M67.9998 808.499C67.7677 808.499 67.5452 808.407 67.3811 808.243C67.217 808.079 67.1248 807.856 67.1248 807.624V806.668C67.1139 806.083 67.2679 805.507 67.5692 805.006C67.8704 804.504 68.3067 804.098 68.8281 803.833C69.1338 803.685 69.3943 803.458 69.5825 803.175C69.7707 802.893 69.8799 802.565 69.8986 802.226C69.9173 801.887 69.8449 801.549 69.6889 801.247C69.5328 800.946 69.2989 800.691 69.0114 800.511C68.7239 800.33 68.3932 800.23 68.0538 800.22C67.7144 800.21 67.3786 800.292 67.0813 800.456C66.7839 800.62 66.536 800.86 66.3631 801.153C66.1902 801.445 66.0987 801.778 66.0981 802.118C66.0981 802.35 66.006 802.572 65.8419 802.736C65.6778 802.901 65.4552 802.993 65.2231 802.993C64.9911 802.993 64.7685 802.901 64.6044 802.736C64.4403 802.572 64.3481 802.35 64.3481 802.118C64.3501 801.583 64.4689 801.056 64.6962 800.573C64.9235 800.089 65.2538 799.661 65.664 799.319C66.0742 798.976 66.5543 798.728 67.0706 798.591C67.587 798.453 68.1271 798.431 68.6531 798.524C69.3875 798.663 70.0624 799.021 70.5877 799.553C71.1129 800.084 71.4637 800.763 71.5931 801.499C71.7403 802.286 71.6234 803.099 71.2604 803.812C70.8975 804.526 70.309 805.099 69.5865 805.443C69.3653 805.563 69.1818 805.742 69.0562 805.961C68.9306 806.179 68.8678 806.428 68.8748 806.679V807.636C68.8717 807.866 68.7782 808.086 68.6144 808.247C68.4507 808.409 68.2299 808.499 67.9998 808.499Z" fill="#A1A1AA"/>
<path d="M67.9998 811.521C68.483 811.521 68.8748 811.13 68.8748 810.646C68.8748 810.163 68.483 809.771 67.9998 809.771C67.5165 809.771 67.1248 810.163 67.1248 810.646C67.1248 811.13 67.5165 811.521 67.9998 811.521Z" fill="#A1A1AA"/>
<path opacity="0.3" d="M72.0249 1004C71.9703 1002.77 71.4353 1001.62 70.5357 1000.79C69.6362 999.951 68.4444 999.505 67.2182 999.543H62.1666C60.9325 999.492 59.7287 999.933 58.819 1000.77C57.9092 1001.6 57.3678 1002.77 57.3132 1004V1018C57.3648 1019.24 57.9049 1020.4 58.815 1021.24C59.7251 1022.08 60.9306 1022.52 62.1666 1022.47H67.2649C68.485 1022.49 69.6666 1022.04 70.5563 1021.2C71.4461 1020.37 71.9733 1019.22 72.0249 1018V1004Z" fill="#A1A1AA"/>
<path d="M64.1382 1010.12H75.6999L73.8332 1008.21C73.6693 1008.05 73.5773 1007.82 73.5773 1007.59C73.5773 1007.36 73.6693 1007.14 73.8332 1006.97C73.9136 1006.89 74.0098 1006.83 74.116 1006.78C74.2222 1006.74 74.3363 1006.71 74.4515 1006.71C74.5668 1006.71 74.6809 1006.74 74.7871 1006.78C74.8933 1006.83 74.9894 1006.89 75.0698 1006.97L78.4882 1010.38C78.652 1010.55 78.7441 1010.77 78.7441 1011C78.7441 1011.23 78.652 1011.45 78.4882 1011.62L74.9999 1015.02C74.9195 1015.11 74.8232 1015.17 74.717 1015.22C74.6107 1015.26 74.4966 1015.28 74.3815 1015.28C74.2666 1015.28 74.1526 1015.26 74.0465 1015.22C73.9403 1015.17 73.844 1015.11 73.7632 1015.02C73.5993 1014.86 73.5073 1014.64 73.5073 1014.41C73.5073 1014.17 73.5993 1013.95 73.7632 1013.79L75.6882 1011.87H64.1382C63.9061 1011.87 63.6836 1011.78 63.5195 1011.62C63.3554 1011.45 63.2632 1011.23 63.2632 1011C63.2632 1010.77 63.3554 1010.55 63.5195 1010.38C63.6836 1010.22 63.9061 1010.12 64.1382 1010.12Z" fill="#A1A1AA"/>
</g>
<defs>
<filter id="filter0_d_11230_14741" x="-130" y="-130" width="398" height="1363" filterUnits="userSpaceOnUse" color-interpolation-filters="sRGB">
<feFlood flood-opacity="0" result="BackgroundImageFix"/>
<feColorMatrix in="SourceAlpha" type="matrix" values="0 0 0 0 0 0 0 0 0 0 0 0 0 0 0 0 0 0 127 0" result="hardAlpha"/>
<feMorphology radius="50" operator="dilate" in="SourceAlpha" result="effect1_dropShadow_11230_14741"/>
<feOffset/>
<feGaussianBlur stdDeviation="40"/>
<feColorMatrix type="matrix" values="0 0 0 0 0.806042 0 0 0 0 0.836958 0 0 0 0 0.883333 0 0 0 0.12 0"/>
<feBlend mode="normal" in2="BackgroundImageFix" result="effect1_dropShadow_11230_14741"/>
<feBlend mode="normal" in="SourceGraphic" in2="effect1_dropShadow_11230_14741" result="shape"/>
</filter>
<filter id="filter1_dd_11230_14741" x="18" y="233" width="102" height="102" filterUnits="userSpaceOnUse" color-interpolation-filters="sRGB">
<feFlood flood-opacity="0" result="BackgroundImageFix"/>
<feColorMatrix in="SourceAlpha" type="matrix" values="0 0 0 0 0 0 0 0 0 0 0 0 0 0 0 0 0 0 127 0" result="hardAlpha"/>
<feOffset dy="12"/>
<feGaussianBlur stdDeviation="11"/>
<feComposite in2="hardAlpha" operator="out"/>
<feColorMatrix type="matrix" values="0 0 0 0 0.172549 0 0 0 0 0.603922 0 0 0 0 1 0 0 0 0.12 0"/>
<feBlend mode="normal" in2="BackgroundImageFix" result="effect1_dropShadow_11230_14741"/>
<feColorMatrix in="SourceAlpha" type="matrix" values="0 0 0 0 0 0 0 0 0 0 0 0 0 0 0 0 0 0 127 0" result="hardAlpha"/>
<feOffset dy="4"/>
<feGaussianBlur stdDeviation="8"/>
<feComposite in2="hardAlpha" operator="out"/>
<feColorMatrix type="matrix" values="0 0 0 0 0.072309 0 0 0 0 0.164351 0 0 0 0 0.204167 0 0 0 0.04 0"/>
<feBlend mode="normal" in2="effect1_dropShadow_11230_14741" result="effect2_dropShadow_11230_14741"/>
<feBlend mode="normal" in="SourceGraphic" in2="effect2_dropShadow_11230_14741" result="shape"/>
</filter>
</defs>
</svg>
