<svg width="432" height="183" viewBox="0 0 432 183" fill="none" xmlns="http://www.w3.org/2000/svg">
<rect y="0.5" width="432" height="182.5" rx="12" fill="#00BAC9"/>
<path opacity="0.3" d="M23.5 46.0748V53.1748C23.4934 54.0687 23.6638 54.9551 24.0013 55.7828C24.3388 56.6106 24.8368 57.3634 25.4666 57.9978C26.0964 58.6322 26.8455 59.1357 27.6707 59.4793C28.496 59.8229 29.3811 59.9998 30.275 59.9998H39.725C40.6147 59.9998 41.4957 59.8246 42.3177 59.4841C43.1397 59.1436 43.8865 58.6446 44.5156 58.0155C45.1448 57.3863 45.6438 56.6395 45.9843 55.8175C46.3248 54.9955 46.5 54.1145 46.5 53.2248V46.0748C46.5 45.803 46.392 45.5422 46.1998 45.35C46.0076 45.1578 45.7468 45.0498 45.475 45.0498H24.525C24.2532 45.0498 23.9924 45.1578 23.8002 45.35C23.608 45.5422 23.5 45.803 23.5 46.0748Z" fill="white"/>
<path d="M46.0625 41.9372C46.1213 42.0926 46.1414 42.26 46.1211 42.425C46.1008 42.5899 46.0407 42.7474 45.9459 42.8839C45.8512 43.0205 45.7247 43.1319 45.5774 43.2087C45.43 43.2855 45.2662 43.3253 45.1 43.3247H25.1C24.8995 43.3201 24.703 43.2673 24.5271 43.1708C24.3513 43.0743 24.2012 42.9369 24.0897 42.7702C23.9781 42.6035 23.9083 42.4123 23.8862 42.213C23.8641 42.0136 23.8902 41.8118 23.9625 41.6247C24.3377 40.7208 24.904 39.9088 25.6225 39.2442C26.341 38.5797 27.1946 38.0784 28.125 37.7747V35.8122C28.1347 35.5933 28.2285 35.3866 28.3868 35.2353C28.5452 35.0839 28.7559 34.9995 28.975 34.9997C29.2038 34.9997 29.4231 35.0906 29.5849 35.2523C29.7466 35.4141 29.8375 35.6335 29.8375 35.8622V37.4997C29.975 37.4997 30.1 37.4997 30.2375 37.4997H34.325V35.8122C34.325 35.5835 34.4159 35.3641 34.5776 35.2023C34.7394 35.0406 34.9588 34.9497 35.1875 34.9497C35.4163 34.9497 35.6356 35.0406 35.7974 35.2023C35.9591 35.3641 36.05 35.5835 36.05 35.8122V37.4122H39.675C39.8125 37.4122 39.9375 37.4122 40.075 37.4122V35.8122C40.0847 35.5933 40.1785 35.3866 40.3368 35.2353C40.4952 35.0839 40.7059 34.9995 40.925 34.9997C41.1538 34.9997 41.3731 35.0906 41.5349 35.2523C41.6966 35.4141 41.7875 35.6335 41.7875 35.8622V37.7747C42.7705 38.0962 43.6669 38.6385 44.4079 39.36C45.1489 40.0815 45.7149 40.9631 46.0625 41.9372Z" fill="white"/>
<path d="M30.9125 50.8247C31.5062 50.8247 31.9875 50.349 31.9875 49.7622C31.9875 49.1754 31.5062 48.6997 30.9125 48.6997C30.3188 48.6997 29.8375 49.1754 29.8375 49.7622C29.8375 50.349 30.3188 50.8247 30.9125 50.8247Z" fill="white"/>
<path d="M34.925 50.8247C35.5187 50.8247 36 50.349 36 49.7622C36 49.1754 35.5187 48.6997 34.925 48.6997C34.3313 48.6997 33.85 49.1754 33.85 49.7622C33.85 50.349 34.3313 50.8247 34.925 50.8247Z" fill="white"/>
<path d="M30.9 54.8252C31.4937 54.8252 31.975 54.3495 31.975 53.7627C31.975 53.1759 31.4937 52.7002 30.9 52.7002C30.3063 52.7002 29.825 53.1759 29.825 53.7627C29.825 54.3495 30.3063 54.8252 30.9 54.8252Z" fill="white"/>
<path d="M21.2195 115.636H23.9602L27.6307 124.595H27.7756L31.446 115.636H34.1868V128H32.0376V119.506H31.9229L28.506 127.964H26.9002L23.4833 119.488H23.3686V128H21.2195V115.636ZM36.5291 128V118.727H38.7145V128H36.5291ZM37.6278 117.411C37.2817 117.411 36.9839 117.297 36.7344 117.067C36.4848 116.834 36.3601 116.554 36.3601 116.228C36.3601 115.898 36.4848 115.618 36.7344 115.389C36.9839 115.155 37.2817 115.039 37.6278 115.039C37.978 115.039 38.2758 115.155 38.5213 115.389C38.7708 115.618 38.8956 115.898 38.8956 116.228C38.8956 116.554 38.7708 116.834 38.5213 117.067C38.2758 117.297 37.978 117.411 37.6278 117.411ZM43.1471 122.567V128H40.9617V118.727H43.0505V120.303H43.1592C43.3725 119.784 43.7126 119.371 44.1794 119.065C44.6503 118.759 45.2319 118.607 45.9241 118.607C46.564 118.607 47.1214 118.743 47.5963 119.017C48.0753 119.291 48.4455 119.687 48.7071 120.206C48.9727 120.725 49.1035 121.355 49.0995 122.096V128H46.9142V122.434C46.9142 121.814 46.7532 121.329 46.4312 120.979C46.1133 120.629 45.6726 120.454 45.1091 120.454C44.7268 120.454 44.3867 120.538 44.0889 120.707C43.7951 120.872 43.5637 121.112 43.3946 121.426C43.2296 121.74 43.1471 122.12 43.1471 122.567ZM53.5065 122.567V128H51.3211V115.636H53.4582V120.303H53.5669C53.7842 119.78 54.1202 119.367 54.575 119.065C55.0338 118.759 55.6174 118.607 56.3257 118.607C56.9697 118.607 57.5311 118.741 58.01 119.011C58.489 119.281 58.8592 119.675 59.1208 120.194C59.3865 120.713 59.5193 121.347 59.5193 122.096V128H57.3339V122.434C57.3339 121.81 57.1729 121.325 56.8509 120.979C56.533 120.629 56.0863 120.454 55.5107 120.454C55.1244 120.454 54.7783 120.538 54.4724 120.707C54.1705 120.872 53.9331 121.112 53.76 121.426C53.591 121.74 53.5065 122.12 53.5065 122.567ZM64.4152 128.187C63.8276 128.187 63.2984 128.083 62.8275 127.873C62.3606 127.66 61.9904 127.346 61.7167 126.931C61.4471 126.517 61.3122 126.006 61.3122 125.398C61.3122 124.875 61.4088 124.442 61.602 124.1C61.7952 123.758 62.0588 123.484 62.3928 123.279C62.7269 123.074 63.1032 122.919 63.5218 122.814C63.9443 122.706 64.381 122.627 64.8318 122.579C65.3751 122.522 65.8158 122.472 66.1539 122.428C66.4919 122.38 66.7374 122.307 66.8904 122.211C67.0473 122.11 67.1258 121.955 67.1258 121.746V121.71C67.1258 121.255 66.991 120.903 66.7213 120.653C66.4517 120.404 66.0633 120.279 65.5562 120.279C65.0209 120.279 64.5963 120.395 64.2824 120.629C63.9725 120.862 63.7632 121.138 63.6546 121.456L61.6141 121.166C61.7751 120.603 62.0407 120.132 62.411 119.754C62.7812 119.371 63.234 119.085 63.7693 118.896C64.3045 118.703 64.8962 118.607 65.5441 118.607C65.9909 118.607 66.4356 118.659 66.8783 118.763C67.321 118.868 67.7255 119.041 68.0917 119.283C68.4579 119.52 68.7517 119.844 68.9731 120.255C69.1985 120.665 69.3112 121.178 69.3112 121.794V128H67.2103V126.726H67.1379C67.0051 126.984 66.8179 127.225 66.5764 127.451C66.339 127.672 66.0392 127.851 65.6769 127.988C65.3187 128.121 64.8982 128.187 64.4152 128.187ZM64.9827 126.581C65.4214 126.581 65.8017 126.495 66.1237 126.322C66.4456 126.145 66.6932 125.911 66.8662 125.621C67.0433 125.332 67.1318 125.016 67.1318 124.674V123.581C67.0634 123.637 66.9467 123.69 66.7817 123.738C66.6207 123.786 66.4396 123.828 66.2384 123.865C66.0371 123.901 65.8379 123.933 65.6407 123.961C65.4435 123.989 65.2725 124.014 65.1276 124.034C64.8016 124.078 64.5098 124.15 64.2522 124.251C63.9946 124.352 63.7914 124.493 63.6425 124.674C63.4936 124.851 63.4191 125.08 63.4191 125.362C63.4191 125.764 63.566 126.068 63.8598 126.273C64.1536 126.479 64.5279 126.581 64.9827 126.581ZM78.8374 121.178L76.8453 121.396C76.7889 121.194 76.6903 121.005 76.5494 120.828C76.4126 120.651 76.2275 120.508 75.9941 120.4C75.7606 120.291 75.4749 120.237 75.1368 120.237C74.682 120.237 74.2997 120.335 73.9898 120.532C73.6839 120.73 73.533 120.985 73.537 121.299C73.533 121.569 73.6316 121.788 73.8328 121.957C74.0381 122.126 74.3762 122.265 74.847 122.374L76.4287 122.712C77.3061 122.901 77.9581 123.201 78.3847 123.611C78.8153 124.022 79.0326 124.559 79.0367 125.223C79.0326 125.807 78.8616 126.322 78.5235 126.768C78.1895 127.211 77.7246 127.557 77.129 127.807C76.5334 128.056 75.8492 128.181 75.0764 128.181C73.9415 128.181 73.0279 127.944 72.3357 127.469C71.6434 126.99 71.2309 126.324 71.0981 125.471L73.2291 125.265C73.3257 125.684 73.531 126 73.8449 126.213C74.1588 126.426 74.5673 126.533 75.0704 126.533C75.5896 126.533 76.0061 126.426 76.32 126.213C76.638 126 76.797 125.736 76.797 125.422C76.797 125.157 76.6943 124.937 76.4891 124.764C76.2878 124.591 75.9739 124.458 75.5473 124.366L73.9656 124.034C73.0762 123.849 72.4182 123.537 71.9916 123.098C71.565 122.655 71.3537 122.096 71.3577 121.42C71.3537 120.848 71.5086 120.353 71.8225 119.935C72.1405 119.512 72.5812 119.186 73.1446 118.957C73.7121 118.723 74.3661 118.607 75.1066 118.607C76.1933 118.607 77.0485 118.838 77.6723 119.301C78.3002 119.764 78.6885 120.389 78.8374 121.178ZM89.1002 128.181C88.1746 128.181 87.3797 127.978 86.7156 127.571C86.0556 127.165 85.5465 126.603 85.1883 125.887C84.8341 125.167 84.657 124.338 84.657 123.4C84.657 122.458 84.8382 121.627 85.2004 120.907C85.5626 120.182 86.0737 119.619 86.7338 119.216C87.3978 118.81 88.1826 118.607 89.0882 118.607C89.8408 118.607 90.5068 118.745 91.0864 119.023C91.67 119.297 92.1348 119.685 92.4809 120.188C92.827 120.687 93.0242 121.271 93.0725 121.939H90.9838C90.8992 121.492 90.698 121.12 90.3801 120.822C90.0661 120.52 89.6456 120.369 89.1183 120.369C88.6716 120.369 88.2792 120.49 87.9411 120.732C87.6031 120.969 87.3395 121.311 87.1503 121.758C86.9652 122.205 86.8726 122.74 86.8726 123.364C86.8726 123.996 86.9652 124.539 87.1503 124.994C87.3354 125.444 87.595 125.792 87.9291 126.038C88.2671 126.279 88.6636 126.4 89.1183 126.4C89.4403 126.4 89.7281 126.34 89.9816 126.219C90.2392 126.094 90.4545 125.915 90.6276 125.682C90.8006 125.448 90.9194 125.165 90.9838 124.831H93.0725C93.0202 125.487 92.827 126.068 92.493 126.575C92.1589 127.078 91.7042 127.473 91.1286 127.759C90.5531 128.04 89.877 128.181 89.1002 128.181ZM98.9118 128.181C98.0062 128.181 97.2214 127.982 96.5574 127.583C95.8933 127.185 95.3781 126.628 95.0119 125.911C94.6497 125.195 94.4686 124.358 94.4686 123.4C94.4686 122.442 94.6497 121.603 95.0119 120.882C95.3781 120.162 95.8933 119.603 96.5574 119.204C97.2214 118.806 98.0062 118.607 98.9118 118.607C99.8173 118.607 100.602 118.806 101.266 119.204C101.93 119.603 102.443 120.162 102.806 120.882C103.172 121.603 103.355 122.442 103.355 123.4C103.355 124.358 103.172 125.195 102.806 125.911C102.443 126.628 101.93 127.185 101.266 127.583C100.602 127.982 99.8173 128.181 98.9118 128.181ZM98.9238 126.43C99.4148 126.43 99.8253 126.296 100.155 126.026C100.485 125.752 100.731 125.386 100.892 124.927C101.057 124.468 101.139 123.957 101.139 123.394C101.139 122.826 101.057 122.313 100.892 121.854C100.731 121.392 100.485 121.023 100.155 120.75C99.8253 120.476 99.4148 120.339 98.9238 120.339C98.4208 120.339 98.0022 120.476 97.6681 120.75C97.3381 121.023 97.0906 121.392 96.9256 121.854C96.7646 122.313 96.6841 122.826 96.6841 123.394C96.6841 123.957 96.7646 124.468 96.9256 124.927C97.0906 125.386 97.3381 125.752 97.6681 126.026C98.0022 126.296 98.4208 126.43 98.9238 126.43ZM107.395 122.567V128H105.21V118.727H107.299V120.303H107.407C107.621 119.784 107.961 119.371 108.427 119.065C108.898 118.759 109.48 118.607 110.172 118.607C110.812 118.607 111.369 118.743 111.844 119.017C112.323 119.291 112.694 119.687 112.955 120.206C113.221 120.725 113.352 121.355 113.348 122.096V128H111.162V122.434C111.162 121.814 111.001 121.329 110.679 120.979C110.361 120.629 109.921 120.454 109.357 120.454C108.975 120.454 108.635 120.538 108.337 120.707C108.043 120.872 107.812 121.112 107.643 121.426C107.478 121.74 107.395 122.12 107.395 122.567ZM122.898 121.178L120.906 121.396C120.849 121.194 120.751 121.005 120.61 120.828C120.473 120.651 120.288 120.508 120.055 120.4C119.821 120.291 119.535 120.237 119.197 120.237C118.743 120.237 118.36 120.335 118.05 120.532C117.744 120.73 117.594 120.985 117.598 121.299C117.594 121.569 117.692 121.788 117.893 121.957C118.099 122.126 118.437 122.265 118.908 122.374L120.489 122.712C121.367 122.901 122.019 123.201 122.445 123.611C122.876 124.022 123.093 124.559 123.097 125.223C123.093 125.807 122.922 126.322 122.584 126.768C122.25 127.211 121.785 127.557 121.19 127.807C120.594 128.056 119.91 128.181 119.137 128.181C118.002 128.181 117.088 127.944 116.396 127.469C115.704 126.99 115.291 126.324 115.159 125.471L117.29 125.265C117.386 125.684 117.592 126 117.905 126.213C118.219 126.426 118.628 126.533 119.131 126.533C119.65 126.533 120.067 126.426 120.381 126.213C120.699 126 120.858 125.736 120.858 125.422C120.858 125.157 120.755 124.937 120.55 124.764C120.348 124.591 120.034 124.458 119.608 124.366L118.026 124.034C117.137 123.849 116.479 123.537 116.052 123.098C115.626 122.655 115.414 122.096 115.418 121.42C115.414 120.848 115.569 120.353 115.883 119.935C116.201 119.512 116.642 119.186 117.205 118.957C117.773 118.723 118.427 118.607 119.167 118.607C120.254 118.607 121.109 118.838 121.733 119.301C122.361 119.764 122.749 120.389 122.898 121.178ZM130.809 124.1V118.727H132.995V128H130.876V126.352H130.779C130.57 126.871 130.226 127.296 129.747 127.626C129.272 127.956 128.686 128.121 127.99 128.121C127.382 128.121 126.845 127.986 126.378 127.716C125.915 127.443 125.553 127.046 125.292 126.527C125.03 126.004 124.899 125.372 124.899 124.631V118.727H127.085V124.293C127.085 124.881 127.246 125.348 127.568 125.694C127.89 126.04 128.312 126.213 128.835 126.213C129.157 126.213 129.469 126.135 129.771 125.978C130.073 125.821 130.32 125.587 130.514 125.277C130.711 124.963 130.809 124.571 130.809 124.1ZM137.427 115.636V128H135.242V115.636H137.427ZM144.305 118.727V120.418H138.974V118.727H144.305ZM140.29 116.506H142.476V125.211C142.476 125.505 142.52 125.73 142.609 125.887C142.701 126.04 142.822 126.145 142.971 126.201C143.12 126.257 143.285 126.286 143.466 126.286C143.603 126.286 143.727 126.275 143.84 126.255C143.957 126.235 144.045 126.217 144.106 126.201L144.474 127.909C144.357 127.95 144.19 127.994 143.973 128.042C143.76 128.091 143.498 128.119 143.188 128.127C142.641 128.143 142.148 128.06 141.709 127.879C141.27 127.694 140.922 127.408 140.665 127.022C140.411 126.636 140.286 126.153 140.29 125.573V116.506ZM148.801 128.187C148.213 128.187 147.684 128.083 147.213 127.873C146.746 127.66 146.376 127.346 146.102 126.931C145.833 126.517 145.698 126.006 145.698 125.398C145.698 124.875 145.795 124.442 145.988 124.1C146.181 123.758 146.445 123.484 146.779 123.279C147.113 123.074 147.489 122.919 147.907 122.814C148.33 122.706 148.767 122.627 149.218 122.579C149.761 122.522 150.202 122.472 150.54 122.428C150.878 122.38 151.123 122.307 151.276 122.211C151.433 122.11 151.512 121.955 151.512 121.746V121.71C151.512 121.255 151.377 120.903 151.107 120.653C150.837 120.404 150.449 120.279 149.942 120.279C149.407 120.279 148.982 120.395 148.668 120.629C148.358 120.862 148.149 121.138 148.04 121.456L146 121.166C146.161 120.603 146.426 120.132 146.797 119.754C147.167 119.371 147.62 119.085 148.155 118.896C148.69 118.703 149.282 118.607 149.93 118.607C150.377 118.607 150.821 118.659 151.264 118.763C151.707 118.868 152.111 119.041 152.477 119.283C152.844 119.52 153.137 119.844 153.359 120.255C153.584 120.665 153.697 121.178 153.697 121.794V128H151.596V126.726H151.524C151.391 126.984 151.204 127.225 150.962 127.451C150.725 127.672 150.425 127.851 150.063 127.988C149.704 128.121 149.284 128.187 148.801 128.187ZM149.368 126.581C149.807 126.581 150.187 126.495 150.509 126.322C150.831 126.145 151.079 125.911 151.252 125.621C151.429 125.332 151.518 125.016 151.518 124.674V123.581C151.449 123.637 151.332 123.69 151.167 123.738C151.006 123.786 150.825 123.828 150.624 123.865C150.423 123.901 150.224 123.933 150.026 123.961C149.829 123.989 149.658 124.014 149.513 124.034C149.187 124.078 148.896 124.15 148.638 124.251C148.38 124.352 148.177 124.493 148.028 124.674C147.879 124.851 147.805 125.08 147.805 125.362C147.805 125.764 147.952 126.068 148.246 126.273C148.539 126.479 148.914 126.581 149.368 126.581ZM163.223 121.178L161.231 121.396C161.175 121.194 161.076 121.005 160.935 120.828C160.798 120.651 160.613 120.508 160.38 120.4C160.146 120.291 159.861 120.237 159.523 120.237C159.068 120.237 158.685 120.335 158.376 120.532C158.07 120.73 157.919 120.985 157.923 121.299C157.919 121.569 158.017 121.788 158.219 121.957C158.424 122.126 158.762 122.265 159.233 122.374L160.814 122.712C161.692 122.901 162.344 123.201 162.77 123.611C163.201 124.022 163.418 124.559 163.422 125.223C163.418 125.807 163.247 126.322 162.909 126.768C162.575 127.211 162.11 127.557 161.515 127.807C160.919 128.056 160.235 128.181 159.462 128.181C158.327 128.181 157.414 127.944 156.721 127.469C156.029 126.99 155.617 126.324 155.484 125.471L157.615 125.265C157.711 125.684 157.917 126 158.231 126.213C158.545 126.426 158.953 126.533 159.456 126.533C159.975 126.533 160.392 126.426 160.706 126.213C161.024 126 161.183 125.736 161.183 125.422C161.183 125.157 161.08 124.937 160.875 124.764C160.674 124.591 160.36 124.458 159.933 124.366L158.351 124.034C157.462 123.849 156.804 123.537 156.377 123.098C155.951 122.655 155.739 122.096 155.743 121.42C155.739 120.848 155.894 120.353 156.208 119.935C156.526 119.512 156.967 119.186 157.53 118.957C158.098 118.723 158.752 118.607 159.492 118.607C160.579 118.607 161.434 118.838 162.058 119.301C162.686 119.764 163.074 120.389 163.223 121.178Z" fill="white"/>
<path d="M21.7216 139.273L24.1506 146.381H24.2486L26.6776 139.273H28.1009L24.9602 148H23.4389L20.2983 139.273H21.7216ZM29.2589 148V141.455H30.533V148H29.2589ZM29.9023 140.445C29.6808 140.445 29.4904 140.371 29.3313 140.223C29.1751 140.072 29.0969 139.893 29.0969 139.686C29.0969 139.476 29.1751 139.297 29.3313 139.149C29.4904 138.999 29.6808 138.923 29.9023 138.923C30.1239 138.923 30.3129 138.999 30.4691 139.149C30.6282 139.297 30.7077 139.476 30.7077 139.686C30.7077 139.893 30.6282 140.072 30.4691 140.223C30.3129 140.371 30.1239 140.445 29.9023 140.445ZM37.152 143.053L35.9972 143.257C35.9489 143.109 35.8722 142.969 35.767 142.835C35.6648 142.702 35.5256 142.592 35.3494 142.507C35.1733 142.422 34.9531 142.379 34.6889 142.379C34.3281 142.379 34.027 142.46 33.7855 142.622C33.544 142.781 33.4233 142.987 33.4233 143.24C33.4233 143.459 33.5043 143.635 33.6662 143.768C33.8281 143.902 34.0895 144.011 34.4503 144.097L35.4901 144.335C36.0923 144.474 36.5412 144.689 36.8366 144.979C37.1321 145.268 37.2798 145.645 37.2798 146.108C37.2798 146.5 37.1662 146.849 36.9389 147.156C36.7145 147.46 36.4006 147.699 35.9972 147.872C35.5966 148.045 35.1321 148.132 34.6037 148.132C33.8707 148.132 33.2727 147.976 32.8097 147.663C32.3466 147.348 32.0625 146.901 31.9574 146.321L33.1889 146.134C33.2656 146.455 33.4233 146.697 33.6619 146.862C33.9006 147.024 34.2116 147.105 34.5952 147.105C35.0128 147.105 35.3466 147.018 35.5966 146.845C35.8466 146.669 35.9716 146.455 35.9716 146.202C35.9716 145.997 35.8949 145.825 35.7415 145.686C35.5909 145.547 35.3594 145.442 35.0469 145.371L33.9389 145.128C33.3281 144.989 32.8764 144.767 32.5838 144.463C32.294 144.159 32.1491 143.774 32.1491 143.308C32.1491 142.922 32.2571 142.584 32.473 142.294C32.6889 142.004 32.9872 141.778 33.3679 141.616C33.7486 141.452 34.1847 141.369 34.6761 141.369C35.3835 141.369 35.9403 141.523 36.3466 141.83C36.7528 142.134 37.0213 142.541 37.152 143.053ZM42.8271 145.286V141.455H44.1055V148H42.8526V146.866H42.7844C42.6339 147.216 42.3924 147.507 42.06 147.74C41.7305 147.97 41.32 148.085 40.8285 148.085C40.408 148.085 40.0359 147.993 39.712 147.808C39.391 147.621 39.1381 147.344 38.9535 146.977C38.7717 146.611 38.6808 146.158 38.6808 145.618V141.455H39.9549V145.464C39.9549 145.911 40.0785 146.266 40.3256 146.53C40.5728 146.794 40.8938 146.926 41.2887 146.926C41.5273 146.926 41.7646 146.866 42.0004 146.747C42.239 146.628 42.4364 146.447 42.5927 146.206C42.7518 145.964 42.8299 145.658 42.8271 145.286ZM47.7223 148.145C47.3075 148.145 46.9325 148.068 46.5973 147.915C46.2621 147.759 45.9964 147.533 45.8004 147.237C45.6072 146.942 45.5107 146.58 45.5107 146.151C45.5107 145.781 45.5817 145.477 45.7237 145.239C45.8658 145 46.0575 144.811 46.299 144.672C46.5405 144.533 46.8104 144.428 47.1087 144.357C47.407 144.286 47.7109 144.232 48.0206 144.195C48.4126 144.149 48.7308 144.112 48.9751 144.084C49.2195 144.053 49.397 144.003 49.5078 143.935C49.6186 143.866 49.674 143.756 49.674 143.602V143.572C49.674 143.2 49.5689 142.912 49.3587 142.707C49.1513 142.503 48.8416 142.401 48.4297 142.401C48.0007 142.401 47.6626 142.496 47.4155 142.686C47.1712 142.874 47.0021 143.082 46.9084 143.312L45.7109 143.04C45.853 142.642 46.0604 142.321 46.3331 142.077C46.6087 141.83 46.9254 141.651 47.2834 141.54C47.6413 141.426 48.0178 141.369 48.4126 141.369C48.674 141.369 48.951 141.401 49.2436 141.463C49.5391 141.523 49.8146 141.634 50.0703 141.795C50.3288 141.957 50.5405 142.189 50.7053 142.49C50.87 142.788 50.9524 143.176 50.9524 143.653V148H49.7081V147.105H49.657C49.5746 147.27 49.451 147.432 49.2862 147.591C49.1214 147.75 48.9098 147.882 48.6513 147.987C48.3928 148.092 48.0831 148.145 47.7223 148.145ZM47.9993 147.122C48.3516 147.122 48.6527 147.053 48.9027 146.913C49.1555 146.774 49.3473 146.592 49.478 146.368C49.6115 146.141 49.6783 145.898 49.6783 145.639V144.795C49.6328 144.841 49.5447 144.884 49.4141 144.923C49.2862 144.96 49.1399 144.993 48.9751 145.021C48.8104 145.047 48.6499 145.071 48.4936 145.094C48.3374 145.114 48.2067 145.131 48.1016 145.145C47.8544 145.176 47.6286 145.229 47.424 145.303C47.2223 145.376 47.0604 145.483 46.9382 145.622C46.8189 145.759 46.7592 145.94 46.7592 146.168C46.7592 146.483 46.8757 146.722 47.1087 146.884C47.3416 147.043 47.6385 147.122 47.9993 147.122ZM53.9237 139.273V148H52.6495V139.273H53.9237ZM55.6378 148V141.455H56.9119V148H55.6378ZM56.2812 140.445C56.0597 140.445 55.8693 140.371 55.7102 140.223C55.554 140.072 55.4759 139.893 55.4759 139.686C55.4759 139.476 55.554 139.297 55.7102 139.149C55.8693 138.999 56.0597 138.923 56.2812 138.923C56.5028 138.923 56.6918 138.999 56.848 139.149C57.0071 139.297 57.0866 139.476 57.0866 139.686C57.0866 139.893 57.0071 140.072 56.848 140.223C56.6918 140.371 56.5028 140.445 56.2812 140.445ZM58.4897 148V147.126L62.0352 142.622V142.562H58.6048V141.455H63.6246V142.384L60.2156 146.832V146.892H63.744V148H58.4897ZM67.152 148.145C66.7372 148.145 66.3622 148.068 66.027 147.915C65.6918 147.759 65.4261 147.533 65.2301 147.237C65.0369 146.942 64.9403 146.58 64.9403 146.151C64.9403 145.781 65.0114 145.477 65.1534 145.239C65.2955 145 65.4872 144.811 65.7287 144.672C65.9702 144.533 66.2401 144.428 66.5384 144.357C66.8366 144.286 67.1406 144.232 67.4503 144.195C67.8423 144.149 68.1605 144.112 68.4048 144.084C68.6491 144.053 68.8267 144.003 68.9375 143.935C69.0483 143.866 69.1037 143.756 69.1037 143.602V143.572C69.1037 143.2 68.9986 142.912 68.7884 142.707C68.581 142.503 68.2713 142.401 67.8594 142.401C67.4304 142.401 67.0923 142.496 66.8452 142.686C66.6009 142.874 66.4318 143.082 66.3381 143.312L65.1406 143.04C65.2827 142.642 65.4901 142.321 65.7628 142.077C66.0384 141.83 66.3551 141.651 66.7131 141.54C67.071 141.426 67.4474 141.369 67.8423 141.369C68.1037 141.369 68.3807 141.401 68.6733 141.463C68.9688 141.523 69.2443 141.634 69.5 141.795C69.7585 141.957 69.9702 142.189 70.1349 142.49C70.2997 142.788 70.3821 143.176 70.3821 143.653V148H69.1378V147.105H69.0866C69.0043 147.27 68.8807 147.432 68.7159 147.591C68.5511 147.75 68.3395 147.882 68.081 147.987C67.8224 148.092 67.5128 148.145 67.152 148.145ZM67.429 147.122C67.7813 147.122 68.0824 147.053 68.3324 146.913C68.5852 146.774 68.777 146.592 68.9077 146.368C69.0412 146.141 69.108 145.898 69.108 145.639V144.795C69.0625 144.841 68.9744 144.884 68.8438 144.923C68.7159 144.96 68.5696 144.993 68.4048 145.021C68.2401 145.047 68.0795 145.071 67.9233 145.094C67.767 145.114 67.6364 145.131 67.5312 145.145C67.2841 145.176 67.0582 145.229 66.8537 145.303C66.652 145.376 66.4901 145.483 66.3679 145.622C66.2486 145.759 66.1889 145.94 66.1889 146.168C66.1889 146.483 66.3054 146.722 66.5384 146.884C66.7713 147.043 67.0682 147.122 67.429 147.122ZM72.0792 148V141.455H73.3107V142.494H73.3789C73.4982 142.142 73.7085 141.865 74.0096 141.663C74.3136 141.459 74.6573 141.357 75.0408 141.357C75.1204 141.357 75.2141 141.359 75.3221 141.365C75.4329 141.371 75.5195 141.378 75.582 141.386V142.605C75.5309 142.591 75.44 142.575 75.3093 142.558C75.1786 142.538 75.0479 142.528 74.9173 142.528C74.6161 142.528 74.3477 142.592 74.1119 142.72C73.8789 142.845 73.6942 143.02 73.5579 143.244C73.4215 143.466 73.3533 143.719 73.3533 144.003V148H72.0792ZM81.1346 144.114V148H79.8604V139.273H81.1175V142.52H81.1985C81.3519 142.168 81.5863 141.888 81.9016 141.68C82.217 141.473 82.6289 141.369 83.1374 141.369C83.5863 141.369 83.9783 141.462 84.3136 141.646C84.6516 141.831 84.913 142.107 85.0977 142.473C85.2852 142.837 85.3789 143.291 85.3789 143.837V148H84.1048V143.99C84.1048 143.51 83.9812 143.138 83.734 142.874C83.4869 142.607 83.1431 142.473 82.7028 142.473C82.4016 142.473 82.1317 142.537 81.8931 142.665C81.6573 142.793 81.4712 142.98 81.3349 143.227C81.2013 143.472 81.1346 143.767 81.1346 144.114ZM87.0792 148V141.455H88.3533V148H87.0792ZM87.7227 140.445C87.5011 140.445 87.3107 140.371 87.1516 140.223C86.9954 140.072 86.9173 139.893 86.9173 139.686C86.9173 139.476 86.9954 139.297 87.1516 139.149C87.3107 138.999 87.5011 138.923 87.7227 138.923C87.9442 138.923 88.1332 138.999 88.2894 139.149C88.4485 139.297 88.5281 139.476 88.5281 139.686C88.5281 139.893 88.4485 140.072 88.2894 140.223C88.1332 140.371 87.9442 140.445 87.7227 140.445ZM94.9723 143.053L93.8175 143.257C93.7692 143.109 93.6925 142.969 93.5874 142.835C93.4851 142.702 93.3459 142.592 93.1697 142.507C92.9936 142.422 92.7734 142.379 92.5092 142.379C92.1484 142.379 91.8473 142.46 91.6058 142.622C91.3643 142.781 91.2436 142.987 91.2436 143.24C91.2436 143.459 91.3246 143.635 91.4865 143.768C91.6484 143.902 91.9098 144.011 92.2706 144.097L93.3104 144.335C93.9126 144.474 94.3615 144.689 94.657 144.979C94.9524 145.268 95.1001 145.645 95.1001 146.108C95.1001 146.5 94.9865 146.849 94.7592 147.156C94.5348 147.46 94.2209 147.699 93.8175 147.872C93.4169 148.045 92.9524 148.132 92.424 148.132C91.6911 148.132 91.093 147.976 90.63 147.663C90.1669 147.348 89.8828 146.901 89.7777 146.321L91.0092 146.134C91.0859 146.455 91.2436 146.697 91.4822 146.862C91.7209 147.024 92.032 147.105 92.4155 147.105C92.8331 147.105 93.1669 147.018 93.4169 146.845C93.6669 146.669 93.7919 146.455 93.7919 146.202C93.7919 145.997 93.7152 145.825 93.5618 145.686C93.4112 145.547 93.1797 145.442 92.8672 145.371L91.7592 145.128C91.1484 144.989 90.6967 144.767 90.4041 144.463C90.1143 144.159 89.9695 143.774 89.9695 143.308C89.9695 142.922 90.0774 142.584 90.2933 142.294C90.5092 142.004 90.8075 141.778 91.1882 141.616C91.5689 141.452 92.005 141.369 92.4964 141.369C93.2038 141.369 93.7607 141.523 94.1669 141.83C94.5732 142.134 94.8416 142.541 94.9723 143.053ZM99.5565 141.455V142.477H95.9812V141.455H99.5565ZM96.94 139.886H98.2141V146.078C98.2141 146.325 98.2511 146.511 98.3249 146.636C98.3988 146.759 98.494 146.842 98.6104 146.888C98.7298 146.93 98.859 146.952 98.9982 146.952C99.1005 146.952 99.19 146.945 99.2667 146.93C99.3434 146.916 99.4031 146.905 99.4457 146.896L99.6758 147.949C99.6019 147.977 99.4968 148.006 99.3604 148.034C99.2241 148.065 99.0536 148.082 98.8491 148.085C98.5138 148.091 98.2013 148.031 97.9116 147.906C97.6218 147.781 97.3874 147.588 97.2085 147.327C97.0295 147.065 96.94 146.737 96.94 146.342V139.886ZM103.653 148.132C103.039 148.132 102.504 147.991 102.046 147.71C101.589 147.429 101.234 147.036 100.981 146.53C100.728 146.024 100.602 145.433 100.602 144.757C100.602 144.078 100.728 143.484 100.981 142.976C101.234 142.467 101.589 142.072 102.046 141.791C102.504 141.51 103.039 141.369 103.653 141.369C104.266 141.369 104.802 141.51 105.259 141.791C105.717 142.072 106.072 142.467 106.325 142.976C106.577 143.484 106.704 144.078 106.704 144.757C106.704 145.433 106.577 146.024 106.325 146.53C106.072 147.036 105.717 147.429 105.259 147.71C104.802 147.991 104.266 148.132 103.653 148.132ZM103.657 147.062C104.055 147.062 104.384 146.957 104.646 146.747C104.907 146.537 105.1 146.257 105.225 145.908C105.353 145.558 105.417 145.173 105.417 144.753C105.417 144.335 105.353 143.952 105.225 143.602C105.1 143.25 104.907 142.967 104.646 142.754C104.384 142.541 104.055 142.435 103.657 142.435C103.256 142.435 102.924 142.541 102.66 142.754C102.398 142.967 102.204 143.25 102.076 143.602C101.951 143.952 101.888 144.335 101.888 144.753C101.888 145.173 101.951 145.558 102.076 145.908C102.204 146.257 102.398 146.537 102.66 146.747C102.924 146.957 103.256 147.062 103.657 147.062ZM103.129 140.581L104.126 138.616H105.468L104.147 140.581H103.129ZM108.126 148V141.455H109.358V142.494H109.426C109.545 142.142 109.755 141.865 110.056 141.663C110.36 141.459 110.704 141.357 111.088 141.357C111.167 141.357 111.261 141.359 111.369 141.365C111.48 141.371 111.566 141.378 111.629 141.386V142.605C111.578 142.591 111.487 142.575 111.356 142.558C111.225 142.538 111.095 142.528 110.964 142.528C110.663 142.528 110.395 142.592 110.159 142.72C109.926 142.845 109.741 143.02 109.605 143.244C109.468 143.466 109.4 143.719 109.4 144.003V148H108.126ZM112.732 148V141.455H114.006V148H112.732ZM113.375 140.445C113.153 140.445 112.963 140.371 112.804 140.223C112.648 140.072 112.57 139.893 112.57 139.686C112.57 139.476 112.648 139.297 112.804 139.149C112.963 138.999 113.153 138.923 113.375 138.923C113.597 138.923 113.786 138.999 113.942 139.149C114.101 139.297 114.18 139.476 114.18 139.686C114.18 139.893 114.101 140.072 113.942 140.223C113.786 140.371 113.597 140.445 113.375 140.445ZM118.477 148.132C117.843 148.132 117.298 147.989 116.841 147.702C116.386 147.412 116.037 147.013 115.792 146.504C115.548 145.996 115.426 145.413 115.426 144.757C115.426 144.092 115.551 143.506 115.801 142.997C116.051 142.486 116.403 142.087 116.858 141.8C117.312 141.513 117.848 141.369 118.464 141.369C118.961 141.369 119.404 141.462 119.794 141.646C120.183 141.828 120.497 142.084 120.735 142.413C120.977 142.743 121.12 143.128 121.166 143.568H119.926C119.858 143.261 119.701 142.997 119.457 142.776C119.216 142.554 118.892 142.443 118.485 142.443C118.13 142.443 117.819 142.537 117.552 142.724C117.288 142.909 117.082 143.173 116.934 143.517C116.787 143.858 116.713 144.261 116.713 144.727C116.713 145.205 116.785 145.616 116.93 145.963C117.075 146.31 117.279 146.578 117.544 146.768C117.811 146.959 118.125 147.054 118.485 147.054C118.727 147.054 118.946 147.01 119.142 146.922C119.341 146.831 119.507 146.702 119.64 146.534C119.777 146.366 119.872 146.165 119.926 145.929H121.166C121.12 146.352 120.983 146.73 120.752 147.062C120.522 147.395 120.214 147.656 119.828 147.847C119.444 148.037 118.994 148.132 118.477 148.132ZM125.286 148.132C124.672 148.132 124.136 147.991 123.679 147.71C123.222 147.429 122.866 147.036 122.614 146.53C122.361 146.024 122.234 145.433 122.234 144.757C122.234 144.078 122.361 143.484 122.614 142.976C122.866 142.467 123.222 142.072 123.679 141.791C124.136 141.51 124.672 141.369 125.286 141.369C125.899 141.369 126.435 141.51 126.892 141.791C127.349 142.072 127.705 142.467 127.957 142.976C128.21 143.484 128.337 144.078 128.337 144.757C128.337 145.433 128.21 146.024 127.957 146.53C127.705 147.036 127.349 147.429 126.892 147.71C126.435 147.991 125.899 148.132 125.286 148.132ZM125.29 147.062C125.688 147.062 126.017 146.957 126.278 146.747C126.54 146.537 126.733 146.257 126.858 145.908C126.986 145.558 127.05 145.173 127.05 144.753C127.05 144.335 126.986 143.952 126.858 143.602C126.733 143.25 126.54 142.967 126.278 142.754C126.017 142.541 125.688 142.435 125.29 142.435C124.889 142.435 124.557 142.541 124.293 142.754C124.031 142.967 123.837 143.25 123.709 143.602C123.584 143.952 123.521 144.335 123.521 144.753C123.521 145.173 123.584 145.558 123.709 145.908C123.837 146.257 124.031 146.537 124.293 146.747C124.557 146.957 124.889 147.062 125.29 147.062ZM135.385 148.128C134.857 148.128 134.385 147.993 133.97 147.723C133.558 147.45 133.234 147.062 132.999 146.56C132.766 146.054 132.649 145.447 132.649 144.74C132.649 144.033 132.767 143.428 133.003 142.925C133.241 142.422 133.568 142.037 133.983 141.77C134.398 141.503 134.868 141.369 135.393 141.369C135.8 141.369 136.126 141.438 136.374 141.574C136.624 141.707 136.817 141.864 136.953 142.043C137.092 142.222 137.2 142.379 137.277 142.516H137.354V139.273H138.628V148H137.384V146.982H137.277C137.2 147.121 137.089 147.28 136.945 147.459C136.803 147.638 136.607 147.794 136.357 147.928C136.107 148.061 135.783 148.128 135.385 148.128ZM135.666 147.041C136.033 147.041 136.342 146.945 136.595 146.751C136.851 146.555 137.044 146.284 137.175 145.938C137.308 145.591 137.375 145.187 137.375 144.727C137.375 144.273 137.31 143.875 137.179 143.534C137.048 143.193 136.857 142.928 136.604 142.737C136.351 142.547 136.038 142.452 135.666 142.452C135.283 142.452 134.963 142.551 134.707 142.75C134.452 142.949 134.259 143.22 134.128 143.564C134 143.908 133.936 144.295 133.936 144.727C133.936 145.165 134.001 145.558 134.132 145.908C134.263 146.257 134.456 146.534 134.712 146.739C134.97 146.94 135.288 147.041 135.666 147.041ZM143.267 148.132C142.623 148.132 142.067 147.994 141.601 147.719C141.138 147.44 140.78 147.05 140.527 146.547C140.277 146.041 140.152 145.449 140.152 144.77C140.152 144.099 140.277 143.509 140.527 142.997C140.78 142.486 141.132 142.087 141.584 141.8C142.039 141.513 142.57 141.369 143.178 141.369C143.547 141.369 143.905 141.43 144.252 141.553C144.598 141.675 144.909 141.866 145.185 142.128C145.461 142.389 145.678 142.729 145.837 143.146C145.996 143.561 146.076 144.065 146.076 144.659V145.111H140.873V144.156H144.827C144.827 143.821 144.759 143.524 144.623 143.266C144.486 143.004 144.294 142.798 144.047 142.648C143.803 142.497 143.516 142.422 143.186 142.422C142.828 142.422 142.516 142.51 142.249 142.686C141.985 142.859 141.78 143.087 141.635 143.368C141.493 143.646 141.422 143.949 141.422 144.276V145.021C141.422 145.459 141.499 145.831 141.652 146.138C141.809 146.445 142.026 146.679 142.304 146.841C142.583 147 142.908 147.08 143.28 147.08C143.522 147.08 143.742 147.045 143.941 146.977C144.14 146.906 144.311 146.801 144.456 146.662C144.601 146.523 144.712 146.351 144.789 146.146L145.995 146.364C145.898 146.719 145.725 147.03 145.475 147.297C145.228 147.561 144.917 147.767 144.542 147.915C144.169 148.06 143.745 148.132 143.267 148.132ZM153.422 148.132C152.789 148.132 152.243 147.989 151.786 147.702C151.331 147.412 150.982 147.013 150.738 146.504C150.493 145.996 150.371 145.413 150.371 144.757C150.371 144.092 150.496 143.506 150.746 142.997C150.996 142.486 151.348 142.087 151.803 141.8C152.257 141.513 152.793 141.369 153.409 141.369C153.907 141.369 154.35 141.462 154.739 141.646C155.128 141.828 155.442 142.084 155.681 142.413C155.922 142.743 156.066 143.128 156.111 143.568H154.871C154.803 143.261 154.647 142.997 154.402 142.776C154.161 142.554 153.837 142.443 153.431 142.443C153.076 142.443 152.765 142.537 152.498 142.724C152.233 142.909 152.027 143.173 151.88 143.517C151.732 143.858 151.658 144.261 151.658 144.727C151.658 145.205 151.73 145.616 151.875 145.963C152.02 146.31 152.225 146.578 152.489 146.768C152.756 146.959 153.07 147.054 153.431 147.054C153.672 147.054 153.891 147.01 154.087 146.922C154.286 146.831 154.452 146.702 154.586 146.534C154.722 146.366 154.817 146.165 154.871 145.929H156.111C156.066 146.352 155.928 146.73 155.698 147.062C155.468 147.395 155.159 147.656 154.773 147.847C154.39 148.037 153.939 148.132 153.422 148.132ZM160.231 148.132C159.617 148.132 159.082 147.991 158.624 147.71C158.167 147.429 157.812 147.036 157.559 146.53C157.306 146.024 157.18 145.433 157.18 144.757C157.18 144.078 157.306 143.484 157.559 142.976C157.812 142.467 158.167 142.072 158.624 141.791C159.082 141.51 159.617 141.369 160.231 141.369C160.844 141.369 161.38 141.51 161.837 141.791C162.295 142.072 162.65 142.467 162.903 142.976C163.156 143.484 163.282 144.078 163.282 144.757C163.282 145.433 163.156 146.024 162.903 146.53C162.65 147.036 162.295 147.429 161.837 147.71C161.38 147.991 160.844 148.132 160.231 148.132ZM160.235 147.062C160.633 147.062 160.962 146.957 161.224 146.747C161.485 146.537 161.678 146.257 161.803 145.908C161.931 145.558 161.995 145.173 161.995 144.753C161.995 144.335 161.931 143.952 161.803 143.602C161.678 143.25 161.485 142.967 161.224 142.754C160.962 142.541 160.633 142.435 160.235 142.435C159.835 142.435 159.502 142.541 159.238 142.754C158.977 142.967 158.782 143.25 158.654 143.602C158.529 143.952 158.467 144.335 158.467 144.753C158.467 145.173 158.529 145.558 158.654 145.908C158.782 146.257 158.977 146.537 159.238 146.747C159.502 146.957 159.835 147.062 160.235 147.062ZM165.978 144.114V148H164.704V141.455H165.927V142.52H166.008C166.159 142.173 166.395 141.895 166.716 141.685C167.039 141.474 167.447 141.369 167.939 141.369C168.385 141.369 168.775 141.463 169.11 141.651C169.446 141.835 169.706 142.111 169.89 142.477C170.075 142.844 170.167 143.297 170.167 143.837V148H168.893V143.99C168.893 143.516 168.77 143.145 168.522 142.878C168.275 142.608 167.936 142.473 167.504 142.473C167.208 142.473 166.946 142.537 166.716 142.665C166.488 142.793 166.308 142.98 166.174 143.227C166.044 143.472 165.978 143.767 165.978 144.114ZM176.781 143.053L175.626 143.257C175.578 143.109 175.501 142.969 175.396 142.835C175.294 142.702 175.154 142.592 174.978 142.507C174.802 142.422 174.582 142.379 174.318 142.379C173.957 142.379 173.656 142.46 173.414 142.622C173.173 142.781 173.052 142.987 173.052 143.24C173.052 143.459 173.133 143.635 173.295 143.768C173.457 143.902 173.718 144.011 174.079 144.097L175.119 144.335C175.721 144.474 176.17 144.689 176.466 144.979C176.761 145.268 176.909 145.645 176.909 146.108C176.909 146.5 176.795 146.849 176.568 147.156C176.343 147.46 176.029 147.699 175.626 147.872C175.225 148.045 174.761 148.132 174.233 148.132C173.5 148.132 172.902 147.976 172.439 147.663C171.975 147.348 171.691 146.901 171.586 146.321L172.818 146.134C172.895 146.455 173.052 146.697 173.291 146.862C173.529 147.024 173.841 147.105 174.224 147.105C174.642 147.105 174.975 147.018 175.225 146.845C175.475 146.669 175.6 146.455 175.6 146.202C175.6 145.997 175.524 145.825 175.37 145.686C175.22 145.547 174.988 145.442 174.676 145.371L173.568 145.128C172.957 144.989 172.505 144.767 172.213 144.463C171.923 144.159 171.778 143.774 171.778 143.308C171.778 142.922 171.886 142.584 172.102 142.294C172.318 142.004 172.616 141.778 172.997 141.616C173.377 141.452 173.814 141.369 174.305 141.369C175.012 141.369 175.569 141.523 175.975 141.83C176.382 142.134 176.65 142.541 176.781 143.053ZM182.456 145.286V141.455H183.734V148H182.482V146.866H182.413C182.263 147.216 182.021 147.507 181.689 147.74C181.359 147.97 180.949 148.085 180.457 148.085C180.037 148.085 179.665 147.993 179.341 147.808C179.02 147.621 178.767 147.344 178.582 146.977C178.401 146.611 178.31 146.158 178.31 145.618V141.455H179.584V145.464C179.584 145.911 179.707 146.266 179.955 146.53C180.202 146.794 180.523 146.926 180.918 146.926C181.156 146.926 181.393 146.866 181.629 146.747C181.868 146.628 182.065 146.447 182.222 146.206C182.381 145.964 182.459 145.658 182.456 145.286ZM186.721 139.273V148H185.446V139.273H186.721ZM191.49 141.455V142.477H187.915V141.455H191.49ZM188.874 139.886H190.148V146.078C190.148 146.325 190.185 146.511 190.259 146.636C190.332 146.759 190.428 146.842 190.544 146.888C190.663 146.93 190.793 146.952 190.932 146.952C191.034 146.952 191.124 146.945 191.2 146.93C191.277 146.916 191.337 146.905 191.379 146.896L191.609 147.949C191.536 147.977 191.43 148.006 191.294 148.034C191.158 148.065 190.987 148.082 190.783 148.085C190.447 148.091 190.135 148.031 189.845 147.906C189.555 147.781 189.321 147.588 189.142 147.327C188.963 147.065 188.874 146.737 188.874 146.342V139.886ZM194.804 148.145C194.39 148.145 194.015 148.068 193.679 147.915C193.344 147.759 193.078 147.533 192.882 147.237C192.689 146.942 192.593 146.58 192.593 146.151C192.593 145.781 192.664 145.477 192.806 145.239C192.948 145 193.14 144.811 193.381 144.672C193.623 144.533 193.892 144.428 194.191 144.357C194.489 144.286 194.793 144.232 195.103 144.195C195.495 144.149 195.813 144.112 196.057 144.084C196.301 144.053 196.479 144.003 196.59 143.935C196.701 143.866 196.756 143.756 196.756 143.602V143.572C196.756 143.2 196.651 142.912 196.441 142.707C196.233 142.503 195.924 142.401 195.512 142.401C195.083 142.401 194.745 142.496 194.498 142.686C194.253 142.874 194.084 143.082 193.99 143.312L192.793 143.04C192.935 142.642 193.142 142.321 193.415 142.077C193.691 141.83 194.007 141.651 194.365 141.54C194.723 141.426 195.1 141.369 195.495 141.369C195.756 141.369 196.033 141.401 196.326 141.463C196.621 141.523 196.897 141.634 197.152 141.795C197.411 141.957 197.623 142.189 197.787 142.49C197.952 142.788 198.034 143.176 198.034 143.653V148H196.79V147.105H196.739C196.657 147.27 196.533 147.432 196.368 147.591C196.203 147.75 195.992 147.882 195.733 147.987C195.475 148.092 195.165 148.145 194.804 148.145ZM195.081 147.122C195.434 147.122 195.735 147.053 195.985 146.913C196.238 146.774 196.429 146.592 196.56 146.368C196.694 146.141 196.76 145.898 196.76 145.639V144.795C196.715 144.841 196.627 144.884 196.496 144.923C196.368 144.96 196.222 144.993 196.057 145.021C195.892 145.047 195.732 145.071 195.576 145.094C195.419 145.114 195.289 145.131 195.184 145.145C194.936 145.176 194.711 145.229 194.506 145.303C194.304 145.376 194.142 145.483 194.02 145.622C193.901 145.759 193.841 145.94 193.841 146.168C193.841 146.483 193.958 146.722 194.191 146.884C194.424 147.043 194.721 147.122 195.081 147.122ZM204.636 143.053L203.482 143.257C203.433 143.109 203.357 142.969 203.251 142.835C203.149 142.702 203.01 142.592 202.834 142.507C202.658 142.422 202.438 142.379 202.173 142.379C201.813 142.379 201.511 142.46 201.27 142.622C201.028 142.781 200.908 142.987 200.908 143.24C200.908 143.459 200.989 143.635 201.151 143.768C201.313 143.902 201.574 144.011 201.935 144.097L202.974 144.335C203.577 144.474 204.026 144.689 204.321 144.979C204.616 145.268 204.764 145.645 204.764 146.108C204.764 146.5 204.651 146.849 204.423 147.156C204.199 147.46 203.885 147.699 203.482 147.872C203.081 148.045 202.616 148.132 202.088 148.132C201.355 148.132 200.757 147.976 200.294 147.663C199.831 147.348 199.547 146.901 199.442 146.321L200.673 146.134C200.75 146.455 200.908 146.697 201.146 146.862C201.385 147.024 201.696 147.105 202.08 147.105C202.497 147.105 202.831 147.018 203.081 146.845C203.331 146.669 203.456 146.455 203.456 146.202C203.456 145.997 203.379 145.825 203.226 145.686C203.075 145.547 202.844 145.442 202.531 145.371L201.423 145.128C200.813 144.989 200.361 144.767 200.068 144.463C199.778 144.159 199.634 143.774 199.634 143.308C199.634 142.922 199.741 142.584 199.957 142.294C200.173 142.004 200.472 141.778 200.852 141.616C201.233 141.452 201.669 141.369 202.161 141.369C202.868 141.369 203.425 141.523 203.831 141.83C204.237 142.134 204.506 142.541 204.636 143.053ZM212.162 148.132C211.517 148.132 210.962 147.994 210.496 147.719C210.033 147.44 209.675 147.05 209.422 146.547C209.172 146.041 209.047 145.449 209.047 144.77C209.047 144.099 209.172 143.509 209.422 142.997C209.675 142.486 210.027 142.087 210.479 141.8C210.933 141.513 211.464 141.369 212.072 141.369C212.442 141.369 212.8 141.43 213.146 141.553C213.493 141.675 213.804 141.866 214.08 142.128C214.355 142.389 214.572 142.729 214.732 143.146C214.891 143.561 214.97 144.065 214.97 144.659V145.111H209.767V144.156H213.722C213.722 143.821 213.653 143.524 213.517 143.266C213.381 143.004 213.189 142.798 212.942 142.648C212.697 142.497 212.411 142.422 212.081 142.422C211.723 142.422 211.411 142.51 211.143 142.686C210.879 142.859 210.675 143.087 210.53 143.368C210.388 143.646 210.317 143.949 210.317 144.276V145.021C210.317 145.459 210.393 145.831 210.547 146.138C210.703 146.445 210.92 146.679 211.199 146.841C211.477 147 211.803 147.08 212.175 147.08C212.416 147.08 212.636 147.045 212.835 146.977C213.034 146.906 213.206 146.801 213.351 146.662C213.496 146.523 213.607 146.351 213.683 146.146L214.889 146.364C214.793 146.719 214.619 147.03 214.369 147.297C214.122 147.561 213.811 147.767 213.436 147.915C213.064 148.06 212.639 148.132 212.162 148.132ZM219.56 150.455V141.455H220.804V142.516H220.911C220.984 142.379 221.091 142.222 221.23 142.043C221.369 141.864 221.563 141.707 221.81 141.574C222.057 141.438 222.384 141.369 222.79 141.369C223.318 141.369 223.79 141.503 224.205 141.77C224.619 142.037 224.945 142.422 225.18 142.925C225.419 143.428 225.538 144.033 225.538 144.74C225.538 145.447 225.42 146.054 225.185 146.56C224.949 147.062 224.625 147.45 224.213 147.723C223.801 147.993 223.331 148.128 222.803 148.128C222.405 148.128 222.08 148.061 221.827 147.928C221.577 147.794 221.381 147.638 221.239 147.459C221.097 147.28 220.987 147.121 220.911 146.982H220.834V150.455H219.56ZM220.808 144.727C220.808 145.187 220.875 145.591 221.009 145.938C221.142 146.284 221.335 146.555 221.588 146.751C221.841 146.945 222.151 147.041 222.517 147.041C222.898 147.041 223.216 146.94 223.472 146.739C223.727 146.534 223.92 146.257 224.051 145.908C224.185 145.558 224.251 145.165 224.251 144.727C224.251 144.295 224.186 143.908 224.055 143.564C223.928 143.22 223.734 142.949 223.476 142.75C223.22 142.551 222.901 142.452 222.517 142.452C222.148 142.452 221.835 142.547 221.58 142.737C221.327 142.928 221.135 143.193 221.004 143.534C220.874 143.875 220.808 144.273 220.808 144.727ZM226.966 148V141.455H228.197V142.494H228.266C228.385 142.142 228.595 141.865 228.896 141.663C229.2 141.459 229.544 141.357 229.928 141.357C230.007 141.357 230.101 141.359 230.209 141.365C230.32 141.371 230.406 141.378 230.469 141.386V142.605C230.418 142.591 230.327 142.575 230.196 142.558C230.065 142.538 229.935 142.528 229.804 142.528C229.503 142.528 229.234 142.592 228.999 142.72C228.766 142.845 228.581 143.02 228.445 143.244C228.308 143.466 228.24 143.719 228.24 144.003V148H226.966ZM234.094 148.132C233.48 148.132 232.945 147.991 232.488 147.71C232.03 147.429 231.675 147.036 231.422 146.53C231.169 146.024 231.043 145.433 231.043 144.757C231.043 144.078 231.169 143.484 231.422 142.976C231.675 142.467 232.03 142.072 232.488 141.791C232.945 141.51 233.48 141.369 234.094 141.369C234.708 141.369 235.243 141.51 235.701 141.791C236.158 142.072 236.513 142.467 236.766 142.976C237.019 143.484 237.145 144.078 237.145 144.757C237.145 145.433 237.019 146.024 236.766 146.53C236.513 147.036 236.158 147.429 235.701 147.71C235.243 147.991 234.708 148.132 234.094 148.132ZM234.098 147.062C234.496 147.062 234.826 146.957 235.087 146.747C235.348 146.537 235.542 146.257 235.667 145.908C235.794 145.558 235.858 145.173 235.858 144.753C235.858 144.335 235.794 143.952 235.667 143.602C235.542 143.25 235.348 142.967 235.087 142.754C234.826 142.541 234.496 142.435 234.098 142.435C233.698 142.435 233.365 142.541 233.101 142.754C232.84 142.967 232.645 143.25 232.517 143.602C232.392 143.952 232.33 144.335 232.33 144.753C232.33 145.173 232.392 145.558 232.517 145.908C232.645 146.257 232.84 146.537 233.101 146.747C233.365 146.957 233.698 147.062 234.098 147.062ZM233.57 140.581L234.567 138.616H235.909L234.588 140.581H233.57ZM239.315 141.455L240.76 144.003L242.217 141.455H243.611L241.57 144.727L243.628 148H242.234L240.76 145.554L239.29 148H237.892L239.929 144.727L237.918 141.455H239.315ZM244.919 148V141.455H246.193V148H244.919ZM245.562 140.445C245.341 140.445 245.151 140.371 244.991 140.223C244.835 140.072 244.757 139.893 244.757 139.686C244.757 139.476 244.835 139.297 244.991 139.149C245.151 138.999 245.341 138.923 245.562 138.923C245.784 138.923 245.973 138.999 246.129 139.149C246.288 139.297 246.368 139.476 246.368 139.686C246.368 139.893 246.288 140.072 246.129 140.223C245.973 140.371 245.784 140.445 245.562 140.445ZM247.907 148V141.455H249.13V142.52H249.211C249.348 142.159 249.571 141.878 249.88 141.676C250.19 141.472 250.561 141.369 250.993 141.369C251.43 141.369 251.797 141.472 252.092 141.676C252.39 141.881 252.61 142.162 252.752 142.52H252.821C252.977 142.17 253.225 141.892 253.566 141.685C253.907 141.474 254.314 141.369 254.785 141.369C255.379 141.369 255.863 141.555 256.238 141.928C256.616 142.3 256.805 142.861 256.805 143.611V148H255.531V143.73C255.531 143.287 255.41 142.966 255.169 142.767C254.927 142.568 254.639 142.469 254.304 142.469C253.889 142.469 253.566 142.597 253.336 142.852C253.106 143.105 252.991 143.43 252.991 143.828V148H251.721V143.649C251.721 143.294 251.61 143.009 251.389 142.793C251.167 142.577 250.879 142.469 250.524 142.469C250.282 142.469 250.059 142.533 249.855 142.661C249.653 142.786 249.49 142.96 249.365 143.185C249.243 143.409 249.181 143.669 249.181 143.964V148H247.907ZM260.418 148.145C260.003 148.145 259.628 148.068 259.293 147.915C258.957 147.759 258.692 147.533 258.496 147.237C258.303 146.942 258.206 146.58 258.206 146.151C258.206 145.781 258.277 145.477 258.419 145.239C258.561 145 258.753 144.811 258.994 144.672C259.236 144.533 259.506 144.428 259.804 144.357C260.102 144.286 260.406 144.232 260.716 144.195C261.108 144.149 261.426 144.112 261.67 144.084C261.915 144.053 262.092 144.003 262.203 143.935C262.314 143.866 262.369 143.756 262.369 143.602V143.572C262.369 143.2 262.264 142.912 262.054 142.707C261.847 142.503 261.537 142.401 261.125 142.401C260.696 142.401 260.358 142.496 260.111 142.686C259.866 142.874 259.697 143.082 259.604 143.312L258.406 143.04C258.548 142.642 258.756 142.321 259.028 142.077C259.304 141.83 259.621 141.651 259.979 141.54C260.337 141.426 260.713 141.369 261.108 141.369C261.369 141.369 261.646 141.401 261.939 141.463C262.234 141.523 262.51 141.634 262.766 141.795C263.024 141.957 263.236 142.189 263.401 142.49C263.565 142.788 263.648 143.176 263.648 143.653V148H262.403V147.105H262.352C262.27 147.27 262.146 147.432 261.982 147.591C261.817 147.75 261.605 147.882 261.347 147.987C261.088 148.092 260.778 148.145 260.418 148.145ZM260.695 147.122C261.047 147.122 261.348 147.053 261.598 146.913C261.851 146.774 262.043 146.592 262.173 146.368C262.307 146.141 262.374 145.898 262.374 145.639V144.795C262.328 144.841 262.24 144.884 262.109 144.923C261.982 144.96 261.835 144.993 261.67 145.021C261.506 145.047 261.345 145.071 261.189 145.094C261.033 145.114 260.902 145.131 260.797 145.145C260.55 145.176 260.324 145.229 260.119 145.303C259.918 145.376 259.756 145.483 259.634 145.622C259.514 145.759 259.455 145.94 259.455 146.168C259.455 146.483 259.571 146.722 259.804 146.884C260.037 147.043 260.334 147.122 260.695 147.122ZM270.25 143.053L269.095 143.257C269.047 143.109 268.97 142.969 268.865 142.835C268.762 142.702 268.623 142.592 268.447 142.507C268.271 142.422 268.051 142.379 267.787 142.379C267.426 142.379 267.125 142.46 266.883 142.622C266.642 142.781 266.521 142.987 266.521 143.24C266.521 143.459 266.602 143.635 266.764 143.768C266.926 143.902 267.187 144.011 267.548 144.097L268.588 144.335C269.19 144.474 269.639 144.689 269.934 144.979C270.23 145.268 270.377 145.645 270.377 146.108C270.377 146.5 270.264 146.849 270.037 147.156C269.812 147.46 269.498 147.699 269.095 147.872C268.694 148.045 268.23 148.132 267.701 148.132C266.968 148.132 266.37 147.976 265.907 147.663C265.444 147.348 265.16 146.901 265.055 146.321L266.287 146.134C266.363 146.455 266.521 146.697 266.76 146.862C266.998 147.024 267.309 147.105 267.693 147.105C268.11 147.105 268.444 147.018 268.694 146.845C268.944 146.669 269.069 146.455 269.069 146.202C269.069 145.997 268.993 145.825 268.839 145.686C268.689 145.547 268.457 145.442 268.145 145.371L267.037 145.128C266.426 144.989 265.974 144.767 265.681 144.463C265.392 144.159 265.247 143.774 265.247 143.308C265.247 142.922 265.355 142.584 265.571 142.294C265.787 142.004 266.085 141.778 266.466 141.616C266.846 141.452 267.282 141.369 267.774 141.369C268.481 141.369 269.038 141.523 269.444 141.83C269.85 142.134 270.119 142.541 270.25 143.053ZM277.711 148.132C277.078 148.132 276.532 147.989 276.075 147.702C275.62 147.412 275.271 147.013 275.027 146.504C274.782 145.996 274.66 145.413 274.66 144.757C274.66 144.092 274.785 143.506 275.035 142.997C275.285 142.486 275.637 142.087 276.092 141.8C276.547 141.513 277.082 141.369 277.699 141.369C278.196 141.369 278.639 141.462 279.028 141.646C279.417 141.828 279.731 142.084 279.97 142.413C280.211 142.743 280.355 143.128 280.4 143.568H279.16C279.092 143.261 278.936 142.997 278.691 142.776C278.45 142.554 278.126 142.443 277.72 142.443C277.365 142.443 277.054 142.537 276.787 142.724C276.522 142.909 276.316 143.173 276.169 143.517C276.021 143.858 275.947 144.261 275.947 144.727C275.947 145.205 276.02 145.616 276.164 145.963C276.309 146.31 276.514 146.578 276.778 146.768C277.045 146.959 277.359 147.054 277.72 147.054C277.961 147.054 278.18 147.01 278.376 146.922C278.575 146.831 278.741 146.702 278.875 146.534C279.011 146.366 279.106 146.165 279.16 145.929H280.4C280.355 146.352 280.217 146.73 279.987 147.062C279.757 147.395 279.449 147.656 279.062 147.847C278.679 148.037 278.228 148.132 277.711 148.132ZM284.52 148.132C283.906 148.132 283.371 147.991 282.913 147.71C282.456 147.429 282.101 147.036 281.848 146.53C281.595 146.024 281.469 145.433 281.469 144.757C281.469 144.078 281.595 143.484 281.848 142.976C282.101 142.467 282.456 142.072 282.913 141.791C283.371 141.51 283.906 141.369 284.52 141.369C285.134 141.369 285.669 141.51 286.126 141.791C286.584 142.072 286.939 142.467 287.192 142.976C287.445 143.484 287.571 144.078 287.571 144.757C287.571 145.433 287.445 146.024 287.192 146.53C286.939 147.036 286.584 147.429 286.126 147.71C285.669 147.991 285.134 148.132 284.52 148.132ZM284.524 147.062C284.922 147.062 285.251 146.957 285.513 146.747C285.774 146.537 285.967 146.257 286.092 145.908C286.22 145.558 286.284 145.173 286.284 144.753C286.284 144.335 286.22 143.952 286.092 143.602C285.967 143.25 285.774 142.967 285.513 142.754C285.251 142.541 284.922 142.435 284.524 142.435C284.124 142.435 283.791 142.541 283.527 142.754C283.266 142.967 283.071 143.25 282.943 143.602C282.818 143.952 282.756 144.335 282.756 144.753C282.756 145.173 282.818 145.558 282.943 145.908C283.071 146.257 283.266 146.537 283.527 146.747C283.791 146.957 284.124 147.062 284.524 147.062ZM290.267 144.114V148H288.993V141.455H290.216V142.52H290.297C290.448 142.173 290.684 141.895 291.005 141.685C291.328 141.474 291.736 141.369 292.228 141.369C292.674 141.369 293.064 141.463 293.4 141.651C293.735 141.835 293.995 142.111 294.179 142.477C294.364 142.844 294.456 143.297 294.456 143.837V148H293.182V143.99C293.182 143.516 293.059 143.145 292.811 142.878C292.564 142.608 292.225 142.473 291.793 142.473C291.498 142.473 291.235 142.537 291.005 142.665C290.777 142.793 290.597 142.98 290.463 143.227C290.333 143.472 290.267 143.767 290.267 144.114ZM301.07 143.053L299.915 143.257C299.867 143.109 299.79 142.969 299.685 142.835C299.583 142.702 299.444 142.592 299.267 142.507C299.091 142.422 298.871 142.379 298.607 142.379C298.246 142.379 297.945 142.46 297.703 142.622C297.462 142.781 297.341 142.987 297.341 143.24C297.341 143.459 297.422 143.635 297.584 143.768C297.746 143.902 298.007 144.011 298.368 144.097L299.408 144.335C300.01 144.474 300.459 144.689 300.755 144.979C301.05 145.268 301.198 145.645 301.198 146.108C301.198 146.5 301.084 146.849 300.857 147.156C300.632 147.46 300.319 147.699 299.915 147.872C299.515 148.045 299.05 148.132 298.522 148.132C297.789 148.132 297.191 147.976 296.728 147.663C296.265 147.348 295.98 146.901 295.875 146.321L297.107 146.134C297.184 146.455 297.341 146.697 297.58 146.862C297.819 147.024 298.13 147.105 298.513 147.105C298.931 147.105 299.265 147.018 299.515 146.845C299.765 146.669 299.89 146.455 299.89 146.202C299.89 145.997 299.813 145.825 299.659 145.686C299.509 145.547 299.277 145.442 298.965 145.371L297.857 145.128C297.246 144.989 296.794 144.767 296.502 144.463C296.212 144.159 296.067 143.774 296.067 143.308C296.067 142.922 296.175 142.584 296.391 142.294C296.607 142.004 296.905 141.778 297.286 141.616C297.667 141.452 298.103 141.369 298.594 141.369C299.301 141.369 299.858 141.523 300.265 141.83C300.671 142.134 300.939 142.541 301.07 143.053ZM306.745 145.286V141.455H308.023V148H306.771V146.866H306.702C306.552 147.216 306.31 147.507 305.978 147.74C305.648 147.97 305.238 148.085 304.746 148.085C304.326 148.085 303.954 147.993 303.63 147.808C303.309 147.621 303.056 147.344 302.871 146.977C302.69 146.611 302.599 146.158 302.599 145.618V141.455H303.873V145.464C303.873 145.911 303.996 146.266 304.244 146.53C304.491 146.794 304.812 146.926 305.207 146.926C305.445 146.926 305.683 146.866 305.918 146.747C306.157 146.628 306.354 146.447 306.511 146.206C306.67 145.964 306.748 145.658 306.745 145.286ZM311.01 139.273V148H309.735V139.273H311.01ZM315.779 141.455V142.477H312.204V141.455H315.779ZM313.163 139.886H314.437V146.078C314.437 146.325 314.474 146.511 314.548 146.636C314.621 146.759 314.717 146.842 314.833 146.888C314.952 146.93 315.082 146.952 315.221 146.952C315.323 146.952 315.413 146.945 315.489 146.93C315.566 146.916 315.626 146.905 315.668 146.896L315.898 147.949C315.825 147.977 315.719 148.006 315.583 148.034C315.447 148.065 315.276 148.082 315.072 148.085C314.737 148.091 314.424 148.031 314.134 147.906C313.844 147.781 313.61 147.588 313.431 147.327C313.252 147.065 313.163 146.737 313.163 146.342V139.886ZM319.093 148.145C318.679 148.145 318.304 148.068 317.968 147.915C317.633 147.759 317.368 147.533 317.172 147.237C316.978 146.942 316.882 146.58 316.882 146.151C316.882 145.781 316.953 145.477 317.095 145.239C317.237 145 317.429 144.811 317.67 144.672C317.912 144.533 318.181 144.428 318.48 144.357C318.778 144.286 319.082 144.232 319.392 144.195C319.784 144.149 320.102 144.112 320.346 144.084C320.591 144.053 320.768 144.003 320.879 143.935C320.99 143.866 321.045 143.756 321.045 143.602V143.572C321.045 143.2 320.94 142.912 320.73 142.707C320.522 142.503 320.213 142.401 319.801 142.401C319.372 142.401 319.034 142.496 318.787 142.686C318.542 142.874 318.373 143.082 318.279 143.312L317.082 143.04C317.224 142.642 317.431 142.321 317.704 142.077C317.98 141.83 318.297 141.651 318.654 141.54C319.012 141.426 319.389 141.369 319.784 141.369C320.045 141.369 320.322 141.401 320.615 141.463C320.91 141.523 321.186 141.634 321.441 141.795C321.7 141.957 321.912 142.189 322.076 142.49C322.241 142.788 322.324 143.176 322.324 143.653V148H321.079V147.105H321.028C320.946 147.27 320.822 147.432 320.657 147.591C320.493 147.75 320.281 147.882 320.022 147.987C319.764 148.092 319.454 148.145 319.093 148.145ZM319.37 147.122C319.723 147.122 320.024 147.053 320.274 146.913C320.527 146.774 320.718 146.592 320.849 146.368C320.983 146.141 321.049 145.898 321.049 145.639V144.795C321.004 144.841 320.916 144.884 320.785 144.923C320.657 144.96 320.511 144.993 320.346 145.021C320.181 145.047 320.021 145.071 319.865 145.094C319.708 145.114 319.578 145.131 319.473 145.145C319.225 145.176 319 145.229 318.795 145.303C318.593 145.376 318.431 145.483 318.309 145.622C318.19 145.759 318.13 145.94 318.13 146.168C318.13 146.483 318.247 146.722 318.48 146.884C318.713 147.043 319.01 147.122 319.37 147.122ZM328.925 143.053L327.771 143.257C327.722 143.109 327.646 142.969 327.54 142.835C327.438 142.702 327.299 142.592 327.123 142.507C326.947 142.422 326.727 142.379 326.462 142.379C326.102 142.379 325.8 142.46 325.559 142.622C325.317 142.781 325.197 142.987 325.197 143.24C325.197 143.459 325.278 143.635 325.44 143.768C325.602 143.902 325.863 144.011 326.224 144.097L327.263 144.335C327.866 144.474 328.315 144.689 328.61 144.979C328.906 145.268 329.053 145.645 329.053 146.108C329.053 146.5 328.94 146.849 328.712 147.156C328.488 147.46 328.174 147.699 327.771 147.872C327.37 148.045 326.906 148.132 326.377 148.132C325.644 148.132 325.046 147.976 324.583 147.663C324.12 147.348 323.836 146.901 323.731 146.321L324.962 146.134C325.039 146.455 325.197 146.697 325.435 146.862C325.674 147.024 325.985 147.105 326.369 147.105C326.786 147.105 327.12 147.018 327.37 146.845C327.62 146.669 327.745 146.455 327.745 146.202C327.745 145.997 327.668 145.825 327.515 145.686C327.364 145.547 327.133 145.442 326.82 145.371L325.712 145.128C325.102 144.989 324.65 144.767 324.357 144.463C324.067 144.159 323.923 143.774 323.923 143.308C323.923 142.922 324.031 142.584 324.246 142.294C324.462 142.004 324.761 141.778 325.141 141.616C325.522 141.452 325.958 141.369 326.45 141.369C327.157 141.369 327.714 141.523 328.12 141.83C328.526 142.134 328.795 142.541 328.925 143.053Z" fill="white"/>
</svg>
